<?xml version="1.0" encoding="UTF-8" standalone="no"?>
<!-- Created with Inkscape (http://www.inkscape.org/) -->

<svg
   xmlns:dc="http://purl.org/dc/elements/1.1/"
   xmlns:cc="http://creativecommons.org/ns#"
   xmlns:rdf="http://www.w3.org/1999/02/22-rdf-syntax-ns#"
   xmlns:svg="http://www.w3.org/2000/svg"
   xmlns="http://www.w3.org/2000/svg"
   xmlns:sodipodi="http://sodipodi.sourceforge.net/DTD/sodipodi-0.dtd"
   xmlns:inkscape="http://www.inkscape.org/namespaces/inkscape"
   width="3200"
   height="700"
   id="svg2"
   version="1.1"
   inkscape:version="0.48.3.1 r9886"
   sodipodi:docname="Plot- Misc - PokeBall.svg">
  <sodipodi:namedview
     id="base"
     pagecolor="#ffffff"
     bordercolor="#666666"
     borderopacity="1.0"
     inkscape:pageopacity="0.0"
     inkscape:pageshadow="2"
     inkscape:zoom="0.475"
     inkscape:cx="1600"
     inkscape:cy="350"
     inkscape:document-units="px"
     inkscape:current-layer="layer2"
     showgrid="false"
     inkscape:window-width="1600"
     inkscape:window-height="706"
     inkscape:window-x="-8"
     inkscape:window-y="-8"
     inkscape:window-maximized="1" />
  <defs
     id="defs4" />
  <metadata
     id="metadata7">
    <rdf:RDF>
      <cc:Work
         rdf:about="">
        <dc:format>image/svg+xml</dc:format>
        <dc:type
           rdf:resource="http://purl.org/dc/dcmitype/StillImage" />
        <dc:title />
      </cc:Work>
    </rdf:RDF>
  </metadata>
  <g
     inkscape:label="1 - Red"
     id="layer2"
     inkscape:groupmode="layer"
     sodipodi:insensitive="true"
     style="display:inline">
    <g
       id="g3783">
      <path
         sodipodi:nodetypes="cccscccc"
         inkscape:connector-curvature="0"
         id="rect3000"
         d="m 1.28125,0.53125 0,326.03125 1826.31255,0 c 19.5026,-58.28456 82.4057,-100.9375 156.9687,-100.9375 74.5627,0 137.4347,42.65323 156.9375,100.9375 l 1061.6562,0 0,-326.03125 z"
         style="fill:none;stroke:#ff0000;stroke-width:1;stroke-linecap:round;stroke-linejoin:round;stroke-miterlimit:4;stroke-opacity:1;stroke-dasharray:none" />
      <path
         id="path3786"
         d="m 9.003111,0.53125 0,326.03125 m 8,0 0,-326.03125 m 8,0 0,326.03125 m 8,0 0,-326.03125 m 8,0 0,326.03125 m 8,0 0,-326.03125 m 8,0 0,326.03125 m 8,0 0,-326.03125 m 8,0 0,326.03125 m 8,0 0,-326.03125 m 8,0 0,326.03125 m 8,0 0,-326.03125 m 7.999999,0 0,326.03125 m 8,0 0,-326.03125 m 8,0 0,326.03125 m 8,0 0,-326.03125 m 8,0 0,326.03125 m 8,0 0,-326.03125 m 8,0 0,326.03125 m 8,0 0,-326.03125 m 8,0 0,326.03125 m 8,0 0,-326.03125 m 8,0 0,326.03125 m 8,0 0,-326.03125 m 8,0 0,326.03125 m 8,0 0,-326.03125 m 8,0 0,326.03125 m 8,0 0,-326.03125 m 8,0 0,326.03125 m 8,0 0,-326.03125 m 8,0 0,326.03125 m 8,0 0,-326.03125 m 8,0 0,326.03125 m 8,0 0,-326.03125 m 8,0 0,326.03125 m 8,0 0,-326.03125 m 8,0 0,326.03125 m 8,0 0,-326.03125 m 8,0 0,326.03125 m 8,0 0,-326.03125 m 8,0 0,326.03125 m 8,0 0,-326.03125 m 8,0 0,326.03125 m 8,0 0,-326.03125 m 8,0 0,326.03125 m 8,0 0,-326.03125 m 8,0 0,326.03125 m 8,0 0,-326.03125 m 8,0 0,326.03125 m 8,0 0,-326.03125 m 8,0 0,326.03125 m 8,0 0,-326.03125 m 8,0 0,326.03125 m 8,0 0,-326.03125 m 8,0 0,326.03125 m 8,0 0,-326.03125 m 8,0 0,326.03125 m 8,0 0,-326.03125 m 8,0 0,326.03125 m 8,0 0,-326.03125 m 8,0 0,326.03125 m 8,0 0,-326.03125 m 8,0 0,326.03125 m 8,0 0,-326.03125 m 8,0 0,326.03125 m 8,0 0,-326.03125 m 8,0 0,326.03125 m 8,0 0,-326.03125 m 8,0 0,326.03125 m 8,0 0,-326.03125 m 8,0 0,326.03125 m 8,0 0,-326.03125 m 8,0 0,326.03125 m 8,0 0,-326.03125 m 8,0 0,326.03125 m 8,0 0,-326.03125 m 8,0 0,326.03125 m 8,0 0,-326.03125 m 8,0 0,326.03125 m 8,0 0,-326.03125 m 8,0 0,326.03125 m 8,0 0,-326.03125 m 8,0 0,326.03125 m 8,0 0,-326.03125 m 8,0 0,326.03125 m 8,0 0,-326.03125 m 8,0 0,326.03125 m 8,0 0,-326.03125 m 8,0 0,326.03125 m 8,0 0,-326.03125 m 8,0 0,326.03125 m 8,0 0,-326.03125 m 8,0 0,326.03125 m 8,0 0,-326.03125 m 8,0 0,326.03125 m 8,0 0,-326.03125 m 8,0 0,326.03125 m 8,0 0,-326.03125 m 8,0 0,326.03125 m 8,0 0,-326.03125 m 8,0 0,326.03125 m 8,0 0,-326.03125 m 8,0 0,326.03125 m 8,0 0,-326.03125 m 8,0 0,326.03125 m 8,0 0,-326.03125 m 8,0 0,326.03125 m 8,0 0,-326.03125 m 8,0 0,326.03125 m 8,0 0,-326.03125 m 8,0 0,326.03125 m 8,0 0,-326.03125 m 8,0 0,326.03125 m 8,0 0,-326.03125 m 8,0 0,326.03125 m 8,0 0,-326.03125 m 8,0 0,326.03125 m 8,0 0,-326.03125 m 8,0 0,326.03125 m 8,0 0,-326.03125 m 8,0 0,326.03125 m 8,0 0,-326.03125 m 8,0 0,326.03125 m 8,0 0,-326.03125 m 7.99999,0 0,326.03125 m 8,0 0,-326.03125 m 8,0 0,326.03125 m 8,0 0,-326.03125 m 8,0 0,326.03125 m 8,0 0,-326.03125 m 8,0 0,326.03125 m 8,0 0,-326.03125 m 8,0 0,326.03125 m 8,0 0,-326.03125 m 8,0 0,326.03125 m 8,0 0,-326.03125 m 8,0 0,326.03125 m 8,0 0,-326.03125 m 8,0 0,326.03125 m 8,0 0,-326.03125 m 8,0 0,326.03125 m 8,0 0,-326.03125 m 8,0 0,326.03125 m 8,0 0,-326.03125 m 8,0 0,326.03125 m 8,0 0,-326.03125 m 8,0 0,326.03125 m 8,0 0,-326.03125 m 8,0 0,326.03125 m 8,0 0,-326.03125 m 8,0 0,326.03125 m 8,0 0,-326.03125 m 8,0 0,326.03125 m 8,0 0,-326.03125 m 8,0 0,326.03125 m 8,0 0,-326.03125 m 8,0 0,326.03125 m 8,0 0,-326.03125 m 8,0 0,326.03125 m 8,0 0,-326.03125 m 8,0 0,326.03125 m 8,0 0,-326.03125 m 8,0 0,326.03125 m 8,0 0,-326.03125 m 8,0 0,326.03125 m 8,0 0,-326.03125 m 8,0 0,326.03125 m 8,0 0,-326.03125 m 8,0 0,326.03125 m 8,0 0,-326.03125 m 8,0 0,326.03125 m 8,0 0,-326.03125 m 8,0 0,326.03125 m 8,0 0,-326.03125 m 8,0 0,326.03125 m 8,0 0,-326.03125 m 8,0 0,326.03125 m 8,0 0,-326.03125 m 8,0 0,326.03125 m 8,0 0,-326.03125 m 8,0 0,326.03125 m 8,0 0,-326.03125 m 8,0 0,326.03125 m 8,0 0,-326.03125 m 8,0 0,326.03125 m 8,0 0,-326.03125 m 8,0 0,326.03125 m 8,0 0,-326.03125 m 8,0 0,326.03125 m 8,0 0,-326.03125 m 8,0 0,326.03125 m 8,0 0,-326.03125 m 8,0 0,326.03125 m 8,0 0,-326.03125 m 8,0 0,326.03125 m 8,0 0,-326.03125 m 8,0 0,326.03125 m 8,0 0,-326.03125 m 8,0 0,326.03125 m 8,0 0,-326.03125 m 8,0 0,326.03125 m 8,0 0,-326.03125 m 8,0 0,326.03125 m 8,0 0,-326.03125 m 8,0 0,326.03125 m 8,0 0,-326.03125 m 8,0 0,326.03125 m 8,0 0,-326.03125 m 8,0 0,326.03125 m 8,0 0,-326.03125 m 8,0 0,326.03125 m 8,0 0,-326.03125 m 8,0 0,326.03125 m 8,0 0,-326.03125 m 8,0 0,326.03125 m 8,0 0,-326.03125 m 8,0 0,326.03125 m 8,0 0,-326.03125 m 8,0 0,326.03125 m 8,0 0,-326.03125 m 8,0 0,326.03125 m 8,0 0,-326.03125 m 8,0 0,326.03125 m 8,0 0,-326.03125 m 8,0 0,326.03125 m 8,0 0,-326.03125 m 8,0 0,326.03125 m 8,0 0,-326.03125 m 8,0 0,312.77067 m 8,-14.54648 0,-298.22419 m 8,0 0,286.83673 m 8,-9.33309 0,-277.50364 m 8,0 0,269.61571 m 8,-6.80883 0,-262.80688 m 8,0 0,256.84154 m 8,-5.28264 0,-251.5589 m 8,0 0,246.84323 m 8,-4.03568 0,-242.80755 m 8,0 0,239.27856 m 8,-3.16694 0,-236.11162 m 8,0 0,233.44272 m 8,-2.22534 0,-231.21738 m 8,0 0,229.2439 m 8,-1.44416 0,-227.79974 m 8,0 0,226.63247 m 8,-0.86019 0,-225.77228 m 8,0 0,225.36323 m 8,-0.25377 0,-225.10946 m 8,0 0,225.39466 m 8,0.47244 0,-225.8671 m 8,0 0,226.72736 m 8,1.23184 0,-227.9592 m 8,0 0,229.40354 m 8,2.04014 0,-231.44368 m 8,0 0,233.73864 m 8,2.66943 0,-236.40807 m 8,0 0,239.64899 m 8,3.60866 0,-243.25765 m 8,0 0,247.29435 m 8,4.80325 0,-252.0976 m 8,0 0,257.47808 m 8,6.07699 0,-263.55507 m 8,0 0,270.49454 m 8,8.04524 0,-278.53978 m 8,0 0,288.06894 m 8,11.64246 0,-299.7114 m 8,0 0,314.60833 m 8,11.42292 0,-326.03125 m 8,0 0,326.03125 m 8,0 0,-326.03125 m 8,0 0,326.03125 m 8,0 0,-326.03125 m 8,0 0,326.03125 m 8,0 0,-326.03125 m 8,0 0,326.03125 m 8,0 0,-326.03125 m 8,0 0,326.03125 m 8,0 0,-326.03125 m 8,0 0,326.03125 m 8,0 0,-326.03125 m 8,0 0,326.03125 m 8,0 0,-326.03125 m 8,0 0,326.03125 m 8,0 0,-326.03125 m 8,0 0,326.03125 m 8,0 0,-326.03125 m 8,0 0,326.03125 m 8,0 0,-326.03125 m 8,0 0,326.03125 m 8,0 0,-326.03125 m 8,0 0,326.03125 m 8,0 0,-326.03125 m 8,0 0,326.03125 m 8,0 0,-326.03125 m 8,0 0,326.03125 m 8,0 0,-326.03125 m 8,0 0,326.03125 m 8,0 0,-326.03125 m 8,0 0,326.03125 m 8,0 0,-326.03125 m 8,0 0,326.03125 m 8,0 0,-326.03125 m 8,0 0,326.03125 m 8,0 0,-326.03125 m 8,0 0,326.03125 m 8,0 0,-326.03125 m 8,0 0,326.03125 m 8,0 0,-326.03125 m 8,0 0,326.03125 m 8,0 0,-326.03125 m 8,0 0,326.03125 m 8,0 0,-326.03125 m 8,0 0,326.03125 m 8,0 0,-326.03125 m 8,0 0,326.03125 m 8,0 0,-326.03125 m 8,0 0,326.03125 m 8,0 0,-326.03125 m 8,0 0,326.03125 m 8,0 0,-326.03125 m 8,0 0,326.03125 m 8,0 0,-326.03125 m 8,0 0,326.03125 m 8,0 0,-326.03125 m 8,0 0,326.03125 m 8,0 0,-326.03125 m 8,0 0,326.03125 m 8,0 0,-326.03125 m 8,0 0,326.03125 m 8,0 0,-326.03125 m 8,0 0,326.03125 m 8,0 0,-326.03125 m 8,0 0,326.03125 m 8,0 0,-326.03125 m 8,0 0,326.03125 m 8,0 0,-326.03125 m 8,0 0,326.03125 m 8,0 0,-326.03125 m 8,0 0,326.03125 m 8,0 0,-326.03125 m 8,0 0,326.03125 m 8,0 0,-326.03125 m 8,0 0,326.03125 m 8,0 0,-326.03125 m 8,0 0,326.03125 m 8,0 0,-326.03125 m 8,0 0,326.03125 m 8,0 0,-326.03125 m 8,0 0,326.03125 m 8,0 0,-326.03125 m 8,0 0,326.03125 m 8,0 0,-326.03125 m 8,0 0,326.03125 m 8,0 0,-326.03125 m 8,0 0,326.03125 m 8,0 0,-326.03125 m 8,0 0,326.03125 m 8,0 0,-326.03125 m 8,0 0,326.03125 m 8,0 0,-326.03125 m 8,0 0,326.03125 m 8,0 0,-326.03125 m 8,0 0,326.03125 m 8,0 0,-326.03125 m 8,0 0,326.03125 m 8,0 0,-326.03125 m 8,0 0,326.03125 m 8,0 0,-326.03125 m 8,0 0,326.03125 m 8,0 0,-326.03125 m 8,0 0,326.03125 m 8,0 0,-326.03125 m 8,0 0,326.03125 m 8,0 0,-326.03125 m 8,0 0,326.03125 m 8,0 0,-326.03125 m 8,0 0,326.03125 m 8,0 0,-326.03125 m 8,0 0,326.03125 m 8,0 0,-326.03125 m 8,0 0,326.03125 m 8,0 0,-326.03125 m 8,0 0,326.03125 m 8,0 0,-326.03125 m 8,0 0,326.03125 m 8,0 0,-326.03125 m 8,0 0,326.03125 m 8,0 0,-326.03125 m 8,0 0,326.03125 m 8,0 0,-326.03125 m 8,0 0,326.03125 m 8,0 0,-326.03125 m 8,0 0,326.03125 m 8,0 0,-326.03125 m 8,0 0,326.03125 m 8,0 0,-326.03125 m 8,0 0,326.03125 m 8,0 0,-326.03125 m 8,0 0,326.03125 m 8,0 0,-326.03125"
         style="fill:none;stroke:#ff0000;stroke-width:1;stroke-opacity:1"
         inkscape:connector-curvature="0" />
    </g>
  </g>
  <g
     style="display:inline"
     sodipodi:insensitive="true"
     inkscape:label="2 - Gray"
     id="layer3"
     inkscape:groupmode="layer">
    <g
       id="g3822">
      <path
         inkscape:connector-curvature="0"
         id="path3807"
         transform="matrix(1.0291803,0,0,1.0418461,-54.590407,-11.267572)"
         style="fill:none;stroke:#4b4b4b;stroke-width:1;stroke-linecap:round;stroke-linejoin:round;stroke-miterlimit:4;stroke-opacity:1"
         d="m 2093.9037,360.26425 c 0,50.02489 -49.8085,90.57807 -111.2505,90.57807 -61.442,0 -111.2505,-40.55318 -111.2505,-90.57807 0,-50.02488 49.8085,-90.57806 111.2505,-90.57806 61.442,0 111.2505,40.55318 111.2505,90.57806 z M 1981.0636,217.02948 c -76.6004,0 -141.3198,42.02982 -162.2347,99.67284 l -1764.905737,0 0,84.76539 1766.575737,0 c 22.5271,55.396 85.9031,95.29359 160.5647,95.29359 74.6616,0 138.0377,-39.89759 160.5647,-95.29359 l 1023.3872,0 0,-84.76539 -1021.7475,0 c -20.9171,-57.64016 -85.6064,-99.67284 -162.2044,-99.67284 z" />
      <path
         inkscape:connector-curvature="0"
         style="fill:none;stroke:#4b4b4b;stroke-width:0.96575898;stroke-opacity:1"
         d="m 55.265934,316.70232 0,84.76539 m 7.773177,0 0,-84.76539 m 7.773176,0 0,84.76539 m 7.773176,0 0,-84.76539 m 7.773177,0 0,84.76539 m 7.773176,0 0,-84.76539 m 7.773174,0 0,84.76539 m 7.77318,0 0,-84.76539 m 7.77318,0 0,84.76539 m 7.77317,0 0,-84.76539 m 7.77318,0 0,84.76539 m 7.77317,0 0,-84.76539 m 7.77318,0 0,84.76539 m 7.77318,0 0,-84.76539 m 7.77317,0 0,84.76539 m 7.77318,0 0,-84.76539 m 7.77318,0 0,84.76539 m 7.77317,0 0,-84.76539 m 7.77318,0 0,84.76539 m 7.77318,0 0,-84.76539 m 7.77317,0 0,84.76539 m 7.77318,0 0,-84.76539 m 7.77317,0 0,84.76539 m 7.77318,0 0,-84.76539 m 7.77318,0 0,84.76539 m 7.77317,0 0,-84.76539 m 7.77318,0 0,84.76539 m 7.77318,0 0,-84.76539 m 7.77317,0 0,84.76539 m 7.77318,0 0,-84.76539 m 7.77318,0 0,84.76539 m 7.77317,0 0,-84.76539 m 7.77318,0 0,84.76539 m 7.77317,0 0,-84.76539 m 7.77318,0 0,84.76539 m 7.77318,0 0,-84.76539 m 7.77317,0 0,84.76539 m 7.77318,0 0,-84.76539 m 7.77318,0 0,84.76539 m 7.77317,0 0,-84.76539 m 7.77318,0 0,84.76539 m 7.77318,0 0,-84.76539 m 7.77317,0 0,84.76539 m 7.77318,0 0,-84.76539 m 7.77317,0 0,84.76539 m 7.77318,0 0,-84.76539 m 7.77318,0 0,84.76539 m 7.77317,0 0,-84.76539 m 7.77318,0 0,84.76539 m 7.77318,0 0,-84.76539 m 7.77317,0 0,84.76539 m 7.77318,0 0,-84.76539 m 7.77318,0 0,84.76539 m 7.77317,0 0,-84.76539 m 7.77318,0 0,84.76539 m 7.77317,0 0,-84.76539 m 7.77318,0 0,84.76539 m 7.77318,0 0,-84.76539 m 7.77317,0 0,84.76539 m 7.77318,0 0,-84.76539 m 7.77318,0 0,84.76539 m 7.77317,0 0,-84.76539 m 7.77318,0 0,84.76539 m 7.77318,0 0,-84.76539 m 7.77317,0 0,84.76539 m 7.77318,0 0,-84.76539 m 7.77317,0 0,84.76539 m 7.77318,0 0,-84.76539 m 7.77318,0 0,84.76539 m 7.77317,0 0,-84.76539 m 7.77318,0 0,84.76539 m 7.77318,0 0,-84.76539 m 7.77317,0 0,84.76539 m 7.77318,0 0,-84.76539 m 7.77318,0 0,84.76539 m 7.77317,0 0,-84.76539 m 7.77318,0 0,84.76539 m 7.77318,0 0,-84.76539 m 7.77317,0 0,84.76539 m 7.77318,0 0,-84.76539 m 7.77317,0 0,84.76539 m 7.77318,0 0,-84.76539 m 7.77318,0 0,84.76539 m 7.77317,0 0,-84.76539 m 7.77318,0 0,84.76539 m 7.77318,0 0,-84.76539 m 7.77317,0 0,84.76539 m 7.77318,0 0,-84.76539 m 7.77318,0 0,84.76539 m 7.77317,0 0,-84.76539 m 7.77318,0 0,84.76539 m 7.77318,0 0,-84.76539 m 7.77317,0 0,84.76539 m 7.77318,0 0,-84.76539 m 7.77317,0 0,84.76539 m 7.77318,0 0,-84.76539 m 7.77318,0 0,84.76539 m 7.77317,0 0,-84.76539 m 7.77318,0 0,84.76539 m 7.77318,0 0,-84.76539 m 7.77317,0 0,84.76539 m 7.77318,0 0,-84.76539 m 7.77317,0 0,84.76539 m 7.77318,0 0,-84.76539 m 7.77318,0 0,84.76539 m 7.77317,0 0,-84.76539 m 7.77318,0 0,84.76539 m 7.77318,0 0,-84.76539 m 7.77317,0 0,84.76539 m 7.77318,0 0,-84.76539 m 7.77318,0 0,84.76539 m 7.77317,0 0,-84.76539 m 7.77318,0 0,84.76539 m 7.77317,0 0,-84.76539 m 7.77318,0 0,84.76539 m 7.77318,0 0,-84.76539 m 7.77317,0 0,84.76539 m 7.77318,0 0,-84.76539 m 7.77318,0 0,84.76539 m 7.77317,0 0,-84.76539 m 7.77318,0 0,84.76539 m 7.77318,0 0,-84.76539 m 7.77322,0 0,84.76539 m 7.7731,0 0,-84.76539 m 7.7732,0 0,84.76539 m 7.7732,0 0,-84.76539 m 7.7732,0 0,84.76539 m 7.7731,0 0,-84.76539 m 7.7732,0 0,84.76539 m 7.7732,0 0,-84.76539 m 7.7732,0 0,84.76539 m 7.7731,0 0,-84.76539 m 7.7732,0 0,84.76539 m 7.7732,0 0,-84.76539 m 7.7732,0 0,84.76539 m 7.7731,0 0,-84.76539 m 7.7732,0 0,84.76539 m 7.7732,0 0,-84.76539 m 7.7732,0 0,84.76539 m 7.7732,0 0,-84.76539 m 7.7731,0 0,84.76539 m 7.7732,0 0,-84.76539 m 7.7732,0 0,84.76539 m 7.7732,0 0,-84.76539 m 7.7731,0 0,84.76539 m 7.7732,0 0,-84.76539 m 7.7732,0 0,84.76539 m 7.7732,0 0,-84.76539 m 7.7731,0 0,84.76539 m 7.7732,0 0,-84.76539 m 7.7732,0 0,84.76539 m 7.7732,0 0,-84.76539 m 7.7731,0 0,84.76539 m 7.7732,0 0,-84.76539 m 7.7732,0 0,84.76539 m 7.7732,0 0,-84.76539 m 7.7732,0 0,84.76539 m 7.7731,0 0,-84.76539 m 7.7732,0 0,84.76539 m 7.7732,0 0,-84.76539 m 7.7732,0 0,84.76539 m 7.7731,0 0,-84.76539 m 7.7732,0 0,84.76539 m 7.7732,0 0,-84.76539 m 7.7732,0 0,84.76539 m 7.7731,0 0,-84.76539 m 7.7732,0 0,84.76539 m 7.7732,0 0,-84.76539 m 7.7732,0 0,84.76539 m 7.7731,0 0,-84.76539 m 7.7732,0 0,84.76539 m 7.7732,0 0,-84.76539 m 7.7732,0 0,84.76539 m 7.7731,0 0,-84.76539 m 7.7732,0 0,84.76539 m 7.7732,0 0,-84.76539 m 7.7732,0 0,84.76539 m 7.7732,0 0,-84.76539 m 7.7731,0 0,84.76539 m 7.7732,0 0,-84.76539 m 7.7732,0 0,84.76539 m 7.7732,0 0,-84.76539 m 7.7731,0 0,84.76539 m 7.7732,0 0,-84.76539 m 7.7732,0 0,84.76539 m 7.7732,0 0,-84.76539 m 7.7731,0 0,84.76539 m 7.7732,0 0,-84.76539 m 7.7732,0 0,84.76539 m 7.7732,0 0,-84.76539 m 7.7731,0 0,84.76539 m 7.7732,0 0,-84.76539 m 7.7732,0 0,84.76539 m 7.7732,0 0,-84.76539 m 7.7732,0 0,84.76539 m 7.7731,0 0,-84.76539 m 7.7732,0 0,84.76539 m 7.7732,0 0,-84.76539 m 7.7732,0 0,84.76539 m 7.7731,0 0,-84.76539 m 7.7732,0 0,84.76539 m 7.7732,0 0,-84.76539 m 7.7732,0 0,84.76539 m 7.7731,0 0,-84.76539 m 7.7732,0 0,84.76539 m 7.7732,0 0,-84.76539 m 7.7732,0 0,84.76539 m 7.7731,0 0,-84.76539 m 7.7732,0 0,84.76539 m 7.7732,0 0,-84.76539 m 7.7732,0 0,84.76539 m 7.7732,0 0,-84.76539 m 7.7731,0 0,84.76539 m 7.7732,0 0,-84.76539 m 7.7732,0 0,84.76539 m 7.7732,0 0,-84.76539 m 7.7731,0 0,84.76539 m 7.7732,0 0,-84.76539 m 7.7732,0 0,84.76539 m 7.7732,0 0,-84.76539 m 7.7731,0 0,84.76539 m 7.7732,0 0,-84.76539 m 7.7732,0 0,84.76539 m 7.7732,0 0,-84.76539 m 7.7731,0 0,84.76539 m 7.7732,0 0,-84.76539 m 7.7732,0 0,84.76539 m 7.7732,0 0,-87.0394 m 7.7731,-16.45649 0,117.81112 m 7.7732,12.21622 0,-142.3118 m 7.7732,-9.81939 0,162.03986 m 7.7732,8.32829 0,-178.72558 m 7.7732,-7.20245 0,193.10258 m 7.7731,6.28993 0,-205.62018 m 7.7732,-5.53146 0,91.79416 m 0,124.94311 0,-85.10084 m 7.7732,-136.60152 0,78.35221 m 0,148.35897 0,-71.70262 m 7.7732,-159.47662 0,71.39924 m 0,164.10495 0,-64.60654 m 7.7731,-174.67772 0,66.68372 m 0,176.44265 0,-59.95306 m 7.7732,-186.6151 0,63.36388 m 0,186.69083 0,-56.67798 m 7.7732,-196.47465 0,60.86294 m 0,195.29826 0,-54.08769 m 7.7732,-204.61006 0,58.70989 m 0,202.57336 0,-51.98359 m 7.7731,-211.61589 0,57.1813 m 0,208.76507 0,-50.48566 m 7.7732,-217.36498 0,55.93205 m 0,213.77138 0,-49.18493 m 7.7732,-222.08437 0,54.90128 m 0,217.96268 0,-48.18295 m 7.7732,-226.02662 0,54.13887 m 0,221.38063 0,-47.38487 m 7.7731,-229.0088 0,53.38575 m 0,223.90644 0,-46.65609 m 7.7732,-231.39504 0,53.13301 m 0,225.68108 0,-46.40737 m 7.7732,-232.67251 0,52.76234 m 0,226.57642 0,-46.0298 m 7.7732,-233.44139 0,52.60484 m 0,226.99534 0,-45.86885 m 7.7732,-233.4655 0,52.65859 m 0,226.41688 0,-45.92955 m 7.7731,-232.65384 0,52.86291 m 0,225.21748 0,-46.12295 m 7.7732,-231.1557 0,53.13419 m 0,223.36383 0,-46.41534 m 7.7732,-228.93521 0,53.61401 m 0,220.57245 0,-46.87854 m 7.7732,-225.96206 0,54.44008 m 0,217.07634 0,-47.72629 m 7.7731,-221.94328 0,55.2578 m 0,212.55899 0,-48.53808 m 7.7732,-217.25107 0,56.45751 m 0,207.26546 0,-49.69925 m 7.7732,-211.53785 0,57.85583 m 0,200.96509 0,-51.16726 m 7.7732,-204.80833 0,59.74307 m 0,193.34979 0,-53.0171 m 7.7731,-196.95903 0,62.31975 m 0,184.48464 0,-55.53877 m 7.7732,-187.51076 0,65.44257 m 0,173.96659 0,-58.77608 m 7.7732,-176.4922 0,70.11395 m 0,160.96873 0,-63.40275 m 7.7732,-163.1067 0,77.21405 m 0,144.66273 0,-70.4434 m 7.7731,-146.17128 0,91.84543 m 0,119.60668 0,-85.17432 m 7.7732,-120.2916 0,199.53698 m 7.7732,-6.77993 0,-186.00094 m 7.7732,7.7421 0,170.50585 m 7.7732,-9.03234 0,-152.41487 m 7.7731,10.91621 0,130.70063 m 7.7732,-14.04997 0,-102.91544 m 7.7732,11.30521 0,84.76539 m 7.7732,0 0,-84.76539 m 7.7731,0 0,84.76539 m 7.7732,0 0,-84.76539 m 7.7732,0 0,84.76539 m 7.7732,0 0,-84.76539 m 7.7731,0 0,84.76539 m 7.7732,0 0,-84.76539 m 7.7732,0 0,84.76539 m 7.7732,0 0,-84.76539 m 7.7731,0 0,84.76539 m 7.7732,0 0,-84.76539 m 7.7732,0 0,84.76539 m 7.7732,0 0,-84.76539 m 7.7732,0 0,84.76539 m 7.7731,0 0,-84.76539 m 7.7732,0 0,84.76539 m 7.7732,0 0,-84.76539 m 7.7732,0 0,84.76539 m 7.7731,0 0,-84.76539 m 7.7732,0 0,84.76539 m 7.7732,0 0,-84.76539 m 7.7732,0 0,84.76539 m 7.7731,0 0,-84.76539 m 7.7732,0 0,84.76539 m 7.7732,0 0,-84.76539 m 7.7732,0 0,84.76539 m 7.7731,0 0,-84.76539 m 7.7732,0 0,84.76539 m 7.7732,0 0,-84.76539 m 7.7732,0 0,84.76539 m 7.7731,0 0,-84.76539 m 7.7732,0 0,84.76539 m 7.7732,0 0,-84.76539 m 7.7732,0 0,84.76539 m 7.7732,0 0,-84.76539 m 7.7731,0 0,84.76539 m 7.7732,0 0,-84.76539 m 7.7732,0 0,84.76539 m 7.7732,0 0,-84.76539 m 7.7731,0 0,84.76539 m 7.7732,0 0,-84.76539 m 7.7732,0 0,84.76539 m 7.7732,0 0,-84.76539 m 7.7731,0 0,84.76539 m 7.7732,0 0,-84.76539 m 7.7732,0 0,84.76539 m 7.7732,0 0,-84.76539 m 7.7731,0 0,84.76539 m 7.7732,0 0,-84.76539 m 7.7732,0 0,84.76539 m 7.7732,0 0,-84.76539 m 7.7732,0 0,84.76539 m 7.7731,0 0,-84.76539 m 7.7732,0 0,84.76539 m 7.7732,0 0,-84.76539 m 7.7732,0 0,84.76539 m 7.7731,0 0,-84.76539 m 7.7732,0 0,84.76539 m 7.7732,0 0,-84.76539 m 7.7732,0 0,84.76539 m 7.7731,0 0,-84.76539 m 7.7732,0 0,84.76539 m 7.7732,0 0,-84.76539 m 7.7732,0 0,84.76539 m 7.7731,0 0,-84.76539 m 7.7732,0 0,84.76539 m 7.7732,0 0,-84.76539 m 7.7732,0 0,84.76539 m 7.7732,0 0,-84.76539 m 7.7731,0 0,84.76539 m 7.7732,0 0,-84.76539 m 7.7732,0 0,84.76539 m 7.7732,0 0,-84.76539 m 7.7731,0 0,84.76539 m 7.7732,0 0,-84.76539 m 7.7732,0 0,84.76539 m 7.7732,0 0,-84.76539 m 7.7731,0 0,84.76539 m 7.7732,0 0,-84.76539 m 7.7732,0 0,84.76539 m 7.7732,0 0,-84.76539 m 7.7731,0 0,84.76539 m 7.7732,0 0,-84.76539 m 7.7732,0 0,84.76539 m 7.7732,0 0,-84.76539 m 7.7732,0 0,84.76539 m 7.7731,0 0,-84.76539 m 7.7732,0 0,84.76539 m 7.7732,0 0,-84.76539 m 7.7732,0 0,84.76539 m 7.7731,0 0,-84.76539 m 7.7732,0 0,84.76539 m 7.7732,0 0,-84.76539 m 7.7732,0 0,84.76539 m 7.7731,0 0,-84.76539 m 7.7732,0 0,84.76539 m 7.7732,0 0,-84.76539 m 7.7732,0 0,84.76539 m 7.7731,0 0,-84.76539 m 7.7732,0 0,84.76539 m 7.7732,0 0,-84.76539 m 7.7732,0 0,84.76539 m 7.7731,0 0,-84.76539 m 7.7732,0 0,84.76539 m 7.7732,0 0,-84.76539 m 7.7732,0 0,84.76539 m 7.7732,0 0,-84.76539 m 7.7731,0 0,84.76539 m 7.7732,0 0,-84.76539 m 7.7732,0 0,84.76539 m 7.7732,0 0,-84.76539 m 7.7731,0 0,84.76539 m 7.7732,0 0,-84.76539 m 7.7732,0 0,84.76539 m 7.7732,0 0,-84.76539 m 7.7731,0 0,84.76539 m 7.7732,0 0,-84.76539 m 7.7732,0 0,84.76539 m 7.7732,0 0,-84.76539 m 7.7731,0 0,84.76539 m 7.7732,0 0,-84.76539 m 7.7732,0 0,84.76539 m 7.7732,0 0,-84.76539 m 7.7732,0 0,84.76539 m 7.7731,0 0,-84.76539 m 7.7732,0 0,84.76539 m 7.7732,0 0,-84.76539 m 7.7732,0 0,84.76539 m 7.7731,0 0,-84.76539 m 7.7732,0 0,84.76539 m 7.7732,0 0,-84.76539"
         transform="matrix(1.0291803,0,0,1.0418461,-54.590407,-11.267572)"
         id="path3825" />
    </g>
  </g>
  <g
     sodipodi:insensitive="true"
     inkscape:label="3 - Black"
     id="layer5"
     inkscape:groupmode="layer">
    <path
       inkscape:connector-curvature="0"
       id="path3807-1"
       style="fill:none;stroke:#000000;stroke-width:1;stroke-linecap:round;stroke-linejoin:round;stroke-miterlimit:4;stroke-opacity:1;stroke-dasharray:none"
       d="m 2100.6377,363.91101 c 0,52.11824 -51.2619,94.36841 -114.4968,94.36841 -63.2349,0 -114.4968,-42.25017 -114.4968,-94.36841 0,-52.11822 51.2619,-94.3684 114.4968,-94.3684 63.2349,0 114.4968,42.25018 114.4968,94.3684 z M 1984.5049,214.68243 c -78.8356,0 -145.4435,43.7886 -166.9687,103.84376 l -1816.4062694,0 0,88.31249 1818.1249694,0 c 23.1844,57.7141 88.4098,99.28125 165.25,99.28125 76.8403,0 142.0657,-41.56715 165.25,-99.28125 l 1053.25,0 0,-88.31249 -1051.5624,0 C 2129.915,258.47401 2063.3381,214.68243 1984.5049,214.68243 z" />
    <path
       transform="matrix(0.93711227,0,0,1.0162985,128.75796,-4.8654151)"
       d="m 2065.615,362.71231 a 84.321922,64.193459 0 1 1 -168.6438,0 84.321922,64.193459 0 1 1 168.6438,0 z"
       sodipodi:ry="64.193459"
       sodipodi:rx="84.321922"
       sodipodi:cy="362.71231"
       sodipodi:cx="1981.2931"
       id="path3861"
       style="fill:none;stroke:#000000;stroke-width:1;stroke-linecap:round;stroke-linejoin:round;stroke-miterlimit:4;stroke-opacity:1;stroke-dasharray:none"
       sodipodi:type="arc" />
  </g>
  <eggbot
     serialport="COM3"
     layer="0"
     node="0"
     lastpath="0"
     lastpathnc="0"
     totaldeltax="0"
     totaldeltay="0"
     id="eggbot2989" />
</svg>
