<?xml version="1.0" encoding="UTF-8" standalone="no"?>
<svg
   xmlns:dc="http://purl.org/dc/elements/1.1/"
   xmlns:cc="http://creativecommons.org/ns#"
   xmlns:rdf="http://www.w3.org/1999/02/22-rdf-syntax-ns#"
   xmlns:svg="http://www.w3.org/2000/svg"
   xmlns="http://www.w3.org/2000/svg"
   xmlns:sodipodi="http://sodipodi.sourceforge.net/DTD/sodipodi-0.dtd"
   xmlns:inkscape="http://www.inkscape.org/namespaces/inkscape"
   width="3200"
   height="800"
   id="svg4611"
   version="1.1"
   inkscape:version="0.48.0 r9654"
   sodipodi:docname="pattern-16.svg">
  <metadata
     id="metadata4939">
    <rdf:RDF>
      <cc:Work
         rdf:about="">
        <dc:format>image/svg+xml</dc:format>
        <dc:type
           rdf:resource="http://purl.org/dc/dcmitype/StillImage" />
        <cc:license
           rdf:resource="http://creativecommons.org/licenses/publicdomain/" />
        <dc:title></dc:title>
        <dc:creator>
          <cc:Agent>
            <dc:title>Dan Newman</dc:title>
          </cc:Agent>
        </dc:creator>
        <dc:subject>
          <rdf:Bag>
            <rdf:li>eggbot</rdf:li>
          </rdf:Bag>
        </dc:subject>
        <dc:description>A drawing intended for use with the Eggbot.  See http://www.egg-bot.com/ for details.</dc:description>
      </cc:Work>
      <cc:License
         rdf:about="http://creativecommons.org/licenses/publicdomain/">
        <cc:permits
           rdf:resource="http://creativecommons.org/ns#Reproduction" />
        <cc:permits
           rdf:resource="http://creativecommons.org/ns#Distribution" />
        <cc:permits
           rdf:resource="http://creativecommons.org/ns#DerivativeWorks" />
      </cc:License>
    </rdf:RDF>
  </metadata>
  <defs
     id="defs4937" />
  <sodipodi:namedview
     pagecolor="#ffffff"
     bordercolor="#666666"
     borderopacity="1"
     objecttolerance="10"
     gridtolerance="10"
     guidetolerance="10"
     inkscape:pageopacity="0"
     inkscape:pageshadow="2"
     inkscape:window-width="1332"
     inkscape:window-height="672"
     id="namedview4935"
     showgrid="false"
     inkscape:showpageshadow="false"
     inkscape:zoom="0.26736037"
     inkscape:cx="1147.4273"
     inkscape:cy="379.5"
     inkscape:window-x="0"
     inkscape:window-y="0"
     inkscape:window-maximized="0"
     inkscape:current-layer="layer2" />
  <g
     inkscape:groupmode="layer"
     inkscape:label="2 - black"
     transform="matrix(66.666667,0,0,42.222218,0,41)"
     id="g4613"
     style="fill:none;stroke:#000000;stroke-width:0.015">
    <path
       d="m 0,0.25263243 -0.5,0.99999997 -1,0.5 1,0.5 0.5,1 0.5,-1 1,-0.5 -1,-0.5 -1,0 0,1 1,0 0,-1 L 0,0.25263243"
       id="path4615"
       inkscape:connector-curvature="0" />
    <path
       d="m 0,3.2526324 -0.5,1 -1,0.5 1,0.5 0.5,1 0.5,-1 1,-0.5 -1,-0.5 -1,0 0,1 1,0 0,-1 -0.5,-1"
       id="path4617"
       inkscape:connector-curvature="0" />
    <path
       d="m 0,6.2526324 -0.5,1 -1,0.5 1,0.5 0.5,1 0.5,-1 1,-0.5 -1,-0.5 -1,0 0,1 1,0 0,-1 -0.5,-1"
       id="path4619"
       inkscape:connector-curvature="0" />
    <path
       d="m 0,9.2526324 -0.5,0.9999996 -1,0.5 1,0.5 0.5,1 0.5,-1 1,-0.5 -1,-0.5 -1,0 0,1 1,0 0,-1 L 0,9.2526324"
       id="path4621"
       inkscape:connector-curvature="0" />
    <path
       d="m 0,12.252632 -0.5,1 -1,0.5 1,0.5 0.5,1 0.5,-1 1,-0.5 -1,-0.5 -1,0 0,1 1,0 0,-1 -0.5,-1"
       id="path4623"
       inkscape:connector-curvature="0" />
    <path
       d="m 1.5,13.752632 -0.5,1 -1,0.5 1,0.5 0.5,1 0.5,-1 1,-0.5 -1,-0.5 -1,0 0,1 1,0 0,-1 -0.5,-1"
       id="path4625"
       inkscape:connector-curvature="0" />
    <path
       d="m 1.5,10.752632 -0.5,1 -1,0.5 1,0.5 0.5,1 0.5,-1 1,-0.5 -1,-0.5 -1,0 0,1 1,0 0,-1 -0.5,-1"
       id="path4627"
       inkscape:connector-curvature="0" />
    <path
       d="m 1.5,7.7526324 -0.5,1 -1,0.5 1,0.5 0.5,0.9999996 0.5,-0.9999996 1,-0.5 -1,-0.5 -1,0 0,1 1,0 0,-1 -0.5,-1"
       id="path4629"
       inkscape:connector-curvature="0" />
    <path
       d="m 1.5,4.7526324 -0.5,1 -1,0.5 1,0.5 0.5,1 0.5,-1 1,-0.5 -1,-0.5 -1,0 0,1 1,0 0,-1 -0.5,-1"
       id="path4631"
       inkscape:connector-curvature="0" />
    <path
       d="m 1.5,1.7526324 -0.5,1 -1,0.5 1,0.5 0.5,1 0.5,-1 1,-0.5 -1,-0.5 -1,0 0,1 1,0 0,-1 -0.5,-1"
       id="path4633"
       inkscape:connector-curvature="0" />
    <path
       d="m 3,0.25263243 -0.5,0.99999997 -1,0.5 1,0.5 0.5,1 0.5,-1 1,-0.5 -1,-0.5 -1,0 0,1 1,0 0,-1 L 3,0.25263243"
       id="path4635"
       inkscape:connector-curvature="0" />
    <path
       d="m 3,3.2526324 -0.5,1 -1,0.5 1,0.5 0.5,1 0.5,-1 1,-0.5 -1,-0.5 -1,0 0,1 1,0 0,-1 -0.5,-1"
       id="path4637"
       inkscape:connector-curvature="0" />
    <path
       d="m 3,6.2526324 -0.5,1 -1,0.5 1,0.5 0.5,1 0.5,-1 1,-0.5 -1,-0.5 -1,0 0,1 1,0 0,-1 -0.5,-1"
       id="path4639"
       inkscape:connector-curvature="0" />
    <path
       d="m 3,9.2526324 -0.5,0.9999996 -1,0.5 1,0.5 0.5,1 0.5,-1 1,-0.5 -1,-0.5 -1,0 0,1 1,0 0,-1 L 3,9.2526324"
       id="path4641"
       inkscape:connector-curvature="0" />
    <path
       d="m 3,12.252632 -0.5,1 -1,0.5 1,0.5 0.5,1 0.5,-1 1,-0.5 -1,-0.5 -1,0 0,1 1,0 0,-1 -0.5,-1"
       id="path4643"
       inkscape:connector-curvature="0" />
    <path
       d="m 4.5,13.752632 -0.5,1 -1,0.5 1,0.5 0.5,1 0.5,-1 1,-0.5 -1,-0.5 -1,0 0,1 1,0 0,-1 -0.5,-1"
       id="path4645"
       inkscape:connector-curvature="0" />
    <path
       d="m 4.5,10.752632 -0.5,1 -1,0.5 1,0.5 0.5,1 0.5,-1 1,-0.5 -1,-0.5 -1,0 0,1 1,0 0,-1 -0.5,-1"
       id="path4647"
       inkscape:connector-curvature="0" />
    <path
       d="m 4.5,7.7526324 -0.5,1 -1,0.5 1,0.5 0.5,0.9999996 0.5,-0.9999996 1,-0.5 -1,-0.5 -1,0 0,1 1,0 0,-1 -0.5,-1"
       id="path4649"
       inkscape:connector-curvature="0" />
    <path
       d="m 4.5,4.7526324 -0.5,1 -1,0.5 1,0.5 0.5,1 0.5,-1 1,-0.5 -1,-0.5 -1,0 0,1 1,0 0,-1 -0.5,-1"
       id="path4651"
       inkscape:connector-curvature="0" />
    <path
       d="m 4.5,1.7526324 -0.5,1 -1,0.5 1,0.5 0.5,1 0.5,-1 1,-0.5 -1,-0.5 -1,0 0,1 1,0 0,-1 -0.5,-1"
       id="path4653"
       inkscape:connector-curvature="0" />
    <path
       d="m 6,0.25263243 -0.5,0.99999997 -1,0.5 1,0.5 0.5,1 0.5,-1 1,-0.5 -1,-0.5 -1,0 0,1 1,0 0,-1 L 6,0.25263243"
       id="path4655"
       inkscape:connector-curvature="0" />
    <path
       d="m 6,3.2526324 -0.5,1 -1,0.5 1,0.5 0.5,1 0.5,-1 1,-0.5 -1,-0.5 -1,0 0,1 1,0 0,-1 -0.5,-1"
       id="path4657"
       inkscape:connector-curvature="0" />
    <path
       d="m 6,6.2526324 -0.5,1 -1,0.5 1,0.5 0.5,1 0.5,-1 1,-0.5 -1,-0.5 -1,0 0,1 1,0 0,-1 -0.5,-1"
       id="path4659"
       inkscape:connector-curvature="0" />
    <path
       d="m 6,9.2526324 -0.5,0.9999996 -1,0.5 1,0.5 0.5,1 0.5,-1 1,-0.5 -1,-0.5 -1,0 0,1 1,0 0,-1 L 6,9.2526324"
       id="path4661"
       inkscape:connector-curvature="0" />
    <path
       d="m 6,12.252632 -0.5,1 -1,0.5 1,0.5 0.5,1 0.5,-1 1,-0.5 -1,-0.5 -1,0 0,1 1,0 0,-1 -0.5,-1"
       id="path4663"
       inkscape:connector-curvature="0" />
    <path
       d="m 7.5,13.752632 -0.5,1 -1,0.5 1,0.5 0.5,1 0.5,-1 1,-0.5 -1,-0.5 -1,0 0,1 1,0 0,-1 -0.5,-1"
       id="path4665"
       inkscape:connector-curvature="0" />
    <path
       d="m 7.5,10.752632 -0.5,1 -1,0.5 1,0.5 0.5,1 0.5,-1 1,-0.5 -1,-0.5 -1,0 0,1 1,0 0,-1 -0.5,-1"
       id="path4667"
       inkscape:connector-curvature="0" />
    <path
       d="m 7.5,7.7526324 -0.5,1 -1,0.5 1,0.5 0.5,0.9999996 0.5,-0.9999996 1,-0.5 -1,-0.5 -1,0 0,1 1,0 0,-1 -0.5,-1"
       id="path4669"
       inkscape:connector-curvature="0" />
    <path
       d="m 7.5,4.7526324 -0.5,1 -1,0.5 1,0.5 0.5,1 0.5,-1 1,-0.5 -1,-0.5 -1,0 0,1 1,0 0,-1 -0.5,-1"
       id="path4671"
       inkscape:connector-curvature="0" />
    <path
       d="m 7.5,1.7526324 -0.5,1 -1,0.5 1,0.5 0.5,1 0.5,-1 1,-0.5 -1,-0.5 -1,0 0,1 1,0 0,-1 -0.5,-1"
       id="path4673"
       inkscape:connector-curvature="0" />
    <path
       d="m 9,0.25263243 -0.5,0.99999997 -1,0.5 1,0.5 0.5,1 0.5,-1 1,-0.5 -1,-0.5 -1,0 0,1 1,0 0,-1 L 9,0.25263243"
       id="path4675"
       inkscape:connector-curvature="0" />
    <path
       d="m 9,3.2526324 -0.5,1 -1,0.5 1,0.5 0.5,1 0.5,-1 1,-0.5 -1,-0.5 -1,0 0,1 1,0 0,-1 -0.5,-1"
       id="path4677"
       inkscape:connector-curvature="0" />
    <path
       d="m 9,6.2526324 -0.5,1 -1,0.5 1,0.5 0.5,1 0.5,-1 1,-0.5 -1,-0.5 -1,0 0,1 1,0 0,-1 -0.5,-1"
       id="path4679"
       inkscape:connector-curvature="0" />
    <path
       d="m 9,9.2526324 -0.5,0.9999996 -1,0.5 1,0.5 0.5,1 0.5,-1 1,-0.5 -1,-0.5 -1,0 0,1 1,0 0,-1 L 9,9.2526324"
       id="path4681"
       inkscape:connector-curvature="0" />
    <path
       d="m 9,12.252632 -0.5,1 -1,0.5 1,0.5 0.5,1 0.5,-1 1,-0.5 -1,-0.5 -1,0 0,1 1,0 0,-1 -0.5,-1"
       id="path4683"
       inkscape:connector-curvature="0" />
    <path
       d="m 10.5,13.752632 -0.5,1 -1,0.5 1,0.5 0.5,1 0.5,-1 1,-0.5 -1,-0.5 -1,0 0,1 1,0 0,-1 -0.5,-1"
       id="path4685"
       inkscape:connector-curvature="0" />
    <path
       d="m 10.5,10.752632 -0.5,1 -1,0.5 1,0.5 0.5,1 0.5,-1 1,-0.5 -1,-0.5 -1,0 0,1 1,0 0,-1 -0.5,-1"
       id="path4687"
       inkscape:connector-curvature="0" />
    <path
       d="m 10.5,7.7526324 -0.5,1 -1,0.5 1,0.5 0.5,0.9999996 0.5,-0.9999996 1,-0.5 -1,-0.5 -1,0 0,1 1,0 0,-1 -0.5,-1"
       id="path4689"
       inkscape:connector-curvature="0" />
    <path
       d="m 10.5,4.7526324 -0.5,1 -1,0.5 1,0.5 0.5,1 0.5,-1 1,-0.5 -1,-0.5 -1,0 0,1 1,0 0,-1 -0.5,-1"
       id="path4691"
       inkscape:connector-curvature="0" />
    <path
       d="m 10.5,1.7526324 -0.5,1 -1,0.5 1,0.5 0.5,1 0.5,-1 1,-0.5 -1,-0.5 -1,0 0,1 1,0 0,-1 -0.5,-1"
       id="path4693"
       inkscape:connector-curvature="0" />
    <path
       d="m 12,0.25263243 -0.5,0.99999997 -1,0.5 1,0.5 0.5,1 0.5,-1 1,-0.5 -1,-0.5 -1,0 0,1 1,0 0,-1 L 12,0.25263243"
       id="path4695"
       inkscape:connector-curvature="0" />
    <path
       d="m 12,3.2526324 -0.5,1 -1,0.5 1,0.5 0.5,1 0.5,-1 1,-0.5 -1,-0.5 -1,0 0,1 1,0 0,-1 -0.5,-1"
       id="path4697"
       inkscape:connector-curvature="0" />
    <path
       d="m 12,6.2526324 -0.5,1 -1,0.5 1,0.5 0.5,1 0.5,-1 1,-0.5 -1,-0.5 -1,0 0,1 1,0 0,-1 -0.5,-1"
       id="path4699"
       inkscape:connector-curvature="0" />
    <path
       d="m 12,9.2526324 -0.5,0.9999996 -1,0.5 1,0.5 0.5,1 0.5,-1 1,-0.5 -1,-0.5 -1,0 0,1 1,0 0,-1 L 12,9.2526324"
       id="path4701"
       inkscape:connector-curvature="0" />
    <path
       d="m 12,12.252632 -0.5,1 -1,0.5 1,0.5 0.5,1 0.5,-1 1,-0.5 -1,-0.5 -1,0 0,1 1,0 0,-1 -0.5,-1"
       id="path4703"
       inkscape:connector-curvature="0" />
    <path
       d="m 13.5,13.752632 -0.5,1 -1,0.5 1,0.5 0.5,1 0.5,-1 1,-0.5 -1,-0.5 -1,0 0,1 1,0 0,-1 -0.5,-1"
       id="path4705"
       inkscape:connector-curvature="0" />
    <path
       d="m 13.5,10.752632 -0.5,1 -1,0.5 1,0.5 0.5,1 0.5,-1 1,-0.5 -1,-0.5 -1,0 0,1 1,0 0,-1 -0.5,-1"
       id="path4707"
       inkscape:connector-curvature="0" />
    <path
       d="m 13.5,7.7526324 -0.5,1 -1,0.5 1,0.5 0.5,0.9999996 0.5,-0.9999996 1,-0.5 -1,-0.5 -1,0 0,1 1,0 0,-1 -0.5,-1"
       id="path4709"
       inkscape:connector-curvature="0" />
    <path
       d="m 13.5,4.7526324 -0.5,1 -1,0.5 1,0.5 0.5,1 0.5,-1 1,-0.5 -1,-0.5 -1,0 0,1 1,0 0,-1 -0.5,-1"
       id="path4711"
       inkscape:connector-curvature="0" />
    <path
       d="m 13.5,1.7526324 -0.5,1 -1,0.5 1,0.5 0.5,1 0.5,-1 1,-0.5 -1,-0.5 -1,0 0,1 1,0 0,-1 -0.5,-1"
       id="path4713"
       inkscape:connector-curvature="0" />
    <path
       d="m 15,0.25263243 -0.5,0.99999997 -1,0.5 1,0.5 0.5,1 0.5,-1 1,-0.5 -1,-0.5 -1,0 0,1 1,0 0,-1 L 15,0.25263243"
       id="path4715"
       inkscape:connector-curvature="0" />
    <path
       d="m 15,3.2526324 -0.5,1 -1,0.5 1,0.5 0.5,1 0.5,-1 1,-0.5 -1,-0.5 -1,0 0,1 1,0 0,-1 -0.5,-1"
       id="path4717"
       inkscape:connector-curvature="0" />
    <path
       d="m 15,6.2526324 -0.5,1 -1,0.5 1,0.5 0.5,1 0.5,-1 1,-0.5 -1,-0.5 -1,0 0,1 1,0 0,-1 -0.5,-1"
       id="path4719"
       inkscape:connector-curvature="0" />
    <path
       d="m 15,9.2526324 -0.5,0.9999996 -1,0.5 1,0.5 0.5,1 0.5,-1 1,-0.5 -1,-0.5 -1,0 0,1 1,0 0,-1 L 15,9.2526324"
       id="path4721"
       inkscape:connector-curvature="0" />
    <path
       d="m 15,12.252632 -0.5,1 -1,0.5 1,0.5 0.5,1 0.5,-1 1,-0.5 -1,-0.5 -1,0 0,1 1,0 0,-1 -0.5,-1"
       id="path4723"
       inkscape:connector-curvature="0" />
    <path
       d="m 16.5,13.752632 -0.5,1 -1,0.5 1,0.5 0.5,1 0.5,-1 1,-0.5 -1,-0.5 -1,0 0,1 1,0 0,-1 -0.5,-1"
       id="path4725"
       inkscape:connector-curvature="0" />
    <path
       d="m 16.5,10.752632 -0.5,1 -1,0.5 1,0.5 0.5,1 0.5,-1 1,-0.5 -1,-0.5 -1,0 0,1 1,0 0,-1 -0.5,-1"
       id="path4727"
       inkscape:connector-curvature="0" />
    <path
       d="m 16.5,7.7526324 -0.5,1 -1,0.5 1,0.5 0.5,0.9999996 0.5,-0.9999996 1,-0.5 -1,-0.5 -1,0 0,1 1,0 0,-1 -0.5,-1"
       id="path4729"
       inkscape:connector-curvature="0" />
    <path
       d="m 16.5,4.7526324 -0.5,1 -1,0.5 1,0.5 0.5,1 0.5,-1 1,-0.5 -1,-0.5 -1,0 0,1 1,0 0,-1 -0.5,-1"
       id="path4731"
       inkscape:connector-curvature="0" />
    <path
       d="m 16.5,1.7526324 -0.5,1 -1,0.5 1,0.5 0.5,1 0.5,-1 1,-0.5 -1,-0.5 -1,0 0,1 1,0 0,-1 -0.5,-1"
       id="path4733"
       inkscape:connector-curvature="0" />
    <path
       d="m 18,0.25263243 -0.5,0.99999997 -1,0.5 1,0.5 0.5,1 0.5,-1 1,-0.5 -1,-0.5 -1,0 0,1 1,0 0,-1 L 18,0.25263243"
       id="path4735"
       inkscape:connector-curvature="0" />
    <path
       d="m 18,3.2526324 -0.5,1 -1,0.5 1,0.5 0.5,1 0.5,-1 1,-0.5 -1,-0.5 -1,0 0,1 1,0 0,-1 -0.5,-1"
       id="path4737"
       inkscape:connector-curvature="0" />
    <path
       d="m 18,6.2526324 -0.5,1 -1,0.5 1,0.5 0.5,1 0.5,-1 1,-0.5 -1,-0.5 -1,0 0,1 1,0 0,-1 -0.5,-1"
       id="path4739"
       inkscape:connector-curvature="0" />
    <path
       d="m 18,9.2526324 -0.5,0.9999996 -1,0.5 1,0.5 0.5,1 0.5,-1 1,-0.5 -1,-0.5 -1,0 0,1 1,0 0,-1 L 18,9.2526324"
       id="path4741"
       inkscape:connector-curvature="0" />
    <path
       d="m 18,12.252632 -0.5,1 -1,0.5 1,0.5 0.5,1 0.5,-1 1,-0.5 -1,-0.5 -1,0 0,1 1,0 0,-1 -0.5,-1"
       id="path4743"
       inkscape:connector-curvature="0" />
    <path
       d="m 19.5,13.752632 -0.5,1 -1,0.5 1,0.5 0.5,1 0.5,-1 1,-0.5 -1,-0.5 -1,0 0,1 1,0 0,-1 -0.5,-1"
       id="path4745"
       inkscape:connector-curvature="0" />
    <path
       d="m 19.5,10.752632 -0.5,1 -1,0.5 1,0.5 0.5,1 0.5,-1 1,-0.5 -1,-0.5 -1,0 0,1 1,0 0,-1 -0.5,-1"
       id="path4747"
       inkscape:connector-curvature="0" />
    <path
       d="m 19.5,7.7526324 -0.5,1 -1,0.5 1,0.5 0.5,0.9999996 0.5,-0.9999996 1,-0.5 -1,-0.5 -1,0 0,1 1,0 0,-1 -0.5,-1"
       id="path4749"
       inkscape:connector-curvature="0" />
    <path
       d="m 19.5,4.7526324 -0.5,1 -1,0.5 1,0.5 0.5,1 0.5,-1 1,-0.5 -1,-0.5 -1,0 0,1 1,0 0,-1 -0.5,-1"
       id="path4751"
       inkscape:connector-curvature="0" />
    <path
       d="m 19.5,1.7526324 -0.5,1 -1,0.5 1,0.5 0.5,1 0.5,-1 1,-0.5 -1,-0.5 -1,0 0,1 1,0 0,-1 -0.5,-1"
       id="path4753"
       inkscape:connector-curvature="0" />
    <path
       d="m 21,0.25263243 -0.5,0.99999997 -1,0.5 1,0.5 0.5,1 0.5,-1 1,-0.5 -1,-0.5 -1,0 0,1 1,0 0,-1 L 21,0.25263243"
       id="path4755"
       inkscape:connector-curvature="0" />
    <path
       d="m 21,3.2526324 -0.5,1 -1,0.5 1,0.5 0.5,1 0.5,-1 1,-0.5 -1,-0.5 -1,0 0,1 1,0 0,-1 -0.5,-1"
       id="path4757"
       inkscape:connector-curvature="0" />
    <path
       d="m 21,6.2526324 -0.5,1 -1,0.5 1,0.5 0.5,1 0.5,-1 1,-0.5 -1,-0.5 -1,0 0,1 1,0 0,-1 -0.5,-1"
       id="path4759"
       inkscape:connector-curvature="0" />
    <path
       d="m 21,9.2526324 -0.5,0.9999996 -1,0.5 1,0.5 0.5,1 0.5,-1 1,-0.5 -1,-0.5 -1,0 0,1 1,0 0,-1 L 21,9.2526324"
       id="path4761"
       inkscape:connector-curvature="0" />
    <path
       d="m 21,12.252632 -0.5,1 -1,0.5 1,0.5 0.5,1 0.5,-1 1,-0.5 -1,-0.5 -1,0 0,1 1,0 0,-1 -0.5,-1"
       id="path4763"
       inkscape:connector-curvature="0" />
    <path
       d="m 22.5,13.752632 -0.5,1 -1,0.5 1,0.5 0.5,1 0.5,-1 1,-0.5 -1,-0.5 -1,0 0,1 1,0 0,-1 -0.5,-1"
       id="path4765"
       inkscape:connector-curvature="0" />
    <path
       d="m 22.5,10.752632 -0.5,1 -1,0.5 1,0.5 0.5,1 0.5,-1 1,-0.5 -1,-0.5 -1,0 0,1 1,0 0,-1 -0.5,-1"
       id="path4767"
       inkscape:connector-curvature="0" />
    <path
       d="m 22.5,7.7526324 -0.5,1 -1,0.5 1,0.5 0.5,0.9999996 0.5,-0.9999996 1,-0.5 -1,-0.5 -1,0 0,1 1,0 0,-1 -0.5,-1"
       id="path4769"
       inkscape:connector-curvature="0" />
    <path
       d="m 22.5,4.7526324 -0.5,1 -1,0.5 1,0.5 0.5,1 0.5,-1 1,-0.5 -1,-0.5 -1,0 0,1 1,0 0,-1 -0.5,-1"
       id="path4771"
       inkscape:connector-curvature="0" />
    <path
       d="m 22.5,1.7526324 -0.5,1 -1,0.5 1,0.5 0.5,1 0.5,-1 1,-0.5 -1,-0.5 -1,0 0,1 1,0 0,-1 -0.5,-1"
       id="path4773"
       inkscape:connector-curvature="0" />
    <path
       d="m 24,0.25263243 -0.5,0.99999997 -1,0.5 1,0.5 0.5,1 0.5,-1 1,-0.5 -1,-0.5 -1,0 0,1 1,0 0,-1 L 24,0.25263243"
       id="path4775"
       inkscape:connector-curvature="0" />
    <path
       d="m 24,3.2526324 -0.5,1 -1,0.5 1,0.5 0.5,1 0.5,-1 1,-0.5 -1,-0.5 -1,0 0,1 1,0 0,-1 -0.5,-1"
       id="path4777"
       inkscape:connector-curvature="0" />
    <path
       d="m 24,6.2526324 -0.5,1 -1,0.5 1,0.5 0.5,1 0.5,-1 1,-0.5 -1,-0.5 -1,0 0,1 1,0 0,-1 -0.5,-1"
       id="path4779"
       inkscape:connector-curvature="0" />
    <path
       d="m 24,9.2526324 -0.5,0.9999996 -1,0.5 1,0.5 0.5,1 0.5,-1 1,-0.5 -1,-0.5 -1,0 0,1 1,0 0,-1 L 24,9.2526324"
       id="path4781"
       inkscape:connector-curvature="0" />
    <path
       d="m 24,12.252632 -0.5,1 -1,0.5 1,0.5 0.5,1 0.5,-1 1,-0.5 -1,-0.5 -1,0 0,1 1,0 0,-1 -0.5,-1"
       id="path4783"
       inkscape:connector-curvature="0" />
    <path
       d="m 25.5,13.752632 -0.5,1 -1,0.5 1,0.5 0.5,1 0.5,-1 1,-0.5 -1,-0.5 -1,0 0,1 1,0 0,-1 -0.5,-1"
       id="path4785"
       inkscape:connector-curvature="0" />
    <path
       d="m 25.5,10.752632 -0.5,1 -1,0.5 1,0.5 0.5,1 0.5,-1 1,-0.5 -1,-0.5 -1,0 0,1 1,0 0,-1 -0.5,-1"
       id="path4787"
       inkscape:connector-curvature="0" />
    <path
       d="m 25.5,7.7526324 -0.5,1 -1,0.5 1,0.5 0.5,0.9999996 0.5,-0.9999996 1,-0.5 -1,-0.5 -1,0 0,1 1,0 0,-1 -0.5,-1"
       id="path4789"
       inkscape:connector-curvature="0" />
    <path
       d="m 25.5,4.7526324 -0.5,1 -1,0.5 1,0.5 0.5,1 0.5,-1 1,-0.5 -1,-0.5 -1,0 0,1 1,0 0,-1 -0.5,-1"
       id="path4791"
       inkscape:connector-curvature="0" />
    <path
       d="m 25.5,1.7526324 -0.5,1 -1,0.5 1,0.5 0.5,1 0.5,-1 1,-0.5 -1,-0.5 -1,0 0,1 1,0 0,-1 -0.5,-1"
       id="path4793"
       inkscape:connector-curvature="0" />
    <path
       d="m 27,0.25263243 -0.5,0.99999997 -1,0.5 1,0.5 0.5,1 0.5,-1 1,-0.5 -1,-0.5 -1,0 0,1 1,0 0,-1 L 27,0.25263243"
       id="path4795"
       inkscape:connector-curvature="0" />
    <path
       d="m 27,3.2526324 -0.5,1 -1,0.5 1,0.5 0.5,1 0.5,-1 1,-0.5 -1,-0.5 -1,0 0,1 1,0 0,-1 -0.5,-1"
       id="path4797"
       inkscape:connector-curvature="0" />
    <path
       d="m 27,6.2526324 -0.5,1 -1,0.5 1,0.5 0.5,1 0.5,-1 1,-0.5 -1,-0.5 -1,0 0,1 1,0 0,-1 -0.5,-1"
       id="path4799"
       inkscape:connector-curvature="0" />
    <path
       d="m 27,9.2526324 -0.5,0.9999996 -1,0.5 1,0.5 0.5,1 0.5,-1 1,-0.5 -1,-0.5 -1,0 0,1 1,0 0,-1 L 27,9.2526324"
       id="path4801"
       inkscape:connector-curvature="0" />
    <path
       d="m 27,12.252632 -0.5,1 -1,0.5 1,0.5 0.5,1 0.5,-1 1,-0.5 -1,-0.5 -1,0 0,1 1,0 0,-1 -0.5,-1"
       id="path4803"
       inkscape:connector-curvature="0" />
    <path
       d="m 28.5,13.752632 -0.5,1 -1,0.5 1,0.5 0.5,1 0.5,-1 1,-0.5 -1,-0.5 -1,0 0,1 1,0 0,-1 -0.5,-1"
       id="path4805"
       inkscape:connector-curvature="0" />
    <path
       d="m 28.5,10.752632 -0.5,1 -1,0.5 1,0.5 0.5,1 0.5,-1 1,-0.5 -1,-0.5 -1,0 0,1 1,0 0,-1 -0.5,-1"
       id="path4807"
       inkscape:connector-curvature="0" />
    <path
       d="m 28.5,7.7526324 -0.5,1 -1,0.5 1,0.5 0.5,0.9999996 0.5,-0.9999996 1,-0.5 -1,-0.5 -1,0 0,1 1,0 0,-1 -0.5,-1"
       id="path4809"
       inkscape:connector-curvature="0" />
    <path
       d="m 28.5,4.7526324 -0.5,1 -1,0.5 1,0.5 0.5,1 0.5,-1 1,-0.5 -1,-0.5 -1,0 0,1 1,0 0,-1 -0.5,-1"
       id="path4811"
       inkscape:connector-curvature="0" />
    <path
       d="m 28.5,1.7526324 -0.5,1 -1,0.5 1,0.5 0.5,1 0.5,-1 1,-0.5 -1,-0.5 -1,0 0,1 1,0 0,-1 -0.5,-1"
       id="path4813"
       inkscape:connector-curvature="0" />
    <path
       d="m 30,0.25263243 -0.5,0.99999997 -1,0.5 1,0.5 0.5,1 0.5,-1 1,-0.5 -1,-0.5 -1,0 0,1 1,0 0,-1 L 30,0.25263243"
       id="path4815"
       inkscape:connector-curvature="0" />
    <path
       d="m 30,3.2526324 -0.5,1 -1,0.5 1,0.5 0.5,1 0.5,-1 1,-0.5 -1,-0.5 -1,0 0,1 1,0 0,-1 -0.5,-1"
       id="path4817"
       inkscape:connector-curvature="0" />
    <path
       d="m 30,6.2526324 -0.5,1 -1,0.5 1,0.5 0.5,1 0.5,-1 1,-0.5 -1,-0.5 -1,0 0,1 1,0 0,-1 -0.5,-1"
       id="path4819"
       inkscape:connector-curvature="0" />
    <path
       d="m 30,9.2526324 -0.5,0.9999996 -1,0.5 1,0.5 0.5,1 0.5,-1 1,-0.5 -1,-0.5 -1,0 0,1 1,0 0,-1 L 30,9.2526324"
       id="path4821"
       inkscape:connector-curvature="0" />
    <path
       d="m 30,12.252632 -0.5,1 -1,0.5 1,0.5 0.5,1 0.5,-1 1,-0.5 -1,-0.5 -1,0 0,1 1,0 0,-1 -0.5,-1"
       id="path4823"
       inkscape:connector-curvature="0" />
    <path
       d="m 31.5,13.752632 -0.5,1 -1,0.5 1,0.5 0.5,1 0.5,-1 1,-0.5 -1,-0.5 -1,0 0,1 1,0 0,-1 -0.5,-1"
       id="path4825"
       inkscape:connector-curvature="0" />
    <path
       d="m 31.5,10.752632 -0.5,1 -1,0.5 1,0.5 0.5,1 0.5,-1 1,-0.5 -1,-0.5 -1,0 0,1 1,0 0,-1 -0.5,-1"
       id="path4827"
       inkscape:connector-curvature="0" />
    <path
       d="m 31.5,7.7526324 -0.5,1 -1,0.5 1,0.5 0.5,0.9999996 0.5,-0.9999996 1,-0.5 -1,-0.5 -1,0 0,1 1,0 0,-1 -0.5,-1"
       id="path4829"
       inkscape:connector-curvature="0" />
    <path
       d="m 31.5,4.7526324 -0.5,1 -1,0.5 1,0.5 0.5,1 0.5,-1 1,-0.5 -1,-0.5 -1,0 0,1 1,0 0,-1 -0.5,-1"
       id="path4831"
       inkscape:connector-curvature="0" />
    <path
       d="m 31.5,1.7526324 -0.5,1 -1,0.5 1,0.5 0.5,1 0.5,-1 1,-0.5 -1,-0.5 -1,0 0,1 1,0 0,-1 -0.5,-1"
       id="path4833"
       inkscape:connector-curvature="0" />
    <path
       d="m 33,0.25263243 -0.5,0.99999997 -1,0.5 1,0.5 0.5,1 0.5,-1 1,-0.5 -1,-0.5 -1,0 0,1 1,0 0,-1 L 33,0.25263243"
       id="path4835"
       inkscape:connector-curvature="0" />
    <path
       d="m 33,3.2526324 -0.5,1 -1,0.5 1,0.5 0.5,1 0.5,-1 1,-0.5 -1,-0.5 -1,0 0,1 1,0 0,-1 -0.5,-1"
       id="path4837"
       inkscape:connector-curvature="0" />
    <path
       d="m 33,6.2526324 -0.5,1 -1,0.5 1,0.5 0.5,1 0.5,-1 1,-0.5 -1,-0.5 -1,0 0,1 1,0 0,-1 -0.5,-1"
       id="path4839"
       inkscape:connector-curvature="0" />
    <path
       d="m 33,9.2526324 -0.5,0.9999996 -1,0.5 1,0.5 0.5,1 0.5,-1 1,-0.5 -1,-0.5 -1,0 0,1 1,0 0,-1 L 33,9.2526324"
       id="path4841"
       inkscape:connector-curvature="0" />
    <path
       d="m 33,12.252632 -0.5,1 -1,0.5 1,0.5 0.5,1 0.5,-1 1,-0.5 -1,-0.5 -1,0 0,1 1,0 0,-1 -0.5,-1"
       id="path4843"
       inkscape:connector-curvature="0" />
    <path
       d="m 34.5,13.752632 -0.5,1 -1,0.5 1,0.5 0.5,1 0.5,-1 1,-0.5 -1,-0.5 -1,0 0,1 1,0 0,-1 -0.5,-1"
       id="path4845"
       inkscape:connector-curvature="0" />
    <path
       d="m 34.5,10.752632 -0.5,1 -1,0.5 1,0.5 0.5,1 0.5,-1 1,-0.5 -1,-0.5 -1,0 0,1 1,0 0,-1 -0.5,-1"
       id="path4847"
       inkscape:connector-curvature="0" />
    <path
       d="m 34.5,7.7526324 -0.5,1 -1,0.5 1,0.5 0.5,0.9999996 0.5,-0.9999996 1,-0.5 -1,-0.5 -1,0 0,1 1,0 0,-1 -0.5,-1"
       id="path4849"
       inkscape:connector-curvature="0" />
    <path
       d="m 34.5,4.7526324 -0.5,1 -1,0.5 1,0.5 0.5,1 0.5,-1 1,-0.5 -1,-0.5 -1,0 0,1 1,0 0,-1 -0.5,-1"
       id="path4851"
       inkscape:connector-curvature="0" />
    <path
       d="m 34.5,1.7526324 -0.5,1 -1,0.5 1,0.5 0.5,1 0.5,-1 1,-0.5 -1,-0.5 -1,0 0,1 1,0 0,-1 -0.5,-1"
       id="path4853"
       inkscape:connector-curvature="0" />
    <path
       d="m 36,0.25263243 -0.5,0.99999997 -1,0.5 1,0.5 0.5,1 0.5,-1 1,-0.5 -1,-0.5 -1,0 0,1 1,0 0,-1 L 36,0.25263243"
       id="path4855"
       inkscape:connector-curvature="0" />
    <path
       d="m 36,3.2526324 -0.5,1 -1,0.5 1,0.5 0.5,1 0.5,-1 1,-0.5 -1,-0.5 -1,0 0,1 1,0 0,-1 -0.5,-1"
       id="path4857"
       inkscape:connector-curvature="0" />
    <path
       d="m 36,6.2526324 -0.5,1 -1,0.5 1,0.5 0.5,1 0.5,-1 1,-0.5 -1,-0.5 -1,0 0,1 1,0 0,-1 -0.5,-1"
       id="path4859"
       inkscape:connector-curvature="0" />
    <path
       d="m 36,9.2526324 -0.5,0.9999996 -1,0.5 1,0.5 0.5,1 0.5,-1 1,-0.5 -1,-0.5 -1,0 0,1 1,0 0,-1 L 36,9.2526324"
       id="path4861"
       inkscape:connector-curvature="0" />
    <path
       d="m 36,12.252632 -0.5,1 -1,0.5 1,0.5 0.5,1 0.5,-1 1,-0.5 -1,-0.5 -1,0 0,1 1,0 0,-1 -0.5,-1"
       id="path4863"
       inkscape:connector-curvature="0" />
    <path
       d="m 37.5,13.752632 -0.5,1 -1,0.5 1,0.5 0.5,1 0.5,-1 1,-0.5 -1,-0.5 -1,0 0,1 1,0 0,-1 -0.5,-1"
       id="path4865"
       inkscape:connector-curvature="0" />
    <path
       d="m 37.5,10.752632 -0.5,1 -1,0.5 1,0.5 0.5,1 0.5,-1 1,-0.5 -1,-0.5 -1,0 0,1 1,0 0,-1 -0.5,-1"
       id="path4867"
       inkscape:connector-curvature="0" />
    <path
       d="m 37.5,7.7526324 -0.5,1 -1,0.5 1,0.5 0.5,0.9999996 0.5,-0.9999996 1,-0.5 -1,-0.5 -1,0 0,1 1,0 0,-1 -0.5,-1"
       id="path4869"
       inkscape:connector-curvature="0" />
    <path
       d="m 37.5,4.7526324 -0.5,1 -1,0.5 1,0.5 0.5,1 0.5,-1 1,-0.5 -1,-0.5 -1,0 0,1 1,0 0,-1 -0.5,-1"
       id="path4871"
       inkscape:connector-curvature="0" />
    <path
       d="m 37.5,1.7526324 -0.5,1 -1,0.5 1,0.5 0.5,1 0.5,-1 1,-0.5 -1,-0.5 -1,0 0,1 1,0 0,-1 -0.5,-1"
       id="path4873"
       inkscape:connector-curvature="0" />
    <path
       d="m 39,0.25263243 -0.5,0.99999997 -1,0.5 1,0.5 0.5,1 0.5,-1 1,-0.5 -1,-0.5 -1,0 0,1 1,0 0,-1 L 39,0.25263243"
       id="path4875"
       inkscape:connector-curvature="0" />
    <path
       d="m 39,3.2526324 -0.5,1 -1,0.5 1,0.5 0.5,1 0.5,-1 1,-0.5 -1,-0.5 -1,0 0,1 1,0 0,-1 -0.5,-1"
       id="path4877"
       inkscape:connector-curvature="0" />
    <path
       d="m 39,6.2526324 -0.5,1 -1,0.5 1,0.5 0.5,1 0.5,-1 1,-0.5 -1,-0.5 -1,0 0,1 1,0 0,-1 -0.5,-1"
       id="path4879"
       inkscape:connector-curvature="0" />
    <path
       d="m 39,9.2526324 -0.5,0.9999996 -1,0.5 1,0.5 0.5,1 0.5,-1 1,-0.5 -1,-0.5 -1,0 0,1 1,0 0,-1 L 39,9.2526324"
       id="path4881"
       inkscape:connector-curvature="0" />
    <path
       d="m 39,12.252632 -0.5,1 -1,0.5 1,0.5 0.5,1 0.5,-1 1,-0.5 -1,-0.5 -1,0 0,1 1,0 0,-1 -0.5,-1"
       id="path4883"
       inkscape:connector-curvature="0" />
    <path
       d="m 40.5,13.752632 -0.5,1 -1,0.5 1,0.5 0.5,1 0.5,-1 1,-0.5 -1,-0.5 -1,0 0,1 1,0 0,-1 -0.5,-1"
       id="path4885"
       inkscape:connector-curvature="0" />
    <path
       d="m 40.5,10.752632 -0.5,1 -1,0.5 1,0.5 0.5,1 0.5,-1 1,-0.5 -1,-0.5 -1,0 0,1 1,0 0,-1 -0.5,-1"
       id="path4887"
       inkscape:connector-curvature="0" />
    <path
       d="m 40.5,7.7526324 -0.5,1 -1,0.5 1,0.5 0.5,0.9999996 0.5,-0.9999996 1,-0.5 -1,-0.5 -1,0 0,1 1,0 0,-1 -0.5,-1"
       id="path4889"
       inkscape:connector-curvature="0" />
    <path
       d="m 40.5,4.7526324 -0.5,1 -1,0.5 1,0.5 0.5,1 0.5,-1 1,-0.5 -1,-0.5 -1,0 0,1 1,0 0,-1 -0.5,-1"
       id="path4891"
       inkscape:connector-curvature="0" />
    <path
       d="m 40.5,1.7526324 -0.5,1 -1,0.5 1,0.5 0.5,1 0.5,-1 1,-0.5 -1,-0.5 -1,0 0,1 1,0 0,-1 -0.5,-1"
       id="path4893"
       inkscape:connector-curvature="0" />
    <path
       d="m 42,0.25263243 -0.5,0.99999997 -1,0.5 1,0.5 0.5,1 0.5,-1 1,-0.5 -1,-0.5 -1,0 0,1 1,0 0,-1 L 42,0.25263243"
       id="path4895"
       inkscape:connector-curvature="0" />
    <path
       d="m 42,3.2526324 -0.5,1 -1,0.5 1,0.5 0.5,1 0.5,-1 1,-0.5 -1,-0.5 -1,0 0,1 1,0 0,-1 -0.5,-1"
       id="path4897"
       inkscape:connector-curvature="0" />
    <path
       d="m 42,6.2526324 -0.5,1 -1,0.5 1,0.5 0.5,1 0.5,-1 1,-0.5 -1,-0.5 -1,0 0,1 1,0 0,-1 -0.5,-1"
       id="path4899"
       inkscape:connector-curvature="0" />
    <path
       d="m 42,9.2526324 -0.5,0.9999996 -1,0.5 1,0.5 0.5,1 0.5,-1 1,-0.5 -1,-0.5 -1,0 0,1 1,0 0,-1 L 42,9.2526324"
       id="path4901"
       inkscape:connector-curvature="0" />
    <path
       d="m 42,12.252632 -0.5,1 -1,0.5 1,0.5 0.5,1 0.5,-1 1,-0.5 -1,-0.5 -1,0 0,1 1,0 0,-1 -0.5,-1"
       id="path4903"
       inkscape:connector-curvature="0" />
    <path
       d="m 43.5,13.752632 -0.5,1 -1,0.5 1,0.5 0.5,1 0.5,-1 1,-0.5 -1,-0.5 -1,0 0,1 1,0 0,-1 -0.5,-1"
       id="path4905"
       inkscape:connector-curvature="0" />
    <path
       d="m 43.5,10.752632 -0.5,1 -1,0.5 1,0.5 0.5,1 0.5,-1 1,-0.5 -1,-0.5 -1,0 0,1 1,0 0,-1 -0.5,-1"
       id="path4907"
       inkscape:connector-curvature="0" />
    <path
       d="m 43.5,7.7526324 -0.5,1 -1,0.5 1,0.5 0.5,0.9999996 0.5,-0.9999996 1,-0.5 -1,-0.5 -1,0 0,1 1,0 0,-1 -0.5,-1"
       id="path4909"
       inkscape:connector-curvature="0" />
    <path
       d="m 43.5,4.7526324 -0.5,1 -1,0.5 1,0.5 0.5,1 0.5,-1 1,-0.5 -1,-0.5 -1,0 0,1 1,0 0,-1 -0.5,-1"
       id="path4911"
       inkscape:connector-curvature="0" />
    <path
       d="m 43.5,1.7526324 -0.5,1 -1,0.5 1,0.5 0.5,1 0.5,-1 1,-0.5 -1,-0.5 -1,0 0,1 1,0 0,-1 -0.5,-1"
       id="path4913"
       inkscape:connector-curvature="0" />
    <path
       d="m 45,0.25263243 -0.5,0.99999997 -1,0.5 1,0.5 0.5,1 0.5,-1 1,-0.5 -1,-0.5 -1,0 0,1 1,0 0,-1 L 45,0.25263243"
       id="path4915"
       inkscape:connector-curvature="0" />
    <path
       d="m 45,3.2526324 -0.5,1 -1,0.5 1,0.5 0.5,1 0.5,-1 1,-0.5 -1,-0.5 -1,0 0,1 1,0 0,-1 -0.5,-1"
       id="path4917"
       inkscape:connector-curvature="0" />
    <path
       d="m 45,6.2526324 -0.5,1 -1,0.5 1,0.5 0.5,1 0.5,-1 1,-0.5 -1,-0.5 -1,0 0,1 1,0 0,-1 -0.5,-1"
       id="path4919"
       inkscape:connector-curvature="0" />
    <path
       d="m 45,9.2526324 -0.5,0.9999996 -1,0.5 1,0.5 0.5,1 0.5,-1 1,-0.5 -1,-0.5 -1,0 0,1 1,0 0,-1 L 45,9.2526324"
       id="path4921"
       inkscape:connector-curvature="0" />
    <path
       d="m 45,12.252632 -0.5,1 -1,0.5 1,0.5 0.5,1 0.5,-1 1,-0.5 -1,-0.5 -1,0 0,1 1,0 0,-1 -0.5,-1"
       id="path4923"
       inkscape:connector-curvature="0" />
    <path
       d="m 46.5,13.752632 -0.5,1 -1,0.5 1,0.5 0.5,1 0.5,-1 1,-0.5 -1,-0.5 -1,0 0,1 1,0 0,-1 -0.5,-1"
       id="path4925"
       inkscape:connector-curvature="0" />
    <path
       d="m 46.5,10.752632 -0.5,1 -1,0.5 1,0.5 0.5,1 0.5,-1 1,-0.5 -1,-0.5 -1,0 0,1 1,0 0,-1 -0.5,-1"
       id="path4927"
       inkscape:connector-curvature="0" />
    <path
       d="m 46.5,7.7526324 -0.5,1 -1,0.5 1,0.5 0.5,0.9999996 0.5,-0.9999996 1,-0.5 -1,-0.5 -1,0 0,1 1,0 0,-1 -0.5,-1"
       id="path4929"
       inkscape:connector-curvature="0" />
    <path
       d="m 46.5,4.7526324 -0.5,1 -1,0.5 1,0.5 0.5,1 0.5,-1 1,-0.5 -1,-0.5 -1,0 0,1 1,0 0,-1 -0.5,-1"
       id="path4931"
       inkscape:connector-curvature="0" />
    <path
       d="m 46.5,1.7526324 -0.5,1 -1,0.5 1,0.5 0.5,1 0.5,-1 1,-0.5 -1,-0.5 -1,0 0,1 1,0 0,-1 -0.5,-1"
       id="path4933"
       inkscape:connector-curvature="0" />
  </g>
  <g
     inkscape:groupmode="layer"
     id="layer2"
     inkscape:label="1 - test">
    <path
       inkscape:connector-curvature="0"
       style="fill:none;stroke:#000000;stroke-width:5"
       d="m 1600,0 10,0"
       id="path4635-8" />
    <path
       inkscape:connector-curvature="0"
       style="fill:none;stroke:#000000;stroke-width:5"
       d="m 1600,800 10,0"
       id="path4637-5" />
  </g>
</svg>
