<?xml version="1.0" encoding="UTF-8" standalone="no"?>
<svg
   xmlns:dc="http://purl.org/dc/elements/1.1/"
   xmlns:cc="http://creativecommons.org/ns#"
   xmlns:rdf="http://www.w3.org/1999/02/22-rdf-syntax-ns#"
   xmlns:svg="http://www.w3.org/2000/svg"
   xmlns="http://www.w3.org/2000/svg"
   xmlns:sodipodi="http://sodipodi.sourceforge.net/DTD/sodipodi-0.dtd"
   xmlns:inkscape="http://www.inkscape.org/namespaces/inkscape"
   width="3200"
   height="800"
   id="svg2"
   version="1.1"
   inkscape:version="0.48.0 r9654"
   sodipodi:docname="pattern-20.svg">
  <metadata
     id="metadata570">
    <rdf:RDF>
      <cc:Work
         rdf:about="">
        <dc:format>image/svg+xml</dc:format>
        <dc:type
           rdf:resource="http://purl.org/dc/dcmitype/StillImage" />
        <dc:title></dc:title>
        <dc:creator>
          <cc:Agent>
            <dc:title>Dan Newman</dc:title>
          </cc:Agent>
        </dc:creator>
        <dc:subject>
          <rdf:Bag>
            <rdf:li>eggbot</rdf:li>
          </rdf:Bag>
        </dc:subject>
        <dc:description>A drawing intended for plotting with an Eggbot.  See http://www.egg-bot.com/ for details.</dc:description>
        <cc:license
           rdf:resource="http://creativecommons.org/licenses/publicdomain/" />
      </cc:Work>
      <cc:License
         rdf:about="http://creativecommons.org/licenses/publicdomain/">
        <cc:permits
           rdf:resource="http://creativecommons.org/ns#Reproduction" />
        <cc:permits
           rdf:resource="http://creativecommons.org/ns#Distribution" />
        <cc:permits
           rdf:resource="http://creativecommons.org/ns#DerivativeWorks" />
      </cc:License>
    </rdf:RDF>
  </metadata>
  <defs
     id="defs568" />
  <sodipodi:namedview
     pagecolor="#ffffff"
     bordercolor="#666666"
     borderopacity="1"
     objecttolerance="10"
     gridtolerance="10"
     guidetolerance="10"
     inkscape:pageopacity="0"
     inkscape:pageshadow="2"
     inkscape:window-width="1446"
     inkscape:window-height="623"
     id="namedview566"
     showgrid="false"
     inkscape:showpageshadow="false"
     inkscape:zoom="0.23972185"
     inkscape:cx="1572.8852"
     inkscape:cy="379.5"
     inkscape:window-x="-2"
     inkscape:window-y="0"
     inkscape:window-maximized="0"
     inkscape:current-layer="layer1" />
  <g
     inkscape:groupmode="layer"
     inkscape:label="2 - black"
     transform="matrix(53.333333,0,0,33.777774,0,41)"
     id="g4"
     style="fill:none;stroke:#000000;stroke-width:0.01875">
    <path
       d="m 0,-0.62170902 -0.5,1.00000004 -1,0.5 1,0.49999998 0.5,0.9999999 0.5,-0.9999999 1,-0.49999998 -1,-0.5 -1,0 0,0.99999998 1,0 0,-0.99999998 L 0,-0.62170902"
       id="path6"
       inkscape:connector-curvature="0" />
    <path
       d="m 0,2.3782909 -0.5,1 -1,0.5 1,0.5 0.5,1 0.5,-1 1,-0.5 -1,-0.5 -1,0 0,1 1,0 0,-1 -0.5,-1"
       id="path8"
       inkscape:connector-curvature="0" />
    <path
       d="m 0,5.3782909 -0.5,1 -1,0.5 1,0.5 0.5,1 0.5,-1 1,-0.5 -1,-0.5 -1,0 0,1 1,0 0,-1 -0.5,-1"
       id="path10"
       inkscape:connector-curvature="0" />
    <path
       d="m 0,8.3782909 -0.5,1 -1,0.5 1,0.5000001 0.5,0.999999 0.5,-0.999999 1,-0.5000001 -1,-0.5 -1,0 0,1.0000001 1,0 0,-1.0000001 -0.5,-1"
       id="path12"
       inkscape:connector-curvature="0" />
    <path
       d="m 0,11.37829 -0.5,1 -1,0.5 1,0.5 0.5,1 0.5,-1 1,-0.5 -1,-0.5 -1,0 0,1 1,0 0,-1 -0.5,-1"
       id="path14"
       inkscape:connector-curvature="0" />
    <path
       d="m 0,14.37829 -0.5,1 -1,0.5 1,0.5 0.5,1 0.5,-1 1,-0.5 -1,-0.5 -1,0 0,1 1,0 0,-1 -0.5,-1"
       id="path16"
       inkscape:connector-curvature="0" />
    <path
       d="m 0,17.37829 -0.5,1 -1,0.5 1,0.5 0.5,1 0.5,-1 1,-0.5 -1,-0.5 -1,0 0,1 1,0 0,-1 -0.5,-1"
       id="path18"
       inkscape:connector-curvature="0" />
    <path
       d="m 1.5,18.87829 -0.5,1 -1,0.5 1,0.5 0.5,1 0.5,-1 1,-0.5 -1,-0.5 -1,0 0,1 1,0 0,-1 -0.5,-1"
       id="path20"
       inkscape:connector-curvature="0" />
    <path
       d="m 1.5,15.87829 -0.5,1 -1,0.5 1,0.5 0.5,1 0.5,-1 1,-0.5 -1,-0.5 -1,0 0,1 1,0 0,-1 -0.5,-1"
       id="path22"
       inkscape:connector-curvature="0" />
    <path
       d="m 1.5,12.87829 -0.5,1 -1,0.5 1,0.5 0.5,1 0.5,-1 1,-0.5 -1,-0.5 -1,0 0,1 1,0 0,-1 -0.5,-1"
       id="path24"
       inkscape:connector-curvature="0" />
    <path
       d="M 1.5,9.8782909 1,10.87829 l -1,0.5 1,0.5 0.5,1 0.5,-1 1,-0.5 -1,-0.5 -1,0 0,1 1,0 0,-1 -0.5,-0.9999991"
       id="path26"
       inkscape:connector-curvature="0" />
    <path
       d="m 1.5,6.8782909 -0.5,1 -1,0.5 1,0.5 0.5,1 0.5,-1 1,-0.5 -1,-0.5 -1,0 0,1 1,0 0,-1 -0.5,-1"
       id="path28"
       inkscape:connector-curvature="0" />
    <path
       d="m 1.5,3.8782909 -0.5,1 -1,0.5 1,0.5 0.5,1 0.5,-1 1,-0.5 -1,-0.5 -1,0 0,1 1,0 0,-1 -0.5,-1"
       id="path30"
       inkscape:connector-curvature="0" />
    <path
       d="M 1.5,0.87829102 1,1.8782909 l -1,0.5 1,0.5 0.5,1 0.5,-1 1,-0.5 -1,-0.5 -1,0 0,1 1,0 0,-1 -0.5,-0.99999988"
       id="path32"
       inkscape:connector-curvature="0" />
    <path
       d="m 3,-0.62170902 -0.5,1.00000004 -1,0.5 1,0.49999998 0.5,0.9999999 0.5,-0.9999999 1,-0.49999998 -1,-0.5 -1,0 0,0.99999998 1,0 0,-0.99999998 L 3,-0.62170902"
       id="path34"
       inkscape:connector-curvature="0" />
    <path
       d="m 3,2.3782909 -0.5,1 -1,0.5 1,0.5 0.5,1 0.5,-1 1,-0.5 -1,-0.5 -1,0 0,1 1,0 0,-1 -0.5,-1"
       id="path36"
       inkscape:connector-curvature="0" />
    <path
       d="m 3,5.3782909 -0.5,1 -1,0.5 1,0.5 0.5,1 0.5,-1 1,-0.5 -1,-0.5 -1,0 0,1 1,0 0,-1 -0.5,-1"
       id="path38"
       inkscape:connector-curvature="0" />
    <path
       d="m 3,8.3782909 -0.5,1 -1,0.5 1,0.5000001 0.5,0.999999 0.5,-0.999999 1,-0.5000001 -1,-0.5 -1,0 0,1.0000001 1,0 0,-1.0000001 -0.5,-1"
       id="path40"
       inkscape:connector-curvature="0" />
    <path
       d="m 3,11.37829 -0.5,1 -1,0.5 1,0.5 0.5,1 0.5,-1 1,-0.5 -1,-0.5 -1,0 0,1 1,0 0,-1 -0.5,-1"
       id="path42"
       inkscape:connector-curvature="0" />
    <path
       d="m 3,14.37829 -0.5,1 -1,0.5 1,0.5 0.5,1 0.5,-1 1,-0.5 -1,-0.5 -1,0 0,1 1,0 0,-1 -0.5,-1"
       id="path44"
       inkscape:connector-curvature="0" />
    <path
       d="m 3,17.37829 -0.5,1 -1,0.5 1,0.5 0.5,1 0.5,-1 1,-0.5 -1,-0.5 -1,0 0,1 1,0 0,-1 -0.5,-1"
       id="path46"
       inkscape:connector-curvature="0" />
    <path
       d="m 4.5,18.87829 -0.5,1 -1,0.5 1,0.5 0.5,1 0.5,-1 1,-0.5 -1,-0.5 -1,0 0,1 1,0 0,-1 -0.5,-1"
       id="path48"
       inkscape:connector-curvature="0" />
    <path
       d="m 4.5,15.87829 -0.5,1 -1,0.5 1,0.5 0.5,1 0.5,-1 1,-0.5 -1,-0.5 -1,0 0,1 1,0 0,-1 -0.5,-1"
       id="path50"
       inkscape:connector-curvature="0" />
    <path
       d="m 4.5,12.87829 -0.5,1 -1,0.5 1,0.5 0.5,1 0.5,-1 1,-0.5 -1,-0.5 -1,0 0,1 1,0 0,-1 -0.5,-1"
       id="path52"
       inkscape:connector-curvature="0" />
    <path
       d="M 4.5,9.8782909 4,10.87829 l -1,0.5 1,0.5 0.5,1 0.5,-1 1,-0.5 -1,-0.5 -1,0 0,1 1,0 0,-1 -0.5,-0.9999991"
       id="path54"
       inkscape:connector-curvature="0" />
    <path
       d="m 4.5,6.8782909 -0.5,1 -1,0.5 1,0.5 0.5,1 0.5,-1 1,-0.5 -1,-0.5 -1,0 0,1 1,0 0,-1 -0.5,-1"
       id="path56"
       inkscape:connector-curvature="0" />
    <path
       d="m 4.5,3.8782909 -0.5,1 -1,0.5 1,0.5 0.5,1 0.5,-1 1,-0.5 -1,-0.5 -1,0 0,1 1,0 0,-1 -0.5,-1"
       id="path58"
       inkscape:connector-curvature="0" />
    <path
       d="M 4.5,0.87829102 4,1.8782909 l -1,0.5 1,0.5 0.5,1 0.5,-1 1,-0.5 -1,-0.5 -1,0 0,1 1,0 0,-1 -0.5,-0.99999988"
       id="path60"
       inkscape:connector-curvature="0" />
    <path
       d="m 6,-0.62170902 -0.5,1.00000004 -1,0.5 1,0.49999998 0.5,0.9999999 0.5,-0.9999999 1,-0.49999998 -1,-0.5 -1,0 0,0.99999998 1,0 0,-0.99999998 L 6,-0.62170902"
       id="path62"
       inkscape:connector-curvature="0" />
    <path
       d="m 6,2.3782909 -0.5,1 -1,0.5 1,0.5 0.5,1 0.5,-1 1,-0.5 -1,-0.5 -1,0 0,1 1,0 0,-1 -0.5,-1"
       id="path64"
       inkscape:connector-curvature="0" />
    <path
       d="m 6,5.3782909 -0.5,1 -1,0.5 1,0.5 0.5,1 0.5,-1 1,-0.5 -1,-0.5 -1,0 0,1 1,0 0,-1 -0.5,-1"
       id="path66"
       inkscape:connector-curvature="0" />
    <path
       d="m 6,8.3782909 -0.5,1 -1,0.5 1,0.5000001 0.5,0.999999 0.5,-0.999999 1,-0.5000001 -1,-0.5 -1,0 0,1.0000001 1,0 0,-1.0000001 -0.5,-1"
       id="path68"
       inkscape:connector-curvature="0" />
    <path
       d="m 6,11.37829 -0.5,1 -1,0.5 1,0.5 0.5,1 0.5,-1 1,-0.5 -1,-0.5 -1,0 0,1 1,0 0,-1 -0.5,-1"
       id="path70"
       inkscape:connector-curvature="0" />
    <path
       d="m 6,14.37829 -0.5,1 -1,0.5 1,0.5 0.5,1 0.5,-1 1,-0.5 -1,-0.5 -1,0 0,1 1,0 0,-1 -0.5,-1"
       id="path72"
       inkscape:connector-curvature="0" />
    <path
       d="m 6,17.37829 -0.5,1 -1,0.5 1,0.5 0.5,1 0.5,-1 1,-0.5 -1,-0.5 -1,0 0,1 1,0 0,-1 -0.5,-1"
       id="path74"
       inkscape:connector-curvature="0" />
    <path
       d="m 7.5,18.87829 -0.5,1 -1,0.5 1,0.5 0.5,1 0.5,-1 1,-0.5 -1,-0.5 -1,0 0,1 1,0 0,-1 -0.5,-1"
       id="path76"
       inkscape:connector-curvature="0" />
    <path
       d="m 7.5,15.87829 -0.5,1 -1,0.5 1,0.5 0.5,1 0.5,-1 1,-0.5 -1,-0.5 -1,0 0,1 1,0 0,-1 -0.5,-1"
       id="path78"
       inkscape:connector-curvature="0" />
    <path
       d="m 7.5,12.87829 -0.5,1 -1,0.5 1,0.5 0.5,1 0.5,-1 1,-0.5 -1,-0.5 -1,0 0,1 1,0 0,-1 -0.5,-1"
       id="path80"
       inkscape:connector-curvature="0" />
    <path
       d="M 7.5,9.8782909 7,10.87829 l -1,0.5 1,0.5 0.5,1 0.5,-1 1,-0.5 -1,-0.5 -1,0 0,1 1,0 0,-1 -0.5,-0.9999991"
       id="path82"
       inkscape:connector-curvature="0" />
    <path
       d="m 7.5,6.8782909 -0.5,1 -1,0.5 1,0.5 0.5,1 0.5,-1 1,-0.5 -1,-0.5 -1,0 0,1 1,0 0,-1 -0.5,-1"
       id="path84"
       inkscape:connector-curvature="0" />
    <path
       d="m 7.5,3.8782909 -0.5,1 -1,0.5 1,0.5 0.5,1 0.5,-1 1,-0.5 -1,-0.5 -1,0 0,1 1,0 0,-1 -0.5,-1"
       id="path86"
       inkscape:connector-curvature="0" />
    <path
       d="M 7.5,0.87829102 7,1.8782909 l -1,0.5 1,0.5 0.5,1 0.5,-1 1,-0.5 -1,-0.5 -1,0 0,1 1,0 0,-1 -0.5,-0.99999988"
       id="path88"
       inkscape:connector-curvature="0" />
    <path
       d="m 9,-0.62170902 -0.5,1.00000004 -1,0.5 1,0.49999998 0.5,0.9999999 0.5,-0.9999999 1,-0.49999998 -1,-0.5 -1,0 0,0.99999998 1,0 0,-0.99999998 L 9,-0.62170902"
       id="path90"
       inkscape:connector-curvature="0" />
    <path
       d="m 9,2.3782909 -0.5,1 -1,0.5 1,0.5 0.5,1 0.5,-1 1,-0.5 -1,-0.5 -1,0 0,1 1,0 0,-1 -0.5,-1"
       id="path92"
       inkscape:connector-curvature="0" />
    <path
       d="m 9,5.3782909 -0.5,1 -1,0.5 1,0.5 0.5,1 0.5,-1 1,-0.5 -1,-0.5 -1,0 0,1 1,0 0,-1 -0.5,-1"
       id="path94"
       inkscape:connector-curvature="0" />
    <path
       d="m 9,8.3782909 -0.5,1 -1,0.5 1,0.5000001 0.5,0.999999 0.5,-0.999999 1,-0.5000001 -1,-0.5 -1,0 0,1.0000001 1,0 0,-1.0000001 -0.5,-1"
       id="path96"
       inkscape:connector-curvature="0" />
    <path
       d="m 9,11.37829 -0.5,1 -1,0.5 1,0.5 0.5,1 0.5,-1 1,-0.5 -1,-0.5 -1,0 0,1 1,0 0,-1 -0.5,-1"
       id="path98"
       inkscape:connector-curvature="0" />
    <path
       d="m 9,14.37829 -0.5,1 -1,0.5 1,0.5 0.5,1 0.5,-1 1,-0.5 -1,-0.5 -1,0 0,1 1,0 0,-1 -0.5,-1"
       id="path100"
       inkscape:connector-curvature="0" />
    <path
       d="m 9,17.37829 -0.5,1 -1,0.5 1,0.5 0.5,1 0.5,-1 1,-0.5 -1,-0.5 -1,0 0,1 1,0 0,-1 -0.5,-1"
       id="path102"
       inkscape:connector-curvature="0" />
    <path
       d="m 10.5,18.87829 -0.5,1 -1,0.5 1,0.5 0.5,1 0.5,-1 1,-0.5 -1,-0.5 -1,0 0,1 1,0 0,-1 -0.5,-1"
       id="path104"
       inkscape:connector-curvature="0" />
    <path
       d="m 10.5,15.87829 -0.5,1 -1,0.5 1,0.5 0.5,1 0.5,-1 1,-0.5 -1,-0.5 -1,0 0,1 1,0 0,-1 -0.5,-1"
       id="path106"
       inkscape:connector-curvature="0" />
    <path
       d="m 10.5,12.87829 -0.5,1 -1,0.5 1,0.5 0.5,1 0.5,-1 1,-0.5 -1,-0.5 -1,0 0,1 1,0 0,-1 -0.5,-1"
       id="path108"
       inkscape:connector-curvature="0" />
    <path
       d="M 10.5,9.8782909 10,10.87829 l -1,0.5 1,0.5 0.5,1 0.5,-1 1,-0.5 -1,-0.5 -1,0 0,1 1,0 0,-1 -0.5,-0.9999991"
       id="path110"
       inkscape:connector-curvature="0" />
    <path
       d="m 10.5,6.8782909 -0.5,1 -1,0.5 1,0.5 0.5,1 0.5,-1 1,-0.5 -1,-0.5 -1,0 0,1 1,0 0,-1 -0.5,-1"
       id="path112"
       inkscape:connector-curvature="0" />
    <path
       d="m 10.5,3.8782909 -0.5,1 -1,0.5 1,0.5 0.5,1 0.5,-1 1,-0.5 -1,-0.5 -1,0 0,1 1,0 0,-1 -0.5,-1"
       id="path114"
       inkscape:connector-curvature="0" />
    <path
       d="M 10.5,0.87829102 10,1.8782909 l -1,0.5 1,0.5 0.5,1 0.5,-1 1,-0.5 -1,-0.5 -1,0 0,1 1,0 0,-1 -0.5,-0.99999988"
       id="path116"
       inkscape:connector-curvature="0" />
    <path
       d="m 12,-0.62170902 -0.5,1.00000004 -1,0.5 1,0.49999998 0.5,0.9999999 0.5,-0.9999999 1,-0.49999998 -1,-0.5 -1,0 0,0.99999998 1,0 0,-0.99999998 -0.5,-1.00000004"
       id="path118"
       inkscape:connector-curvature="0" />
    <path
       d="m 12,2.3782909 -0.5,1 -1,0.5 1,0.5 0.5,1 0.5,-1 1,-0.5 -1,-0.5 -1,0 0,1 1,0 0,-1 -0.5,-1"
       id="path120"
       inkscape:connector-curvature="0" />
    <path
       d="m 12,5.3782909 -0.5,1 -1,0.5 1,0.5 0.5,1 0.5,-1 1,-0.5 -1,-0.5 -1,0 0,1 1,0 0,-1 -0.5,-1"
       id="path122"
       inkscape:connector-curvature="0" />
    <path
       d="m 12,8.3782909 -0.5,1 -1,0.5 1,0.5000001 0.5,0.999999 0.5,-0.999999 1,-0.5000001 -1,-0.5 -1,0 0,1.0000001 1,0 0,-1.0000001 -0.5,-1"
       id="path124"
       inkscape:connector-curvature="0" />
    <path
       d="m 12,11.37829 -0.5,1 -1,0.5 1,0.5 0.5,1 0.5,-1 1,-0.5 -1,-0.5 -1,0 0,1 1,0 0,-1 -0.5,-1"
       id="path126"
       inkscape:connector-curvature="0" />
    <path
       d="m 12,14.37829 -0.5,1 -1,0.5 1,0.5 0.5,1 0.5,-1 1,-0.5 -1,-0.5 -1,0 0,1 1,0 0,-1 -0.5,-1"
       id="path128"
       inkscape:connector-curvature="0" />
    <path
       d="m 12,17.37829 -0.5,1 -1,0.5 1,0.5 0.5,1 0.5,-1 1,-0.5 -1,-0.5 -1,0 0,1 1,0 0,-1 -0.5,-1"
       id="path130"
       inkscape:connector-curvature="0" />
    <path
       d="m 13.5,18.87829 -0.5,1 -1,0.5 1,0.5 0.5,1 0.5,-1 1,-0.5 -1,-0.5 -1,0 0,1 1,0 0,-1 -0.5,-1"
       id="path132"
       inkscape:connector-curvature="0" />
    <path
       d="m 13.5,15.87829 -0.5,1 -1,0.5 1,0.5 0.5,1 0.5,-1 1,-0.5 -1,-0.5 -1,0 0,1 1,0 0,-1 -0.5,-1"
       id="path134"
       inkscape:connector-curvature="0" />
    <path
       d="m 13.5,12.87829 -0.5,1 -1,0.5 1,0.5 0.5,1 0.5,-1 1,-0.5 -1,-0.5 -1,0 0,1 1,0 0,-1 -0.5,-1"
       id="path136"
       inkscape:connector-curvature="0" />
    <path
       d="M 13.5,9.8782909 13,10.87829 l -1,0.5 1,0.5 0.5,1 0.5,-1 1,-0.5 -1,-0.5 -1,0 0,1 1,0 0,-1 -0.5,-0.9999991"
       id="path138"
       inkscape:connector-curvature="0" />
    <path
       d="m 13.5,6.8782909 -0.5,1 -1,0.5 1,0.5 0.5,1 0.5,-1 1,-0.5 -1,-0.5 -1,0 0,1 1,0 0,-1 -0.5,-1"
       id="path140"
       inkscape:connector-curvature="0" />
    <path
       d="m 13.5,3.8782909 -0.5,1 -1,0.5 1,0.5 0.5,1 0.5,-1 1,-0.5 -1,-0.5 -1,0 0,1 1,0 0,-1 -0.5,-1"
       id="path142"
       inkscape:connector-curvature="0" />
    <path
       d="M 13.5,0.87829102 13,1.8782909 l -1,0.5 1,0.5 0.5,1 0.5,-1 1,-0.5 -1,-0.5 -1,0 0,1 1,0 0,-1 -0.5,-0.99999988"
       id="path144"
       inkscape:connector-curvature="0" />
    <path
       d="m 15,-0.62170902 -0.5,1.00000004 -1,0.5 1,0.49999998 0.5,0.9999999 0.5,-0.9999999 1,-0.49999998 -1,-0.5 -1,0 0,0.99999998 1,0 0,-0.99999998 -0.5,-1.00000004"
       id="path146"
       inkscape:connector-curvature="0" />
    <path
       d="m 15,2.3782909 -0.5,1 -1,0.5 1,0.5 0.5,1 0.5,-1 1,-0.5 -1,-0.5 -1,0 0,1 1,0 0,-1 -0.5,-1"
       id="path148"
       inkscape:connector-curvature="0" />
    <path
       d="m 15,5.3782909 -0.5,1 -1,0.5 1,0.5 0.5,1 0.5,-1 1,-0.5 -1,-0.5 -1,0 0,1 1,0 0,-1 -0.5,-1"
       id="path150"
       inkscape:connector-curvature="0" />
    <path
       d="m 15,8.3782909 -0.5,1 -1,0.5 1,0.5000001 0.5,0.999999 0.5,-0.999999 1,-0.5000001 -1,-0.5 -1,0 0,1.0000001 1,0 0,-1.0000001 -0.5,-1"
       id="path152"
       inkscape:connector-curvature="0" />
    <path
       d="m 15,11.37829 -0.5,1 -1,0.5 1,0.5 0.5,1 0.5,-1 1,-0.5 -1,-0.5 -1,0 0,1 1,0 0,-1 -0.5,-1"
       id="path154"
       inkscape:connector-curvature="0" />
    <path
       d="m 15,14.37829 -0.5,1 -1,0.5 1,0.5 0.5,1 0.5,-1 1,-0.5 -1,-0.5 -1,0 0,1 1,0 0,-1 -0.5,-1"
       id="path156"
       inkscape:connector-curvature="0" />
    <path
       d="m 15,17.37829 -0.5,1 -1,0.5 1,0.5 0.5,1 0.5,-1 1,-0.5 -1,-0.5 -1,0 0,1 1,0 0,-1 -0.5,-1"
       id="path158"
       inkscape:connector-curvature="0" />
    <path
       d="m 16.5,18.87829 -0.5,1 -1,0.5 1,0.5 0.5,1 0.5,-1 1,-0.5 -1,-0.5 -1,0 0,1 1,0 0,-1 -0.5,-1"
       id="path160"
       inkscape:connector-curvature="0" />
    <path
       d="m 16.5,15.87829 -0.5,1 -1,0.5 1,0.5 0.5,1 0.5,-1 1,-0.5 -1,-0.5 -1,0 0,1 1,0 0,-1 -0.5,-1"
       id="path162"
       inkscape:connector-curvature="0" />
    <path
       d="m 16.5,12.87829 -0.5,1 -1,0.5 1,0.5 0.5,1 0.5,-1 1,-0.5 -1,-0.5 -1,0 0,1 1,0 0,-1 -0.5,-1"
       id="path164"
       inkscape:connector-curvature="0" />
    <path
       d="M 16.5,9.8782909 16,10.87829 l -1,0.5 1,0.5 0.5,1 0.5,-1 1,-0.5 -1,-0.5 -1,0 0,1 1,0 0,-1 -0.5,-0.9999991"
       id="path166"
       inkscape:connector-curvature="0" />
    <path
       d="m 16.5,6.8782909 -0.5,1 -1,0.5 1,0.5 0.5,1 0.5,-1 1,-0.5 -1,-0.5 -1,0 0,1 1,0 0,-1 -0.5,-1"
       id="path168"
       inkscape:connector-curvature="0" />
    <path
       d="m 16.5,3.8782909 -0.5,1 -1,0.5 1,0.5 0.5,1 0.5,-1 1,-0.5 -1,-0.5 -1,0 0,1 1,0 0,-1 -0.5,-1"
       id="path170"
       inkscape:connector-curvature="0" />
    <path
       d="M 16.5,0.87829102 16,1.8782909 l -1,0.5 1,0.5 0.5,1 0.5,-1 1,-0.5 -1,-0.5 -1,0 0,1 1,0 0,-1 -0.5,-0.99999988"
       id="path172"
       inkscape:connector-curvature="0" />
    <path
       d="m 18,-0.62170902 -0.5,1.00000004 -1,0.5 1,0.49999998 0.5,0.9999999 0.5,-0.9999999 1,-0.49999998 -1,-0.5 -1,0 0,0.99999998 1,0 0,-0.99999998 -0.5,-1.00000004"
       id="path174"
       inkscape:connector-curvature="0" />
    <path
       d="m 18,2.3782909 -0.5,1 -1,0.5 1,0.5 0.5,1 0.5,-1 1,-0.5 -1,-0.5 -1,0 0,1 1,0 0,-1 -0.5,-1"
       id="path176"
       inkscape:connector-curvature="0" />
    <path
       d="m 18,5.3782909 -0.5,1 -1,0.5 1,0.5 0.5,1 0.5,-1 1,-0.5 -1,-0.5 -1,0 0,1 1,0 0,-1 -0.5,-1"
       id="path178"
       inkscape:connector-curvature="0" />
    <path
       d="m 18,8.3782909 -0.5,1 -1,0.5 1,0.5000001 0.5,0.999999 0.5,-0.999999 1,-0.5000001 -1,-0.5 -1,0 0,1.0000001 1,0 0,-1.0000001 -0.5,-1"
       id="path180"
       inkscape:connector-curvature="0" />
    <path
       d="m 18,11.37829 -0.5,1 -1,0.5 1,0.5 0.5,1 0.5,-1 1,-0.5 -1,-0.5 -1,0 0,1 1,0 0,-1 -0.5,-1"
       id="path182"
       inkscape:connector-curvature="0" />
    <path
       d="m 18,14.37829 -0.5,1 -1,0.5 1,0.5 0.5,1 0.5,-1 1,-0.5 -1,-0.5 -1,0 0,1 1,0 0,-1 -0.5,-1"
       id="path184"
       inkscape:connector-curvature="0" />
    <path
       d="m 18,17.37829 -0.5,1 -1,0.5 1,0.5 0.5,1 0.5,-1 1,-0.5 -1,-0.5 -1,0 0,1 1,0 0,-1 -0.5,-1"
       id="path186"
       inkscape:connector-curvature="0" />
    <path
       d="m 19.5,18.87829 -0.5,1 -1,0.5 1,0.5 0.5,1 0.5,-1 1,-0.5 -1,-0.5 -1,0 0,1 1,0 0,-1 -0.5,-1"
       id="path188"
       inkscape:connector-curvature="0" />
    <path
       d="m 19.5,15.87829 -0.5,1 -1,0.5 1,0.5 0.5,1 0.5,-1 1,-0.5 -1,-0.5 -1,0 0,1 1,0 0,-1 -0.5,-1"
       id="path190"
       inkscape:connector-curvature="0" />
    <path
       d="m 19.5,12.87829 -0.5,1 -1,0.5 1,0.5 0.5,1 0.5,-1 1,-0.5 -1,-0.5 -1,0 0,1 1,0 0,-1 -0.5,-1"
       id="path192"
       inkscape:connector-curvature="0" />
    <path
       d="M 19.5,9.8782909 19,10.87829 l -1,0.5 1,0.5 0.5,1 0.5,-1 1,-0.5 -1,-0.5 -1,0 0,1 1,0 0,-1 -0.5,-0.9999991"
       id="path194"
       inkscape:connector-curvature="0" />
    <path
       d="m 19.5,6.8782909 -0.5,1 -1,0.5 1,0.5 0.5,1 0.5,-1 1,-0.5 -1,-0.5 -1,0 0,1 1,0 0,-1 -0.5,-1"
       id="path196"
       inkscape:connector-curvature="0" />
    <path
       d="m 19.5,3.8782909 -0.5,1 -1,0.5 1,0.5 0.5,1 0.5,-1 1,-0.5 -1,-0.5 -1,0 0,1 1,0 0,-1 -0.5,-1"
       id="path198"
       inkscape:connector-curvature="0" />
    <path
       d="M 19.5,0.87829102 19,1.8782909 l -1,0.5 1,0.5 0.5,1 0.5,-1 1,-0.5 -1,-0.5 -1,0 0,1 1,0 0,-1 -0.5,-0.99999988"
       id="path200"
       inkscape:connector-curvature="0" />
    <path
       d="m 21,-0.62170902 -0.5,1.00000004 -1,0.5 1,0.49999998 0.5,0.9999999 0.5,-0.9999999 1,-0.49999998 -1,-0.5 -1,0 0,0.99999998 1,0 0,-0.99999998 -0.5,-1.00000004"
       id="path202"
       inkscape:connector-curvature="0" />
    <path
       d="m 21,2.3782909 -0.5,1 -1,0.5 1,0.5 0.5,1 0.5,-1 1,-0.5 -1,-0.5 -1,0 0,1 1,0 0,-1 -0.5,-1"
       id="path204"
       inkscape:connector-curvature="0" />
    <path
       d="m 21,5.3782909 -0.5,1 -1,0.5 1,0.5 0.5,1 0.5,-1 1,-0.5 -1,-0.5 -1,0 0,1 1,0 0,-1 -0.5,-1"
       id="path206"
       inkscape:connector-curvature="0" />
    <path
       d="m 21,8.3782909 -0.5,1 -1,0.5 1,0.5000001 0.5,0.999999 0.5,-0.999999 1,-0.5000001 -1,-0.5 -1,0 0,1.0000001 1,0 0,-1.0000001 -0.5,-1"
       id="path208"
       inkscape:connector-curvature="0" />
    <path
       d="m 21,11.37829 -0.5,1 -1,0.5 1,0.5 0.5,1 0.5,-1 1,-0.5 -1,-0.5 -1,0 0,1 1,0 0,-1 -0.5,-1"
       id="path210"
       inkscape:connector-curvature="0" />
    <path
       d="m 21,14.37829 -0.5,1 -1,0.5 1,0.5 0.5,1 0.5,-1 1,-0.5 -1,-0.5 -1,0 0,1 1,0 0,-1 -0.5,-1"
       id="path212"
       inkscape:connector-curvature="0" />
    <path
       d="m 21,17.37829 -0.5,1 -1,0.5 1,0.5 0.5,1 0.5,-1 1,-0.5 -1,-0.5 -1,0 0,1 1,0 0,-1 -0.5,-1"
       id="path214"
       inkscape:connector-curvature="0" />
    <path
       d="m 22.5,18.87829 -0.5,1 -1,0.5 1,0.5 0.5,1 0.5,-1 1,-0.5 -1,-0.5 -1,0 0,1 1,0 0,-1 -0.5,-1"
       id="path216"
       inkscape:connector-curvature="0" />
    <path
       d="m 22.5,15.87829 -0.5,1 -1,0.5 1,0.5 0.5,1 0.5,-1 1,-0.5 -1,-0.5 -1,0 0,1 1,0 0,-1 -0.5,-1"
       id="path218"
       inkscape:connector-curvature="0" />
    <path
       d="m 22.5,12.87829 -0.5,1 -1,0.5 1,0.5 0.5,1 0.5,-1 1,-0.5 -1,-0.5 -1,0 0,1 1,0 0,-1 -0.5,-1"
       id="path220"
       inkscape:connector-curvature="0" />
    <path
       d="M 22.5,9.8782909 22,10.87829 l -1,0.5 1,0.5 0.5,1 0.5,-1 1,-0.5 -1,-0.5 -1,0 0,1 1,0 0,-1 -0.5,-0.9999991"
       id="path222"
       inkscape:connector-curvature="0" />
    <path
       d="m 22.5,6.8782909 -0.5,1 -1,0.5 1,0.5 0.5,1 0.5,-1 1,-0.5 -1,-0.5 -1,0 0,1 1,0 0,-1 -0.5,-1"
       id="path224"
       inkscape:connector-curvature="0" />
    <path
       d="m 22.5,3.8782909 -0.5,1 -1,0.5 1,0.5 0.5,1 0.5,-1 1,-0.5 -1,-0.5 -1,0 0,1 1,0 0,-1 -0.5,-1"
       id="path226"
       inkscape:connector-curvature="0" />
    <path
       d="M 22.5,0.87829102 22,1.8782909 l -1,0.5 1,0.5 0.5,1 0.5,-1 1,-0.5 -1,-0.5 -1,0 0,1 1,0 0,-1 -0.5,-0.99999988"
       id="path228"
       inkscape:connector-curvature="0" />
    <path
       d="m 24,-0.62170902 -0.5,1.00000004 -1,0.5 1,0.49999998 0.5,0.9999999 0.5,-0.9999999 1,-0.49999998 -1,-0.5 -1,0 0,0.99999998 1,0 0,-0.99999998 -0.5,-1.00000004"
       id="path230"
       inkscape:connector-curvature="0" />
    <path
       d="m 24,2.3782909 -0.5,1 -1,0.5 1,0.5 0.5,1 0.5,-1 1,-0.5 -1,-0.5 -1,0 0,1 1,0 0,-1 -0.5,-1"
       id="path232"
       inkscape:connector-curvature="0" />
    <path
       d="m 24,5.3782909 -0.5,1 -1,0.5 1,0.5 0.5,1 0.5,-1 1,-0.5 -1,-0.5 -1,0 0,1 1,0 0,-1 -0.5,-1"
       id="path234"
       inkscape:connector-curvature="0" />
    <path
       d="m 24,8.3782909 -0.5,1 -1,0.5 1,0.5000001 0.5,0.999999 0.5,-0.999999 1,-0.5000001 -1,-0.5 -1,0 0,1.0000001 1,0 0,-1.0000001 -0.5,-1"
       id="path236"
       inkscape:connector-curvature="0" />
    <path
       d="m 24,11.37829 -0.5,1 -1,0.5 1,0.5 0.5,1 0.5,-1 1,-0.5 -1,-0.5 -1,0 0,1 1,0 0,-1 -0.5,-1"
       id="path238"
       inkscape:connector-curvature="0" />
    <path
       d="m 24,14.37829 -0.5,1 -1,0.5 1,0.5 0.5,1 0.5,-1 1,-0.5 -1,-0.5 -1,0 0,1 1,0 0,-1 -0.5,-1"
       id="path240"
       inkscape:connector-curvature="0" />
    <path
       d="m 24,17.37829 -0.5,1 -1,0.5 1,0.5 0.5,1 0.5,-1 1,-0.5 -1,-0.5 -1,0 0,1 1,0 0,-1 -0.5,-1"
       id="path242"
       inkscape:connector-curvature="0" />
    <path
       d="m 25.5,18.87829 -0.5,1 -1,0.5 1,0.5 0.5,1 0.5,-1 1,-0.5 -1,-0.5 -1,0 0,1 1,0 0,-1 -0.5,-1"
       id="path244"
       inkscape:connector-curvature="0" />
    <path
       d="m 25.5,15.87829 -0.5,1 -1,0.5 1,0.5 0.5,1 0.5,-1 1,-0.5 -1,-0.5 -1,0 0,1 1,0 0,-1 -0.5,-1"
       id="path246"
       inkscape:connector-curvature="0" />
    <path
       d="m 25.5,12.87829 -0.5,1 -1,0.5 1,0.5 0.5,1 0.5,-1 1,-0.5 -1,-0.5 -1,0 0,1 1,0 0,-1 -0.5,-1"
       id="path248"
       inkscape:connector-curvature="0" />
    <path
       d="M 25.5,9.8782909 25,10.87829 l -1,0.5 1,0.5 0.5,1 0.5,-1 1,-0.5 -1,-0.5 -1,0 0,1 1,0 0,-1 -0.5,-0.9999991"
       id="path250"
       inkscape:connector-curvature="0" />
    <path
       d="m 25.5,6.8782909 -0.5,1 -1,0.5 1,0.5 0.5,1 0.5,-1 1,-0.5 -1,-0.5 -1,0 0,1 1,0 0,-1 -0.5,-1"
       id="path252"
       inkscape:connector-curvature="0" />
    <path
       d="m 25.5,3.8782909 -0.5,1 -1,0.5 1,0.5 0.5,1 0.5,-1 1,-0.5 -1,-0.5 -1,0 0,1 1,0 0,-1 -0.5,-1"
       id="path254"
       inkscape:connector-curvature="0" />
    <path
       d="M 25.5,0.87829102 25,1.8782909 l -1,0.5 1,0.5 0.5,1 0.5,-1 1,-0.5 -1,-0.5 -1,0 0,1 1,0 0,-1 -0.5,-0.99999988"
       id="path256"
       inkscape:connector-curvature="0" />
    <path
       d="m 27,-0.62170902 -0.5,1.00000004 -1,0.5 1,0.49999998 0.5,0.9999999 0.5,-0.9999999 1,-0.49999998 -1,-0.5 -1,0 0,0.99999998 1,0 0,-0.99999998 -0.5,-1.00000004"
       id="path258"
       inkscape:connector-curvature="0" />
    <path
       d="m 27,2.3782909 -0.5,1 -1,0.5 1,0.5 0.5,1 0.5,-1 1,-0.5 -1,-0.5 -1,0 0,1 1,0 0,-1 -0.5,-1"
       id="path260"
       inkscape:connector-curvature="0" />
    <path
       d="m 27,5.3782909 -0.5,1 -1,0.5 1,0.5 0.5,1 0.5,-1 1,-0.5 -1,-0.5 -1,0 0,1 1,0 0,-1 -0.5,-1"
       id="path262"
       inkscape:connector-curvature="0" />
    <path
       d="m 27,8.3782909 -0.5,1 -1,0.5 1,0.5000001 0.5,0.999999 0.5,-0.999999 1,-0.5000001 -1,-0.5 -1,0 0,1.0000001 1,0 0,-1.0000001 -0.5,-1"
       id="path264"
       inkscape:connector-curvature="0" />
    <path
       d="m 27,11.37829 -0.5,1 -1,0.5 1,0.5 0.5,1 0.5,-1 1,-0.5 -1,-0.5 -1,0 0,1 1,0 0,-1 -0.5,-1"
       id="path266"
       inkscape:connector-curvature="0" />
    <path
       d="m 27,14.37829 -0.5,1 -1,0.5 1,0.5 0.5,1 0.5,-1 1,-0.5 -1,-0.5 -1,0 0,1 1,0 0,-1 -0.5,-1"
       id="path268"
       inkscape:connector-curvature="0" />
    <path
       d="m 27,17.37829 -0.5,1 -1,0.5 1,0.5 0.5,1 0.5,-1 1,-0.5 -1,-0.5 -1,0 0,1 1,0 0,-1 -0.5,-1"
       id="path270"
       inkscape:connector-curvature="0" />
    <path
       d="m 28.5,18.87829 -0.5,1 -1,0.5 1,0.5 0.5,1 0.5,-1 1,-0.5 -1,-0.5 -1,0 0,1 1,0 0,-1 -0.5,-1"
       id="path272"
       inkscape:connector-curvature="0" />
    <path
       d="m 28.5,15.87829 -0.5,1 -1,0.5 1,0.5 0.5,1 0.5,-1 1,-0.5 -1,-0.5 -1,0 0,1 1,0 0,-1 -0.5,-1"
       id="path274"
       inkscape:connector-curvature="0" />
    <path
       d="m 28.5,12.87829 -0.5,1 -1,0.5 1,0.5 0.5,1 0.5,-1 1,-0.5 -1,-0.5 -1,0 0,1 1,0 0,-1 -0.5,-1"
       id="path276"
       inkscape:connector-curvature="0" />
    <path
       d="M 28.5,9.8782909 28,10.87829 l -1,0.5 1,0.5 0.5,1 0.5,-1 1,-0.5 -1,-0.5 -1,0 0,1 1,0 0,-1 -0.5,-0.9999991"
       id="path278"
       inkscape:connector-curvature="0" />
    <path
       d="m 28.5,6.8782909 -0.5,1 -1,0.5 1,0.5 0.5,1 0.5,-1 1,-0.5 -1,-0.5 -1,0 0,1 1,0 0,-1 -0.5,-1"
       id="path280"
       inkscape:connector-curvature="0" />
    <path
       d="m 28.5,3.8782909 -0.5,1 -1,0.5 1,0.5 0.5,1 0.5,-1 1,-0.5 -1,-0.5 -1,0 0,1 1,0 0,-1 -0.5,-1"
       id="path282"
       inkscape:connector-curvature="0" />
    <path
       d="M 28.5,0.87829102 28,1.8782909 l -1,0.5 1,0.5 0.5,1 0.5,-1 1,-0.5 -1,-0.5 -1,0 0,1 1,0 0,-1 -0.5,-0.99999988"
       id="path284"
       inkscape:connector-curvature="0" />
    <path
       d="m 30,-0.62170902 -0.5,1.00000004 -1,0.5 1,0.49999998 0.5,0.9999999 0.5,-0.9999999 1,-0.49999998 -1,-0.5 -1,0 0,0.99999998 1,0 0,-0.99999998 -0.5,-1.00000004"
       id="path286"
       inkscape:connector-curvature="0" />
    <path
       d="m 30,2.3782909 -0.5,1 -1,0.5 1,0.5 0.5,1 0.5,-1 1,-0.5 -1,-0.5 -1,0 0,1 1,0 0,-1 -0.5,-1"
       id="path288"
       inkscape:connector-curvature="0" />
    <path
       d="m 30,5.3782909 -0.5,1 -1,0.5 1,0.5 0.5,1 0.5,-1 1,-0.5 -1,-0.5 -1,0 0,1 1,0 0,-1 -0.5,-1"
       id="path290"
       inkscape:connector-curvature="0" />
    <path
       d="m 30,8.3782909 -0.5,1 -1,0.5 1,0.5000001 0.5,0.999999 0.5,-0.999999 1,-0.5000001 -1,-0.5 -1,0 0,1.0000001 1,0 0,-1.0000001 -0.5,-1"
       id="path292"
       inkscape:connector-curvature="0" />
    <path
       d="m 30,11.37829 -0.5,1 -1,0.5 1,0.5 0.5,1 0.5,-1 1,-0.5 -1,-0.5 -1,0 0,1 1,0 0,-1 -0.5,-1"
       id="path294"
       inkscape:connector-curvature="0" />
    <path
       d="m 30,14.37829 -0.5,1 -1,0.5 1,0.5 0.5,1 0.5,-1 1,-0.5 -1,-0.5 -1,0 0,1 1,0 0,-1 -0.5,-1"
       id="path296"
       inkscape:connector-curvature="0" />
    <path
       d="m 30,17.37829 -0.5,1 -1,0.5 1,0.5 0.5,1 0.5,-1 1,-0.5 -1,-0.5 -1,0 0,1 1,0 0,-1 -0.5,-1"
       id="path298"
       inkscape:connector-curvature="0" />
    <path
       d="m 31.5,18.87829 -0.5,1 -1,0.5 1,0.5 0.5,1 0.5,-1 1,-0.5 -1,-0.5 -1,0 0,1 1,0 0,-1 -0.5,-1"
       id="path300"
       inkscape:connector-curvature="0" />
    <path
       d="m 31.5,15.87829 -0.5,1 -1,0.5 1,0.5 0.5,1 0.5,-1 1,-0.5 -1,-0.5 -1,0 0,1 1,0 0,-1 -0.5,-1"
       id="path302"
       inkscape:connector-curvature="0" />
    <path
       d="m 31.5,12.87829 -0.5,1 -1,0.5 1,0.5 0.5,1 0.5,-1 1,-0.5 -1,-0.5 -1,0 0,1 1,0 0,-1 -0.5,-1"
       id="path304"
       inkscape:connector-curvature="0" />
    <path
       d="M 31.5,9.8782909 31,10.87829 l -1,0.5 1,0.5 0.5,1 0.5,-1 1,-0.5 -1,-0.5 -1,0 0,1 1,0 0,-1 -0.5,-0.9999991"
       id="path306"
       inkscape:connector-curvature="0" />
    <path
       d="m 31.5,6.8782909 -0.5,1 -1,0.5 1,0.5 0.5,1 0.5,-1 1,-0.5 -1,-0.5 -1,0 0,1 1,0 0,-1 -0.5,-1"
       id="path308"
       inkscape:connector-curvature="0" />
    <path
       d="m 31.5,3.8782909 -0.5,1 -1,0.5 1,0.5 0.5,1 0.5,-1 1,-0.5 -1,-0.5 -1,0 0,1 1,0 0,-1 -0.5,-1"
       id="path310"
       inkscape:connector-curvature="0" />
    <path
       d="M 31.5,0.87829102 31,1.8782909 l -1,0.5 1,0.5 0.5,1 0.5,-1 1,-0.5 -1,-0.5 -1,0 0,1 1,0 0,-1 -0.5,-0.99999988"
       id="path312"
       inkscape:connector-curvature="0" />
    <path
       d="m 33,-0.62170902 -0.5,1.00000004 -1,0.5 1,0.49999998 0.5,0.9999999 0.5,-0.9999999 1,-0.49999998 -1,-0.5 -1,0 0,0.99999998 1,0 0,-0.99999998 -0.5,-1.00000004"
       id="path314"
       inkscape:connector-curvature="0" />
    <path
       d="m 33,2.3782909 -0.5,1 -1,0.5 1,0.5 0.5,1 0.5,-1 1,-0.5 -1,-0.5 -1,0 0,1 1,0 0,-1 -0.5,-1"
       id="path316"
       inkscape:connector-curvature="0" />
    <path
       d="m 33,5.3782909 -0.5,1 -1,0.5 1,0.5 0.5,1 0.5,-1 1,-0.5 -1,-0.5 -1,0 0,1 1,0 0,-1 -0.5,-1"
       id="path318"
       inkscape:connector-curvature="0" />
    <path
       d="m 33,8.3782909 -0.5,1 -1,0.5 1,0.5000001 0.5,0.999999 0.5,-0.999999 1,-0.5000001 -1,-0.5 -1,0 0,1.0000001 1,0 0,-1.0000001 -0.5,-1"
       id="path320"
       inkscape:connector-curvature="0" />
    <path
       d="m 33,11.37829 -0.5,1 -1,0.5 1,0.5 0.5,1 0.5,-1 1,-0.5 -1,-0.5 -1,0 0,1 1,0 0,-1 -0.5,-1"
       id="path322"
       inkscape:connector-curvature="0" />
    <path
       d="m 33,14.37829 -0.5,1 -1,0.5 1,0.5 0.5,1 0.5,-1 1,-0.5 -1,-0.5 -1,0 0,1 1,0 0,-1 -0.5,-1"
       id="path324"
       inkscape:connector-curvature="0" />
    <path
       d="m 33,17.37829 -0.5,1 -1,0.5 1,0.5 0.5,1 0.5,-1 1,-0.5 -1,-0.5 -1,0 0,1 1,0 0,-1 -0.5,-1"
       id="path326"
       inkscape:connector-curvature="0" />
    <path
       d="m 34.5,18.87829 -0.5,1 -1,0.5 1,0.5 0.5,1 0.5,-1 1,-0.5 -1,-0.5 -1,0 0,1 1,0 0,-1 -0.5,-1"
       id="path328"
       inkscape:connector-curvature="0" />
    <path
       d="m 34.5,15.87829 -0.5,1 -1,0.5 1,0.5 0.5,1 0.5,-1 1,-0.5 -1,-0.5 -1,0 0,1 1,0 0,-1 -0.5,-1"
       id="path330"
       inkscape:connector-curvature="0" />
    <path
       d="m 34.5,12.87829 -0.5,1 -1,0.5 1,0.5 0.5,1 0.5,-1 1,-0.5 -1,-0.5 -1,0 0,1 1,0 0,-1 -0.5,-1"
       id="path332"
       inkscape:connector-curvature="0" />
    <path
       d="M 34.5,9.8782909 34,10.87829 l -1,0.5 1,0.5 0.5,1 0.5,-1 1,-0.5 -1,-0.5 -1,0 0,1 1,0 0,-1 -0.5,-0.9999991"
       id="path334"
       inkscape:connector-curvature="0" />
    <path
       d="m 34.5,6.8782909 -0.5,1 -1,0.5 1,0.5 0.5,1 0.5,-1 1,-0.5 -1,-0.5 -1,0 0,1 1,0 0,-1 -0.5,-1"
       id="path336"
       inkscape:connector-curvature="0" />
    <path
       d="m 34.5,3.8782909 -0.5,1 -1,0.5 1,0.5 0.5,1 0.5,-1 1,-0.5 -1,-0.5 -1,0 0,1 1,0 0,-1 -0.5,-1"
       id="path338"
       inkscape:connector-curvature="0" />
    <path
       d="M 34.5,0.87829102 34,1.8782909 l -1,0.5 1,0.5 0.5,1 0.5,-1 1,-0.5 -1,-0.5 -1,0 0,1 1,0 0,-1 -0.5,-0.99999988"
       id="path340"
       inkscape:connector-curvature="0" />
    <path
       d="m 36,-0.62170902 -0.5,1.00000004 -1,0.5 1,0.49999998 0.5,0.9999999 0.5,-0.9999999 1,-0.49999998 -1,-0.5 -1,0 0,0.99999998 1,0 0,-0.99999998 -0.5,-1.00000004"
       id="path342"
       inkscape:connector-curvature="0" />
    <path
       d="m 36,2.3782909 -0.5,1 -1,0.5 1,0.5 0.5,1 0.5,-1 1,-0.5 -1,-0.5 -1,0 0,1 1,0 0,-1 -0.5,-1"
       id="path344"
       inkscape:connector-curvature="0" />
    <path
       d="m 36,5.3782909 -0.5,1 -1,0.5 1,0.5 0.5,1 0.5,-1 1,-0.5 -1,-0.5 -1,0 0,1 1,0 0,-1 -0.5,-1"
       id="path346"
       inkscape:connector-curvature="0" />
    <path
       d="m 36,8.3782909 -0.5,1 -1,0.5 1,0.5000001 0.5,0.999999 0.5,-0.999999 1,-0.5000001 -1,-0.5 -1,0 0,1.0000001 1,0 0,-1.0000001 -0.5,-1"
       id="path348"
       inkscape:connector-curvature="0" />
    <path
       d="m 36,11.37829 -0.5,1 -1,0.5 1,0.5 0.5,1 0.5,-1 1,-0.5 -1,-0.5 -1,0 0,1 1,0 0,-1 -0.5,-1"
       id="path350"
       inkscape:connector-curvature="0" />
    <path
       d="m 36,14.37829 -0.5,1 -1,0.5 1,0.5 0.5,1 0.5,-1 1,-0.5 -1,-0.5 -1,0 0,1 1,0 0,-1 -0.5,-1"
       id="path352"
       inkscape:connector-curvature="0" />
    <path
       d="m 36,17.37829 -0.5,1 -1,0.5 1,0.5 0.5,1 0.5,-1 1,-0.5 -1,-0.5 -1,0 0,1 1,0 0,-1 -0.5,-1"
       id="path354"
       inkscape:connector-curvature="0" />
    <path
       d="m 37.5,18.87829 -0.5,1 -1,0.5 1,0.5 0.5,1 0.5,-1 1,-0.5 -1,-0.5 -1,0 0,1 1,0 0,-1 -0.5,-1"
       id="path356"
       inkscape:connector-curvature="0" />
    <path
       d="m 37.5,15.87829 -0.5,1 -1,0.5 1,0.5 0.5,1 0.5,-1 1,-0.5 -1,-0.5 -1,0 0,1 1,0 0,-1 -0.5,-1"
       id="path358"
       inkscape:connector-curvature="0" />
    <path
       d="m 37.5,12.87829 -0.5,1 -1,0.5 1,0.5 0.5,1 0.5,-1 1,-0.5 -1,-0.5 -1,0 0,1 1,0 0,-1 -0.5,-1"
       id="path360"
       inkscape:connector-curvature="0" />
    <path
       d="M 37.5,9.8782909 37,10.87829 l -1,0.5 1,0.5 0.5,1 0.5,-1 1,-0.5 -1,-0.5 -1,0 0,1 1,0 0,-1 -0.5,-0.9999991"
       id="path362"
       inkscape:connector-curvature="0" />
    <path
       d="m 37.5,6.8782909 -0.5,1 -1,0.5 1,0.5 0.5,1 0.5,-1 1,-0.5 -1,-0.5 -1,0 0,1 1,0 0,-1 -0.5,-1"
       id="path364"
       inkscape:connector-curvature="0" />
    <path
       d="m 37.5,3.8782909 -0.5,1 -1,0.5 1,0.5 0.5,1 0.5,-1 1,-0.5 -1,-0.5 -1,0 0,1 1,0 0,-1 -0.5,-1"
       id="path366"
       inkscape:connector-curvature="0" />
    <path
       d="M 37.5,0.87829102 37,1.8782909 l -1,0.5 1,0.5 0.5,1 0.5,-1 1,-0.5 -1,-0.5 -1,0 0,1 1,0 0,-1 -0.5,-0.99999988"
       id="path368"
       inkscape:connector-curvature="0" />
    <path
       d="m 39,-0.62170902 -0.5,1.00000004 -1,0.5 1,0.49999998 0.5,0.9999999 0.5,-0.9999999 1,-0.49999998 -1,-0.5 -1,0 0,0.99999998 1,0 0,-0.99999998 -0.5,-1.00000004"
       id="path370"
       inkscape:connector-curvature="0" />
    <path
       d="m 39,2.3782909 -0.5,1 -1,0.5 1,0.5 0.5,1 0.5,-1 1,-0.5 -1,-0.5 -1,0 0,1 1,0 0,-1 -0.5,-1"
       id="path372"
       inkscape:connector-curvature="0" />
    <path
       d="m 39,5.3782909 -0.5,1 -1,0.5 1,0.5 0.5,1 0.5,-1 1,-0.5 -1,-0.5 -1,0 0,1 1,0 0,-1 -0.5,-1"
       id="path374"
       inkscape:connector-curvature="0" />
    <path
       d="m 39,8.3782909 -0.5,1 -1,0.5 1,0.5000001 0.5,0.999999 0.5,-0.999999 1,-0.5000001 -1,-0.5 -1,0 0,1.0000001 1,0 0,-1.0000001 -0.5,-1"
       id="path376"
       inkscape:connector-curvature="0" />
    <path
       d="m 39,11.37829 -0.5,1 -1,0.5 1,0.5 0.5,1 0.5,-1 1,-0.5 -1,-0.5 -1,0 0,1 1,0 0,-1 -0.5,-1"
       id="path378"
       inkscape:connector-curvature="0" />
    <path
       d="m 39,14.37829 -0.5,1 -1,0.5 1,0.5 0.5,1 0.5,-1 1,-0.5 -1,-0.5 -1,0 0,1 1,0 0,-1 -0.5,-1"
       id="path380"
       inkscape:connector-curvature="0" />
    <path
       d="m 39,17.37829 -0.5,1 -1,0.5 1,0.5 0.5,1 0.5,-1 1,-0.5 -1,-0.5 -1,0 0,1 1,0 0,-1 -0.5,-1"
       id="path382"
       inkscape:connector-curvature="0" />
    <path
       d="m 40.5,18.87829 -0.5,1 -1,0.5 1,0.5 0.5,1 0.5,-1 1,-0.5 -1,-0.5 -1,0 0,1 1,0 0,-1 -0.5,-1"
       id="path384"
       inkscape:connector-curvature="0" />
    <path
       d="m 40.5,15.87829 -0.5,1 -1,0.5 1,0.5 0.5,1 0.5,-1 1,-0.5 -1,-0.5 -1,0 0,1 1,0 0,-1 -0.5,-1"
       id="path386"
       inkscape:connector-curvature="0" />
    <path
       d="m 40.5,12.87829 -0.5,1 -1,0.5 1,0.5 0.5,1 0.5,-1 1,-0.5 -1,-0.5 -1,0 0,1 1,0 0,-1 -0.5,-1"
       id="path388"
       inkscape:connector-curvature="0" />
    <path
       d="M 40.5,9.8782909 40,10.87829 l -1,0.5 1,0.5 0.5,1 0.5,-1 1,-0.5 -1,-0.5 -1,0 0,1 1,0 0,-1 -0.5,-0.9999991"
       id="path390"
       inkscape:connector-curvature="0" />
    <path
       d="m 40.5,6.8782909 -0.5,1 -1,0.5 1,0.5 0.5,1 0.5,-1 1,-0.5 -1,-0.5 -1,0 0,1 1,0 0,-1 -0.5,-1"
       id="path392"
       inkscape:connector-curvature="0" />
    <path
       d="m 40.5,3.8782909 -0.5,1 -1,0.5 1,0.5 0.5,1 0.5,-1 1,-0.5 -1,-0.5 -1,0 0,1 1,0 0,-1 -0.5,-1"
       id="path394"
       inkscape:connector-curvature="0" />
    <path
       d="M 40.5,0.87829102 40,1.8782909 l -1,0.5 1,0.5 0.5,1 0.5,-1 1,-0.5 -1,-0.5 -1,0 0,1 1,0 0,-1 -0.5,-0.99999988"
       id="path396"
       inkscape:connector-curvature="0" />
    <path
       d="m 42,-0.62170902 -0.5,1.00000004 -1,0.5 1,0.49999998 0.5,0.9999999 0.5,-0.9999999 1,-0.49999998 -1,-0.5 -1,0 0,0.99999998 1,0 0,-0.99999998 -0.5,-1.00000004"
       id="path398"
       inkscape:connector-curvature="0" />
    <path
       d="m 42,2.3782909 -0.5,1 -1,0.5 1,0.5 0.5,1 0.5,-1 1,-0.5 -1,-0.5 -1,0 0,1 1,0 0,-1 -0.5,-1"
       id="path400"
       inkscape:connector-curvature="0" />
    <path
       d="m 42,5.3782909 -0.5,1 -1,0.5 1,0.5 0.5,1 0.5,-1 1,-0.5 -1,-0.5 -1,0 0,1 1,0 0,-1 -0.5,-1"
       id="path402"
       inkscape:connector-curvature="0" />
    <path
       d="m 42,8.3782909 -0.5,1 -1,0.5 1,0.5000001 0.5,0.999999 0.5,-0.999999 1,-0.5000001 -1,-0.5 -1,0 0,1.0000001 1,0 0,-1.0000001 -0.5,-1"
       id="path404"
       inkscape:connector-curvature="0" />
    <path
       d="m 42,11.37829 -0.5,1 -1,0.5 1,0.5 0.5,1 0.5,-1 1,-0.5 -1,-0.5 -1,0 0,1 1,0 0,-1 -0.5,-1"
       id="path406"
       inkscape:connector-curvature="0" />
    <path
       d="m 42,14.37829 -0.5,1 -1,0.5 1,0.5 0.5,1 0.5,-1 1,-0.5 -1,-0.5 -1,0 0,1 1,0 0,-1 -0.5,-1"
       id="path408"
       inkscape:connector-curvature="0" />
    <path
       d="m 42,17.37829 -0.5,1 -1,0.5 1,0.5 0.5,1 0.5,-1 1,-0.5 -1,-0.5 -1,0 0,1 1,0 0,-1 -0.5,-1"
       id="path410"
       inkscape:connector-curvature="0" />
    <path
       d="m 43.5,18.87829 -0.5,1 -1,0.5 1,0.5 0.5,1 0.5,-1 1,-0.5 -1,-0.5 -1,0 0,1 1,0 0,-1 -0.5,-1"
       id="path412"
       inkscape:connector-curvature="0" />
    <path
       d="m 43.5,15.87829 -0.5,1 -1,0.5 1,0.5 0.5,1 0.5,-1 1,-0.5 -1,-0.5 -1,0 0,1 1,0 0,-1 -0.5,-1"
       id="path414"
       inkscape:connector-curvature="0" />
    <path
       d="m 43.5,12.87829 -0.5,1 -1,0.5 1,0.5 0.5,1 0.5,-1 1,-0.5 -1,-0.5 -1,0 0,1 1,0 0,-1 -0.5,-1"
       id="path416"
       inkscape:connector-curvature="0" />
    <path
       d="M 43.5,9.8782909 43,10.87829 l -1,0.5 1,0.5 0.5,1 0.5,-1 1,-0.5 -1,-0.5 -1,0 0,1 1,0 0,-1 -0.5,-0.9999991"
       id="path418"
       inkscape:connector-curvature="0" />
    <path
       d="m 43.5,6.8782909 -0.5,1 -1,0.5 1,0.5 0.5,1 0.5,-1 1,-0.5 -1,-0.5 -1,0 0,1 1,0 0,-1 -0.5,-1"
       id="path420"
       inkscape:connector-curvature="0" />
    <path
       d="m 43.5,3.8782909 -0.5,1 -1,0.5 1,0.5 0.5,1 0.5,-1 1,-0.5 -1,-0.5 -1,0 0,1 1,0 0,-1 -0.5,-1"
       id="path422"
       inkscape:connector-curvature="0" />
    <path
       d="M 43.5,0.87829102 43,1.8782909 l -1,0.5 1,0.5 0.5,1 0.5,-1 1,-0.5 -1,-0.5 -1,0 0,1 1,0 0,-1 -0.5,-0.99999988"
       id="path424"
       inkscape:connector-curvature="0" />
    <path
       d="m 45,-0.62170902 -0.5,1.00000004 -1,0.5 1,0.49999998 0.5,0.9999999 0.5,-0.9999999 1,-0.49999998 -1,-0.5 -1,0 0,0.99999998 1,0 0,-0.99999998 -0.5,-1.00000004"
       id="path426"
       inkscape:connector-curvature="0" />
    <path
       d="m 45,2.3782909 -0.5,1 -1,0.5 1,0.5 0.5,1 0.5,-1 1,-0.5 -1,-0.5 -1,0 0,1 1,0 0,-1 -0.5,-1"
       id="path428"
       inkscape:connector-curvature="0" />
    <path
       d="m 45,5.3782909 -0.5,1 -1,0.5 1,0.5 0.5,1 0.5,-1 1,-0.5 -1,-0.5 -1,0 0,1 1,0 0,-1 -0.5,-1"
       id="path430"
       inkscape:connector-curvature="0" />
    <path
       d="m 45,8.3782909 -0.5,1 -1,0.5 1,0.5000001 0.5,0.999999 0.5,-0.999999 1,-0.5000001 -1,-0.5 -1,0 0,1.0000001 1,0 0,-1.0000001 -0.5,-1"
       id="path432"
       inkscape:connector-curvature="0" />
    <path
       d="m 45,11.37829 -0.5,1 -1,0.5 1,0.5 0.5,1 0.5,-1 1,-0.5 -1,-0.5 -1,0 0,1 1,0 0,-1 -0.5,-1"
       id="path434"
       inkscape:connector-curvature="0" />
    <path
       d="m 45,14.37829 -0.5,1 -1,0.5 1,0.5 0.5,1 0.5,-1 1,-0.5 -1,-0.5 -1,0 0,1 1,0 0,-1 -0.5,-1"
       id="path436"
       inkscape:connector-curvature="0" />
    <path
       d="m 45,17.37829 -0.5,1 -1,0.5 1,0.5 0.5,1 0.5,-1 1,-0.5 -1,-0.5 -1,0 0,1 1,0 0,-1 -0.5,-1"
       id="path438"
       inkscape:connector-curvature="0" />
    <path
       d="m 46.5,18.87829 -0.5,1 -1,0.5 1,0.5 0.5,1 0.5,-1 1,-0.5 -1,-0.5 -1,0 0,1 1,0 0,-1 -0.5,-1"
       id="path440"
       inkscape:connector-curvature="0" />
    <path
       d="m 46.5,15.87829 -0.5,1 -1,0.5 1,0.5 0.5,1 0.5,-1 1,-0.5 -1,-0.5 -1,0 0,1 1,0 0,-1 -0.5,-1"
       id="path442"
       inkscape:connector-curvature="0" />
    <path
       d="m 46.5,12.87829 -0.5,1 -1,0.5 1,0.5 0.5,1 0.5,-1 1,-0.5 -1,-0.5 -1,0 0,1 1,0 0,-1 -0.5,-1"
       id="path444"
       inkscape:connector-curvature="0" />
    <path
       d="M 46.5,9.8782909 46,10.87829 l -1,0.5 1,0.5 0.5,1 0.5,-1 1,-0.5 -1,-0.5 -1,0 0,1 1,0 0,-1 -0.5,-0.9999991"
       id="path446"
       inkscape:connector-curvature="0" />
    <path
       d="m 46.5,6.8782909 -0.5,1 -1,0.5 1,0.5 0.5,1 0.5,-1 1,-0.5 -1,-0.5 -1,0 0,1 1,0 0,-1 -0.5,-1"
       id="path448"
       inkscape:connector-curvature="0" />
    <path
       d="m 46.5,3.8782909 -0.5,1 -1,0.5 1,0.5 0.5,1 0.5,-1 1,-0.5 -1,-0.5 -1,0 0,1 1,0 0,-1 -0.5,-1"
       id="path450"
       inkscape:connector-curvature="0" />
    <path
       d="M 46.5,0.87829102 46,1.8782909 l -1,0.5 1,0.5 0.5,1 0.5,-1 1,-0.5 -1,-0.5 -1,0 0,1 1,0 0,-1 -0.5,-0.99999988"
       id="path452"
       inkscape:connector-curvature="0" />
    <path
       d="m 48,-0.62170902 -0.5,1.00000004 -1,0.5 1,0.49999998 0.5,0.9999999 0.5,-0.9999999 1,-0.49999998 -1,-0.5 -1,0 0,0.99999998 1,0 0,-0.99999998 -0.5,-1.00000004"
       id="path454"
       inkscape:connector-curvature="0" />
    <path
       d="m 48,2.3782909 -0.5,1 -1,0.5 1,0.5 0.5,1 0.5,-1 1,-0.5 -1,-0.5 -1,0 0,1 1,0 0,-1 -0.5,-1"
       id="path456"
       inkscape:connector-curvature="0" />
    <path
       d="m 48,5.3782909 -0.5,1 -1,0.5 1,0.5 0.5,1 0.5,-1 1,-0.5 -1,-0.5 -1,0 0,1 1,0 0,-1 -0.5,-1"
       id="path458"
       inkscape:connector-curvature="0" />
    <path
       d="m 48,8.3782909 -0.5,1 -1,0.5 1,0.5000001 0.5,0.999999 0.5,-0.999999 1,-0.5000001 -1,-0.5 -1,0 0,1.0000001 1,0 0,-1.0000001 -0.5,-1"
       id="path460"
       inkscape:connector-curvature="0" />
    <path
       d="m 48,11.37829 -0.5,1 -1,0.5 1,0.5 0.5,1 0.5,-1 1,-0.5 -1,-0.5 -1,0 0,1 1,0 0,-1 -0.5,-1"
       id="path462"
       inkscape:connector-curvature="0" />
    <path
       d="m 48,14.37829 -0.5,1 -1,0.5 1,0.5 0.5,1 0.5,-1 1,-0.5 -1,-0.5 -1,0 0,1 1,0 0,-1 -0.5,-1"
       id="path464"
       inkscape:connector-curvature="0" />
    <path
       d="m 48,17.37829 -0.5,1 -1,0.5 1,0.5 0.5,1 0.5,-1 1,-0.5 -1,-0.5 -1,0 0,1 1,0 0,-1 -0.5,-1"
       id="path466"
       inkscape:connector-curvature="0" />
    <path
       d="m 49.5,18.87829 -0.5,1 -1,0.5 1,0.5 0.5,1 0.5,-1 1,-0.5 -1,-0.5 -1,0 0,1 1,0 0,-1 -0.5,-1"
       id="path468"
       inkscape:connector-curvature="0" />
    <path
       d="m 49.5,15.87829 -0.5,1 -1,0.5 1,0.5 0.5,1 0.5,-1 1,-0.5 -1,-0.5 -1,0 0,1 1,0 0,-1 -0.5,-1"
       id="path470"
       inkscape:connector-curvature="0" />
    <path
       d="m 49.5,12.87829 -0.5,1 -1,0.5 1,0.5 0.5,1 0.5,-1 1,-0.5 -1,-0.5 -1,0 0,1 1,0 0,-1 -0.5,-1"
       id="path472"
       inkscape:connector-curvature="0" />
    <path
       d="M 49.5,9.8782909 49,10.87829 l -1,0.5 1,0.5 0.5,1 0.5,-1 1,-0.5 -1,-0.5 -1,0 0,1 1,0 0,-1 -0.5,-0.9999991"
       id="path474"
       inkscape:connector-curvature="0" />
    <path
       d="m 49.5,6.8782909 -0.5,1 -1,0.5 1,0.5 0.5,1 0.5,-1 1,-0.5 -1,-0.5 -1,0 0,1 1,0 0,-1 -0.5,-1"
       id="path476"
       inkscape:connector-curvature="0" />
    <path
       d="m 49.5,3.8782909 -0.5,1 -1,0.5 1,0.5 0.5,1 0.5,-1 1,-0.5 -1,-0.5 -1,0 0,1 1,0 0,-1 -0.5,-1"
       id="path478"
       inkscape:connector-curvature="0" />
    <path
       d="M 49.5,0.87829102 49,1.8782909 l -1,0.5 1,0.5 0.5,1 0.5,-1 1,-0.5 -1,-0.5 -1,0 0,1 1,0 0,-1 -0.5,-0.99999988"
       id="path480"
       inkscape:connector-curvature="0" />
    <path
       d="m 51,-0.62170902 -0.5,1.00000004 -1,0.5 1,0.49999998 0.5,0.9999999 0.5,-0.9999999 1,-0.49999998 -1,-0.5 -1,0 0,0.99999998 1,0 0,-0.99999998 -0.5,-1.00000004"
       id="path482"
       inkscape:connector-curvature="0" />
    <path
       d="m 51,2.3782909 -0.5,1 -1,0.5 1,0.5 0.5,1 0.5,-1 1,-0.5 -1,-0.5 -1,0 0,1 1,0 0,-1 -0.5,-1"
       id="path484"
       inkscape:connector-curvature="0" />
    <path
       d="m 51,5.3782909 -0.5,1 -1,0.5 1,0.5 0.5,1 0.5,-1 1,-0.5 -1,-0.5 -1,0 0,1 1,0 0,-1 -0.5,-1"
       id="path486"
       inkscape:connector-curvature="0" />
    <path
       d="m 51,8.3782909 -0.5,1 -1,0.5 1,0.5000001 0.5,0.999999 0.5,-0.999999 1,-0.5000001 -1,-0.5 -1,0 0,1.0000001 1,0 0,-1.0000001 -0.5,-1"
       id="path488"
       inkscape:connector-curvature="0" />
    <path
       d="m 51,11.37829 -0.5,1 -1,0.5 1,0.5 0.5,1 0.5,-1 1,-0.5 -1,-0.5 -1,0 0,1 1,0 0,-1 -0.5,-1"
       id="path490"
       inkscape:connector-curvature="0" />
    <path
       d="m 51,14.37829 -0.5,1 -1,0.5 1,0.5 0.5,1 0.5,-1 1,-0.5 -1,-0.5 -1,0 0,1 1,0 0,-1 -0.5,-1"
       id="path492"
       inkscape:connector-curvature="0" />
    <path
       d="m 51,17.37829 -0.5,1 -1,0.5 1,0.5 0.5,1 0.5,-1 1,-0.5 -1,-0.5 -1,0 0,1 1,0 0,-1 -0.5,-1"
       id="path494"
       inkscape:connector-curvature="0" />
    <path
       d="m 52.5,18.87829 -0.5,1 -1,0.5 1,0.5 0.5,1 0.5,-1 1,-0.5 -1,-0.5 -1,0 0,1 1,0 0,-1 -0.5,-1"
       id="path496"
       inkscape:connector-curvature="0" />
    <path
       d="m 52.5,15.87829 -0.5,1 -1,0.5 1,0.5 0.5,1 0.5,-1 1,-0.5 -1,-0.5 -1,0 0,1 1,0 0,-1 -0.5,-1"
       id="path498"
       inkscape:connector-curvature="0" />
    <path
       d="m 52.5,12.87829 -0.5,1 -1,0.5 1,0.5 0.5,1 0.5,-1 1,-0.5 -1,-0.5 -1,0 0,1 1,0 0,-1 -0.5,-1"
       id="path500"
       inkscape:connector-curvature="0" />
    <path
       d="M 52.5,9.8782909 52,10.87829 l -1,0.5 1,0.5 0.5,1 0.5,-1 1,-0.5 -1,-0.5 -1,0 0,1 1,0 0,-1 -0.5,-0.9999991"
       id="path502"
       inkscape:connector-curvature="0" />
    <path
       d="m 52.5,6.8782909 -0.5,1 -1,0.5 1,0.5 0.5,1 0.5,-1 1,-0.5 -1,-0.5 -1,0 0,1 1,0 0,-1 -0.5,-1"
       id="path504"
       inkscape:connector-curvature="0" />
    <path
       d="m 52.5,3.8782909 -0.5,1 -1,0.5 1,0.5 0.5,1 0.5,-1 1,-0.5 -1,-0.5 -1,0 0,1 1,0 0,-1 -0.5,-1"
       id="path506"
       inkscape:connector-curvature="0" />
    <path
       d="M 52.5,0.87829102 52,1.8782909 l -1,0.5 1,0.5 0.5,1 0.5,-1 1,-0.5 -1,-0.5 -1,0 0,1 1,0 0,-1 -0.5,-0.99999988"
       id="path508"
       inkscape:connector-curvature="0" />
    <path
       d="m 54,-0.62170902 -0.5,1.00000004 -1,0.5 1,0.49999998 0.5,0.9999999 0.5,-0.9999999 1,-0.49999998 -1,-0.5 -1,0 0,0.99999998 1,0 0,-0.99999998 -0.5,-1.00000004"
       id="path510"
       inkscape:connector-curvature="0" />
    <path
       d="m 54,2.3782909 -0.5,1 -1,0.5 1,0.5 0.5,1 0.5,-1 1,-0.5 -1,-0.5 -1,0 0,1 1,0 0,-1 -0.5,-1"
       id="path512"
       inkscape:connector-curvature="0" />
    <path
       d="m 54,5.3782909 -0.5,1 -1,0.5 1,0.5 0.5,1 0.5,-1 1,-0.5 -1,-0.5 -1,0 0,1 1,0 0,-1 -0.5,-1"
       id="path514"
       inkscape:connector-curvature="0" />
    <path
       d="m 54,8.3782909 -0.5,1 -1,0.5 1,0.5000001 0.5,0.999999 0.5,-0.999999 1,-0.5000001 -1,-0.5 -1,0 0,1.0000001 1,0 0,-1.0000001 -0.5,-1"
       id="path516"
       inkscape:connector-curvature="0" />
    <path
       d="m 54,11.37829 -0.5,1 -1,0.5 1,0.5 0.5,1 0.5,-1 1,-0.5 -1,-0.5 -1,0 0,1 1,0 0,-1 -0.5,-1"
       id="path518"
       inkscape:connector-curvature="0" />
    <path
       d="m 54,14.37829 -0.5,1 -1,0.5 1,0.5 0.5,1 0.5,-1 1,-0.5 -1,-0.5 -1,0 0,1 1,0 0,-1 -0.5,-1"
       id="path520"
       inkscape:connector-curvature="0" />
    <path
       d="m 54,17.37829 -0.5,1 -1,0.5 1,0.5 0.5,1 0.5,-1 1,-0.5 -1,-0.5 -1,0 0,1 1,0 0,-1 -0.5,-1"
       id="path522"
       inkscape:connector-curvature="0" />
    <path
       d="m 55.5,18.87829 -0.5,1 -1,0.5 1,0.5 0.5,1 0.5,-1 1,-0.5 -1,-0.5 -1,0 0,1 1,0 0,-1 -0.5,-1"
       id="path524"
       inkscape:connector-curvature="0" />
    <path
       d="m 55.5,15.87829 -0.5,1 -1,0.5 1,0.5 0.5,1 0.5,-1 1,-0.5 -1,-0.5 -1,0 0,1 1,0 0,-1 -0.5,-1"
       id="path526"
       inkscape:connector-curvature="0" />
    <path
       d="m 55.5,12.87829 -0.5,1 -1,0.5 1,0.5 0.5,1 0.5,-1 1,-0.5 -1,-0.5 -1,0 0,1 1,0 0,-1 -0.5,-1"
       id="path528"
       inkscape:connector-curvature="0" />
    <path
       d="M 55.5,9.8782909 55,10.87829 l -1,0.5 1,0.5 0.5,1 0.5,-1 1,-0.5 -1,-0.5 -1,0 0,1 1,0 0,-1 -0.5,-0.9999991"
       id="path530"
       inkscape:connector-curvature="0" />
    <path
       d="m 55.5,6.8782909 -0.5,1 -1,0.5 1,0.5 0.5,1 0.5,-1 1,-0.5 -1,-0.5 -1,0 0,1 1,0 0,-1 -0.5,-1"
       id="path532"
       inkscape:connector-curvature="0" />
    <path
       d="m 55.5,3.8782909 -0.5,1 -1,0.5 1,0.5 0.5,1 0.5,-1 1,-0.5 -1,-0.5 -1,0 0,1 1,0 0,-1 -0.5,-1"
       id="path534"
       inkscape:connector-curvature="0" />
    <path
       d="M 55.5,0.87829102 55,1.8782909 l -1,0.5 1,0.5 0.5,1 0.5,-1 1,-0.5 -1,-0.5 -1,0 0,1 1,0 0,-1 -0.5,-0.99999988"
       id="path536"
       inkscape:connector-curvature="0" />
    <path
       d="m 57,-0.62170902 -0.5,1.00000004 -1,0.5 1,0.49999998 0.5,0.9999999 0.5,-0.9999999 1,-0.49999998 -1,-0.5 -1,0 0,0.99999998 1,0 0,-0.99999998 -0.5,-1.00000004"
       id="path538"
       inkscape:connector-curvature="0" />
    <path
       d="m 57,2.3782909 -0.5,1 -1,0.5 1,0.5 0.5,1 0.5,-1 1,-0.5 -1,-0.5 -1,0 0,1 1,0 0,-1 -0.5,-1"
       id="path540"
       inkscape:connector-curvature="0" />
    <path
       d="m 57,5.3782909 -0.5,1 -1,0.5 1,0.5 0.5,1 0.5,-1 1,-0.5 -1,-0.5 -1,0 0,1 1,0 0,-1 -0.5,-1"
       id="path542"
       inkscape:connector-curvature="0" />
    <path
       d="m 57,8.3782909 -0.5,1 -1,0.5 1,0.5000001 0.5,0.999999 0.5,-0.999999 1,-0.5000001 -1,-0.5 -1,0 0,1.0000001 1,0 0,-1.0000001 -0.5,-1"
       id="path544"
       inkscape:connector-curvature="0" />
    <path
       d="m 57,11.37829 -0.5,1 -1,0.5 1,0.5 0.5,1 0.5,-1 1,-0.5 -1,-0.5 -1,0 0,1 1,0 0,-1 -0.5,-1"
       id="path546"
       inkscape:connector-curvature="0" />
    <path
       d="m 57,14.37829 -0.5,1 -1,0.5 1,0.5 0.5,1 0.5,-1 1,-0.5 -1,-0.5 -1,0 0,1 1,0 0,-1 -0.5,-1"
       id="path548"
       inkscape:connector-curvature="0" />
    <path
       d="m 57,17.37829 -0.5,1 -1,0.5 1,0.5 0.5,1 0.5,-1 1,-0.5 -1,-0.5 -1,0 0,1 1,0 0,-1 -0.5,-1"
       id="path550"
       inkscape:connector-curvature="0" />
    <path
       d="m 58.5,18.87829 -0.5,1 -1,0.5 1,0.5 0.5,1 0.5,-1 1,-0.5 -1,-0.5 -1,0 0,1 1,0 0,-1 -0.5,-1"
       id="path552"
       inkscape:connector-curvature="0" />
    <path
       d="m 58.5,15.87829 -0.5,1 -1,0.5 1,0.5 0.5,1 0.5,-1 1,-0.5 -1,-0.5 -1,0 0,1 1,0 0,-1 -0.5,-1"
       id="path554"
       inkscape:connector-curvature="0" />
    <path
       d="m 58.5,12.87829 -0.5,1 -1,0.5 1,0.5 0.5,1 0.5,-1 1,-0.5 -1,-0.5 -1,0 0,1 1,0 0,-1 -0.5,-1"
       id="path556"
       inkscape:connector-curvature="0" />
    <path
       d="M 58.5,9.8782909 58,10.87829 l -1,0.5 1,0.5 0.5,1 0.5,-1 1,-0.5 -1,-0.5 -1,0 0,1 1,0 0,-1 -0.5,-0.9999991"
       id="path558"
       inkscape:connector-curvature="0" />
    <path
       d="m 58.5,6.8782909 -0.5,1 -1,0.5 1,0.5 0.5,1 0.5,-1 1,-0.5 -1,-0.5 -1,0 0,1 1,0 0,-1 -0.5,-1"
       id="path560"
       inkscape:connector-curvature="0" />
    <path
       d="m 58.5,3.8782909 -0.5,1 -1,0.5 1,0.5 0.5,1 0.5,-1 1,-0.5 -1,-0.5 -1,0 0,1 1,0 0,-1 -0.5,-1"
       id="path562"
       inkscape:connector-curvature="0" />
    <path
       d="M 58.5,0.87829102 58,1.8782909 l -1,0.5 1,0.5 0.5,1 0.5,-1 1,-0.5 -1,-0.5 -1,0 0,1 1,0 0,-1 -0.5,-0.99999988"
       id="path564"
       inkscape:connector-curvature="0" />
  </g>
  <g
     inkscape:groupmode="layer"
     id="layer1"
     inkscape:label="1 - test">
    <path
       inkscape:connector-curvature="0"
       style="fill:none;stroke:#000000;stroke-width:5"
       d="m 1600,0 10,0"
       id="path4635-8" />
    <path
       inkscape:connector-curvature="0"
       style="fill:none;stroke:#000000;stroke-width:5"
       d="m 1600,800 10,0"
       id="path4637-5" />
  </g>
</svg>
