<?xml version="1.0" encoding="UTF-8" standalone="no"?>
<svg
   xmlns:dc="http://purl.org/dc/elements/1.1/"
   xmlns:cc="http://creativecommons.org/ns#"
   xmlns:rdf="http://www.w3.org/1999/02/22-rdf-syntax-ns#"
   xmlns:svg="http://www.w3.org/2000/svg"
   xmlns="http://www.w3.org/2000/svg"
   xmlns:sodipodi="http://sodipodi.sourceforge.net/DTD/sodipodi-0.dtd"
   xmlns:inkscape="http://www.inkscape.org/namespaces/inkscape"
   width="3200"
   height="1000"
   id="svg2"
   version="1.1"
   inkscape:version="0.48.0 r9654"
   sodipodi:docname="pattern2-1000.svg">
  <metadata
     id="metadata186">
    <rdf:RDF>
      <cc:Work
         rdf:about="">
        <dc:format>image/svg+xml</dc:format>
        <dc:type
           rdf:resource="http://purl.org/dc/dcmitype/StillImage" />
        <dc:title></dc:title>
        <dc:creator>
          <cc:Agent>
            <dc:title>Dan Newman</dc:title>
          </cc:Agent>
        </dc:creator>
        <dc:description>Eggbot plot.  See http://www.egg-bot.com/</dc:description>
        <cc:license
           rdf:resource="http://creativecommons.org/licenses/publicdomain/" />
      </cc:Work>
      <cc:License
         rdf:about="http://creativecommons.org/licenses/publicdomain/">
        <cc:permits
           rdf:resource="http://creativecommons.org/ns#Reproduction" />
        <cc:permits
           rdf:resource="http://creativecommons.org/ns#Distribution" />
        <cc:permits
           rdf:resource="http://creativecommons.org/ns#DerivativeWorks" />
      </cc:License>
    </rdf:RDF>
  </metadata>
  <defs
     id="defs184" />
  <sodipodi:namedview
     pagecolor="#ffffff"
     bordercolor="#666666"
     borderopacity="1"
     objecttolerance="10"
     gridtolerance="10"
     guidetolerance="10"
     inkscape:pageopacity="0"
     inkscape:pageshadow="2"
     inkscape:window-width="1194"
     inkscape:window-height="783"
     id="namedview182"
     showgrid="false"
     inkscape:showpageshadow="false"
     showborder="false"
     inkscape:zoom="0.1590625"
     inkscape:cx="1600"
     inkscape:cy="500"
     inkscape:window-x="0"
     inkscape:window-y="0"
     inkscape:window-maximized="0"
     inkscape:current-layer="g176" />
  <g
     inkscape:groupmode="layer"
     inkscape:label="1 - vertical"
     id="g4">
    <path
       stroke="green"
       stroke-width="1"
       fill="none"
       d="M 0.000000,0.000000 L 0.000000,66.666667 L 66.666667,200.000000 L 66.666667,266.666667 L 0.000000,400.000000 L 0.000000,466.666667 L 66.666667,600.000000 L 66.666667,666.666667 L 0.000000,800.000000 L 0.000000,866.666667 L 66.666667,1000.000000"
       id="path6" />
    <path
       stroke="green"
       stroke-width="1"
       fill="none"
       d="M 0.000000,1000.000000 L 66.666667,866.666667 L 66.666667,800.000000 L 0.000000,666.666667 L 0.000000,600.000000 L 66.666667,466.666667 L 66.666667,400.000000 L 0.000000,266.666667 L 0.000000,200.000000 L 66.666667,66.666667 L 66.666667,0.000000"
       id="path8" />
    <path
       stroke="green"
       stroke-width="1"
       fill="none"
       d="M 150.000000,0.000000 L 100.000000,100.000000 L 100.000000,166.666667 L 166.666667,300.000000 L 166.666667,366.666667 L 100.000000,500.000000 L 100.000000,566.666667 L 166.666667,700.000000 L 166.666667,766.666667 L 100.000000,900.000000 L 100.000000,966.666667 L 116.666667,1000.000000"
       id="path10" />
    <path
       stroke="green"
       stroke-width="1"
       fill="none"
       d="M 150.000000,1000.000000 L 166.666667,966.666667 L 166.666667,900.000000 L 100.000000,766.666667 L 100.000000,700.000000 L 166.666667,566.666667 L 166.666667,500.000000 L 100.000000,366.666667 L 100.000000,300.000000 L 166.666667,166.666667 L 166.666667,100.000000 L 116.666667,0.000000"
       id="path12" />
    <path
       stroke="green"
       stroke-width="1"
       fill="none"
       d="M 200.000000,0.000000 L 200.000000,66.666667 L 266.666667,200.000000 L 266.666667,266.666667 L 200.000000,400.000000 L 200.000000,466.666667 L 266.666667,600.000000 L 266.666667,666.666667 L 200.000000,800.000000 L 200.000000,866.666667 L 266.666667,1000.000000"
       id="path14" />
    <path
       stroke="green"
       stroke-width="1"
       fill="none"
       d="M 200.000000,1000.000000 L 266.666667,866.666667 L 266.666667,800.000000 L 200.000000,666.666667 L 200.000000,600.000000 L 266.666667,466.666667 L 266.666667,400.000000 L 200.000000,266.666667 L 200.000000,200.000000 L 266.666667,66.666667 L 266.666667,0.000000"
       id="path16" />
    <path
       stroke="green"
       stroke-width="1"
       fill="none"
       d="M 350.000000,0.000000 L 300.000000,100.000000 L 300.000000,166.666667 L 366.666667,300.000000 L 366.666667,366.666667 L 300.000000,500.000000 L 300.000000,566.666667 L 366.666667,700.000000 L 366.666667,766.666667 L 300.000000,900.000000 L 300.000000,966.666667 L 316.666667,1000.000000"
       id="path18" />
    <path
       stroke="green"
       stroke-width="1"
       fill="none"
       d="M 350.000000,1000.000000 L 366.666667,966.666667 L 366.666667,900.000000 L 300.000000,766.666667 L 300.000000,700.000000 L 366.666667,566.666667 L 366.666667,500.000000 L 300.000000,366.666667 L 300.000000,300.000000 L 366.666667,166.666667 L 366.666667,100.000000 L 316.666667,0.000000"
       id="path20" />
    <path
       stroke="green"
       stroke-width="1"
       fill="none"
       d="M 400.000000,0.000000 L 400.000000,66.666667 L 466.666667,200.000000 L 466.666667,266.666667 L 400.000000,400.000000 L 400.000000,466.666667 L 466.666667,600.000000 L 466.666667,666.666667 L 400.000000,800.000000 L 400.000000,866.666667 L 466.666667,1000.000000"
       id="path22" />
    <path
       stroke="green"
       stroke-width="1"
       fill="none"
       d="M 400.000000,1000.000000 L 466.666667,866.666667 L 466.666667,800.000000 L 400.000000,666.666667 L 400.000000,600.000000 L 466.666667,466.666667 L 466.666667,400.000000 L 400.000000,266.666667 L 400.000000,200.000000 L 466.666667,66.666667 L 466.666667,0.000000"
       id="path24" />
    <path
       stroke="green"
       stroke-width="1"
       fill="none"
       d="M 550.000000,0.000000 L 500.000000,100.000000 L 500.000000,166.666667 L 566.666667,300.000000 L 566.666667,366.666667 L 500.000000,500.000000 L 500.000000,566.666667 L 566.666667,700.000000 L 566.666667,766.666667 L 500.000000,900.000000 L 500.000000,966.666667 L 516.666667,1000.000000"
       id="path26" />
    <path
       stroke="green"
       stroke-width="1"
       fill="none"
       d="M 550.000000,1000.000000 L 566.666667,966.666667 L 566.666667,900.000000 L 500.000000,766.666667 L 500.000000,700.000000 L 566.666667,566.666667 L 566.666667,500.000000 L 500.000000,366.666667 L 500.000000,300.000000 L 566.666667,166.666667 L 566.666667,100.000000 L 516.666667,0.000000"
       id="path28" />
    <path
       stroke="green"
       stroke-width="1"
       fill="none"
       d="M 600.000000,0.000000 L 600.000000,66.666667 L 666.666667,200.000000 L 666.666667,266.666667 L 600.000000,400.000000 L 600.000000,466.666667 L 666.666667,600.000000 L 666.666667,666.666667 L 600.000000,800.000000 L 600.000000,866.666667 L 666.666667,1000.000000"
       id="path30" />
    <path
       stroke="green"
       stroke-width="1"
       fill="none"
       d="M 600.000000,1000.000000 L 666.666667,866.666667 L 666.666667,800.000000 L 600.000000,666.666667 L 600.000000,600.000000 L 666.666667,466.666667 L 666.666667,400.000000 L 600.000000,266.666667 L 600.000000,200.000000 L 666.666667,66.666667 L 666.666667,0.000000"
       id="path32" />
    <path
       stroke="green"
       stroke-width="1"
       fill="none"
       d="M 750.000000,0.000000 L 700.000000,100.000000 L 700.000000,166.666667 L 766.666667,300.000000 L 766.666667,366.666667 L 700.000000,500.000000 L 700.000000,566.666667 L 766.666667,700.000000 L 766.666667,766.666667 L 700.000000,900.000000 L 700.000000,966.666667 L 716.666667,1000.000000"
       id="path34" />
    <path
       stroke="green"
       stroke-width="1"
       fill="none"
       d="M 750.000000,1000.000000 L 766.666667,966.666667 L 766.666667,900.000000 L 700.000000,766.666667 L 700.000000,700.000000 L 766.666667,566.666667 L 766.666667,500.000000 L 700.000000,366.666667 L 700.000000,300.000000 L 766.666667,166.666667 L 766.666667,100.000000 L 716.666667,0.000000"
       id="path36" />
    <path
       stroke="green"
       stroke-width="1"
       fill="none"
       d="M 800.000000,0.000000 L 800.000000,66.666667 L 866.666667,200.000000 L 866.666667,266.666667 L 800.000000,400.000000 L 800.000000,466.666667 L 866.666667,600.000000 L 866.666667,666.666667 L 800.000000,800.000000 L 800.000000,866.666667 L 866.666667,1000.000000"
       id="path38" />
    <path
       stroke="green"
       stroke-width="1"
       fill="none"
       d="M 800.000000,1000.000000 L 866.666667,866.666667 L 866.666667,800.000000 L 800.000000,666.666667 L 800.000000,600.000000 L 866.666667,466.666667 L 866.666667,400.000000 L 800.000000,266.666667 L 800.000000,200.000000 L 866.666667,66.666667 L 866.666667,0.000000"
       id="path40" />
    <path
       stroke="green"
       stroke-width="1"
       fill="none"
       d="M 950.000000,0.000000 L 900.000000,100.000000 L 900.000000,166.666667 L 966.666667,300.000000 L 966.666667,366.666667 L 900.000000,500.000000 L 900.000000,566.666667 L 966.666667,700.000000 L 966.666667,766.666667 L 900.000000,900.000000 L 900.000000,966.666667 L 916.666667,1000.000000"
       id="path42" />
    <path
       stroke="green"
       stroke-width="1"
       fill="none"
       d="M 950.000000,1000.000000 L 966.666667,966.666667 L 966.666667,900.000000 L 900.000000,766.666667 L 900.000000,700.000000 L 966.666667,566.666667 L 966.666667,500.000000 L 900.000000,366.666667 L 900.000000,300.000000 L 966.666667,166.666667 L 966.666667,100.000000 L 916.666667,0.000000"
       id="path44" />
    <path
       stroke="green"
       stroke-width="1"
       fill="none"
       d="M 1000.000000,0.000000 L 1000.000000,66.666667 L 1066.666667,200.000000 L 1066.666667,266.666667 L 1000.000000,400.000000 L 1000.000000,466.666667 L 1066.666667,600.000000 L 1066.666667,666.666667 L 1000.000000,800.000000 L 1000.000000,866.666667 L 1066.666667,1000.000000"
       id="path46" />
    <path
       stroke="green"
       stroke-width="1"
       fill="none"
       d="M 1000.000000,1000.000000 L 1066.666667,866.666667 L 1066.666667,800.000000 L 1000.000000,666.666667 L 1000.000000,600.000000 L 1066.666667,466.666667 L 1066.666667,400.000000 L 1000.000000,266.666667 L 1000.000000,200.000000 L 1066.666667,66.666667 L 1066.666667,0.000000"
       id="path48" />
    <path
       stroke="green"
       stroke-width="1"
       fill="none"
       d="M 1150.000000,0.000000 L 1100.000000,100.000000 L 1100.000000,166.666667 L 1166.666667,300.000000 L 1166.666667,366.666667 L 1100.000000,500.000000 L 1100.000000,566.666667 L 1166.666667,700.000000 L 1166.666667,766.666667 L 1100.000000,900.000000 L 1100.000000,966.666667 L 1116.666667,1000.000000"
       id="path50" />
    <path
       stroke="green"
       stroke-width="1"
       fill="none"
       d="M 1150.000000,1000.000000 L 1166.666667,966.666667 L 1166.666667,900.000000 L 1100.000000,766.666667 L 1100.000000,700.000000 L 1166.666667,566.666667 L 1166.666667,500.000000 L 1100.000000,366.666667 L 1100.000000,300.000000 L 1166.666667,166.666667 L 1166.666667,100.000000 L 1116.666667,0.000000"
       id="path52" />
    <path
       stroke="green"
       stroke-width="1"
       fill="none"
       d="M 1200.000000,0.000000 L 1200.000000,66.666667 L 1266.666667,200.000000 L 1266.666667,266.666667 L 1200.000000,400.000000 L 1200.000000,466.666667 L 1266.666667,600.000000 L 1266.666667,666.666667 L 1200.000000,800.000000 L 1200.000000,866.666667 L 1266.666667,1000.000000"
       id="path54" />
    <path
       stroke="green"
       stroke-width="1"
       fill="none"
       d="M 1200.000000,1000.000000 L 1266.666667,866.666667 L 1266.666667,800.000000 L 1200.000000,666.666667 L 1200.000000,600.000000 L 1266.666667,466.666667 L 1266.666667,400.000000 L 1200.000000,266.666667 L 1200.000000,200.000000 L 1266.666667,66.666667 L 1266.666667,0.000000"
       id="path56" />
    <path
       stroke="green"
       stroke-width="1"
       fill="none"
       d="M 1350.000000,0.000000 L 1300.000000,100.000000 L 1300.000000,166.666667 L 1366.666667,300.000000 L 1366.666667,366.666667 L 1300.000000,500.000000 L 1300.000000,566.666667 L 1366.666667,700.000000 L 1366.666667,766.666667 L 1300.000000,900.000000 L 1300.000000,966.666667 L 1316.666667,1000.000000"
       id="path58" />
    <path
       stroke="green"
       stroke-width="1"
       fill="none"
       d="M 1350.000000,1000.000000 L 1366.666667,966.666667 L 1366.666667,900.000000 L 1300.000000,766.666667 L 1300.000000,700.000000 L 1366.666667,566.666667 L 1366.666667,500.000000 L 1300.000000,366.666667 L 1300.000000,300.000000 L 1366.666667,166.666667 L 1366.666667,100.000000 L 1316.666667,0.000000"
       id="path60" />
    <path
       stroke="green"
       stroke-width="1"
       fill="none"
       d="M 1400.000000,0.000000 L 1400.000000,66.666667 L 1466.666667,200.000000 L 1466.666667,266.666667 L 1400.000000,400.000000 L 1400.000000,466.666667 L 1466.666667,600.000000 L 1466.666667,666.666667 L 1400.000000,800.000000 L 1400.000000,866.666667 L 1466.666667,1000.000000"
       id="path62" />
    <path
       stroke="green"
       stroke-width="1"
       fill="none"
       d="M 1400.000000,1000.000000 L 1466.666667,866.666667 L 1466.666667,800.000000 L 1400.000000,666.666667 L 1400.000000,600.000000 L 1466.666667,466.666667 L 1466.666667,400.000000 L 1400.000000,266.666667 L 1400.000000,200.000000 L 1466.666667,66.666667 L 1466.666667,0.000000"
       id="path64" />
    <path
       stroke="green"
       stroke-width="1"
       fill="none"
       d="M 1550.000000,0.000000 L 1500.000000,100.000000 L 1500.000000,166.666667 L 1566.666667,300.000000 L 1566.666667,366.666667 L 1500.000000,500.000000 L 1500.000000,566.666667 L 1566.666667,700.000000 L 1566.666667,766.666667 L 1500.000000,900.000000 L 1500.000000,966.666667 L 1516.666667,1000.000000"
       id="path66" />
    <path
       stroke="green"
       stroke-width="1"
       fill="none"
       d="M 1550.000000,1000.000000 L 1566.666667,966.666667 L 1566.666667,900.000000 L 1500.000000,766.666667 L 1500.000000,700.000000 L 1566.666667,566.666667 L 1566.666667,500.000000 L 1500.000000,366.666667 L 1500.000000,300.000000 L 1566.666667,166.666667 L 1566.666667,100.000000 L 1516.666667,0.000000"
       id="path68" />
    <path
       stroke="green"
       stroke-width="1"
       fill="none"
       d="M 1600.000000,0.000000 L 1600.000000,66.666667 L 1666.666667,200.000000 L 1666.666667,266.666667 L 1600.000000,400.000000 L 1600.000000,466.666667 L 1666.666667,600.000000 L 1666.666667,666.666667 L 1600.000000,800.000000 L 1600.000000,866.666667 L 1666.666667,1000.000000"
       id="path70" />
    <path
       stroke="green"
       stroke-width="1"
       fill="none"
       d="M 1600.000000,1000.000000 L 1666.666667,866.666667 L 1666.666667,800.000000 L 1600.000000,666.666667 L 1600.000000,600.000000 L 1666.666667,466.666667 L 1666.666667,400.000000 L 1600.000000,266.666667 L 1600.000000,200.000000 L 1666.666667,66.666667 L 1666.666667,0.000000"
       id="path72" />
    <path
       stroke="green"
       stroke-width="1"
       fill="none"
       d="M 1750.000000,0.000000 L 1700.000000,100.000000 L 1700.000000,166.666667 L 1766.666667,300.000000 L 1766.666667,366.666667 L 1700.000000,500.000000 L 1700.000000,566.666667 L 1766.666667,700.000000 L 1766.666667,766.666667 L 1700.000000,900.000000 L 1700.000000,966.666667 L 1716.666667,1000.000000"
       id="path74" />
    <path
       stroke="green"
       stroke-width="1"
       fill="none"
       d="M 1750.000000,1000.000000 L 1766.666667,966.666667 L 1766.666667,900.000000 L 1700.000000,766.666667 L 1700.000000,700.000000 L 1766.666667,566.666667 L 1766.666667,500.000000 L 1700.000000,366.666667 L 1700.000000,300.000000 L 1766.666667,166.666667 L 1766.666667,100.000000 L 1716.666667,0.000000"
       id="path76" />
    <path
       stroke="green"
       stroke-width="1"
       fill="none"
       d="M 1800.000000,0.000000 L 1800.000000,66.666667 L 1866.666667,200.000000 L 1866.666667,266.666667 L 1800.000000,400.000000 L 1800.000000,466.666667 L 1866.666667,600.000000 L 1866.666667,666.666667 L 1800.000000,800.000000 L 1800.000000,866.666667 L 1866.666667,1000.000000"
       id="path78" />
    <path
       stroke="green"
       stroke-width="1"
       fill="none"
       d="M 1800.000000,1000.000000 L 1866.666667,866.666667 L 1866.666667,800.000000 L 1800.000000,666.666667 L 1800.000000,600.000000 L 1866.666667,466.666667 L 1866.666667,400.000000 L 1800.000000,266.666667 L 1800.000000,200.000000 L 1866.666667,66.666667 L 1866.666667,0.000000"
       id="path80" />
    <path
       stroke="green"
       stroke-width="1"
       fill="none"
       d="M 1950.000000,0.000000 L 1900.000000,100.000000 L 1900.000000,166.666667 L 1966.666667,300.000000 L 1966.666667,366.666667 L 1900.000000,500.000000 L 1900.000000,566.666667 L 1966.666667,700.000000 L 1966.666667,766.666667 L 1900.000000,900.000000 L 1900.000000,966.666667 L 1916.666667,1000.000000"
       id="path82" />
    <path
       stroke="green"
       stroke-width="1"
       fill="none"
       d="M 1950.000000,1000.000000 L 1966.666667,966.666667 L 1966.666667,900.000000 L 1900.000000,766.666667 L 1900.000000,700.000000 L 1966.666667,566.666667 L 1966.666667,500.000000 L 1900.000000,366.666667 L 1900.000000,300.000000 L 1966.666667,166.666667 L 1966.666667,100.000000 L 1916.666667,0.000000"
       id="path84" />
    <path
       stroke="green"
       stroke-width="1"
       fill="none"
       d="M 2000.000000,0.000000 L 2000.000000,66.666667 L 2066.666667,200.000000 L 2066.666667,266.666667 L 2000.000000,400.000000 L 2000.000000,466.666667 L 2066.666667,600.000000 L 2066.666667,666.666667 L 2000.000000,800.000000 L 2000.000000,866.666667 L 2066.666667,1000.000000"
       id="path86" />
    <path
       stroke="green"
       stroke-width="1"
       fill="none"
       d="M 2000.000000,1000.000000 L 2066.666667,866.666667 L 2066.666667,800.000000 L 2000.000000,666.666667 L 2000.000000,600.000000 L 2066.666667,466.666667 L 2066.666667,400.000000 L 2000.000000,266.666667 L 2000.000000,200.000000 L 2066.666667,66.666667 L 2066.666667,0.000000"
       id="path88" />
    <path
       stroke="green"
       stroke-width="1"
       fill="none"
       d="M 2150.000000,0.000000 L 2100.000000,100.000000 L 2100.000000,166.666667 L 2166.666667,300.000000 L 2166.666667,366.666667 L 2100.000000,500.000000 L 2100.000000,566.666667 L 2166.666667,700.000000 L 2166.666667,766.666667 L 2100.000000,900.000000 L 2100.000000,966.666667 L 2116.666667,1000.000000"
       id="path90" />
    <path
       stroke="green"
       stroke-width="1"
       fill="none"
       d="M 2150.000000,1000.000000 L 2166.666667,966.666667 L 2166.666667,900.000000 L 2100.000000,766.666667 L 2100.000000,700.000000 L 2166.666667,566.666667 L 2166.666667,500.000000 L 2100.000000,366.666667 L 2100.000000,300.000000 L 2166.666667,166.666667 L 2166.666667,100.000000 L 2116.666667,0.000000"
       id="path92" />
    <path
       stroke="green"
       stroke-width="1"
       fill="none"
       d="M 2200.000000,0.000000 L 2200.000000,66.666667 L 2266.666667,200.000000 L 2266.666667,266.666667 L 2200.000000,400.000000 L 2200.000000,466.666667 L 2266.666667,600.000000 L 2266.666667,666.666667 L 2200.000000,800.000000 L 2200.000000,866.666667 L 2266.666667,1000.000000"
       id="path94" />
    <path
       stroke="green"
       stroke-width="1"
       fill="none"
       d="M 2200.000000,1000.000000 L 2266.666667,866.666667 L 2266.666667,800.000000 L 2200.000000,666.666667 L 2200.000000,600.000000 L 2266.666667,466.666667 L 2266.666667,400.000000 L 2200.000000,266.666667 L 2200.000000,200.000000 L 2266.666667,66.666667 L 2266.666667,0.000000"
       id="path96" />
    <path
       stroke="green"
       stroke-width="1"
       fill="none"
       d="M 2350.000000,0.000000 L 2300.000000,100.000000 L 2300.000000,166.666667 L 2366.666667,300.000000 L 2366.666667,366.666667 L 2300.000000,500.000000 L 2300.000000,566.666667 L 2366.666667,700.000000 L 2366.666667,766.666667 L 2300.000000,900.000000 L 2300.000000,966.666667 L 2316.666667,1000.000000"
       id="path98" />
    <path
       stroke="green"
       stroke-width="1"
       fill="none"
       d="M 2350.000000,1000.000000 L 2366.666667,966.666667 L 2366.666667,900.000000 L 2300.000000,766.666667 L 2300.000000,700.000000 L 2366.666667,566.666667 L 2366.666667,500.000000 L 2300.000000,366.666667 L 2300.000000,300.000000 L 2366.666667,166.666667 L 2366.666667,100.000000 L 2316.666667,0.000000"
       id="path100" />
    <path
       stroke="green"
       stroke-width="1"
       fill="none"
       d="M 2400.000000,0.000000 L 2400.000000,66.666667 L 2466.666667,200.000000 L 2466.666667,266.666667 L 2400.000000,400.000000 L 2400.000000,466.666667 L 2466.666667,600.000000 L 2466.666667,666.666667 L 2400.000000,800.000000 L 2400.000000,866.666667 L 2466.666667,1000.000000"
       id="path102" />
    <path
       stroke="green"
       stroke-width="1"
       fill="none"
       d="M 2400.000000,1000.000000 L 2466.666667,866.666667 L 2466.666667,800.000000 L 2400.000000,666.666667 L 2400.000000,600.000000 L 2466.666667,466.666667 L 2466.666667,400.000000 L 2400.000000,266.666667 L 2400.000000,200.000000 L 2466.666667,66.666667 L 2466.666667,0.000000"
       id="path104" />
    <path
       stroke="green"
       stroke-width="1"
       fill="none"
       d="M 2550.000000,0.000000 L 2500.000000,100.000000 L 2500.000000,166.666667 L 2566.666667,300.000000 L 2566.666667,366.666667 L 2500.000000,500.000000 L 2500.000000,566.666667 L 2566.666667,700.000000 L 2566.666667,766.666667 L 2500.000000,900.000000 L 2500.000000,966.666667 L 2516.666667,1000.000000"
       id="path106" />
    <path
       stroke="green"
       stroke-width="1"
       fill="none"
       d="M 2550.000000,1000.000000 L 2566.666667,966.666667 L 2566.666667,900.000000 L 2500.000000,766.666667 L 2500.000000,700.000000 L 2566.666667,566.666667 L 2566.666667,500.000000 L 2500.000000,366.666667 L 2500.000000,300.000000 L 2566.666667,166.666667 L 2566.666667,100.000000 L 2516.666667,0.000000"
       id="path108" />
    <path
       stroke="green"
       stroke-width="1"
       fill="none"
       d="M 2600.000000,0.000000 L 2600.000000,66.666667 L 2666.666667,200.000000 L 2666.666667,266.666667 L 2600.000000,400.000000 L 2600.000000,466.666667 L 2666.666667,600.000000 L 2666.666667,666.666667 L 2600.000000,800.000000 L 2600.000000,866.666667 L 2666.666667,1000.000000"
       id="path110" />
    <path
       stroke="green"
       stroke-width="1"
       fill="none"
       d="M 2600.000000,1000.000000 L 2666.666667,866.666667 L 2666.666667,800.000000 L 2600.000000,666.666667 L 2600.000000,600.000000 L 2666.666667,466.666667 L 2666.666667,400.000000 L 2600.000000,266.666667 L 2600.000000,200.000000 L 2666.666667,66.666667 L 2666.666667,0.000000"
       id="path112" />
    <path
       stroke="green"
       stroke-width="1"
       fill="none"
       d="M 2750.000000,0.000000 L 2700.000000,100.000000 L 2700.000000,166.666667 L 2766.666667,300.000000 L 2766.666667,366.666667 L 2700.000000,500.000000 L 2700.000000,566.666667 L 2766.666667,700.000000 L 2766.666667,766.666667 L 2700.000000,900.000000 L 2700.000000,966.666667 L 2716.666667,1000.000000"
       id="path114" />
    <path
       stroke="green"
       stroke-width="1"
       fill="none"
       d="M 2750.000000,1000.000000 L 2766.666667,966.666667 L 2766.666667,900.000000 L 2700.000000,766.666667 L 2700.000000,700.000000 L 2766.666667,566.666667 L 2766.666667,500.000000 L 2700.000000,366.666667 L 2700.000000,300.000000 L 2766.666667,166.666667 L 2766.666667,100.000000 L 2716.666667,0.000000"
       id="path116" />
    <path
       stroke="green"
       stroke-width="1"
       fill="none"
       d="M 2800.000000,0.000000 L 2800.000000,66.666667 L 2866.666667,200.000000 L 2866.666667,266.666667 L 2800.000000,400.000000 L 2800.000000,466.666667 L 2866.666667,600.000000 L 2866.666667,666.666667 L 2800.000000,800.000000 L 2800.000000,866.666667 L 2866.666667,1000.000000"
       id="path118" />
    <path
       stroke="green"
       stroke-width="1"
       fill="none"
       d="M 2800.000000,1000.000000 L 2866.666667,866.666667 L 2866.666667,800.000000 L 2800.000000,666.666667 L 2800.000000,600.000000 L 2866.666667,466.666667 L 2866.666667,400.000000 L 2800.000000,266.666667 L 2800.000000,200.000000 L 2866.666667,66.666667 L 2866.666667,0.000000"
       id="path120" />
    <path
       stroke="green"
       stroke-width="1"
       fill="none"
       d="M 2950.000000,0.000000 L 2900.000000,100.000000 L 2900.000000,166.666667 L 2966.666667,300.000000 L 2966.666667,366.666667 L 2900.000000,500.000000 L 2900.000000,566.666667 L 2966.666667,700.000000 L 2966.666667,766.666667 L 2900.000000,900.000000 L 2900.000000,966.666667 L 2916.666667,1000.000000"
       id="path122" />
    <path
       stroke="green"
       stroke-width="1"
       fill="none"
       d="M 2950.000000,1000.000000 L 2966.666667,966.666667 L 2966.666667,900.000000 L 2900.000000,766.666667 L 2900.000000,700.000000 L 2966.666667,566.666667 L 2966.666667,500.000000 L 2900.000000,366.666667 L 2900.000000,300.000000 L 2966.666667,166.666667 L 2966.666667,100.000000 L 2916.666667,0.000000"
       id="path124" />
    <path
       stroke="green"
       stroke-width="1"
       fill="none"
       d="M 3000.000000,0.000000 L 3000.000000,66.666667 L 3066.666667,200.000000 L 3066.666667,266.666667 L 3000.000000,400.000000 L 3000.000000,466.666667 L 3066.666667,600.000000 L 3066.666667,666.666667 L 3000.000000,800.000000 L 3000.000000,866.666667 L 3066.666667,1000.000000"
       id="path126" />
    <path
       stroke="green"
       stroke-width="1"
       fill="none"
       d="M 3000.000000,1000.000000 L 3066.666667,866.666667 L 3066.666667,800.000000 L 3000.000000,666.666667 L 3000.000000,600.000000 L 3066.666667,466.666667 L 3066.666667,400.000000 L 3000.000000,266.666667 L 3000.000000,200.000000 L 3066.666667,66.666667 L 3066.666667,0.000000"
       id="path128" />
    <path
       stroke="green"
       stroke-width="1"
       fill="none"
       d="M 3150.000000,0.000000 L 3100.000000,100.000000 L 3100.000000,166.666667 L 3166.666667,300.000000 L 3166.666667,366.666667 L 3100.000000,500.000000 L 3100.000000,566.666667 L 3166.666667,700.000000 L 3166.666667,766.666667 L 3100.000000,900.000000 L 3100.000000,966.666667 L 3116.666667,1000.000000"
       id="path130" />
    <path
       stroke="green"
       stroke-width="1"
       fill="none"
       d="M 3150.000000,1000.000000 L 3166.666667,966.666667 L 3166.666667,900.000000 L 3100.000000,766.666667 L 3100.000000,700.000000 L 3166.666667,566.666667 L 3166.666667,500.000000 L 3100.000000,366.666667 L 3100.000000,300.000000 L 3166.666667,166.666667 L 3166.666667,100.000000 L 3116.666667,0.000000"
       id="path132" />
  </g>
  <g
     inkscape:groupmode="layer"
     inkscape:label="2 - horizontal"
     id="g134">
    <path
       stroke="blue"
       stroke-width="1"
       fill="none"
       d="M 0.000000,0.000000 L 66.666667,0.000000 L 200.000000,66.666667 L 266.666667,66.666667 L 400.000000,0.000000 L 466.666667,0.000000 L 600.000000,66.666667 L 666.666667,66.666667 L 800.000000,0.000000 L 866.666667,0.000000 L 1000.000000,66.666667 L 1066.666667,66.666667 L 1200.000000,0.000000 L 1266.666667,0.000000 L 1400.000000,66.666667 L 1466.666667,66.666667 L 1600.000000,0.000000 L 1666.666667,0.000000 L 1800.000000,66.666667 L 1866.666667,66.666667 L 2000.000000,0.000000 L 2066.666667,0.000000 L 2200.000000,66.666667 L 2266.666667,66.666667 L 2400.000000,0.000000 L 2466.666667,0.000000 L 2600.000000,66.666667 L 2666.666667,66.666667 L 2800.000000,0.000000 L 2866.666667,0.000000 L 3000.000000,66.666667 L 3066.666667,66.666667 L 3200.000000,0.000000"
       id="path136" />
    <path
       stroke="blue"
       stroke-width="1"
       fill="none"
       d="M 3200.000000,66.666667 L 3066.666667,0.000000 L 3000.000000,0.000000 L 2866.666667,66.666667 L 2800.000000,66.666667 L 2666.666667,0.000000 L 2600.000000,0.000000 L 2466.666667,66.666667 L 2400.000000,66.666667 L 2266.666667,0.000000 L 2200.000000,0.000000 L 2066.666667,66.666667 L 2000.000000,66.666667 L 1866.666667,0.000000 L 1800.000000,0.000000 L 1666.666667,66.666667 L 1600.000000,66.666667 L 1466.666667,0.000000 L 1400.000000,0.000000 L 1266.666667,66.666667 L 1200.000000,66.666667 L 1066.666667,0.000000 L 1000.000000,0.000000 L 866.666667,66.666667 L 800.000000,66.666667 L 666.666667,0.000000 L 600.000000,0.000000 L 466.666667,66.666667 L 400.000000,66.666667 L 266.666667,0.000000 L 200.000000,0.000000 L 66.666667,66.666667 L 0.000000,66.666667"
       id="path138" />
    <path
       stroke="blue"
       stroke-width="1"
       fill="none"
       d="M 0.000000,150.000000 L 100.000000,100.000000 L 166.666667,100.000000 L 300.000000,166.666667 L 366.666667,166.666667 L 500.000000,100.000000 L 566.666667,100.000000 L 700.000000,166.666667 L 766.666667,166.666667 L 900.000000,100.000000 L 966.666667,100.000000 L 1100.000000,166.666667 L 1166.666667,166.666667 L 1300.000000,100.000000 L 1366.666667,100.000000 L 1500.000000,166.666667 L 1566.666667,166.666667 L 1700.000000,100.000000 L 1766.666667,100.000000 L 1900.000000,166.666667 L 1966.666667,166.666667 L 2100.000000,100.000000 L 2166.666667,100.000000 L 2300.000000,166.666667 L 2366.666667,166.666667 L 2500.000000,100.000000 L 2566.666667,100.000000 L 2700.000000,166.666667 L 2766.666667,166.666667 L 2900.000000,100.000000 L 2966.666667,100.000000 L 3100.000000,166.666667 L 3166.666667,166.666667 L 3201.000000,149.500000"
       id="path140" />
    <path
       stroke="blue"
       stroke-width="1"
       fill="none"
       d="M 3201.000000,117.166667 L 3166.666667,100.000000 L 3100.000000,100.000000 L 2966.666667,166.666667 L 2900.000000,166.666667 L 2766.666667,100.000000 L 2700.000000,100.000000 L 2566.666667,166.666667 L 2500.000000,166.666667 L 2366.666667,100.000000 L 2300.000000,100.000000 L 2166.666667,166.666667 L 2100.000000,166.666667 L 1966.666667,100.000000 L 1900.000000,100.000000 L 1766.666667,166.666667 L 1700.000000,166.666667 L 1566.666667,100.000000 L 1500.000000,100.000000 L 1366.666667,166.666667 L 1300.000000,166.666667 L 1166.666667,100.000000 L 1100.000000,100.000000 L 966.666667,166.666667 L 900.000000,166.666667 L 766.666667,100.000000 L 700.000000,100.000000 L 566.666667,166.666667 L 500.000000,166.666667 L 366.666667,100.000000 L 300.000000,100.000000 L 166.666667,166.666667 L 100.000000,166.666667 L 0.000000,116.666667"
       id="path142" />
    <path
       stroke="blue"
       stroke-width="1"
       fill="none"
       d="M 0.000000,200.000000 L 66.666667,200.000000 L 200.000000,266.666667 L 266.666667,266.666667 L 400.000000,200.000000 L 466.666667,200.000000 L 600.000000,266.666667 L 666.666667,266.666667 L 800.000000,200.000000 L 866.666667,200.000000 L 1000.000000,266.666667 L 1066.666667,266.666667 L 1200.000000,200.000000 L 1266.666667,200.000000 L 1400.000000,266.666667 L 1466.666667,266.666667 L 1600.000000,200.000000 L 1666.666667,200.000000 L 1800.000000,266.666667 L 1866.666667,266.666667 L 2000.000000,200.000000 L 2066.666667,200.000000 L 2200.000000,266.666667 L 2266.666667,266.666667 L 2400.000000,200.000000 L 2466.666667,200.000000 L 2600.000000,266.666667 L 2666.666667,266.666667 L 2800.000000,200.000000 L 2866.666667,200.000000 L 3000.000000,266.666667 L 3066.666667,266.666667 L 3200.000000,200.000000"
       id="path144" />
    <path
       stroke="blue"
       stroke-width="1"
       fill="none"
       d="M 3200.000000,266.666667 L 3066.666667,200.000000 L 3000.000000,200.000000 L 2866.666667,266.666667 L 2800.000000,266.666667 L 2666.666667,200.000000 L 2600.000000,200.000000 L 2466.666667,266.666667 L 2400.000000,266.666667 L 2266.666667,200.000000 L 2200.000000,200.000000 L 2066.666667,266.666667 L 2000.000000,266.666667 L 1866.666667,200.000000 L 1800.000000,200.000000 L 1666.666667,266.666667 L 1600.000000,266.666667 L 1466.666667,200.000000 L 1400.000000,200.000000 L 1266.666667,266.666667 L 1200.000000,266.666667 L 1066.666667,200.000000 L 1000.000000,200.000000 L 866.666667,266.666667 L 800.000000,266.666667 L 666.666667,200.000000 L 600.000000,200.000000 L 466.666667,266.666667 L 400.000000,266.666667 L 266.666667,200.000000 L 200.000000,200.000000 L 66.666667,266.666667 L 0.000000,266.666667"
       id="path146" />
    <path
       stroke="blue"
       stroke-width="1"
       fill="none"
       d="M 0.000000,350.000000 L 100.000000,300.000000 L 166.666667,300.000000 L 300.000000,366.666667 L 366.666667,366.666667 L 500.000000,300.000000 L 566.666667,300.000000 L 700.000000,366.666667 L 766.666667,366.666667 L 900.000000,300.000000 L 966.666667,300.000000 L 1100.000000,366.666667 L 1166.666667,366.666667 L 1300.000000,300.000000 L 1366.666667,300.000000 L 1500.000000,366.666667 L 1566.666667,366.666667 L 1700.000000,300.000000 L 1766.666667,300.000000 L 1900.000000,366.666667 L 1966.666667,366.666667 L 2100.000000,300.000000 L 2166.666667,300.000000 L 2300.000000,366.666667 L 2366.666667,366.666667 L 2500.000000,300.000000 L 2566.666667,300.000000 L 2700.000000,366.666667 L 2766.666667,366.666667 L 2900.000000,300.000000 L 2966.666667,300.000000 L 3100.000000,366.666667 L 3166.666667,366.666667 L 3201.000000,349.500000"
       id="path148" />
    <path
       stroke="blue"
       stroke-width="1"
       fill="none"
       d="M 3201.000000,317.166667 L 3166.666667,300.000000 L 3100.000000,300.000000 L 2966.666667,366.666667 L 2900.000000,366.666667 L 2766.666667,300.000000 L 2700.000000,300.000000 L 2566.666667,366.666667 L 2500.000000,366.666667 L 2366.666667,300.000000 L 2300.000000,300.000000 L 2166.666667,366.666667 L 2100.000000,366.666667 L 1966.666667,300.000000 L 1900.000000,300.000000 L 1766.666667,366.666667 L 1700.000000,366.666667 L 1566.666667,300.000000 L 1500.000000,300.000000 L 1366.666667,366.666667 L 1300.000000,366.666667 L 1166.666667,300.000000 L 1100.000000,300.000000 L 966.666667,366.666667 L 900.000000,366.666667 L 766.666667,300.000000 L 700.000000,300.000000 L 566.666667,366.666667 L 500.000000,366.666667 L 366.666667,300.000000 L 300.000000,300.000000 L 166.666667,366.666667 L 100.000000,366.666667 L 0.000000,316.666667"
       id="path150" />
    <path
       stroke="blue"
       stroke-width="1"
       fill="none"
       d="M 0.000000,400.000000 L 66.666667,400.000000 L 200.000000,466.666667 L 266.666667,466.666667 L 400.000000,400.000000 L 466.666667,400.000000 L 600.000000,466.666667 L 666.666667,466.666667 L 800.000000,400.000000 L 866.666667,400.000000 L 1000.000000,466.666667 L 1066.666667,466.666667 L 1200.000000,400.000000 L 1266.666667,400.000000 L 1400.000000,466.666667 L 1466.666667,466.666667 L 1600.000000,400.000000 L 1666.666667,400.000000 L 1800.000000,466.666667 L 1866.666667,466.666667 L 2000.000000,400.000000 L 2066.666667,400.000000 L 2200.000000,466.666667 L 2266.666667,466.666667 L 2400.000000,400.000000 L 2466.666667,400.000000 L 2600.000000,466.666667 L 2666.666667,466.666667 L 2800.000000,400.000000 L 2866.666667,400.000000 L 3000.000000,466.666667 L 3066.666667,466.666667 L 3200.000000,400.000000"
       id="path152" />
    <path
       stroke="blue"
       stroke-width="1"
       fill="none"
       d="M 3200.000000,466.666667 L 3066.666667,400.000000 L 3000.000000,400.000000 L 2866.666667,466.666667 L 2800.000000,466.666667 L 2666.666667,400.000000 L 2600.000000,400.000000 L 2466.666667,466.666667 L 2400.000000,466.666667 L 2266.666667,400.000000 L 2200.000000,400.000000 L 2066.666667,466.666667 L 2000.000000,466.666667 L 1866.666667,400.000000 L 1800.000000,400.000000 L 1666.666667,466.666667 L 1600.000000,466.666667 L 1466.666667,400.000000 L 1400.000000,400.000000 L 1266.666667,466.666667 L 1200.000000,466.666667 L 1066.666667,400.000000 L 1000.000000,400.000000 L 866.666667,466.666667 L 800.000000,466.666667 L 666.666667,400.000000 L 600.000000,400.000000 L 466.666667,466.666667 L 400.000000,466.666667 L 266.666667,400.000000 L 200.000000,400.000000 L 66.666667,466.666667 L 0.000000,466.666667"
       id="path154" />
    <path
       stroke="blue"
       stroke-width="1"
       fill="none"
       d="M 0.000000,550.000000 L 100.000000,500.000000 L 166.666667,500.000000 L 300.000000,566.666667 L 366.666667,566.666667 L 500.000000,500.000000 L 566.666667,500.000000 L 700.000000,566.666667 L 766.666667,566.666667 L 900.000000,500.000000 L 966.666667,500.000000 L 1100.000000,566.666667 L 1166.666667,566.666667 L 1300.000000,500.000000 L 1366.666667,500.000000 L 1500.000000,566.666667 L 1566.666667,566.666667 L 1700.000000,500.000000 L 1766.666667,500.000000 L 1900.000000,566.666667 L 1966.666667,566.666667 L 2100.000000,500.000000 L 2166.666667,500.000000 L 2300.000000,566.666667 L 2366.666667,566.666667 L 2500.000000,500.000000 L 2566.666667,500.000000 L 2700.000000,566.666667 L 2766.666667,566.666667 L 2900.000000,500.000000 L 2966.666667,500.000000 L 3100.000000,566.666667 L 3166.666667,566.666667 L 3201.000000,549.500000"
       id="path156" />
    <path
       stroke="blue"
       stroke-width="1"
       fill="none"
       d="M 3201.000000,517.166667 L 3166.666667,500.000000 L 3100.000000,500.000000 L 2966.666667,566.666667 L 2900.000000,566.666667 L 2766.666667,500.000000 L 2700.000000,500.000000 L 2566.666667,566.666667 L 2500.000000,566.666667 L 2366.666667,500.000000 L 2300.000000,500.000000 L 2166.666667,566.666667 L 2100.000000,566.666667 L 1966.666667,500.000000 L 1900.000000,500.000000 L 1766.666667,566.666667 L 1700.000000,566.666667 L 1566.666667,500.000000 L 1500.000000,500.000000 L 1366.666667,566.666667 L 1300.000000,566.666667 L 1166.666667,500.000000 L 1100.000000,500.000000 L 966.666667,566.666667 L 900.000000,566.666667 L 766.666667,500.000000 L 700.000000,500.000000 L 566.666667,566.666667 L 500.000000,566.666667 L 366.666667,500.000000 L 300.000000,500.000000 L 166.666667,566.666667 L 100.000000,566.666667 L 0.000000,516.666667"
       id="path158" />
    <path
       stroke="blue"
       stroke-width="1"
       fill="none"
       d="M 0.000000,600.000000 L 66.666667,600.000000 L 200.000000,666.666667 L 266.666667,666.666667 L 400.000000,600.000000 L 466.666667,600.000000 L 600.000000,666.666667 L 666.666667,666.666667 L 800.000000,600.000000 L 866.666667,600.000000 L 1000.000000,666.666667 L 1066.666667,666.666667 L 1200.000000,600.000000 L 1266.666667,600.000000 L 1400.000000,666.666667 L 1466.666667,666.666667 L 1600.000000,600.000000 L 1666.666667,600.000000 L 1800.000000,666.666667 L 1866.666667,666.666667 L 2000.000000,600.000000 L 2066.666667,600.000000 L 2200.000000,666.666667 L 2266.666667,666.666667 L 2400.000000,600.000000 L 2466.666667,600.000000 L 2600.000000,666.666667 L 2666.666667,666.666667 L 2800.000000,600.000000 L 2866.666667,600.000000 L 3000.000000,666.666667 L 3066.666667,666.666667 L 3200.000000,600.000000"
       id="path160" />
    <path
       stroke="blue"
       stroke-width="1"
       fill="none"
       d="M 3200.000000,666.666667 L 3066.666667,600.000000 L 3000.000000,600.000000 L 2866.666667,666.666667 L 2800.000000,666.666667 L 2666.666667,600.000000 L 2600.000000,600.000000 L 2466.666667,666.666667 L 2400.000000,666.666667 L 2266.666667,600.000000 L 2200.000000,600.000000 L 2066.666667,666.666667 L 2000.000000,666.666667 L 1866.666667,600.000000 L 1800.000000,600.000000 L 1666.666667,666.666667 L 1600.000000,666.666667 L 1466.666667,600.000000 L 1400.000000,600.000000 L 1266.666667,666.666667 L 1200.000000,666.666667 L 1066.666667,600.000000 L 1000.000000,600.000000 L 866.666667,666.666667 L 800.000000,666.666667 L 666.666667,600.000000 L 600.000000,600.000000 L 466.666667,666.666667 L 400.000000,666.666667 L 266.666667,600.000000 L 200.000000,600.000000 L 66.666667,666.666667 L 0.000000,666.666667"
       id="path162" />
    <path
       stroke="blue"
       stroke-width="1"
       fill="none"
       d="M 0.000000,750.000000 L 100.000000,700.000000 L 166.666667,700.000000 L 300.000000,766.666667 L 366.666667,766.666667 L 500.000000,700.000000 L 566.666667,700.000000 L 700.000000,766.666667 L 766.666667,766.666667 L 900.000000,700.000000 L 966.666667,700.000000 L 1100.000000,766.666667 L 1166.666667,766.666667 L 1300.000000,700.000000 L 1366.666667,700.000000 L 1500.000000,766.666667 L 1566.666667,766.666667 L 1700.000000,700.000000 L 1766.666667,700.000000 L 1900.000000,766.666667 L 1966.666667,766.666667 L 2100.000000,700.000000 L 2166.666667,700.000000 L 2300.000000,766.666667 L 2366.666667,766.666667 L 2500.000000,700.000000 L 2566.666667,700.000000 L 2700.000000,766.666667 L 2766.666667,766.666667 L 2900.000000,700.000000 L 2966.666667,700.000000 L 3100.000000,766.666667 L 3166.666667,766.666667 L 3201.000000,749.500000"
       id="path164" />
    <path
       stroke="blue"
       stroke-width="1"
       fill="none"
       d="M 3201.000000,717.166667 L 3166.666667,700.000000 L 3100.000000,700.000000 L 2966.666667,766.666667 L 2900.000000,766.666667 L 2766.666667,700.000000 L 2700.000000,700.000000 L 2566.666667,766.666667 L 2500.000000,766.666667 L 2366.666667,700.000000 L 2300.000000,700.000000 L 2166.666667,766.666667 L 2100.000000,766.666667 L 1966.666667,700.000000 L 1900.000000,700.000000 L 1766.666667,766.666667 L 1700.000000,766.666667 L 1566.666667,700.000000 L 1500.000000,700.000000 L 1366.666667,766.666667 L 1300.000000,766.666667 L 1166.666667,700.000000 L 1100.000000,700.000000 L 966.666667,766.666667 L 900.000000,766.666667 L 766.666667,700.000000 L 700.000000,700.000000 L 566.666667,766.666667 L 500.000000,766.666667 L 366.666667,700.000000 L 300.000000,700.000000 L 166.666667,766.666667 L 100.000000,766.666667 L 0.000000,716.666667"
       id="path166" />
    <path
       stroke="blue"
       stroke-width="1"
       fill="none"
       d="M 0.000000,800.000000 L 66.666667,800.000000 L 200.000000,866.666667 L 266.666667,866.666667 L 400.000000,800.000000 L 466.666667,800.000000 L 600.000000,866.666667 L 666.666667,866.666667 L 800.000000,800.000000 L 866.666667,800.000000 L 1000.000000,866.666667 L 1066.666667,866.666667 L 1200.000000,800.000000 L 1266.666667,800.000000 L 1400.000000,866.666667 L 1466.666667,866.666667 L 1600.000000,800.000000 L 1666.666667,800.000000 L 1800.000000,866.666667 L 1866.666667,866.666667 L 2000.000000,800.000000 L 2066.666667,800.000000 L 2200.000000,866.666667 L 2266.666667,866.666667 L 2400.000000,800.000000 L 2466.666667,800.000000 L 2600.000000,866.666667 L 2666.666667,866.666667 L 2800.000000,800.000000 L 2866.666667,800.000000 L 3000.000000,866.666667 L 3066.666667,866.666667 L 3200.000000,800.000000"
       id="path168" />
    <path
       stroke="blue"
       stroke-width="1"
       fill="none"
       d="M 3200.000000,866.666667 L 3066.666667,800.000000 L 3000.000000,800.000000 L 2866.666667,866.666667 L 2800.000000,866.666667 L 2666.666667,800.000000 L 2600.000000,800.000000 L 2466.666667,866.666667 L 2400.000000,866.666667 L 2266.666667,800.000000 L 2200.000000,800.000000 L 2066.666667,866.666667 L 2000.000000,866.666667 L 1866.666667,800.000000 L 1800.000000,800.000000 L 1666.666667,866.666667 L 1600.000000,866.666667 L 1466.666667,800.000000 L 1400.000000,800.000000 L 1266.666667,866.666667 L 1200.000000,866.666667 L 1066.666667,800.000000 L 1000.000000,800.000000 L 866.666667,866.666667 L 800.000000,866.666667 L 666.666667,800.000000 L 600.000000,800.000000 L 466.666667,866.666667 L 400.000000,866.666667 L 266.666667,800.000000 L 200.000000,800.000000 L 66.666667,866.666667 L 0.000000,866.666667"
       id="path170" />
    <path
       stroke="blue"
       stroke-width="1"
       fill="none"
       d="M 0.000000,950.000000 L 100.000000,900.000000 L 166.666667,900.000000 L 300.000000,966.666667 L 366.666667,966.666667 L 500.000000,900.000000 L 566.666667,900.000000 L 700.000000,966.666667 L 766.666667,966.666667 L 900.000000,900.000000 L 966.666667,900.000000 L 1100.000000,966.666667 L 1166.666667,966.666667 L 1300.000000,900.000000 L 1366.666667,900.000000 L 1500.000000,966.666667 L 1566.666667,966.666667 L 1700.000000,900.000000 L 1766.666667,900.000000 L 1900.000000,966.666667 L 1966.666667,966.666667 L 2100.000000,900.000000 L 2166.666667,900.000000 L 2300.000000,966.666667 L 2366.666667,966.666667 L 2500.000000,900.000000 L 2566.666667,900.000000 L 2700.000000,966.666667 L 2766.666667,966.666667 L 2900.000000,900.000000 L 2966.666667,900.000000 L 3100.000000,966.666667 L 3166.666667,966.666667 L 3201.000000,949.500000"
       id="path172" />
    <path
       stroke="blue"
       stroke-width="1"
       fill="none"
       d="M 3201.000000,917.166667 L 3166.666667,900.000000 L 3100.000000,900.000000 L 2966.666667,966.666667 L 2900.000000,966.666667 L 2766.666667,900.000000 L 2700.000000,900.000000 L 2566.666667,966.666667 L 2500.000000,966.666667 L 2366.666667,900.000000 L 2300.000000,900.000000 L 2166.666667,966.666667 L 2100.000000,966.666667 L 1966.666667,900.000000 L 1900.000000,900.000000 L 1766.666667,966.666667 L 1700.000000,966.666667 L 1566.666667,900.000000 L 1500.000000,900.000000 L 1366.666667,966.666667 L 1300.000000,966.666667 L 1166.666667,900.000000 L 1100.000000,900.000000 L 966.666667,966.666667 L 900.000000,966.666667 L 766.666667,900.000000 L 700.000000,900.000000 L 566.666667,966.666667 L 500.000000,966.666667 L 366.666667,900.000000 L 300.000000,900.000000 L 166.666667,966.666667 L 100.000000,966.666667 L 0.000000,916.666667"
       id="path174" />
  </g>
  <g
     inkscape:groupmode="layer"
     inkscape:label="3 - border"
     id="g176">
    <path
       stroke="black"
       stroke-width="1"
       fill="none"
       d="M 0,0 l 3200,0"
       id="path178" />
    <path
       stroke="black"
       stroke-width="1"
       fill="none"
       d="M 0,1000 l 3200,0"
       id="path180" />
  </g>
</svg>
