<?xml version="1.0" encoding="UTF-8" standalone="no"?>
<svg
   xmlns:dc="http://purl.org/dc/elements/1.1/"
   xmlns:cc="http://creativecommons.org/ns#"
   xmlns:rdf="http://www.w3.org/1999/02/22-rdf-syntax-ns#"
   xmlns:svg="http://www.w3.org/2000/svg"
   xmlns="http://www.w3.org/2000/svg"
   xmlns:sodipodi="http://sodipodi.sourceforge.net/DTD/sodipodi-0.dtd"
   xmlns:inkscape="http://www.inkscape.org/namespaces/inkscape"
   width="3200"
   height="800"
   id="svg2"
   version="1.1"
   inkscape:version="0.48.0 r9654"
   sodipodi:docname="pattern2-800.svg">
  <metadata
     id="metadata178">
    <rdf:RDF>
      <cc:Work
         rdf:about="">
        <dc:format>image/svg+xml</dc:format>
        <dc:type
           rdf:resource="http://purl.org/dc/dcmitype/StillImage" />
        <dc:title />
        <dc:creator>
          <cc:Agent>
            <dc:title>Dan Newman</dc:title>
          </cc:Agent>
        </dc:creator>
        <dc:description>Eggbot plot.  See http://www.egg-bot.com/</dc:description>
        <cc:license
           rdf:resource="http://creativecommons.org/licenses/publicdomain/" />
      </cc:Work>
      <cc:License
         rdf:about="http://creativecommons.org/licenses/publicdomain/">
        <cc:permits
           rdf:resource="http://creativecommons.org/ns#Reproduction" />
        <cc:permits
           rdf:resource="http://creativecommons.org/ns#Distribution" />
        <cc:permits
           rdf:resource="http://creativecommons.org/ns#DerivativeWorks" />
      </cc:License>
    </rdf:RDF>
  </metadata>
  <defs
     id="defs176" />
  <sodipodi:namedview
     pagecolor="#ffffff"
     bordercolor="#666666"
     borderopacity="1"
     objecttolerance="10"
     gridtolerance="10"
     guidetolerance="10"
     inkscape:pageopacity="0"
     inkscape:pageshadow="2"
     inkscape:window-width="715"
     inkscape:window-height="480"
     id="namedview174"
     showgrid="false"
     inkscape:showpageshadow="false"
     inkscape:zoom="0.1590625"
     inkscape:cx="839.29273"
     inkscape:cy="400"
     inkscape:window-x="0"
     inkscape:window-y="0"
     inkscape:window-maximized="0"
     inkscape:current-layer="g168"
     showborder="false" />
  <g
     inkscape:groupmode="layer"
     inkscape:label="1 - vertical"
     id="g4"
     style="display:inline">
    <path
       d="M 0,0 0,66.666667 66.666667,200 l 0,66.66667 L 0,400 0,466.66667 66.666667,600 l 0,66.66667 L 0,800"
       id="path6"
       inkscape:connector-curvature="0"
       style="fill:none;stroke:#008000;stroke-width:1" />
    <path
       d="M 66.666667,800 0,666.66667 0,600 66.666667,466.66667 66.666667,400 0,266.66667 0,200 66.666667,66.666667 66.666667,0"
       id="path8"
       inkscape:connector-curvature="0"
       style="fill:none;stroke:#008000;stroke-width:1" />
    <path
       d="m 150,0 -50,100 0,66.66667 L 166.66667,300 l 0,66.66667 L 100,500 100,566.66667 166.66667,700 l 0,66.66667 L 150,800"
       id="path10"
       inkscape:connector-curvature="0"
       style="fill:none;stroke:#008000;stroke-width:1" />
    <path
       d="M 116.66667,800 100,766.66667 100,700 166.66667,566.66667 166.66667,500 100,366.66667 100,300 l 66.66667,-133.33333 0,-66.66667 -50,-100"
       id="path12"
       inkscape:connector-curvature="0"
       style="fill:none;stroke:#008000;stroke-width:1" />
    <path
       d="M 200,0 200,66.666667 266.66667,200 l 0,66.66667 L 200,400 200,466.66667 266.66667,600 l 0,66.66667 L 200,800"
       id="path14"
       inkscape:connector-curvature="0"
       style="fill:none;stroke:#008000;stroke-width:1" />
    <path
       d="M 266.66667,800 200,666.66667 200,600 266.66667,466.66667 266.66667,400 200,266.66667 200,200 266.66667,66.666667 266.66667,0"
       id="path16"
       inkscape:connector-curvature="0"
       style="fill:none;stroke:#008000;stroke-width:1" />
    <path
       d="m 350,0 -50,100 0,66.66667 L 366.66667,300 l 0,66.66667 L 300,500 300,566.66667 366.66667,700 l 0,66.66667 L 350,800"
       id="path18"
       inkscape:connector-curvature="0"
       style="fill:none;stroke:#008000;stroke-width:1" />
    <path
       d="M 316.66667,800 300,766.66667 300,700 366.66667,566.66667 366.66667,500 300,366.66667 300,300 l 66.66667,-133.33333 0,-66.66667 -50,-100"
       id="path20"
       inkscape:connector-curvature="0"
       style="fill:none;stroke:#008000;stroke-width:1" />
    <path
       d="M 400,0 400,66.666667 466.66667,200 l 0,66.66667 L 400,400 400,466.66667 466.66667,600 l 0,66.66667 L 400,800"
       id="path22"
       inkscape:connector-curvature="0"
       style="fill:none;stroke:#008000;stroke-width:1" />
    <path
       d="M 466.66667,800 400,666.66667 400,600 466.66667,466.66667 466.66667,400 400,266.66667 400,200 466.66667,66.666667 466.66667,0"
       id="path24"
       inkscape:connector-curvature="0"
       style="fill:none;stroke:#008000;stroke-width:1" />
    <path
       d="m 550,0 -50,100 0,66.66667 L 566.66667,300 l 0,66.66667 L 500,500 500,566.66667 566.66667,700 l 0,66.66667 L 550,800"
       id="path26"
       inkscape:connector-curvature="0"
       style="fill:none;stroke:#008000;stroke-width:1" />
    <path
       d="M 516.66667,800 500,766.66667 500,700 566.66667,566.66667 566.66667,500 500,366.66667 500,300 l 66.66667,-133.33333 0,-66.66667 -50,-100"
       id="path28"
       inkscape:connector-curvature="0"
       style="fill:none;stroke:#008000;stroke-width:1" />
    <path
       d="M 600,0 600,66.666667 666.66667,200 l 0,66.66667 L 600,400 600,466.66667 666.66667,600 l 0,66.66667 L 600,800"
       id="path30"
       inkscape:connector-curvature="0"
       style="fill:none;stroke:#008000;stroke-width:1" />
    <path
       d="M 666.66667,800 600,666.66667 600,600 666.66667,466.66667 666.66667,400 600,266.66667 600,200 666.66667,66.666667 666.66667,0"
       id="path32"
       inkscape:connector-curvature="0"
       style="fill:none;stroke:#008000;stroke-width:1" />
    <path
       d="m 750,0 -50,100 0,66.66667 L 766.66667,300 l 0,66.66667 L 700,500 700,566.66667 766.66667,700 l 0,66.66667 L 750,800"
       id="path34"
       inkscape:connector-curvature="0"
       style="fill:none;stroke:#008000;stroke-width:1" />
    <path
       d="M 716.66667,800 700,766.66667 700,700 766.66667,566.66667 766.66667,500 700,366.66667 700,300 l 66.66667,-133.33333 0,-66.66667 -50,-100"
       id="path36"
       inkscape:connector-curvature="0"
       style="fill:none;stroke:#008000;stroke-width:1" />
    <path
       d="M 800,0 800,66.666667 866.66667,200 l 0,66.66667 L 800,400 800,466.66667 866.66667,600 l 0,66.66667 L 800,800"
       id="path38"
       inkscape:connector-curvature="0"
       style="fill:none;stroke:#008000;stroke-width:1" />
    <path
       d="M 866.66667,800 800,666.66667 800,600 866.66667,466.66667 866.66667,400 800,266.66667 800,200 866.66667,66.666667 866.66667,0"
       id="path40"
       inkscape:connector-curvature="0"
       style="fill:none;stroke:#008000;stroke-width:1" />
    <path
       d="m 950,0 -50,100 0,66.66667 L 966.66667,300 l 0,66.66667 L 900,500 900,566.66667 966.66667,700 l 0,66.66667 L 950,800"
       id="path42"
       inkscape:connector-curvature="0"
       style="fill:none;stroke:#008000;stroke-width:1" />
    <path
       d="M 916.66667,800 900,766.66667 900,700 966.66667,566.66667 966.66667,500 900,366.66667 900,300 l 66.66667,-133.33333 0,-66.66667 -50,-100"
       id="path44"
       inkscape:connector-curvature="0"
       style="fill:none;stroke:#008000;stroke-width:1" />
    <path
       d="m 1000,0 0,66.666667 L 1066.6667,200 l 0,66.66667 L 1000,400 l 0,66.66667 66.6667,133.33333 0,66.66667 L 1000,800"
       id="path46"
       inkscape:connector-curvature="0"
       style="fill:none;stroke:#008000;stroke-width:1" />
    <path
       d="M 1066.6667,800 1000,666.66667 1000,600 1066.6667,466.66667 1066.6667,400 1000,266.66667 1000,200 1066.6667,66.666667 1066.6667,0"
       id="path48"
       inkscape:connector-curvature="0"
       style="fill:none;stroke:#008000;stroke-width:1" />
    <path
       d="m 1150,0 -50,100 0,66.66667 66.6667,133.33333 0,66.66667 L 1100,500 l 0,66.66667 66.6667,133.33333 0,66.66667 L 1150,800"
       id="path50"
       inkscape:connector-curvature="0"
       style="fill:none;stroke:#008000;stroke-width:1" />
    <path
       d="M 1116.6667,800 1100,766.66667 1100,700 1166.6667,566.66667 1166.6667,500 1100,366.66667 1100,300 l 66.6667,-133.33333 0,-66.66667 -50,-100"
       id="path52"
       inkscape:connector-curvature="0"
       style="fill:none;stroke:#008000;stroke-width:1" />
    <path
       d="m 1200,0 0,66.666667 L 1266.6667,200 l 0,66.66667 L 1200,400 l 0,66.66667 66.6667,133.33333 0,66.66667 L 1200,800"
       id="path54"
       inkscape:connector-curvature="0"
       style="fill:none;stroke:#008000;stroke-width:1" />
    <path
       d="M 1266.6667,800 1200,666.66667 1200,600 1266.6667,466.66667 1266.6667,400 1200,266.66667 1200,200 1266.6667,66.666667 1266.6667,0"
       id="path56"
       inkscape:connector-curvature="0"
       style="fill:none;stroke:#008000;stroke-width:1" />
    <path
       d="m 1350,0 -50,100 0,66.66667 66.6667,133.33333 0,66.66667 L 1300,500 l 0,66.66667 66.6667,133.33333 0,66.66667 L 1350,800"
       id="path58"
       inkscape:connector-curvature="0"
       style="fill:none;stroke:#008000;stroke-width:1" />
    <path
       d="M 1316.6667,800 1300,766.66667 1300,700 1366.6667,566.66667 1366.6667,500 1300,366.66667 1300,300 l 66.6667,-133.33333 0,-66.66667 -50,-100"
       id="path60"
       inkscape:connector-curvature="0"
       style="fill:none;stroke:#008000;stroke-width:1" />
    <path
       d="m 1400,0 0,66.666667 L 1466.6667,200 l 0,66.66667 L 1400,400 l 0,66.66667 66.6667,133.33333 0,66.66667 L 1400,800"
       id="path62"
       inkscape:connector-curvature="0"
       style="fill:none;stroke:#008000;stroke-width:1" />
    <path
       d="M 1466.6667,800 1400,666.66667 1400,600 1466.6667,466.66667 1466.6667,400 1400,266.66667 1400,200 1466.6667,66.666667 1466.6667,0"
       id="path64"
       inkscape:connector-curvature="0"
       style="fill:none;stroke:#008000;stroke-width:1" />
    <path
       d="m 1550,0 -50,100 0,66.66667 66.6667,133.33333 0,66.66667 L 1500,500 l 0,66.66667 66.6667,133.33333 0,66.66667 L 1550,800"
       id="path66"
       inkscape:connector-curvature="0"
       style="fill:none;stroke:#008000;stroke-width:1" />
    <path
       d="M 1516.6667,800 1500,766.66667 1500,700 1566.6667,566.66667 1566.6667,500 1500,366.66667 1500,300 l 66.6667,-133.33333 0,-66.66667 -50,-100"
       id="path68"
       inkscape:connector-curvature="0"
       style="fill:none;stroke:#008000;stroke-width:1" />
    <path
       d="m 1600,0 0,66.666667 L 1666.6667,200 l 0,66.66667 L 1600,400 l 0,66.66667 66.6667,133.33333 0,66.66667 L 1600,800"
       id="path70"
       inkscape:connector-curvature="0"
       style="fill:none;stroke:#008000;stroke-width:1" />
    <path
       d="M 1666.6667,800 1600,666.66667 1600,600 1666.6667,466.66667 1666.6667,400 1600,266.66667 1600,200 1666.6667,66.666667 1666.6667,0"
       id="path72"
       inkscape:connector-curvature="0"
       style="fill:none;stroke:#008000;stroke-width:1" />
    <path
       d="m 1750,0 -50,100 0,66.66667 66.6667,133.33333 0,66.66667 L 1700,500 l 0,66.66667 66.6667,133.33333 0,66.66667 L 1750,800"
       id="path74"
       inkscape:connector-curvature="0"
       style="fill:none;stroke:#008000;stroke-width:1" />
    <path
       d="M 1716.6667,800 1700,766.66667 1700,700 1766.6667,566.66667 1766.6667,500 1700,366.66667 1700,300 l 66.6667,-133.33333 0,-66.66667 -50,-100"
       id="path76"
       inkscape:connector-curvature="0"
       style="fill:none;stroke:#008000;stroke-width:1" />
    <path
       d="m 1800,0 0,66.666667 L 1866.6667,200 l 0,66.66667 L 1800,400 l 0,66.66667 66.6667,133.33333 0,66.66667 L 1800,800"
       id="path78"
       inkscape:connector-curvature="0"
       style="fill:none;stroke:#008000;stroke-width:1" />
    <path
       d="M 1866.6667,800 1800,666.66667 1800,600 1866.6667,466.66667 1866.6667,400 1800,266.66667 1800,200 1866.6667,66.666667 1866.6667,0"
       id="path80"
       inkscape:connector-curvature="0"
       style="fill:none;stroke:#008000;stroke-width:1" />
    <path
       d="m 1950,0 -50,100 0,66.66667 66.6667,133.33333 0,66.66667 L 1900,500 l 0,66.66667 66.6667,133.33333 0,66.66667 L 1950,800"
       id="path82"
       inkscape:connector-curvature="0"
       style="fill:none;stroke:#008000;stroke-width:1" />
    <path
       d="M 1916.6667,800 1900,766.66667 1900,700 1966.6667,566.66667 1966.6667,500 1900,366.66667 1900,300 l 66.6667,-133.33333 0,-66.66667 -50,-100"
       id="path84"
       inkscape:connector-curvature="0"
       style="fill:none;stroke:#008000;stroke-width:1" />
    <path
       d="m 2000,0 0,66.666667 L 2066.6667,200 l 0,66.66667 L 2000,400 l 0,66.66667 66.6667,133.33333 0,66.66667 L 2000,800"
       id="path86"
       inkscape:connector-curvature="0"
       style="fill:none;stroke:#008000;stroke-width:1" />
    <path
       d="M 2066.6667,800 2000,666.66667 2000,600 2066.6667,466.66667 2066.6667,400 2000,266.66667 2000,200 2066.6667,66.666667 2066.6667,0"
       id="path88"
       inkscape:connector-curvature="0"
       style="fill:none;stroke:#008000;stroke-width:1" />
    <path
       d="m 2150,0 -50,100 0,66.66667 66.6667,133.33333 0,66.66667 L 2100,500 l 0,66.66667 66.6667,133.33333 0,66.66667 L 2150,800"
       id="path90"
       inkscape:connector-curvature="0"
       style="fill:none;stroke:#008000;stroke-width:1" />
    <path
       d="M 2116.6667,800 2100,766.66667 2100,700 2166.6667,566.66667 2166.6667,500 2100,366.66667 2100,300 l 66.6667,-133.33333 0,-66.66667 -50,-100"
       id="path92"
       inkscape:connector-curvature="0"
       style="fill:none;stroke:#008000;stroke-width:1" />
    <path
       d="m 2200,0 0,66.666667 L 2266.6667,200 l 0,66.66667 L 2200,400 l 0,66.66667 66.6667,133.33333 0,66.66667 L 2200,800"
       id="path94"
       inkscape:connector-curvature="0"
       style="fill:none;stroke:#008000;stroke-width:1" />
    <path
       d="M 2266.6667,800 2200,666.66667 2200,600 2266.6667,466.66667 2266.6667,400 2200,266.66667 2200,200 2266.6667,66.666667 2266.6667,0"
       id="path96"
       inkscape:connector-curvature="0"
       style="fill:none;stroke:#008000;stroke-width:1" />
    <path
       d="m 2350,0 -50,100 0,66.66667 66.6667,133.33333 0,66.66667 L 2300,500 l 0,66.66667 66.6667,133.33333 0,66.66667 L 2350,800"
       id="path98"
       inkscape:connector-curvature="0"
       style="fill:none;stroke:#008000;stroke-width:1" />
    <path
       d="M 2316.6667,800 2300,766.66667 2300,700 2366.6667,566.66667 2366.6667,500 2300,366.66667 2300,300 l 66.6667,-133.33333 0,-66.66667 -50,-100"
       id="path100"
       inkscape:connector-curvature="0"
       style="fill:none;stroke:#008000;stroke-width:1" />
    <path
       d="m 2400,0 0,66.666667 L 2466.6667,200 l 0,66.66667 L 2400,400 l 0,66.66667 66.6667,133.33333 0,66.66667 L 2400,800"
       id="path102"
       inkscape:connector-curvature="0"
       style="fill:none;stroke:#008000;stroke-width:1" />
    <path
       d="M 2466.6667,800 2400,666.66667 2400,600 2466.6667,466.66667 2466.6667,400 2400,266.66667 2400,200 2466.6667,66.666667 2466.6667,0"
       id="path104"
       inkscape:connector-curvature="0"
       style="fill:none;stroke:#008000;stroke-width:1" />
    <path
       d="m 2550,0 -50,100 0,66.66667 66.6667,133.33333 0,66.66667 L 2500,500 l 0,66.66667 66.6667,133.33333 0,66.66667 L 2550,800"
       id="path106"
       inkscape:connector-curvature="0"
       style="fill:none;stroke:#008000;stroke-width:1" />
    <path
       d="M 2516.6667,800 2500,766.66667 2500,700 2566.6667,566.66667 2566.6667,500 2500,366.66667 2500,300 l 66.6667,-133.33333 0,-66.66667 -50,-100"
       id="path108"
       inkscape:connector-curvature="0"
       style="fill:none;stroke:#008000;stroke-width:1" />
    <path
       d="m 2600,0 0,66.666667 L 2666.6667,200 l 0,66.66667 L 2600,400 l 0,66.66667 66.6667,133.33333 0,66.66667 L 2600,800"
       id="path110"
       inkscape:connector-curvature="0"
       style="fill:none;stroke:#008000;stroke-width:1" />
    <path
       d="M 2666.6667,800 2600,666.66667 2600,600 2666.6667,466.66667 2666.6667,400 2600,266.66667 2600,200 2666.6667,66.666667 2666.6667,0"
       id="path112"
       inkscape:connector-curvature="0"
       style="fill:none;stroke:#008000;stroke-width:1" />
    <path
       d="m 2750,0 -50,100 0,66.66667 66.6667,133.33333 0,66.66667 L 2700,500 l 0,66.66667 66.6667,133.33333 0,66.66667 L 2750,800"
       id="path114"
       inkscape:connector-curvature="0"
       style="fill:none;stroke:#008000;stroke-width:1" />
    <path
       d="M 2716.6667,800 2700,766.66667 2700,700 2766.6667,566.66667 2766.6667,500 2700,366.66667 2700,300 l 66.6667,-133.33333 0,-66.66667 -50,-100"
       id="path116"
       inkscape:connector-curvature="0"
       style="fill:none;stroke:#008000;stroke-width:1" />
    <path
       d="m 2800,0 0,66.666667 L 2866.6667,200 l 0,66.66667 L 2800,400 l 0,66.66667 66.6667,133.33333 0,66.66667 L 2800,800"
       id="path118"
       inkscape:connector-curvature="0"
       style="fill:none;stroke:#008000;stroke-width:1" />
    <path
       d="M 2866.6667,800 2800,666.66667 2800,600 2866.6667,466.66667 2866.6667,400 2800,266.66667 2800,200 2866.6667,66.666667 2866.6667,0"
       id="path120"
       inkscape:connector-curvature="0"
       style="fill:none;stroke:#008000;stroke-width:1" />
    <path
       d="m 2950,0 -50,100 0,66.66667 66.6667,133.33333 0,66.66667 L 2900,500 l 0,66.66667 66.6667,133.33333 0,66.66667 L 2950,800"
       id="path122"
       inkscape:connector-curvature="0"
       style="fill:none;stroke:#008000;stroke-width:1" />
    <path
       d="M 2916.6667,800 2900,766.66667 2900,700 2966.6667,566.66667 2966.6667,500 2900,366.66667 2900,300 l 66.6667,-133.33333 0,-66.66667 -50,-100"
       id="path124"
       inkscape:connector-curvature="0"
       style="fill:none;stroke:#008000;stroke-width:1" />
    <path
       d="m 3000,0 0,66.666667 L 3066.6667,200 l 0,66.66667 L 3000,400 l 0,66.66667 66.6667,133.33333 0,66.66667 L 3000,800"
       id="path126"
       inkscape:connector-curvature="0"
       style="fill:none;stroke:#008000;stroke-width:1" />
    <path
       d="M 3066.6667,800 3000,666.66667 3000,600 3066.6667,466.66667 3066.6667,400 3000,266.66667 3000,200 3066.6667,66.666667 3066.6667,0"
       id="path128"
       inkscape:connector-curvature="0"
       style="fill:none;stroke:#008000;stroke-width:1" />
    <path
       d="m 3150,0 -50,100 0,66.66667 66.6667,133.33333 0,66.66667 L 3100,500 l 0,66.66667 66.6667,133.33333 0,66.66667 L 3150,800"
       id="path130"
       inkscape:connector-curvature="0"
       style="fill:none;stroke:#008000;stroke-width:1" />
    <path
       d="M 3116.6667,800 3100,766.66667 3100,700 3166.6667,566.66667 3166.6667,500 3100,366.66667 3100,300 l 66.6667,-133.33333 0,-66.66667 -50,-100"
       id="path132"
       inkscape:connector-curvature="0"
       style="fill:none;stroke:#008000;stroke-width:1" />
  </g>
  <g
     inkscape:groupmode="layer"
     inkscape:label="2 - horizontal"
     id="g134"
     style="display:inline">
    <path
       d="M 0,0 66.666667,0 200,66.666667 l 66.66667,0 L 400,0 466.66667,0 600,66.666667 l 66.66667,0 L 800,0 866.66667,0 1000,66.666667 l 66.6667,0 L 1200,0 1266.6667,0 1400,66.666667 l 66.6667,0 L 1600,0 1666.6667,0 1800,66.666667 l 66.6667,0 L 2000,0 2066.6667,0 2200,66.666667 l 66.6667,0 L 2400,0 2466.6667,0 2600,66.666667 l 66.6667,0 L 2800,0 2866.6667,0 3000,66.666667 l 66.6667,0 L 3200,0"
       id="path136"
       inkscape:connector-curvature="0"
       style="fill:none;stroke:#0000ff;stroke-width:1" />
    <path
       d="M 3200,66.666667 3066.6667,0 3000,0 2866.6667,66.666667 2800,66.666667 2666.6667,0 2600,0 2466.6667,66.666667 2400,66.666667 2266.6667,0 2200,0 2066.6667,66.666667 2000,66.666667 1866.6667,0 1800,0 1666.6667,66.666667 1600,66.666667 1466.6667,0 1400,0 1266.6667,66.666667 1200,66.666667 1066.6667,0 1000,0 866.66667,66.666667 800,66.666667 666.66667,0 600,0 466.66667,66.666667 400,66.666667 266.66667,0 200,0 66.666667,66.666667 0,66.666667"
       id="path138"
       inkscape:connector-curvature="0"
       style="fill:none;stroke:#0000ff;stroke-width:1" />
    <path
       d="m 0,150 100,-50 66.66667,0 L 300,166.66667 l 66.66667,0 L 500,100 566.66667,100 700,166.66667 l 66.66667,0 L 900,100 966.66667,100 1100,166.66667 l 66.6667,0 L 1300,100 l 66.6667,0 133.3333,66.66667 66.6667,0 L 1700,100 l 66.6667,0 133.3333,66.66667 66.6667,0 L 2100,100 l 66.6667,0 133.3333,66.66667 66.6667,0 L 2500,100 l 66.6667,0 133.3333,66.66667 66.6667,0 L 2900,100 l 66.6667,0 133.3333,66.66667 66.6667,0 L 3201,149.5"
       id="path140"
       inkscape:connector-curvature="0"
       style="fill:none;stroke:#0000ff;stroke-width:1" />
    <path
       d="M 3201,117.16667 3166.6667,100 3100,100 l -133.3333,66.66667 -66.6667,0 L 2766.6667,100 2700,100 l -133.3333,66.66667 -66.6667,0 L 2366.6667,100 2300,100 l -133.3333,66.66667 -66.6667,0 L 1966.6667,100 1900,100 l -133.3333,66.66667 -66.6667,0 L 1566.6667,100 1500,100 l -133.3333,66.66667 -66.6667,0 L 1166.6667,100 1100,100 966.66667,166.66667 900,166.66667 766.66667,100 700,100 566.66667,166.66667 500,166.66667 366.66667,100 300,100 l -133.33333,66.66667 -66.66667,0 -100,-50"
       id="path142"
       inkscape:connector-curvature="0"
       style="fill:none;stroke:#0000ff;stroke-width:1" />
    <path
       d="M 0,200 66.666667,200 200,266.66667 l 66.66667,0 L 400,200 466.66667,200 600,266.66667 l 66.66667,0 L 800,200 866.66667,200 1000,266.66667 l 66.6667,0 L 1200,200 l 66.6667,0 133.3333,66.66667 66.6667,0 L 1600,200 l 66.6667,0 133.3333,66.66667 66.6667,0 L 2000,200 l 66.6667,0 133.3333,66.66667 66.6667,0 L 2400,200 l 66.6667,0 133.3333,66.66667 66.6667,0 L 2800,200 l 66.6667,0 133.3333,66.66667 66.6667,0 L 3200,200"
       id="path144"
       inkscape:connector-curvature="0"
       style="fill:none;stroke:#0000ff;stroke-width:1" />
    <path
       d="M 3200,266.66667 3066.6667,200 3000,200 l -133.3333,66.66667 -66.6667,0 L 2666.6667,200 2600,200 l -133.3333,66.66667 -66.6667,0 L 2266.6667,200 2200,200 l -133.3333,66.66667 -66.6667,0 L 1866.6667,200 1800,200 l -133.3333,66.66667 -66.6667,0 L 1466.6667,200 1400,200 l -133.3333,66.66667 -66.6667,0 L 1066.6667,200 1000,200 866.66667,266.66667 800,266.66667 666.66667,200 600,200 466.66667,266.66667 400,266.66667 266.66667,200 200,200 66.666667,266.66667 0,266.66667"
       id="path146"
       inkscape:connector-curvature="0"
       style="fill:none;stroke:#0000ff;stroke-width:1" />
    <path
       d="m 0,350 100,-50 66.66667,0 L 300,366.66667 l 66.66667,0 L 500,300 566.66667,300 700,366.66667 l 66.66667,0 L 900,300 966.66667,300 1100,366.66667 l 66.6667,0 L 1300,300 l 66.6667,0 133.3333,66.66667 66.6667,0 L 1700,300 l 66.6667,0 133.3333,66.66667 66.6667,0 L 2100,300 l 66.6667,0 133.3333,66.66667 66.6667,0 L 2500,300 l 66.6667,0 133.3333,66.66667 66.6667,0 L 2900,300 l 66.6667,0 133.3333,66.66667 66.6667,0 L 3201,349.5"
       id="path148"
       inkscape:connector-curvature="0"
       style="fill:none;stroke:#0000ff;stroke-width:1" />
    <path
       d="M 3201,317.16667 3166.6667,300 3100,300 l -133.3333,66.66667 -66.6667,0 L 2766.6667,300 2700,300 l -133.3333,66.66667 -66.6667,0 L 2366.6667,300 2300,300 l -133.3333,66.66667 -66.6667,0 L 1966.6667,300 1900,300 l -133.3333,66.66667 -66.6667,0 L 1566.6667,300 1500,300 l -133.3333,66.66667 -66.6667,0 L 1166.6667,300 1100,300 966.66667,366.66667 900,366.66667 766.66667,300 700,300 566.66667,366.66667 500,366.66667 366.66667,300 300,300 l -133.33333,66.66667 -66.66667,0 -100,-50"
       id="path150"
       inkscape:connector-curvature="0"
       style="fill:none;stroke:#0000ff;stroke-width:1" />
    <path
       d="M 0,400 66.666667,400 200,466.66667 l 66.66667,0 L 400,400 466.66667,400 600,466.66667 l 66.66667,0 L 800,400 866.66667,400 1000,466.66667 l 66.6667,0 L 1200,400 l 66.6667,0 133.3333,66.66667 66.6667,0 L 1600,400 l 66.6667,0 133.3333,66.66667 66.6667,0 L 2000,400 l 66.6667,0 133.3333,66.66667 66.6667,0 L 2400,400 l 66.6667,0 133.3333,66.66667 66.6667,0 L 2800,400 l 66.6667,0 133.3333,66.66667 66.6667,0 L 3200,400"
       id="path152"
       inkscape:connector-curvature="0"
       style="fill:none;stroke:#0000ff;stroke-width:1" />
    <path
       d="M 3200,466.66667 3066.6667,400 3000,400 l -133.3333,66.66667 -66.6667,0 L 2666.6667,400 2600,400 l -133.3333,66.66667 -66.6667,0 L 2266.6667,400 2200,400 l -133.3333,66.66667 -66.6667,0 L 1866.6667,400 1800,400 l -133.3333,66.66667 -66.6667,0 L 1466.6667,400 1400,400 l -133.3333,66.66667 -66.6667,0 L 1066.6667,400 1000,400 866.66667,466.66667 800,466.66667 666.66667,400 600,400 466.66667,466.66667 400,466.66667 266.66667,400 200,400 66.666667,466.66667 0,466.66667"
       id="path154"
       inkscape:connector-curvature="0"
       style="fill:none;stroke:#0000ff;stroke-width:1" />
    <path
       d="m 0,550 100,-50 66.66667,0 L 300,566.66667 l 66.66667,0 L 500,500 566.66667,500 700,566.66667 l 66.66667,0 L 900,500 966.66667,500 1100,566.66667 l 66.6667,0 L 1300,500 l 66.6667,0 133.3333,66.66667 66.6667,0 L 1700,500 l 66.6667,0 133.3333,66.66667 66.6667,0 L 2100,500 l 66.6667,0 133.3333,66.66667 66.6667,0 L 2500,500 l 66.6667,0 133.3333,66.66667 66.6667,0 L 2900,500 l 66.6667,0 133.3333,66.66667 66.6667,0 L 3201,549.5"
       id="path156"
       inkscape:connector-curvature="0"
       style="fill:none;stroke:#0000ff;stroke-width:1" />
    <path
       d="M 3201,517.16667 3166.6667,500 3100,500 l -133.3333,66.66667 -66.6667,0 L 2766.6667,500 2700,500 l -133.3333,66.66667 -66.6667,0 L 2366.6667,500 2300,500 l -133.3333,66.66667 -66.6667,0 L 1966.6667,500 1900,500 l -133.3333,66.66667 -66.6667,0 L 1566.6667,500 1500,500 l -133.3333,66.66667 -66.6667,0 L 1166.6667,500 1100,500 966.66667,566.66667 900,566.66667 766.66667,500 700,500 566.66667,566.66667 500,566.66667 366.66667,500 300,500 l -133.33333,66.66667 -66.66667,0 -100,-50"
       id="path158"
       inkscape:connector-curvature="0"
       style="fill:none;stroke:#0000ff;stroke-width:1" />
    <path
       d="M 0,600 66.666667,600 200,666.66667 l 66.66667,0 L 400,600 466.66667,600 600,666.66667 l 66.66667,0 L 800,600 866.66667,600 1000,666.66667 l 66.6667,0 L 1200,600 l 66.6667,0 133.3333,66.66667 66.6667,0 L 1600,600 l 66.6667,0 133.3333,66.66667 66.6667,0 L 2000,600 l 66.6667,0 133.3333,66.66667 66.6667,0 L 2400,600 l 66.6667,0 133.3333,66.66667 66.6667,0 L 2800,600 l 66.6667,0 133.3333,66.66667 66.6667,0 L 3200,600"
       id="path160"
       inkscape:connector-curvature="0"
       style="fill:none;stroke:#0000ff;stroke-width:1" />
    <path
       d="M 3200,666.66667 3066.6667,600 3000,600 l -133.3333,66.66667 -66.6667,0 L 2666.6667,600 2600,600 l -133.3333,66.66667 -66.6667,0 L 2266.6667,600 2200,600 l -133.3333,66.66667 -66.6667,0 L 1866.6667,600 1800,600 l -133.3333,66.66667 -66.6667,0 L 1466.6667,600 1400,600 l -133.3333,66.66667 -66.6667,0 L 1066.6667,600 1000,600 866.66667,666.66667 800,666.66667 666.66667,600 600,600 466.66667,666.66667 400,666.66667 266.66667,600 200,600 66.666667,666.66667 0,666.66667"
       id="path162"
       inkscape:connector-curvature="0"
       style="fill:none;stroke:#0000ff;stroke-width:1" />
    <path
       d="m 0,750 100,-50 66.66667,0 L 300,766.66667 l 66.66667,0 L 500,700 566.66667,700 700,766.66667 l 66.66667,0 L 900,700 966.66667,700 1100,766.66667 l 66.6667,0 L 1300,700 l 66.6667,0 133.3333,66.66667 66.6667,0 L 1700,700 l 66.6667,0 133.3333,66.66667 66.6667,0 L 2100,700 l 66.6667,0 133.3333,66.66667 66.6667,0 L 2500,700 l 66.6667,0 133.3333,66.66667 66.6667,0 L 2900,700 l 66.6667,0 133.3333,66.66667 66.6667,0 L 3201,749.5"
       id="path164"
       inkscape:connector-curvature="0"
       style="fill:none;stroke:#0000ff;stroke-width:1" />
    <path
       d="M 3201,717.16667 3166.6667,700 3100,700 l -133.3333,66.66667 -66.6667,0 L 2766.6667,700 2700,700 l -133.3333,66.66667 -66.6667,0 L 2366.6667,700 2300,700 l -133.3333,66.66667 -66.6667,0 L 1966.6667,700 1900,700 l -133.3333,66.66667 -66.6667,0 L 1566.6667,700 1500,700 l -133.3333,66.66667 -66.6667,0 L 1166.6667,700 1100,700 966.66667,766.66667 900,766.66667 766.66667,700 700,700 566.66667,766.66667 500,766.66667 366.66667,700 300,700 l -133.33333,66.66667 -66.66667,0 -100,-50"
       id="path166"
       inkscape:connector-curvature="0"
       style="fill:none;stroke:#0000ff;stroke-width:1" />
  </g>
  <g
     inkscape:groupmode="layer"
     inkscape:label="3 - border"
     id="g168"
     style="display:inline">
    <path
       d="M 0,0 3200,0"
       id="path170"
       inkscape:connector-curvature="0"
       style="fill:none;stroke:#000000;stroke-width:1" />
    <path
       d="m 0,800 3200,0"
       id="path172"
       inkscape:connector-curvature="0"
       style="fill:none;stroke:#000000;stroke-width:1" />
  </g>
</svg>
