<?xml version="1.0" encoding="UTF-8" standalone="no"?>
<svg
   xmlns:dc="http://purl.org/dc/elements/1.1/"
   xmlns:cc="http://creativecommons.org/ns#"
   xmlns:rdf="http://www.w3.org/1999/02/22-rdf-syntax-ns#"
   xmlns:svg="http://www.w3.org/2000/svg"
   xmlns="http://www.w3.org/2000/svg"
   xmlns:sodipodi="http://sodipodi.sourceforge.net/DTD/sodipodi-0.dtd"
   xmlns:inkscape="http://www.inkscape.org/namespaces/inkscape"
   width="3200"
   height="766.66998"
   id="svg3365"
   version="1.1"
   inkscape:version="0.48.0 r9654"
   sodipodi:docname="pattern2-767.svg">
  <sodipodi:namedview
     pagecolor="#ffffff"
     bordercolor="#666666"
     borderopacity="1"
     objecttolerance="10"
     gridtolerance="10"
     guidetolerance="10"
     inkscape:pageopacity="0"
     inkscape:pageshadow="2"
     inkscape:window-width="1388"
     inkscape:window-height="760"
     id="namedview3559"
     showgrid="false"
     inkscape:showpageshadow="false"
     showborder="true"
     inkscape:zoom="0.3928125"
     inkscape:cx="714.08117"
     inkscape:cy="383.33499"
     inkscape:window-x="31"
     inkscape:window-y="51"
     inkscape:window-maximized="0"
     inkscape:current-layer="g3553" />
  <metadata
     id="metadata3563">
    <rdf:RDF>
      <cc:Work
         rdf:about="">
        <dc:format>image/svg+xml</dc:format>
        <dc:type
           rdf:resource="http://purl.org/dc/dcmitype/StillImage" />
        <cc:license
           rdf:resource="http://creativecommons.org/licenses/publicdomain/" />
        <dc:title></dc:title>
        <dc:creator>
          <cc:Agent>
            <dc:title>Dan Newman</dc:title>
          </cc:Agent>
        </dc:creator>
        <dc:subject>
          <rdf:Bag>
            <rdf:li>eggbot</rdf:li>
          </rdf:Bag>
        </dc:subject>
        <dc:description>Eggbot plot.  See http://www.egg-bot.com/ for details.  This drawing has been vertically scaled to 2/3 its original height (y-axis).  This produces a generally nice aspect ratio for plotting on eggs.</dc:description>
      </cc:Work>
      <cc:License
         rdf:about="http://creativecommons.org/licenses/publicdomain/">
        <cc:permits
           rdf:resource="http://creativecommons.org/ns#Reproduction" />
        <cc:permits
           rdf:resource="http://creativecommons.org/ns#Distribution" />
        <cc:permits
           rdf:resource="http://creativecommons.org/ns#DerivativeWorks" />
      </cc:License>
    </rdf:RDF>
  </metadata>
  <defs
     id="defs3561" />
  <g
     transform="translate(0,-1435.6922)"
     style="display:inline"
     id="g3367"
     inkscape:label="1 - vertical"
     inkscape:groupmode="layer">
    <path
       style="fill:none;stroke:#008000;stroke-width:0.8164925"
       inkscape:connector-curvature="0"
       id="path3369"
       d="m 0,1436.1004 0,44.444 66.666667,88.888 0,44.444 L 0,1702.7644 l 0,44.444 66.666667,88.888 0,44.444 L 0,1969.4284 l 0,44.444 66.666667,88.888 0,44.4441 L 25,2202.7594" />
    <path
       style="fill:none;stroke:#008000;stroke-width:0.8164925"
       inkscape:connector-curvature="0"
       id="path3371"
       d="M 41.666667,2202.7594 0,2147.2045 l 0,-44.4441 66.666667,-88.888 0,-44.444 L 0,1880.5404 l 0,-44.444 66.666667,-88.888 0,-44.444 L 0,1613.8764 l 0,-44.444 66.666667,-88.888 0,-44.444" />
    <path
       style="fill:none;stroke:#008000;stroke-width:0.8164925"
       inkscape:connector-curvature="0"
       id="path3373"
       d="m 150,1436.1004 -50,66.666 0,44.444 66.66667,88.888 0,44.444 -66.66667,88.888 0,44.444 66.66667,88.888 0,44.444 -66.66667,88.888 0,44.444 66.66667,88.888 0,33.333" />
    <path
       style="fill:none;stroke:#008000;stroke-width:0.8164925"
       inkscape:connector-curvature="0"
       id="path3375"
       d="m 100,2202.7594 0,-33.333 66.66667,-88.888 0,-44.444 -66.66667,-88.888 0,-44.444 66.66667,-88.888 0,-44.444 -66.66667,-88.888 0,-44.444 66.66667,-88.888 0,-44.444 -50,-66.666" />
    <path
       style="fill:none;stroke:#008000;stroke-width:0.8164925"
       inkscape:connector-curvature="0"
       id="path3377"
       d="m 200,1436.1004 0,44.444 66.66667,88.888 0,44.444 -66.66667,88.888 0,44.444 66.66667,88.888 0,44.444 -66.66667,88.888 0,44.444 66.66667,88.888 0,44.4441 L 225,2202.7594" />
    <path
       style="fill:none;stroke:#008000;stroke-width:0.8164925"
       inkscape:connector-curvature="0"
       id="path3379"
       d="M 241.66667,2202.7594 200,2147.2045 l 0,-44.4441 66.66667,-88.888 0,-44.444 -66.66667,-88.888 0,-44.444 66.66667,-88.888 0,-44.444 -66.66667,-88.888 0,-44.444 66.66667,-88.888 0,-44.444" />
    <path
       style="fill:none;stroke:#008000;stroke-width:0.8164925"
       inkscape:connector-curvature="0"
       id="path3381"
       d="m 350,1436.1004 -50,66.666 0,44.444 66.66667,88.888 0,44.444 -66.66667,88.888 0,44.444 66.66667,88.888 0,44.444 -66.66667,88.888 0,44.444 66.66667,88.888 0,33.333" />
    <path
       style="fill:none;stroke:#008000;stroke-width:0.8164925"
       inkscape:connector-curvature="0"
       id="path3383"
       d="m 300,2202.7594 0,-33.333 66.66667,-88.888 0,-44.444 -66.66667,-88.888 0,-44.444 66.66667,-88.888 0,-44.444 -66.66667,-88.888 0,-44.444 66.66667,-88.888 0,-44.444 -50,-66.666" />
    <path
       style="fill:none;stroke:#008000;stroke-width:0.8164925"
       inkscape:connector-curvature="0"
       id="path3385"
       d="m 400,1436.1004 0,44.444 66.66667,88.888 0,44.444 -66.66667,88.888 0,44.444 66.66667,88.888 0,44.444 -66.66667,88.888 0,44.444 66.66667,88.888 0,44.4441 L 425,2202.7594" />
    <path
       style="fill:none;stroke:#008000;stroke-width:0.8164925"
       inkscape:connector-curvature="0"
       id="path3387"
       d="M 441.66667,2202.7594 400,2147.2045 l 0,-44.4441 66.66667,-88.888 0,-44.444 -66.66667,-88.888 0,-44.444 66.66667,-88.888 0,-44.444 -66.66667,-88.888 0,-44.444 66.66667,-88.888 0,-44.444" />
    <path
       style="fill:none;stroke:#008000;stroke-width:0.8164925"
       inkscape:connector-curvature="0"
       id="path3389"
       d="m 550,1436.1004 -50,66.666 0,44.444 66.66667,88.888 0,44.444 -66.66667,88.888 0,44.444 66.66667,88.888 0,44.444 -66.66667,88.888 0,44.444 66.66667,88.888 0,33.333" />
    <path
       style="fill:none;stroke:#008000;stroke-width:0.8164925"
       inkscape:connector-curvature="0"
       id="path3391"
       d="m 500,2202.7594 0,-33.333 66.66667,-88.888 0,-44.444 -66.66667,-88.888 0,-44.444 66.66667,-88.888 0,-44.444 -66.66667,-88.888 0,-44.444 66.66667,-88.888 0,-44.444 -50,-66.666" />
    <path
       style="fill:none;stroke:#008000;stroke-width:0.8164925"
       inkscape:connector-curvature="0"
       id="path3393"
       d="m 600,1436.1004 0,44.444 66.66667,88.888 0,44.444 -66.66667,88.888 0,44.444 66.66667,88.888 0,44.444 -66.66667,88.888 0,44.444 66.66667,88.888 0,44.4441 L 625,2202.7594" />
    <path
       style="fill:none;stroke:#008000;stroke-width:0.8164925"
       inkscape:connector-curvature="0"
       id="path3395"
       d="M 641.66667,2202.7594 600,2147.2045 l 0,-44.4441 66.66667,-88.888 0,-44.444 -66.66667,-88.888 0,-44.444 66.66667,-88.888 0,-44.444 -66.66667,-88.888 0,-44.444 66.66667,-88.888 0,-44.444" />
    <path
       style="fill:none;stroke:#008000;stroke-width:0.8164925"
       inkscape:connector-curvature="0"
       id="path3397"
       d="m 750,1436.1004 -50,66.666 0,44.444 66.66667,88.888 0,44.444 -66.66667,88.888 0,44.444 66.66667,88.888 0,44.444 -66.66667,88.888 0,44.444 66.66667,88.888 0,33.333" />
    <path
       style="fill:none;stroke:#008000;stroke-width:0.8164925"
       inkscape:connector-curvature="0"
       id="path3399"
       d="m 700,2202.7594 0,-33.333 66.66667,-88.888 0,-44.444 -66.66667,-88.888 0,-44.444 66.66667,-88.888 0,-44.444 -66.66667,-88.888 0,-44.444 66.66667,-88.888 0,-44.444 -50,-66.666" />
    <path
       style="fill:none;stroke:#008000;stroke-width:0.8164925"
       inkscape:connector-curvature="0"
       id="path3401"
       d="m 800,1436.1004 0,44.444 66.66667,88.888 0,44.444 -66.66667,88.888 0,44.444 66.66667,88.888 0,44.444 -66.66667,88.888 0,44.444 66.66667,88.888 0,44.4441 L 825,2202.7594" />
    <path
       style="fill:none;stroke:#008000;stroke-width:0.8164925"
       inkscape:connector-curvature="0"
       id="path3403"
       d="M 841.66667,2202.7594 800,2147.2045 l 0,-44.4441 66.66667,-88.888 0,-44.444 -66.66667,-88.888 0,-44.444 66.66667,-88.888 0,-44.444 -66.66667,-88.888 0,-44.444 66.66667,-88.888 0,-44.444" />
    <path
       style="fill:none;stroke:#008000;stroke-width:0.8164925"
       inkscape:connector-curvature="0"
       id="path3405"
       d="m 950,1436.1004 -50,66.666 0,44.444 66.66667,88.888 0,44.444 -66.66667,88.888 0,44.444 66.66667,88.888 0,44.444 -66.66667,88.888 0,44.444 66.66667,88.888 0,33.333" />
    <path
       style="fill:none;stroke:#008000;stroke-width:0.8164925"
       inkscape:connector-curvature="0"
       id="path3407"
       d="m 900,2202.7594 0,-33.333 66.66667,-88.888 0,-44.444 -66.66667,-88.888 0,-44.444 66.66667,-88.888 0,-44.444 -66.66667,-88.888 0,-44.444 66.66667,-88.888 0,-44.444 -50,-66.666" />
    <path
       style="fill:none;stroke:#008000;stroke-width:0.8164925"
       inkscape:connector-curvature="0"
       id="path3409"
       d="m 1000,1436.1004 0,44.444 66.6667,88.888 0,44.444 -66.6667,88.888 0,44.444 66.6667,88.888 0,44.444 -66.6667,88.888 0,44.444 66.6667,88.888 0,44.4441 -41.6667,55.5549" />
    <path
       style="fill:none;stroke:#008000;stroke-width:0.8164925"
       inkscape:connector-curvature="0"
       id="path3411"
       d="M 1041.6667,2202.7594 1000,2147.2045 l 0,-44.4441 66.6667,-88.888 0,-44.444 -66.6667,-88.888 0,-44.444 66.6667,-88.888 0,-44.444 -66.6667,-88.888 0,-44.444 66.6667,-88.888 0,-44.444" />
    <path
       style="fill:none;stroke:#008000;stroke-width:0.8164925"
       inkscape:connector-curvature="0"
       id="path3413"
       d="m 1150,1436.1004 -50,66.666 0,44.444 66.6667,88.888 0,44.444 -66.6667,88.888 0,44.444 66.6667,88.888 0,44.444 -66.6667,88.888 0,44.444 66.6667,88.888 0,33.333" />
    <path
       style="fill:none;stroke:#008000;stroke-width:0.8164925"
       inkscape:connector-curvature="0"
       id="path3415"
       d="m 1100,2202.7594 0,-33.333 66.6667,-88.888 0,-44.444 -66.6667,-88.888 0,-44.444 66.6667,-88.888 0,-44.444 -66.6667,-88.888 0,-44.444 66.6667,-88.888 0,-44.444 -50,-66.666" />
    <path
       style="fill:none;stroke:#008000;stroke-width:0.8164925"
       inkscape:connector-curvature="0"
       id="path3417"
       d="m 1200,1436.1004 0,44.444 66.6667,88.888 0,44.444 -66.6667,88.888 0,44.444 66.6667,88.888 0,44.444 -66.6667,88.888 0,44.444 66.6667,88.888 0,44.4441 -41.6667,55.5549" />
    <path
       style="fill:none;stroke:#008000;stroke-width:0.8164925"
       inkscape:connector-curvature="0"
       id="path3419"
       d="M 1241.6667,2202.7594 1200,2147.2045 l 0,-44.4441 66.6667,-88.888 0,-44.444 -66.6667,-88.888 0,-44.444 66.6667,-88.888 0,-44.444 -66.6667,-88.888 0,-44.444 66.6667,-88.888 0,-44.444" />
    <path
       style="fill:none;stroke:#008000;stroke-width:0.8164925"
       inkscape:connector-curvature="0"
       id="path3421"
       d="m 1350,1436.1004 -50,66.666 0,44.444 66.6667,88.888 0,44.444 -66.6667,88.888 0,44.444 66.6667,88.888 0,44.444 -66.6667,88.888 0,44.444 66.6667,88.888 0,33.333" />
    <path
       style="fill:none;stroke:#008000;stroke-width:0.8164925"
       inkscape:connector-curvature="0"
       id="path3423"
       d="m 1300,2202.7594 0,-33.333 66.6667,-88.888 0,-44.444 -66.6667,-88.888 0,-44.444 66.6667,-88.888 0,-44.444 -66.6667,-88.888 0,-44.444 66.6667,-88.888 0,-44.444 -50,-66.666" />
    <path
       style="fill:none;stroke:#008000;stroke-width:0.8164925"
       inkscape:connector-curvature="0"
       id="path3425"
       d="m 1400,1436.1004 0,44.444 66.6667,88.888 0,44.444 -66.6667,88.888 0,44.444 66.6667,88.888 0,44.444 -66.6667,88.888 0,44.444 66.6667,88.888 0,44.4441 -41.6667,55.5549" />
    <path
       style="fill:none;stroke:#008000;stroke-width:0.8164925"
       inkscape:connector-curvature="0"
       id="path3427"
       d="M 1441.6667,2202.7594 1400,2147.2045 l 0,-44.4441 66.6667,-88.888 0,-44.444 -66.6667,-88.888 0,-44.444 66.6667,-88.888 0,-44.444 -66.6667,-88.888 0,-44.444 66.6667,-88.888 0,-44.444" />
    <path
       style="fill:none;stroke:#008000;stroke-width:0.8164925"
       inkscape:connector-curvature="0"
       id="path3429"
       d="m 1550,1436.1004 -50,66.666 0,44.444 66.6667,88.888 0,44.444 -66.6667,88.888 0,44.444 66.6667,88.888 0,44.444 -66.6667,88.888 0,44.444 66.6667,88.888 0,33.333" />
    <path
       style="fill:none;stroke:#008000;stroke-width:0.8164925"
       inkscape:connector-curvature="0"
       id="path3431"
       d="m 1500,2202.7594 0,-33.333 66.6667,-88.888 0,-44.444 -66.6667,-88.888 0,-44.444 66.6667,-88.888 0,-44.444 -66.6667,-88.888 0,-44.444 66.6667,-88.888 0,-44.444 -50,-66.666" />
    <path
       style="fill:none;stroke:#008000;stroke-width:0.8164925"
       inkscape:connector-curvature="0"
       id="path3433"
       d="m 1600,1436.1004 0,44.444 66.6667,88.888 0,44.444 -66.6667,88.888 0,44.444 66.6667,88.888 0,44.444 -66.6667,88.888 0,44.444 66.6667,88.888 0,44.4441 -41.6667,55.5549" />
    <path
       style="fill:none;stroke:#008000;stroke-width:0.8164925"
       inkscape:connector-curvature="0"
       id="path3435"
       d="M 1641.6667,2202.7594 1600,2147.2045 l 0,-44.4441 66.6667,-88.888 0,-44.444 -66.6667,-88.888 0,-44.444 66.6667,-88.888 0,-44.444 -66.6667,-88.888 0,-44.444 66.6667,-88.888 0,-44.444" />
    <path
       style="fill:none;stroke:#008000;stroke-width:0.8164925"
       inkscape:connector-curvature="0"
       id="path3437"
       d="m 1750,1436.1004 -50,66.666 0,44.444 66.6667,88.888 0,44.444 -66.6667,88.888 0,44.444 66.6667,88.888 0,44.444 -66.6667,88.888 0,44.444 66.6667,88.888 0,33.333" />
    <path
       style="fill:none;stroke:#008000;stroke-width:0.8164925"
       inkscape:connector-curvature="0"
       id="path3439"
       d="m 1700,2202.7594 0,-33.333 66.6667,-88.888 0,-44.444 -66.6667,-88.888 0,-44.444 66.6667,-88.888 0,-44.444 -66.6667,-88.888 0,-44.444 66.6667,-88.888 0,-44.444 -50,-66.666" />
    <path
       style="fill:none;stroke:#008000;stroke-width:0.8164925"
       inkscape:connector-curvature="0"
       id="path3441"
       d="m 1800,1436.1004 0,44.444 66.6667,88.888 0,44.444 -66.6667,88.888 0,44.444 66.6667,88.888 0,44.444 -66.6667,88.888 0,44.444 66.6667,88.888 0,44.4441 -41.6667,55.5549" />
    <path
       style="fill:none;stroke:#008000;stroke-width:0.8164925"
       inkscape:connector-curvature="0"
       id="path3443"
       d="M 1841.6667,2202.7594 1800,2147.2045 l 0,-44.4441 66.6667,-88.888 0,-44.444 -66.6667,-88.888 0,-44.444 66.6667,-88.888 0,-44.444 -66.6667,-88.888 0,-44.444 66.6667,-88.888 0,-44.444" />
    <path
       style="fill:none;stroke:#008000;stroke-width:0.8164925"
       inkscape:connector-curvature="0"
       id="path3445"
       d="m 1950,1436.1004 -50,66.666 0,44.444 66.6667,88.888 0,44.444 -66.6667,88.888 0,44.444 66.6667,88.888 0,44.444 -66.6667,88.888 0,44.444 66.6667,88.888 0,33.333" />
    <path
       style="fill:none;stroke:#008000;stroke-width:0.8164925"
       inkscape:connector-curvature="0"
       id="path3447"
       d="m 1900,2202.7594 0,-33.333 66.6667,-88.888 0,-44.444 -66.6667,-88.888 0,-44.444 66.6667,-88.888 0,-44.444 -66.6667,-88.888 0,-44.444 66.6667,-88.888 0,-44.444 -50,-66.666" />
    <path
       style="fill:none;stroke:#008000;stroke-width:0.8164925"
       inkscape:connector-curvature="0"
       id="path3449"
       d="m 2000,1436.1004 0,44.444 66.6667,88.888 0,44.444 -66.6667,88.888 0,44.444 66.6667,88.888 0,44.444 -66.6667,88.888 0,44.444 66.6667,88.888 0,44.4441 -41.6667,55.5549" />
    <path
       style="fill:none;stroke:#008000;stroke-width:0.8164925"
       inkscape:connector-curvature="0"
       id="path3451"
       d="M 2041.6667,2202.7594 2000,2147.2045 l 0,-44.4441 66.6667,-88.888 0,-44.444 -66.6667,-88.888 0,-44.444 66.6667,-88.888 0,-44.444 -66.6667,-88.888 0,-44.444 66.6667,-88.888 0,-44.444" />
    <path
       style="fill:none;stroke:#008000;stroke-width:0.8164925"
       inkscape:connector-curvature="0"
       id="path3453"
       d="m 2150,1436.1004 -50,66.666 0,44.444 66.6667,88.888 0,44.444 -66.6667,88.888 0,44.444 66.6667,88.888 0,44.444 -66.6667,88.888 0,44.444 66.6667,88.888 0,33.333" />
    <path
       style="fill:none;stroke:#008000;stroke-width:0.8164925"
       inkscape:connector-curvature="0"
       id="path3455"
       d="m 2100,2202.7594 0,-33.333 66.6667,-88.888 0,-44.444 -66.6667,-88.888 0,-44.444 66.6667,-88.888 0,-44.444 -66.6667,-88.888 0,-44.444 66.6667,-88.888 0,-44.444 -50,-66.666" />
    <path
       style="fill:none;stroke:#008000;stroke-width:0.8164925"
       inkscape:connector-curvature="0"
       id="path3457"
       d="m 2200,1436.1004 0,44.444 66.6667,88.888 0,44.444 -66.6667,88.888 0,44.444 66.6667,88.888 0,44.444 -66.6667,88.888 0,44.444 66.6667,88.888 0,44.4441 -41.6667,55.5549" />
    <path
       style="fill:none;stroke:#008000;stroke-width:0.8164925"
       inkscape:connector-curvature="0"
       id="path3459"
       d="M 2241.6667,2202.7594 2200,2147.2045 l 0,-44.4441 66.6667,-88.888 0,-44.444 -66.6667,-88.888 0,-44.444 66.6667,-88.888 0,-44.444 -66.6667,-88.888 0,-44.444 66.6667,-88.888 0,-44.444" />
    <path
       style="fill:none;stroke:#008000;stroke-width:0.8164925"
       inkscape:connector-curvature="0"
       id="path3461"
       d="m 2350,1436.1004 -50,66.666 0,44.444 66.6667,88.888 0,44.444 -66.6667,88.888 0,44.444 66.6667,88.888 0,44.444 -66.6667,88.888 0,44.444 66.6667,88.888 0,33.333" />
    <path
       style="fill:none;stroke:#008000;stroke-width:0.8164925"
       inkscape:connector-curvature="0"
       id="path3463"
       d="m 2300,2202.7594 0,-33.333 66.6667,-88.888 0,-44.444 -66.6667,-88.888 0,-44.444 66.6667,-88.888 0,-44.444 -66.6667,-88.888 0,-44.444 66.6667,-88.888 0,-44.444 -50,-66.666" />
    <path
       style="fill:none;stroke:#008000;stroke-width:0.8164925"
       inkscape:connector-curvature="0"
       id="path3465"
       d="m 2400,1436.1004 0,44.444 66.6667,88.888 0,44.444 -66.6667,88.888 0,44.444 66.6667,88.888 0,44.444 -66.6667,88.888 0,44.444 66.6667,88.888 0,44.4441 -41.6667,55.5549" />
    <path
       style="fill:none;stroke:#008000;stroke-width:0.8164925"
       inkscape:connector-curvature="0"
       id="path3467"
       d="M 2441.6667,2202.7594 2400,2147.2045 l 0,-44.4441 66.6667,-88.888 0,-44.444 -66.6667,-88.888 0,-44.444 66.6667,-88.888 0,-44.444 -66.6667,-88.888 0,-44.444 66.6667,-88.888 0,-44.444" />
    <path
       style="fill:none;stroke:#008000;stroke-width:0.8164925"
       inkscape:connector-curvature="0"
       id="path3469"
       d="m 2550,1436.1004 -50,66.666 0,44.444 66.6667,88.888 0,44.444 -66.6667,88.888 0,44.444 66.6667,88.888 0,44.444 -66.6667,88.888 0,44.444 66.6667,88.888 0,33.333" />
    <path
       style="fill:none;stroke:#008000;stroke-width:0.8164925"
       inkscape:connector-curvature="0"
       id="path3471"
       d="m 2500,2202.7594 0,-33.333 66.6667,-88.888 0,-44.444 -66.6667,-88.888 0,-44.444 66.6667,-88.888 0,-44.444 -66.6667,-88.888 0,-44.444 66.6667,-88.888 0,-44.444 -50,-66.666" />
    <path
       style="fill:none;stroke:#008000;stroke-width:0.8164925"
       inkscape:connector-curvature="0"
       id="path3473"
       d="m 2600,1436.1004 0,44.444 66.6667,88.888 0,44.444 -66.6667,88.888 0,44.444 66.6667,88.888 0,44.444 -66.6667,88.888 0,44.444 66.6667,88.888 0,44.4441 -41.6667,55.5549" />
    <path
       style="fill:none;stroke:#008000;stroke-width:0.8164925"
       inkscape:connector-curvature="0"
       id="path3475"
       d="M 2641.6667,2202.7594 2600,2147.2045 l 0,-44.4441 66.6667,-88.888 0,-44.444 -66.6667,-88.888 0,-44.444 66.6667,-88.888 0,-44.444 -66.6667,-88.888 0,-44.444 66.6667,-88.888 0,-44.444" />
    <path
       style="fill:none;stroke:#008000;stroke-width:0.8164925"
       inkscape:connector-curvature="0"
       id="path3477"
       d="m 2750,1436.1004 -50,66.666 0,44.444 66.6667,88.888 0,44.444 -66.6667,88.888 0,44.444 66.6667,88.888 0,44.444 -66.6667,88.888 0,44.444 66.6667,88.888 0,33.333" />
    <path
       style="fill:none;stroke:#008000;stroke-width:0.8164925"
       inkscape:connector-curvature="0"
       id="path3479"
       d="m 2700,2202.7594 0,-33.333 66.6667,-88.888 0,-44.444 -66.6667,-88.888 0,-44.444 66.6667,-88.888 0,-44.444 -66.6667,-88.888 0,-44.444 66.6667,-88.888 0,-44.444 -50,-66.666" />
    <path
       style="fill:none;stroke:#008000;stroke-width:0.8164925"
       inkscape:connector-curvature="0"
       id="path3481"
       d="m 2800,1436.1004 0,44.444 66.6667,88.888 0,44.444 -66.6667,88.888 0,44.444 66.6667,88.888 0,44.444 -66.6667,88.888 0,44.444 66.6667,88.888 0,44.4441 -41.6667,55.5549" />
    <path
       style="fill:none;stroke:#008000;stroke-width:0.8164925"
       inkscape:connector-curvature="0"
       id="path3483"
       d="M 2841.6667,2202.7594 2800,2147.2045 l 0,-44.4441 66.6667,-88.888 0,-44.444 -66.6667,-88.888 0,-44.444 66.6667,-88.888 0,-44.444 -66.6667,-88.888 0,-44.444 66.6667,-88.888 0,-44.444" />
    <path
       style="fill:none;stroke:#008000;stroke-width:0.8164925"
       inkscape:connector-curvature="0"
       id="path3485"
       d="m 2950,1436.1004 -50,66.666 0,44.444 66.6667,88.888 0,44.444 -66.6667,88.888 0,44.444 66.6667,88.888 0,44.444 -66.6667,88.888 0,44.444 66.6667,88.888 0,33.333" />
    <path
       style="fill:none;stroke:#008000;stroke-width:0.8164925"
       inkscape:connector-curvature="0"
       id="path3487"
       d="m 2900,2202.7594 0,-33.333 66.6667,-88.888 0,-44.444 -66.6667,-88.888 0,-44.444 66.6667,-88.888 0,-44.444 -66.6667,-88.888 0,-44.444 66.6667,-88.888 0,-44.444 -50,-66.666" />
    <path
       style="fill:none;stroke:#008000;stroke-width:0.8164925"
       inkscape:connector-curvature="0"
       id="path3489"
       d="m 3000,1436.1004 0,44.444 66.6667,88.888 0,44.444 -66.6667,88.888 0,44.444 66.6667,88.888 0,44.444 -66.6667,88.888 0,44.444 66.6667,88.888 0,44.4441 -41.6667,55.5549" />
    <path
       style="fill:none;stroke:#008000;stroke-width:0.8164925"
       inkscape:connector-curvature="0"
       id="path3491"
       d="M 3041.6667,2202.7594 3000,2147.2045 l 0,-44.4441 66.6667,-88.888 0,-44.444 -66.6667,-88.888 0,-44.444 66.6667,-88.888 0,-44.444 -66.6667,-88.888 0,-44.444 66.6667,-88.888 0,-44.444" />
    <path
       style="fill:none;stroke:#008000;stroke-width:0.8164925"
       inkscape:connector-curvature="0"
       id="path3493"
       d="m 3150,1436.1004 -50,66.666 0,44.444 66.6667,88.888 0,44.444 -66.6667,88.888 0,44.444 66.6667,88.888 0,44.444 -66.6667,88.888 0,44.444 66.6667,88.888 0,33.333" />
    <path
       style="fill:none;stroke:#008000;stroke-width:0.8164925"
       inkscape:connector-curvature="0"
       id="path3495"
       d="m 3100,2202.7594 0,-33.333 66.6667,-88.888 0,-44.444 -66.6667,-88.888 0,-44.444 66.6667,-88.888 0,-44.444 -66.6667,-88.888 0,-44.444 66.6667,-88.888 0,-44.444 -50,-66.666" />
  </g>
  <g
     transform="translate(0,-1435.6922)"
     style="display:inline"
     id="g3497"
     inkscape:label="2 - horizontal"
     inkscape:groupmode="layer">
    <path
       style="fill:none;stroke:#0000ff;stroke-width:0.8164925"
       inkscape:connector-curvature="0"
       id="path3499"
       d="m 0,1436.1004 66.666667,0 133.333333,44.444 66.66667,0 133.33333,-44.444 66.66667,0 133.33333,44.444 66.66667,0 133.33333,-44.444 66.66667,0 133.33333,44.444 66.6667,0 133.3333,-44.444 66.6667,0 133.3333,44.444 66.6667,0 133.3333,-44.444 66.6667,0 133.3333,44.444 66.6667,0 133.3333,-44.444 66.6667,0 133.3333,44.444 66.6667,0 133.3333,-44.444 66.6667,0 133.3333,44.444 66.6667,0 133.3333,-44.444 66.6667,0 133.3333,44.444 66.6667,0 133.3333,-44.444" />
    <path
       style="fill:none;stroke:#0000ff;stroke-width:0.8164925"
       inkscape:connector-curvature="0"
       id="path3501"
       d="m 3200,1480.5444 -133.3333,-44.444 -66.6667,0 -133.3333,44.444 -66.6667,0 -133.3333,-44.444 -66.6667,0 -133.3333,44.444 -66.6667,0 -133.3333,-44.444 -66.6667,0 -133.3333,44.444 -66.6667,0 -133.3333,-44.444 -66.6667,0 -133.3333,44.444 -66.6667,0 -133.3333,-44.444 -66.6667,0 -133.3333,44.444 -66.6667,0 -133.3333,-44.444 -66.6667,0 -133.33333,44.444 -66.66667,0 -133.33333,-44.444 -66.66667,0 -133.33333,44.444 -66.66667,0 -133.33333,-44.444 -66.66667,0 -133.333333,44.444 -66.666667,0" />
    <path
       style="fill:none;stroke:#0000ff;stroke-width:0.8164925"
       inkscape:connector-curvature="0"
       id="path3503"
       d="m 0,1536.0994 100,-33.333 66.66667,0 133.33333,44.444 66.66667,0 133.33333,-44.444 66.66667,0 133.33333,44.444 66.66667,0 133.33333,-44.444 66.66667,0 133.33333,44.444 66.6667,0 133.3333,-44.444 66.6667,0 133.3333,44.444 66.6667,0 133.3333,-44.444 66.6667,0 133.3333,44.444 66.6667,0 133.3333,-44.444 66.6667,0 133.3333,44.444 66.6667,0 133.3333,-44.444 66.6667,0 133.3333,44.444 66.6667,0 133.3333,-44.444 66.6667,0 133.3333,44.444 66.6667,0 34.3333,-11.4443" />
    <path
       style="fill:none;stroke:#0000ff;stroke-width:0.8164925"
       inkscape:connector-curvature="0"
       id="path3505"
       d="m 3201,1514.2108 -34.3333,-11.4444 -66.6667,0 -133.3333,44.444 -66.6667,0 -133.3333,-44.444 -66.6667,0 -133.3333,44.444 -66.6667,0 -133.3333,-44.444 -66.6667,0 -133.3333,44.444 -66.6667,0 -133.3333,-44.444 -66.6667,0 -133.3333,44.444 -66.6667,0 -133.3333,-44.444 -66.6667,0 -133.3333,44.444 -66.6667,0 -133.3333,-44.444 -66.6667,0 -133.33333,44.444 -66.66667,0 -133.33333,-44.444 -66.66667,0 -133.33333,44.444 -66.66667,0 -133.33333,-44.444 -66.66667,0 -133.33333,44.444 -66.66667,0 -100,-33.333" />
    <path
       style="fill:none;stroke:#0000ff;stroke-width:0.8164925"
       inkscape:connector-curvature="0"
       id="path3507"
       d="m 0,1569.4324 66.666667,0 133.333333,44.444 66.66667,0 133.33333,-44.444 66.66667,0 133.33333,44.444 66.66667,0 133.33333,-44.444 66.66667,0 133.33333,44.444 66.6667,0 133.3333,-44.444 66.6667,0 133.3333,44.444 66.6667,0 133.3333,-44.444 66.6667,0 133.3333,44.444 66.6667,0 133.3333,-44.444 66.6667,0 133.3333,44.444 66.6667,0 133.3333,-44.444 66.6667,0 133.3333,44.444 66.6667,0 133.3333,-44.444 66.6667,0 133.3333,44.444 66.6667,0 133.3333,-44.444" />
    <path
       style="fill:none;stroke:#0000ff;stroke-width:0.8164925"
       inkscape:connector-curvature="0"
       id="path3509"
       d="m 3200,1613.8764 -133.3333,-44.444 -66.6667,0 -133.3333,44.444 -66.6667,0 -133.3333,-44.444 -66.6667,0 -133.3333,44.444 -66.6667,0 -133.3333,-44.444 -66.6667,0 -133.3333,44.444 -66.6667,0 -133.3333,-44.444 -66.6667,0 -133.3333,44.444 -66.6667,0 -133.3333,-44.444 -66.6667,0 -133.3333,44.444 -66.6667,0 -133.3333,-44.444 -66.6667,0 -133.33333,44.444 -66.66667,0 -133.33333,-44.444 -66.66667,0 -133.33333,44.444 -66.66667,0 -133.33333,-44.444 -66.66667,0 -133.333333,44.444 -66.666667,0" />
    <path
       style="fill:none;stroke:#0000ff;stroke-width:0.8164925"
       inkscape:connector-curvature="0"
       id="path3511"
       d="m 0,1669.4314 100,-33.333 66.66667,0 133.33333,44.444 66.66667,0 133.33333,-44.444 66.66667,0 133.33333,44.444 66.66667,0 133.33333,-44.444 66.66667,0 133.33333,44.444 66.6667,0 133.3333,-44.444 66.6667,0 133.3333,44.444 66.6667,0 133.3333,-44.444 66.6667,0 133.3333,44.444 66.6667,0 133.3333,-44.444 66.6667,0 133.3333,44.444 66.6667,0 133.3333,-44.444 66.6667,0 133.3333,44.444 66.6667,0 133.3333,-44.444 66.6667,0 133.3333,44.444 66.6667,0 34.3333,-11.4443" />
    <path
       style="fill:none;stroke:#0000ff;stroke-width:0.8164925"
       inkscape:connector-curvature="0"
       id="path3513"
       d="m 3201,1647.5428 -34.3333,-11.4444 -66.6667,0 -133.3333,44.444 -66.6667,0 -133.3333,-44.444 -66.6667,0 -133.3333,44.444 -66.6667,0 -133.3333,-44.444 -66.6667,0 -133.3333,44.444 -66.6667,0 -133.3333,-44.444 -66.6667,0 -133.3333,44.444 -66.6667,0 -133.3333,-44.444 -66.6667,0 -133.3333,44.444 -66.6667,0 -133.3333,-44.444 -66.6667,0 -133.33333,44.444 -66.66667,0 -133.33333,-44.444 -66.66667,0 -133.33333,44.444 -66.66667,0 -133.33333,-44.444 -66.66667,0 -133.33333,44.444 -66.66667,0 -100,-33.333" />
    <path
       style="fill:none;stroke:#0000ff;stroke-width:0.8164925"
       inkscape:connector-curvature="0"
       id="path3515"
       d="m 0,1702.7644 66.666667,0 133.333333,44.444 66.66667,0 133.33333,-44.444 66.66667,0 133.33333,44.444 66.66667,0 133.33333,-44.444 66.66667,0 133.33333,44.444 66.6667,0 133.3333,-44.444 66.6667,0 133.3333,44.444 66.6667,0 133.3333,-44.444 66.6667,0 133.3333,44.444 66.6667,0 133.3333,-44.444 66.6667,0 133.3333,44.444 66.6667,0 133.3333,-44.444 66.6667,0 133.3333,44.444 66.6667,0 133.3333,-44.444 66.6667,0 133.3333,44.444 66.6667,0 133.3333,-44.444" />
    <path
       style="fill:none;stroke:#0000ff;stroke-width:0.8164925"
       inkscape:connector-curvature="0"
       id="path3517"
       d="m 3200,1747.2084 -133.3333,-44.444 -66.6667,0 -133.3333,44.444 -66.6667,0 -133.3333,-44.444 -66.6667,0 -133.3333,44.444 -66.6667,0 -133.3333,-44.444 -66.6667,0 -133.3333,44.444 -66.6667,0 -133.3333,-44.444 -66.6667,0 -133.3333,44.444 -66.6667,0 -133.3333,-44.444 -66.6667,0 -133.3333,44.444 -66.6667,0 -133.3333,-44.444 -66.6667,0 -133.33333,44.444 -66.66667,0 -133.33333,-44.444 -66.66667,0 -133.33333,44.444 -66.66667,0 -133.33333,-44.444 -66.66667,0 -133.333333,44.444 -66.666667,0" />
    <path
       style="fill:none;stroke:#0000ff;stroke-width:0.8164925"
       inkscape:connector-curvature="0"
       id="path3519"
       d="m 0,1802.7634 100,-33.333 66.66667,0 133.33333,44.444 66.66667,0 133.33333,-44.444 66.66667,0 133.33333,44.444 66.66667,0 133.33333,-44.444 66.66667,0 133.33333,44.444 66.6667,0 133.3333,-44.444 66.6667,0 133.3333,44.444 66.6667,0 133.3333,-44.444 66.6667,0 133.3333,44.444 66.6667,0 133.3333,-44.444 66.6667,0 133.3333,44.444 66.6667,0 133.3333,-44.444 66.6667,0 133.3333,44.444 66.6667,0 133.3333,-44.444 66.6667,0 133.3333,44.444 66.6667,0 34.3333,-11.4443" />
    <path
       style="fill:none;stroke:#0000ff;stroke-width:0.8164925"
       inkscape:connector-curvature="0"
       id="path3521"
       d="m 3201,1780.8748 -34.3333,-11.4444 -66.6667,0 -133.3333,44.444 -66.6667,0 -133.3333,-44.444 -66.6667,0 -133.3333,44.444 -66.6667,0 -133.3333,-44.444 -66.6667,0 -133.3333,44.444 -66.6667,0 -133.3333,-44.444 -66.6667,0 -133.3333,44.444 -66.6667,0 -133.3333,-44.444 -66.6667,0 -133.3333,44.444 -66.6667,0 -133.3333,-44.444 -66.6667,0 -133.33333,44.444 -66.66667,0 -133.33333,-44.444 -66.66667,0 -133.33333,44.444 -66.66667,0 -133.33333,-44.444 -66.66667,0 -133.33333,44.444 -66.66667,0 -100,-33.333" />
    <path
       style="fill:none;stroke:#0000ff;stroke-width:0.8164925"
       inkscape:connector-curvature="0"
       id="path3523"
       d="m 0,1836.0964 66.666667,0 133.333333,44.444 66.66667,0 133.33333,-44.444 66.66667,0 133.33333,44.444 66.66667,0 133.33333,-44.444 66.66667,0 133.33333,44.444 66.6667,0 133.3333,-44.444 66.6667,0 133.3333,44.444 66.6667,0 133.3333,-44.444 66.6667,0 133.3333,44.444 66.6667,0 133.3333,-44.444 66.6667,0 133.3333,44.444 66.6667,0 133.3333,-44.444 66.6667,0 133.3333,44.444 66.6667,0 133.3333,-44.444 66.6667,0 133.3333,44.444 66.6667,0 133.3333,-44.444" />
    <path
       style="fill:none;stroke:#0000ff;stroke-width:0.8164925"
       inkscape:connector-curvature="0"
       id="path3525"
       d="m 3200,1880.5404 -133.3333,-44.444 -66.6667,0 -133.3333,44.444 -66.6667,0 -133.3333,-44.444 -66.6667,0 -133.3333,44.444 -66.6667,0 -133.3333,-44.444 -66.6667,0 -133.3333,44.444 -66.6667,0 -133.3333,-44.444 -66.6667,0 -133.3333,44.444 -66.6667,0 -133.3333,-44.444 -66.6667,0 -133.3333,44.444 -66.6667,0 -133.3333,-44.444 -66.6667,0 -133.33333,44.444 -66.66667,0 -133.33333,-44.444 -66.66667,0 -133.33333,44.444 -66.66667,0 -133.33333,-44.444 -66.66667,0 -133.333333,44.444 -66.666667,0" />
    <path
       style="fill:none;stroke:#0000ff;stroke-width:0.8164925"
       inkscape:connector-curvature="0"
       id="path3527"
       d="m 0,1936.0954 100,-33.333 66.66667,0 133.33333,44.444 66.66667,0 133.33333,-44.444 66.66667,0 133.33333,44.444 66.66667,0 133.33333,-44.444 66.66667,0 133.33333,44.444 66.6667,0 133.3333,-44.444 66.6667,0 133.3333,44.444 66.6667,0 133.3333,-44.444 66.6667,0 133.3333,44.444 66.6667,0 133.3333,-44.444 66.6667,0 133.3333,44.444 66.6667,0 133.3333,-44.444 66.6667,0 133.3333,44.444 66.6667,0 133.3333,-44.444 66.6667,0 133.3333,44.444 66.6667,0 34.3333,-11.4443" />
    <path
       style="fill:none;stroke:#0000ff;stroke-width:0.8164925"
       inkscape:connector-curvature="0"
       id="path3529"
       d="m 3201,1914.2068 -34.3333,-11.4444 -66.6667,0 -133.3333,44.444 -66.6667,0 -133.3333,-44.444 -66.6667,0 -133.3333,44.444 -66.6667,0 -133.3333,-44.444 -66.6667,0 -133.3333,44.444 -66.6667,0 -133.3333,-44.444 -66.6667,0 -133.3333,44.444 -66.6667,0 -133.3333,-44.444 -66.6667,0 -133.3333,44.444 -66.6667,0 -133.3333,-44.444 -66.6667,0 -133.33333,44.444 -66.66667,0 -133.33333,-44.444 -66.66667,0 -133.33333,44.444 -66.66667,0 -133.33333,-44.444 -66.66667,0 -133.33333,44.444 -66.66667,0 -100,-33.333" />
    <path
       style="fill:none;stroke:#0000ff;stroke-width:0.8164925"
       inkscape:connector-curvature="0"
       id="path3531"
       d="m 0,1969.4284 66.666667,0 133.333333,44.444 66.66667,0 133.33333,-44.444 66.66667,0 133.33333,44.444 66.66667,0 133.33333,-44.444 66.66667,0 133.33333,44.444 66.6667,0 133.3333,-44.444 66.6667,0 133.3333,44.444 66.6667,0 133.3333,-44.444 66.6667,0 133.3333,44.444 66.6667,0 133.3333,-44.444 66.6667,0 133.3333,44.444 66.6667,0 133.3333,-44.444 66.6667,0 133.3333,44.444 66.6667,0 133.3333,-44.444 66.6667,0 133.3333,44.444 66.6667,0 133.3333,-44.444" />
    <path
       style="fill:none;stroke:#0000ff;stroke-width:0.8164925"
       inkscape:connector-curvature="0"
       id="path3533"
       d="m 3200,2013.8724 -133.3333,-44.444 -66.6667,0 -133.3333,44.444 -66.6667,0 -133.3333,-44.444 -66.6667,0 -133.3333,44.444 -66.6667,0 -133.3333,-44.444 -66.6667,0 -133.3333,44.444 -66.6667,0 -133.3333,-44.444 -66.6667,0 -133.3333,44.444 -66.6667,0 -133.3333,-44.444 -66.6667,0 -133.3333,44.444 -66.6667,0 -133.3333,-44.444 -66.6667,0 -133.33333,44.444 -66.66667,0 -133.33333,-44.444 -66.66667,0 -133.33333,44.444 -66.66667,0 -133.33333,-44.444 -66.66667,0 -133.333333,44.444 -66.666667,0" />
    <path
       style="fill:none;stroke:#0000ff;stroke-width:0.8164925"
       inkscape:connector-curvature="0"
       id="path3535"
       d="m 0,2069.4274 100,-33.333 66.66667,0 133.33333,44.444 66.66667,0 133.33333,-44.444 66.66667,0 133.33333,44.444 66.66667,0 133.33333,-44.444 66.66667,0 133.33333,44.444 66.6667,0 133.3333,-44.444 66.6667,0 133.3333,44.444 66.6667,0 133.3333,-44.444 66.6667,0 133.3333,44.444 66.6667,0 133.3333,-44.444 66.6667,0 133.3333,44.444 66.6667,0 133.3333,-44.444 66.6667,0 133.3333,44.444 66.6667,0 133.3333,-44.444 66.6667,0 133.3333,44.444 66.6667,0 34.3333,-11.4443" />
    <path
       style="fill:none;stroke:#0000ff;stroke-width:0.8164925"
       inkscape:connector-curvature="0"
       id="path3537"
       d="m 3201,2047.5388 -34.3333,-11.4444 -66.6667,0 -133.3333,44.444 -66.6667,0 -133.3333,-44.444 -66.6667,0 -133.3333,44.444 -66.6667,0 -133.3333,-44.444 -66.6667,0 -133.3333,44.444 -66.6667,0 -133.3333,-44.444 -66.6667,0 -133.3333,44.444 -66.6667,0 -133.3333,-44.444 -66.6667,0 -133.3333,44.444 -66.6667,0 -133.3333,-44.444 -66.6667,0 -133.33333,44.444 -66.66667,0 -133.33333,-44.444 -66.66667,0 -133.33333,44.444 -66.66667,0 -133.33333,-44.444 -66.66667,0 -133.33333,44.444 -66.66667,0 -100,-33.333" />
    <path
       style="fill:none;stroke:#0000ff;stroke-width:0.8164925"
       inkscape:connector-curvature="0"
       id="path3539"
       d="m 0,2102.7604 66.666667,0 L 200,2147.2045 l 66.66667,0 L 400,2102.7604 l 66.66667,0 133.33333,44.4441 66.66667,0 L 800,2102.7604 l 66.66667,0 133.33333,44.4441 66.6667,0 133.3333,-44.4441 66.6667,0 133.3333,44.4441 66.6667,0 133.3333,-44.4441 66.6667,0 133.3333,44.4441 66.6667,0 133.3333,-44.4441 66.6667,0 133.3333,44.4441 66.6667,0 133.3333,-44.4441 66.6667,0 133.3333,44.4441 66.6667,0 133.3333,-44.4441 66.6667,0 133.3333,44.4441 66.6667,0 L 3200,2102.7604" />
    <path
       style="fill:none;stroke:#0000ff;stroke-width:0.8164925"
       inkscape:connector-curvature="0"
       id="path3541"
       d="m 3200,2147.2045 -133.3333,-44.4441 -66.6667,0 -133.3333,44.4441 -66.6667,0 -133.3333,-44.4441 -66.6667,0 -133.3333,44.4441 -66.6667,0 -133.3333,-44.4441 -66.6667,0 -133.3333,44.4441 -66.6667,0 -133.3333,-44.4441 -66.6667,0 -133.3333,44.4441 -66.6667,0 -133.3333,-44.4441 -66.6667,0 -133.3333,44.4441 -66.6667,0 -133.3333,-44.4441 -66.6667,0 -133.33333,44.4441 -66.66667,0 -133.33333,-44.4441 -66.66667,0 -133.33333,44.4441 -66.66667,0 -133.33333,-44.4441 -66.66667,0 -133.333333,44.4441 -66.666667,0" />
    <path
       style="fill:none;stroke:#0000ff;stroke-width:0.8164925"
       inkscape:connector-curvature="0"
       id="path3543"
       d="m 0,2202.7594 100,-33.333 66.66667,0 100,33.333 m 133.33333,0 100,-33.333 66.66667,0 100,33.333 m 133.33333,0 100,-33.333 66.66667,0 100.00003,33.333 m 133.3333,0 100,-33.333 66.6667,0 100,33.333 m 133.3333,0 100,-33.333 66.6667,0 100,33.333 m 133.3333,0 100,-33.333 66.6667,0 100,33.333 m 133.3333,0 100,-33.333 66.6667,0 100,33.333 m 133.3333,0 100,-33.333 66.6667,0 100,33.333" />
    <path
       style="fill:none;stroke:#0000ff;stroke-width:0.8164925"
       inkscape:connector-curvature="0"
       id="path3545"
       d="m 3201,2180.8708 -34.3333,-11.4444 -66.6667,0 -100,33.333 m -133.3333,0 -100,-33.333 -66.6667,0 -100,33.333 m -133.3333,0 -100,-33.333 -66.6667,0 -100,33.333 m -133.3333,0 -100,-33.333 -66.6667,0 -100,33.333 m -133.3333,0 -100,-33.333 -66.6667,0 -100,33.333 m -133.3333,0 -100,-33.333 -66.6667,0 -100,33.333 m -133.33333,0 -100,-33.333 -66.66667,0 -100,33.333 m -133.33333,0 -100,-33.333 -66.66667,0 -100,33.333 m -133,0 -67,-22.2219" />
  </g>
  <g
     transform="translate(0,-1435.6922)"
     style="display:inline"
     id="g3547"
     inkscape:label="3 - border"
     inkscape:groupmode="layer">
    <path
       style="fill:none;stroke:#000000;stroke-width:0.8164925"
       inkscape:connector-curvature="0"
       id="path3549"
       d="m 0,1436.1004 3200,0" />
    <path
       style="fill:none;stroke:#000000;stroke-width:0.8164925"
       inkscape:connector-curvature="0"
       id="path3551"
       d="m 0,2202.7594 3200,0" />
  </g>
  <g
     style="display:none"
     id="g3553"
     inkscape:label="4 - test"
     inkscape:groupmode="layer">
    <path
       style="fill:none;stroke:#ff0000;stroke-width:1"
       inkscape:connector-curvature="0"
       id="path3555"
       d="M 0,0 10,0" />
    <path
       style="fill:none;stroke:#ff0000;stroke-width:1"
       inkscape:connector-curvature="0"
       id="path3557"
       d="m 0,767 10,0" />
  </g>
</svg>
