<?xml version="1.0" encoding="UTF-8" standalone="no"?>
<!-- Created with Inkscape (http://www.inkscape.org/) -->

<svg
   xmlns:dc="http://purl.org/dc/elements/1.1/"
   xmlns:cc="http://creativecommons.org/ns#"
   xmlns:rdf="http://www.w3.org/1999/02/22-rdf-syntax-ns#"
   xmlns:svg="http://www.w3.org/2000/svg"
   xmlns="http://www.w3.org/2000/svg"
   xmlns:sodipodi="http://sodipodi.sourceforge.net/DTD/sodipodi-0.dtd"
   xmlns:inkscape="http://www.inkscape.org/namespaces/inkscape"
   id="svg3004"
   version="1.1"
   inkscape:version="0.48.2 r9819"
   width="3200"
   height="800"
   xml:space="preserve"
   sodipodi:docname="Eggbot Stormtrooper.svg"><sodipodi:namedview
     pagecolor="#ffffff"
     bordercolor="#666666"
     borderopacity="1"
     objecttolerance="10"
     gridtolerance="10"
     guidetolerance="10"
     inkscape:pageopacity="0"
     inkscape:pageshadow="2"
     inkscape:window-width="1442"
     inkscape:window-height="853"
     id="namedview3006"
     showgrid="false"
     inkscape:zoom="0.39"
     inkscape:cx="1601.8007"
     inkscape:cy="500"
     inkscape:window-x="0"
     inkscape:window-y="0"
     inkscape:window-maximized="0"
     inkscape:current-layer="layer1" /><metadata
     id="metadata3010"><rdf:RDF><cc:Work
         rdf:about=""><dc:format>image/svg+xml</dc:format><dc:type
           rdf:resource="http://purl.org/dc/dcmitype/StillImage" /><dc:title /></cc:Work></rdf:RDF></metadata><defs
     id="defs3008"><clipPath
       clipPathUnits="userSpaceOnUse"
       id="clipPath3018"><path
         d="M 0,800 3200,800 3200,0 0,0 0,800 z"
         id="path3020"
         inkscape:connector-curvature="0" /></clipPath></defs><g
     id="g3012"
     inkscape:groupmode="layer"
     inkscape:label="Eggbot Stormtrooper"
     transform="matrix(1.25,0,0,-1.25,0,800)"><g
       id="g3014"
       transform="matrix(0.8,0,0,0.79798018,0,-0.05532087)" /></g><g
     inkscape:groupmode="layer"
     id="layer1"
     inkscape:label="1: Grey"
     style="display:inline"><g
       id="g3362"
       transform="matrix(1,0,0,-0.99747523,656.7354,556.15135)"><g
         id="g3406"><path
           inkscape:connector-curvature="0"
           id="path3108"
           style="fill:none;stroke:#292929;stroke-width:0.5;stroke-linecap:round;stroke-linejoin:round;stroke-miterlimit:4;stroke-opacity:1;stroke-dasharray:none"
           d="m 0,0 c 0,-44.117 -54.98,-79.88 -122.804,-79.88 -67.82,0 -122.802,35.763 -122.802,79.88 0,44.118 54.982,79.881 122.802,79.881 C -54.98,79.881 0,44.118 0,0 z"
           transform="translate(1825.3085,294.3486)" /><path
           inkscape:connector-curvature="0"
           id="path3132"
           style="fill:none;stroke:#292929;stroke-width:0.5;stroke-linecap:round;stroke-linejoin:round;stroke-miterlimit:4;stroke-opacity:1;stroke-dasharray:none"
           d="m 0,0 c -9.306,-63.876 111.649,-97.991 153.242,-144.741 30.227,-33.978 47.989,-76.693 19.158,-113.54 -8.16,-10.432 -15.172,-26.603 -33.271,-31.486"
           transform="translate(1581.5986,280.2949)" /><path
           inkscape:connector-curvature="0"
           id="path3136"
           style="fill:none;stroke:#292929;stroke-width:0.5;stroke-linecap:round;stroke-linejoin:round;stroke-miterlimit:4;stroke-opacity:1;stroke-dasharray:none"
           d="m 0,0 c -7.299,-6.033 -14.171,-12.397 -20.314,-19.009 -18.853,-20.292 -33.425,-42.257 -56.669,-58.212 -53.433,-36.678 -122.407,-50.818 -186.134,-54.022 -55.926,-2.812 -92.634,6.183 -117.088,31.595"
           transform="translate(1425.5498,-102.2471)" /><path
           inkscape:connector-curvature="0"
           id="path3140"
           style="fill:none;stroke:#292929;stroke-width:0.5;stroke-linecap:round;stroke-linejoin:round;stroke-miterlimit:4;stroke-opacity:1;stroke-dasharray:none"
           d="m 0,0 c -41.872,3.113 -94.212,-3.224 -134.662,-14.546 -39.627,-11.094 -78.154,-26.808 -114.119,-46.822 -10.022,-5.576 -20.307,-11.99 -30.239,-19.048"
           transform="translate(1720.7275,-9.4716965)" /><path
           inkscape:connector-curvature="0"
           id="path3144"
           style="fill:none;stroke:#292929;stroke-width:0.5;stroke-linecap:round;stroke-linejoin:round;stroke-miterlimit:4;stroke-opacity:1;stroke-dasharray:none"
           d="m 0,0 c 0,-17.239 -6.731,-36.708 -16.474,-51.89 -7.858,-12.246 -22.672,-25.246 -25.711,-38.237 -3.042,-13.023 11.85,-23.971 21.798,-34.415 25.658,-26.938 48.585,-55.134 66.882,-84.447 12.48,-19.995 44.866,-59.08 15.119,-78.18 -25.327,-16.262 -87.905,-23.26 -121.764,-19.416 -15.589,1.771 -28.722,6.761 -44.038,9.169"
           transform="translate(1824.915,287.9443)" /><path
           inkscape:connector-curvature="0"
           id="path3262"
           style="fill:none;stroke:#292929;stroke-width:0.5;stroke-linecap:round;stroke-linejoin:round;stroke-miterlimit:4;stroke-opacity:1;stroke-dasharray:none"
           d="m 0,0 c 0,-44.116 54.98,-79.88 122.804,-79.88 67.82,0 122.802,35.764 122.802,79.88 0,44.118 -54.982,79.882 -122.802,79.882 C 54.98,79.882 0,44.118 0,0 z"
           transform="translate(61.2207,293.5737)" /><path
           inkscape:connector-curvature="0"
           id="path3290"
           style="fill:none;stroke:#292929;stroke-width:0.5;stroke-linecap:round;stroke-linejoin:round;stroke-miterlimit:4;stroke-opacity:1;stroke-dasharray:none"
           d="m 0,0 c 9.306,-63.876 -112.375,-101.013 -153.968,-147.764 -30.226,-33.978 -47.989,-76.693 -19.158,-113.541 8.16,-10.431 15.173,-26.601 33.272,-31.484"
           transform="translate(305.6562,282.5429)" /><path
           inkscape:connector-curvature="0"
           id="path3294"
           style="fill:none;stroke:#292929;stroke-width:0.5;stroke-linecap:round;stroke-linejoin:round;stroke-miterlimit:4;stroke-opacity:1;stroke-dasharray:none"
           d="m 0,0 c 6.105,-5.222 11.866,-10.676 17.099,-16.308 18.853,-20.291 33.425,-42.255 56.669,-58.211 53.433,-36.679 122.406,-50.818 186.134,-54.023 55.926,-2.811 92.634,6.184 117.088,31.596"
           transform="translate(464.1948,-105.7237)" /><path
           inkscape:connector-curvature="0"
           id="path3302"
           style="fill:none;stroke:#292929;stroke-width:0.5;stroke-linecap:round;stroke-linejoin:round;stroke-miterlimit:4;stroke-opacity:1;stroke-dasharray:none"
           d="m 0,0 c 41.872,3.113 94.212,-3.225 134.662,-14.547 39.627,-11.094 78.154,-26.808 114.119,-46.822 11.396,-6.342 23.138,-13.76 34.309,-21.985"
           transform="translate(165.8017,-10.246102)" /><path
           inkscape:connector-curvature="0"
           id="path3306"
           style="fill:none;stroke:#292929;stroke-width:0.5;stroke-linecap:round;stroke-linejoin:round;stroke-miterlimit:4;stroke-opacity:1;stroke-dasharray:none"
           d="m 0,0 c 0,-17.239 6.148,-32.994 15.891,-48.176 7.858,-12.246 22.672,-25.246 25.711,-38.238 3.042,-13.022 -11.85,-23.97 -21.798,-34.414 -25.658,-26.938 -48.585,-55.133 -66.882,-84.448 -12.48,-19.994 -44.866,-59.08 -15.119,-78.18 25.327,-16.261 87.905,-23.259 121.764,-19.416 15.589,1.772 28.722,6.762 44.037,9.17"
           transform="translate(62.1972,283.4555)" /><path
           inkscape:connector-curvature="0"
           id="path3360"
           style="fill:none;stroke:#292929;stroke-width:0.5;stroke-linecap:round;stroke-linejoin:round;stroke-miterlimit:4;stroke-opacity:1;stroke-dasharray:none"
           d="M 0,0 656.735,0"
           transform="translate(1886.5292,0.77530492)" /><path
           inkscape:connector-curvature="0"
           id="path3364"
           style="fill:none;stroke:#292929;stroke-width:0.5;stroke-linecap:round;stroke-linejoin:round;stroke-miterlimit:4;stroke-opacity:1;stroke-dasharray:none"
           d="M 0,0 -656.735,0" /><g
           id="g4155"><path
             inkscape:connector-curvature="0"
             id="path3336"
             style="fill:none;stroke:#292929;stroke-width:0.5;stroke-linecap:round;stroke-linejoin:round;stroke-miterlimit:4;stroke-opacity:1;stroke-dasharray:none"
             d="m 0,0 -59.84,0 -19.602,-106 94.889,0 L 0,0 z"
             transform="translate(-442.4678,545.6899)" /><path
             inkscape:connector-curvature="0"
             style="fill:none;stroke:#000000;stroke-width:1"
             d="m -79.13104,-106 0,1.68155 m 6,32.445667 0,-34.127217 m 6,0 0,66.572886 m 6,32.445669 0,-99.018555 m 6,0 0,106 m 6,0 0,-106 m 6,0 0,106 m 6,0 0,-106 m 6,0 0,106 m 6,0 0,-106 m 6,0 0,106 m 6,0 0,-106 m 6,0 0,106 m 6,0 0,-106 m 6,0 0,72.588353 m 6,-41.173043 0,-31.41531"
             transform="translate(-442.4678,545.6899)"
             id="path4158" /></g><g
           id="g4529"><path
             inkscape:connector-curvature="0"
             id="path3332"
             style="fill:none;stroke:#292929;stroke-width:0.5;stroke-linecap:round;stroke-linejoin:round;stroke-miterlimit:4;stroke-opacity:1;stroke-dasharray:none"
             d="M 0,0 122.882,0 102.878,84 25.386,84 0,0 z"
             transform="translate(327.7988,439.6899)" /><path
             inkscape:connector-curvature="0"
             id="path4532"
             transform="translate(327.7988,439.6899)"
             d="m 5.016565,0 0,16.599365 m 6,19.853463 0,-36.452828 m 6,0 0,56.30629 m 6,19.853463 0,-76.159753 m 6,0 0,84 m 6,0 0,-84 m 6,0 0,84 m 6,0 0,-84 m 6,0 0,84 m 6,0 0,-84 m 6,0 0,84 m 6,0 0,-84 m 6,0 0,84 m 6,0 0,-84 m 6,0 0,84 m 6,0 0,-84 m 6.000005,0 0,84 m 6,-17.378499 0,-66.621501 m 6,0 0,41.42654 m 6,-25.194961 0,-16.231579"
             style="fill:none;stroke:#000000;stroke-width:1" /></g><g
           id="g4907"><path
             inkscape:connector-curvature="0"
             id="path3154"
             style="fill:none;stroke:#292929;stroke-width:0.5;stroke-linecap:round;stroke-linejoin:round;stroke-miterlimit:4;stroke-opacity:1;stroke-dasharray:none"
             d="M 0,0 77.492,0 102.878,-84 -20.004,-84 0,0 z"
             transform="translate(1455.8525,524.4648)" /><path
             inkscape:connector-curvature="0"
             style="fill:none;stroke:#000000;stroke-width:1"
             d="m -14.987435,-84 0,21.065361 m 6,25.194961 0,-46.260322 m 6,0 0,71.455283 m 6,12.544717 0,-84 m 6,0 0,84 m 6,0 0,-84 m 6,0 0,84 m 6,0 0,-84 m 6,0 0,84 m 6,0 0,-84 m 6,0 0,84 m 6,0 0,-84 m 6,0 0,84 m 6,0 0,-84 m 6,0 0,84 m 6,0 0,-84 m 6,0 0,72.350765 m 6,-19.853463 0,-52.497302 m 6,0 0,32.64384 m 6,-19.853463 0,-12.790377"
             transform="translate(1455.8525,524.4648)"
             id="path4910" /></g><g
           id="g5289"><path
             inkscape:connector-curvature="0"
             id="path3158"
             style="fill:none;stroke:#292929;stroke-width:0.5;stroke-linecap:round;stroke-linejoin:round;stroke-miterlimit:4;stroke-opacity:1;stroke-dasharray:none"
             d="m 0,0 15.447,106 59.84,0 L 94.89,0 0,0 z"
             transform="translate(2313.5498,440.4648)" /><path
             inkscape:connector-curvature="0"
             id="path5292"
             transform="translate(2313.5498,440.4648)"
             d="m 0.311126,0 0,2.135001 m 6,41.173043 0,-43.308044 m 6,0 0,84.481088 m 6,21.518912 0,-106 m 6,0 0,106 m 6,0 0,-106 m 6,0 0,106 m 6,0 0,-106 m 6,0 0,106 m 6,0 0,-106 m 6,0 0,106 m 6,0 0,-106 m 6,0 0,106 m 6,-16.352464 0,-89.647536 m 6,0 0,57.203522 m 6,-32.444014 0,-24.759508"
             style="fill:none;stroke:#000000;stroke-width:1" /></g><g
           id="g5675"><path
             inkscape:connector-curvature="0"
             id="path3310"
             style="fill:none;stroke:#292929;stroke-width:0.5;stroke-linecap:round;stroke-linejoin:round;stroke-miterlimit:4;stroke-opacity:1;stroke-dasharray:none"
             d="m 0,0 c 0,-6.75 5.472,-12.222 12.222,-12.222 l 140.248,0 c 6.75,0 12.221,5.472 12.221,12.222 l 0,48.885 c 0,6.749 -5.471,12.22 -12.221,12.22 l -140.248,0 C 5.472,61.105 0,55.634 0,48.885 L 0,0 z"
             transform="translate(101.6787,275.104)" /><path
             inkscape:connector-curvature="0"
             style="fill:none;stroke:#000000;stroke-width:1"
             d="m 4.206754,-9.159576 0,67.202688 m 6,2.858769 0,-72.920726 m 6,-0.203155 0,73.327 m 6,0 0,-73.327 m 6,0 0,73.327 m 6,0 0,-73.327 m 6,0 0,73.327 m 6,0 0,-73.327 m 6,0 0,73.327 m 6,0 0,-73.327 m 6,0 0,73.327 m 6,0 0,-73.327 m 6,0 0,73.327 m 6,0 0,-73.327 m 6,0 0,73.327 m 6,0 0,-73.327 m 5.999996,0 0,73.327 m 6,0 0,-73.327 m 6,0 0,73.327 m 6,0 0,-73.327 m 6,0 0,73.327 m 6,0 0,-73.327 m 6,0 0,73.327 m 6,0 0,-73.327 m 6,0 0,73.327 m 6,-0.175052 0,-72.976864 m 6,2.657899 0,67.661531"
             transform="translate(101.6787,275.104)"
             id="path5678" /></g><g
           id="g6065"><path
             inkscape:connector-curvature="0"
             id="path3286"
             style="fill:none;stroke:#292929;stroke-width:0.5;stroke-linecap:round;stroke-linejoin:round;stroke-miterlimit:4;stroke-opacity:1;stroke-dasharray:none"
             d="m 0,0 c 20.664,-23.306 56.668,-39.174 106.587,-29.494 59.23,11.5 111.025,43.187 155.179,69.519 55.339,33.047 93.503,68.202 156.839,87.424 2.854,-0.394 3.129,0.834 3.335,2.108 C 378.488,129.644 353.252,113.58 323.499,96.903 301.945,84.835 283.383,73.072 260.095,61.091 214.973,37.874 168.46,8.864 123.27,-4.216 67.374,-20.37 25.52,-1.639 -2.172,20.127 l 0.003,0.003 c -5.09,6.078 -12.093,12.847 -16.414,17.487 -24.329,26.123 -55.807,61.065 -74.818,83.512 -7.456,-1.09 -11.037,-15.694 -13.363,-22.405 -6.16,-17.784 -10.448,-33.089 -16.032,-50.922 -2.392,-7.638 -7.79,-18.446 -6.681,-25.461 1.857,-11.732 27.284,-29.299 36.076,-36.663 14.442,-12.09 31.008,-21.53 45.424,-29.534 12.145,5.905 19.614,14.258 29.394,24.442 4.657,4.852 13.411,12.428 18.586,19.412 L 0,0 z"
             transform="translate(503.4853,209.1743)" /><path
             inkscape:connector-curvature="0"
             id="path6068"
             transform="translate(503.4853,209.1743)"
             d="m -124.91606,13.598608 0,28.296999 m 6,18.580568 0,-53.554581 m 6,-5.474722 0,78.262983 m 6,18.544188 0,-101.744798 m 6,-4.887378 0,122.509143 m 6.000005,6.55831 0,-133.81302 m 6,-4.64934 0,133.71343 m 6,-6.94137 0,-131.388893 m 6,-4.071455 0,128.525048 m 6,-6.755134 0,-125.771887 m 6,-3.621446 0,122.638203 m 6,-6.75513 0,-119.481213 m 6,-3.385912 0,116.269987 m 6,-6.568163 0,-111.921104 m 6,3.492416 0,101.860524 m 6,-6.568164 0,-90.86421 m 6,5.472668 0,78.823379 m 6,-6.568164 0,-66.276886 m 6,6.134239 0,53.672205 m 6,-6.21642 0,-41.582561 m 6,6.108412 0,28.932301 m 6,-5.458253 0,-18.817345 m 6,-5.935013 0,20.48286 m 6,-3.859073 0,-21.631025 m 6,-4.159307 0,22.323496 m 6,-3.093755 0,-22.753598 m 6,-2.981841 0,22.994866 m 6,-2.40787 0,-23.090019 m 6,-2.076658 0,23.07057 m 6,-1.745674 0,-23.012983 m 6,-1.270357 0,22.88272 m 6,-1.130336 0,-22.696673 m 6,-0.649352 0,22.463972 m 6,-0.526376 0,-22.319983 m 6,-0.08566 0,22.158649 m 6,-0.04215 0,-21.889217 m 6,0.435679 0,21.746169 m 6,0.551151 0,-21.656076 m 6.000005,0.973801 0,21.393941 m 6,1.11562 0,-21.389722 m 6,1.299592 0,21.352285 m 6,1.528419 0,-21.429215 m 6,1.561599 0,21.60798 m 5.99999,1.913721 0,-21.767311 m 6,1.811187 0,22.052717 m 6,2.342712 0,-22.349024 m 6,2.102441 0,22.650123 m 6,2.40354 0,-22.782983 m 6,2.380294 0,23.126108 m 6,2.739325 0,-23.386184 m 6,2.714329 0,23.434542 m 6,2.989557 0,-23.663356 m 6,2.760742 0,23.892171 m 6,3.037318 0,-23.99445 m 6,3.082131 0,24.110147 m 6,3.197829 0,-24.225844 m 6,3.173476 0,24.250196 m 6,3.197829 0,-24.117209 m 6,3.330816 0,23.984221 m 6,3.198416 0,-23.788358 m 6,3.535212 0,23.452129 m 6,3.198985 0,-23.115901 m 6,3.535213 0,22.779672 m 6,3.198984 0,-22.443443 m 6.00001,3.535212 0,22.107214 m 6,3.21361 0,-21.677172 m 6,3.731309 0,21.162436 m 6,3.226332 0,-20.657459 m 6,3.777545 0,20.299459 m 6,3.419545 0,-19.772344 m 6,3.94666 0,19.265733 m 6,3.466207 0,-18.781594 m 6,4.006031 0,18.241769 m 6,3.466205 0,-17.701943 m 6,4.004581 0,17.163567 m 6,3.433005 0,-16.707913 m 6,3.888658 0,16.159769 m 6,3.34052 0,-15.61163 m 6,3.605423 0,15.346727 m 6,3.14848 0,-14.894716 m 6,3.600492 0,14.328464 m 6,2.69624 0,-13.69593 m 6,3.22439 0,13.085 m 6,2.12333 0,-12.15337 m 6,2.88494 0,11.34735 m 6,1.67119 0,-10.22362 m 6,2.53415 0,9.05901 m 6,1.09026 0,-7.6803 m 6,2.24178 0,6.26626 m 6,0.58541 0,-4.70708 m 6,1.96005 0,3.11216 m 6,0.12784 0,-1.74495"
             style="fill:none;stroke:#000000;stroke-width:1" /></g><g
           id="g6459"><path
             inkscape:connector-curvature="0"
             id="path3128"
             style="fill:none;stroke:#292929;stroke-width:0.5;stroke-linecap:round;stroke-linejoin:round;stroke-miterlimit:4;stroke-opacity:1;stroke-dasharray:none"
             d="m 0,0 c 5.09,6.078 12.093,12.847 16.414,17.487 24.329,26.124 55.807,61.065 74.818,83.512 7.456,-1.09 11.037,-15.694 13.363,-22.405 6.16,-17.783 10.448,-33.09 16.032,-50.922 2.392,-7.638 7.79,-18.445 6.681,-25.461 -1.857,-11.732 -27.284,-29.299 -36.076,-36.663 -14.442,-12.09 -31.008,-21.53 -45.424,-29.534 -12.145,5.905 -19.614,14.258 -29.394,24.442 -4.657,4.853 -13.411,12.427 -18.586,19.413 l 0.003,0.001 c -20.664,-23.306 -56.668,-39.174 -106.587,-29.494 -59.23,11.499 -111.025,43.187 -155.179,69.519 -55.339,33.047 -93.503,68.202 -156.839,87.425 -2.854,-0.395 -3.129,0.833 -3.335,2.106 43.452,0.088 68.688,-15.976 98.441,-32.653 21.554,-12.068 40.116,-23.831 63.404,-35.812 45.122,-23.217 91.635,-52.227 136.826,-65.307 55.895,-16.154 97.75,2.578 125.441,24.343 L 0,0 z"
             transform="translate(1385.2128,230.0791)" /><path
             inkscape:connector-curvature="0"
             style="fill:none;stroke:#000000;stroke-width:1"
             d="m -419.41847,106.87716 0,2.449 m 6,-0.26049 0,-4.14865 m 6,-2.04299 0,5.71427 m 6,-0.71733 0,-7.23881 m 6,-2.367971 0,8.584861 m 6,-1.28733 0,-9.819456 m 6,-2.708732 0,10.962588 m 6,-1.95327 0,-11.804302 m 6,-3.051185 0,12.776622 m 6,-2.464894 0,-13.449348 m 6,-3.295573 0,14.131503 m 6,-2.965127 0,-14.690099 m 6,-3.60053 0,15.252707 m 6,-3.340515 0,-15.512722 m 6,-3.789614 0,15.961822 m 6,-3.340514 0,-16.50999 m 6,-3.888683 0,17.011034 m 6,-3.466206 0,-17.507064 m 6,-4.006043 0,18.046902 m 6,-3.466206 0,-18.58674 m 6,-3.97178 0,19.092315 m 6,-3.456891 0,-19.582089 m 6,-3.946664 0,20.109208 m 6,-3.419545 0,-20.544935 m 6,-3.73131 0,20.976656 m 6,-3.216573 0,-21.491393 m 6,-3.714429 0,21.989249 m 6,-3.202367 0,-22.322119 m 6,-3.535237 0,22.658374 m 6,-3.198983 0,-22.994628 m 6,-3.535238 0,23.330883 m 6,-3.198982 0,-23.667138 m 6,-3.468079 0,23.936386 m 6,-3.197817 0,-24.069425 m 6,-3.330856 0,24.202463 m 6,-3.197819 0,-24.267915 m 6,-3.082166 0,24.152263 m 6,-3.197818 0,-24.036611 m 6,-3.051069 0,23.975202 m 6,-2.989536 0,-23.746428 m 6,-2.760762 0,23.517654 m 6,-2.852986 0,-23.42543 m 6,-2.534438 0,23.220571 m 6,-2.739296 0,-22.936847 m 6,-2.270667 0,22.698697 m 6,-2.403505 0,-22.47807 m 6,-2.047733 0,22.122298 m 6,-2.146545 0,-21.870927 m 6,-1.81114 0,21.683625 m 6,-1.860719 0,-21.417723 m 6,-1.545985 0,21.435269 m 6,-1.411211 0,-21.32356 m 6,-1.230889 0,21.438834 m 6,-0.860382 0,-21.570164 m 6.000004,-0.749824 0,21.620464 m 6,-0.292598 0,-21.893008 m 6,-0.282543 0,22.069713 m 6,0.117453 0,-22.179132 m 6,0.245527 0,22.441965 m 6,0.734886 0,-22.66897 m 6,0.856828 0,22.795781 m 6,1.340675 0,-22.932137 m 6,1.541567 0,23.05004 m 6,1.950496 0,-23.084494 m 6,2.333549 0,23.013846 m 6,2.596331 0,-22.808425 m 6,3.330929 0,22.427841 m 6,3.347548 0,-21.840306 m 6,4.63368 0,20.925578 m 6,4.109197 0,-19.474984 m 6,0.136997 0,24.05775 m 6,6.556096 0,-37.072914 m 6,-5.911074 0,49.308756 m 6,6.34351 0,-61.656111 m 6,-6.14541 0,74.369742 m 6,6.568221 0,-86.667319 m 6,-4.778342 0,98.013882 m 6,6.568221 0,-108.391572 m 6,-0.161962 0,115.121754 m 6,6.568221 0,-118.304063 m 6,3.518774 0,121.501866 m 6,6.755057 0,-124.651113 m 6,3.874626 0,127.531543 m 6,6.868021 0,-130.397591 m 6,4.4644 0,132.874512 m 6,6.941326 0,-135.199005 m 6,4.731611 0,127.581997 m 5.999996,-12.610662 0,-110.153276 m 6,4.937628 0,86.738045 m 6,-18.85279 0,-62.649046 m 6,6.110382 0,36.939145 m 6,-17.939483 0,-10.174298"
             transform="translate(1385.2128,230.0791)"
             id="path6462" /></g><g
           id="g6857"><path
             inkscape:connector-curvature="0"
             id="path3148"
             style="fill:none;stroke:#292929;stroke-width:0.5;stroke-linecap:round;stroke-linejoin:round;stroke-miterlimit:4;stroke-opacity:1;stroke-dasharray:none"
             d="m 0,0 c 0,-6.75 -5.472,-12.221 -12.222,-12.221 l -140.248,0 c -6.75,0 -12.221,5.471 -12.221,12.221 l 0,48.885 c 0,6.749 5.471,12.221 12.221,12.221 l 140.248,0 C -5.472,61.106 0,55.634 0,48.885 L 0,0 z"
             transform="translate(1784.8505,275.8784)" /><path
             inkscape:connector-curvature="0"
             id="path6860"
             transform="translate(1784.8505,275.8784)"
             d="m -160.48425,-9.159477 0,67.203618 m 6,2.858802 0,-72.92092 m 6,-0.203023 0,73.327 m 6,0 0,-73.327 m 6,0 0,73.327 m 6,0 0,-73.327 m 6,0 0,73.327 m 6,0 0,-73.327 m 6,0 0,73.327 m 6,0 0,-73.327 m 6,0 0,73.327 m 6.000004,0 0,-73.327 m 6,0 0,73.327 m 6,0 0,-73.327 m 6,0 0,73.327 m 6,0 0,-73.327 m 6,0 0,73.327 m 6,0 0,-73.327 m 6,0 0,73.327 m 6,0 0,-73.327 m 6,0 0,73.327 m 6,0 0,-73.327 m 6,0 0,73.327 m 6,0 0,-73.327 m 6,0 0,73.327 m 6,-0.17518 0,-72.976668 m 6,2.657911 0,67.660554"
             style="fill:none;stroke:#000000;stroke-width:1" /></g><g
           id="g7259"><path
             inkscape:connector-curvature="0"
             id="path3298"
             style="fill:none;stroke:#292929;stroke-width:0.5;stroke-linecap:round;stroke-linejoin:round;stroke-miterlimit:4;stroke-opacity:1;stroke-dasharray:none"
             d="m 0,0 c -5.943,-0.045 -19.781,-1.012 -26.002,-1.357 -65.147,-3.645 -117.856,-27.038 -161.351,-48.454 -14.455,-7.111 -28.976,-18.787 -44.26,-23.173 -11.9,-3.42 -26.533,-3.821 -38.556,-6.319 -91.875,-19.09 -152.952,-63.137 -212.781,-133.729 -4.91,4.201 -10.043,8.252 -15.303,12.124 l 0,-0.01 c 31.155,28.658 52.027,66.926 90.347,88.051 21.173,11.674 43.968,20.263 66.995,27.476 13.295,4.164 56.732,23.127 69.312,17.672 -68.953,29.893 -151.054,50.078 -151.35,130.61 11.508,-23.395 28.161,-55.356 49.538,-70.84 25.991,-18.826 58.099,-29.742 87.537,-41.862 9.697,-3.996 30.76,-15.271 41.409,-14.748 8.029,0.399 20.527,12.202 28.557,17.907 25.761,18.214 55.985,41.298 78.533,57.933 C -105.424,34.85 -52.471,66.338 0,67.741 52.471,66.338 97.664,35.625 129.615,12.056 c 22.548,-16.635 52.773,-39.719 78.533,-57.934 8.031,-5.704 20.528,-17.507 28.557,-17.906 10.649,-0.523 31.712,10.753 41.409,14.748 29.438,12.119 61.546,23.035 87.537,41.861 21.377,15.485 38.031,47.446 49.538,70.842 -0.295,-80.534 -82.397,-100.719 -151.35,-130.61 12.58,5.454 56.017,-13.508 69.312,-17.672 23.028,-7.213 45.823,-15.804 66.995,-27.477 38.32,-21.125 63.262,-56.447 94.417,-85.104 l -0.002,0.005 c -5.533,-3.931 -10.955,-8.063 -16.158,-12.363 l 0.002,-0.002 c -59.829,70.592 -124.121,111.938 -215.996,131.029 -12.022,2.498 -26.656,2.897 -38.555,6.317 -15.285,4.388 -29.806,16.064 -44.261,23.174 C 136.099,-27.62 83.39,-4.228 18.242,-0.583 12.021,-0.236 5.943,-0.046 0,0 z"
             transform="translate(947.1445,107.3086)" /><path
             inkscape:connector-curvature="0"
             style="fill:none;stroke:#000000;stroke-width:1"
             d="m -493.72219,-204.36524 0,7.93365 m 6,5.9412 0,-18.61651 m 6,-2.51316 0,27.67723 m 6,6.66891 0,-27.44637 m 6,6.77618 0,27.6475 m 6,6.9773 0,-28.09802 m 6,6.3527 0,28.72262 m 6,6.68495 0,-29.27114 m 6,5.91841 0,29.8963 m 6,6.07856 0,-30.24123 m 6,5.48331 0,30.35888 m 6,5.11509 0,-30.15066 m 6,5.05686 0,29.71096 m 0,182.192462 0,-13.360103 m 6,-193.633039 0,28.91433 m 0,166.339821 0,-22.981889 m 6,-167.624852 0,27.90792 m 0,151.568024 0,-23.481665 m 6,-151.495229 0,26.70087 m 0,138.172389 0,-21.920155 m 6,-138.691234 0,25.52031 m 0,126.002011 0,-19.794249 m 6,-127.634342 0,24.34649 m 0,115.035567 0,-17.556904 m 6,-117.919753 0,23.03979 m 0,105.42057 0,-15.63268 m 6,-109.12979 0,21.940601 m 0,96.709528 0,-13.95266 m 6,-101.116009 0,20.877574 m 0,89.232301 0,-13.205304 m 6,-93.590001 0,19.813102 m 0,82.929732 0,-12.822309 m 6,-86.628775 0,18.771449 m 0,76.813572 0,-12.553932 m 6,-80.084879 0,17.969912 m 0,71.194776 0,-12.233891 m 6,-73.984587 0,17.009558 m 0,65.952222 0,-12.1295 m 6,-68.14729 0,16.310424 m 0,60.901719 0,-11.899051 m 6,-62.718412 0,15.795007 m 0,55.974524 0,-11.884705 m 6,-57.403478 0,15.475267 m 0,51.048449 0,-11.755034 m 6,-52.507332 0,15.371965 m 0,46.359192 0,-11.839538 m 6,-47.630269 0,15.23107 m 0,41.742746 0,-11.836271 m 6,-43.141932 0,15.355913 m 0,37.126299 0,-11.794631 m 6,-38.740524 0,15.529312 m 0,32.518558 0,-11.761697 m 6,-34.413508 0,15.550225 m 0,28.216979 0,-11.808048 m 6,-30.306916 0,15.699246 m 0,24.007718 0,-11.865781 m 6,-26.188943 0,15.435456 m 0,20.211267 0,-11.943677 m 6,-22.203109 0,15.129386 m 0,16.508208 0,-11.920382 m 6,-18.340246 0,14.290478 m 0,13.279993 0,-11.716122 m 6,-14.477383 0,11.974426 m 0,11.553439 0,-11.536379 m 6,-10.898751 0,19.773883 m 6,-2.370604 0,-16.449716 m 6,0.759622 0,13.736677 m 6,-1.207603 0,-11.713879 m 6,0.866402 0,11.169563 m 6,2.786841 0,-12.681722 m 6,1.564855 0,15.093279 m 6,4.598366 0,-17.403415 m 6,2.93537 0,19.066412 m 6,4.408336 0,-20.183951 m 6,3.478554 0,21.031371 m 6,4.325976 0,-21.740008 m 6,3.391361 0,22.715611 m 6,4.436864 0,-23.836752 m 6,2.920864 0,25.352751 m 6,4.436864 0,-26.894639 m 6,2.869777 0,28.496057 m 6,4.47291 0,-30.245409 m 6,2.72356 0,31.99476 m 6,4.472911 0,-33.793815 m 6,2.481412 0,35.785314 m 6,4.47291 0,-37.776812 m 6,2.449186 0,39.65939 m 6,4.241066 0,-41.720332 m 6,2.180125 0,43.610425 m 6,3.865393 0,-45.295693 m 6,1.96343 0,47.191729 m 6,3.458467 0,-48.75457 m 6.000003,1.737967 0,50.475069 m 6,3.350142 0,-52.16848 m 6,1.542447 0,53.756354 m 6,2.915712 0,-55.259232 m 6,1.338308 0,56.704637 m 6,2.644844 0,-58.182738 m 6,1.126426 0,59.453258 m 6,2.268931 0,-60.801247 m 6,0.902615 0,61.997856 m 6,1.851782 0,-63.167024 m 6,0.669174 0,64.22349 m 6,1.479385 0,-65.250738 m 6,0.44794 0,66.070457 m 6,1.136226 0,-66.844538 m 6,0.362145 0,67.253783 m 6,0.627133 0,-67.603999 m 6,0.263322 0,67.710446 m 6,-0.156036 0,-67.615543 m 6,-0.191756 0,67.404145 m 6,-0.771726 0,-66.824175 m 6,-0.366888 0,66.229101 m 6,-1.158126 0,-65.5231 m 6,-0.604444 0,64.627051 m 6,-1.666365 0,-63.643276 m 6,-0.839407 0,62.604599 m 6,-2.178069 0,-61.334105 m 6,-1.07827 0,60.062733 m 6,-2.530834 0,-58.658279 m 6,-1.319074 0,57.15442 m 6,-2.997328 0,-55.512544 m 6,-1.542391 0,53.881896 m 6,-3.357113 0,-52.126547 m 6,-1.737909 0,50.173749 m 5.999997,-3.697536 0,-48.319555 m 6,-1.923867 0,46.356657 m 6,-4.074019 0,-44.430262 m 6,-2.180073 0,42.481268 m 6,-4.337513 0,-40.323829 m 6,-2.36453 0,38.335892 m 6,-4.472887 0,-36.344385 m 6,-2.481379 0,34.352878 m 6,-4.472887 0,-32.48583 m 6,-2.723556 0,30.7365 m 6,-4.472886 0,-28.98717 m 6,-2.82167 0,27.335953 m 6,-4.445322 0,-25.785647 m 6,-2.895017 0,24.243723 m 6,-4.436939 0,-23.030049 m 6,-3.315416 0,21.947219 m 6,-4.326239 0,-21.229198 m 6,-3.570189 0,20.473147 m 6,-4.332118 0,-19.432 m 6,-3.109683 0,17.943806 m 6,-4.597879 0,-15.804011 m 6,-1.771381 0,13.290331 m 6,-3.148657 0,-11.475009 m 6,-0.938406 0,11.349638 m 6,0.936569 0,-13.130975 m 6,-0.75921 0,15.676916 m 6,2.257401 0,-18.821948 m 6,-0.993306 0,22.402004 m 6,-9.973604 0,-13.783634 m 0,14.756474 0,11.662035 m 6,-12.823364 0,-14.95847 m 0,18.605542 0,11.862486 m 6,-16.560068 0,-15.31081 m 0,22.494135 0,11.96491 m 6,-20.524684 0,-15.544749 m 0,26.590267 0,11.887013 m 6,-24.626519 0,-15.46115 m 0,30.675106 0,11.820409 m 6,-28.838298 0,-15.385789 m 0,34.857913 0,11.77402 m 6,-33.366531 0,-15.142021 m 0,39.188768 0,11.782261 m 6,-37.949394 0,-14.898253 m 0,43.519622 0,11.823937 m 6,-42.565692 0,-14.890079 m 0,48.086069 0,11.865614 m 6,-47.208037 0,-14.906071 m 0,52.857187 0,11.752834 m 6,-51.865501 0,-14.997252 m 0,57.725543 0,11.86148 m 6,-56.718332 0,-15.336705 m 0,62.984981 0,11.834483 m 6,-61.468654 0,-15.81881 m 0,68.286497 0,12.064791 m 6,-66.518373 0,-16.578065 m 0,74.095022 0,12.143143 m 6,-71.730651 0,-17.300834 m 0,80.040597 0,12.465004 m 6,-77.455044 0,-18.012017 m 0,86.47643 0,12.704132 m 6,-83.418823 0,-18.899749 m 0,93.212097 0,13.124028 m 6,-89.857076 0,-19.688849 m 0,100.532781 0,13.626637 m 6,-97.069438 0,-20.59137 m 0,108.296117 0,15.201357 m 6,-105.504984 0,-21.49387 m 0,116.748513 0,16.915523 m 6,-114.999646 0,-22.53745 m 0,126.235305 0,19.022619 m 6,-125.731304 0,-23.40898 m 0,136.653353 0,21.280799 m 6,-137.704822 0,-24.43579 m 0,148.888586 0,23.09797 m 6,-151.067506 0,-25.19849 m 0,163.675435 0,23.440012 m 6,-165.788177 0,-25.90025 m 0,185.010477 0,18.41783 m 6,-181.756507 0,-26.36249 m 6,-4.97101 0,26.74355 m 6,-5.04355 0,-26.81374 m 6,-5.39761 0,26.95695 m 6,-5.60271 0,-26.89999 m 6,-5.8485 0,26.91878 m 6,-6.13196 0,-26.7703 m 6,-6.31803 0,26.83054 m 6,-6.25779 0,-26.99612 m 6,-6.79936 0,27.5408 m 6,-6.17395 0,-28.22839 m 6,4.52367 0,17.60524 m 6,-5.78367 0,-7.2812"
             transform="translate(947.1445,107.3086)"
             id="path7262" /></g><g
           id="g7665"><path
             inkscape:connector-curvature="0"
             id="path3356"
             style="fill:none;stroke:#292929;stroke-width:0.5;stroke-linecap:round;stroke-linejoin:round;stroke-miterlimit:4;stroke-opacity:1;stroke-dasharray:none"
             d="m 0,0 c 11.186,1.623 17.604,-5.126 25.814,-8.46 51.82,-21.198 154.449,-29.182 197.047,8.427 15.949,14.088 18.325,39.588 5.713,54.773 -31.83,38.312 -129.099,43.01 -194.191,21.065 10.47,52.666 41.706,99.1 78.536,135.877 C 64.607,182.717 41.698,135.012 20.103,86.34 c -34.564,36.117 -46.404,89.177 -119.938,94.796 -4.839,0.368 -9.487,0.547 -13.958,0.551 -4.471,-0.004 -16.881,-0.958 -21.72,-1.326 -73.534,-5.619 -85.374,-58.679 -119.937,-94.797 -21.596,48.672 -44.505,96.377 -92.817,125.342 36.83,-36.775 68.067,-83.211 78.537,-135.877 -65.092,21.946 -162.362,17.248 -194.192,-21.064 -12.611,-15.186 -10.235,-40.686 5.713,-54.774 42.599,-37.607 145.228,-29.625 197.047,-8.425 8.211,3.334 13.502,10.082 24.687,8.459 l 0,10.543 c -3.869,-2.063 -8.628,1.451 -14.694,1.013 -43.848,-32.304 -161.17,-37.834 -195.618,-2.109 -12.613,13.123 -10.65,32.562 0,43.183 18.803,18.696 58.781,27.784 102.808,25.28 24.508,-1.401 57.295,-16.061 79.959,-13.69 25.524,2.674 33.912,32.826 44.266,47.399 10.889,15.316 29.329,37.961 45.691,47.396 16.332,9.416 36.768,12.971 56.29,12.262 l 0.199,0.775 c 19.521,0.709 39.958,-2.846 56.289,-12.261 16.362,-9.437 34.803,-32.08 45.691,-47.398 10.355,-14.571 18.742,-44.724 44.266,-47.397 22.664,-2.371 55.451,12.288 79.96,13.689 44.026,2.503 84.005,-6.584 102.807,-25.279 10.65,-10.621 12.614,-30.061 0,-43.185 C 176.991,-26.277 59.669,-20.748 15.821,11.556 9.755,11.993 3.869,9.7 0,11.763 L 0,0 z"
             transform="translate(1060.9384,-183.9551)" /><path
             inkscape:connector-curvature="0"
             id="path7668"
             transform="translate(1060.9384,-183.9551)"
             d="m -467.55705,11.473678 0,37.035462 m 6,8.05984 0,-53.988913 m 6,-5.548927 0,65.045856 m 6,-50.054668 0,-19.348095 m 0,55.79735 0,17.989017 m 6,-60.796179 0,-16.482675 m 0,65.580079 0,15.263404 m 6,-68.7343 0,-15.052085 m 0,72.93627 0,13.786703 m 6,-75.109242 0,-14.109135 m 0,78.940207 0,12.854526 m 6,-80.471264 0,-13.369832 m 0,83.879886 0,12.156772 m 6,-84.942965 0,-12.909249 m 0,88.109302 0,11.709626 m 6,-88.654754 0,-12.701677 m 0,91.674179 0,11.293114 m 6,-91.983356 0,-12.274687 m 0,94.671688 0,11.060143 m 6,-94.651897 0,-12.189039 m 0,97.141917 0,10.889602 m 6,-97.037234 0,-11.851006 m 0,99.169578 0,10.777651 m 6,-98.886161 0,-11.840718 m 0,101.01158 0,10.582247 m 6,-100.50029 0,-11.579731 m 0,102.182872 0,10.594451 m 6,-101.704433 0,-11.559084 m 0,103.354164 0,10.512017 m 6,-102.670592 0,-11.380256 m 0,103.906426 0,10.515794 m 6,-103.317868 0,-11.2647 m 0,104.320425 0,10.633515 m 6,-103.707379 0,-11.230587 m 0,104.51075 0,10.500122 m 6,-103.798423 0,-11.077776 m 0,104.228903 0,10.715597 m 6,-103.616265 0,-11.124238 m 0,103.877733 0,10.745653 m 0,122.480331 0,-0.29037 m 6,-236.403518 0,11.022112 m 0,102.969174 0,-10.887217 m 0,126.981089 0,2.74442 m 6,-221.378428 0,-11.041322 m 0,102.010323 0,11.270145 m 0,114.903102 0,-4.8266 m 6,-222.704805 0,11.018995 m 0,101.099875 0,-11.842668 m 0,115.460303 0,7.18963 m 6,-211.277302 0,-10.974238 m 0,98.388204 0,12.546639 m 0,106.275627 0,-9.21821 m 6,-207.155692 0,11.084322 m 0,98.236353 0,-13.25182 m 0,103.523297 0,11.1026 m 6,-198.646688 0,-11.109988 m 0,93.647996 0,13.932626 m 0,95.944824 0,-12.99519 m 6,-189.489519 0,11.243377 m 0,94.313326 0,-14.432225 m 0,89.644601 0,14.86367 m 6,-183.06224 0,-11.360388 m 0,88.461016 0,14.776243 m 0,83.638369 0,-16.75814 m 6,-168.839995 0,11.537096 m 0,89.20781 0,-14.99707 m 0,72.668529 0,18.87039 m 6,-164.006225 0,-11.777779 m 0,83.046621 0,14.752957 m 0,68.850786 0,-21.47684 m 6,-143.604715 0,12.036036 m 0,82.70666 0,-14.342877 m 0,49.782776 0,24.90241 m 6,-140.801244 0,-12.451353 m 0,77.890081 0,13.204184 m 0,50.954812 0,-30.345661 m 6,-109.747678 0,12.836526 m 0,115.489123 0,-52.760901 m 6,-73.340688 0,13.43893 m 0,100.197299 0,-39.987446 m 6,-70.906939 0,13.990396 m 0,83.61893 0,-25.352172 m 6,-68.950608 0,14.589521 m 0,79.390419 0,-22.44833 m 6,-68.885833 0,11.657754 m 0,86.845848 0,-25.257264 m 6,-72.406339 0,9.706267 m 0,95.938256 0,-26.895082 m 6,8.7901 0,26.372402 m 6,8.399 0,-24.253401 m 6,10.495611 0,22.1716 m 6,7.77227 0,-21.48543 m 6,7.89259 0,20.64765 m 6,6.27276 0,-19.71179 m 6,6.68717 0,18.40659 m 6,4.60214 0,-16.88374 m 6,5.49633 0,15.35336 m 6,3.46499 0,-14.05203 m 6,3.90148 0,12.90962 m 6,2.44005 0,-12.26994 m 6,2.46822 0,11.74092 m 6,1.56318 0,-11.33754 m 6,1.5597 0,11.00349 m 6,0.92407 0,-10.72339 m 6,0.88471 0,10.4944 m 6,0.48962 0,-10.39349 m 6,0.28906 0,10.5406 m 6,0.31921 0,-10.88671 m 6,0.7941 0,10.36634 m 6,-0.23686 0,-10.22926 m 6,-0.36565 0,10.35806 m 5.999999,-0.49083 0,-10.51447 m 6,-1.02795 0,10.78135 m 6,-1.03603 0,-11.10659 m 6,-1.73561 0,11.49776 m 6,-1.68901 0,-11.97646 m 6,-2.68254 0,12.58686 m 6,-2.6516 0,-13.28784 m 6,-4.20246 0,14.54233 m 6,-3.58274 0,-15.98594 m 6,-5.72442 0,17.41573 m 6,-4.94325 0,-18.81059 m 6,-6.89699 0,20.00472 m 6,-6.52716 0,-20.95393 m 6,-7.97809 0,21.60015 m 6,-8.03918 0,-22.66306 m 6,-10.946129 0,25.181289 m 6,-107.765868 0,-11.568836 m 0,84.090166 0,26.905648 m 6,-99.994136 0,-11.066349 m 0,76.317692 0,26.475693 m 6,-91.254574 0,-13.216979 m 0,72.42226 0,24.363847 m 6,-85.303571 0,-14.497111 m 0,71.861324 0,21.061163 m 6,-82.12584 0,-13.841545 m 0,72.745579 0,30.979936 m 6,-92.979231 0,-13.146233 m 0,74.294236 0,44.820389 m 6,-108.603292 0,-12.71269 m 0,76.421907 0,12.383573 m 0,44.962322 0,-36.420248 m 6,-99.179806 0,12.297237 m 0,80.156436 0,-13.627825 m 0,40.345836 0,27.73175 m 6,-136.749777 0,-11.929257 m 0,81.373199 0,14.578536 m 0,63.530229 0,-23.46072 m 6,-137.523892 0,11.688492 m 0,87.208402 0,-14.856046 m 0,66.298474 0,20.35442 m 6,-160.720734 0,-11.434104 m 0,86.801043 0,14.980973 m 0,79.219042 0,-18.10603 m 6,-164.105083 0,11.317047 m 0,92.784292 0,-14.654668 m 0,84.685772 0,16.10584 m 6,-180.248349 0,-11.19999 m 0,92.127482 0,14.29318 m 0,92.297927 0,-14.19405 m 6,-185.463976 0,11.100616 m 0,97.128235 0,-13.679269 m 0,99.410504 0,12.28367 m 6,-196.106867 0,-11.074928 m 0,96.970283 0,12.998537 m 0,103.190585 0,-10.3337 m 6,-203.564178 0,10.991083 m 0,100.384891 0,-12.259698 m 0,111.759352 0,8.46754 m 6,-208.981911 0,-11.035833 m 0,100.964133 0,11.59581 m 0,112.442841 0,-6.38273 m 6.000001,-219.17366 0,10.959613 m 0,102.635172 0,-11.17734 m 0,123.445025 0,4.12406 m 6,-219.336016 0,-11.060336 m 0,103.511134 0,10.715711 m 0,120.195027 0,-1.83094 m 6,-232.967667 0,11.129374 m 0,103.696444 0,-10.773964 m 6,-104.186526 0,11.134901 m 0,103.834526 0,-10.635829 m 6,-104.46827 0,11.287707 m 0,103.748062 0,-10.522248 m 6,-104.41969 0,11.252998 m 0,103.503198 0,-10.590207 m 6,-104.005641 0,11.456128 m 0,102.768322 0,-10.472509 m 6,-103.445992 0,11.513656 m 0,102.006764 0,-10.602631 m 6,-102.431587 0,11.677119 m 0,100.659774 0,-10.590399 m 6,-101.199451 0,11.877222 m 0,99.215303 0,-10.650416 m 6,-99.585368 0,11.977014 m 0,97.257162 0,-10.81969 m 6,-97.557746 0,12.314972 m 0,95.003453 0,-10.931561 m 6,-95.116167 0,12.416524 m 0,92.286186 0,-11.104022 m 6,-92.307894 0,12.870721 m 0,89.067386 0,-11.455551 m 6,-88.749639 0,13.062633 m 0,85.348168 0,-11.822491 m 6,-84.772677 0,13.691195 m 0,80.937237 0,-12.423686 m 6,-79.981171 0,14.439674 m 0,75.542637 0,-13.075308 m 6,-74.261982 0,15.512724 m 0,69.245189 0,-14.343801 m 6,-67.23525 0,17.322984 m 0,61.018467 0,-16.009648 m 6,-58.521936 0,21.32542 m 0,49.362653 0,-20.091973 m 6,-45.975062 0,61.364123 m 6,-6.106324 0,-48.789746 m 6,11.709451 0,26.395374"
             style="fill:none;stroke:#000000;stroke-width:1" /></g></g></g></g><g
     inkscape:groupmode="layer"
     id="layer2"
     inkscape:label="2: Black"
     style="display:inline"><g
       style="display:inline"
       transform="matrix(1,0,0,-0.99747523,0,800.06915)"
       id="g3016"
       clip-path="url(#clipPath3018)"><g
         id="g3022"
         transform="translate(2053.0176,466.6406)"><path
           d="M 0,0 C 12.492,-13.556 24.383,-27.578 36.073,-41.754 20.428,-30.594 8.137,-16.885 0,0 z"
           style="fill:none;stroke:#292929;stroke-width:0.5;stroke-linecap:round;stroke-linejoin:round;stroke-miterlimit:4;stroke-opacity:1;stroke-dasharray:none"
           id="path3024"
           inkscape:connector-curvature="0" /></g><g
         id="g3026"
         transform="translate(2059.6973,473.77)"><path
           d="M 0,0 C 14.416,-13.455 25.064,-29.779 38.746,-43.792 20.816,-33.017 9.486,-17.212 0,0 z"
           style="fill:none;stroke:#292929;stroke-width:0.5;stroke-linecap:round;stroke-linejoin:round;stroke-miterlimit:4;stroke-opacity:1;stroke-dasharray:none"
           id="path3028"
           inkscape:connector-curvature="0" /></g><g
         id="g3030"
         transform="translate(2067.7139,481.9175)"><path
           d="M 0,0 C 13.387,-14.92 25.841,-30.552 38.746,-45.829 21.323,-34.646 6.239,-16.327 0,0 z"
           style="fill:none;stroke:#292929;stroke-width:0.5;stroke-linecap:round;stroke-linejoin:round;stroke-miterlimit:4;stroke-opacity:1;stroke-dasharray:none"
           id="path3032"
           inkscape:connector-curvature="0" /></g><g
         id="g3034"
         transform="translate(2075.7305,490.0649)"><path
           d="M 0,0 C 13.387,-15.603 26.855,-31.124 38.746,-47.866 20.576,-36.938 12.626,-18.211 -1.336,-4.074 -1.896,-1.946 -0.415,-1.375 0,0 z"
           style="fill:none;stroke:#292929;stroke-width:0.5;stroke-linecap:round;stroke-linejoin:round;stroke-miterlimit:4;stroke-opacity:1;stroke-dasharray:none"
           id="path3036"
           inkscape:connector-curvature="0" /></g><g
         id="g3038"
         transform="translate(2083.7471,499.231)"><path
           d="M 0,0 C 13.707,-16.031 26.695,-32.61 38.746,-49.902 20.602,-38.273 12.585,-18.923 -1.337,-4.074 -1.897,-1.945 -0.416,-1.375 0,0 z"
           style="fill:none;stroke:#292929;stroke-width:0.5;stroke-linecap:round;stroke-linejoin:round;stroke-miterlimit:4;stroke-opacity:1;stroke-dasharray:none"
           id="path3040"
           inkscape:connector-curvature="0" /></g><g
         id="g3042"
         transform="translate(2093.0996,508.3965)"><path
           d="M 0,0 C 13.641,-16.754 25.746,-34.698 38.746,-51.94 22.299,-42.999 11.21,-19.513 -1.336,-4.073 -4.021,-1.997 -0.75,-2.078 0,0 z"
           style="fill:none;stroke:#292929;stroke-width:0.5;stroke-linecap:round;stroke-linejoin:round;stroke-miterlimit:4;stroke-opacity:1;stroke-dasharray:none"
           id="path3044"
           inkscape:connector-curvature="0" /></g><g
         id="g3046"
         transform="translate(2101.1162,517.5625)"><path
           d="M 0,0 C 15.539,-15.991 26.989,-35.096 38.745,-53.977 29.54,-48.284 23.3,-38.997 17.368,-30.553 11.129,-21.662 5.651,-12.558 0,-3.055 -2.378,-2.311 -0.188,-1.202 0,0 z"
           style="fill:none;stroke:#292929;stroke-width:0.5;stroke-linecap:round;stroke-linejoin:round;stroke-miterlimit:4;stroke-opacity:1;stroke-dasharray:none"
           id="path3048"
           inkscape:connector-curvature="0" /></g><g
         id="g3050"
         transform="translate(2110.4678,528.7656)"><path
           d="M 0,0 C 14.218,-17.019 29.18,-38.834 37.411,-57.033 20.456,-42.46 12.801,-20.796 -1.335,-4.074 -1.896,-1.945 -0.415,-1.375 0,0 z"
           style="fill:none;stroke:#292929;stroke-width:0.5;stroke-linecap:round;stroke-linejoin:round;stroke-miterlimit:4;stroke-opacity:1;stroke-dasharray:none"
           id="path3052"
           inkscape:connector-curvature="0" /></g><g
         id="g3054"
         transform="translate(2065.835,248.3945)"><path
           d="m 0,0 c -15.565,-13.018 -23.876,12.648 -30.73,24.441 -7.415,12.761 -13.426,23.302 -16.033,31.573 -0.187,4.897 7.777,3.575 9.354,7.13 2.164,0.284 2.299,-0.969 4.008,-1.019 C -24.73,39.535 -10.714,21.03 0,0 z"
           style="fill:none;stroke:#292929;stroke-width:0.5;stroke-linecap:round;stroke-linejoin:round;stroke-miterlimit:4;stroke-opacity:1;stroke-dasharray:none"
           id="path3056"
           inkscape:connector-curvature="0" /></g><g
         id="g3058"
         transform="translate(2077.8594,254.5049)"><path
           d="m 0,0 c -15.138,17.659 -25.573,38.894 -36.073,60.088 0.6,4.633 8.403,3.776 10.688,7.129 1.069,-0.541 2.164,-1.06 4.008,-1.019 0.963,-9.084 9.34,-18.902 16.033,-30.552 C 1.736,23.301 20.242,3.555 0,0 z"
           style="fill:none;stroke:#292929;stroke-width:0.5;stroke-linecap:round;stroke-linejoin:round;stroke-miterlimit:4;stroke-opacity:1;stroke-dasharray:none"
           id="path3060"
           inkscape:connector-curvature="0" /></g><g
         id="g3062"
         transform="translate(2101.9082,265.708)"><path
           d="M 0,0 C -7.48,4.745 -12.879,16.458 -20.041,28.516 -27.471,41.032 -48.18,63.11 -22.713,65.18 -18.264,57.479 -13.801,46.704 -6.68,34.627 0.281,22.813 21.353,3.492 0,0 z"
           style="fill:none;stroke:#292929;stroke-width:0.5;stroke-linecap:round;stroke-linejoin:round;stroke-miterlimit:4;stroke-opacity:1;stroke-dasharray:none"
           id="path3064"
           inkscape:connector-curvature="0" /></g><g
         id="g3066"
         transform="translate(2137.9824,279.9658)"><path
           d="m 0,0 c -15.738,-12.966 -24.943,12.78 -32.064,24.442 -7.911,12.934 -13.749,22.732 -16.034,31.572 3.045,2.087 8.297,2.504 10.688,5.091 C -24.302,46.828 -10.956,17.741 0,0 z"
           style="fill:none;stroke:#292929;stroke-width:0.5;stroke-linecap:round;stroke-linejoin:round;stroke-miterlimit:4;stroke-opacity:1;stroke-dasharray:none"
           id="path3068"
           inkscape:connector-curvature="0" /></g><g
         id="g3070"
         transform="translate(2178.0664,367.5518)"><path
           d="M 0,0 C 15.658,-17.946 24.971,-40.718 38.745,-60.088 23.447,-75.743 12.665,-48.04 5.343,-36.664 -2.914,-23.843 -8.659,-13.576 -12.026,-5.093 -10.891,-1.202 -4.49,-1.335 0,0 z"
           style="fill:none;stroke:#292929;stroke-width:0.5;stroke-linecap:round;stroke-linejoin:round;stroke-miterlimit:4;stroke-opacity:1;stroke-dasharray:none"
           id="path3072"
           inkscape:connector-curvature="0" /></g><g
         id="g3074"
         transform="translate(2243.5332,313.5742)"><path
           d="M 0,0 C -16.486,-12.609 -26,13.729 -33.402,25.461 -41.713,38.639 -48.072,48.579 -52.107,57.032 -35.74,72.613 -26.574,43.711 -18.705,31.571 -10.009,18.169 -4.529,8.096 0,0 z"
           style="fill:none;stroke:#292929;stroke-width:0.5;stroke-linecap:round;stroke-linejoin:round;stroke-miterlimit:4;stroke-opacity:1;stroke-dasharray:none"
           id="path3076"
           inkscape:connector-curvature="0" /></g><g
         id="g3078"
         transform="translate(2230.1719,382.8281)"><path
           d="M 0,0 C 15.886,-19.128 27.979,-41.146 40.083,-63.144 22.326,-74.347 13.949,-46.858 6.681,-35.646 -2.084,-22.131 -10.274,-12.059 -12.023,-4.074 -10.42,-0.878 -5.396,-0.307 0,0 z"
           style="fill:none;stroke:#292929;stroke-width:0.5;stroke-linecap:round;stroke-linejoin:round;stroke-miterlimit:4;stroke-opacity:1;stroke-dasharray:none"
           id="path3080"
           inkscape:connector-curvature="0" /></g><g
         id="g3082"
         transform="translate(2296.9766,326.8145)"><path
           d="m 0,0 c -17.516,-14.127 -25.813,15.988 -33.401,27.497 -9.22,13.972 -17.691,22.568 -20.042,32.59 4.193,1.009 10.889,3.94 14.696,2.037 C -25.6,41.592 -13.002,20.643 0,0 z"
           style="fill:none;stroke:#292929;stroke-width:0.5;stroke-linecap:round;stroke-linejoin:round;stroke-miterlimit:4;stroke-opacity:1;stroke-dasharray:none"
           id="path3084"
           inkscape:connector-curvature="0" /></g><g
         id="g3086"
         transform="translate(2322.3623,329.8691)"><path
           d="m 0,0 c -20.282,-5.816 -24.41,15.877 -30.73,26.479 -7.523,12.608 -19.213,24.502 -22.713,36.664 5.343,0 8.016,2.037 13.36,2.037 C -24.932,44.811 -12.093,22.69 0,0 z"
           style="fill:none;stroke:#292929;stroke-width:0.5;stroke-linecap:round;stroke-linejoin:round;stroke-miterlimit:4;stroke-opacity:1;stroke-dasharray:none"
           id="path3088"
           inkscape:connector-curvature="0" /></g><g
         id="g3090"
         transform="translate(2309,398.1045)"><path
           d="M 0,0 C 14.07,-20.849 27.39,-42.266 38.747,-65.18 19.748,-69.724 14.43,-49.456 8.017,-38.7 0.455,-26.012 -7.802,-13.128 -14.696,-3.056 -14.51,1.557 -5.637,-0.46 0,0 z"
           style="fill:none;stroke:#292929;stroke-width:0.5;stroke-linecap:round;stroke-linejoin:round;stroke-miterlimit:4;stroke-opacity:1;stroke-dasharray:none"
           id="path3092"
           inkscape:connector-curvature="0" /></g><g
         id="g3094"
         transform="translate(2334.3857,401.1597)"><path
           d="m 0,0 c 14.083,-20.838 26.321,-43.081 38.746,-65.18 -18.878,-6.294 -22.926,15.297 -29.392,26.479 -7.683,13.3 -17.918,25.899 -24.05,35.646 l 0,2.036 C -11.823,0.865 -4.903,-0.336 0,0 z"
           style="fill:none;stroke:#292929;stroke-width:0.5;stroke-linecap:round;stroke-linejoin:round;stroke-miterlimit:4;stroke-opacity:1;stroke-dasharray:none"
           id="path3096"
           inkscape:connector-curvature="0" /></g><g
         id="g3098"
         transform="translate(2163.3682,289.1318)"><path
           d="m 0,0 c -16.795,-13.465 -23.595,12.903 -30.729,24.442 -8.03,12.976 -15.926,21.58 -17.369,30.554 -0.028,4.766 8.858,2.749 10.689,6.11 C -24.183,46.114 -10.476,18.616 0,0 z"
           style="fill:none;stroke:#292929;stroke-width:0.5;stroke-linecap:round;stroke-linejoin:round;stroke-miterlimit:4;stroke-opacity:1;stroke-dasharray:none"
           id="path3100"
           inkscape:connector-curvature="0" /></g><g
         id="g3102"
         transform="translate(2190.0908,298.2979)"><path
           d="m 0,0 c -17.144,-13.566 -25.2,12.934 -32.066,24.442 -7.748,12.965 -15.726,21.541 -17.37,30.553 -0.026,4.767 8.859,2.749 10.689,6.111 C -22.554,43.231 -13.12,20.205 0,0 z"
           style="fill:none;stroke:#292929;stroke-width:0.5;stroke-linecap:round;stroke-linejoin:round;stroke-miterlimit:4;stroke-opacity:1;stroke-dasharray:none"
           id="path3104"
           inkscape:connector-curvature="0" /></g><g
         id="g3106"
         transform="translate(2482.0439,538.8838)" /><g
         id="g3110"
         transform="translate(1832.0205,127.96)"><g
           id="g13330"><path
             d="m 0,0 c 26.175,1.272 52.831,-11.586 52.831,-33.706 0,-45.074 -99.892,-44.723 -99.957,0 C -47.182,-16.239 -33.913,-1.625 0,0 z"
             style="fill:none;stroke:#292929;stroke-width:0.5;stroke-linecap:round;stroke-linejoin:round;stroke-miterlimit:4;stroke-opacity:1;stroke-dasharray:none"
             id="path3112"
             inkscape:connector-curvature="0" /><path
             style="stroke:#000000;stroke-width:1.000000;fill:none"
             d="M -45.441449,-43.015003 l 0.000000,19.440328 M -39.441449,-13.836957 l 0.000000,-38.721245 M -33.441449,-57.607281 l 0.000000,48.741704 M -27.441449,-5.688604 l 0.000000,-55.367397 M -21.441449,-63.471344 l 0.000000,60.039556 M -15.441449,-1.921258 l 0.000000,-63.328262 M -9.441449,-66.308333 l 0.000000,65.415982 M -3.441449,-0.255598 l 0.000000,-66.756582 M 2.558551,-67.361350 l 0.000000,67.399989 M 8.558551,-0.112991 l 0.000000,-66.955962 M 14.558551,-66.460506 l 0.000000,65.722151 M 20.558551,-1.945858 l 0.000000,-63.475050 M 26.558551,-63.770198 l 0.000000,60.057495 M 32.558551,-6.142211 l 0.000000,-55.279989 M 38.558551,-58.121597 l 0.000000,48.527320 M 44.558551,-14.533751 l 0.000000,-38.760280 M 50.558551,-44.665966 l 0.000000,21.495360"
             id="path13333" /></g></g><g
         id="g3114"
         transform="translate(1786.3242,315.4473)"><path
           d="M 0,0 C 8.447,-6.057 18.209,-11.148 24.275,-18.961 15.294,-15.404 8.629,-10.137 0,-6.317 L 0,0 z"
           style="fill:none;stroke:#292929;stroke-width:0.5;stroke-linecap:round;stroke-linejoin:round;stroke-miterlimit:4;stroke-opacity:1;stroke-dasharray:none"
           id="path3116"
           inkscape:connector-curvature="0" /></g><g
         id="g3118"
         transform="translate(1722.0723,359.6865)"><g
           id="g11978"><path
             d="m 0,0 c 5.054,-4.214 20.585,-8.426 25.702,-14.748 2.377,-2.983 1.844,-14.44 1.425,-14.744 C 21.118,-33.795 11.661,-21.637 0,-21.066 L 0,0 z"
             style="fill:none;stroke:#292929;stroke-width:0.5;stroke-linecap:round;stroke-linejoin:round;stroke-miterlimit:4;stroke-opacity:1;stroke-dasharray:none"
             id="path3120"
             inkscape:connector-curvature="0" /><path
             id="path11981"
             d="M 5.251660,-22.123777 l 0.000000,19.022944 M 11.251660,-5.861461 l 0.000000,-18.913442 M 17.251660,-27.945026 l 0.000000,19.101449 M 23.251660,-12.414932 l 0.000000,-17.803071"
             style="stroke:#000000;stroke-width:1.000000;fill:none" /></g></g><g
         id="g3122"
         transform="translate(1654.959,393.3906)"><g
           id="g11536"><path
             d="m 0,0 c 11.011,-2.063 17.732,-7.282 27.134,-10.531 l 0,-29.49 C 18.506,-37.609 9.698,-35.329 0,-33.704 L 0,0 z"
             style="fill:none;stroke:#292929;stroke-width:0.5;stroke-linecap:round;stroke-linejoin:round;stroke-miterlimit:4;stroke-opacity:1;stroke-dasharray:none"
             id="path3124"
             inkscape:connector-curvature="0" /><path
             style="stroke:#000000;stroke-width:1.000000;fill:none"
             d="M 1.390904,-33.989124 l 0.000000,33.667461 M 7.390904,-2.004442 l 0.000000,-33.214631 M 13.390904,-36.449024 l 0.000000,31.954078 M 19.390904,-7.291329 l 0.000000,-30.698511 M 25.390904,-39.563753 l 0.000000,29.746469"
             id="path11539" /></g></g><g
         id="g3126"
         transform="translate(2041.9482,474.6143)" /><g
         id="g3130"
         transform="translate(2238.334,524.8301)" /><g
         id="g3134"
         transform="translate(2082.2852,142.2881)" /><g
         id="g3138"
         transform="translate(2377.4629,235.0635)" /><g
         id="g3142"
         transform="translate(2481.6504,532.4795)" /><g
         id="g3146"
         transform="translate(2441.5859,520.4136)" /><g
         id="g3152"
         transform="translate(2112.5879,769)" /><g
         id="g3156"
         transform="translate(2970.2852,685)" /><g
         id="g3160"
         transform="translate(2997,753)"><path
           d="M 0,0 0,-68"
           style="fill:none;stroke:#292929;stroke-width:0.5;stroke-linecap:round;stroke-linejoin:round;stroke-miterlimit:4;stroke-opacity:1;stroke-dasharray:none"
           id="path3162"
           inkscape:connector-curvature="0" /></g><g
         id="g3164"
         transform="translate(3015.6523,753)"><path
           d="M 0,0 0,-68"
           style="fill:none;stroke:#292929;stroke-width:0.5;stroke-linecap:round;stroke-linejoin:round;stroke-miterlimit:4;stroke-opacity:1;stroke-dasharray:none"
           id="path3166"
           inkscape:connector-curvature="0" /></g><g
         id="g3168"
         transform="translate(3035,753)"><path
           d="M 0,0 0,-68"
           style="fill:none;stroke:#292929;stroke-width:0.5;stroke-linecap:round;stroke-linejoin:round;stroke-miterlimit:4;stroke-opacity:1;stroke-dasharray:none"
           id="path3170"
           inkscape:connector-curvature="0" /></g><g
         id="g3172"
         transform="translate(1698.709,597.7334)"><g
           id="g8973"><path
             d="m 0,0 320.36,0 c 28.037,-20.507 21.24,-52.41 -1.175,-78.887 -15.892,-18.77 -37.877,-27.215 -62.137,-28.55 -29.747,-1.624 -61.583,6.626 -86.84,13.692 C 119.263,-79.524 80.83,-62.715 36.473,-42.132 27.506,-37.964 -41.463,-7.856 0,0 z"
             style="fill:none;stroke:#292929;stroke-width:0.5;stroke-linecap:round;stroke-linejoin:round;stroke-miterlimit:4;stroke-opacity:1;stroke-dasharray:none"
             id="path3174"
             inkscape:connector-curvature="0" /><path
             style="stroke:#000000;stroke-width:1.000000;fill:none"
             d="M -9.183059,-15.515483 l 0.000000,12.575218 M -3.183059,-0.840447 l 0.000000,-19.758925 M 2.816941,-24.593256 l 0.000000,24.593256 M 8.816941,0.000000 l 0.000000,-28.277872 M 14.816941,-31.549878 l 0.000000,31.549878 M 20.816941,0.000000 l 0.000000,-34.714116 M 26.816941,-37.568535 l 0.000000,37.568535 M 32.816941,0.000000 l 0.000000,-40.404142 M 38.816941,-43.197457 l 0.000000,43.197457 M 44.816941,0.000000 l 0.000000,-45.924804 M 50.816941,-48.652150 l 0.000000,48.652150 M 56.816941,0.000000 l 0.000000,-51.379497 M 62.816941,-54.106844 l 0.000000,54.106844 M 68.816941,0.000000 l 0.000000,-56.834191 M 74.816941,-59.427185 l 0.000000,59.427185 M 80.816941,0.000000 l 0.000000,-62.017876 M 86.816941,-64.565281 l 0.000000,64.565281 M 92.816941,0.000000 l 0.000000,-67.024092 M 98.816941,-69.482903 l 0.000000,69.482903 M 104.816941,0.000000 l 0.000000,-71.839054 M 110.816941,-74.141806 l 0.000000,74.141806 M 116.816941,0.000000 l 0.000000,-76.444558 M 122.816941,-78.585474 l 0.000000,78.585474 M 128.816941,0.000000 l 0.000000,-80.715318 M 134.816941,-82.822131 l 0.000000,82.822131 M 140.816941,0.000000 l 0.000000,-84.770094 M 146.816941,-86.718056 l 0.000000,86.718056 M 152.816941,0.000000 l 0.000000,-88.630471 M 158.816941,-90.395008 l 0.000000,90.395008 M 164.816941,0.000000 l 0.000000,-92.159546 M 170.816941,-93.907521 l 0.000000,93.907521 M 176.816941,0.000000 l 0.000000,-95.508863 M 182.816941,-97.110206 l 0.000000,97.110206 M 188.816941,0.000000 l 0.000000,-98.711549 M 194.816941,-100.169074 l 0.000000,100.169074 M 200.816941,0.000000 l 0.000000,-101.581517 M 206.816941,-102.806398 l 0.000000,102.806398 M 212.816941,0.000000 l 0.000000,-103.992301 M 218.816941,-104.972378 l 0.000000,104.972378 M 224.816941,0.000000 l 0.000000,-105.871204 M 230.816941,-106.557341 l 0.000000,106.557341 M 236.816941,0.000000 l 0.000000,-107.105923 M 242.816941,-107.438664 l 0.000000,107.438664 M 248.816941,0.000000 l 0.000000,-107.559889 M 254.816941,-107.470309 l 0.000000,107.470309 M 260.816941,0.000000 l 0.000000,-107.084504 M 266.816941,-106.457771 l 0.000000,106.457771 M 272.816941,0.000000 l 0.000000,-105.395749 M 278.816941,-103.950251 l 0.000000,103.950251 M 284.816941,0.000000 l 0.000000,-102.144315 M 290.816941,-99.866256 l 0.000000,99.866256 M 296.816941,0.000000 l 0.000000,-96.888666 M 302.816941,-93.280036 l 0.000000,93.280036 M 308.816941,0.000000 l 0.000000,-88.886373 M 314.816941,-83.481522 l 0.000000,83.481522 M 320.816941,-0.374193 l 0.000000,-76.470830 M 326.816941,-68.742383 l 0.000000,63.104475 M 332.816941,-13.045947 l 0.000000,-45.113899"
             id="path8976" /></g></g><g
         id="g3176"
         transform="translate(1146.9824,465.8657)"><path
           d="M 0,0 C -12.492,-13.556 -24.383,-27.578 -36.073,-41.754 -20.428,-30.594 -8.137,-16.885 0,0 z"
           style="fill:none;stroke:#292929;stroke-width:0.5;stroke-linecap:round;stroke-linejoin:round;stroke-miterlimit:4;stroke-opacity:1;stroke-dasharray:none"
           id="path3178"
           inkscape:connector-curvature="0" /></g><g
         id="g3180"
         transform="translate(1140.3027,472.9946)"><path
           d="M 0,0 C -14.416,-13.454 -25.064,-29.778 -38.746,-43.791 -20.816,-33.017 -9.486,-17.211 0,0 z"
           style="fill:none;stroke:#292929;stroke-width:0.5;stroke-linecap:round;stroke-linejoin:round;stroke-miterlimit:4;stroke-opacity:1;stroke-dasharray:none"
           id="path3182"
           inkscape:connector-curvature="0" /></g><g
         id="g3184"
         transform="translate(1132.2861,481.1431)"><path
           d="M 0,0 C -13.387,-14.921 -25.841,-30.553 -38.746,-45.829 -21.323,-34.646 -6.239,-16.328 0,0 z"
           style="fill:none;stroke:#292929;stroke-width:0.5;stroke-linecap:round;stroke-linejoin:round;stroke-miterlimit:4;stroke-opacity:1;stroke-dasharray:none"
           id="path3186"
           inkscape:connector-curvature="0" /></g><g
         id="g3188"
         transform="translate(1124.2695,489.2896)"><path
           d="m 0,0 c -13.387,-15.603 -26.855,-31.123 -38.746,-47.865 18.17,10.927 26.12,29.654 40.082,43.792 C 1.896,-1.945 0.415,-1.374 0,0 z"
           style="fill:none;stroke:#292929;stroke-width:0.5;stroke-linecap:round;stroke-linejoin:round;stroke-miterlimit:4;stroke-opacity:1;stroke-dasharray:none"
           id="path3190"
           inkscape:connector-curvature="0" /></g><g
         id="g3192"
         transform="translate(1116.2529,498.4556)"><path
           d="m 0,0 c -13.707,-16.03 -26.695,-32.609 -38.746,-49.902 18.144,11.63 26.161,30.98 40.083,45.829 C 1.897,-1.945 0.416,-1.374 0,0 z"
           style="fill:none;stroke:#292929;stroke-width:0.5;stroke-linecap:round;stroke-linejoin:round;stroke-miterlimit:4;stroke-opacity:1;stroke-dasharray:none"
           id="path3194"
           inkscape:connector-curvature="0" /></g><g
         id="g3196"
         transform="translate(1106.9004,507.6216)"><path
           d="m 0,0 c -13.641,-16.754 -25.746,-34.698 -38.746,-51.939 16.447,8.941 27.536,32.425 40.082,47.866 C 4.021,-1.997 0.75,-2.078 0,0 z"
           style="fill:none;stroke:#292929;stroke-width:0.5;stroke-linecap:round;stroke-linejoin:round;stroke-miterlimit:4;stroke-opacity:1;stroke-dasharray:none"
           id="path3198"
           inkscape:connector-curvature="0" /></g><g
         id="g3200"
         transform="translate(1098.8838,516.7876)"><path
           d="m 0,0 c -15.539,-15.99 -26.989,-35.096 -38.745,-53.977 9.205,5.693 15.445,14.981 21.377,23.424 6.239,8.891 11.717,17.995 17.368,27.498 2.378,0.744 0.188,1.854 0,3.055 z"
           style="fill:none;stroke:#292929;stroke-width:0.5;stroke-linecap:round;stroke-linejoin:round;stroke-miterlimit:4;stroke-opacity:1;stroke-dasharray:none"
           id="path3202"
           inkscape:connector-curvature="0" /></g><g
         id="g3204"
         transform="translate(1089.5322,527.9907)"><path
           d="m 0,0 c -14.218,-17.02 -29.18,-38.834 -37.411,-57.033 16.955,14.573 24.61,36.236 38.746,52.959 C 1.896,-1.945 0.415,-1.375 0,0 z"
           style="fill:none;stroke:#292929;stroke-width:0.5;stroke-linecap:round;stroke-linejoin:round;stroke-miterlimit:4;stroke-opacity:1;stroke-dasharray:none"
           id="path3206"
           inkscape:connector-curvature="0" /></g><g
         id="g3208"
         transform="translate(1134.165,247.6191)"><path
           d="m 0,0 c 15.565,-13.018 23.876,12.648 30.73,24.441 7.415,12.762 13.426,23.303 16.033,31.573 0.187,4.898 -7.777,3.576 -9.354,7.131 -2.164,0.283 -2.299,-0.969 -4.008,-1.02 C 24.73,39.535 10.714,21.031 0,0 z"
           style="fill:none;stroke:#292929;stroke-width:0.5;stroke-linecap:round;stroke-linejoin:round;stroke-miterlimit:4;stroke-opacity:1;stroke-dasharray:none"
           id="path3210"
           inkscape:connector-curvature="0" /></g><g
         id="g3212"
         transform="translate(1122.1406,253.7305)"><path
           d="m 0,0 c 15.138,17.658 25.573,38.893 36.073,60.088 -0.6,4.633 -8.403,3.775 -10.688,7.129 -1.069,-0.541 -2.164,-1.061 -4.008,-1.02 C 20.414,57.113 12.037,47.295 5.344,35.645 -1.736,23.301 -20.242,3.555 0,0 z"
           style="fill:none;stroke:#292929;stroke-width:0.5;stroke-linecap:round;stroke-linejoin:round;stroke-miterlimit:4;stroke-opacity:1;stroke-dasharray:none"
           id="path3214"
           inkscape:connector-curvature="0" /></g><g
         id="g3216"
         transform="translate(1098.0918,264.9336)"><path
           d="M 0,0 C 7.48,4.744 12.879,16.457 20.041,28.516 27.471,41.031 48.18,63.109 22.713,65.18 18.264,57.479 13.801,46.703 6.68,34.627 -0.281,22.813 -21.353,3.492 0,0 z"
           style="fill:none;stroke:#292929;stroke-width:0.5;stroke-linecap:round;stroke-linejoin:round;stroke-miterlimit:4;stroke-opacity:1;stroke-dasharray:none"
           id="path3218"
           inkscape:connector-curvature="0" /></g><g
         id="g3220"
         transform="translate(1062.0176,279.1914)"><path
           d="M 0,0 C 15.738,-12.967 24.943,12.779 32.064,24.441 39.975,37.375 45.813,47.174 48.098,56.014 45.053,58.1 39.801,58.518 37.41,61.105 24.302,46.828 10.956,17.74 0,0 z"
           style="fill:none;stroke:#292929;stroke-width:0.5;stroke-linecap:round;stroke-linejoin:round;stroke-miterlimit:4;stroke-opacity:1;stroke-dasharray:none"
           id="path3222"
           inkscape:connector-curvature="0" /></g><g
         id="g3224"
         transform="translate(1021.9336,366.7773)"><path
           d="m 0,0 c -15.658,-17.947 -24.971,-40.719 -38.745,-60.088 15.298,-15.656 26.08,12.047 33.402,23.424 8.257,12.82 14.002,23.088 17.369,31.57 C 10.891,-1.203 4.49,-1.336 0,0 z"
           style="fill:none;stroke:#292929;stroke-width:0.5;stroke-linecap:round;stroke-linejoin:round;stroke-miterlimit:4;stroke-opacity:1;stroke-dasharray:none"
           id="path3226"
           inkscape:connector-curvature="0" /></g><g
         id="g3228"
         transform="translate(956.4668,312.7988)"><path
           d="M 0,0 C 16.486,-12.609 26,13.729 33.402,25.461 41.713,38.639 48.072,48.58 52.107,57.033 35.74,72.613 26.574,43.711 18.705,31.572 10.009,18.17 4.529,8.096 0,0 z"
           style="fill:none;stroke:#292929;stroke-width:0.5;stroke-linecap:round;stroke-linejoin:round;stroke-miterlimit:4;stroke-opacity:1;stroke-dasharray:none"
           id="path3230"
           inkscape:connector-curvature="0" /></g><g
         id="g3232"
         transform="translate(969.8281,382.0527)"><path
           d="m 0,0 c -15.886,-19.127 -27.979,-41.145 -40.083,-63.143 17.757,-11.203 26.134,16.286 33.402,27.498 8.765,13.514 16.955,23.586 18.704,31.571 C 10.42,-0.877 5.396,-0.307 0,0 z"
           style="fill:none;stroke:#292929;stroke-width:0.5;stroke-linecap:round;stroke-linejoin:round;stroke-miterlimit:4;stroke-opacity:1;stroke-dasharray:none"
           id="path3234"
           inkscape:connector-curvature="0" /></g><g
         id="g3236"
         transform="translate(903.0234,326.0391)"><path
           d="m 0,0 c 17.516,-14.127 25.813,15.988 33.401,27.498 9.22,13.971 17.691,22.568 20.042,32.59 C 49.25,61.096 42.554,64.027 38.747,62.125 25.6,41.592 13.002,20.643 0,0 z"
           style="fill:none;stroke:#292929;stroke-width:0.5;stroke-linecap:round;stroke-linejoin:round;stroke-miterlimit:4;stroke-opacity:1;stroke-dasharray:none"
           id="path3238"
           inkscape:connector-curvature="0" /></g><g
         id="g3240"
         transform="translate(877.6377,329.0938)"><path
           d="m 0,0 c 20.282,-5.816 24.41,15.877 30.73,26.48 7.523,12.608 19.213,24.502 22.713,36.663 -5.343,0 -8.016,2.037 -13.36,2.037 C 24.932,44.811 12.093,22.691 0,0 z"
           style="fill:none;stroke:#292929;stroke-width:0.5;stroke-linecap:round;stroke-linejoin:round;stroke-miterlimit:4;stroke-opacity:1;stroke-dasharray:none"
           id="path3242"
           inkscape:connector-curvature="0" /></g><g
         id="g3244"
         transform="translate(891,397.3301)"><path
           d="m 0,0 c -14.07,-20.85 -27.39,-42.266 -38.747,-65.18 18.999,-4.545 24.317,15.723 30.73,26.479 7.562,12.689 15.819,25.572 22.713,35.644 C 14.51,1.557 5.637,-0.461 0,0 z"
           style="fill:none;stroke:#292929;stroke-width:0.5;stroke-linecap:round;stroke-linejoin:round;stroke-miterlimit:4;stroke-opacity:1;stroke-dasharray:none"
           id="path3246"
           inkscape:connector-curvature="0" /></g><g
         id="g3248"
         transform="translate(865.6143,400.3853)"><path
           d="m 0,0 c -14.083,-20.838 -26.321,-43.081 -38.746,-65.18 18.878,-6.295 22.926,15.297 29.392,26.478 7.683,13.301 17.918,25.899 24.05,35.647 l 0,2.035 C 11.823,0.865 4.903,-0.337 0,0 z"
           style="fill:none;stroke:#292929;stroke-width:0.5;stroke-linecap:round;stroke-linejoin:round;stroke-miterlimit:4;stroke-opacity:1;stroke-dasharray:none"
           id="path3250"
           inkscape:connector-curvature="0" /></g><g
         id="g3252"
         transform="translate(1036.6318,288.3574)"><path
           d="m 0,0 c 16.795,-13.465 23.595,12.902 30.729,24.441 8.03,12.977 15.926,21.58 17.369,30.555 0.028,4.766 -8.858,2.748 -10.689,6.109 C 24.183,46.113 10.476,18.615 0,0 z"
           style="fill:none;stroke:#292929;stroke-width:0.5;stroke-linecap:round;stroke-linejoin:round;stroke-miterlimit:4;stroke-opacity:1;stroke-dasharray:none"
           id="path3254"
           inkscape:connector-curvature="0" /></g><g
         id="g3256"
         transform="translate(1009.9092,297.5234)"><path
           d="m 0,0 c 17.144,-13.566 25.2,12.934 32.066,24.441 7.748,12.965 15.726,21.541 17.37,30.553 0.026,4.768 -8.859,2.75 -10.689,6.111 C 22.554,43.23 13.12,20.205 0,0 z"
           style="fill:none;stroke:#292929;stroke-width:0.5;stroke-linecap:round;stroke-linejoin:round;stroke-miterlimit:4;stroke-opacity:1;stroke-dasharray:none"
           id="path3258"
           inkscape:connector-curvature="0" /></g><g
         id="g3260"
         transform="translate(717.9561,538.1089)" /><g
         id="g3264"
         transform="translate(1367.9795,127.1855)"><g
           id="g12495"><path
             d="m 0,0 c -26.175,1.271 -52.831,-11.586 -52.831,-33.707 0,-45.074 99.892,-44.723 99.957,0 C 47.182,-16.24 33.913,-1.625 0,0 z"
             style="fill:none;stroke:#292929;stroke-width:0.5;stroke-linecap:round;stroke-linejoin:round;stroke-miterlimit:4;stroke-opacity:1;stroke-dasharray:none"
             id="path3266"
             inkscape:connector-curvature="0" /><path
             style="stroke:#000000;stroke-width:1.000000;fill:none"
             d="M -51.146682,-43.112728 l 0.000000,18.474295 M -45.146682,-15.124934 l 0.000000,-37.559853 M -39.146682,-57.731372 l 0.000000,47.754196 M -33.146682,-6.453190 l 0.000000,-54.713332 M -27.146682,-63.565819 l 0.000000,59.654005 M -21.146682,-2.098596 l 0.000000,-63.221409 M -15.146682,-66.359603 l 0.000000,65.513736 M -9.146682,-0.143396 l 0.000000,-66.894372 M -3.146682,-67.366110 l 0.000000,67.413525 M 2.853318,-0.211922 l 0.000000,-66.835484 M 8.853318,-66.413120 l 0.000000,65.598252 M 14.853318,-1.805731 l 0.000000,-63.548576 M 20.853318,-63.679129 l 0.000000,60.406136 M 26.853318,-5.421638 l 0.000000,-55.893124 M 32.853318,-57.999568 l 0.000000,49.494840 M 38.853318,-13.195017 l 0.000000,-39.972452 M 44.853318,-44.556201 l 0.000000,22.490809"
             id="path12498" /></g></g><g
         id="g3268"
         transform="translate(1413.6758,314.6719)"><path
           d="m 0,0 c -8.447,-6.057 -18.209,-11.148 -24.275,-18.961 8.981,3.557 15.646,8.824 24.275,12.645 L 0,0 z"
           style="fill:none;stroke:#292929;stroke-width:0.5;stroke-linecap:round;stroke-linejoin:round;stroke-miterlimit:4;stroke-opacity:1;stroke-dasharray:none"
           id="path3270"
           inkscape:connector-curvature="0" /></g><g
         id="g3272"
         transform="translate(1477.9277,358.9121)"><g
           id="g10295"><path
             d="m 0,0 c -5.054,-4.215 -20.585,-8.426 -25.702,-14.748 -2.377,-2.984 -1.844,-14.44 -1.425,-14.744 6.009,-4.303 15.466,7.855 27.127,8.426 L 0,0 z"
             style="fill:none;stroke:#292929;stroke-width:0.5;stroke-linecap:round;stroke-linejoin:round;stroke-miterlimit:4;stroke-opacity:1;stroke-dasharray:none"
             id="path3274"
             inkscape:connector-curvature="0" /><path
             id="path10298"
             d="M -22.211340,-30.096534 l 0.000000,18.387752 M -16.211340,-8.312413 l 0.000000,-19.076676 M -10.211340,-24.227469 l 0.000000,18.842321 M -4.211340,-2.558310 l 0.000000,-19.200990"
             style="stroke:#000000;stroke-width:1.000000;fill:none" /></g></g><g
         id="g3276"
         transform="translate(1545.041,392.6152)"><g
           id="g10731"><path
             d="m 0,0 c -11.011,-2.063 -17.732,-7.281 -27.134,-10.531 l 0,-29.49 c 8.628,2.412 17.436,4.693 27.134,6.318 L 0,0 z"
             style="fill:none;stroke:#292929;stroke-width:0.5;stroke-linecap:round;stroke-linejoin:round;stroke-miterlimit:4;stroke-opacity:1;stroke-dasharray:none"
             id="path3278"
             inkscape:connector-curvature="0" /><path
             style="stroke:#000000;stroke-width:1.000000;fill:none"
             d="M -25.743096,-39.656087 l 0.000000,29.694685 M -19.743096,-7.457585 l 0.000000,-30.624361 M -13.743096,-36.520712 l 0.000000,31.878917 M -7.743096,-2.134121 l 0.000000,-33.156427 M -1.743096,-34.060382 l 0.000000,33.657290"
             id="path10734" /></g></g><g
         id="g3280"
         transform="translate(1603.8799,363.8994)"><g
           id="g11171"><path
             d="m 0,0 c -3.701,0 -15.16,-0.774 -18.86,-0.774 l 0,44.236 c 3.308,-0.298 14.94,0.596 18.859,0.746 3.919,-0.151 7.793,-0.269 11.102,0.03 L 11.101,0 0,0 z"
             style="fill:none;stroke:#292929;stroke-width:0.5;stroke-linecap:round;stroke-linejoin:round;stroke-miterlimit:4;stroke-opacity:1;stroke-dasharray:none"
             id="path3282"
             inkscape:connector-curvature="0" /><path
             id="path11174"
             d="M -12.915317,-0.530035 l 0.000000,44.124492 M -6.915317,43.820714 l 0.000000,-44.104514 M -0.915317,-0.037564 l 0.000000,44.194351 M 5.084683,44.072713 l 0.000000,-44.072713 M 11.084683,0.000000 l 0.000000,44.237437"
             style="stroke:#000000;stroke-width:1.000000;fill:none" /></g></g><g
         id="g3284"
         transform="translate(1160.2207,453.7095)" /><g
         id="g3288"
         transform="translate(962.3916,527.0781)" /><g
         id="g3292"
         transform="translate(1120.9302,138.8115)" /><g
         id="g3296"
         transform="translate(1603.8799,351.8438)" /><g
         id="g3300"
         transform="translate(822.5371,234.2891)" /><g
         id="g3304"
         transform="translate(718.9326,527.9907)" /><g
         id="g3308"
         transform="translate(758.4141,519.6392)" /><g
         id="g3314"
         transform="translate(928.5352,617.9907)"><path
           d="M 0,0 -928.535,0"
           style="fill:none;stroke:#292929;stroke-width:0.5;stroke-linecap:round;stroke-linejoin:round;stroke-miterlimit:4;stroke-opacity:1;stroke-dasharray:none"
           id="path3316"
           inkscape:connector-curvature="0" /></g><g
         id="g3318"
         transform="translate(2256.0176,675)"><g
           id="g8210"><path
             d="m 0,0 -1312.035,0 0,-0.775 -15.447,-56.234 1342.916,0 0.013,0.774 L 0,0"
             style="fill:none;stroke:#292929;stroke-width:0.5;stroke-linecap:round;stroke-linejoin:round;stroke-miterlimit:4;stroke-opacity:1;stroke-dasharray:none"
             id="path3320"
             inkscape:connector-curvature="0" /><path
             style="stroke:#000000;stroke-width:1.000000;fill:none"
             d="M -1322.086753,-57.009000 l 0.000000,19.641115 M -1316.086753,-15.525197 l 0.000000,-41.483803 M -1310.086753,-57.009000 l 0.000000,57.009000 M -1304.086753,0.000000 l 0.000000,-57.009000 M -1298.086753,-57.009000 l 0.000000,57.009000 M -1292.086753,0.000000 l 0.000000,-57.009000 M -1286.086753,-57.009000 l 0.000000,57.009000 M -1280.086753,0.000000 l 0.000000,-57.009000 M -1274.086753,-57.009000 l 0.000000,57.009000 M -1268.086753,0.000000 l 0.000000,-57.009000 M -1262.086753,-57.009000 l 0.000000,57.009000 M -1256.086753,0.000000 l 0.000000,-57.009000 M -1250.086753,-57.009000 l 0.000000,57.009000 M -1244.086753,0.000000 l 0.000000,-57.009000 M -1238.086753,-57.009000 l 0.000000,57.009000 M -1232.086753,0.000000 l 0.000000,-57.009000 M -1226.086753,-57.009000 l 0.000000,57.009000 M -1220.086753,0.000000 l 0.000000,-57.009000 M -1214.086753,-57.009000 l 0.000000,57.009000 M -1208.086753,0.000000 l 0.000000,-57.009000 M -1202.086753,-57.009000 l 0.000000,57.009000 M -1196.086753,0.000000 l 0.000000,-57.009000 M -1190.086753,-57.009000 l 0.000000,57.009000 M -1184.086753,0.000000 l 0.000000,-57.009000 M -1178.086753,-57.009000 l 0.000000,57.009000 M -1172.086753,0.000000 l 0.000000,-57.009000 M -1166.086753,-57.009000 l 0.000000,57.009000 M -1160.086753,0.000000 l 0.000000,-57.009000 M -1154.086753,-57.009000 l 0.000000,57.009000 M -1148.086753,0.000000 l 0.000000,-57.009000 M -1142.086753,-57.009000 l 0.000000,57.009000 M -1136.086753,0.000000 l 0.000000,-57.009000 M -1130.086753,-57.009000 l 0.000000,57.009000 M -1124.086753,0.000000 l 0.000000,-57.009000 M -1118.086753,-57.009000 l 0.000000,57.009000 M -1112.086753,0.000000 l 0.000000,-57.009000 M -1106.086753,-57.009000 l 0.000000,57.009000 M -1100.086753,0.000000 l 0.000000,-57.009000 M -1094.086753,-57.009000 l 0.000000,57.009000 M -1088.086753,0.000000 l 0.000000,-57.009000 M -1082.086753,-57.009000 l 0.000000,57.009000 M -1076.086753,0.000000 l 0.000000,-57.009000 M -1070.086753,-57.009000 l 0.000000,57.009000 M -1064.086753,0.000000 l 0.000000,-57.009000 M -1058.086753,-57.009000 l 0.000000,57.009000 M -1052.086753,0.000000 l 0.000000,-57.009000 M -1046.086753,-57.009000 l 0.000000,57.009000 M -1040.086753,0.000000 l 0.000000,-57.009000 M -1034.086753,-57.009000 l 0.000000,57.009000 M -1028.086753,0.000000 l 0.000000,-57.009000 M -1022.086753,-57.009000 l 0.000000,57.009000 M -1016.086753,0.000000 l 0.000000,-57.009000 M -1010.086753,-57.009000 l 0.000000,57.009000 M -1004.086753,0.000000 l 0.000000,-57.009000 M -998.086753,-57.009000 l 0.000000,57.009000 M -992.086753,0.000000 l 0.000000,-57.009000 M -986.086753,-57.009000 l 0.000000,57.009000 M -980.086753,0.000000 l 0.000000,-57.009000 M -974.086753,-57.009000 l 0.000000,57.009000 M -968.086753,0.000000 l 0.000000,-57.009000 M -962.086753,-57.009000 l 0.000000,57.009000 M -956.086753,0.000000 l 0.000000,-57.009000 M -950.086753,-57.009000 l 0.000000,57.009000 M -944.086753,0.000000 l 0.000000,-57.009000 M -938.086753,-57.009000 l 0.000000,57.009000 M -932.086753,0.000000 l 0.000000,-57.009000 M -926.086753,-57.009000 l 0.000000,57.009000 M -920.086753,0.000000 l 0.000000,-57.009000 M -914.086753,-57.009000 l 0.000000,57.009000 M -908.086753,0.000000 l 0.000000,-57.009000 M -902.086753,-57.009000 l 0.000000,57.009000 M -896.086753,0.000000 l 0.000000,-57.009000 M -890.086753,-57.009000 l 0.000000,57.009000 M -884.086753,0.000000 l 0.000000,-57.009000 M -878.086753,-57.009000 l 0.000000,57.009000 M -872.086753,0.000000 l 0.000000,-57.009000 M -866.086753,-57.009000 l 0.000000,57.009000 M -860.086753,0.000000 l 0.000000,-57.009000 M -854.086753,-57.009000 l 0.000000,57.009000 M -848.086753,0.000000 l 0.000000,-57.009000 M -842.086753,-57.009000 l 0.000000,57.009000 M -836.086753,0.000000 l 0.000000,-57.009000 M -830.086753,-57.009000 l 0.000000,57.009000 M -824.086753,0.000000 l 0.000000,-57.009000 M -818.086753,-57.009000 l 0.000000,57.009000 M -812.086753,0.000000 l 0.000000,-57.009000 M -806.086753,-57.009000 l 0.000000,57.009000 M -800.086753,0.000000 l 0.000000,-57.009000 M -794.086753,-57.009000 l 0.000000,57.009000 M -788.086753,0.000000 l 0.000000,-57.009000 M -782.086753,-57.009000 l 0.000000,57.009000 M -776.086753,0.000000 l 0.000000,-57.009000 M -770.086753,-57.009000 l 0.000000,57.009000 M -764.086753,0.000000 l 0.000000,-57.009000 M -758.086753,-57.009000 l 0.000000,57.009000 M -752.086753,0.000000 l 0.000000,-57.009000 M -746.086753,-57.009000 l 0.000000,57.009000 M -740.086753,0.000000 l 0.000000,-57.009000 M -734.086753,-57.009000 l 0.000000,57.009000 M -728.086753,0.000000 l 0.000000,-57.009000 M -722.086753,-57.009000 l 0.000000,57.009000 M -716.086753,0.000000 l 0.000000,-57.009000 M -710.086753,-57.009000 l 0.000000,57.009000 M -704.086753,0.000000 l 0.000000,-57.009000 M -698.086753,-57.009000 l 0.000000,57.009000 M -692.086753,0.000000 l 0.000000,-57.009000 M -686.086753,-57.009000 l 0.000000,57.009000 M -680.086753,0.000000 l 0.000000,-57.009000 M -674.086753,-57.009000 l 0.000000,57.009000 M -668.086753,0.000000 l 0.000000,-57.009000 M -662.086753,-57.009000 l 0.000000,57.009000 M -656.086753,0.000000 l 0.000000,-57.009000 M -650.086753,-57.009000 l 0.000000,57.009000 M -644.086753,0.000000 l 0.000000,-57.009000 M -638.086753,-57.009000 l 0.000000,57.009000 M -632.086753,0.000000 l 0.000000,-57.009000 M -626.086753,-57.009000 l 0.000000,57.009000 M -620.086753,0.000000 l 0.000000,-57.009000 M -614.086753,-57.009000 l 0.000000,57.009000 M -608.086753,0.000000 l 0.000000,-57.009000 M -602.086753,-57.009000 l 0.000000,57.009000 M -596.086753,0.000000 l 0.000000,-57.009000 M -590.086753,-57.009000 l 0.000000,57.009000 M -584.086753,0.000000 l 0.000000,-57.009000 M -578.086753,-57.009000 l 0.000000,57.009000 M -572.086753,0.000000 l 0.000000,-57.009000 M -566.086753,-57.009000 l 0.000000,57.009000 M -560.086753,0.000000 l 0.000000,-57.009000 M -554.086753,-57.009000 l 0.000000,57.009000 M -548.086753,0.000000 l 0.000000,-57.009000 M -542.086753,-57.009000 l 0.000000,57.009000 M -536.086753,0.000000 l 0.000000,-57.009000 M -530.086753,-57.009000 l 0.000000,57.009000 M -524.086753,0.000000 l 0.000000,-57.009000 M -518.086753,-57.009000 l 0.000000,57.009000 M -512.086753,0.000000 l 0.000000,-57.009000 M -506.086753,-57.009000 l 0.000000,57.009000 M -500.086753,0.000000 l 0.000000,-57.009000 M -494.086753,-57.009000 l 0.000000,57.009000 M -488.086753,0.000000 l 0.000000,-57.009000 M -482.086753,-57.009000 l 0.000000,57.009000 M -476.086753,0.000000 l 0.000000,-57.009000 M -470.086753,-57.009000 l 0.000000,57.009000 M -464.086753,0.000000 l 0.000000,-57.009000 M -458.086753,-57.009000 l 0.000000,57.009000 M -452.086753,0.000000 l 0.000000,-57.009000 M -446.086753,-57.009000 l 0.000000,57.009000 M -440.086753,0.000000 l 0.000000,-57.009000 M -434.086753,-57.009000 l 0.000000,57.009000 M -428.086753,0.000000 l 0.000000,-57.009000 M -422.086753,-57.009000 l 0.000000,57.009000 M -416.086753,0.000000 l 0.000000,-57.009000 M -410.086753,-57.009000 l 0.000000,57.009000 M -404.086753,0.000000 l 0.000000,-57.009000 M -398.086753,-57.009000 l 0.000000,57.009000 M -392.086753,0.000000 l 0.000000,-57.009000 M -386.086753,-57.009000 l 0.000000,57.009000 M -380.086753,0.000000 l 0.000000,-57.009000 M -374.086753,-57.009000 l 0.000000,57.009000 M -368.086753,0.000000 l 0.000000,-57.009000 M -362.086753,-57.009000 l 0.000000,57.009000 M -356.086753,0.000000 l 0.000000,-57.009000 M -350.086753,-57.009000 l 0.000000,57.009000 M -344.086753,0.000000 l 0.000000,-57.009000 M -338.086753,-57.009000 l 0.000000,57.009000 M -332.086753,0.000000 l 0.000000,-57.009000 M -326.086753,-57.009000 l 0.000000,57.009000 M -320.086753,0.000000 l 0.000000,-57.009000 M -314.086753,-57.009000 l 0.000000,57.009000 M -308.086753,0.000000 l 0.000000,-57.009000 M -302.086753,-57.009000 l 0.000000,57.009000 M -296.086753,0.000000 l 0.000000,-57.009000 M -290.086753,-57.009000 l 0.000000,57.009000 M -284.086753,0.000000 l 0.000000,-57.009000 M -278.086753,-57.009000 l 0.000000,57.009000 M -272.086753,0.000000 l 0.000000,-57.009000 M -266.086753,-57.009000 l 0.000000,57.009000 M -260.086753,0.000000 l 0.000000,-57.009000 M -254.086753,-57.009000 l 0.000000,57.009000 M -248.086753,0.000000 l 0.000000,-57.009000 M -242.086753,-57.009000 l 0.000000,57.009000 M -236.086753,0.000000 l 0.000000,-57.009000 M -230.086753,-57.009000 l 0.000000,57.009000 M -224.086753,0.000000 l 0.000000,-57.009000 M -218.086753,-57.009000 l 0.000000,57.009000 M -212.086753,0.000000 l 0.000000,-57.009000 M -206.086753,-57.009000 l 0.000000,57.009000 M -200.086753,0.000000 l 0.000000,-57.009000 M -194.086753,-57.009000 l 0.000000,57.009000 M -188.086753,0.000000 l 0.000000,-57.009000 M -182.086753,-57.009000 l 0.000000,57.009000 M -176.086753,0.000000 l 0.000000,-57.009000 M -170.086753,-57.009000 l 0.000000,57.009000 M -164.086753,0.000000 l 0.000000,-57.009000 M -158.086753,-57.009000 l 0.000000,57.009000 M -152.086753,0.000000 l 0.000000,-57.009000 M -146.086753,-57.009000 l 0.000000,57.009000 M -140.086753,0.000000 l 0.000000,-57.009000 M -134.086753,-57.009000 l 0.000000,57.009000 M -128.086753,0.000000 l 0.000000,-57.009000 M -122.086753,-57.009000 l 0.000000,57.009000 M -116.086753,0.000000 l 0.000000,-57.009000 M -110.086753,-57.009000 l 0.000000,57.009000 M -104.086753,0.000000 l 0.000000,-57.009000 M -98.086753,-57.009000 l 0.000000,57.009000 M -92.086753,0.000000 l 0.000000,-57.009000 M -86.086753,-57.009000 l 0.000000,57.009000 M -80.086753,0.000000 l 0.000000,-57.009000 M -74.086753,-57.009000 l 0.000000,57.009000 M -68.086753,0.000000 l 0.000000,-57.009000 M -62.086753,-57.009000 l 0.000000,57.009000 M -56.086753,0.000000 l 0.000000,-57.009000 M -50.086753,-57.009000 l 0.000000,57.009000 M -44.086753,0.000000 l 0.000000,-57.009000 M -38.086753,-57.009000 l 0.000000,57.009000 M -32.086753,0.000000 l 0.000000,-57.009000 M -26.086753,-57.009000 l 0.000000,57.009000 M -20.086753,0.000000 l 0.000000,-57.009000 M -14.086753,-57.009000 l 0.000000,57.009000 M -8.086753,0.000000 l 0.000000,-57.009000 M -2.086753,-57.009000 l 0.000000,57.009000 M 3.913247,-14.246224 l 0.000000,-42.762776 M 9.913247,-57.009000 l 0.000000,20.919699"
             id="path8213" /></g></g><g
         id="g3322"
         transform="translate(3200,617.9907)"><path
           d="M 0,0 -928.535,0"
           style="fill:none;stroke:#292929;stroke-width:0.5;stroke-linecap:round;stroke-linejoin:round;stroke-miterlimit:4;stroke-opacity:1;stroke-dasharray:none"
           id="path3324"
           inkscape:connector-curvature="0" /></g><g
         id="g3326"
         transform="translate(1714.9316,42.6396)"><g
           id="g12980"><path
             d="m 0,0 -114.832,0 -0.199,-0.774 -114.832,0 0,83.211 31.416,0 0,32.654 35.696,0 0,48.451 c 6.181,2.457 18.558,0.354 27.127,1.055 l 0,15.799 c 5.604,0 18.968,0.774 24.572,0.774 l 16.813,0 0,-15.798 c 8.569,-0.701 20.946,1.402 27.127,-1.055 l 0,-48.451 35.696,0 0,-32.655 L 0,83.211 0,0 z"
             style="fill:none;stroke:#292929;stroke-width:0.5;stroke-linecap:round;stroke-linejoin:round;stroke-miterlimit:4;stroke-opacity:1;stroke-dasharray:none"
             id="path3328"
             inkscape:connector-curvature="0" /><path
             id="path12983"
             d="M -225.509651,-0.774000 l 0.000000,83.211000 M -219.509651,82.437000 l 0.000000,-83.211000 M -213.509651,-0.774000 l 0.000000,83.211000 M -207.509651,82.437000 l 0.000000,-83.211000 M -201.509651,-0.774000 l 0.000000,83.211000 M -195.509651,115.091000 l 0.000000,-115.865000 M -189.509651,-0.774000 l 0.000000,115.865000 M -183.509651,115.091000 l 0.000000,-115.865000 M -177.509651,-0.774000 l 0.000000,115.865000 M -171.509651,115.091000 l 0.000000,-115.865000 M -165.509651,-0.774000 l 0.000000,115.865000 M -159.509651,164.345420 l 0.000000,-165.119420 M -153.509651,-0.774000 l 0.000000,165.461433 M -147.509651,164.643285 l 0.000000,-165.417285 M -141.509651,-0.774000 l 0.000000,165.274039 M -135.509651,180.399602 l 0.000000,-181.173602 M -129.509651,-0.774000 l 0.000000,181.362598 M -123.509651,180.777593 l 0.000000,-181.551593 M -117.509651,-0.774000 l 0.000000,181.740589 M -111.509651,181.155584 l 0.000000,-181.155584 M -105.509651,0.000000 l 0.000000,181.170000 M -99.509651,181.170000 l 0.000000,-181.170000 M -93.509651,0.000000 l 0.000000,165.359985 M -87.509651,165.261140 l 0.000000,-165.261140 M -81.509651,0.000000 l 0.000000,165.446060 M -75.509651,165.452445 l 0.000000,-165.452445 M -69.509651,0.000000 l 0.000000,164.985704 M -63.509651,115.866000 l 0.000000,-115.866000 M -57.509651,0.000000 l 0.000000,115.866000 M -51.509651,115.866000 l 0.000000,-115.866000 M -45.509651,0.000000 l 0.000000,115.866000 M -39.509651,115.866000 l 0.000000,-115.866000 M -33.509651,0.000000 l 0.000000,115.866000 M -27.509651,83.211000 l 0.000000,-83.211000 M -21.509651,0.000000 l 0.000000,83.211000 M -15.509651,83.211000 l 0.000000,-83.211000 M -9.509651,0.000000 l 0.000000,83.211000 M -3.509651,83.211000 l 0.000000,-83.211000"
             style="stroke:#000000;stroke-width:1.000000;fill:none" /></g></g><g
         id="g3330"
         transform="translate(984.5342,684.2251)" /><g
         id="g3334"
         transform="translate(214.2676,790.2251)" /><g
         id="g3338"
         transform="translate(203,752.2251)"><path
           d="M 0,0 0,-68"
           style="fill:none;stroke:#292929;stroke-width:0.5;stroke-linecap:round;stroke-linejoin:round;stroke-miterlimit:4;stroke-opacity:1;stroke-dasharray:none"
           id="path3340"
           inkscape:connector-curvature="0" /></g><g
         id="g3342"
         transform="translate(184.3477,752.2251)"><path
           d="M 0,0 0,-68"
           style="fill:none;stroke:#292929;stroke-width:0.5;stroke-linecap:round;stroke-linejoin:round;stroke-miterlimit:4;stroke-opacity:1;stroke-dasharray:none"
           id="path3344"
           inkscape:connector-curvature="0" /></g><g
         id="g3346"
         transform="translate(165,752.2251)"><path
           d="M 0,0 0,-68"
           style="fill:none;stroke:#292929;stroke-width:0.5;stroke-linecap:round;stroke-linejoin:round;stroke-miterlimit:4;stroke-opacity:1;stroke-dasharray:none"
           id="path3348"
           inkscape:connector-curvature="0" /></g><g
         id="g3350"
         transform="translate(1180.9307,596.9585)"><g
           id="g8638"><path
             d="m 0,0 c -28.037,-20.507 -21.239,-52.409 1.176,-78.887 15.891,-18.77 37.877,-27.216 62.137,-28.55 29.747,-1.625 61.583,6.625 86.839,13.692 50.946,14.221 89.378,31.03 133.736,51.613 8.966,4.168 77.935,34.276 36.472,42.132 L 0,0 z"
             style="fill:none;stroke:#292929;stroke-width:0.5;stroke-linecap:round;stroke-linejoin:round;stroke-miterlimit:4;stroke-opacity:1;stroke-dasharray:none"
             id="path3352"
             inkscape:connector-curvature="0" /><path
             id="path8641"
             d="M -14.447002,-53.522137 l 0.000000,36.896688 M -8.447002,-7.702290 l 0.000000,-57.801100 M -2.447002,-74.353559 l 0.000000,72.349691 M 3.552998,0.000000 l 0.000000,-81.387365 M 9.552998,-87.229275 l 0.000000,87.229275 M 15.552998,0.000000 l 0.000000,-91.978505 M 21.552998,-95.882799 l 0.000000,95.882799 M 27.552998,0.000000 l 0.000000,-98.915477 M 33.552998,-101.388885 l 0.000000,101.388885 M 39.552998,0.000000 l 0.000000,-103.410269 M 45.552998,-105.038947 l 0.000000,105.038947 M 51.552998,0.000000 l 0.000000,-106.105689 M 57.552998,-106.898474 l 0.000000,106.898474 M 63.552998,0.000000 l 0.000000,-107.440590 M 69.552998,-107.530345 l 0.000000,107.530345 M 75.552998,0.000000 l 0.000000,-107.549431 M 81.552998,-107.216813 l 0.000000,107.216813 M 87.552998,0.000000 l 0.000000,-106.785612 M 93.552998,-106.099547 l 0.000000,106.099547 M 99.552998,0.000000 l 0.000000,-105.298312 M 105.552998,-104.318253 l 0.000000,104.318253 M 111.552998,0.000000 l 0.000000,-103.212262 M 117.552998,-101.991287 l 0.000000,101.991287 M 123.552998,0.000000 l 0.000000,-100.638360 M 129.552998,-99.225814 l 0.000000,99.225814 M 135.552998,0.000000 l 0.000000,-97.641857 M 141.552998,-96.040299 l 0.000000,96.040299 M 147.552998,0.000000 l 0.000000,-94.438742 M 153.552998,-92.744818 l 0.000000,92.744818 M 159.552998,0.000000 l 0.000000,-90.980307 M 165.552998,-89.215797 l 0.000000,89.215797 M 171.552998,0.000000 l 0.000000,-87.364252 M 177.552998,-85.416306 l 0.000000,85.416306 M 183.552998,0.000000 l 0.000000,-83.468359 M 189.552998,-81.421897 l 0.000000,81.421897 M 195.552998,0.000000 l 0.000000,-79.292060 M 201.552998,-77.162223 l 0.000000,77.162223 M 207.552998,0.000000 l 0.000000,-74.905765 M 213.552998,-72.603015 l 0.000000,72.603015 M 219.552998,0.000000 l 0.000000,-70.298638 M 225.552998,-67.839829 l 0.000000,67.839829 M 231.552998,0.000000 l 0.000000,-65.381019 M 237.552998,-62.877370 l 0.000000,62.877370 M 243.552998,0.000000 l 0.000000,-60.286688 M 249.552998,-57.696006 l 0.000000,57.696006 M 255.552998,0.000000 l 0.000000,-55.011723 M 261.552998,-52.284413 l 0.000000,52.284413 M 267.552998,0.000000 l 0.000000,-49.557103 M 273.552998,-46.829793 l 0.000000,46.829793 M 279.552998,0.000000 l 0.000000,-44.102483 M 285.552998,-41.345090 l 0.000000,41.345090 M 291.552998,0.000000 l 0.000000,-38.509376 M 297.552998,-35.673662 l 0.000000,35.673662 M 303.552998,0.000000 l 0.000000,-32.599568 M 309.552998,-29.435279 l 0.000000,29.435279 M 315.552998,0.000000 l 0.000000,-25.815472 M 321.552998,-22.066933 l 0.000000,21.751936 M 327.552998,-2.015189 l 0.000000,-15.326287"
             style="stroke:#000000;stroke-width:1.000000;fill:none" /></g></g><g
         id="g3354"
         transform="translate(1717.6738,60.5801)" /><g
         id="g3358"
         transform="translate(2543.2646,245.3105)" /><g
         id="g9480"><path
           d="m 770.636,507.417 33.978,0 0,73.327 -33.978,0 0,-73.327 z"
           style="fill:none;stroke:#292929;stroke-width:0.5;stroke-linecap:round;stroke-linejoin:round;stroke-miterlimit:4;stroke-opacity:1;stroke-dasharray:none"
           id="path3312"
           inkscape:connector-curvature="0" /><path
           id="path9483"
           d="M 771.216605,507.417000 l 0.000000,73.327000 M 777.216605,580.744000 l 0.000000,-73.327000 M 783.216605,507.417000 l 0.000000,73.327000 M 789.216605,580.744000 l 0.000000,-73.327000 M 795.216605,507.417000 l 0.000000,73.327000 M 801.216605,580.744000 l 0.000000,-73.327000"
           style="stroke:#000000;stroke-width:1.000000;fill:none" /></g><g
         id="g9906"><path
           d="m 2429.364,508.192 -33.978,0 0,73.328 33.978,0 0,-73.328 z"
           style="fill:none;stroke:#292929;stroke-width:0.5;stroke-linecap:round;stroke-linejoin:round;stroke-miterlimit:4;stroke-opacity:1;stroke-dasharray:none"
           id="path3150"
           inkscape:connector-curvature="0" /><path
           style="stroke:#000000;stroke-width:1.000000;fill:none"
           d="M 2395.966152,508.192000 l 0.000000,73.328000 M 2401.966152,581.520000 l 0.000000,-73.328000 M 2407.966152,508.192000 l 0.000000,73.328000 M 2413.966152,581.520000 l 0.000000,-73.328000 M 2419.966152,508.192000 l 0.000000,73.328000 M 2425.966152,581.520000 l 0.000000,-73.328000"
           id="path9909" /></g></g></g><eggbot
     id="eggbot13921"
     totaldeltay="0"
     totaldeltax="0"
     lastpathnc="0"
     lastpath="0"
     node="0"
     layer="0"
     serialport="/dev/cu.usbmodem621" /></svg>