<?xml version="1.0" encoding="UTF-8" standalone="no"?>
<!-- Generator: Adobe Illustrator 15.1.0, SVG Export Plug-In . SVG Version: 6.00 Build 0)  -->

<svg
   xmlns:dc="http://purl.org/dc/elements/1.1/"
   xmlns:cc="http://creativecommons.org/ns#"
   xmlns:rdf="http://www.w3.org/1999/02/22-rdf-syntax-ns#"
   xmlns:svg="http://www.w3.org/2000/svg"
   xmlns="http://www.w3.org/2000/svg"
   xmlns:sodipodi="http://sodipodi.sourceforge.net/DTD/sodipodi-0.dtd"
   xmlns:inkscape="http://www.inkscape.org/namespaces/inkscape"
   version="1.1"
   id="Layer_1"
   x="0px"
   y="0px"
   width="3200px"
   height="800px"
   viewBox="0 0 3200 800"
   enable-background="new 0 0 3200 800"
   xml:space="preserve"
   inkscape:version="0.91 r13725"
   sodipodi:docname="Hexagons.svg"><sodipodi:namedview
     pagecolor="#ffffff"
     bordercolor="#666666"
     borderopacity="1"
     objecttolerance="10"
     gridtolerance="10"
     guidetolerance="10"
     inkscape:pageopacity="0"
     inkscape:pageshadow="2"
     inkscape:window-width="1920"
     inkscape:window-height="1053"
     id="namedview10760"
     showgrid="false"
     inkscape:zoom="0.8475"
     inkscape:cx="3007.5985"
     inkscape:cy="400"
     inkscape:window-x="-9"
     inkscape:window-y="-9"
     inkscape:window-maximized="1"
     inkscape:current-layer="Layer_1" /><metadata
     id="metadata10764"><rdf:RDF><cc:Work
         rdf:about=""><dc:format>image/svg+xml</dc:format><dc:type
           rdf:resource="http://purl.org/dc/dcmitype/StillImage" /></cc:Work></rdf:RDF></metadata><defs
     id="defs10762" /><g
     id="g11436"
     transform="matrix(1.0060684,0,0,1.0060684,-0.00468691,1.7294893)"><polygon
       transform="matrix(1.0456981,0,0,1.0456981,1.2951926,57.937275)"
       id="polygon10598"
       points="180.013,655.266 80.014,597.531 80.014,482.061 180.013,424.326 280.014,482.061 280.014,597.531 "
       stroke-miterlimit="10"
       style="fill:none;stroke:#000000;stroke-miterlimit:10" /><polygon
       transform="matrix(1.0456981,0,0,1.0456981,1.2951926,57.937275)"
       id="polygon10600"
       points="340.013,655.266 240.014,597.531 240.014,482.061 340.013,424.326 440.014,482.061 440.014,597.531 "
       stroke-miterlimit="10"
       style="fill:none;stroke:#000000;stroke-miterlimit:10" /><polygon
       transform="matrix(1.0456981,0,0,1.0456981,1.2951926,57.937275)"
       id="polygon10602"
       points="500.013,655.266 400.014,597.531 400.014,482.061 500.013,424.326 600.014,482.061 600.014,597.531 "
       stroke-miterlimit="10"
       style="fill:none;stroke:#000000;stroke-miterlimit:10" /><polygon
       transform="matrix(1.0456981,0,0,1.0456981,1.2951926,57.937275)"
       id="polygon10604"
       points="660.014,655.266 560.014,597.531 560.014,482.061 660.014,424.326 760.014,482.061 760.014,597.531 "
       stroke-miterlimit="10"
       style="fill:none;stroke:#000000;stroke-miterlimit:10" /><polygon
       transform="matrix(1.0456981,0,0,1.0456981,1.2951926,57.937275)"
       id="polygon10606"
       points="820.013,655.266 720.014,597.531 720.014,482.061 820.013,424.326 920.014,482.061 920.014,597.531 "
       stroke-miterlimit="10"
       style="fill:none;stroke:#000000;stroke-miterlimit:10" /><polygon
       transform="matrix(1.0456981,0,0,1.0456981,1.2951926,57.937275)"
       id="polygon10608"
       points="980.013,655.266 880.014,597.531 880.014,482.061 980.013,424.326 1080.014,482.061 1080.014,597.531 "
       stroke-miterlimit="10"
       style="fill:none;stroke:#000000;stroke-miterlimit:10" /><polygon
       transform="matrix(1.0456981,0,0,1.0456981,1.2951926,57.937275)"
       id="polygon10610"
       points="1140.014,655.266 1040.014,597.531 1040.014,482.061 1140.014,424.326 1240.014,482.061 1240.014,597.531 "
       stroke-miterlimit="10"
       style="fill:none;stroke:#000000;stroke-miterlimit:10" /><polygon
       transform="matrix(1.0456981,0,0,1.0456981,1.2951926,57.937275)"
       id="polygon10612"
       points="1300.014,655.266 1200.014,597.531 1200.014,482.061 1300.014,424.326 1400.014,482.061 1400.014,597.531 "
       stroke-miterlimit="10"
       style="fill:none;stroke:#000000;stroke-miterlimit:10" /><polygon
       transform="matrix(1.0456981,0,0,1.0456981,1.2951926,57.937275)"
       id="polygon10614"
       points="1460.013,655.266 1360.014,597.531 1360.014,482.061 1460.013,424.326 1560.014,482.061 1560.014,597.531 "
       stroke-miterlimit="10"
       style="fill:none;stroke:#000000;stroke-miterlimit:10" /><polygon
       transform="matrix(1.0456981,0,0,1.0456981,1.2951926,57.937275)"
       id="polygon10616"
       points="1620.014,655.266 1520.014,597.531 1520.014,482.061 1620.014,424.326 1720.014,482.061 1720.014,597.531 "
       stroke-miterlimit="10"
       style="fill:none;stroke:#000000;stroke-miterlimit:10" /><polygon
       transform="matrix(1.0456981,0,0,1.0456981,1.2951926,57.937275)"
       id="polygon10618"
       points="1780.014,655.266 1680.014,597.531 1680.014,482.061 1780.014,424.326 1880.014,482.061 1880.014,597.531 "
       stroke-miterlimit="10"
       style="fill:none;stroke:#000000;stroke-miterlimit:10" /><polygon
       transform="matrix(1.0456981,0,0,1.0456981,1.2951926,57.937275)"
       id="polygon10620"
       points="1940.014,655.266 1840.014,597.531 1840.014,482.061 1940.014,424.326 2040.014,482.061 2040.014,597.531 "
       stroke-miterlimit="10"
       style="fill:none;stroke:#000000;stroke-miterlimit:10" /><polygon
       transform="matrix(1.0456981,0,0,1.0456981,1.2951926,57.937275)"
       id="polygon10622"
       points="2100.014,655.266 2000.014,597.531 2000.014,482.061 2100.014,424.326 2200.014,482.061 2200.014,597.531 "
       stroke-miterlimit="10"
       style="fill:none;stroke:#000000;stroke-miterlimit:10" /><polygon
       transform="matrix(1.0456981,0,0,1.0456981,1.2951926,57.937275)"
       id="polygon10624"
       points="2260.014,655.266 2160.014,597.531 2160.014,482.061 2260.014,424.326 2360.014,482.061 2360.014,597.531 "
       stroke-miterlimit="10"
       style="fill:none;stroke:#000000;stroke-miterlimit:10" /><polygon
       transform="matrix(1.0456981,0,0,1.0456981,1.2951926,57.937275)"
       id="polygon10626"
       points="2420.014,655.266 2320.014,597.531 2320.014,482.061 2420.014,424.326 2520.014,482.061 2520.014,597.531 "
       stroke-miterlimit="10"
       style="fill:none;stroke:#000000;stroke-miterlimit:10" /><polygon
       transform="matrix(1.0456981,0,0,1.0456981,1.2951926,57.937275)"
       id="polygon10628"
       points="2580.014,655.266 2480.014,597.531 2480.014,482.061 2580.014,424.326 2680.014,482.061 2680.014,597.531 "
       stroke-miterlimit="10"
       style="fill:none;stroke:#000000;stroke-miterlimit:10" /><polygon
       transform="matrix(1.0456981,0,0,1.0456981,1.2951926,57.937275)"
       id="polygon10630"
       points="2740.014,655.266 2640.014,597.531 2640.014,482.061 2740.014,424.326 2840.014,482.061 2840.014,597.531 "
       stroke-miterlimit="10"
       style="fill:none;stroke:#000000;stroke-miterlimit:10" /><polygon
       transform="matrix(1.0456981,0,0,1.0456981,1.2951926,57.937275)"
       id="polygon10632"
       points="2900.014,655.266 2800.014,597.531 2800.014,482.061 2900.014,424.326 3000.014,482.061 3000.014,597.531 "
       stroke-miterlimit="10"
       style="fill:none;stroke:#000000;stroke-miterlimit:10" /><polygon
       transform="matrix(1.0456981,0,0,1.0456981,1.2951926,57.937275)"
       id="polygon10634"
       points="3060.014,655.266 2960.014,597.531 2960.014,482.061 3060.014,424.326 3160.014,482.061 3160.014,597.531 "
       stroke-miterlimit="10"
       style="fill:none;stroke:#000000;stroke-miterlimit:10" /><polygon
       style="fill:none;stroke:#000000;stroke-miterlimit:10"
       transform="matrix(1.0456981,0,0,1.0456981,1.2951926,57.937275)"
       stroke-miterlimit="10"
       points="200,337.619 200,453.09 100,510.824 0,453.09 0,337.619 100,279.884 "
       id="polygon10638" /><polygon
       style="fill:none;stroke:#000000;stroke-miterlimit:10"
       transform="matrix(1.0456981,0,0,1.0456981,1.2951926,57.937275)"
       stroke-miterlimit="10"
       points="360,337.619 360,453.09 260,510.824 160,453.09 160,337.619 260,279.884 "
       id="polygon10640" /><polygon
       style="fill:none;stroke:#000000;stroke-miterlimit:10"
       transform="matrix(1.0456981,0,0,1.0456981,1.2951926,57.937275)"
       stroke-miterlimit="10"
       points="520,337.619 520,453.09 420,510.824 320,453.09 320,337.619 420,279.884 "
       id="polygon10642" /><polygon
       style="fill:none;stroke:#000000;stroke-miterlimit:10"
       transform="matrix(1.0456981,0,0,1.0456981,1.2951926,57.937275)"
       stroke-miterlimit="10"
       points="680,337.619 680,453.09 580,510.824 480,453.09 480,337.619 580,279.884 "
       id="polygon10644" /><polygon
       style="fill:none;stroke:#000000;stroke-miterlimit:10"
       transform="matrix(1.0456981,0,0,1.0456981,1.2951926,57.937275)"
       stroke-miterlimit="10"
       points="840,337.619 840,453.09 740,510.824 640,453.09 640,337.619 740,279.884 "
       id="polygon10646" /><polygon
       style="fill:none;stroke:#000000;stroke-miterlimit:10"
       transform="matrix(1.0456981,0,0,1.0456981,1.2951926,57.937275)"
       stroke-miterlimit="10"
       points="1000,337.619 1000,453.09 900,510.824 800,453.09 800,337.619 900,279.884 "
       id="polygon10648" /><polygon
       style="fill:none;stroke:#000000;stroke-miterlimit:10"
       transform="matrix(1.0456981,0,0,1.0456981,1.2951926,57.937275)"
       stroke-miterlimit="10"
       points="1160,337.619 1160,453.09 1060,510.824 960,453.09 960,337.619 1060,279.884 "
       id="polygon10650" /><polygon
       style="fill:none;stroke:#000000;stroke-miterlimit:10"
       transform="matrix(1.0456981,0,0,1.0456981,1.2951926,57.937275)"
       stroke-miterlimit="10"
       points="1320,337.619 1320,453.09 1220,510.824 1120,453.09 1120,337.619 1220,279.884 "
       id="polygon10652" /><polygon
       style="fill:none;stroke:#000000;stroke-miterlimit:10"
       transform="matrix(1.0456981,0,0,1.0456981,1.2951926,57.937275)"
       stroke-miterlimit="10"
       points="1480,337.619 1480,453.09 1380,510.824 1280,453.09 1280,337.619 1380,279.884 "
       id="polygon10654" /><polygon
       style="fill:none;stroke:#000000;stroke-miterlimit:10"
       transform="matrix(1.0456981,0,0,1.0456981,1.2951926,57.937275)"
       stroke-miterlimit="10"
       points="1640,337.619 1640,453.09 1540,510.824 1440,453.09 1440,337.619 1540,279.884 "
       id="polygon10656" /><polygon
       style="fill:none;stroke:#000000;stroke-miterlimit:10"
       transform="matrix(1.0456981,0,0,1.0456981,1.2951926,57.937275)"
       stroke-miterlimit="10"
       points="1800,337.619 1800,453.09 1700,510.824 1600,453.09 1600,337.619 1700,279.884 "
       id="polygon10658" /><polygon
       style="fill:none;stroke:#000000;stroke-miterlimit:10"
       transform="matrix(1.0456981,0,0,1.0456981,1.2951926,57.937275)"
       stroke-miterlimit="10"
       points="1960,337.619 1960,453.09 1860,510.824 1760,453.09 1760,337.619 1860,279.884 "
       id="polygon10660" /><polygon
       style="fill:none;stroke:#000000;stroke-miterlimit:10"
       transform="matrix(1.0456981,0,0,1.0456981,1.2951926,57.937275)"
       stroke-miterlimit="10"
       points="2120,337.619 2120,453.09 2020,510.824 1920,453.09 1920,337.619 2020,279.884 "
       id="polygon10662" /><polygon
       style="fill:none;stroke:#000000;stroke-miterlimit:10"
       transform="matrix(1.0456981,0,0,1.0456981,1.2951926,57.937275)"
       stroke-miterlimit="10"
       points="2280,337.619 2280,453.09 2180,510.824 2080,453.09 2080,337.619 2180,279.884 "
       id="polygon10664" /><polygon
       style="fill:none;stroke:#000000;stroke-miterlimit:10"
       transform="matrix(1.0456981,0,0,1.0456981,1.2951926,57.937275)"
       stroke-miterlimit="10"
       points="2440,337.619 2440,453.09 2340,510.824 2240,453.09 2240,337.619 2340,279.884 "
       id="polygon10666" /><polygon
       style="fill:none;stroke:#000000;stroke-miterlimit:10"
       transform="matrix(1.0456981,0,0,1.0456981,1.2951926,57.937275)"
       stroke-miterlimit="10"
       points="2600,337.619 2600,453.09 2500,510.824 2400,453.09 2400,337.619 2500,279.884 "
       id="polygon10668" /><polygon
       style="fill:none;stroke:#000000;stroke-miterlimit:10"
       transform="matrix(1.0456981,0,0,1.0456981,1.2951926,57.937275)"
       stroke-miterlimit="10"
       points="2760,337.619 2760,453.09 2660,510.824 2560,453.09 2560,337.619 2660,279.884 "
       id="polygon10670" /><polygon
       style="fill:none;stroke:#000000;stroke-miterlimit:10"
       transform="matrix(1.0456981,0,0,1.0456981,1.2951926,57.937275)"
       stroke-miterlimit="10"
       points="2920,337.619 2920,453.09 2820,510.824 2720,453.09 2720,337.619 2820,279.884 "
       id="polygon10672" /><polygon
       style="fill:none;stroke:#000000;stroke-miterlimit:10"
       transform="matrix(1.0456981,0,0,1.0456981,1.2951926,57.937275)"
       stroke-miterlimit="10"
       points="3080,337.619 3080,453.09 2980,510.824 2880,453.09 2880,337.619 2980,279.884 "
       id="polygon10674" /><polygon
       transform="matrix(1.0456981,0,0,1.0456981,1.2951926,57.937275)"
       id="polygon10680"
       points="180.013,366.089 80.014,308.355 80.014,192.884 180.013,135.15 280.014,192.884 280.014,308.355 "
       stroke-miterlimit="10"
       style="fill:none;stroke:#000000;stroke-miterlimit:10" /><polygon
       transform="matrix(1.0456981,0,0,1.0456981,1.2951926,57.937275)"
       id="polygon10682"
       points="340.013,366.089 240.014,308.355 240.014,192.884 340.013,135.15 440.014,192.884 440.014,308.355 "
       stroke-miterlimit="10"
       style="fill:none;stroke:#000000;stroke-miterlimit:10" /><polygon
       transform="matrix(1.0456981,0,0,1.0456981,1.2951926,57.937275)"
       id="polygon10684"
       points="500.013,366.089 400.014,308.355 400.014,192.884 500.013,135.15 600.014,192.884 600.014,308.355 "
       stroke-miterlimit="10"
       style="fill:none;stroke:#000000;stroke-miterlimit:10" /><polygon
       transform="matrix(1.0456981,0,0,1.0456981,1.2951926,57.937275)"
       id="polygon10686"
       points="660.014,366.089 560.014,308.355 560.014,192.884 660.014,135.15 760.014,192.884 760.014,308.355 "
       stroke-miterlimit="10"
       style="fill:none;stroke:#000000;stroke-miterlimit:10" /><polygon
       transform="matrix(1.0456981,0,0,1.0456981,1.2951926,57.937275)"
       id="polygon10688"
       points="820.013,366.089 720.014,308.355 720.014,192.884 820.013,135.15 920.014,192.884 920.014,308.355 "
       stroke-miterlimit="10"
       style="fill:none;stroke:#000000;stroke-miterlimit:10" /><polygon
       transform="matrix(1.0456981,0,0,1.0456981,1.2951926,57.937275)"
       id="polygon10690"
       points="980.013,366.089 880.014,308.355 880.014,192.884 980.013,135.15 1080.014,192.884 1080.014,308.355 "
       stroke-miterlimit="10"
       style="fill:none;stroke:#000000;stroke-miterlimit:10" /><polygon
       transform="matrix(1.0456981,0,0,1.0456981,1.2951926,57.937275)"
       id="polygon10692"
       points="1140.014,366.089 1040.014,308.355 1040.014,192.884 1140.014,135.15 1240.014,192.884 1240.014,308.355 "
       stroke-miterlimit="10"
       style="fill:none;stroke:#000000;stroke-miterlimit:10" /><polygon
       transform="matrix(1.0456981,0,0,1.0456981,1.2951926,57.937275)"
       id="polygon10694"
       points="1300.014,366.089 1200.014,308.355 1200.014,192.884 1300.014,135.15 1400.014,192.884 1400.014,308.355 "
       stroke-miterlimit="10"
       style="fill:none;stroke:#000000;stroke-miterlimit:10" /><polygon
       transform="matrix(1.0456981,0,0,1.0456981,1.2951926,57.937275)"
       id="polygon10696"
       points="1460.013,366.089 1360.014,308.355 1360.014,192.884 1460.013,135.15 1560.014,192.884 1560.014,308.355 "
       stroke-miterlimit="10"
       style="fill:none;stroke:#000000;stroke-miterlimit:10" /><polygon
       transform="matrix(1.0456981,0,0,1.0456981,1.2951926,57.937275)"
       id="polygon10698"
       points="1620.014,366.089 1520.014,308.355 1520.014,192.884 1620.014,135.15 1720.014,192.884 1720.014,308.355 "
       stroke-miterlimit="10"
       style="fill:none;stroke:#000000;stroke-miterlimit:10" /><polygon
       transform="matrix(1.0456981,0,0,1.0456981,1.2951926,57.937275)"
       id="polygon10700"
       points="1780.014,366.089 1680.014,308.355 1680.014,192.884 1780.014,135.15 1880.014,192.884 1880.014,308.355 "
       stroke-miterlimit="10"
       style="fill:none;stroke:#000000;stroke-miterlimit:10" /><polygon
       transform="matrix(1.0456981,0,0,1.0456981,1.2951926,57.937275)"
       id="polygon10702"
       points="1940.014,366.089 1840.014,308.355 1840.014,192.884 1940.014,135.15 2040.014,192.884 2040.014,308.355 "
       stroke-miterlimit="10"
       style="fill:none;stroke:#000000;stroke-miterlimit:10" /><polygon
       transform="matrix(1.0456981,0,0,1.0456981,1.2951926,57.937275)"
       id="polygon10704"
       points="2100.014,366.089 2000.014,308.355 2000.014,192.884 2100.014,135.15 2200.014,192.884 2200.014,308.355 "
       stroke-miterlimit="10"
       style="fill:none;stroke:#000000;stroke-miterlimit:10" /><polygon
       transform="matrix(1.0456981,0,0,1.0456981,1.2951926,57.937275)"
       id="polygon10706"
       points="2260.014,366.089 2160.014,308.355 2160.014,192.884 2260.014,135.15 2360.014,192.884 2360.014,308.355 "
       stroke-miterlimit="10"
       style="fill:none;stroke:#000000;stroke-miterlimit:10" /><polygon
       transform="matrix(1.0456981,0,0,1.0456981,1.2951926,57.937275)"
       id="polygon10708"
       points="2420.014,366.089 2320.014,308.355 2320.014,192.884 2420.014,135.15 2520.014,192.884 2520.014,308.355 "
       stroke-miterlimit="10"
       style="fill:none;stroke:#000000;stroke-miterlimit:10" /><polygon
       transform="matrix(1.0456981,0,0,1.0456981,1.2951926,57.937275)"
       id="polygon10710"
       points="2580.014,366.089 2480.014,308.355 2480.014,192.884 2580.014,135.15 2680.014,192.884 2680.014,308.355 "
       stroke-miterlimit="10"
       style="fill:none;stroke:#000000;stroke-miterlimit:10" /><polygon
       transform="matrix(1.0456981,0,0,1.0456981,1.2951926,57.937275)"
       id="polygon10712"
       points="2740.014,366.089 2640.014,308.355 2640.014,192.884 2740.014,135.15 2840.014,192.884 2840.014,308.355 "
       stroke-miterlimit="10"
       style="fill:none;stroke:#000000;stroke-miterlimit:10" /><polygon
       transform="matrix(1.0456981,0,0,1.0456981,1.2951926,57.937275)"
       id="polygon10714"
       points="2900.014,366.089 2800.014,308.355 2800.014,192.884 2900.014,135.15 3000.014,192.884 3000.014,308.355 "
       stroke-miterlimit="10"
       style="fill:none;stroke:#000000;stroke-miterlimit:10" /><polygon
       transform="matrix(1.0456981,0,0,1.0456981,1.2951926,57.937275)"
       id="polygon10716"
       points="3060.014,366.089 2960.014,308.355 2960.014,192.884 3060.014,135.15 3160.014,192.884 3160.014,308.355 "
       stroke-miterlimit="10"
       style="fill:none;stroke:#000000;stroke-miterlimit:10" /><polygon
       style="fill:none;stroke:#000000;stroke-miterlimit:10"
       transform="matrix(1.0456981,0,0,1.0456981,1.2951926,57.937275)"
       stroke-miterlimit="10"
       points="200.014,48.794 200.014,164.265 100.013,222 0.014,164.265 0.014,48.794 100.013,-8.94 "
       id="polygon10720" /><polygon
       style="fill:none;stroke:#000000;stroke-miterlimit:10"
       transform="matrix(1.0456981,0,0,1.0456981,1.2951926,57.937275)"
       stroke-miterlimit="10"
       points="360.014,48.794 360.014,164.265 260.013,222 160.014,164.265 160.014,48.794 260.013,-8.94 "
       id="polygon10722" /><polygon
       style="fill:none;stroke:#000000;stroke-miterlimit:10"
       transform="matrix(1.0456981,0,0,1.0456981,1.2951926,57.937275)"
       stroke-miterlimit="10"
       points="520.014,48.794 520.014,164.265 420.013,222 320.014,164.265 320.014,48.794 420.013,-8.94 "
       id="polygon10724" /><polygon
       style="fill:none;stroke:#000000;stroke-miterlimit:10"
       transform="matrix(1.0456981,0,0,1.0456981,1.2951926,57.937275)"
       stroke-miterlimit="10"
       points="680.014,48.794 680.014,164.265 580.014,222 480.014,164.265 480.014,48.794 580.014,-8.94 "
       id="polygon10726" /><polygon
       style="fill:none;stroke:#000000;stroke-miterlimit:10"
       transform="matrix(1.0456981,0,0,1.0456981,1.2951926,57.937275)"
       stroke-miterlimit="10"
       points="840.014,48.794 840.014,164.265 740.013,222 640.014,164.265 640.014,48.794 740.013,-8.94 "
       id="polygon10728" /><polygon
       style="fill:none;stroke:#000000;stroke-miterlimit:10"
       transform="matrix(1.0456981,0,0,1.0456981,1.2951926,57.937275)"
       stroke-miterlimit="10"
       points="1000.014,48.794 1000.014,164.265 900.013,222 800.014,164.265 800.014,48.794 900.013,-8.94 "
       id="polygon10730" /><polygon
       style="fill:none;stroke:#000000;stroke-miterlimit:10"
       transform="matrix(1.0456981,0,0,1.0456981,1.2951926,57.937275)"
       stroke-miterlimit="10"
       points="1160.014,48.794 1160.014,164.265 1060.014,222 960.014,164.265 960.014,48.794 1060.014,-8.94 "
       id="polygon10732" /><polygon
       style="fill:none;stroke:#000000;stroke-miterlimit:10"
       transform="matrix(1.0456981,0,0,1.0456981,1.2951926,57.937275)"
       stroke-miterlimit="10"
       points="1320.014,48.794 1320.014,164.265 1220.014,222 1120.014,164.265 1120.014,48.794 1220.014,-8.94 "
       id="polygon10734" /><polygon
       style="fill:none;stroke:#000000;stroke-miterlimit:10"
       transform="matrix(1.0456981,0,0,1.0456981,1.2951926,57.937275)"
       stroke-miterlimit="10"
       points="1480.014,48.794 1480.014,164.265 1380.013,222 1280.014,164.265 1280.014,48.794 1380.013,-8.94 "
       id="polygon10736" /><polygon
       style="fill:none;stroke:#000000;stroke-miterlimit:10"
       transform="matrix(1.0456981,0,0,1.0456981,1.2951926,57.937275)"
       stroke-miterlimit="10"
       points="1640.014,48.794 1640.014,164.265 1540.013,222 1440.014,164.265 1440.014,48.794 1540.013,-8.94 "
       id="polygon10738" /><polygon
       style="fill:none;stroke:#000000;stroke-miterlimit:10"
       transform="matrix(1.0456981,0,0,1.0456981,1.2951926,57.937275)"
       stroke-miterlimit="10"
       points="1800.014,48.794 1800.014,164.265 1700.014,222 1600.014,164.265 1600.014,48.794 1700.014,-8.94 "
       id="polygon10740" /><polygon
       style="fill:none;stroke:#000000;stroke-miterlimit:10"
       transform="matrix(1.0456981,0,0,1.0456981,1.2951926,57.937275)"
       stroke-miterlimit="10"
       points="1960.014,48.794 1960.014,164.265 1860.014,222 1760.014,164.265 1760.014,48.794 1860.014,-8.94 "
       id="polygon10742" /><polygon
       style="fill:none;stroke:#000000;stroke-miterlimit:10"
       transform="matrix(1.0456981,0,0,1.0456981,1.2951926,57.937275)"
       stroke-miterlimit="10"
       points="2120.014,48.794 2120.014,164.265 2020.014,222 1920.014,164.265 1920.014,48.794 2020.014,-8.94 "
       id="polygon10744" /><polygon
       style="fill:none;stroke:#000000;stroke-miterlimit:10"
       transform="matrix(1.0456981,0,0,1.0456981,1.2951926,57.937275)"
       stroke-miterlimit="10"
       points="2280.014,48.794 2280.014,164.265 2180.014,222 2080.014,164.265 2080.014,48.794 2180.014,-8.94 "
       id="polygon10746" /><polygon
       style="fill:none;stroke:#000000;stroke-miterlimit:10"
       transform="matrix(1.0456981,0,0,1.0456981,1.2951926,57.937275)"
       stroke-miterlimit="10"
       points="2440.014,48.794 2440.014,164.265 2340.014,222 2240.014,164.265 2240.014,48.794 2340.014,-8.94 "
       id="polygon10748" /><polygon
       style="fill:none;stroke:#000000;stroke-miterlimit:10"
       transform="matrix(1.0456981,0,0,1.0456981,1.2951926,57.937275)"
       stroke-miterlimit="10"
       points="2600.014,48.794 2600.014,164.265 2500.014,222 2400.014,164.265 2400.014,48.794 2500.014,-8.94 "
       id="polygon10750" /><polygon
       style="fill:none;stroke:#000000;stroke-miterlimit:10"
       transform="matrix(1.0456981,0,0,1.0456981,1.2951926,57.937275)"
       stroke-miterlimit="10"
       points="2760.014,48.794 2760.014,164.265 2660.014,222 2560.014,164.265 2560.014,48.794 2660.014,-8.94 "
       id="polygon10752" /><polygon
       style="fill:none;stroke:#000000;stroke-miterlimit:10"
       transform="matrix(1.0456981,0,0,1.0456981,1.2951926,57.937275)"
       stroke-miterlimit="10"
       points="2920.014,48.794 2920.014,164.265 2820.014,222 2720.014,164.265 2720.014,48.794 2820.014,-8.94 "
       id="polygon10754" /><polygon
       style="fill:none;stroke:#000000;stroke-miterlimit:10"
       transform="matrix(1.0456981,0,0,1.0456981,1.2951926,57.937275)"
       stroke-miterlimit="10"
       points="3080.014,48.794 3080.014,164.265 2980.014,222 2880.014,164.265 2880.014,48.794 2980.014,-8.94 "
       id="polygon10756" /></g><eggbot
     totaldeltay="0"
     totaldeltax="0"
     lastpathnc="0"
     lastpath="0"
     node="0"
     layer="0"
     serialport="COM8" /></svg>