<?xml version="1.0" encoding="UTF-8" standalone="no"?>
<!-- Created with Inkscape (http://www.inkscape.org/) -->

<svg
   xmlns:dc="http://purl.org/dc/elements/1.1/"
   xmlns:cc="http://creativecommons.org/ns#"
   xmlns:rdf="http://www.w3.org/1999/02/22-rdf-syntax-ns#"
   xmlns:svg="http://www.w3.org/2000/svg"
   xmlns="http://www.w3.org/2000/svg"
   xmlns:sodipodi="http://sodipodi.sourceforge.net/DTD/sodipodi-0.dtd"
   xmlns:inkscape="http://www.inkscape.org/namespaces/inkscape"
   style="display:inline"
   width="3200"
   height="700"
   id="svg2"
   version="1.1"
   inkscape:version="0.48.3.1 r9886"
   sodipodi:docname="Plot - Muppets - Elmo.svg">
  <sodipodi:namedview
     id="base"
     pagecolor="#ffffff"
     bordercolor="#666666"
     borderopacity="1.0"
     inkscape:pageopacity="0.0"
     inkscape:pageshadow="2"
     inkscape:zoom="0.4859375"
     inkscape:cx="427.99446"
     inkscape:cy="350"
     inkscape:document-units="px"
     inkscape:current-layer="layer4"
     showgrid="false"
     inkscape:window-width="824"
     inkscape:window-height="972"
     inkscape:window-x="840"
     inkscape:window-y="0"
     inkscape:window-maximized="0" />
  <defs
     id="defs4" />
  <metadata
     id="metadata7">
    <rdf:RDF>
      <cc:Work
         rdf:about="">
        <dc:format>image/svg+xml</dc:format>
        <dc:type
           rdf:resource="http://purl.org/dc/dcmitype/StillImage" />
        <dc:title />
      </cc:Work>
    </rdf:RDF>
  </metadata>
  <g
     sodipodi:insensitive="true"
     inkscape:groupmode="layer"
     id="layer4"
     inkscape:label="1 - Orange">
    <g
       style="stroke:#ff6600"
       id="g4643">
      <path
         style="fill:none;stroke:#ff6600;stroke-width:1;stroke-linecap:round;stroke-linejoin:round;stroke-miterlimit:4;stroke-opacity:1;display:inline"
         d="m 2003.3125,153.875 c -42.2208,0.41254 -86.881,15.20781 -114.125,48.75 -16.7993,20.37199 -22.639,49.59671 -12.5,74.21875 13.4719,33.62805 47.0662,54.756 80.8125,64.03125 47.9263,12.96418 102.6475,6.53588 143.1875,-23 23.3132,-16.83512 40.894,-45.146 37.25,-74.9375 -3.6857,-34.30288 -31.5963,-60.64496 -61.7476,-74.13179 -22.7753,-10.4565 -47.881,-15.15343 -72.8774,-14.93071 z"
         id="path3879-3"
         inkscape:connector-curvature="0" />
      <path
         inkscape:connector-curvature="0"
         style="fill:none;stroke:#ff6600;stroke-width:1"
         d="m 1876.3477,225.21007 0,50.70886 m 6,12.4078 0,-75.84288 m 6,-8.76875 0,93.49679 m 6,7.22233 0,-107.71124 m 6,-5.94941 0,119.61222 m 6,5.12531 0,-129.90267 m 6,-4.52131 0,138.91246 m 6,3.9609 0,-146.84457 m 6,-3.51936 0,153.87689 m 6,3.12401 0,-160.13123 m 6,-2.78916 0,165.60049 m 6,2.50178 0,-170.58735 m 6,-2.21013 0,174.9642 m 6,1.92013 0,-178.76415 m 6,-1.64087 0,182.1061 m 6,1.45858 0,-184.99134 m 6,-1.22366 0,187.36424 m 6,1.00249 0,-189.34688 m 6,-0.75753 0,190.92961 m 6,0.55264 0,-192.06111 m 6,-0.40267 0,192.88116 m 6,0.21095 0,-193.27873 m 6,0.0499 0,193.20561 m 6,-0.15767 0,-192.86905 m 6,0.39748 0,192.06261 m 6,-0.61143 0,-190.82983 m 6,0.7634 0,189.31105 m 6,-1.05935 0,-187.21754 m 6,1.24793 0,184.72296 m 6,-1.41329 0,-181.89656 m 6,1.73567 0,178.39247 m 6,-1.97375 0,-174.44961 m 6,2.17615 0,170.09022 m 6,-2.5721 0,-164.98295 m 6,2.75918 0,159.36364 m 6,-3.14733 0,-153.08385 m 6,3.54344 0,146.01959 m 6,-4.01899 0,-137.97766 m 6,4.59977 0,128.82848 m 6,-5.03132 0,-118.54568 m 6,6.05391 0,106.40378 m 6,-7.3852 0,-91.70919 m 6,9.112 0,73.32968 m 6,-13.19643 0,-46.78773"
         id="path4646" />
    </g>
  </g>
  <g
     sodipodi:insensitive="true"
     inkscape:groupmode="layer"
     id="layer2"
     inkscape:label="2 - Red"
     style="display:inline">
    <g
       style="stroke:#ff0000"
       id="g3299">
      <g
         style="stroke:#ff0000"
         id="g4157">
        <path
           style="fill:none;stroke:#ff0000;stroke-width:1;stroke-linecap:round;stroke-linejoin:round;stroke-miterlimit:4;stroke-opacity:1;stroke-dasharray:none;display:inline"
           d="m 1733.625,119.875 c -12.1313,-0.0515 -26.1209,7.94381 -36.125,3.28125 -34.1792,-7.07624 -35.9443,9.22251 -64.6562,10.1875 l -1632.31255,0 0,566.21875 3199.06255,0 0,-566.21875 -824.1563,-1.78125 c -16.1827,1.94084 -34.5624,-17.3922 -57.875,-8.3125 -17.6209,4.79927 -39.5354,-11.53981 -57.1563,3.375 l -3.0624,3.125 c -10.7385,52.56902 -77.4149,78.29317 -127.1563,79.15625 0.021,0.0307 0.042,0.063 0.062,0.0937 6.4754,10.45943 10.7899,22.13091 11.9375,34.71875 3.1329,30.86414 -14.9037,60.15129 -39.3437,77.59375 -41.9485,30.47432 -98.5683,36.78549 -147.9063,23 -34.7666,-9.97628 -69.0077,-32.25196 -82.3437,-67.21875 -8.8284,-22.47921 -5.0557,-48.32751 7.5624,-68.59375 l -0.031,0 c -0.1374,0.004 -0.2686,-0.004 -0.4062,0 -56.1513,-2.15054 -116.1917,-31.02062 -127.4063,-77.3125 l -2,-1.65625 c -4.4873,-7.40702 -10.333,-9.62925 -16.6875,-9.65625 z m 455.6875,264.65625 c 2.1005,0.0355 4.1513,0.67981 6.0937,1.4375 14.3992,8.0065 29.7113,14.21096 45.125,19.9375 8.8608,2.77691 21.1899,6.82276 28.4688,-0.53125 4.0756,-3.71905 2.718,-10.28087 5.625,-14.125 14.4676,-2.73019 28.8819,2.37328 43.375,2.5 2.9163,0.70914 9.7744,-2.15038 8.6875,2.71875 -11.4733,6.58647 -15.5408,20.32595 -18.6563,32.46875 -4.3444,23.75495 -16.444,44.94445 -26.0312,66.75 -14.7373,20.34805 -34.3038,37.08492 -54.125,52.625 -29.8494,25.10023 -65.9585,44.34422 -105.3125,47.9375 -56.0263,1.76418 -112.1428,0.0689 -168.1875,1.28125 -30.9928,1.72981 -58.4559,-14.86191 -85.9062,-26.65625 -28.8661,-13.56245 -59.6175,-27.34345 -80.2188,-52.5625 -12.2741,-18.82153 -25.1592,-38.50936 -28.5625,-61.1875 0.038,-16.39303 -10.3872,-30.6024 -23.6563,-39.3125 -2.8534,-3.04428 -9.6507,-3.58934 -9.7187,-8.09375 8.5605,-3.0986 18.0343,-4.50773 26.8125,-7.65625 9.0577,-2.28388 21.5632,-7.14084 28.875,1.3125 2.1889,4.43919 6.282,8.50673 11.6562,6.96875 25.5825,-4.5658 51.6281,-8.56089 76.4376,-16.15625 5.5026,-0.7837 12.1155,-5.45499 17.5,-2.125 3.1839,6.19153 -5.2113,10.98285 -5.4376,16.96875 0.9076,5.11599 8.6577,4.32021 12.5938,4.75 24.4533,-1.12525 48.9063,-6.90658 70.7812,-18.09375 13.8827,-7.53186 30.1872,-5.32249 44.6563,-1.1875 8.592,3.59068 17.5011,0.21485 26,-2 21.9996,-5.43737 47.365,-10.92657 68.1875,1.1875 15.9199,12.55815 38.7269,17.92294 57.5938,9.46875 10.3971,-3.77992 14.6824,-17.35097 26.4374,-18.59375 0.3018,-0.0208 0.6062,-0.0363 0.9063,-0.0312 z"
           id="path3850-4-1"
           inkscape:connector-curvature="0"
           sodipodi:nodetypes="scccccccccccccccccccccsccccccccccccccccccccccccccccccc" />
        <path
           inkscape:connector-curvature="0"
           style="fill:none;stroke:#ff0000;stroke-width:1"
           d="m 4.482717,133.34375 0,566.21875 m 6,0 0,-566.21875 m 6,0 0,566.21875 m 6,0 0,-566.21875 m 6,0 0,566.21875 m 6,0 0,-566.21875 m 6,0 0,566.21875 m 6,0 0,-566.21875 m 6,0 0,566.21875 m 6,0 0,-566.21875 m 6,0 0,566.21875 m 6,0 0,-566.21875 m 6,0 0,566.21875 m 6,0 0,-566.21875 m 6,0 0,566.21875 m 6,0 0,-566.21875 m 6.000003,0 0,566.21875 m 6,0 0,-566.21875 m 6,0 0,566.21875 m 6,0 0,-566.21875 m 6,0 0,566.21875 m 6,0 0,-566.21875 m 6,0 0,566.21875 m 6,0 0,-566.21875 m 6,0 0,566.21875 m 6,0 0,-566.21875 m 6,0 0,566.21875 m 6,0 0,-566.21875 m 6,0 0,566.21875 m 6,0 0,-566.21875 m 6,0 0,566.21875 m 6,0 0,-566.21875 m 6,0 0,566.21875 m 6,0 0,-566.21875 m 6,0 0,566.21875 m 6,0 0,-566.21875 m 6,0 0,566.21875 m 6,0 0,-566.21875 m 6,0 0,566.21875 m 6,0 0,-566.21875 m 6,0 0,566.21875 m 6,0 0,-566.21875 m 6,0 0,566.21875 m 6,0 0,-566.21875 m 6,0 0,566.21875 m 6,0 0,-566.21875 m 6,0 0,566.21875 m 6,0 0,-566.21875 m 6,0 0,566.21875 m 6,0 0,-566.21875 m 6,0 0,566.21875 m 6,0 0,-566.21875 m 6,0 0,566.21875 m 6,0 0,-566.21875 m 6,0 0,566.21875 m 6,0 0,-566.21875 m 6,0 0,566.21875 m 6,0 0,-566.21875 m 6,0 0,566.21875 m 6,0 0,-566.21875 m 6,0 0,566.21875 m 6,0 0,-566.21875 m 6,0 0,566.21875 m 6,0 0,-566.21875 m 6,0 0,566.21875 m 6,0 0,-566.21875 m 6,0 0,566.21875 m 6,0 0,-566.21875 m 6,0 0,566.21875 m 6,0 0,-566.21875 m 6,0 0,566.21875 m 6,0 0,-566.21875 m 6,0 0,566.21875 m 6,0 0,-566.21875 m 6,0 0,566.21875 m 6,0 0,-566.21875 m 6,0 0,566.21875 m 6,0 0,-566.21875 m 6,0 0,566.21875 m 6,0 0,-566.21875 m 6,0 0,566.21875 m 6,0 0,-566.21875 m 6,0 0,566.21875 m 6,0 0,-566.21875 m 6,0 0,566.21875 m 6,0 0,-566.21875 m 6,0 0,566.21875 m 6,0 0,-566.21875 m 6,0 0,566.21875 m 6,0 0,-566.21875 m 6,0 0,566.21875 m 6,0 0,-566.21875 m 6,0 0,566.21875 m 6,0 0,-566.21875 m 6,0 0,566.21875 m 6,0 0,-566.21875 m 6,0 0,566.21875 m 6,0 0,-566.21875 m 6,0 0,566.21875 m 6,0 0,-566.21875 m 6,0 0,566.21875 m 6,0 0,-566.21875 m 6,0 0,566.21875 m 6,0 0,-566.21875 m 6,0 0,566.21875 m 6,0 0,-566.21875 m 6,0 0,566.21875 m 6,0 0,-566.21875 m 6,0 0,566.21875 m 6,0 0,-566.21875 m 6,0 0,566.21875 m 6,0 0,-566.21875 m 6,0 0,566.21875 m 6,0 0,-566.21875 m 6,0 0,566.21875 m 6,0 0,-566.21875 m 6,0 0,566.21875 m 6,0 0,-566.21875 m 6,0 0,566.21875 m 6,0 0,-566.21875 m 6,0 0,566.21875 m 6,0 0,-566.21875 m 6,0 0,566.21875 m 6,0 0,-566.21875 m 6,0 0,566.21875 m 6,0 0,-566.21875 m 6,0 0,566.21875 m 6,0 0,-566.21875 m 6,0 0,566.21875 m 6,0 0,-566.21875 m 6,0 0,566.21875 m 6,0 0,-566.21875 m 6,0 0,566.21875 m 6,0 0,-566.21875 m 6,0 0,566.21875 m 6,0 0,-566.21875 m 6,0 0,566.21875 m 6,0 0,-566.21875 m 6,0 0,566.21875 m 6,0 0,-566.21875 m 6,0 0,566.21875 m 6,0 0,-566.21875 m 6,0 0,566.21875 m 6,0 0,-566.21875 m 6,0 0,566.21875 m 6,0 0,-566.21875 m 6,0 0,566.21875 m 6,0 0,-566.21875 m 6,0 0,566.21875 m 6,0 0,-566.21875 m 6,0 0,566.21875 m 6,0 0,-566.21875 m 6,0 0,566.21875 m 6,0 0,-566.21875 m 6,0 0,566.21875 m 6,0 0,-566.21875 m 6,0 0,566.21875 m 6,0 0,-566.21875 m 6,0 0,566.21875 m 6,0 0,-566.21875 m 6,0 0,566.21875 m 6,0 0,-566.21875 m 6,0 0,566.21875 m 6,0 0,-566.21875 m 6,0 0,566.21875 m 6,0 0,-566.21875 m 5.99998,0 0,566.21875 m 6,0 0,-566.21875 m 6,0 0,566.21875 m 6,0 0,-566.21875 m 6,0 0,566.21875 m 6,0 0,-566.21875 m 6,0 0,566.21875 m 6,0 0,-566.21875 m 6,0 0,566.21875 m 6,0 0,-566.21875 m 6,0 0,566.21875 m 6,0 0,-566.21875 m 6,0 0,566.21875 m 6,0 0,-566.21875 m 6,0 0,566.21875 m 6,0 0,-566.21875 m 6,0 0,566.21875 m 6,0 0,-566.21875 m 6,0 0,566.21875 m 6,0 0,-566.21875 m 6,0 0,566.21875 m 6,0 0,-566.21875 m 6,0 0,566.21875 m 6,0 0,-566.21875 m 6,0 0,566.21875 m 6,0 0,-566.21875 m 6,0 0,566.21875 m 6,0 0,-566.21875 m 6,0 0,566.21875 m 6,0 0,-566.21875 m 6,0 0,566.21875 m 6,0 0,-566.21875 m 6,0 0,566.21875 m 6,0 0,-566.21875 m 6,0 0,566.21875 m 6,0 0,-566.21875 m 6,0 0,566.21875 m 6,0 0,-566.21875 m 6,0 0,566.21875 m 6,0 0,-566.21875 m 6,0 0,566.21875 m 6,0 0,-566.21875 m 6,0 0,566.21875 m 6,0 0,-566.21875 m 6,0 0,566.21875 m 6,0 0,-566.21875 m 6,0 0,566.21875 m 6,0 0,-566.21875 m 6,0 0,566.21875 m 6,0 0,-566.21875 m 6,0 0,566.21875 m 6,0 0,-566.21875 m 6,0 0,566.21875 m 6,0 0,-566.21875 m 6,0 0,566.21875 m 6,0 0,-566.21875 m 6,0 0,566.21875 m 6,0 0,-566.21875 m 6,0 0,566.21875 m 6,0 0,-566.21875 m 6,0 0,566.21875 m 6,0 0,-566.21875 m 6,0 0,566.21875 m 6,0 0,-566.21875 m 6,0 0,566.21875 m 6,0 0,-566.21875 m 6,0 0,566.21875 m 6,0 0,-566.21875 m 6,0 0,566.21875 m 6,0 0,-566.21875 m 6,0 0,566.21875 m 6,0 0,-566.21875 m 6,0 0,566.21875 m 6,0 0,-566.21875 m 6,0 0,566.21875 m 6,0 0,-566.21875 m 6,0 0,566.21875 m 6,0 0,-566.21875 m 6,0 0,566.21875 m 6,0 0,-566.21875 m 6,0 0,566.21875 m 6,0 0,-566.21875 m 6,0 0,566.21875 m 6,0 0,-566.21875 m 6,0 0,566.21875 m 6,0 0,-566.21875 m 6,0 0,566.21875 m 6,0 0,-566.21875 m 6,0 0,566.21875 m 6,0 0,-566.21875 m 6,0 0,566.21875 m 6,0 0,-566.21875 m 6,0 0,566.21875 m 6,0 0,-566.21875 m 6,0 0,566.21875 m 6,0 0,-566.21875 m 6,0 0,566.21875 m 6,0 0,-566.21875 m 6,0 0,566.21875 m 6,0 0,-566.21875 m 6,0 0,566.21875 m 6,0 0,-566.21875 m 6,0 0,566.21875 m 6,0 0,-566.21875 m 6,0 0,566.21875 m 6,0 0,-566.21875 m 6,-0.25145 0,566.4702 m 6,0 0,-567.22801 m 6,-1.46502 0,568.69303 m 6,0 0,-570.81423 m 6,-2.41143 0,573.22566 m 6,0 0,-575.48051 m 6,-1.73941 0,577.21992 m 6,0 0,-578.01794 m 6,-0.0676 0,578.08556 m 6,0 0,-577.57216 m 6,0.98708 0,576.58508 m 6,0 0,-575.14794 m 6,-0.0955 0,575.24344 m 6,0 0,-576.26245 m 6,-1.3927 0,577.65515 m 6,-289.89717 0,-289.03164 m 0,289.89133 0,289.03748 m 6,-291.78014 0,-287.82896 m 0,295.5288 0,284.0803 m 6,-293.35446 0,-285.79734 m 0,299.18803 0,279.96377 m 6,-294.90609 0,-281.58661 m 0,301.49711 0,274.99559 m 6,-296.67486 0,-273.21523 m 0,301.64095 0,268.24914 m 6,-298.39505 0,-258.24989 m 0,298.81753 0,257.82741 m 6,-299.9071 0,-245.84419 m 0,315.27376 0,230.47753 m 6,-300.87365 0,-236.92173 m 0,322.86613 0,214.92925 m 6,-300.49008 0,-230.95099 m 0,328.10994 0,203.33113 m 6,-297.50473 0,-228.58368 m 0,332.70588 0,193.38253 m 6,-290.60706 0,-230.81905 m 0,337.41561 0,184.0105 m 6,-289.02405 0,-228.25062 m 0,340.88477 0,176.3899 m 6,-290.06697 0,-223.51785 m 0,343.10719 0,170.47763 m 6,-291.12141 0,-219.2686 m 0,345.25403 0,165.13598 m 6,-292.17586 0,-215.26686 m 0,346.9111 0,160.53162 m 6,-293.26273 0,-211.53272 m 0,348.58417 0,156.21128 m 6,-294.37153 0,-208.12138 m 0,350.11905 0,152.37386 m 6,-295.48033 0,-204.85819 m 0,351.56004 0,148.77848 m 6,-296.66125 0,-201.85553 m 0,353.12506 0,145.39172 m 6,-297.95674 0,-198.90948 m 0,354.62324 0,142.24298 m 6,-299.25224 0,-196.16126 m 0,356.25008 0,139.16342 m 6,-300.59318 0,-193.62758 m 0,357.92083 0,136.29993 m 6,-302.11568 0,-191.00591 m 0,359.6788 0,133.44279 m 6,-303.76351 0,-188.59958 m 0,361.77745 0,130.58564 m 6,-468.39767 0,-23.28935 m 0,62.58604 0,123.62366 m 0,305.47732 0,-127.77209 m 6,-363.50924 0,6.90373 m 0,177.18622 0,-106.67622 m 0,288.82275 0,125.04485 m 6,-308.60964 0,-95.09173 m 0,111.50122 0,2.51305 m 0,289.6871 0,-122.3176 m 6,-273.58664 0,109.6279 m 0,286.27634 0,-119.59036 m 6,-269.76617 0,103.5597 m 0,285.79683 0,-116.88903 m 6,-266.86858 0,97.57498 m 0,286.18263 0,-114.22814 m 6,-264.71327 0,92.21292 m 0,286.72849 0,-111.76819 m 6,-262.91515 0,87.24088 m 0,287.44246 0,-109.46474 m 6,-261.43152 0,82.46366 m 0,288.4326 0,-107.39778 m 6,-260.11783 0,77.93846 m 0,289.57715 0,-105.65885 m 6,-258.83408 0,73.57739 m 0,290.91554 0,-104.12803 m 6,-257.66351 0,69.23521 m 0,292.55633 0,-102.97927 m 6,-256.4165 0,65.01276 m 0,294.38301 0,-102.24519 m 6,-255.15333 0,60.97961 m 0,296.41891 0,-101.92196 m 6,-253.47931 0,56.57194 m 0,298.82933 0,-102.03244 m 6,-251.82193 0,52.37241 m 0,301.48196 0,-102.09859 m 6,-250.36549 0,48.16214 m 0,304.30194 0,-102.16475 m 6,-249.11362 0,44.55361 m 0,306.72476 0,-102.2309 m 6,-248.11152 0,42.2043 m 0,308.13812 0,-102.29705 m 6,-247.236 0,40.7962 m 0,308.73685 0,-102.36321 m 6,-246.61056 0,40.30589 m 0,308.66788 0,-102.42936 m 6,-246.16628 0,40.54931 m 0,308.04633 0,-102.49477 m 6,-245.85036 0,41.3786 m 0,306.96653 0,-102.49051 m 6,-245.90519 0,42.88557 m 0,305.51013 0,-102.48625 m 6,-246.08028 0,44.69539 m 0,303.87114 0,-102.48199 m 6,-246.45826 0,45.34946 m 0,303.59079 0,-102.47772 m 6,-247.07468 0,44.95487 m 0,304.59753 0,-102.47346 m 6,-247.81991 0,44.2387 m 0,306.05467 0,-102.4692 m 6,-248.85219 0,43.71 m 0,307.61139 0,-102.46495 m 6,-250.07439 0,43.49307 m 0,309.04627 0,-102.47545 m 6,-251.43903 0,43.60828 m 0,310.3062 0,-102.48595 m 6,-253.16119 0,44.24789 m 0,311.39925 0,-102.49645 m 6,-255.06006 0,45.23792 m 0,312.31859 0,-102.50695 m 6,-257.17995 0,46.83533 m 0,312.85157 0,-102.51745 m 6,-259.68419 0,49.16944 m 0,313.0322 0,-102.52795 m 6,-262.42265 0,52.07165 m 0,312.87895 0,-102.53845 m 6,-265.41716 0,55.82646 m 0,312.12915 0,-102.64817 m 6,-268.81053 0,60.58885 m 0,310.86985 0,-102.75864 m 6,-272.54247 0,66.5521 m 0,308.74901 0,-102.86912 m 6,-276.621 0,73.68999 m 0,305.80013 0,-102.9796 m 6,-281.33303 0,82.68286 m 0,301.62977 0,-103.09008 m 6,-286.85572 0,91.53016 m 0,298.41564 0,-103.20055 m 6,-293.43769 0,100.68078 m 0,295.95746 0,-103.31103 m 6,-301.47105 0,110.62105 m 0,294.16103 0,-104.00191 m 6,-386.85929 0,7.99767 m 0,189.88447 0,-122.31412 m 0,310.36429 0,104.92889 m 6,-466.04076 0,-25.15273 m 0,59.25153 0,139.5468 m 0,292.39516 0,-106.08966 m 6,-385.74027 0,199.29468 m 0,292.53525 0,-107.48584 m 6,-385.15105 0,199.25344 m 0,293.38345 0,-109.11929 m 6,-384.49612 0,198.5962 m 0,295.01921 0,-110.99204 m 6,-383.89026 0,197.20959 m 0,297.67271 0,-113.14501 m 6,-383.11824 0,193.86006 m 0,302.40319 0,-115.65889 m 6,-382.28782 0,189.50358 m 0,308.44313 0,-118.23032 m 6,-381.58783 0,186.80355 m 0,313.0146 0,-121.14222 m 6,-380.74496 0,186.88454 m 0,315.00264 0,-124.26582 m 6,-380.04743 0,190.41361 m 0,313.89964 0,-127.63276 m 6,-379.28676 0,195.96073 m 0,310.95879 0,-131.30319 m 6,-378.59404 0,202.04544 m 0,307.85179 0,-135.16656 m 6,-378.09378 0,208.15408 m 0,305.10626 0,-139.38269 m 6,-377.56302 0,214.54467 m 0,302.40104 0,-143.79009 m 6,-377.38137 0,221.24548 m 0,299.92598 0,-148.55565 m 6,-377.55076 0,228.61051 m 0,297.4959 0,-153.35737 m 6,-378.45832 0,236.61246 m 0,295.20323 0,-158.20613 m 6,-380.46397 0,245.59217 m 0,293.07793 0,-163.05489 m 6,-384.0614 0,255.76206 m 0,291.35423 0,-168.35652 m 6,-391.37968 0,269.48989 m 0,290.24631 0,-173.66888 m 6,-399.32439 0,282.72868 m 0,290.26459 0,-179.31218 m 6,-397.48379 0,284.52704 m 0,292.26893 0,-185.40752 m 6,-393.31752 0,276.47409 m 0,302.25095 0,-192.01366 m 6,-387.33849 0,270.55477 m 0,308.79738 0,-199.30323 m 6,-379.64826 0,269.87769 m 0,309.0738 0,-209.26617 m 6,-368.87864 0,269.36508 m 0,308.77973 0,-222.3097 m 6,-354.74153 0,268.94216 m 0,308.10907 0,-235.42811 m 6,-340.62771 0,268.77331 m 0,307.28251 0,-250.50161 m 6,-325.04691 0,269.04931 m 0,306.49921 0,-272.22496 m 6,-303.47663 0,269.72345 m 0,305.97814 0,-289.4038 m 6,-287.84394 0,271.4708 m 0,305.77694 0,-298.06416 m 6,-280.44487 0,273.49981 m 0,305.00922 0,-302.94986 m 6,-275.69701 0,578.64687 m 6,0 0,-577.92082 m 6,1.59626 0,576.32456 m 6,0 0,-574.3346 m 6,2.27958 0,572.05502 m 6,0 0,-569.888 m 6,1.52349 0,568.36451 m 6,0 0,-567.96047 m 6,-0.0286 0,567.9891 m 6,0 0,-567.97613 m 6,0.013 0,567.96316 m 6,0 0,-567.95019 m 6,0.013 0,567.93723 m 6,0 0,-567.92426 m 6,0.013 0,567.91129 m 6,0 0,-567.89832 m 6,0.013 0,567.88535 m 6,0 0,-567.87239 m 6,0.013 0,567.85942 m 6,0 0,-567.84645 m 6,0.013 0,567.83348 m 6,0 0,-567.82051 m 6,0.013 0,567.80755 m 6,0 0,-567.79458 m 6,0.013 0,567.78161 m 6,0 0,-567.76864 m 6,0.013 0,567.75568 m 6,0 0,-567.74271 m 6,0.013 0,567.72974 m 6,0 0,-567.71677 m 6,0.013 0,567.7038 m 6,0 0,-567.69084 m 6,0.013 0,567.67787 m 6,0 0,-567.6649 m 6,0.013 0,567.65193 m 6,0 0,-567.63896 m 6,0.013 0,567.626 m 6,0 0,-567.61303 m 6,0.013 0,567.60006 m 6,0 0,-567.58709 m 6,0.013 0,567.57413 m 6,0 0,-567.56116 m 6,0.013 0,567.54819 m 6,0 0,-567.53522 m 6,0.013 0,567.52226 m 6,0 0,-567.50929 m 6,0.013 0,567.49632 m 6,0 0,-567.48335 m 6,0.013 0,567.47038 m 6,0 0,-567.45742 m 6,0.013 0,567.44445 m 6,0 0,-567.43148 m 6,0.013 0,567.41851 m 6,0 0,-567.40554 m 6,0.013 0,567.39258 m 6,0 0,-567.37961 m 6,0.013 0,567.36664 m 6,0 0,-567.35367 m 6,0.013 0,567.34071 m 6,0 0,-567.32774 m 6,0.013 0,567.31477 m 6,0 0,-567.3018 m 6,0.013 0,567.28883 m 6,0 0,-567.27587 m 6,0.013 0,567.2629 m 6,0 0,-567.24993 m 6,0.013 0,567.23696 m 6,0 0,-567.22399 m 6,0.013 0,567.21103 m 6,0 0,-567.19806 m 6,0.013 0,567.18509 m 6,0 0,-567.17212 m 6,0.013 0,567.15916 m 6,0 0,-567.14619 m 6,0.013 0,567.13322 m 6,0 0,-567.12025 m 6,0.013 0,567.10729 m 6,0 0,-567.09432 m 6,0.013 0,567.08135 m 6,0 0,-567.06838 m 6,0.013 0,567.05541 m 6,0 0,-567.04245 m 6,0.013 0,567.02948 m 6,0 0,-567.01651 m 6,0.013 0,567.00354 m 6,0 0,-566.99058 m 6,0.013 0,566.97761 m 6,0 0,-566.96464 m 6,0.013 0,566.95167 m 6,0 0,-566.9387 m 6,0.013 0,566.92574 m 6,0 0,-566.91277 m 6,0.013 0,566.8998 m 6,0 0,-566.88683 m 6,0.013 0,566.87386 m 6,0 0,-566.8609 m 6,0.013 0,566.84793 m 6,0 0,-566.83496 m 6,0.013 0,566.82199 m 6,0 0,-566.80903 m 6,0.013 0,566.79606 m 6,0 0,-566.78309 m 6,0.013 0,566.77012 m 6,0 0,-566.75715 m 6,0.013 0,566.74419 m 6,0 0,-566.73122 m 6,0.013 0,566.71825 m 6,0 0,-566.70528 m 6,0.013 0,566.69232 m 6,0 0,-566.67935 m 6,0.013 0,566.66638 m 6,0 0,-566.65341 m 6,0.013 0,566.64044 m 6,0 0,-566.62748 m 6,0.013 0,566.61451 m 6,0 0,-566.60154 m 6,0.013 0,566.58857 m 6,0 0,-566.57561 m 6,0.013 0,566.56264 m 6,0 0,-566.54967 m 6,0.013 0,566.5367 m 6,0 0,-566.52373 m 6,0.013 0,566.51077 m 6,0 0,-566.4978 m 6,0.013 0,566.48483 m 6,0 0,-566.47186 m 6,0.013 0,566.4589 m 6,0 0,-566.44593 m 6,0.013 0,566.43296 m 6,0 0,-566.41999 m 6,0.013 0,566.40702 m 6,0 0,-566.39405 m 6,0.013 0,566.38109 m 6,0 0,-566.36812 m 6,0.013 0,566.35515 m 6,0 0,-566.34218 m 6,0.013 0,566.32922 m 6,0 0,-566.31625 m 6,0.013 0,566.30328 m 6,0 0,-566.29031 m 6,0.013 0,566.27735 m 6,0 0,-566.26438 m 6,0.013 0,566.25141 m 6,0 0,-566.23844 m 6,0.013 0,566.22547"
           id="path4160" />
      </g>
    </g>
  </g>
  <g
     inkscape:groupmode="layer"
     id="layer1"
     inkscape:label="3 - Pomegranate"
     style="display:inline"
     sodipodi:insensitive="true">
    <path
       style="fill:none;stroke:#800000;stroke-width:0.94097692;stroke-linecap:round;stroke-linejoin:round;stroke-miterlimit:4;stroke-opacity:1;stroke-dasharray:none;display:inline"
       d="m 1648.4078,387.93034 c 0,0 -0.6661,63.41364 9.8383,74.55198 10.5041,11.13834 4.1401,11.39544 1.904,29.03226 -2.2361,17.63681 18.7243,7.52687 18.7243,7.52687"
       id="path3950-9"
       inkscape:connector-curvature="0"
       sodipodi:nodetypes="czzc" />
    <path
       style="fill:none;stroke:#800000;stroke-width:1;stroke-linecap:round;stroke-linejoin:round;stroke-miterlimit:4;stroke-opacity:1;stroke-dasharray:none;display:inline"
       d="m 1605.8764,559.22963 c 14.235,16.85832 33.4695,62.60265 36.4958,14.69971"
       id="path3970"
       inkscape:connector-curvature="0"
       sodipodi:nodetypes="cc" />
    <path
       style="fill:none;stroke:#800000;stroke-width:1;stroke-linecap:round;stroke-linejoin:round;stroke-miterlimit:4;stroke-opacity:1;stroke-dasharray:none;display:inline"
       d="m 1560.5735,174.91039 c 7.1249,-20.95323 23.8294,-33.39273 51.9714,-40.50179"
       id="path4017"
       inkscape:connector-curvature="0"
       sodipodi:nodetypes="cc" />
    <path
       style="fill:none;stroke:#800000;stroke-width:1.01170933;stroke-linecap:round;stroke-linejoin:round;stroke-miterlimit:4;stroke-opacity:1;stroke-dasharray:none;display:inline"
       d="m 1531.9307,198.20788 c -20.46,0.70066 -62.6488,29.55993 -25.3133,33.33333 -20.7442,16.91192 -68.8842,37.26507 -26.4144,46.23656 -17.2067,20.15645 -11.2607,37.71604 -11.0062,55.91398 -16.3565,11.67151 -36.0564,23.71106 15.0416,27.95699 -22.9987,60.93264 -20.5229,81.10071 13.2068,51.25448 -3.1862,40.42402 -5.7767,80.67569 16.8765,113.62007 -7.9903,19.82924 -3.5778,23.71497 6.9696,19.71327 -2.3325,37.07726 21.0431,20.85503 21.6455,31.18279"
       id="path4021-2"
       inkscape:connector-curvature="0"
       sodipodi:nodetypes="ccccccccc" />
    <path
       style="fill:none;stroke:#800000;stroke-width:1;stroke-linecap:round;stroke-linejoin:round;stroke-miterlimit:4;stroke-opacity:1;stroke-dasharray:none;display:inline"
       d="m 1289.0126,134.56802 c -34.6088,15.23711 -46.2949,26.81634 -17.4876,31.93385 -21.8874,11.40689 -42.8076,23.17012 -39.5372,43.84569"
       id="path4043"
       inkscape:connector-curvature="0"
       sodipodi:nodetypes="ccc" />
    <path
       style="fill:none;stroke:#800000;stroke-width:1;stroke-linecap:round;stroke-linejoin:round;stroke-miterlimit:4;stroke-opacity:1;stroke-dasharray:none;display:inline"
       d="m 1357.1888,333.521 c -7.9697,-8.98342 1.398,-45.74249 13.6859,-55.25063"
       id="path4045"
       inkscape:connector-curvature="0"
       sodipodi:nodetypes="cc" />
    <path
       style="fill:none;stroke:#800000;stroke-width:1;stroke-linecap:round;stroke-linejoin:round;stroke-miterlimit:4;stroke-opacity:1;stroke-dasharray:none;display:inline"
       d="m 1380.2398,381.16834 c -5.2744,28.21546 20.5403,21.04825 16.2203,33.45451 -15.5834,27.92849 -4.0318,32.3349 4.562,36.74928 15.9795,8.30655 8.3753,13.7253 -8.6171,17.99447 -20.7635,1.512 -17.0044,-3.84232 -22.5564,-6.58952"
       id="path4047"
       inkscape:connector-curvature="0"
       sodipodi:nodetypes="ccccc" />
    <path
       style="fill:none;stroke:#800000;stroke-width:1;stroke-linecap:round;stroke-linejoin:round;stroke-miterlimit:4;stroke-opacity:1;stroke-dasharray:none;display:inline"
       d="m 1360.2301,543.62549 c -7.3106,17.77628 51.8079,80.64211 42.5785,27.62532"
       id="path4049"
       inkscape:connector-curvature="0"
       sodipodi:nodetypes="cc" />
    <path
       style="fill:none;stroke:#800000;stroke-width:1;stroke-linecap:round;stroke-linejoin:round;stroke-miterlimit:4;stroke-opacity:1;stroke-dasharray:none;display:inline"
       d="m 1230.7206,384.71655 c -13.3734,7.43434 -36.3092,26.78051 18.7548,22.30301 -24.4415,53.07187 -19.724,93.63498 15.2066,52.46276"
       id="path4051"
       inkscape:connector-curvature="0"
       sodipodi:nodetypes="ccc" />
    <path
       style="fill:none;stroke:#800000;stroke-width:1;stroke-linecap:round;stroke-linejoin:round;stroke-miterlimit:4;stroke-opacity:1;stroke-dasharray:none;display:inline"
       d="m 1061.2903,198.92473 c -23.2658,35.47413 -14.7009,89.7476 17.9212,40.14337 -15.7479,63.52427 5.3067,106.40326 27.957,148.3871 -6.2752,-8.86815 -13.1051,-15.14734 -22.2223,-10.75269"
       id="path4053"
       inkscape:connector-curvature="0"
       sodipodi:nodetypes="cccc" />
    <path
       style="fill:none;stroke:#800000;stroke-width:1;stroke-linecap:round;stroke-linejoin:round;stroke-miterlimit:4;stroke-opacity:1;stroke-dasharray:none;display:inline"
       d="m 894.26523,223.65591 c 24.40838,0.57726 37.83812,26.54759 7.88531,27.59857 35.58288,2.58274 32.3512,23.07989 45.87814,35.84229"
       id="path4055"
       inkscape:connector-curvature="0"
       sodipodi:nodetypes="ccc" />
    <path
       style="fill:none;stroke:#800000;stroke-width:1;stroke-linecap:round;stroke-linejoin:round;stroke-miterlimit:4;stroke-opacity:1;stroke-dasharray:none;display:inline"
       d="m 933.69176,397.49104 c 24.44174,58.85412 -9.03642,55.73147 -21.8638,33.69176 26.58658,56.21514 -29.40726,138.40287 -25.80645,144.08602 5.26076,-13.46146 21.74151,-14.65948 22.58064,-7.52688"
       id="path4057"
       inkscape:connector-curvature="0"
       sodipodi:nodetypes="cccc" />
    <path
       style="fill:none;stroke:#800000;stroke-width:1;stroke-linecap:round;stroke-linejoin:round;stroke-miterlimit:4;stroke-opacity:1;stroke-dasharray:none;display:inline"
       d="m 1097.8495,567.74194 c -3.919,6.33291 -22.9627,-3.10791 -21.5054,-10.39427 11.0479,63.68483 -7.544,74.28766 -30.1075,77.77778 22.3811,11.83892 66.966,16.38229 26.8817,48.74552"
       id="path4059"
       inkscape:connector-curvature="0"
       sodipodi:nodetypes="cccc" />
    <path
       style="fill:none;stroke:#800000;stroke-width:1;stroke-linecap:round;stroke-linejoin:round;stroke-miterlimit:4;stroke-opacity:1;stroke-dasharray:none;display:inline"
       d="m 223.91874,172.93906 c -23.2658,35.47413 -14.7009,89.7476 17.9212,40.14337 -15.7479,63.52427 5.3067,106.40326 27.957,148.3871 -6.2752,-8.86815 -13.1051,-15.14734 -22.2223,-10.75269"
       id="path4053-4"
       inkscape:connector-curvature="0"
       sodipodi:nodetypes="cccc" />
    <path
       style="fill:none;stroke:#800000;stroke-width:1;stroke-linecap:round;stroke-linejoin:round;stroke-miterlimit:4;stroke-opacity:1;stroke-dasharray:none;display:inline"
       d="m 56.893674,197.67024 c 24.40838,0.57726 37.83812,26.54759 7.88531,27.59857 35.582876,2.58274 32.3512,23.07989 45.878136,35.84229"
       id="path4055-5"
       inkscape:connector-curvature="0"
       sodipodi:nodetypes="ccc" />
    <path
       style="fill:none;stroke:#800000;stroke-width:1;stroke-linecap:round;stroke-linejoin:round;stroke-miterlimit:4;stroke-opacity:1;stroke-dasharray:none;display:inline"
       d="m 96.320204,371.50537 c 24.441736,58.85412 -9.03642,55.73147 -21.8638,33.69176 26.586576,56.21514 -29.40726,138.40287 -25.80645,144.08602 5.26076,-13.46146 21.74151,-14.65948 22.58064,-7.52688"
       id="path4057-5"
       inkscape:connector-curvature="0"
       sodipodi:nodetypes="cccc" />
    <path
       style="fill:none;stroke:#800000;stroke-width:1;stroke-linecap:round;stroke-linejoin:round;stroke-miterlimit:4;stroke-opacity:1;stroke-dasharray:none;display:inline"
       d="m 260.47794,541.75627 c -3.919,6.33291 -22.9627,-3.10791 -21.5054,-10.39427 11.0479,63.68483 -7.544,74.28766 -30.1075,77.77778 22.3811,11.83892 66.966,16.38229 26.8817,48.74552"
       id="path4059-1"
       inkscape:connector-curvature="0"
       sodipodi:nodetypes="cccc" />
    <path
       style="fill:none;stroke:#800000;stroke-width:1.00416124;stroke-linecap:round;stroke-linejoin:round;stroke-miterlimit:4;stroke-opacity:1;stroke-dasharray:none;display:inline"
       d="m 562.40695,171.50537 c 23.45983,35.47413 14.82348,89.7476 -18.07067,40.14337 15.87924,63.52427 -5.35098,106.40326 -28.19017,148.3871 6.32754,-8.86815 13.21442,-15.14734 22.40764,-10.75269"
       id="path4053-7"
       inkscape:connector-curvature="0"
       sodipodi:nodetypes="cccc" />
    <path
       style="fill:none;stroke:#800000;stroke-width:1.00416124;stroke-linecap:round;stroke-linejoin:round;stroke-miterlimit:4;stroke-opacity:1;stroke-dasharray:none;display:inline"
       d="m 730.82496,196.23655 c -24.61195,0.57726 -38.15368,26.54759 -7.95107,27.59857 -35.87964,2.58274 -32.62102,23.07989 -46.26075,35.84229"
       id="path4055-1"
       inkscape:connector-curvature="0"
       sodipodi:nodetypes="ccc" />
    <path
       style="fill:none;stroke:#800000;stroke-width:1.00416124;stroke-linecap:round;stroke-linejoin:round;stroke-miterlimit:4;stroke-opacity:1;stroke-dasharray:none;display:inline"
       d="m 691.06964,370.07168 c -24.64558,58.85412 9.11177,55.73147 22.04611,33.69176 -26.80829,56.21514 29.65254,138.40287 26.0217,144.08602 -5.30465,-13.46146 -21.92285,-14.65948 -22.76898,-7.52688"
       id="path4057-1"
       inkscape:connector-curvature="0"
       sodipodi:nodetypes="cccc" />
    <path
       style="fill:none;stroke:#800000;stroke-width:1.00416124;stroke-linecap:round;stroke-linejoin:round;stroke-miterlimit:4;stroke-opacity:1;stroke-dasharray:none;display:inline"
       d="m 525.54284,540.32258 c 3.95168,6.33291 23.1542,-3.10791 21.68474,-10.39427 -11.14003,63.68483 7.60693,74.28766 30.3586,77.77778 -22.56777,11.83892 -67.52447,16.38229 -27.10589,48.74552"
       id="path4059-5"
       inkscape:connector-curvature="0"
       sodipodi:nodetypes="cccc" />
    <path
       style="fill:none;stroke:#800000;stroke-width:0.94097692;stroke-linecap:round;stroke-linejoin:round;stroke-miterlimit:4;stroke-opacity:1;stroke-dasharray:none;display:inline"
       d="m 1648.4456,387.74218 c 0,0 -0.6661,63.41364 9.8383,74.55198 10.5041,11.13834 4.1401,11.39544 1.904,29.03226 -2.2361,17.63681 18.7243,7.52687 18.7243,7.52687"
       id="path3950-9-1"
       inkscape:connector-curvature="0"
       sodipodi:nodetypes="czzc" />
    <path
       style="fill:none;stroke:#800000;stroke-width:1;stroke-linecap:round;stroke-linejoin:round;stroke-miterlimit:4;stroke-opacity:1;stroke-dasharray:none;display:inline"
       d="m 1605.9142,559.04147 c 14.235,16.85832 33.4695,62.60265 36.4958,14.69971"
       id="path3970-8"
       inkscape:connector-curvature="0"
       sodipodi:nodetypes="cc" />
    <path
       style="fill:none;stroke:#800000;stroke-width:1;stroke-linecap:round;stroke-linejoin:round;stroke-miterlimit:4;stroke-opacity:1;stroke-dasharray:none;display:inline"
       d="m 1560.6113,174.72223 c 7.1249,-20.95323 23.8294,-33.39273 51.9714,-40.50179"
       id="path4017-5"
       inkscape:connector-curvature="0"
       sodipodi:nodetypes="cc" />
    <path
       style="fill:none;stroke:#800000;stroke-width:1.01170933;stroke-linecap:round;stroke-linejoin:round;stroke-miterlimit:4;stroke-opacity:1;stroke-dasharray:none;display:inline"
       d="m 1531.9685,198.01972 c -20.46,0.70066 -62.6488,29.55993 -25.3133,33.33333 -20.7442,16.91192 -68.8842,37.26507 -26.4144,46.23656 -17.2067,20.15645 -11.2607,37.71604 -11.0062,55.91398 -16.3565,11.67151 -36.0564,23.71106 15.0416,27.95699 -22.9987,60.93264 -20.5229,81.10071 13.2068,51.25448 -3.1862,40.42402 -5.7767,80.67569 16.8765,113.62007 -7.9903,19.82924 -3.5778,23.71497 6.9696,19.71327 -2.3325,37.07726 21.0431,20.85503 21.6455,31.18279"
       id="path4021-2-1"
       inkscape:connector-curvature="0"
       sodipodi:nodetypes="ccccccccc" />
    <path
       style="fill:none;stroke:#800000;stroke-width:1;stroke-linecap:round;stroke-linejoin:round;stroke-miterlimit:4;stroke-opacity:1;stroke-dasharray:none;display:inline"
       d="m 1289.0504,134.37986 c -34.6088,15.23711 -46.2949,26.81634 -17.4876,31.93385 -21.8874,11.40689 -42.8076,23.17012 -39.5372,43.84569"
       id="path4043-23"
       inkscape:connector-curvature="0"
       sodipodi:nodetypes="ccc" />
    <path
       style="fill:none;stroke:#800000;stroke-width:1;stroke-linecap:round;stroke-linejoin:round;stroke-miterlimit:4;stroke-opacity:1;stroke-dasharray:none;display:inline"
       d="m 1357.2266,333.33284 c -7.9697,-8.98342 1.398,-45.74249 13.6859,-55.25063"
       id="path4045-3"
       inkscape:connector-curvature="0"
       sodipodi:nodetypes="cc" />
    <path
       style="fill:none;stroke:#800000;stroke-width:1;stroke-linecap:round;stroke-linejoin:round;stroke-miterlimit:4;stroke-opacity:1;stroke-dasharray:none;display:inline"
       d="m 1380.2776,380.98018 c -5.2744,28.21546 20.5403,21.04825 16.2203,33.45451 -15.5834,27.92849 -4.0318,32.3349 4.562,36.74928 15.9795,8.30655 8.3753,13.7253 -8.6171,17.99447 -20.7635,1.512 -17.0044,-3.84232 -22.5564,-6.58952"
       id="path4047-4"
       inkscape:connector-curvature="0"
       sodipodi:nodetypes="ccccc" />
    <path
       style="fill:none;stroke:#800000;stroke-width:1;stroke-linecap:round;stroke-linejoin:round;stroke-miterlimit:4;stroke-opacity:1;stroke-dasharray:none;display:inline"
       d="m 1360.2679,543.43733 c -7.3106,17.77628 51.8079,80.64211 42.5785,27.62532"
       id="path4049-11"
       inkscape:connector-curvature="0"
       sodipodi:nodetypes="cc" />
    <path
       style="fill:none;stroke:#800000;stroke-width:1;stroke-linecap:round;stroke-linejoin:round;stroke-miterlimit:4;stroke-opacity:1;stroke-dasharray:none;display:inline"
       d="m 1230.7584,384.52839 c -13.3734,7.43434 -36.3092,26.78051 18.7548,22.30301 -24.4415,53.07187 -19.724,93.63498 15.2066,52.46276"
       id="path4051-3"
       inkscape:connector-curvature="0"
       sodipodi:nodetypes="ccc" />
    <path
       style="fill:none;stroke:#800000;stroke-width:1;stroke-linecap:round;stroke-linejoin:round;stroke-miterlimit:4;stroke-opacity:1;stroke-dasharray:none;display:inline"
       d="m 1061.3281,198.73657 c -23.2658,35.47413 -14.7009,89.7476 17.9212,40.14337 -15.7479,63.52427 5.3067,106.40326 27.957,148.3871 -6.2752,-8.86815 -13.1051,-15.14734 -22.2223,-10.75269"
       id="path4053-8"
       inkscape:connector-curvature="0"
       sodipodi:nodetypes="cccc" />
    <path
       style="fill:none;stroke:#800000;stroke-width:1;stroke-linecap:round;stroke-linejoin:round;stroke-miterlimit:4;stroke-opacity:1;stroke-dasharray:none;display:inline"
       d="m 894.30307,223.46775 c 24.40838,0.57726 37.83808,26.54759 7.88531,27.59857 35.58287,2.58274 32.35117,23.07989 45.87817,35.84229"
       id="path4055-7"
       inkscape:connector-curvature="0"
       sodipodi:nodetypes="ccc" />
    <path
       style="fill:none;stroke:#800000;stroke-width:1;stroke-linecap:round;stroke-linejoin:round;stroke-miterlimit:4;stroke-opacity:1;stroke-dasharray:none;display:inline"
       d="m 933.72965,397.30288 c 24.4417,58.85412 -9.0365,55.73147 -21.86385,33.69176 26.58655,56.21514 -29.40726,138.40287 -25.80645,144.08602 5.26076,-13.46146 21.74151,-14.65948 22.58064,-7.52688"
       id="path4057-4"
       inkscape:connector-curvature="0"
       sodipodi:nodetypes="cccc" />
    <path
       style="fill:none;stroke:#800000;stroke-width:1;stroke-linecap:round;stroke-linejoin:round;stroke-miterlimit:4;stroke-opacity:1;stroke-dasharray:none;display:inline"
       d="m 1097.8873,567.55378 c -3.919,6.33291 -22.9627,-3.10791 -21.5054,-10.39427 11.0479,63.68483 -7.544,74.28766 -30.1075,77.77778 22.3811,11.83892 66.966,16.38229 26.8817,48.74552"
       id="path4059-27"
       inkscape:connector-curvature="0"
       sodipodi:nodetypes="cccc" />
    <path
       style="fill:none;stroke:#800000;stroke-width:1;stroke-linecap:round;stroke-linejoin:round;stroke-miterlimit:4;stroke-opacity:1;stroke-dasharray:none;display:inline"
       d="m 223.95658,172.7509 c -23.2658,35.47413 -14.7009,89.7476 17.9212,40.14337 -15.7479,63.52427 5.3067,106.40326 27.957,148.3871 -6.2752,-8.86815 -13.1051,-15.14734 -22.2223,-10.75269"
       id="path4053-4-7"
       inkscape:connector-curvature="0"
       sodipodi:nodetypes="cccc" />
    <path
       style="fill:none;stroke:#800000;stroke-width:1;stroke-linecap:round;stroke-linejoin:round;stroke-miterlimit:4;stroke-opacity:1;stroke-dasharray:none;display:inline"
       d="m 56.931502,197.48208 c 24.40838,0.57726 37.83812,26.54759 7.88531,27.59857 35.582878,2.58274 32.3512,23.07989 45.878148,35.84229"
       id="path4055-5-9"
       inkscape:connector-curvature="0"
       sodipodi:nodetypes="ccc" />
    <path
       style="fill:none;stroke:#800000;stroke-width:1;stroke-linecap:round;stroke-linejoin:round;stroke-miterlimit:4;stroke-opacity:1;stroke-dasharray:none;display:inline"
       d="m 96.358032,371.31721 c 24.441748,58.85412 -9.03642,55.73147 -21.8638,33.69176 26.586578,56.21514 -29.40726,138.40287 -25.80645,144.08602 5.26076,-13.46146 21.74151,-14.65948 22.58064,-7.52688"
       id="path4057-5-3"
       inkscape:connector-curvature="0"
       sodipodi:nodetypes="cccc" />
    <path
       style="fill:none;stroke:#800000;stroke-width:1;stroke-linecap:round;stroke-linejoin:round;stroke-miterlimit:4;stroke-opacity:1;stroke-dasharray:none;display:inline"
       d="m 260.51578,541.56811 c -3.919,6.33291 -22.9627,-3.10791 -21.5054,-10.39427 11.0479,63.68483 -7.544,74.28766 -30.1075,77.77778 22.3811,11.83892 66.966,16.38229 26.8817,48.74552"
       id="path4059-1-1"
       inkscape:connector-curvature="0"
       sodipodi:nodetypes="cccc" />
    <path
       style="fill:none;stroke:#800000;stroke-width:1.00416124;stroke-linecap:round;stroke-linejoin:round;stroke-miterlimit:4;stroke-opacity:1;stroke-dasharray:none;display:inline"
       d="m 562.44479,171.31721 c 23.45983,35.47413 14.82348,89.7476 -18.07067,40.14337 15.87924,63.52427 -5.35098,106.40326 -28.19017,148.3871 6.32754,-8.86815 13.21442,-15.14734 22.40764,-10.75269"
       id="path4053-7-9"
       inkscape:connector-curvature="0"
       sodipodi:nodetypes="cccc" />
    <path
       style="fill:none;stroke:#800000;stroke-width:1.00416124;stroke-linecap:round;stroke-linejoin:round;stroke-miterlimit:4;stroke-opacity:1;stroke-dasharray:none;display:inline"
       d="m 730.8628,196.04839 c -24.61195,0.57726 -38.15368,26.54759 -7.95107,27.59857 -35.87964,2.58274 -32.62102,23.07989 -46.26075,35.84229"
       id="path4055-1-8"
       inkscape:connector-curvature="0"
       sodipodi:nodetypes="ccc" />
    <path
       style="fill:none;stroke:#800000;stroke-width:1.00416124;stroke-linecap:round;stroke-linejoin:round;stroke-miterlimit:4;stroke-opacity:1;stroke-dasharray:none;display:inline"
       d="m 691.10748,369.88352 c -24.64558,58.85412 9.11177,55.73147 22.04611,33.69176 -26.80829,56.21514 29.65254,138.40287 26.0217,144.08602 -5.30465,-13.46146 -21.92285,-14.65948 -22.76898,-7.52688"
       id="path4057-1-6"
       inkscape:connector-curvature="0"
       sodipodi:nodetypes="cccc" />
    <path
       style="fill:none;stroke:#800000;stroke-width:1.00416124;stroke-linecap:round;stroke-linejoin:round;stroke-miterlimit:4;stroke-opacity:1;stroke-dasharray:none;display:inline"
       d="m 525.58068,540.13442 c 3.95168,6.33291 23.1542,-3.10791 21.68474,-10.39427 -11.14003,63.68483 7.60693,74.28766 30.3586,77.77778 -22.56777,11.83892 -67.52447,16.38229 -27.10589,48.74552"
       id="path4059-5-5"
       inkscape:connector-curvature="0"
       sodipodi:nodetypes="cccc" />
    <path
       sodipodi:nodetypes="cc"
       inkscape:connector-curvature="0"
       id="path3880"
       d="m 2350.2715,354.64611 c 15.5813,16.53185 32.5514,42.36405 -21.0358,40.29748"
       style="fill:none;stroke:#800000;stroke-width:1;stroke-linecap:round;stroke-linejoin:round;stroke-miterlimit:4;stroke-opacity:1;stroke-dasharray:none;display:inline" />
    <path
       style="fill:none;stroke:#800000;stroke-width:1;stroke-linecap:round;stroke-linejoin:round;stroke-miterlimit:4;stroke-opacity:1;stroke-dasharray:none;display:inline"
       d="m 2383.1542,391.75627 c 0,0 0.7522,63.41364 -11.1112,74.55198 -11.8634,11.13834 -4.6759,11.39544 -2.1505,29.03226 2.5254,17.63681 -21.1469,7.52687 -21.1469,7.52687"
       id="path3950"
       inkscape:connector-curvature="0"
       sodipodi:nodetypes="czzc" />
    <path
       style="fill:none;stroke:#800000;stroke-width:0.97956753;stroke-linecap:round;stroke-linejoin:round;stroke-miterlimit:4;stroke-opacity:1;stroke-dasharray:none;display:inline"
       d="m 2399.1055,546.50983 c -13.6592,16.85832 -32.1157,62.60265 -35.0196,14.69971"
       id="path3970-4"
       inkscape:connector-curvature="0"
       sodipodi:nodetypes="cc" />
    <path
       style="fill:none;stroke:#800000;stroke-width:1;stroke-linecap:round;stroke-linejoin:round;stroke-miterlimit:4;stroke-opacity:1;stroke-dasharray:none;display:inline"
       d="m 2387.8136,135.12545 c 26.7237,2.68622 49.6803,11.02313 63.0824,33.69175"
       id="path4019"
       inkscape:connector-curvature="0"
       sodipodi:nodetypes="cc" />
    <path
       style="fill:none;stroke:#800000;stroke-width:1;stroke-linecap:round;stroke-linejoin:round;stroke-miterlimit:4;stroke-opacity:1;stroke-dasharray:none;display:inline"
       d="m 2477.0609,203.94265 c 19.9892,0.70066 61.2074,29.55993 24.7312,33.33333 20.2668,16.91192 67.2986,37.26507 25.8065,46.23656 16.8102,20.15645 11.0014,37.71604 10.7526,55.91398 15.9801,11.67151 35.2266,23.71106 -14.6953,27.95699 22.4692,60.93264 20.0505,81.10071 -12.9032,51.25448 3.1127,40.42402 5.6436,80.67569 -16.4875,113.62007 7.8062,19.82924 3.4953,23.71497 -6.81,19.71327 2.2794,37.07726 -20.5582,20.85503 -21.147,31.18279"
       id="path4021"
       inkscape:connector-curvature="0"
       sodipodi:nodetypes="ccccccccc" />
    <path
       style="fill:none;stroke:#800000;stroke-width:1.00204015;stroke-linecap:round;stroke-linejoin:round;stroke-miterlimit:4;stroke-opacity:1;stroke-dasharray:none;display:inline"
       d="m 2714.7359,133.3823 c 34.7504,15.23711 46.4841,26.81634 17.559,31.93385 21.9766,11.40689 42.9826,23.17012 39.6988,43.84569"
       id="path4043-2"
       inkscape:connector-curvature="0"
       sodipodi:nodetypes="ccc" />
    <path
       style="fill:none;stroke:#800000;stroke-width:1.00204015;stroke-linecap:round;stroke-linejoin:round;stroke-miterlimit:4;stroke-opacity:1;stroke-dasharray:none;display:inline"
       d="m 2646.2812,332.33528 c 8.0024,-8.98342 -1.4036,-45.74249 -13.7419,-55.25063"
       id="path4045-7"
       inkscape:connector-curvature="0"
       sodipodi:nodetypes="cc" />
    <path
       style="fill:none;stroke:#800000;stroke-width:1.00204015;stroke-linecap:round;stroke-linejoin:round;stroke-miterlimit:4;stroke-opacity:1;stroke-dasharray:none;display:inline"
       d="m 2622.9665,388.58477 c 5.2957,28.21546 -20.6244,21.04825 -16.2867,33.45451 15.647,27.92849 4.0482,32.3349 -4.5807,36.74928 -16.0449,8.30655 -8.4095,13.7253 8.6522,17.99447 20.8485,1.512 17.0738,-3.84232 22.6489,-6.58952"
       id="path4047-6"
       inkscape:connector-curvature="0"
       sodipodi:nodetypes="ccccc" />
    <path
       style="fill:none;stroke:#800000;stroke-width:1.00204015;stroke-linecap:round;stroke-linejoin:round;stroke-miterlimit:4;stroke-opacity:1;stroke-dasharray:none;display:inline"
       d="m 2643.2274,542.43977 c 7.3406,17.77628 -52.0196,80.64211 -42.7523,27.62532"
       id="path4049-1"
       inkscape:connector-curvature="0"
       sodipodi:nodetypes="cc" />
    <path
       style="fill:none;stroke:#800000;stroke-width:1.00204015;stroke-linecap:round;stroke-linejoin:round;stroke-miterlimit:4;stroke-opacity:1;stroke-dasharray:none;display:inline"
       d="m 2773.2661,383.53083 c 13.428,7.43434 36.4573,26.78051 -18.8315,22.30301 24.5413,53.07187 19.8045,93.63498 -15.2687,52.46276"
       id="path4051-4"
       inkscape:connector-curvature="0"
       sodipodi:nodetypes="ccc" />
    <path
       style="fill:none;stroke:#800000;stroke-width:1.00204015;stroke-linecap:round;stroke-linejoin:round;stroke-miterlimit:4;stroke-opacity:1;stroke-dasharray:none;display:inline"
       d="m 2943.3883,197.73901 c 23.3607,35.47413 14.7611,89.7476 -17.9944,40.14337 15.8121,63.52427 -5.3284,106.40326 -28.071,148.3871 6.3006,-8.86815 13.1586,-15.14734 22.313,-10.75269"
       id="path4053-2"
       inkscape:connector-curvature="0"
       sodipodi:nodetypes="cccc" />
    <path
       style="fill:none;stroke:#800000;stroke-width:1.00204015;stroke-linecap:round;stroke-linejoin:round;stroke-miterlimit:4;stroke-opacity:1;stroke-dasharray:none;display:inline"
       d="m 3111.0954,222.47019 c -24.5078,0.57726 -37.9926,26.54759 -7.9174,27.59857 -35.728,2.58274 -32.4832,23.07989 -46.0654,35.84229"
       id="path4055-3"
       inkscape:connector-curvature="0"
       sodipodi:nodetypes="ccc" />
    <path
       style="fill:none;stroke:#800000;stroke-width:1.00204015;stroke-linecap:round;stroke-linejoin:round;stroke-miterlimit:4;stroke-opacity:1;stroke-dasharray:none;display:inline"
       d="m 3071.5081,396.30532 c -24.5418,58.85412 9.0733,55.73147 21.9529,33.69176 -26.695,56.21514 29.5276,138.40287 25.912,144.08602 -5.2823,-13.46146 -21.8302,-14.65948 -22.673,-7.52688"
       id="path4057-2"
       inkscape:connector-curvature="0"
       sodipodi:nodetypes="cccc" />
    <path
       style="fill:none;stroke:#800000;stroke-width:1.00204015;stroke-linecap:round;stroke-linejoin:round;stroke-miterlimit:4;stroke-opacity:1;stroke-dasharray:none;display:inline"
       d="m 2906.6799,566.55622 c 3.9348,6.33291 23.0566,-3.10791 21.593,-10.39427 -11.0929,63.68483 7.575,74.28766 30.2309,77.77778 -22.4729,11.83892 -67.2398,16.38229 -26.9919,48.74552"
       id="path4059-2"
       inkscape:connector-curvature="0"
       sodipodi:nodetypes="cccc" />
    <path
       sodipodi:nodetypes="cc"
       inkscape:connector-curvature="0"
       id="path3880-8"
       d="m 2350.3093,354.45795 c 15.5813,16.53185 32.5514,42.36405 -21.0358,40.29748"
       style="fill:none;stroke:#800000;stroke-width:1;stroke-linecap:round;stroke-linejoin:round;stroke-miterlimit:4;stroke-opacity:1;stroke-dasharray:none;display:inline" />
    <path
       style="fill:none;stroke:#800000;stroke-width:1;stroke-linecap:round;stroke-linejoin:round;stroke-miterlimit:4;stroke-opacity:1;stroke-dasharray:none;display:inline"
       d="m 2383.192,391.56811 c 0,0 0.7522,63.41364 -11.1112,74.55198 -11.8634,11.13834 -4.6759,11.39544 -2.1505,29.03226 2.5254,17.63681 -21.1469,7.52687 -21.1469,7.52687"
       id="path3950-6"
       inkscape:connector-curvature="0"
       sodipodi:nodetypes="czzc" />
    <path
       style="fill:none;stroke:#800000;stroke-width:0.97956753;stroke-linecap:round;stroke-linejoin:round;stroke-miterlimit:4;stroke-opacity:1;stroke-dasharray:none;display:inline"
       d="m 2399.1433,546.32167 c -13.6592,16.85832 -32.1157,62.60265 -35.0196,14.69971"
       id="path3970-4-2"
       inkscape:connector-curvature="0"
       sodipodi:nodetypes="cc" />
    <path
       style="fill:none;stroke:#800000;stroke-width:1;stroke-linecap:round;stroke-linejoin:round;stroke-miterlimit:4;stroke-opacity:1;stroke-dasharray:none;display:inline"
       d="m 2387.8514,134.93729 c 26.7237,2.68622 49.6803,11.02313 63.0824,33.69175"
       id="path4019-4"
       inkscape:connector-curvature="0"
       sodipodi:nodetypes="cc" />
    <path
       style="fill:none;stroke:#800000;stroke-width:1;stroke-linecap:round;stroke-linejoin:round;stroke-miterlimit:4;stroke-opacity:1;stroke-dasharray:none;display:inline"
       d="m 2477.0987,203.75449 c 19.9892,0.70066 61.2074,29.55993 24.7312,33.33333 20.2668,16.91192 67.2986,37.26507 25.8065,46.23656 16.8102,20.15645 11.0014,37.71604 10.7526,55.91398 15.9801,11.67151 35.2266,23.71106 -14.6953,27.95699 22.4692,60.93264 20.0505,81.10071 -12.9032,51.25448 3.1127,40.42402 5.6436,80.67569 -16.4875,113.62007 7.8062,19.82924 3.4953,23.71497 -6.81,19.71327 2.2794,37.07726 -20.5582,20.85503 -21.147,31.18279"
       id="path4021-3"
       inkscape:connector-curvature="0"
       sodipodi:nodetypes="ccccccccc" />
    <path
       style="fill:none;stroke:#800000;stroke-width:1.00204015;stroke-linecap:round;stroke-linejoin:round;stroke-miterlimit:4;stroke-opacity:1;stroke-dasharray:none;display:inline"
       d="m 2714.7737,133.19414 c 34.7504,15.23711 46.4841,26.81634 17.559,31.93385 21.9766,11.40689 42.9826,23.17012 39.6988,43.84569"
       id="path4043-2-0"
       inkscape:connector-curvature="0"
       sodipodi:nodetypes="ccc" />
    <path
       style="fill:none;stroke:#800000;stroke-width:1.00204015;stroke-linecap:round;stroke-linejoin:round;stroke-miterlimit:4;stroke-opacity:1;stroke-dasharray:none;display:inline"
       d="m 2646.319,332.14712 c 8.0024,-8.98342 -1.4036,-45.74249 -13.7419,-55.25063"
       id="path4045-7-2"
       inkscape:connector-curvature="0"
       sodipodi:nodetypes="cc" />
    <path
       style="fill:none;stroke:#800000;stroke-width:1.00204015;stroke-linecap:round;stroke-linejoin:round;stroke-miterlimit:4;stroke-opacity:1;stroke-dasharray:none;display:inline"
       d="m 2623.0043,388.39661 c 5.2957,28.21546 -20.6244,21.04825 -16.2867,33.45451 15.647,27.92849 4.0482,32.3349 -4.5807,36.74928 -16.0449,8.30655 -8.4095,13.7253 8.6522,17.99447 20.8485,1.512 17.0738,-3.84232 22.6489,-6.58952"
       id="path4047-6-8"
       inkscape:connector-curvature="0"
       sodipodi:nodetypes="ccccc" />
    <path
       style="fill:none;stroke:#800000;stroke-width:1.00204015;stroke-linecap:round;stroke-linejoin:round;stroke-miterlimit:4;stroke-opacity:1;stroke-dasharray:none;display:inline"
       d="m 2643.2652,542.25161 c 7.3406,17.77628 -52.0196,80.64211 -42.7523,27.62532"
       id="path4049-1-6"
       inkscape:connector-curvature="0"
       sodipodi:nodetypes="cc" />
    <path
       style="fill:none;stroke:#800000;stroke-width:1.00204015;stroke-linecap:round;stroke-linejoin:round;stroke-miterlimit:4;stroke-opacity:1;stroke-dasharray:none;display:inline"
       d="m 2773.3039,383.34267 c 13.428,7.43434 36.4573,26.78051 -18.8315,22.30301 24.5413,53.07187 19.8045,93.63498 -15.2687,52.46276"
       id="path4051-4-0"
       inkscape:connector-curvature="0"
       sodipodi:nodetypes="ccc" />
    <path
       style="fill:none;stroke:#800000;stroke-width:1.00204015;stroke-linecap:round;stroke-linejoin:round;stroke-miterlimit:4;stroke-opacity:1;stroke-dasharray:none;display:inline"
       d="m 2943.4261,197.55085 c 23.3607,35.47413 14.7611,89.7476 -17.9944,40.14337 15.8121,63.52427 -5.3284,106.40326 -28.071,148.3871 6.3006,-8.86815 13.1586,-15.14734 22.313,-10.75269"
       id="path4053-2-2"
       inkscape:connector-curvature="0"
       sodipodi:nodetypes="cccc" />
    <path
       style="fill:none;stroke:#800000;stroke-width:1.00204015;stroke-linecap:round;stroke-linejoin:round;stroke-miterlimit:4;stroke-opacity:1;stroke-dasharray:none;display:inline"
       d="m 3111.1332,222.28203 c -24.5078,0.57726 -37.9926,26.54759 -7.9174,27.59857 -35.728,2.58274 -32.4832,23.07989 -46.0654,35.84229"
       id="path4055-3-4"
       inkscape:connector-curvature="0"
       sodipodi:nodetypes="ccc" />
    <path
       style="fill:none;stroke:#800000;stroke-width:1.00204015;stroke-linecap:round;stroke-linejoin:round;stroke-miterlimit:4;stroke-opacity:1;stroke-dasharray:none;display:inline"
       d="m 3071.5459,396.11716 c -24.5418,58.85412 9.0733,55.73147 21.9529,33.69176 -26.695,56.21514 29.5276,138.40287 25.912,144.08602 -5.2823,-13.46146 -21.8302,-14.65948 -22.673,-7.52688"
       id="path4057-2-8"
       inkscape:connector-curvature="0"
       sodipodi:nodetypes="cccc" />
    <path
       style="fill:none;stroke:#800000;stroke-width:1.00204015;stroke-linecap:round;stroke-linejoin:round;stroke-miterlimit:4;stroke-opacity:1;stroke-dasharray:none;display:inline"
       d="m 2906.7177,566.36806 c 3.9348,6.33291 23.0566,-3.10791 21.593,-10.39427 -11.0929,63.68483 7.575,74.28766 30.2309,77.77778 -22.4729,11.83892 -67.2398,16.38229 -26.9919,48.74552"
       id="path4059-2-6"
       inkscape:connector-curvature="0"
       sodipodi:nodetypes="cccc" />
    <path
       style="fill:none;stroke:#800000;stroke-width:1;stroke-linecap:round;stroke-linejoin:round;stroke-miterlimit:4;stroke-opacity:1;stroke-dasharray:none;display:inline"
       d="m 1720.1719,530.19299 c -10.1774,10.85693 -50.9461,27.42014 16.7272,24.83745 -38.5813,83.26583 1.4009,76.14106 10.1378,53.22309 l 1.5206,25.34433"
       id="path3972"
       inkscape:connector-curvature="0"
       sodipodi:nodetypes="cccc" />
    <path
       style="fill:none;stroke:#800000;stroke-width:0.97956753;stroke-linecap:round;stroke-linejoin:round;stroke-miterlimit:4;stroke-opacity:1;stroke-dasharray:none;display:inline"
       d="m 2307.897,528.94273 c 9.7658,10.85693 48.8855,27.42014 -16.0505,24.83745 37.0207,83.26583 -1.3442,76.14106 -9.7278,53.22309 l -1.4591,25.34433"
       id="path3972-8"
       inkscape:connector-curvature="0"
       sodipodi:nodetypes="cccc" />
    <path
       style="fill:none;stroke:#800000;stroke-width:1;stroke-linecap:round;stroke-linejoin:round;stroke-miterlimit:4;stroke-opacity:1;stroke-dasharray:none;display:inline"
       d="m 1845.5197,652.68817 c 45.7306,16.99042 90.3839,46.00267 139.4265,45.16129 49.0426,-0.84138 20.8233,-9.64919 10.7527,-29.03226 56.5927,64.00876 101.5952,-1.9254 161.6488,-14.69534"
       id="path4015"
       inkscape:connector-curvature="0"
       sodipodi:nodetypes="czcc" />
    <path
       style="fill:none;stroke:#800000;stroke-width:1;stroke-linecap:round;stroke-linejoin:round;stroke-miterlimit:4;stroke-opacity:1;stroke-dasharray:none;display:inline"
       d="m 1720.2097,530.00483 c -10.1774,10.85693 -50.9461,27.42014 16.7272,24.83745 -38.5813,83.26583 1.4009,76.14106 10.1378,53.22309 l 1.5206,25.34433"
       id="path3972-9"
       inkscape:connector-curvature="0"
       sodipodi:nodetypes="cccc" />
    <path
       style="fill:none;stroke:#800000;stroke-width:0.97956753;stroke-linecap:round;stroke-linejoin:round;stroke-miterlimit:4;stroke-opacity:1;stroke-dasharray:none;display:inline"
       d="m 2307.9348,528.75457 c 9.7658,10.85693 48.8855,27.42014 -16.0505,24.83745 37.0207,83.26583 -1.3442,76.14106 -9.7278,53.22309 l -1.4591,25.34433"
       id="path3972-8-7"
       inkscape:connector-curvature="0"
       sodipodi:nodetypes="cccc" />
    <path
       style="fill:none;stroke:#800000;stroke-width:1;stroke-linecap:round;stroke-linejoin:round;stroke-miterlimit:4;stroke-opacity:1;stroke-dasharray:none;display:inline"
       d="m 1845.5575,652.50001 c 45.7306,16.99042 90.3839,46.00267 139.4265,45.16129 49.0426,-0.84138 20.8233,-9.64919 10.7527,-29.03226 56.5927,64.00876 101.5952,-1.9254 161.6488,-14.69534"
       id="path4015-9"
       inkscape:connector-curvature="0"
       sodipodi:nodetypes="czcc" />
    <path
       sodipodi:nodetypes="cc"
       inkscape:connector-curvature="0"
       id="path3878"
       d="m 1698.3309,365.43481 c -19.1833,23.40935 -26.2376,42.87447 25.0909,45.1129"
       style="fill:none;stroke:#800000;stroke-width:1;stroke-linecap:round;stroke-linejoin:round;stroke-miterlimit:4;stroke-opacity:1;stroke-dasharray:none;display:inline" />
    <path
       style="fill:none;stroke:#800000;stroke-width:1.14167988;stroke-linecap:round;stroke-linejoin:round;stroke-miterlimit:4;stroke-opacity:1;stroke-dasharray:none;display:inline"
       d="m 1751.1763,144.25027 c 0,0 -80.2672,40.75574 -98.1078,14.33692 -17.8408,-26.41883 -38.8798,3.786 -23.359,16.48745 l 14.0153,11.46953 c -41.6451,0.6466 -49.8661,18.0938 -56.0617,36.55914 -29.1661,2.65395 -54.6471,9.18182 -34.1041,-22.58064"
       id="path3930"
       inkscape:connector-curvature="0"
       sodipodi:nodetypes="czsccc" />
    <path
       style="fill:none;stroke:#800000;stroke-width:1.14586151;stroke-linecap:round;stroke-linejoin:round;stroke-miterlimit:4;stroke-opacity:1;stroke-dasharray:none;display:inline"
       d="m 2261.2157,147.34567 c 0,0 80.8561,40.75574 98.83,14.33692 17.9734,-26.41883 39.1666,3.786 23.5296,16.48745 l -14.1201,11.46953 c 41.9509,0.6466 50.229,18.0938 56.4688,36.55914 29.3846,2.65395 55.0521,9.18182 34.3562,-22.58064"
       id="path3930-0"
       inkscape:connector-curvature="0"
       sodipodi:nodetypes="czsccc" />
    <path
       sodipodi:nodetypes="cc"
       inkscape:connector-curvature="0"
       id="path3878-6"
       d="m 1698.3687,365.24665 c -19.1833,23.40935 -26.2376,42.87447 25.0909,45.1129"
       style="fill:none;stroke:#800000;stroke-width:1;stroke-linecap:round;stroke-linejoin:round;stroke-miterlimit:4;stroke-opacity:1;stroke-dasharray:none;display:inline" />
    <path
       style="fill:none;stroke:#800000;stroke-width:1.14167988;stroke-linecap:round;stroke-linejoin:round;stroke-miterlimit:4;stroke-opacity:1;stroke-dasharray:none;display:inline"
       d="m 1751.1914,144.27075 c 0,0 -80.2672,40.75574 -98.1078,14.33692 -17.8408,-26.41883 -38.8797,3.786 -23.359,16.48745 l 14.0153,11.46953 c -41.6451,0.6466 -49.8661,18.0938 -56.0617,36.55914 -29.1661,2.65395 -54.647,9.18182 -34.104,-22.58064"
       id="path3930-5"
       inkscape:connector-curvature="0"
       sodipodi:nodetypes="czsccc" />
    <path
       style="fill:none;stroke:#800000;stroke-width:1.14586151;stroke-linecap:round;stroke-linejoin:round;stroke-miterlimit:4;stroke-opacity:1;stroke-dasharray:none;display:inline"
       d="m 2261.2644,147.3236 c 0,0 80.8561,40.75574 98.8301,14.33692 17.9733,-26.41883 39.1666,3.786 23.5296,16.48745 l -14.1201,11.46953 c 41.9508,0.6466 50.2289,18.0938 56.4687,36.55914 29.3846,2.65395 55.0521,9.18182 34.3562,-22.58064"
       id="path3930-0-7"
       inkscape:connector-curvature="0"
       sodipodi:nodetypes="czsccc" />
    <path
       inkscape:connector-curvature="0"
       id="path3850-4-1-5"
       d="m 2188.984,384.36661 c 2.1005,0.0355 4.1513,0.67981 6.0937,1.4375 14.3991,8.0065 29.7112,14.21096 45.125,19.9375 8.8607,2.77691 21.1898,6.82276 28.4688,-0.53125 4.0756,-3.71905 2.7179,-10.28087 5.625,-14.125 14.4676,-2.73019 28.8818,2.37328 43.375,2.5 2.9162,0.70914 9.7743,-2.15038 8.6875,2.71875 -11.4734,6.58647 -15.5409,20.32595 -18.6563,32.46875 -4.3444,23.75495 -16.444,44.94445 -26.0312,66.75 -14.7373,20.34805 -34.3039,37.08492 -54.125,52.625 -29.8494,25.10023 -65.9586,44.34422 -105.3125,47.9375 -56.0263,1.76418 -112.1428,0.0689 -168.1875,1.28125 -30.9928,1.72981 -58.4559,-14.86191 -85.9062,-26.65625 -28.8661,-13.56245 -59.6175,-27.34345 -80.2188,-52.5625 -12.2741,-18.82153 -25.1592,-38.50936 -28.5625,-61.1875 0.038,-16.39303 -10.3872,-30.6024 -23.6563,-39.3125 -2.8534,-3.04428 -9.6507,-3.58934 -9.7187,-8.09375 8.5605,-3.0986 18.0343,-4.50773 26.8125,-7.65625 9.0577,-2.28388 21.5632,-7.14084 28.875,1.3125 2.1889,4.43919 6.282,8.50673 11.6562,6.96875 25.5824,-4.5658 51.628,-8.56089 76.4375,-16.15625 5.5027,-0.7837 12.1156,-5.45499 17.5,-2.125 3.1839,6.19153 -5.2112,10.98285 -5.4375,16.96875 0.9076,5.11599 8.6576,4.32021 12.5938,4.75 24.4533,-1.12525 48.9063,-6.90658 70.7812,-18.09375 13.8827,-7.53186 30.1872,-5.32249 44.6563,-1.1875 8.592,3.59068 17.5011,0.21485 26,-2 21.9996,-5.43737 47.3649,-10.92657 68.1875,1.1875 15.9198,12.55815 38.7269,17.92294 57.5938,9.46875 10.3971,-3.77992 14.6824,-17.35097 26.4374,-18.59375 0.3018,-0.0208 0.6062,-0.0363 0.9063,-0.0312 z"
       style="fill:none;stroke:#800000;stroke-width:1;stroke-linecap:round;stroke-linejoin:round;stroke-miterlimit:4;stroke-opacity:1;stroke-dasharray:none;display:inline" />
    <path
       sodipodi:nodetypes="ccczcccc"
       inkscape:connector-curvature="0"
       id="path5170-7-1"
       d="m 521.12711,638.0651 c -3.6523,1.31252 -9.64323,-14.26546 -15.41025,-50.29693 -1.78384,-12.89794 -2.09941,-26.37336 -0.95544,-39.02016 0.16228,-1.37522 0.6136,-3.01377 1.34222,-3.29965 0.72863,-0.28589 1.20722,1.06904 1.41345,2.34875 2.13271,8.80301 3.03818,31.2076 4.09546,47.08559 0.18757,2.14281 1.18128,11.74325 5.31132,8.60634 1.59453,-0.94197 3.17828,-2.02317 4.86089,-1.82718"
       style="fill:none;stroke:#ffffff;stroke-width:0.15551354px;stroke-linecap:butt;stroke-linejoin:miter;stroke-opacity:1;display:inline" />
    <path
       sodipodi:nodetypes="cscccc"
       inkscape:connector-curvature="0"
       id="path5172-4-7"
       d="m 519.22593,536.82636 c -0.88973,1.68186 -1.31879,5.22511 -1.43292,7.98142 -0.93597,22.60349 0.93401,40.92416 4.56097,50.04427 3.13977,6.13425 4.62499,1.03873 6.19331,-3.67757 1.80438,-5.35412 3.48376,-7.37127 4.46763,-1.5294 1.87821,8.31672 3.37559,17.07342 6.50853,23.94061"
       style="fill:none;stroke:#ffffff;stroke-width:0.15551354px;stroke-linecap:butt;stroke-linejoin:miter;stroke-opacity:1;display:inline" />
  </g>
  <g
     inkscape:groupmode="layer"
     id="layer6"
     inkscape:label="4 - Black"
     style="display:inline"
     sodipodi:insensitive="true">
    <path
       style="fill:none;stroke:#000000;stroke-width:1;stroke-linecap:round;stroke-linejoin:round;stroke-miterlimit:4;stroke-opacity:1"
       d="m 1884.8575,205.26206 c -0.8275,0.0111 -1.657,0.0166 -2.4882,0.0166 -72.3047,0 -130.9195,-42.09753 -130.9195,-94.02746 0,-51.929928 58.6148,-94.027455 130.9195,-94.027455 72.305,0 130.9196,42.097527 130.9196,94.027455 0,14.46927 -4.5505,28.17519 -12.6799,40.41984"
       id="path3877"
       inkscape:connector-curvature="0"
       sodipodi:nodetypes="cssssc" />
    <g
       style="stroke:#000000"
       id="g3823"
       transform="translate(-1.5206597,-2.0275463)">
      <g
         id="g3175">
        <path
           sodipodi:type="arc"
           style="fill:none;stroke:#000000;stroke-width:1;stroke-linecap:round;stroke-linejoin:round;stroke-miterlimit:4;stroke-opacity:1;stroke-dasharray:none"
           id="path3792"
           sodipodi:cx="1909.5878"
           sodipodi:cy="138.79929"
           sodipodi:rx="30.197132"
           sodipodi:ry="29.659498"
           d="m 1939.7849,138.79929 c 0,16.38048 -13.5197,29.65949 -30.1971,29.65949 -16.6774,0 -30.1972,-13.27901 -30.1972,-29.65949 0,-16.38049 13.5198,-29.6595 30.1972,-29.6595 16.6774,0 30.1971,13.27901 30.1971,29.6595 z"
           transform="matrix(1.4492087,0,0,1,-885.26184,-0.50688658)" />
        <path
           inkscape:connector-curvature="0"
           style="fill:none;stroke:#000000;stroke-width:0.85911101"
           d="m 1880.069,132.85324 0,11.89212 m 4.1402,10.02172 0,-31.93557 m 4.1402,-5.09885 0,42.13326 m 4.1402,3.30457 0,-48.74239 m 4.1402,-2.34932 0,53.44103 m 4.1402,1.59277 0,-56.62658 m 4.1402,-0.94774 0,58.52206 m 4.1402,0.36426 0,-59.25058 m 4.1402,0.19512 0,58.86034 m 4.1402,-0.76223 0,-57.33588 m 4.1401,1.42795 0,54.47997 m 4.1402,-2.16216 0,-50.15565 m 4.1402,3.08167 0,43.99231 m 4.1402,-4.44602 0,-35.10028 m 4.1402,7.77563 0,19.54902"
           transform="matrix(1.4492087,0,0,1,-885.26184,-0.50688658)"
           id="path3178" />
      </g>
    </g>
    <g
       style="stroke:#000000"
       id="g3828"
       transform="translate(18.754804,55.757524)">
      <g
         id="g3181">
        <path
           transform="matrix(1.4492087,0,0,1,-662.15979,-60.242236)"
           sodipodi:type="arc"
           style="fill:none;stroke:#000000;stroke-width:1;stroke-linecap:round;stroke-linejoin:round;stroke-miterlimit:4;stroke-opacity:1;stroke-dasharray:none;display:inline"
           id="path3792-7"
           sodipodi:cx="1909.5878"
           sodipodi:cy="138.79929"
           sodipodi:rx="30.197132"
           sodipodi:ry="29.659498"
           d="m 1939.7849,138.79929 c 0,16.38048 -13.5197,29.65949 -30.1971,29.65949 -16.6774,0 -30.1972,-13.27901 -30.1972,-29.65949 0,-16.38049 13.5198,-29.6595 30.1972,-29.6595 16.6774,0 30.1971,13.27901 30.1971,29.6595 z" />
        <path
           inkscape:connector-curvature="0"
           style="fill:none;stroke:#000000;stroke-width:0.85911101"
           d="m 1883.4488,123.95112 0,29.69635 m 4.1402,5.40532 0,-40.50699 m 4.1402,-3.61772 0,47.74243 m 4.1402,2.48175 0,-52.70593 m 4.1401,-1.70847 0,56.12286 m 4.1402,1.05247 0,-58.2278 m 4.1402,-0.46299 0,59.15378 m 4.1402,-0.0983 0,-58.95715 m 4.1402,0.66351 0,57.63014 m 4.1402,-1.2652 0,-55.09974 m 4.1402,1.97206 0,51.15562 m 4.1402,-2.92396 0,-45.3077 m 4.1402,4.13669 0,37.03431 m 4.1402,-6.7331 0,-23.56812"
           transform="matrix(1.4492087,0,0,1,-662.15979,-60.242236)"
           id="path3184" />
      </g>
    </g>
    <g
       id="g3902"
       transform="matrix(1.0696461,0,0,0.63686095,-120.35277,216.1265)">
      <g
         id="g4497">
        <path
           inkscape:connector-curvature="0"
           id="path3850"
           d="m 1980.341,278.99228 c -24.2337,-8.13492 -29.9579,11.4797 -55.062,22.95109 -25.104,11.47138 -64.688,22.14615 -52.8645,-8.8202 11.8236,-30.96636 -4.2839,-8.61921 -46.4997,3.88329 -42.2159,12.5025 -41.5472,17.45181 -48.5137,-0.22823 -6.9664,-17.68004 -28.1056,2.55813 -49.3403,8.72349 19.4315,16.94119 30.6938,42.20142 31.1088,67.93449 1.9752,31.33915 10.8262,56.50707 21.5895,86.26189 16.7998,50.93658 65.6226,83.70109 100.2439,110.33366 34.6212,26.63257 44.4188,26.84483 69.3701,25.13006 47.8109,-0.39738 95.6934,0.41168 143.4589,-1.02027 41.4224,-5.91946 72.6397,-37.26115 97.4054,-71.20707 21.211,-27.22416 37.5825,-51.9377 52.6472,-83.68719 6.9213,-28.22454 16.1965,-54.10759 21.0473,-82.66027 3.6782,-18.51107 6.3725,-62.98645 21.3785,-74.99589 -12.7191,2.93601 -37.3499,-8.54636 -46.7761,-3.59254 -2.0074,52.31369 -37.0688,19.76439 -56.5774,7.08073 -19.5086,-12.68366 -22.8573,-30.97707 -37.6773,-2.19789 -14.82,28.77919 -45.3194,24.53594 -62.953,2.3968 -17.6335,-22.13914 -42.2529,-15.23797 -64.8002,-5.71519 -22.5473,9.52278 -12.9517,7.56416 -37.1854,-0.57076 z"
           style="fill:none;stroke:#000000;stroke-width:1;stroke-linecap:round;stroke-linejoin:round;stroke-miterlimit:4;stroke-opacity:1;stroke-dasharray:none"
           sodipodi:nodetypes="zzzzzccczccccccczzzzz" />
        <path
           id="path4500"
           d="m 1728.2907,305.41851 0,0.30744 m 5.6094,5.47023 0,-7.8076 m 5.6093,-2.38046 0,16.7511 m 5.6093,8.05122 0,-27.41401 m 5.6094,-2.68223 0,40.42243 m 5.6093,16.32863 0,-59.43329 m 5.6093,-2.10563 0,105.44029 m 5.6094,23.82877 0,-130.45579 m 5.6093,1.44897 0,147.00612 m 5.6093,15.88415 0,-154.03254 m 5.6093,7.71934 0,161.50929 m 5.6094,11.40058 0,-172.78657 m 5.6093,-1.33888 0,183.50033 m 5.6093,8.07139 0,-193.30017 m 5.6094,-1.77273 0,202.24593 m 5.6093,6.51967 0,-210.54076 m 5.6093,-1.77517 0,218.3392 m 5.6094,5.59405 0,-225.70842 m 5.6093,-1.8679 0,232.67709 m 5.6093,5.04729 0,-239.65512 m 5.6094,-1.93074 0,246.46216 m 5.6093,4.56214 0,-253.4289 m 5.6093,-2.40808 0,260.39912 m 5.6094,4.35334 0,-267.38362 m 5.6093,-2.67704 0,274.34452 m 5.6093,4.28387 0,-281.30543 m 5.6094,-1.7228 0,10.57449 m 0,276.73761 0,-253.80871 m 5.6093,2.06332 0,256.02926 m 5.6093,4.17804 0,-259.84076 m 5.6094,-0.64942 0,264.63755 m 5.6093,3.84918 0,-269.42895 m 5.6093,-1.40702 0,274.52762 m 5.6093,3.13762 0,-279.35465 m 5.6094,-1.93084 0,284.07517 m 5.6093,2.24185 0,-288.52763 m 5.6093,-2.35577 0,292.2885 m 5.6094,0.83483 0,-296.06165 m 5.6093,-3.31283 0,299.7244 m 5.6093,-0.0268 0,-303.5853 m 5.6094,-4.30229 0,307.57378 m 5.6093,-0.19593 0,-311.68014 m 5.6093,-3.45299 0,315.12358 m 5.6094,-0.01 0,-317.20523 m 5.6093,-0.80753 0,318.0032 m 5.6093,-0.01 0,-317.4758 m 5.6094,1.48804 0,315.97821 m 5.6093,-0.01 0,-313.8492 m 5.6093,2.11945 0,311.7202 m 5.6094,-0.01 0,-309.65367 m 5.6093,-0.005 0,309.64928 m 5.6093,-0.01 0,-311.76621 m 5.6094,-2.38799 0,314.14465 m 5.6093,-0.01 0,-316.45512 m 5.6093,-2.23236 0,318.66543 m 5.6094,-0.0298 0,-320.51648 m 5.6093,-1.6366 0,322.1233 m 5.6093,-0.0298 0,-323.38179 m 5.6093,-0.64853 0,324.00054 m 5.6094,-0.0298 0,-324.17081 m 5.6093,0.46403 0,323.65892 m 5.6093,-0.11074 0,-322.17623 m 5.6094,2.50443 0,319.56106 m 5.6093,-0.11075 0,-315.60938 m 5.6093,5.66488 0,309.83376 m 5.6094,-0.11074 0,-303.63065 m 5.6093,4.70511 0,298.81479 m 5.6093,-0.87553 0,-294.51828 m 5.6094,2.3847 0,290.88994 m 5.6093,-1.55452 0,-287.85535 m 5.6093,0.51968 0,285.3892 m 5.6094,-2.34654 0,-283.57138 m 5.6093,-1.57975 0,282.45432 m 5.6093,-3.06463 0,-282.28625 m 5.6094,-4.73146 0,283.56867 m 5.6093,-3.84864 0,-287.03306 m 5.6093,-9.57464 0,292.33782 m 5.6094,-4.91314 0,-294.57843 m 5.6093,-1.66428 0,291.32958 m 5.6093,-5.74245 0,-282.45749 m 5.6093,4.94863 0,271.72339 m 5.6094,-6.59799 0,-260.23428 m 5.6093,4.17077 0,249.33189 m 5.6093,-7.34306 0,-238.0963 m 5.6094,3.87624 0,226.80945 m 5.6093,-7.48723 0,-215.44598 m 5.6093,3.40869 0,204.55005 m 5.6094,-8.11414 0,-193.2769 m 5.6093,2.31978 0,182.67066 m 5.6093,-8.58732 0,-172.7787 m 5.6094,-0.66001 0,164.17004 m 5.6093,-9.89316 0,-158.11753 m 5.6093,-15.14207 0,162.63764 m 5.6094,-12.18288 0,-160.64296 m 5.6093,0.15744 0,139.49268 m 5.6093,-19.92077 0,-118.76324 m 5.6094,1.11576 0,95.95401 m 5.6093,-29.75939 0,-65.11984 m 5.6093,1.07067 0,31.18075 m 5.6094,-18.42563 0,-12.01251 m 5.6093,0.0145 0,2.40171"
           style="fill:none;stroke:#000000;stroke-width:1.29219794"
           inkscape:connector-curvature="0" />
      </g>
    </g>
    <path
       style="fill:none;stroke:#000000;stroke-width:1;stroke-linecap:round;stroke-linejoin:round;stroke-miterlimit:4;stroke-opacity:1"
       d="m 2140.5017,250.52383 c 0,54.50228 -60.5977,98.68511 -135.3489,98.68511 -74.7511,0 -135.3489,-44.18283 -135.3489,-98.68511 0,-54.50227 60.5978,-98.6851 135.3489,-98.6851 72.5514,0 132.1994,41.70955 135.2307,94.5618"
       id="path3879"
       inkscape:connector-curvature="0" />
    <path
       style="fill:none;stroke:#000000;stroke-width:1;stroke-linecap:round;stroke-linejoin:round;stroke-miterlimit:4;stroke-opacity:1"
       d="m 2004.8711,77.775289 c 19.0606,-35.000533 66.4845,-59.791183 121.9704,-59.791183 72.3049,0 130.9196,42.097527 130.9196,94.027454 0,51.92993 -58.6147,94.02746 -130.9196,94.02746 -0.2988,0 -0.5974,-7.2e-4 -0.8958,-0.002 M 2008.303,151.97798 c -1.3577,-2.07351 -2.613,-4.18844 -3.7613,-6.34143"
       id="path3096"
       inkscape:connector-curvature="0"
       sodipodi:nodetypes="csssccc" />
  </g>
  <eggbot
     serialport="COM5"
     layer="0"
     node="0"
     lastpath="0"
     lastpathnc="0"
     totaldeltax="0"
     totaldeltay="0"
     id="eggbot4463" />
</svg>
