<?xml version="1.0" encoding="utf-8"?>
<!-- Generator: Adobe Illustrator 18.1.1, SVG Export Plug-In . SVG Version: 6.00 Build 0)  -->
<svg version="1.1"
	 id="svg2" xmlns:dc="http://purl.org/dc/elements/1.1/" xmlns:cc="http://creativecommons.org/ns#" xmlns:inkscape="http://www.inkscape.org/namespaces/inkscape" xmlns:sodipodi="http://sodipodi.sourceforge.net/DTD/sodipodi-0.dtd" xmlns:rdf="http://www.w3.org/1999/02/22-rdf-syntax-ns#" xmlns:svg="http://www.w3.org/2000/svg" inkscape:version="0.48.3.1 r9886" sodipodi:docname="Plot - Muppets - Elmo.svg"
	 xmlns="http://www.w3.org/2000/svg" xmlns:xlink="http://www.w3.org/1999/xlink" x="0px" y="0px" viewBox="854 -129.1 4096 1100"
	 enable-background="new 854 -129.1 4096 1100" xml:space="preserve">
<sodipodi:namedview  showgrid="false" inkscape:cy="350" inkscape:cx="427.99446" inkscape:zoom="0.4859375" borderopacity="1.0" bordercolor="#666666" pagecolor="#ffffff" id="base" inkscape:window-maximized="0" inkscape:current-layer="layer4" inkscape:pageshadow="2" inkscape:pageopacity="0.0" inkscape:window-x="840" inkscape:document-units="px" inkscape:window-y="0" inkscape:window-height="972" inkscape:window-width="824">
	</sodipodi:namedview>
<g>
	<g id="layer4" inkscape:label="1 - Orange" inkscape:groupmode="layer" sodipodi:insensitive="true">
		<g id="g4643">
			
				<path id="path3879-3" inkscape:connector-curvature="0" fill="none" stroke="#FF6600" stroke-linecap="round" stroke-linejoin="round" d="
				M3418.3,151.1c-54.1,0.5-111.2,20.1-146.1,64.3c-21.5,26.9-29,65.4-16,97.9c17.2,44.4,60.3,72.2,103.5,84.5
				c61.4,17.1,131.4,8.6,183.3-30.3c29.8-22.2,52.4-59.5,47.7-98.8c-4.7-45.2-40.5-80-79.1-97.8
				C3482.5,157,3450.3,150.8,3418.3,151.1z"/>
			<path id="path4646" inkscape:connector-curvature="0" fill="none" stroke="#FF6600" d="M3255.7,245.2v66.9 M3263.4,328.5v-100
				 M3271.1,216.9v123.3 M3278.8,349.7V207.6 M3286.5,199.8v157.8 M3294.2,364.3V193 M3301.8,187v183.2 M3309.5,375.5V181.8
				 M3317.2,177.1v203 M3324.9,384.2V173 M3332.6,169.3v218.4 M3340.3,391.1v-225 M3347.9,163.1v230.8 M3355.6,396.5V160.7
				 M3363.3,158.5v240.2 M3371,400.6v-244 M3378.7,155v247.1 M3386.3,403.5V153.7 M3394,152.7v251.8 M3401.7,405.3V151.9
				 M3409.4,151.4v254.4 M3417.1,406.1V151.2 M3424.8,151.2v254.8 M3432.4,405.9V151.5 M3440.1,152v253.3 M3447.8,404.5V152.8
				 M3455.5,153.8v249.7 M3463.2,402.1V155.2 M3470.9,156.8v243.6 M3478.5,398.6V158.7 M3486.2,161v235.3 M3493.9,393.7V163.6
				 M3501.6,166.5v224.3 M3509.3,387.4V169.8 M3516.9,173.4v210.2 M3524.6,379.5V177.6 M3532.3,182.2v192.6 M3540,369.5v-182
				 M3547.7,193.6v169.9 M3555.4,356.9V200.5 M3563,208.5v140.3 M3570.7,339.1v-121 M3578.4,230.2v96.7 M3586.1,309.5v-61.7"/>
		</g>
	</g>
	<g id="layer2" inkscape:label="2 - Red" inkscape:groupmode="layer" sodipodi:insensitive="true">
		<g id="g3299">
			<g id="g4157">
				
					<path id="path3850-4-1" inkscape:connector-curvature="0" sodipodi:nodetypes="scccccccccccccccccccccsccccccccccccccccccccccccccccccc" fill="none" stroke="#FF0000" stroke-linecap="round" stroke-linejoin="round" d="
					M3073,106.3c-15.5-0.1-33.4,10.5-46.3,4.3c-43.8-9.3-46,12.2-82.8,13.4H854v746.8h4096V124.1l-1055.2-2.3
					c-20.7,2.6-44.3-22.9-74.1-11c-22.6,6.3-50.6-15.2-73.2,4.5l-3.9,4.1c-13.7,69.3-99.1,103.3-162.8,104.4c0,0,0.1,0.1,0.1,0.1
					c8.3,13.8,13.8,29.2,15.3,45.8c4,40.7-19.1,79.3-50.4,102.3c-53.7,40.2-126.2,48.5-189.4,30.3c-44.5-13.2-88.4-42.5-105.4-88.7
					c-11.3-29.6-6.5-63.7,9.7-90.5h0c-0.2,0-0.3,0-0.5,0c-71.9-2.8-148.8-40.9-163.1-102l-2.6-2.2
					C3088.6,109.3,3081.1,106.3,3073,106.3L3073,106.3z M3656.5,455.4c2.7,0,5.3,0.9,7.8,1.9c18.4,10.6,38,18.7,57.8,26.3
					c11.3,3.7,27.1,9,36.5-0.7c5.2-4.9,3.5-13.6,7.2-18.6c18.5-3.6,37,3.1,55.5,3.3c3.7,0.9,12.5-2.8,11.1,3.6
					c-14.7,8.7-19.9,26.8-23.9,42.8c-5.6,31.3-21.1,59.3-33.3,88c-18.9,26.8-43.9,48.9-69.3,69.4c-38.2,33.1-84.5,58.5-134.8,63.2
					c-71.7,2.3-143.6,0.1-215.3,1.7c-39.7,2.3-74.8-19.6-110-35.2c-37-17.9-76.3-36.1-102.7-69.3c-15.7-24.8-32.2-50.8-36.6-80.7
					c0-21.6-13.3-40.4-30.3-51.9c-3.7-4-12.4-4.7-12.4-10.7c11-4.1,23.1-5.9,34.3-10.1c11.6-3,27.6-9.4,37,1.7
					c2.8,5.9,8,11.2,14.9,9.2c32.8-6,66.1-11.3,97.9-21.3c7-1,15.5-7.2,22.4-2.8c4.1,8.2-6.7,14.5-7,22.4c1.2,6.7,11.1,5.7,16.1,6.3
					c31.3-1.5,62.6-9.1,90.6-23.9c17.8-9.9,38.7-7,57.2-1.6c11,4.7,22.4,0.3,33.3-2.6c28.2-7.2,60.6-14.4,87.3,1.6
					c20.4,16.6,49.6,23.6,73.7,12.5c13.3-5,18.8-22.9,33.9-24.5C3655.7,455.4,3656.1,455.4,3656.5,455.4L3656.5,455.4z"/>
				<path id="path4160" inkscape:connector-curvature="0" fill="none" stroke="#FF0000" d="M859.1,124.1v746.8 M866.7,870.9V124.1
					 M874.4,124.1v746.8 M882.1,870.9V124.1 M889.8,124.1v746.8 M897.5,870.9V124.1 M905.2,124.1v746.8 M912.8,870.9V124.1
					 M920.5,124.1v746.8 M928.2,870.9V124.1 M935.9,124.1v746.8 M943.6,870.9V124.1 M951.2,124.1v746.8 M958.9,870.9V124.1
					 M966.6,124.1v746.8 M974.3,870.9V124.1 M982,124.1v746.8 M989.7,870.9V124.1 M997.3,124.1v746.8 M1005,870.9V124.1
					 M1012.7,124.1v746.8 M1020.4,870.9V124.1 M1028.1,124.1v746.8 M1035.8,870.9V124.1 M1043.4,124.1v746.8 M1051.1,870.9V124.1
					 M1058.8,124.1v746.8 M1066.5,870.9V124.1 M1074.2,124.1v746.8 M1081.8,870.9V124.1 M1089.5,124.1v746.8 M1097.2,870.9V124.1
					 M1104.9,124.1v746.8 M1112.6,870.9V124.1 M1120.3,124.1v746.8 M1127.9,870.9V124.1 M1135.6,124.1v746.8 M1143.3,870.9V124.1
					 M1151,124.1v746.8 M1158.7,870.9V124.1 M1166.3,124.1v746.8 M1174,870.9V124.1 M1181.7,124.1v746.8 M1189.4,870.9V124.1
					 M1197.1,124.1v746.8 M1204.8,870.9V124.1 M1212.4,124.1v746.8 M1220.1,870.9V124.1 M1227.8,124.1v746.8 M1235.5,870.9V124.1
					 M1243.2,124.1v746.8 M1250.9,870.9V124.1 M1258.5,124.1v746.8 M1266.2,870.9V124.1 M1273.9,124.1v746.8 M1281.6,870.9V124.1
					 M1289.3,124.1v746.8 M1296.9,870.9V124.1 M1304.6,124.1v746.8 M1312.3,870.9V124.1 M1320,124.1v746.8 M1327.7,870.9V124.1
					 M1335.4,124.1v746.8 M1343,870.9V124.1 M1350.7,124.1v746.8 M1358.4,870.9V124.1 M1366.1,124.1v746.8 M1373.8,870.9V124.1
					 M1381.5,124.1v746.8 M1389.1,870.9V124.1 M1396.8,124.1v746.8 M1404.5,870.9V124.1 M1412.2,124.1v746.8 M1419.9,870.9V124.1
					 M1427.5,124.1v746.8 M1435.2,870.9V124.1 M1442.9,124.1v746.8 M1450.6,870.9V124.1 M1458.3,124.1v746.8 M1466,870.9V124.1
					 M1473.6,124.1v746.8 M1481.3,870.9V124.1 M1489,124.1v746.8 M1496.7,870.9V124.1 M1504.4,124.1v746.8 M1512.1,870.9V124.1
					 M1519.7,124.1v746.8 M1527.4,870.9V124.1 M1535.1,124.1v746.8 M1542.8,870.9V124.1 M1550.5,124.1v746.8 M1558.1,870.9V124.1
					 M1565.8,124.1v746.8 M1573.5,870.9V124.1 M1581.2,124.1v746.8 M1588.9,870.9V124.1 M1596.6,124.1v746.8 M1604.2,870.9V124.1
					 M1611.9,124.1v746.8 M1619.6,870.9V124.1 M1627.3,124.1v746.8 M1635,870.9V124.1 M1642.6,124.1v746.8 M1650.3,870.9V124.1
					 M1658,124.1v746.8 M1665.7,870.9V124.1 M1673.4,124.1v746.8 M1681.1,870.9V124.1 M1688.7,124.1v746.8 M1696.4,870.9V124.1
					 M1704.1,124.1v746.8 M1711.8,870.9V124.1 M1719.5,124.1v746.8 M1727.2,870.9V124.1 M1734.8,124.1v746.8 M1742.5,870.9V124.1
					 M1750.2,124.1v746.8 M1757.9,870.9V124.1 M1765.6,124.1v746.8 M1773.2,870.9V124.1 M1780.9,124.1v746.8 M1788.6,870.9V124.1
					 M1796.3,124.1v746.8 M1804,870.9V124.1 M1811.7,124.1v746.8 M1819.3,870.9V124.1 M1827,124.1v746.8 M1834.7,870.9V124.1
					 M1842.4,124.1v746.8 M1850.1,870.9V124.1 M1857.8,124.1v746.8 M1865.4,870.9V124.1 M1873.1,124.1v746.8 M1880.8,870.9V124.1
					 M1888.5,124.1v746.8 M1896.2,870.9V124.1 M1903.8,124.1v746.8 M1911.5,870.9V124.1 M1919.2,124.1v746.8 M1926.9,870.9V124.1
					 M1934.6,124.1v746.8 M1942.3,870.9V124.1 M1949.9,124.1v746.8 M1957.6,870.9V124.1 M1965.3,124.1v746.8 M1973,870.9V124.1
					 M1980.7,124.1v746.8 M1988.4,870.9V124.1 M1996,124.1v746.8 M2003.7,870.9V124.1 M2011.4,124.1v746.8 M2019.1,870.9V124.1
					 M2026.8,124.1v746.8 M2034.4,870.9V124.1 M2042.1,124.1v746.8 M2049.8,870.9V124.1 M2057.5,124.1v746.8 M2065.2,870.9V124.1
					 M2072.9,124.1v746.8 M2080.5,870.9V124.1 M2088.2,124.1v746.8 M2095.9,870.9V124.1 M2103.6,124.1v746.8 M2111.3,870.9V124.1
					 M2118.9,124.1v746.8 M2126.6,870.9V124.1 M2134.3,124.1v746.8 M2142,870.9V124.1 M2149.7,124.1v746.8 M2157.4,870.9V124.1
					 M2165,124.1v746.8 M2172.7,870.9V124.1 M2180.4,124.1v746.8 M2188.1,870.9V124.1 M2195.8,124.1v746.8 M2203.5,870.9V124.1
					 M2211.1,124.1v746.8 M2218.8,870.9V124.1 M2226.5,124.1v746.8 M2234.2,870.9V124.1 M2241.9,124.1v746.8 M2249.5,870.9V124.1
					 M2257.2,124.1v746.8 M2264.9,870.9V124.1 M2272.6,124.1v746.8 M2280.3,870.9V124.1 M2288,124.1v746.8 M2295.6,870.9V124.1
					 M2303.3,124.1v746.8 M2311,870.9V124.1 M2318.7,124.1v746.8 M2326.4,870.9V124.1 M2334.1,124.1v746.8 M2341.7,870.9V124.1
					 M2349.4,124.1v746.8 M2357.1,870.9V124.1 M2364.8,124.1v746.8 M2372.5,870.9V124.1 M2380.1,124.1v746.8 M2387.8,870.9V124.1
					 M2395.5,124.1v746.8 M2403.2,870.9V124.1 M2410.9,124.1v746.8 M2418.6,870.9V124.1 M2426.2,124.1v746.8 M2433.9,870.9V124.1
					 M2441.6,124.1v746.8 M2449.3,870.9V124.1 M2457,124.1v746.8 M2464.6,870.9V124.1 M2472.3,124.1v746.8 M2480,870.9V124.1
					 M2487.7,124.1v746.8 M2495.4,870.9V124.1 M2503.1,124.1v746.8 M2510.7,870.9V124.1 M2518.4,124.1v746.8 M2526.1,870.9V124.1
					 M2533.8,124.1v746.8 M2541.5,870.9V124.1 M2549.2,124.1v746.8 M2556.8,870.9V124.1 M2564.5,124.1v746.8 M2572.2,870.9V124.1
					 M2579.9,124.1v746.8 M2587.6,870.9V124.1 M2595.2,124.1v746.8 M2602.9,870.9V124.1 M2610.6,124.1v746.8 M2618.3,870.9V124.1
					 M2626,124.1v746.8 M2633.7,870.9V124.1 M2641.3,124.1v746.8 M2649,870.9V124.1 M2656.7,124.1v746.8 M2664.4,870.9V124.1
					 M2672.1,124.1v746.8 M2679.8,870.9V124.1 M2687.4,124.1v746.8 M2695.1,870.9V124.1 M2702.8,124.1v746.8 M2710.5,870.9V124.1
					 M2718.2,124.1v746.8 M2725.8,870.9V124.1 M2733.5,124.1v746.8 M2741.2,870.9V124.1 M2748.9,124.1v746.8 M2756.6,870.9V124.1
					 M2764.3,124.1v746.8 M2771.9,870.9V124.1 M2779.6,124.1v746.8 M2787.3,870.9V124.1 M2795,124.1v746.8 M2802.7,870.9V124.1
					 M2810.4,124.1v746.8 M2818,870.9V124.1 M2825.7,124.1v746.8 M2833.4,870.9V124.1 M2841.1,124.1v746.8 M2848.8,870.9V124.1
					 M2856.4,124.1v746.8 M2864.1,870.9V124.1 M2871.8,124.1v746.8 M2879.5,870.9V124.1 M2887.2,124.1v746.8 M2894.9,870.9V124.1
					 M2902.5,124.1v746.8 M2910.2,870.9V124.1 M2917.9,124.1v746.8 M2925.6,870.9V124.1 M2933.3,124.1v746.8 M2940.9,870.9V124.1
					 M2948.6,123.7v747.2 M2956.3,870.9V122.7 M2964,120.8v750.1 M2971.7,870.9V118 M2979.4,114.8v756.1 M2987,870.9V111.8
					 M2994.7,109.5v761.3 M3002.4,870.9V108.5 M3010.1,108.4v762.5 M3017.8,870.9V109.1 M3025.5,110.4v760.5 M3033.1,870.9V112.3
					 M3040.8,112.1v758.7 M3048.5,870.9V110.8 M3056.2,109v761.9 M3063.9,488.5V107.3 M3063.9,489.6v381.2 M3071.5,486V106.4
					 M3071.5,496.2v374.7 M3079.2,484V107 M3079.2,501.6v369.3 M3086.9,481.9V110.5 M3086.9,508.2v362.7 M3094.6,479.6V119.2
					 M3094.6,517.1v353.8 M3102.3,477.3V136.7 M3102.3,530.8v340.1 M3110,475.3V151 M3110,566.9v304 M3117.6,474V161.5
					 M3117.6,587.4v283.5 M3125.3,474.5V169.9 M3125.3,602.7v268.2 M3133,478.5V177 M3133,615.8v255.1 M3140.7,487.6V183.1
					 M3140.7,628.2v242.7 M3148.4,489.7V188.6 M3148.4,638.2v232.7 M3156.1,488.3V193.5 M3156.1,646v224.9 M3163.7,486.9V197.7
					 M3163.7,653.1v217.8 M3171.4,485.5V201.6 M3171.4,659.1v211.7 M3179.1,484.1v-279 M3179.1,664.8v206 M3186.8,482.6V208.1
					 M3186.8,669.9v201 M3194.5,481.2V210.9 M3194.5,674.6v196.2 M3202.1,479.6V213.3 M3202.1,679.1v191.8 M3209.8,477.9V215.5
					 M3209.8,683.3v187.6 M3217.5,476.2V217.4 M3217.5,687.3v183.6 M3225.2,474.4V219 M3225.2,691.1v179.8 M3232.9,472.4V220.5
					 M3232.9,694.9v176 M3240.6,470.2V221.5 M3240.6,698.6v172.2 M3248.2,253.1v-30.7 M3248.2,304.9V468 M3248.2,870.9V702.4
					 M3255.9,222.9v9.1 M3255.9,465.7V325 M3255.9,706v164.9 M3263.6,463.8V338.4 M3263.6,485.5v3.3 M3263.6,870.9V709.6
					 M3271.3,348.7v144.6 M3271.3,870.9V713.1 M3279,357.3v136.6 M3279,870.9V716.7 M3286.7,364.7v128.7 M3286.7,870.9V720.2
					 M3294.3,371.1v121.6 M3294.3,870.9V723.5 M3302,376.7v115.1 M3302,870.9V726.5 M3309.7,381.7v108.8 M3309.7,870.9V729.2
					 M3317.4,386.1v102.8 M3317.4,870.9V731.5 M3325.1,390.1v97 M3325.1,870.9V733.5 M3332.7,393.7V485 M3332.7,870.9V735.1
					 M3340.4,396.8v85.8 M3340.4,870.9V736 M3348.1,399.5v80.4 M3348.1,870.9V736.5 M3355.8,402.1v74.6 M3355.8,870.9V736.3
					 M3363.5,404.2v69.1 M3363.5,870.9V736.2 M3371.2,406v63.5 M3371.2,870.9V736.1 M3378.8,407.6v58.8 M3378.8,870.9V736
					 M3386.5,408.8v55.7 M3386.5,870.9V736 M3394.2,409.9v53.8 M3394.2,870.9v-135 M3401.9,410.6v53.2 M3401.9,870.9V735.8
					 M3409.6,411.1v53.5 M3409.6,870.9V735.7 M3417.2,411.4V466 M3417.2,870.9V735.7 M3424.9,411.4v56.6 M3424.9,870.9V735.7
					 M3432.6,411.1v59 M3432.6,870.9V735.7 M3440.3,410.6v59.8 M3440.3,870.9V735.7 M3448,409.8v59.3 M3448,870.9V735.7
					 M3455.7,408.9v58.4 M3455.7,870.9V735.7 M3463.3,407.5v57.7 M3463.3,870.9V735.7 M3471,405.9v57.4 M3471,870.9V735.7
					 M3478.7,404.1v57.5 M3478.7,870.9V735.7 M3486.4,401.8v58.4 M3486.4,870.9V735.7 M3494.1,399.3v59.7 M3494.1,870.9V735.7
					 M3501.8,396.5v61.8 M3501.8,870.9V735.7 M3509.4,393.1V458 M3509.4,870.9V735.7 M3517.1,389.5v68.7 M3517.1,870.9V735.6
					 M3524.8,385.6v73.6 M3524.8,870.9V735.5 M3532.5,380.9v79.9 M3532.5,870.9V735.3 M3540.2,375.9v87.8 M3540.2,870.9V735.2
					 M3547.8,370.3v97.2 M3547.8,870.9V735.1 M3555.5,364V473 M3555.5,870.9v-136 M3563.2,356.6v120.7 M3563.2,870.9V734.8
					 M3570.9,347.7v132.8 M3570.9,870.9V734.6 M3578.6,337v145.9 M3578.6,870.9V733.7 M3586.3,223.4V234 M3586.3,484.5V323.1
					 M3586.3,732.5v138.4 M3593.9,256.2V223 M3593.9,301.2v184.1 M3593.9,870.9V731 M3601.6,222.2V485 M3601.6,870.9V729.1
					 M3609.3,221.1v262.8 M3609.3,870.9V727 M3617,219.8v261.9 M3617,870.9V724.5 M3624.7,218.1v260.1 M3624.7,870.9V721.7
					 M3632.4,216.3V472 M3632.4,870.9V718.3 M3640,214.1v250 M3640,870.9V714.9 M3647.7,211.6V458 M3647.7,870.9V711.1
					 M3655.4,208.9v246.5 M3655.4,870.9V707 M3663.1,205.7v251.2 M3663.1,870.9V702.5 M3670.8,202.3v258.5 M3670.8,870.9V697.7
					 M3678.4,198.3v266.5 M3678.4,870.9V692.6 M3686.1,193.9v274.6 M3686.1,870.9V687 M3693.8,189v283 M3693.8,870.9V681.2
					 M3701.5,183.5v291.8 M3701.5,870.9V674.9 M3709.2,177v301.5 M3709.2,870.9V668.6 M3716.9,169.4v312.1 M3716.9,870.9V662.2
					 M3724.5,160.4v323.9 M3724.5,870.9V655.8 M3732.2,149.2v337.3 M3732.2,870.9V648.8 M3739.9,132.6v355.5 M3739.9,870.9V641.8
					 M3747.6,115.1V488 M3747.6,870.9V634.4 M3755.3,110.1v375.3 M3755.3,870.9V626.3 M3762.9,107.6v364.7 M3762.9,870.9V617.6
					 M3770.6,106.7v356.9 M3770.6,870.9V608 M3778.3,107.3v356 M3778.3,870.9v-276 M3786,108.3v355.3 M3786,870.9V577.7
					 M3793.7,109.8v354.7 M3793.7,870.9V560.4 M3801.4,111.1v354.5 M3801.4,870.9V540.5 M3809,111.7v354.9 M3809,870.9V511.8
					 M3816.7,111.5v355.8 M3816.7,870.9V489.2 M3824.4,109.5v358.1 M3824.4,870.9V477.7 M3832.1,107.8v360.7 M3832.1,870.9V471.3
					 M3839.8,107.7v763.2 M3847.5,870.9V108.6 M3855.1,110.7v760.2 M3862.8,870.9V113.3 M3870.5,116.4v754.5 M3878.2,870.9V119.2
					 M3885.9,121.2v749.7 M3893.5,870.9V121.8 M3901.2,121.7v749.2 M3908.9,870.9V121.7 M3916.6,121.8v749.1 M3924.3,870.9V121.8
					 M3932,121.8v749.1 M3939.6,870.9V121.8 M3947.3,121.8v749.1 M3955,870.9V121.8 M3962.7,121.9v749 M3970.4,870.9v-749
					 M3978.1,121.9v749 M3985.7,870.9v-749 M3993.4,121.9v749 M4001.1,870.9V121.9 M4008.8,122v748.9 M4016.5,870.9V122 M4024.1,122
					v748.9 M4031.8,870.9V122 M4039.5,122v748.9 M4047.2,870.9V122 M4054.9,122.1v748.8 M4062.6,870.9V122.1 M4070.2,122.1v748.8
					 M4077.9,870.9V122.1 M4085.6,122.1v748.8 M4093.3,870.9V122.1 M4101,122.2v748.7 M4108.7,870.9V122.2 M4116.3,122.2v748.7
					 M4124,870.9V122.2 M4131.7,122.2v748.7 M4139.4,870.9V122.2 M4147.1,122.3v748.6 M4154.7,870.9V122.3 M4162.4,122.3v748.6
					 M4170.1,870.9V122.3 M4177.8,122.3v748.6 M4185.5,870.9V122.3 M4193.2,122.4v748.5 M4200.8,870.9V122.4 M4208.5,122.4v748.5
					 M4216.2,870.9V122.4 M4223.9,122.4v748.5 M4231.6,870.9V122.5 M4239.2,122.5v748.4 M4246.9,870.9V122.5 M4254.6,122.5v748.4
					 M4262.3,870.9V122.5 M4270,122.5v748.3 M4277.7,870.9V122.6 M4285.3,122.6v748.3 M4293,870.9V122.6 M4300.7,122.6v748.3
					 M4308.4,870.9V122.6 M4316.1,122.6v748.2 M4323.8,870.9V122.7 M4331.4,122.7v748.2 M4339.1,870.9V122.7 M4346.8,122.7v748.2
					 M4354.5,870.9V122.7 M4362.2,122.7v748.1 M4369.8,870.9V122.8 M4377.5,122.8v748.1 M4385.2,870.9V122.8 M4392.9,122.8v748.1
					 M4400.6,870.9V122.8 M4408.3,122.8v748 M4415.9,870.9v-748 M4423.6,122.9v748 M4431.3,870.9v-748 M4439,122.9v748
					 M4446.7,870.9v-748 M4454.4,122.9v747.9 M4462,870.9V123 M4469.7,123v747.9 M4477.4,870.9V123 M4485.1,123v747.9 M4492.8,870.9
					V123 M4500.4,123.1v747.8 M4508.1,870.9V123.1 M4515.8,123.1v747.8 M4523.5,870.9V123.1 M4531.2,123.1v747.8 M4538.9,870.9
					V123.1 M4546.5,123.2v747.7 M4554.2,870.9V123.2 M4561.9,123.2v747.7 M4569.6,870.9V123.2 M4577.3,123.2v747.7 M4585,870.9
					V123.2 M4592.6,123.3v747.6 M4600.3,870.9V123.3 M4608,123.3v747.6 M4615.7,870.9V123.3 M4623.4,123.3v747.6 M4631,870.9V123.3
					 M4638.7,123.4v747.5 M4646.4,870.9V123.4 M4654.1,123.4v747.5 M4661.8,870.9V123.4 M4669.5,123.4v747.5 M4677.1,870.9V123.4
					 M4684.8,123.5v747.4 M4692.5,870.9V123.5 M4700.2,123.5v747.4 M4707.9,870.9V123.5 M4715.5,123.5v747.4 M4723.2,870.9V123.5
					 M4730.9,123.6v747.3 M4738.6,870.9V123.6 M4746.3,123.6v747.3 M4754,870.9V123.6 M4761.6,123.6v747.3 M4769.3,870.9V123.7
					 M4777,123.7v747.2 M4784.7,870.9V123.7 M4792.4,123.7v747.2 M4800.1,870.9V123.7 M4807.7,123.7v747.2 M4815.4,870.9V123.8
					 M4823.1,123.8v747.1 M4830.8,870.9V123.8 M4838.5,123.8v747.1 M4846.1,870.9V123.8 M4853.8,123.8v747.1 M4861.5,870.9v-747
					 M4869.2,123.9v747 M4876.9,870.9v-747 M4884.6,123.9v747 M4892.2,870.9v-747 M4899.9,123.9v746.9 M4907.6,870.9V124
					 M4915.3,124v746.9 M4923,870.9V124 M4930.7,124v746.9 M4938.3,870.9V124 M4946,124v746.8"/>
			</g>
		</g>
	</g>
	<g id="layer1" inkscape:label="3 - Pomegranate" inkscape:groupmode="layer" sodipodi:insensitive="true">
		
			<path id="path3950-9" inkscape:connector-curvature="0" sodipodi:nodetypes="czzc" fill="none" stroke="#800000" stroke-width="0.941" stroke-linecap="round" stroke-linejoin="round" d="
			M2963.9,459.8c0,0-0.9,83.6,12.6,98.3c13.4,14.7,5.3,15,2.4,38.3s24,9.9,24,9.9"/>
		
			<path id="path3970" inkscape:connector-curvature="0" sodipodi:nodetypes="cc" fill="none" stroke="#800000" stroke-linecap="round" stroke-linejoin="round" d="
			M2909.4,685.8c18.2,22.2,42.9,82.6,46.7,19.4"/>
		
			<path id="path4017" inkscape:connector-curvature="0" sodipodi:nodetypes="cc" fill="none" stroke="#800000" stroke-linecap="round" stroke-linejoin="round" d="
			M2851.4,178.9c9.1-27.6,30.5-44,66.5-53.4"/>
		
			<path id="path4021-2" inkscape:connector-curvature="0" sodipodi:nodetypes="ccccccccc" fill="none" stroke="#800000" stroke-width="1.0117" stroke-linecap="round" stroke-linejoin="round" d="
			M2814.8,209.6c-26.2,0.9-80.2,39-32.4,44c-26.6,22.3-88.2,49.2-33.8,61c-22,26.6-14.4,49.7-14.1,73.7
			c-20.9,15.4-46.2,31.3,19.3,36.9c-29.4,80.4-26.3,107,16.9,67.6c-4.1,53.3-7.4,106.4,21.6,149.9c-10.2,26.2-4.6,31.3,8.9,26
			c-3,48.9,26.9,27.5,27.7,41.1"/>
		
			<path id="path4043" inkscape:connector-curvature="0" sodipodi:nodetypes="ccc" fill="none" stroke="#800000" stroke-linecap="round" stroke-linejoin="round" d="
			M2503.7,125.7c-44.3,20.1-59.3,35.4-22.4,42.1c-28,15-54.8,30.6-50.6,57.8"/>
		
			<path id="path4045" inkscape:connector-curvature="0" sodipodi:nodetypes="cc" fill="none" stroke="#800000" stroke-linecap="round" stroke-linejoin="round" d="
			M2591,388.1c-10.2-11.8,1.8-60.3,17.5-72.9"/>
		
			<path id="path4047" inkscape:connector-curvature="0" sodipodi:nodetypes="ccccc" fill="none" stroke="#800000" stroke-linecap="round" stroke-linejoin="round" d="
			M2620.5,450.9c-6.8,37.2,26.3,27.8,20.8,44.1c-20,36.8-5.2,42.6,5.8,48.5c20.5,11,10.7,18.1-11,23.7c-26.6,2-21.8-5.1-28.9-8.7"/>
		
			<path id="path4049" inkscape:connector-curvature="0" sodipodi:nodetypes="cc" fill="none" stroke="#800000" stroke-linecap="round" stroke-linejoin="round" d="
			M2594.9,665.2c-9.4,23.4,66.3,106.4,54.5,36.4"/>
		
			<path id="path4051" inkscape:connector-curvature="0" sodipodi:nodetypes="ccc" fill="none" stroke="#800000" stroke-linecap="round" stroke-linejoin="round" d="
			M2429.1,455.6c-17.1,9.8-46.5,35.3,24,29.4c-31.3,70-25.3,123.5,19.5,69.2"/>
		
			<path id="path4053" inkscape:connector-curvature="0" sodipodi:nodetypes="cccc" fill="none" stroke="#800000" stroke-linecap="round" stroke-linejoin="round" d="
			M2212.2,210.6c-29.8,46.8-18.8,118.4,22.9,52.9c-20.2,83.8,6.8,140.3,35.8,195.7c-8-11.7-16.8-20-28.5-14.2"/>
		
			<path id="path4055" inkscape:connector-curvature="0" sodipodi:nodetypes="ccc" fill="none" stroke="#800000" stroke-linecap="round" stroke-linejoin="round" d="
			M1998.3,243.2c31.3,0.8,48.4,35,10.1,36.4c45.6,3.4,41.4,30.4,58.7,47.3"/>
		
			<path id="path4057" inkscape:connector-curvature="0" sodipodi:nodetypes="cccc" fill="none" stroke="#800000" stroke-linecap="round" stroke-linejoin="round" d="
			M2048.8,472.5c31.3,77.6-11.6,73.5-28,44.4c34,74.1-37.7,182.6-33,190c6.7-17.8,27.8-19.3,28.9-9.9"/>
		
			<path id="path4059" inkscape:connector-curvature="0" sodipodi:nodetypes="cccc" fill="none" stroke="#800000" stroke-linecap="round" stroke-linejoin="round" d="
			M2259,697c-5,8.4-29.4-4.1-27.5-13.7c14.1,84-9.7,98-38.5,102.6c28.7,15.6,85.7,21.6,34.4,64.3"/>
		
			<path id="path4053-4" inkscape:connector-curvature="0" sodipodi:nodetypes="cccc" fill="none" stroke="#800000" stroke-linecap="round" stroke-linejoin="round" d="
			M1140,176.3c-29.8,46.8-18.8,118.4,22.9,52.9c-20.2,83.8,6.8,140.3,35.8,195.7c-8-11.7-16.8-20-28.5-14.2"/>
		
			<path id="path4055-5" inkscape:connector-curvature="0" sodipodi:nodetypes="ccc" fill="none" stroke="#800000" stroke-linecap="round" stroke-linejoin="round" d="
			M926.2,208.9c31.3,0.8,48.4,35,10.1,36.4c45.6,3.4,41.4,30.4,58.7,47.3"/>
		
			<path id="path4057-5" inkscape:connector-curvature="0" sodipodi:nodetypes="cccc" fill="none" stroke="#800000" stroke-linecap="round" stroke-linejoin="round" d="
			M976.6,438.2c31.3,77.6-11.6,73.5-28,44.4c34,74.1-37.7,182.6-33,190c6.7-17.8,27.8-19.3,28.9-9.9"/>
		
			<path id="path4059-1" inkscape:connector-curvature="0" sodipodi:nodetypes="cccc" fill="none" stroke="#800000" stroke-linecap="round" stroke-linejoin="round" d="
			M1186.8,662.7c-5,8.4-29.4-4.1-27.5-13.7c14.1,84-9.7,98-38.5,102.6c28.7,15.6,85.7,21.6,34.4,64.3"/>
		
			<path id="path4053-7" inkscape:connector-curvature="0" sodipodi:nodetypes="cccc" fill="none" stroke="#800000" stroke-width="1.0042" stroke-linecap="round" stroke-linejoin="round" d="
			M1573.4,174.4c30,46.8,19,118.4-23.1,52.9c20.3,83.8-6.9,140.3-36.1,195.7c8.1-11.7,16.9-20,28.7-14.2"/>
		
			<path id="path4055-1" inkscape:connector-curvature="0" sodipodi:nodetypes="ccc" fill="none" stroke="#800000" stroke-width="1.0042" stroke-linecap="round" stroke-linejoin="round" d="
			M1789,207c-31.5,0.8-48.9,35-10.2,36.4c-45.9,3.4-41.8,30.4-59.2,47.3"/>
		
			<path id="path4057-1" inkscape:connector-curvature="0" sodipodi:nodetypes="cccc" fill="none" stroke="#800000" stroke-width="1.0042" stroke-linecap="round" stroke-linejoin="round" d="
			M1738.1,436.3c-31.6,77.6,11.7,73.5,28.2,44.4c-34.3,74.1,38,182.6,33.3,190c-6.8-17.8-28.1-19.3-29.2-9.9"/>
		
			<path id="path4059-5" inkscape:connector-curvature="0" sodipodi:nodetypes="cccc" fill="none" stroke="#800000" stroke-width="1.0042" stroke-linecap="round" stroke-linejoin="round" d="
			M1526.2,660.9c5.1,8.4,29.6-4.1,27.8-13.7c-14.3,84,9.7,98,38.9,102.6c-28.9,15.6-86.5,21.6-34.7,64.3"/>
		
			<path id="path3950-9-1" inkscape:connector-curvature="0" sodipodi:nodetypes="czzc" fill="none" stroke="#800000" stroke-width="0.941" stroke-linecap="round" stroke-linejoin="round" d="
			M2963.9,459.6c0,0-0.9,83.6,12.6,98.3c13.4,14.7,5.3,15,2.4,38.3c-2.9,23.3,24,9.9,24,9.9"/>
		
			<path id="path3970-8" inkscape:connector-curvature="0" sodipodi:nodetypes="cc" fill="none" stroke="#800000" stroke-linecap="round" stroke-linejoin="round" d="
			M2909.5,685.5c18.2,22.2,42.9,82.6,46.7,19.4"/>
		
			<path id="path4017-5" inkscape:connector-curvature="0" sodipodi:nodetypes="cc" fill="none" stroke="#800000" stroke-linecap="round" stroke-linejoin="round" d="
			M2851.5,178.6c9.1-27.6,30.5-44,66.5-53.4"/>
		
			<path id="path4021-2-1" inkscape:connector-curvature="0" sodipodi:nodetypes="ccccccccc" fill="none" stroke="#800000" stroke-width="1.0117" stroke-linecap="round" stroke-linejoin="round" d="
			M2814.8,209.4c-26.2,0.9-80.2,39-32.4,44c-26.6,22.3-88.2,49.2-33.8,61c-22,26.6-14.4,49.7-14.1,73.7
			c-20.9,15.4-46.2,31.3,19.3,36.9c-29.4,80.4-26.3,107,16.9,67.6c-4.1,53.3-7.4,106.4,21.6,149.9c-10.2,26.2-4.6,31.3,8.9,26
			c-3,48.9,26.9,27.5,27.7,41.1"/>
		
			<path id="path4043-23" inkscape:connector-curvature="0" sodipodi:nodetypes="ccc" fill="none" stroke="#800000" stroke-linecap="round" stroke-linejoin="round" d="
			M2503.8,125.4c-44.3,20.1-59.3,35.4-22.4,42.1c-28,15-54.8,30.6-50.6,57.8"/>
		
			<path id="path4045-3" inkscape:connector-curvature="0" sodipodi:nodetypes="cc" fill="none" stroke="#800000" stroke-linecap="round" stroke-linejoin="round" d="
			M2591.1,387.8c-10.2-11.8,1.8-60.3,17.5-72.9"/>
		
			<path id="path4047-4" inkscape:connector-curvature="0" sodipodi:nodetypes="ccccc" fill="none" stroke="#800000" stroke-linecap="round" stroke-linejoin="round" d="
			M2620.6,450.7c-6.8,37.2,26.3,27.8,20.8,44.1c-20,36.8-5.2,42.6,5.8,48.5c20.5,11,10.7,18.1-11,23.7c-26.6,2-21.8-5.1-28.9-8.7"/>
		
			<path id="path4049-11" inkscape:connector-curvature="0" sodipodi:nodetypes="cc" fill="none" stroke="#800000" stroke-linecap="round" stroke-linejoin="round" d="
			M2595,665c-9.4,23.4,66.3,106.4,54.5,36.4"/>
		
			<path id="path4051-3" inkscape:connector-curvature="0" sodipodi:nodetypes="ccc" fill="none" stroke="#800000" stroke-linecap="round" stroke-linejoin="round" d="
			M2429.2,455.4c-17.1,9.8-46.5,35.3,24,29.4c-31.3,70-25.3,123.5,19.5,69.2"/>
		
			<path id="path4053-8" inkscape:connector-curvature="0" sodipodi:nodetypes="cccc" fill="none" stroke="#800000" stroke-linecap="round" stroke-linejoin="round" d="
			M2212.2,210.3c-29.8,46.8-18.8,118.4,22.9,52.9C2215,347,2242,403.6,2271,459c-8-11.7-16.8-20-28.5-14.2"/>
		
			<path id="path4055-7" inkscape:connector-curvature="0" sodipodi:nodetypes="ccc" fill="none" stroke="#800000" stroke-linecap="round" stroke-linejoin="round" d="
			M1998.4,242.9c31.3,0.8,48.4,35,10.1,36.4c45.6,3.4,41.4,30.4,58.7,47.3"/>
		
			<path id="path4057-4" inkscape:connector-curvature="0" sodipodi:nodetypes="cccc" fill="none" stroke="#800000" stroke-linecap="round" stroke-linejoin="round" d="
			M2048.8,472.2c31.3,77.6-11.6,73.5-28,44.4c34,74.1-37.7,182.6-33,190c6.7-17.8,27.8-19.3,28.9-9.9"/>
		
			<path id="path4059-27" inkscape:connector-curvature="0" sodipodi:nodetypes="cccc" fill="none" stroke="#800000" stroke-linecap="round" stroke-linejoin="round" d="
			M2259,696.8c-5,8.4-29.4-4.1-27.5-13.7c14.1,84-9.7,98-38.5,102.6c28.7,15.6,85.7,21.6,34.4,64.3"/>
		
			<path id="path4053-4-7" inkscape:connector-curvature="0" sodipodi:nodetypes="cccc" fill="none" stroke="#800000" stroke-linecap="round" stroke-linejoin="round" d="
			M1140.1,176c-29.8,46.8-18.8,118.4,22.9,52.9c-20.2,83.8,6.8,140.3,35.8,195.7c-8-11.7-16.8-20-28.5-14.2"/>
		
			<path id="path4055-5-9" inkscape:connector-curvature="0" sodipodi:nodetypes="ccc" fill="none" stroke="#800000" stroke-linecap="round" stroke-linejoin="round" d="
			M926.2,208.6c31.3,0.8,48.4,35,10.1,36.4c45.6,3.4,41.4,30.4,58.7,47.3"/>
		
			<path id="path4057-5-3" inkscape:connector-curvature="0" sodipodi:nodetypes="cccc" fill="none" stroke="#800000" stroke-linecap="round" stroke-linejoin="round" d="
			M976.7,437.9c31.3,77.6-11.6,73.5-28,44.4c34,74.1-37.7,182.6-33,190c6.7-17.8,27.8-19.3,28.9-9.9"/>
		
			<path id="path4059-1-1" inkscape:connector-curvature="0" sodipodi:nodetypes="cccc" fill="none" stroke="#800000" stroke-linecap="round" stroke-linejoin="round" d="
			M1186.9,662.5c-5,8.4-29.4-4.1-27.5-13.7c14.1,84-9.7,98-38.5,102.6c28.7,15.6,85.7,21.6,34.4,64.3"/>
		
			<path id="path4053-7-9" inkscape:connector-curvature="0" sodipodi:nodetypes="cccc" fill="none" stroke="#800000" stroke-width="1.0042" stroke-linecap="round" stroke-linejoin="round" d="
			M1573.5,174.1c30,46.8,19,118.4-23.1,52.9c20.3,83.8-6.9,140.3-36.1,195.7c8.1-11.7,16.9-20,28.7-14.2"/>
		
			<path id="path4055-1-8" inkscape:connector-curvature="0" sodipodi:nodetypes="ccc" fill="none" stroke="#800000" stroke-width="1.0042" stroke-linecap="round" stroke-linejoin="round" d="
			M1789.1,206.8c-31.5,0.8-48.9,35-10.2,36.4c-45.9,3.4-41.8,30.4-59.2,47.3"/>
		
			<path id="path4057-1-6" inkscape:connector-curvature="0" sodipodi:nodetypes="cccc" fill="none" stroke="#800000" stroke-width="1.0042" stroke-linecap="round" stroke-linejoin="round" d="
			M1738.2,436c-31.6,77.6,11.7,73.5,28.2,44.4c-34.3,74.1,38,182.6,33.3,190c-6.8-17.8-28.1-19.3-29.2-9.9"/>
		
			<path id="path4059-5-5" inkscape:connector-curvature="0" sodipodi:nodetypes="cccc" fill="none" stroke="#800000" stroke-width="1.0042" stroke-linecap="round" stroke-linejoin="round" d="
			M1526.3,660.6c5.1,8.4,29.6-4.1,27.8-13.7c-14.3,84,9.7,98,38.9,102.6c-28.9,15.6-86.5,21.6-34.7,64.3"/>
		
			<path id="path3880" inkscape:connector-curvature="0" sodipodi:nodetypes="cc" fill="none" stroke="#800000" stroke-linecap="round" stroke-linejoin="round" d="
			M3862.5,415.9c19.9,21.8,41.7,55.9-26.9,53.2"/>
		
			<path id="path3950" inkscape:connector-curvature="0" sodipodi:nodetypes="czzc" fill="none" stroke="#800000" stroke-linecap="round" stroke-linejoin="round" d="
			M3904.7,464.9c0,0,1,83.6-14.2,98.3c-15.2,14.7-6,15-2.8,38.3c3.2,23.3-27.1,9.9-27.1,9.9"/>
		
			<path id="path3970-4" inkscape:connector-curvature="0" sodipodi:nodetypes="cc" fill="none" stroke="#800000" stroke-width="0.9796" stroke-linecap="round" stroke-linejoin="round" d="
			M3925.1,669c-17.5,22.2-41.1,82.6-44.8,19.4"/>
		
			<path id="path4019" inkscape:connector-curvature="0" sodipodi:nodetypes="cc" fill="none" stroke="#800000" stroke-linecap="round" stroke-linejoin="round" d="
			M3910.6,126.4c34.2,3.5,63.6,14.5,80.8,44.4"/>
		
			<path id="path4021" inkscape:connector-curvature="0" sodipodi:nodetypes="ccccccccc" fill="none" stroke="#800000" stroke-linecap="round" stroke-linejoin="round" d="
			M4024.9,217.2c25.6,0.9,78.4,39,31.7,44c25.9,22.3,86.2,49.2,33,61c21.5,26.6,14.1,49.7,13.8,73.7c20.5,15.4,45.1,31.3-18.8,36.9
			c28.8,80.4,25.7,107-16.5,67.6c4,53.3,7.2,106.4-21.1,149.9c10,26.2,4.5,31.3-8.7,26c2.9,48.9-26.3,27.5-27.1,41.1"/>
		
			<path id="path4043-2" inkscape:connector-curvature="0" sodipodi:nodetypes="ccc" fill="none" stroke="#800000" stroke-width="1.002" stroke-linecap="round" stroke-linejoin="round" d="
			M4329.2,124.1c44.5,20.1,59.5,35.4,22.5,42.1c28.1,15,55,30.6,50.8,57.8"/>
		
			<path id="path4045-7" inkscape:connector-curvature="0" sodipodi:nodetypes="cc" fill="none" stroke="#800000" stroke-width="1.002" stroke-linecap="round" stroke-linejoin="round" d="
			M4241.6,386.5c10.2-11.8-1.8-60.3-17.6-72.9"/>
		
			<path id="path4047-6" inkscape:connector-curvature="0" sodipodi:nodetypes="ccccc" fill="none" stroke="#800000" stroke-width="1.002" stroke-linecap="round" stroke-linejoin="round" d="
			M4211.7,460.7c6.8,37.2-26.4,27.8-20.9,44.1c20,36.8,5.2,42.6-5.9,48.5c-20.5,11-10.8,18.1,11.1,23.7c26.7,2,21.9-5.1,29-8.7"/>
		
			<path id="path4049-1" inkscape:connector-curvature="0" sodipodi:nodetypes="cc" fill="none" stroke="#800000" stroke-width="1.002" stroke-linecap="round" stroke-linejoin="round" d="
			M4237.6,663.6c9.4,23.4-66.6,106.4-54.7,36.4"/>
		
			<path id="path4051-4" inkscape:connector-curvature="0" sodipodi:nodetypes="ccc" fill="none" stroke="#800000" stroke-width="1.002" stroke-linecap="round" stroke-linejoin="round" d="
			M4404.1,454c17.2,9.8,46.7,35.3-24.1,29.4c31.4,70,25.4,123.5-19.5,69.2"/>
		
			<path id="path4053-2" inkscape:connector-curvature="0" sodipodi:nodetypes="cccc" fill="none" stroke="#800000" stroke-width="1.002" stroke-linecap="round" stroke-linejoin="round" d="
			M4622,209c29.9,46.8,18.9,118.4-23,52.9c20.2,83.8-6.8,140.3-35.9,195.7c8.1-11.7,16.8-20,28.6-14.2"/>
		
			<path id="path4055-3" inkscape:connector-curvature="0" sodipodi:nodetypes="ccc" fill="none" stroke="#800000" stroke-width="1.002" stroke-linecap="round" stroke-linejoin="round" d="
			M4836.7,241.6c-31.4,0.8-48.6,35-10.1,36.4c-45.7,3.4-41.6,30.4-59,47.3"/>
		
			<path id="path4057-2" inkscape:connector-curvature="0" sodipodi:nodetypes="cccc" fill="none" stroke="#800000" stroke-width="1.002" stroke-linecap="round" stroke-linejoin="round" d="
			M4786,470.9c-31.4,77.6,11.6,73.5,28.1,44.4c-34.2,74.1,37.8,182.6,33.2,190c-6.8-17.8-28-19.3-29-9.9"/>
		
			<path id="path4059-2" inkscape:connector-curvature="0" sodipodi:nodetypes="cccc" fill="none" stroke="#800000" stroke-width="1.002" stroke-linecap="round" stroke-linejoin="round" d="
			M4575,695.5c5,8.4,29.5-4.1,27.6-13.7c-14.2,84,9.7,98,38.7,102.6c-28.8,15.6-86.1,21.6-34.6,64.3"/>
		
			<path id="path3880-8" inkscape:connector-curvature="0" sodipodi:nodetypes="cc" fill="none" stroke="#800000" stroke-linecap="round" stroke-linejoin="round" d="
			M3862.6,415.7c19.9,21.8,41.7,55.9-26.9,53.2"/>
		
			<path id="path3950-6" inkscape:connector-curvature="0" sodipodi:nodetypes="czzc" fill="none" stroke="#800000" stroke-linecap="round" stroke-linejoin="round" d="
			M3904.7,464.6c0,0,1,83.6-14.2,98.3s-6,15-2.8,38.3s-27.1,9.9-27.1,9.9"/>
		
			<path id="path3970-4-2" inkscape:connector-curvature="0" sodipodi:nodetypes="cc" fill="none" stroke="#800000" stroke-width="0.9796" stroke-linecap="round" stroke-linejoin="round" d="
			M3925.1,668.8c-17.5,22.2-41.1,82.6-44.8,19.4"/>
		
			<path id="path4019-4" inkscape:connector-curvature="0" sodipodi:nodetypes="cc" fill="none" stroke="#800000" stroke-linecap="round" stroke-linejoin="round" d="
			M3910.7,126.2c34.2,3.5,63.6,14.5,80.8,44.4"/>
		
			<path id="path4021-3" inkscape:connector-curvature="0" sodipodi:nodetypes="ccccccccc" fill="none" stroke="#800000" stroke-linecap="round" stroke-linejoin="round" d="
			M4024.9,216.9c25.6,0.9,78.4,39,31.7,44c25.9,22.3,86.2,49.2,33,61c21.5,26.6,14.1,49.7,13.8,73.7c20.5,15.4,45.1,31.3-18.8,36.9
			c28.8,80.4,25.7,107-16.5,67.6c4,53.3,7.2,106.4-21.1,149.9c10,26.2,4.5,31.3-8.7,26c2.9,48.9-26.3,27.5-27.1,41.1"/>
		
			<path id="path4043-2-0" inkscape:connector-curvature="0" sodipodi:nodetypes="ccc" fill="none" stroke="#800000" stroke-width="1.002" stroke-linecap="round" stroke-linejoin="round" d="
			M4329.2,123.9c44.5,20.1,59.5,35.4,22.5,42.1c28.1,15,55,30.6,50.8,57.8"/>
		
			<path id="path4045-7-2" inkscape:connector-curvature="0" sodipodi:nodetypes="cc" fill="none" stroke="#800000" stroke-width="1.002" stroke-linecap="round" stroke-linejoin="round" d="
			M4241.6,386.3c10.2-11.8-1.8-60.3-17.6-72.9"/>
		
			<path id="path4047-6-8" inkscape:connector-curvature="0" sodipodi:nodetypes="ccccc" fill="none" stroke="#800000" stroke-width="1.002" stroke-linecap="round" stroke-linejoin="round" d="
			M4211.7,460.5c6.8,37.2-26.4,27.8-20.9,44.1c20,36.8,5.2,42.6-5.9,48.5c-20.5,11-10.8,18.1,11.1,23.7c26.7,2,21.9-5.1,29-8.7"/>
		
			<path id="path4049-1-6" inkscape:connector-curvature="0" sodipodi:nodetypes="cc" fill="none" stroke="#800000" stroke-width="1.002" stroke-linecap="round" stroke-linejoin="round" d="
			M4237.7,663.4c9.4,23.4-66.6,106.4-54.7,36.4"/>
		
			<path id="path4051-4-0" inkscape:connector-curvature="0" sodipodi:nodetypes="ccc" fill="none" stroke="#800000" stroke-width="1.002" stroke-linecap="round" stroke-linejoin="round" d="
			M4404.2,453.8c17.2,9.8,46.7,35.3-24.1,29.4c31.4,70,25.4,123.5-19.5,69.2"/>
		
			<path id="path4053-2-2" inkscape:connector-curvature="0" sodipodi:nodetypes="cccc" fill="none" stroke="#800000" stroke-width="1.002" stroke-linecap="round" stroke-linejoin="round" d="
			M4622,208.7c29.9,46.8,18.9,118.4-23,52.9c20.2,83.8-6.8,140.3-35.9,195.7c8.1-11.7,16.8-20,28.6-14.2"/>
		
			<path id="path4055-3-4" inkscape:connector-curvature="0" sodipodi:nodetypes="ccc" fill="none" stroke="#800000" stroke-width="1.002" stroke-linecap="round" stroke-linejoin="round" d="
			M4836.7,241.4c-31.4,0.8-48.6,35-10.1,36.4c-45.7,3.4-41.6,30.4-59,47.3"/>
		
			<path id="path4057-2-8" inkscape:connector-curvature="0" sodipodi:nodetypes="cccc" fill="none" stroke="#800000" stroke-width="1.002" stroke-linecap="round" stroke-linejoin="round" d="
			M4786.1,470.6c-31.4,77.6,11.6,73.5,28.1,44.4c-34.2,74.1,37.8,182.6,33.2,190c-6.8-17.8-28-19.3-29-9.9"/>
		
			<path id="path4059-2-6" inkscape:connector-curvature="0" sodipodi:nodetypes="cccc" fill="none" stroke="#800000" stroke-width="1.002" stroke-linecap="round" stroke-linejoin="round" d="
			M4575,695.2c5,8.4,29.5-4.1,27.6-13.7c-14.2,84,9.7,98,38.7,102.6c-28.8,15.6-86.1,21.6-34.6,64.3"/>
		
			<path id="path3972" inkscape:connector-curvature="0" sodipodi:nodetypes="cccc" fill="none" stroke="#800000" stroke-linecap="round" stroke-linejoin="round" d="
			M3055.8,647.5c-13,14.3-65.2,36.2,21.4,32.8c-49.4,109.8,1.8,100.4,13,70.2l1.9,33.4"/>
		
			<path id="path3972-8" inkscape:connector-curvature="0" sodipodi:nodetypes="cccc" fill="none" stroke="#800000" stroke-width="0.9796" stroke-linecap="round" stroke-linejoin="round" d="
			M3808.3,645.8c12.5,14.3,62.6,36.2-20.6,32.8c47.4,109.8-1.7,100.4-12.5,70.2l-1.9,33.4"/>
		
			<path id="path4015" inkscape:connector-curvature="0" sodipodi:nodetypes="czcc" fill="none" stroke="#800000" stroke-linecap="round" stroke-linejoin="round" d="
			M3216.3,809.1c58.6,22.4,115.7,60.7,178.5,59.6s26.7-12.7,13.8-38.3c72.5,84.4,130.1-2.5,207-19.4"/>
		
			<path id="path3972-9" inkscape:connector-curvature="0" sodipodi:nodetypes="cccc" fill="none" stroke="#800000" stroke-linecap="round" stroke-linejoin="round" d="
			M3055.8,647.2c-13,14.3-65.2,36.2,21.4,32.8c-49.4,109.8,1.8,100.4,13,70.2l1.9,33.4"/>
		
			<path id="path3972-8-7" inkscape:connector-curvature="0" sodipodi:nodetypes="cccc" fill="none" stroke="#800000" stroke-width="0.9796" stroke-linecap="round" stroke-linejoin="round" d="
			M3808.3,645.6c12.5,14.3,62.6,36.2-20.6,32.8c47.4,109.8-1.7,100.4-12.5,70.2l-1.9,33.4"/>
		
			<path id="path4015-9" inkscape:connector-curvature="0" sodipodi:nodetypes="czcc" fill="none" stroke="#800000" stroke-linecap="round" stroke-linejoin="round" d="
			M3216.3,808.8c58.6,22.4,115.7,60.7,178.5,59.6c62.8-1.1,26.7-12.7,13.8-38.3c72.5,84.4,130.1-2.5,207-19.4"/>
		
			<path id="path3878" inkscape:connector-curvature="0" sodipodi:nodetypes="cc" fill="none" stroke="#800000" stroke-linecap="round" stroke-linejoin="round" d="
			M3027.8,430.2c-24.6,30.9-33.6,56.6,32.1,59.5"/>
		
			<path id="path3930" inkscape:connector-curvature="0" sodipodi:nodetypes="czsccc" fill="none" stroke="#800000" stroke-width="1.1417" stroke-linecap="round" stroke-linejoin="round" d="
			M3095.5,138.4c0,0-102.8,53.8-125.6,18.9s-49.8,5-29.9,21.7l17.9,15.1c-53.3,0.9-63.8,23.9-71.8,48.2c-37.3,3.5-70,12.1-43.7-29.8
			"/>
		
			<path id="path3930-0" inkscape:connector-curvature="0" sodipodi:nodetypes="czsccc" fill="none" stroke="#800000" stroke-width="1.1459" stroke-linecap="round" stroke-linejoin="round" d="
			M3748.5,142.5c0,0,103.5,53.8,126.5,18.9c23-34.8,50.1,5,30.1,21.7l-18.1,15.1c53.7,0.9,64.3,23.9,72.3,48.2
			c37.6,3.5,70.5,12.1,44-29.8"/>
		
			<path id="path3878-6" inkscape:connector-curvature="0" sodipodi:nodetypes="cc" fill="none" stroke="#800000" stroke-linecap="round" stroke-linejoin="round" d="
			M3027.9,429.9c-24.6,30.9-33.6,56.6,32.1,59.5"/>
		
			<path id="path3930-5" inkscape:connector-curvature="0" sodipodi:nodetypes="czsccc" fill="none" stroke="#800000" stroke-width="1.1417" stroke-linecap="round" stroke-linejoin="round" d="
			M3095.5,138.5c0,0-102.8,53.8-125.6,18.9c-22.8-34.8-49.8,5-29.9,21.7l17.9,15.1c-53.3,0.9-63.8,23.9-71.8,48.2
			c-37.3,3.5-70,12.1-43.7-29.8"/>
		
			<path id="path3930-0-7" inkscape:connector-curvature="0" sodipodi:nodetypes="czsccc" fill="none" stroke="#800000" stroke-width="1.1459" stroke-linecap="round" stroke-linejoin="round" d="
			M3748.6,142.5c0,0,103.5,53.8,126.5,18.9c23-34.8,50.1,5,30.1,21.7l-18.1,15.1c53.7,0.9,64.3,23.9,72.3,48.2
			c37.6,3.5,70.5,12.1,44-29.8"/>
		
			<path id="path3850-4-1-5" inkscape:connector-curvature="0" fill="none" stroke="#800000" stroke-linecap="round" stroke-linejoin="round" d="
			M3656,455.1c2.7,0,5.3,0.9,7.8,1.9c18.4,10.6,38,18.7,57.8,26.3c11.3,3.7,27.1,9,36.5-0.7c5.2-4.9,3.5-13.6,7.2-18.6
			c18.5-3.6,37,3.1,55.5,3.3c3.7,0.9,12.5-2.8,11.1,3.6c-14.7,8.7-19.9,26.8-23.9,42.8c-5.6,31.3-21.1,59.3-33.3,88
			c-18.9,26.8-43.9,48.9-69.3,69.4c-38.2,33.1-84.5,58.5-134.8,63.2c-71.7,2.3-143.6,0.1-215.3,1.7c-39.7,2.3-74.8-19.6-110-35.2
			c-37-17.9-76.3-36.1-102.7-69.3c-15.7-24.8-32.2-50.8-36.6-80.7c0-21.6-13.3-40.4-30.3-51.9c-3.7-4-12.4-4.7-12.4-10.7
			c11-4.1,23.1-5.9,34.3-10.1c11.6-3,27.6-9.4,37,1.7c2.8,5.9,8,11.2,14.9,9.2c32.8-6,66.1-11.3,97.9-21.3c7-1,15.5-7.2,22.4-2.8
			c4.1,8.2-6.7,14.5-7,22.4c1.2,6.7,11.1,5.7,16.1,6.3c31.3-1.5,62.6-9.1,90.6-23.9c17.8-9.9,38.7-7,57.2-1.6
			c11,4.7,22.4,0.3,33.3-2.6c28.2-7.2,60.6-14.4,87.3,1.6c20.4,16.6,49.6,23.6,73.7,12.5c13.3-5,18.8-22.9,33.8-24.5
			C3655.3,455.2,3655.7,455.1,3656,455.1L3656,455.1z"/>
		
			<path id="path5170-7-1" inkscape:connector-curvature="0" sodipodi:nodetypes="ccczcccc" fill="none" stroke="#FFFFFF" stroke-width="0.1555" d="
			M1520.6,789.8c-4.7,1.7-12.3-18.8-19.7-66.3c-2.3-17-2.7-34.8-1.2-51.5c0.2-1.8,0.8-4,1.7-4.4c0.9-0.4,1.5,1.4,1.8,3.1
			c2.7,11.6,3.9,41.2,5.2,62.1c0.2,2.8,1.5,15.5,6.8,11.4c2-1.2,4.1-2.7,6.2-2.4"/>
		
			<path id="path5172-4-7" inkscape:connector-curvature="0" sodipodi:nodetypes="cscccc" fill="none" stroke="#FFFFFF" stroke-width="0.1555" d="
			M1518.1,656.2c-1.1,2.2-1.7,6.9-1.8,10.5c-1.2,29.8,1.2,54,5.8,66c4,8.1,5.9,1.4,7.9-4.9c2.3-7.1,4.5-9.7,5.7-2
			c2.4,11,4.3,22.5,8.3,31.6"/>
	</g>
	<g id="layer6" inkscape:label="4 - Black" inkscape:groupmode="layer" sodipodi:insensitive="true">
		
			<path id="path3877" inkscape:connector-curvature="0" sodipodi:nodetypes="cssssc" fill="none" stroke="#000000" stroke-linecap="round" stroke-linejoin="round" d="
			M3266.6,218.9c-1.1,0-2.1,0-3.2,0c-92.6,0-167.6-55.5-167.6-124s75-124,167.6-124c92.6,0,167.6,55.5,167.6,124
			c0,19.1-5.8,37.2-16.2,53.3"/>
		<g id="g3823" transform="translate(-1.5206597,-2.0275463)">
			<g id="g3175">
				
					<path id="path3792" sodipodi:ry="29.659498" sodipodi:rx="30.197132" sodipodi:cx="1909.5878" sodipodi:cy="138.79929" sodipodi:type="arc" fill="none" stroke="#000000" stroke-linecap="round" stroke-linejoin="round" d="
					M3318.8,129.9c0,21.6-25.1,39.1-56,39.1c-30.9,0-56-17.5-56-39.1s25.1-39.1,56-39.1S3318.8,108.3,3318.8,129.9z"/>
				<path id="path3178" inkscape:connector-curvature="0" fill="none" stroke="#000000" stroke-width="0.8591" d="M3208,122.1v15.7
					 M3215.6,151v-42.1 M3223.3,102.1v55.6 M3231,162.1V97.8 M3238.7,94.7v70.5 M3246.4,167.3V92.6 M3254,91.3v77.2 M3261.7,169
					V90.9 M3269.4,91.1v77.6 M3277.1,167.7V92.1 M3284.8,94v71.9 M3292.5,163V96.9 M3300.1,100.9v58 M3307.8,153.1v-46.3
					 M3315.5,117v25.8"/>
			</g>
		</g>
		<g id="g3828" transform="translate(18.754804,55.757524)">
			<g id="g3181">
				
					<path id="path3792-7" sodipodi:ry="29.659498" sodipodi:rx="30.197132" sodipodi:cx="1909.5878" sodipodi:cy="138.79929" sodipodi:type="arc" fill="none" stroke="#000000" stroke-linecap="round" stroke-linejoin="round" d="
					M3610.1,69.6c0,21.6-25.1,39.1-56,39.1c-30.9,0-56-17.5-56-39.1s25.1-39.1,56-39.1S3610.1,48,3610.1,69.6z"/>
				<path id="path3184" inkscape:connector-curvature="0" fill="none" stroke="#000000" stroke-width="0.8591" d="M3505.6,50v39.2
					 M3513.2,96.3V42.9 M3520.9,38.1v63 M3528.6,104.3V34.8 M3536.3,32.6v74 M3544,108V31.2 M3551.7,30.6v78 M3559.3,108.5V30.7
					 M3567,31.6v76 M3574.7,105.9V33.2 M3582.4,35.8v67.5 M3590.1,99.5V39.7 M3597.8,45.2V94 M3605.4,85.1V54"/>
			</g>
		</g>
		<g id="g3902" transform="matrix(1.0696461,0,0,0.63686095,-120.35277,216.1265)">
			<g id="g4497">
				
					<path id="path3850" inkscape:connector-curvature="0" sodipodi:nodetypes="zzzzzccczccccccczzzzz" fill="none" stroke="#000000" stroke-linecap="round" stroke-linejoin="round" d="
					M3301.8,394.9c-31-10.7-38.4,15.1-70.5,30.3c-32.1,15.1-82.8,29.2-67.7-11.6c15.1-40.8-5.5-11.4-59.5,5.1s-53.2,23-62.1-0.3
					c-8.9-23.3-36,3.4-63.2,11.5c24.9,22.3,39.3,55.7,39.8,89.6c2.5,41.3,13.9,74.5,27.6,113.8c21.5,67.2,84,110.4,128.3,145.5
					c44.3,35.1,56.9,35.4,88.8,33.1c61.2-0.5,122.5,0.5,183.7-1.3c53-7.8,93-49.1,124.7-93.9c27.2-35.9,48.1-68.5,67.4-110.4
					c8.9-37.2,20.7-71.4,26.9-109c4.7-24.4,8.2-83.1,27.4-98.9c-16.3,3.9-47.8-11.3-59.9-4.7c-2.6,69-47.5,26.1-72.4,9.3
					c-25-16.7-29.3-40.9-48.2-2.9s-58,32.4-80.6,3.2c-22.6-29.2-54.1-20.1-83-7.5C3320.5,408.2,3332.8,405.6,3301.8,394.9
					L3301.8,394.9z"/>
				<path id="path4500" inkscape:connector-curvature="0" fill="none" stroke="#000000" stroke-width="1.2922" d="M2979.1,429.7v0.4
					 M2986.3,437.3V427 M2993.4,423.9V446 M3000.6,456.6v-36.2 M3007.8,416.9v53.3 M3015,491.8v-78.4 M3022.2,410.6v139.1
					 M3029.3,581.1V409 M3036.5,410.9v193.9 M3043.7,625.8V422.6 M3050.9,432.8v213 M3058.1,660.9V433 M3065.3,431.2v242
					 M3072.4,683.9v-255 M3079.6,426.6v266.8 M3086.8,701.9V424.2 M3094,421.9v288 M3101.2,717.3V419.6 M3108.3,417.1V724
					 M3115.5,730.7V414.6 M3122.7,412v325.1 M3129.9,743.1V408.8 M3137.1,405.7v343.5 M3144.3,754.9V402.2 M3151.4,398.7v361.9
					 M3158.6,766.2v-371 M3165.8,392.9v13.9 M3165.8,771.8V437 M3173,439.8v337.7 M3180.2,783V440.3 M3187.4,439.4v349.1
					 M3194.5,793.5V438.2 M3201.7,436.3v362.1 M3208.9,802.5V434.1 M3216.1,431.5v374.7 M3223.3,809.2V428.6 M3230.4,425.5V811
					 M3237.6,812.1V421.6 M3244.8,417.3v395.3 M3252,812.6V412.1 M3259.2,406.5v405.7 M3266.4,811.9V400.8 M3273.5,396.2v415.6
					 M3280.7,811.9V393.5 M3287.9,392.4v419.4 M3295.1,811.8V393.1 M3302.3,395v416.8 M3309.4,811.8v-414 M3316.6,400.6v411.2
					 M3323.8,811.8V403.3 M3331,403.3v408.4 M3338.2,811.8V400.5 M3345.4,397.4v414.4 M3352.5,811.7V394.3 M3359.7,391.4v420.3
					 M3366.9,811.7V388.9 M3374.1,386.7v424.9 M3381.3,811.6V385 M3388.4,384.2v427.4 M3395.6,811.5V383.9 M3402.8,384.5v426.9
					 M3410,811.3V386.3 M3417.2,389.6v421.5 M3424.4,811V394.7 M3431.5,402.2v408.7 M3438.7,810.7V410.2 M3445.9,416.4v394.1
					 M3453.1,809.4V420.9 M3460.3,424.1v383.7 M3467.4,805.7V426 M3474.6,426.7v376.4 M3481.8,800.1V426 M3489,423.9v372.6
					 M3496.2,792.5V420.1 M3503.4,413.9v374 M3510.5,782.8V404.2 M3517.7,391.6v385.6 M3524.9,770.7V382.2 M3532.1,380v384.3
					 M3539.3,756.7V384.1 M3546.5,390.6V749 M3553.6,740.3V397.1 M3560.8,402.6v328.9 M3568,721.8v-314 M3575.2,412.8V712
					 M3582.4,702.1V417.9 M3589.5,422.4v269.8 M3596.7,681.5V426.6 M3603.9,429.7v240.9 M3611.1,659.3V431.4 M3618.3,430.5v216.5
					 M3625.5,634V425.4 M3632.6,405.5V620 M3639.8,603.9V392 M3647,392.2v184 M3654.2,550V393.3 M3661.4,394.8v126.6 M3668.5,482.1
					v-85.9 M3675.7,397.6v41.1 M3682.9,414.4v-15.8 M3690.1,398.6v3.2"/>
			</g>
		</g>
		
			<path id="path3879" inkscape:connector-curvature="0" fill="none" stroke="#000000" stroke-linecap="round" stroke-linejoin="round" d="
			M3594,278.6c0,71.9-77.6,130.2-173.3,130.2c-95.7,0-173.3-58.3-173.3-130.2s77.6-130.2,173.3-130.2c92.9,0,169.3,55,173.1,124.7"
			/>
		
			<path id="path3096" inkscape:connector-curvature="0" sodipodi:nodetypes="csssccc" fill="none" stroke="#000000" stroke-linecap="round" stroke-linejoin="round" d="
			M3420.3,50.8c24.4-46.2,85.1-78.9,156.2-78.9c92.6,0,167.6,55.5,167.6,124s-75,124-167.6,124c-0.4,0-0.8,0-1.1,0 M3424.7,148.6
			c-1.7-2.7-3.3-5.5-4.8-8.4"/>
	</g>
	<eggbot  serialport="COM5" layer="0" node="0" lastpath="0" lastpathnc="0" totaldeltax="0" totaldeltay="0" id="eggbot4463">
		</eggbot>
</g>
</svg>
