<?xml version="1.0" encoding="UTF-8" standalone="no"?>
<!-- Created with Inkscape (http://www.inkscape.org/) -->

<svg
   xmlns:dc="http://purl.org/dc/elements/1.1/"
   xmlns:cc="http://creativecommons.org/ns#"
   xmlns:rdf="http://www.w3.org/1999/02/22-rdf-syntax-ns#"
   xmlns:svg="http://www.w3.org/2000/svg"
   xmlns="http://www.w3.org/2000/svg"
   xmlns:sodipodi="http://sodipodi.sourceforge.net/DTD/sodipodi-0.dtd"
   xmlns:inkscape="http://www.inkscape.org/namespaces/inkscape"
   sodipodi:docname="EggPuzzle.svg"
   inkscape:version="0.48.4 r9939"
   version="1.1"
   id="svg2"
   height="600"
   width="3200">
  <sodipodi:namedview
     id="base"
     pagecolor="#ffffff"
     bordercolor="#666666"
     borderopacity="1.0"
     inkscape:pageopacity="0.0"
     inkscape:pageshadow="2"
     inkscape:zoom="0.273125"
     inkscape:cx="1788.2662"
     inkscape:cy="38.132852"
     inkscape:document-units="px"
     inkscape:current-layer="layer1"
     showgrid="false"
     inkscape:window-width="1366"
     inkscape:window-height="706"
     inkscape:window-x="-8"
     inkscape:window-y="-8"
     inkscape:window-maximized="1" />
  <defs
     id="defs4" />
  <metadata
     id="metadata7">
    <rdf:RDF>
      <cc:Work
         rdf:about="">
        <dc:format>image/svg+xml</dc:format>
        <dc:type
           rdf:resource="http://purl.org/dc/dcmitype/StillImage" />
        <dc:title></dc:title>
      </cc:Work>
    </rdf:RDF>
  </metadata>
  <g
     style="display:inline"
     inkscape:label="Layer 1"
     inkscape:groupmode="layer"
     id="layer1"
     transform="translate(0,-452.36218)">
    <g
       id="g3642"
       transform="matrix(2.2098299,0,0,1.488177,2510.3469,996.52619)"
       inkscape:label="Hershey Text">
      <path
         id="path3644"
         transform="translate(9,0)"
         d="M 6,-5 6,9 M 6,-2 4,-4 2,-5 l -3,0 -2,1 -2,2 -1,3 0,2 1,3 2,2 2,1 3,0 2,-1 2,-2"
         style="fill:none;stroke:#000000"
         inkscape:connector-curvature="0" />
      <path
         id="path3646"
         transform="translate(28,0)"
         d="M -6,1 6,1 6,-1 5,-3 4,-4 2,-5 l -3,0 -2,1 -2,2 -1,3 0,2 1,3 2,2 2,1 3,0 2,-1 2,-2"
         style="fill:none;stroke:#000000"
         inkscape:connector-curvature="0" />
      <path
         id="path3648"
         transform="translate(45,0)"
         d="M -6,-5 0,9 M 6,-5 0,9"
         style="fill:none;stroke:#000000"
         inkscape:connector-curvature="0" />
      <path
         id="path3650"
         transform="translate(57,0)"
         d="m -1,-12 1,1 1,-1 -1,-1 -1,1 m 1,7 0,14"
         style="fill:none;stroke:#000000"
         inkscape:connector-curvature="0" />
      <path
         id="path3652"
         transform="translate(70,0)"
         d="m 6,-2 -2,-2 -2,-1 -3,0 -2,1 -2,2 -1,3 0,2 1,3 2,2 2,1 3,0 2,-1 2,-2"
         style="fill:none;stroke:#000000"
         inkscape:connector-curvature="0" />
      <path
         id="path3654"
         transform="translate(84,0)"
         d="M 0,-12 0,5 1,8 3,9 5,9 m -8,-14 7,0"
         style="fill:none;stroke:#000000"
         inkscape:connector-curvature="0" />
      <path
         id="path3656"
         transform="translate(100,0)"
         d="m -1,-5 -2,1 -2,2 -1,3 0,2 1,3 2,2 2,1 L 2,9 4,8 6,6 7,3 7,1 6,-2 4,-4 2,-5 -1,-5"
         style="fill:none;stroke:#000000"
         inkscape:connector-curvature="0" />
      <path
         id="path3658"
         transform="translate(117,0)"
         d="m -3,-5 0,14 m 0,-8 1,-3 2,-2 2,-1 3,0"
         style="fill:none;stroke:#000000"
         inkscape:connector-curvature="0" />
      <path
         id="path3660"
         transform="translate(131,0)"
         d="M -6,-5 0,9 M 6,-5 0,9 l -2,4 -2,2 -2,1 -1,0"
         style="fill:none;stroke:#000000"
         inkscape:connector-curvature="0" />
      <path
         id="path3662"
         transform="translate(147,0)"
         d=""
         style="fill:none;stroke:#000000"
         inkscape:connector-curvature="0" />
      <path
         id="path3664"
         transform="translate(165,0)"
         d="m -6,-7 0,-1 1,-2 1,-1 2,-1 4,0 2,1 1,1 1,2 0,2 L 5,-4 3,-1 -7,9 7,9"
         style="fill:none;stroke:#000000"
         inkscape:connector-curvature="0" />
      <path
         id="path3666"
         transform="translate(185,0)"
         d="m -1,-12 -3,1 -2,3 -1,5 0,3 1,5 2,3 3,1 2,0 3,-1 2,-3 1,-5 0,-3 -1,-5 -2,-3 -3,-1 -2,0"
         style="fill:none;stroke:#000000"
         inkscape:connector-curvature="0" />
      <path
         id="path3668"
         transform="translate(205,0)"
         d="m -4,-8 2,-1 3,-3 0,21"
         style="fill:none;stroke:#000000"
         inkscape:connector-curvature="0" />
      <path
         id="path3670"
         transform="translate(225,0)"
         d="m 5,-12 -10,0 -1,9 1,-1 3,-1 3,0 3,1 2,2 L 7,1 7,3 6,6 4,8 1,9 -2,9 -5,8 -6,7 -7,5"
         style="fill:none;stroke:#000000"
         inkscape:connector-curvature="0" />
    </g>
  </g>
  <g
     style="display:inline"
     inkscape:label="1 Puzzle"
     id="layer2"
     inkscape:groupmode="layer">
    <path
       d="m 2749.7181,6.6428445 c 0,0 -45.4259,18.0008035 -10.9783,30.1426865 34.4477,12.141883 8.7117,-3.504602 75.0974,-1.880708 66.3824,1.623895 58.2855,28.300629 1.0099,29.539475 -57.2785,1.239016 -60.9311,-11.64788 -95.4291,-0.03065 -34.4975,11.618018 79.5189,40.328182 54.0104,53.883822 -25.5075,13.55649 -19.9225,0.54352 -87.7943,2.04998 -67.8719,1.50646 -86.8241,26.20005 -23.9848,27.90048 62.8398,1.70094 72.3602,-12.24341 104.1852,-1.61366 31.8258,10.62916 -71.7469,43.88603 -42.8289,57.31283 28.918,13.42765 24.583,2.33196 94.9256,3.48054 70.3426,1.14858 79.2534,26.59423 17.0133,28.28271 -62.2402,1.68823 -72.0444,-14.69551 -104.9862,-3.82063 -32.9404,10.87489 -36.1252,48.03173 -4.7873,61.18465 31.338,13.15292 40.912,-2.32207 112.8406,-1.625 71.9254,0.69709 46.362,28.95674 -11.5985,30.30564 -57.9605,1.34823 -76.6078,-10.74434 -103.8373,-0.56706 -27.2309,10.17697 74.4474,40.42033 41.0516,53.11167 -33.3936,12.69135 -28.8997,-1.8517 -93.0764,-0.14909 -64.1809,1.70265 -62.9496,26.88688 -1.66,28.53868 61.2881,1.65247 58.7386,-7.3109 88.8334,3.07109 30.0952,10.38173 33.4704,43.82545 -1.1039,55.75062 -34.574,11.92431 -19.1723,1.47552 -91.7399,1.79359 -72.5662,0.31805 -44.1686,27.85611 12.4727,28.97125 56.6423,1.11487 59.8646,-14.93782 90.9618,-4.42811 31.0954,10.50971 23.2002,46.58213 -11.3449,58.58751 -34.5447,12.00537 -5.7082,-1.19943 -71.3441,0.46311 -65.6359,1.66255 -78.489,27.81772 -24.0287,27.98665 54.4636,0.16922 84.0503,-11.68798 114.5753,-1.25574 30.5296,10.4261 -26.4559,30.24593 -26.4559,30.24593"
       inkscape:connector-curvature="0"
       style="fill:none;stroke:#000000;stroke-width:7.90465689"
       id="XDiv1" />
    <path
       d="m 2292.0028,6.6428445 c 0,0 44.0684,13.2203265 13.2115,26.4440665 -30.8569,13.22374 -7.5468,-0.03199 -78.9055,0.864632 -71.3624,0.896543 -55.2829,27.791269 0.8831,28.794632 56.1663,1.003448 67.6503,-8.579775 95.2368,1.611523 27.587,10.191469 10.8982,44.376612 -21.0874,57.417772 -31.986,13.0403 -29.3477,-3.7836 -96.8937,-2.24639 -67.546,1.53721 -36.8516,27.13857 17.6541,27.37491 54.5047,0.23614 63.3935,-10.69998 95.8868,0.0642 32.4922,10.76482 -85.6889,47.6802 -52.7838,60.51574 32.9015,12.83553 24.0388,-0.29668 96.4498,0.14832 72.4106,0.445 51.1771,25.71117 -5.4647,26.8263 -56.6377,1.11453 -41.858,-9.89541 -71.7514,0.46527 -29.8939,10.36041 49.2639,44.59504 14.7233,56.6115 -34.5392,12.01646 -16.34,0.81446 -87.982,1.61946 -71.6416,0.80504 -48.6231,23.39132 6.5856,24.08497 55.2096,0.69408 57.6263,-6.7634 91.6483,4.49696 34.0192,11.26052 32.6772,39.068 2.3019,52.35403 -30.3754,13.28602 -21.2943,2.50729 -88.5222,4.07164 -67.2278,1.56434 -79.9171,24.57385 -19.4231,26.18128 60.4916,1.60691 65.8103,-9.32206 95.4748,1.01513 29.6664,10.33737 -55.2783,45.34585 -24.4434,58.57301 30.8336,13.22715 40.647,-3.80809 105.6819,-2.12362 65.0322,1.68447 37.1793,25.38951 -19.2785,26.46284 -56.4592,1.07401 -44.2107,-8.60367 -76.0997,2.03761 -31.8904,10.6411 68.7946,43.15057 38.0768,56.39393 -30.7172,13.24251 -47.314,0.45796 -116.8638,1.75042 -69.5499,1.29252 -39.7924,26.09767 20.9638,27.72131 60.7571,1.62372 45.6955,-9.55498 78.6904,1.33475 33.0013,10.87829 -13.9603,26.36386 -13.9603,26.36386"
       inkscape:connector-curvature="0"
       style="fill:none;stroke:#000000;stroke-width:7.90465689"
       id="XDiv2" />
    <path
       d="m 1834.2875,6.6428445 c 0,0 56.0838,17.8984195 22.7521,30.6093865 -33.3336,12.710114 -19.5715,-4.316678 -87.3046,-2.796959 -67.7327,1.519805 -81.2491,28.769036 -22.1264,30.260429 59.123,1.491136 70.36,-13.717743 100.917,-3.281662 30.5534,10.436337 33.7446,47.948961 3.2935,61.225601 -30.4511,13.27664 -39.5621,-3.29352 -105.5766,-1.64898 -66.0117,1.64454 -54.6833,28.08562 2.3096,29.27157 56.9902,1.1862 65.9843,-10.46449 99.5852,0.61676 33.6018,11.08136 -73.1018,43.21285 -41.8371,56.37687 31.2661,13.16487 50.4815,-4.37828 114.882,-2.67897 64.4006,1.69941 55.3424,27.84503 0.2032,28.50967 -55.1409,0.66432 -81.3772,-9.27002 -115.9209,2.42428 -34.5447,11.6948 -13.3681,44.13004 13.915,57.65069 27.2825,13.52065 35.3383,-4.9105 101.7318,-3.28721 66.3962,1.6233 34.1826,30.03604 -21.0563,30.74249 -55.2371,0.70659 -70.0396,-10.50459 -96.2667,-0.35454 -26.2248,10.14966 -25.1698,45.60693 8.2824,58.27865 33.4516,12.67172 28.7518,-6.00729 95.3192,-4.39492 66.5701,1.61238 51.113,30.83634 -6.2249,32.08628 -57.338,1.24977 -50.4632,-14.11619 -81.7114,-3.58327 -31.2478,10.53275 -27.8254,43.29902 -0.8169,56.82992 27.0089,13.53089 20.8975,-1.54583 87.8402,0.0408 66.9427,1.58661 61.7503,26.75804 0.92,28.3868 -60.8304,1.62799 -46.7144,-8.27501 -80.6769,2.95642 -33.9602,11.23152 52.4908,40.36231 24.8736,53.86932 -27.6181,13.507 -33.2567,-1.24653 -100.2076,0.33929 -66.95,1.58575 -39.4551,28.33902 18.2148,29.64356 57.6675,1.30437 38.0865,-10.18208 71.5775,0.86062 33.459,11.02334 -6.9115,28.2665 -6.9115,28.2665"
       inkscape:connector-curvature="0"
       style="fill:none;stroke:#000000;stroke-width:7.90465689"
       id="XDiv3" />
    <path
       d="m 1376.5721,6.6428445 c 0,0 -59.5304,18.0391975 -25.3523,30.3909675 34.1785,12.35177 32.4909,-5.413722 102.5968,-4.218986 70.1083,1.194735 57.901,28.030164 3.0367,28.558295 -54.8664,0.527866 -77.7247,-5.919925 -104.231,4.235538 -26.5076,10.155634 -22.206,43.627501 6.939,57.036391 29.1446,13.40974 15.8177,-0.42058 88.4306,-0.15553 72.6165,0.26505 76.1547,23.44933 15.0272,25.09345 -61.1278,1.64454 -61.0683,-11.66921 -95.5618,-0.0558 -34.4943,11.61375 68.8816,45.49943 39.7682,58.91172 -29.1139,13.4123 -31.2409,1.45607 -103.9655,1.49029 -72.7218,0.0342 -45.5413,25.87071 9.2166,26.33144 54.7565,0.46107 38.34,-11.41837 71.2113,-0.56118 32.8727,10.85696 43.3695,42.29651 10.3087,55.08853 -33.0608,12.79202 -35.0335,2.1847 -103.4071,3.63736 -68.3735,1.45266 -53.9005,25.51493 0.5196,25.55589 54.4178,0.0416 83.4873,-10.0797 115.8707,0.66055 32.3843,10.74093 -91.7353,47.43875 -57.2144,59.48166 34.5245,12.04291 42.4741,-1.5303 115.1978,-1.47859 72.7218,0.0518 46.8563,24.30253 -16.0581,26.00467 -62.9129,1.70196 -65.3617,-6.44977 -97.1089,4.16515 -31.7448,10.61465 -11.5884,41.01245 17.6573,54.41365 29.2458,13.40121 25.2197,-0.64279 95.603,0.49758 70.3834,1.14037 54.0837,28.66921 -2.233,29.70926 -56.3127,1.04022 -75.9121,-9.70259 -107.7004,0.91949 -31.787,10.62234 75.2347,39.27192 47.3873,52.76783 -27.8465,13.49591 -40.5422,-1.86884 -106.7392,-0.23406 -66.1948,1.63473 -42.0426,30.03091 15.8914,31.37556 57.933,1.34438 53.0034,-8.85621 82.0317,1.42501 29.0192,10.28106 -17.1185,26.19323 -17.1185,26.19323"
       inkscape:connector-curvature="0"
       style="fill:none;stroke:#000000;stroke-width:7.90465689"
       id="XDiv4" />
    <path
       d="m 918.85682,6.6428445 c 0,0 -62.75278,16.8438655 -29.57024,29.6009045 33.1839,12.75704 22.56307,-1.80153 93.7584,-0.857124 71.19762,0.944407 55.32862,28.576212 0.69326,28.948207 -54.63748,0.37197 -46.2384,-10.30665 -80.78218,1.385852 -34.54378,11.692503 64.75757,38.951976 38.39728,52.499076 -26.35937,13.54795 -17.84906,3.63395 -90.49947,3.85467 -72.64858,0.22064 -73.05137,27.83222 -18.59789,27.9858 54.45439,0.15338 59.24667,-12.38505 93.54328,-0.9567 34.29936,11.42861 -48.77872,45.07112 -16.88329,58.12934 31.89635,13.05737 13.88571,-4.94506 78.34256,-3.24659 64.45547,1.69838 58.00167,28.68798 -4.27772,30.37731 -62.27675,1.68925 -42.04847,-11.32451 -71.7423,-0.98476 -29.69382,10.33976 55.05858,46.57702 25.2279,59.92362 -29.82977,13.3466 -36.46573,-2.8223 -105.24249,-1.41853 -68.77676,1.40377 -54.74275,26.06268 0.24259,26.6531 54.98534,0.59081 77.79787,-7.37557 109.11018,3.16716 31.31185,10.54299 32.11789,39.26936 3.98835,52.74991 -28.12954,13.48056 -48.24777,-0.61302 -113.33947,1.06958 -65.09628,1.68268 -44.31646,30.2954 12.96021,31.53425 57.27666,1.23885 79.49142,-12.60176 105.90159,-2.44851 26.41109,10.15307 7.258,42.72226 -22.98875,56.02279 -30.24674,13.30052 0.0522,0.42712 -72.36479,0.8671 -72.41514,0.44 -76.81837,29.3458 -21.47051,30.09576 55.35151,0.75027 61.37047,-11.58986 92.66904,-1.04926 31.29812,10.54043 57.30139,43.17275 23.59889,55.75232 -33.70295,12.57958 -24.49555,-0.88596 -95.03543,0.2202 -70.54309,1.10617 -60.99057,30.52748 -6.29908,30.94298 54.6924,0.41593 64.73468,-10.92266 97.0448,-0.19765 32.3147,10.72472 -26.3644,26.61983 -26.3644,26.61983"
       inkscape:connector-curvature="0"
       style="fill:none;stroke:#000000;stroke-width:7.90465689"
       id="XDiv5" />
    <path
       d="m 461.14149,6.6428445 c 0,0 53.98294,17.0426605 24.79856,30.4489855 -29.18348,13.406324 -46.26587,-4.303368 -112.73987,-2.685019 -66.47399,1.618349 -61.59933,26.918445 -0.2029,28.576212 61.39793,1.657596 83.27215,-9.84251 117.71065,1.701536 34.43438,11.54379 -85.1854,43.645421 -58.02915,57.171191 27.15579,13.52578 43.91321,-1.19601 116.03084,-0.58367 72.11762,0.61231 51.44262,24.55594 -4.98269,25.62158 -56.42257,1.06599 -82.72747,-9.95342 -109.52213,0.2097 -26.79511,10.16246 61.33843,43.99182 35.25644,57.54319 -26.08336,13.55222 -24.78528,-0.3297 -96.39485,0.4876 -71.60956,0.8173 -33.55099,26.95342 22.27838,27.86379 55.82754,0.91045 38.3625,-10.06093 72.75843,1.44549 34.39548,11.50625 -67.12853,42.08748 -34.12588,54.89571 33.00402,12.80823 45.2209,0.72402 115.62804,1.85878 70.41035,1.13475 44.49726,24.63614 -18.50909,26.33912 -63.00451,1.70316 -44.87624,-8.35453 -79.42734,3.35035 -34.54973,11.70504 65.84235,43.89711 36.13617,57.25651 -29.70618,13.35855 -32.79119,-4.77979 -104.60169,-4.03572 -71.81095,0.74403 -56.12047,26.87323 4.23566,28.47042 60.35892,1.5977 49.65295,-7.47685 81.77084,3.20811 32.11697,10.68462 -43.33603,41.27694 -16.41093,54.81039 26.92511,13.53346 2.04823,0.77382 73.01018,1.78114 70.9596,1.00738 60.72051,29.10947 5.67475,29.7306 -55.04484,0.62106 -49.35087,-14.5189 -81.79373,-3.765 -32.44607,10.75458 75.09736,46.38846 42.308,59.253 -32.78752,12.86454 -31.74347,0.78707 -103.43908,1.57313 -71.69562,0.78606 -51.86831,24.13787 2.60398,24.32301 54.4727,0.1857 60.89445,-11.42946 95.1636,-0.0212 34.28288,11.39021 -25.17435,30.39097 -25.17435,30.39097"
       inkscape:connector-curvature="0"
       style="fill:none;stroke:#000000;stroke-width:7.90465689"
       id="XDiv6" />
    <path
       d="m 3.4261567,91.962798 c 0,0 76.7039353,8.271602 143.8599233,1.961336 67.156,-6.310264 7.65667,-5.19445 14.43909,-18.190215 6.78334,-12.996788 148.55609,-10.342484 150.62954,-0.154429 2.07345,10.188056 -63.26999,16.47699 -7.52484,22.108107 55.74515,5.624803 240.90016,-17.906952 305.87742,-11.480653 64.9727,6.426299 6.45471,5.617466 12.97074,18.666296 6.51558,13.04884 132.08291,15.38831 141.23264,3.57474 9.15248,-11.813402 -68.42844,-13.245924 -10.28257,-19.359952 58.14815,-6.11454 256.3892,-5.048211 322.6115,1.325189 66.2222,6.373401 0.6311,3.238746 5.7503,16.503443 5.1192,13.26469 150.1993,9.29049 153.1607,-0.94475 2.9621,-10.234983 -63.1007,-12.480605 -2.1243,-18.856565 60.9768,-6.376386 230.3452,-2.642103 299.8813,3.392322 69.5361,6.034424 -19.4515,0.96548 -12.4242,13.908863 7.0278,12.94389 163.8484,13.50529 171.7851,2.50499 7.9396,-11.000302 -54.2438,-12.955836 0.2765,-17.948759 54.5203,-4.992924 217.25,-6.780804 281.1654,-0.335606 63.9153,6.445154 18.5663,5.275674 22.8912,18.629615 4.3249,13.35428 130.8197,11.45847 136.4084,0.95959 5.5887,-10.498876 -40.9372,-15.797843 14.5233,-21.329135 55.4613,-5.531207 215.2726,-5.586836 286.2872,0.146127 71.0145,5.732964 3.9719,4.913832 13.0691,16.954778 9.0971,12.04036 145.7412,10.39453 151.0232,-0.0617 5.2793,-10.455963 -59.5259,-7.226518 -1.9932,-13.249338 57.5348,-6.02248 233.6453,-9.575459 306.2344,-4.544226 72.5937,5.031317 -15.4241,7.194946 -12.6059,20.668754 2.8182,13.47373 143.3107,11.47127 152.378,-0.14318 9.0669,-11.614605 -50.0374,-14.105094 12.1125,-20.53054 62.0662,-6.431418 152.3277,5.82394 152.3277,5.82394"
       inkscape:connector-curvature="0"
       style="fill:none;stroke:#000000;stroke-width:7.90465689"
       id="YDiv1" />
    <path
       d="m 3.4261567,177.28275 c 0,0 77.2348843,-11.34243 148.5972833,-5.70603 71.3624,5.63607 6.97741,8.48652 8.97397,22.00146 1.99692,13.51554 143.74549,10.25717 144.20779,0.11129 0.46499,-10.14539 -69.99383,-13.45069 -8.82247,-19.83774 61.17366,-6.38671 248.99714,-8.03245 320.15815,-2.33777 71.161,5.69468 -18.23584,10.04813 -9.08474,21.94174 9.1511,11.8936 155.60491,6.38432 161.56436,-4.17078 5.96174,-10.55494 -57.74079,-12.39614 -2.52773,-17.83273 55.2142,-5.43624 243.92563,16.02309 315.60383,10.49094 71.6783,-5.5324 -7.9889,-7.32403 -1.2806,-20.33515 6.7078,-13.0113 136.6738,-6.73124 141.8963,3.71679 5.2184,10.44828 -44.8753,12.33556 9.5612,17.186 54.4361,4.85027 243.3535,4.05082 308.491,-2.37028 65.142,-6.42118 -27.3133,-6.20634 -19.2286,-18.85656 8.0846,-12.65022 168.5902,-8.68131 172.3527,1.61314 3.7629,10.29471 -85.9041,10.90048 -23.918,17.32081 61.9884,6.42058 257.1766,-12.60432 328.7404,-7.03284 71.5637,5.57139 -29.3835,5.24905 -24.0274,18.48286 5.3562,13.23381 162.695,12.59408 169.1304,1.95775 6.4355,-10.63632 -61.1599,-15.37295 2.165,-21.81802 63.3249,-6.44575 222.1109,-1.42893 293.9905,4.02719 71.8797,5.45604 13.4775,2.24306 16.8092,15.68266 3.3317,13.4396 152.053,9.49185 152.0851,-0.65217 0.032,-10.14401 -60.6885,-11.34584 0.094,-17.71157 60.7846,-6.36538 232.2906,-3.82233 301.6116,2.2452 69.3255,6.06753 -29.3799,3.96294 -20.4741,16.20823 8.9058,12.24529 173.2681,10.21877 176.971,-0.0703 3.7015,-10.28959 -55.7359,-11.83388 -1.2244,-16.81571 54.5139,-4.98269 141.6171,2.5596 141.6171,2.5596"
       inkscape:connector-curvature="0"
       style="fill:none;stroke:#000000;stroke-width:7.90465689"
       id="YDiv2" />
    <path
       d="m 3.4261567,262.60271 c 0,0 74.9234223,-11.28783 144.3084933,-5.22969 69.38506,6.05797 11.97978,7.27327 20.28685,19.8403 8.30662,12.56678 122.14134,9.65993 131.08968,-1.829 8.94696,-11.48919 -59.00409,-11.69651 1.31071,-18.03067 60.31315,-6.33475 236.94092,15.29446 301.08514,8.85109 64.14423,-6.44302 -4.87009,-5.86429 1.54685,-18.93164 6.41671,-13.06675 167.71605,-10.19403 175.20885,0.67672 7.49555,10.87062 -71.15184,9.57887 -10.09537,15.95995 61.05465,6.38074 228.02005,7.45424 292.95614,1.02683 64.9361,-6.42732 6.7115,-5.93972 14.4835,-18.69104 7.772,-12.75192 150.8721,-10.26143 159.9852,1.42834 9.114,11.68969 -54.7427,14.04452 -0.032,19.21149 54.7061,5.16698 216.3895,6.12069 281.591,-0.29845 65.2016,-6.41913 8.3721,-3.91012 17.2797,-16.15362 8.9071,-12.24342 126.4255,-13.04969 135.2823,-1.62876 8.8605,11.42093 -47.1172,9.21882 9.7338,15.11784 56.8528,5.89877 249.5372,-11.68542 318.9223,-5.62753 69.3851,6.05806 -17.2046,8.05053 -9.3159,20.76602 7.8888,12.71609 157.6921,8.18969 162.5759,-2.21721 4.8857,-10.40733 -58.084,-12.26474 -0.3304,-18.32161 57.7545,-6.05763 228.5143,-2.82545 301.021,2.28368 72.5113,5.10913 -17.3922,5.8695 -8.7556,18.28492 8.6366,12.41542 161.2989,6.19329 161.7749,-3.9527 0.4776,-10.14625 -57.8781,-8.56527 -2.4566,-14.08206 55.4201,-5.51705 245.3766,-8.48652 311.5942,-2.11287 66.2131,6.37375 -11.2122,6.74796 -3.1661,19.412 8.0461,12.66404 144.8944,6.36043 145.2514,-3.78445 0.3547,-10.14454 -56.061,-7.26141 5.2825,-13.65631 61.3796,-6.399 145.5993,1.68933 145.5993,1.68933"
       inkscape:connector-curvature="0"
       style="fill:none;stroke:#000000;stroke-width:7.90465689"
       id="YDiv3" />
    <path
       d="m 3.4261567,347.92266 c 0,0 92.8292463,-8.6122 164.5074633,-3.07962 71.67822,5.53274 -25.73367,3.24642 -23.79936,16.76451 1.93403,13.5181 165.26269,12.93451 168.47128,2.68246 3.2111,-10.25204 -53.88683,-15.91387 2.88251,-21.79583 56.77043,-5.88204 238.90451,14.39347 310.38592,8.79393 71.4814,-5.59955 -26.43444,-2.81189 -19.38333,-15.75007 7.0511,-12.93817 147.27448,-10.95423 148.97261,-0.78092 1.69752,10.17355 -56.10217,11.52928 -1.38674,16.70053 54.71529,5.17166 236.85852,-12.16236 306.31679,-6.11565 69.4583,6.04654 12.2773,5.51423 18.9417,18.53405 6.6643,13.01982 130.4717,7.19529 137.6395,-3.59385 7.1702,-10.78871 -44.5196,-8.77345 9.9558,-13.70579 54.4773,-4.9321 226.9582,-6.08289 297.0573,-0.14603 70.0945,5.9369 -13.5663,4.64089 -4.8541,17.01536 8.7117,12.37395 146.8351,9.22991 150.4464,-1.05251 3.612,-10.28191 -48.5727,-9.37325 12.4206,-15.75006 60.9906,-6.37724 229.352,9.97134 294.7504,3.55895 65.4029,-6.41197 12.7524,-3.99477 21.8994,-15.91388 9.1469,-11.91911 129.7806,-13.77661 137.6899,-2.78621 7.9093,10.99092 -47.5292,12.13591 11.8502,18.39243 59.3794,6.25693 221.9782,-8.76663 293.835,-3.30112 71.8567,5.46534 -11.9437,1.11146 -8.3739,14.53255 3.5695,13.42168 167.0523,12.72632 175.218,1.64659 8.1679,-11.07965 -59.1368,-12.57872 0.2549,-18.83609 59.3886,-6.25796 210.9427,-5.70551 280.996,0.23945 70.0534,5.94497 6.0519,2.58827 12.2609,15.69205 6.2093,13.10344 131.9959,14.86444 141.1319,3.11708 9.1378,-11.74771 -42.8774,-14.10254 18.2775,-20.48874 61.105,-6.39046 145.5992,5.42635 145.5992,5.42635"
       inkscape:connector-curvature="0"
       style="fill:none;stroke:#000000;stroke-width:7.90465689"
       id="YDiv4" />
    <path
       d="m 3.4261567,433.24261 c 0,0 84.7505703,-7.86462 148.3775833,-1.41827 63.627,6.44635 -2.92655,0.0636 1.2864,13.42851 4.21295,13.36537 134.35776,13.57526 143.28779,2.10314 8.92682,-11.47213 -39.00009,-10.39453 23.53847,-16.82937 62.53764,-6.43551 224.12489,9.09085 296.71854,4.06217 72.59365,-5.02893 -14.6501,-5.51713 -5.76584,-17.77812 8.88425,-12.26099 149.36166,-10.3621 153.49941,-0.0344 4.13559,10.32798 -49.5248,13.92336 13.98183,20.36929 63.508,6.44634 212.13732,6.49122 284.48836,1.26853 72.3511,-5.22269 9.179,-8.32467 17.1538,-21.0126 7.9748,-12.68793 126.453,-8.71287 131.8266,1.75487 5.3699,10.4679 -40.982,14.17676 14.9522,19.85736 55.9328,5.68069 224.4316,-16.61521 296.6957,-11.33987 72.2641,5.27524 1.42,4.62246 8.421,17.57164 7.0008,12.94986 144.1391,15.97019 153.1653,4.40575 9.0252,-11.56426 -58.3679,-11.57365 1.6244,-17.88477 59.9927,-6.31069 224.9625,12.64101 289.7475,6.21002 64.7805,-6.43142 10.2638,-8.55077 19.403,-20.49812 9.1392,-11.94736 135.9552,-12.38846 145.0592,-0.71483 9.1053,11.67348 -59.677,11.47212 2.8993,17.90866 62.5788,6.43628 227.1915,-13.08723 292.6403,-6.6774 65.4487,6.41018 -7.2164,8.15804 -0.2577,21.11669 6.9586,12.95865 158.7311,10.7324 158.7585,0.58839 0.028,-10.144 -67.6091,-11.7733 -5.196,-18.20557 62.4095,-6.43261 254.9978,-8.99869 323.4904,-2.82016 68.4971,6.17861 -3.6962,5.87564 1.0971,19.17907 4.7932,13.30394 141.8963,8.56612 148.5424,-2.11005 6.6441,-10.67609 -76.1227,-11.24432 -18.0217,-17.35237 58.2214,-6.11744 162.7178,4.84617 162.7178,4.84617"
       inkscape:connector-curvature="0"
       style="fill:none;stroke:#000000;stroke-width:7.90465689"
       id="YDiv5" />
    <path
       d="m 3.4261567,518.56257 c 0,0 87.0391473,7.5916 154.5246933,1.30915 67.48555,-6.28245 -16.70661,-3.66347 -11.58248,-16.92748 5.12412,-13.26401 159.58702,-11.55403 167.06609,-0.68829 7.47907,10.86635 -51.86372,14.94721 5.7544,20.98274 57.6172,6.03605 234.06189,-12.77837 304.29373,-6.86783 70.23184,5.9108 -1.61981,4.07377 0.72328,17.57335 2.34309,13.49958 135.32811,7.10135 141.1411,-3.43054 5.81436,-10.5319 -59.64031,-12.0668 -4.27126,-17.56397 55.36904,-5.49716 227.90104,-2.69014 299.17189,2.97221 71.2754,5.66234 -4.0025,2.763 -0.4844,16.18861 3.5182,13.42509 162.8597,13.35598 169.0526,2.76266 6.1925,-10.59333 -58.8667,-16.19885 -2.0871,-22.08337 56.7796,-5.88443 242.0124,17.80116 307.5252,11.39363 65.5128,-6.40762 -19.8158,-9.4398 -11.1183,-21.82143 8.6975,-12.38249 148.7712,-6.72407 149.1282,3.42082 0.3593,10.14454 -65.9019,10.07628 -2.7155,16.5205 63.183,6.4449 233.3295,3.81013 306.0284,-1.05592 72.699,-4.86614 3.6452,-2.17532 12.1927,-14.63579 8.5478,-12.46098 137.0125,-11.79036 140.0792,-1.54796 3.0683,10.24266 -63.3295,10.03704 -0.2353,16.48126 63.0961,6.44413 248.0314,4.83337 313.1459,-1.58849 65.1192,-6.42186 8.8362,-2.75848 16.01,-15.66815 7.1742,-12.90977 132.147,-8.29046 138.3078,2.29758 6.1618,10.5882 -62.4689,7.89841 -5.7113,13.77832 56.7567,5.87974 230.5512,8.35854 302.5727,2.96265 72.0215,-5.39589 9.4138,-7.95728 15.9262,-21.00663 6.5124,-13.04883 138.5138,-12.09666 147.6681,-0.24853 9.1543,11.84753 -68.6939,14.76803 -12.6718,20.47252 56.0243,5.69938 164.5486,-3.98444 164.5486,-3.98444"
       inkscape:connector-curvature="0"
       style="fill:none;stroke:#000000;stroke-width:7.90465689"
       id="YDiv6" />
    <path
       id="path3635"
       style="fill:none;stroke:#000000;stroke-width:7.90465689"
       inkscape:connector-curvature="0"
       d="m 3211.7181,6.6428445 c 0,0 -45.4259,18.0008035 -10.9783,30.1426865 34.4477,12.141883 8.7117,-3.504602 75.0974,-1.880708 66.3824,1.623895 58.2855,28.300629 1.0099,29.539475 -57.2785,1.239016 -60.9311,-11.64788 -95.4291,-0.03065 -34.4975,11.618018 79.5189,40.328182 54.0104,53.883822 -25.5075,13.55649 -19.9225,0.54352 -87.7943,2.04998 -67.8719,1.50646 -86.8241,26.20005 -23.9848,27.90048 62.8398,1.70094 72.3602,-12.24341 104.1852,-1.61366 31.8258,10.62916 -71.7469,43.88603 -42.8289,57.31283 28.918,13.42765 24.583,2.33196 94.9256,3.48054 70.3426,1.14858 79.2534,26.59423 17.0133,28.28271 -62.2402,1.68823 -72.0444,-14.69551 -104.9862,-3.82063 -32.9404,10.87489 -36.1252,48.03173 -4.7873,61.18465 31.338,13.15292 40.912,-2.32207 112.8406,-1.625 71.9254,0.69709 46.362,28.95674 -11.5985,30.30564 -57.9605,1.34823 -76.6078,-10.74434 -103.8373,-0.56706 -27.2309,10.17697 74.4474,40.42033 41.0516,53.11167 -33.3936,12.69135 -28.8997,-1.8517 -93.0764,-0.14909 -64.1809,1.70265 -62.9496,26.88688 -1.66,28.53868 61.2881,1.65247 58.7386,-7.3109 88.8334,3.07109 30.0952,10.38173 33.4704,43.82545 -1.1039,55.75062 -34.574,11.92431 -19.1723,1.47552 -91.7399,1.79359 -72.5662,0.31805 -44.1686,27.85611 12.4727,28.97125 56.6423,1.11487 59.8646,-14.93782 90.9618,-4.42811 31.0954,10.50971 23.2002,46.58213 -11.3449,58.58751 -34.5447,12.00537 -5.7082,-1.19943 -71.3441,0.46311 -65.6359,1.66255 -78.489,27.81772 -24.0287,27.98665 54.4636,0.16922 84.0503,-11.68798 114.5753,-1.25574 30.5296,10.4261 -26.4559,30.24593 -26.4559,30.24593" />
  </g>
  <eggbot
     serialport="COM4"
     layer="0"
     node="0"
     lastpath="0"
     lastpathnc="0"
     totaldeltax="0"
     totaldeltay="0"
     id="eggbot5085" />
</svg>
