<?xml version="1.0" encoding="UTF-8" standalone="no"?>
<!-- Created with Inkscape (http://www.inkscape.org/) -->

<svg
   xmlns:dc="http://purl.org/dc/elements/1.1/"
   xmlns:cc="http://creativecommons.org/ns#"
   xmlns:rdf="http://www.w3.org/1999/02/22-rdf-syntax-ns#"
   xmlns:svg="http://www.w3.org/2000/svg"
   xmlns="http://www.w3.org/2000/svg"
   xmlns:sodipodi="http://sodipodi.sourceforge.net/DTD/sodipodi-0.dtd"
   xmlns:inkscape="http://www.inkscape.org/namespaces/inkscape"
   width="3200"
   height="800"
   id="svg27345"
   version="1.1"
   inkscape:version="0.91 r13725"
   sodipodi:docname="r2d2.svg">
  <sodipodi:namedview
     id="base"
     pagecolor="#ffffff"
     bordercolor="#666666"
     borderopacity="1.0"
     inkscape:pageopacity="0.0"
     inkscape:pageshadow="2"
     inkscape:zoom="0.8417"
     inkscape:cx="1724.5587"
     inkscape:cy="476.92857"
     inkscape:document-units="px"
     inkscape:current-layer="layer1"
     showgrid="false"
     inkscape:window-width="1920"
     inkscape:window-height="1005"
     inkscape:window-x="1911"
     inkscape:window-y="-9"
     inkscape:window-maximized="1" />
  <defs
     id="defs27347">
    <inkscape:perspective
       sodipodi:type="inkscape:persp3d"
       inkscape:vp_x="0 : 526.18109 : 1"
       inkscape:vp_y="0 : 1000 : 0"
       inkscape:vp_z="744.09448 : 526.18109 : 1"
       inkscape:persp3d-origin="372.04724 : 350.78739 : 1"
       id="perspective27353" />
  </defs>
  <metadata
     id="metadata27350">
    <rdf:RDF>
      <cc:Work
         rdf:about="">
        <dc:format>image/svg+xml</dc:format>
        <dc:type
           rdf:resource="http://purl.org/dc/dcmitype/StillImage" />
        <dc:title />
      </cc:Work>
    </rdf:RDF>
  </metadata>
  <g
     style="display:inline"
     inkscape:label="1 - Silver"
     inkscape:groupmode="layer"
     id="layer1"
     transform="translate(0,-252.36218)">
    <rect
       y="356.76468"
       x="341.078"
       height="80.648987"
       width="72.248047"
       id="rect4172"
       style="fill:none;fill-opacity:1;stroke:#000000;stroke-width:0.2;stroke-miterlimit:4;stroke-dasharray:none;stroke-opacity:1" />
    <rect
       y="356.76468"
       x="426.76755"
       height="80.648987"
       width="446.92981"
       id="rect4174"
       style="fill:none;fill-opacity:1;stroke:#000000;stroke-width:0.2;stroke-miterlimit:4;stroke-dasharray:none;stroke-opacity:1" />
    <rect
       y="355.0845"
       x="937.54443"
       height="82.32917"
       width="287.31201"
       id="rect4176"
       style="fill:none;fill-opacity:1;stroke:#000000;stroke-width:0.2;stroke-miterlimit:4;stroke-dasharray:none;stroke-opacity:1" />
    <rect
       y="356.76468"
       x="1261.8206"
       height="80.648987"
       width="50.405617"
       id="rect4178"
       style="fill:none;fill-opacity:1;stroke:#000000;stroke-width:0.2;stroke-miterlimit:4;stroke-dasharray:none;stroke-opacity:1" />
    <rect
       y="360.12506"
       x="1350.8705"
       height="77.288612"
       width="68.887672"
       id="rect4180"
       style="fill:none;fill-opacity:1;stroke:#000000;stroke-width:0.2;stroke-miterlimit:4;stroke-dasharray:none;stroke-opacity:1" />
    <rect
       y="380.28729"
       x="1448.3214"
       height="55.446178"
       width="58.806553"
       id="rect4182"
       style="fill:none;fill-opacity:1;stroke:#000000;stroke-width:0.2;stroke-miterlimit:4;stroke-dasharray:none;stroke-opacity:1" />
    <rect
       y="381.96747"
       x="1528.9703"
       height="55.446178"
       width="218.4243"
       id="rect4184"
       style="fill:none;fill-opacity:1;stroke:#000000;stroke-width:0.2;stroke-miterlimit:4;stroke-dasharray:none;stroke-opacity:1" />
    <rect
       y="356.76468"
       x="1967.4993"
       height="85.689545"
       width="78.968796"
       id="rect4186"
       style="fill:none;fill-opacity:1;stroke:#000000;stroke-width:0.2;stroke-miterlimit:4;stroke-dasharray:none;stroke-opacity:1" />
    <rect
       y="356.76468"
       x="2076.7114"
       height="80.648987"
       width="84.009361"
       id="rect4188"
       style="fill:none;fill-opacity:1;stroke:#000000;stroke-width:0.2;stroke-miterlimit:4;stroke-dasharray:none;stroke-opacity:1" />
    <rect
       y="356.76468"
       x="2192.6443"
       height="84.009361"
       width="82.32917"
       id="rect4190"
       style="fill:none;fill-opacity:1;stroke:#000000;stroke-width:0.2;stroke-miterlimit:4;stroke-dasharray:none;stroke-opacity:1" />
    <rect
       y="360.12506"
       x="2311.9375"
       height="78.968796"
       width="235.22621"
       id="rect4192"
       style="fill:none;fill-opacity:1;stroke:#000000;stroke-width:0.2;stroke-miterlimit:4;stroke-dasharray:none;stroke-opacity:1" />
    <rect
       y="477.34357"
       x="-2.3680327"
       height="14.240638"
       width="3203.0251"
       id="rect4458"
       style="fill:#999999;fill-opacity:1;stroke:#000000;stroke-width:0.21622226;stroke-miterlimit:4;stroke-dasharray:none;stroke-opacity:1" />
    <g
       id="g5007">
      <rect
         y="871.77527"
         x="116.43103"
         height="73.660446"
         width="171.08234"
         id="rect4551"
         style="display:inline;fill:#b3b3b3;fill-opacity:1;stroke:#000000;stroke-width:1;stroke-miterlimit:4;stroke-dasharray:none;stroke-opacity:1" />
      <path
         inkscape:connector-curvature="0"
         style="fill:none;stroke:#000000;stroke-width:1"
         d="m 119.15114,871.77527 0,73.66045 m 12,0 0,-73.66045 m 12,0 0,73.66045 m 12,0 0,-73.66045 m 12,0 0,73.66045 m 12,0 0,-73.66045 m 12,0 0,73.66045 m 12,0 0,-73.66045 m 12,0 0,73.66045 m 12,0 0,-73.66045 m 12,0 0,73.66045 m 12,0 0,-73.66045 m 12,0 0,73.66045 m 12,0 0,-73.66045 m 12,0 0,73.66045"
         id="path5010" />
    </g>
    <g
       id="g5012">
      <path
         inkscape:connector-curvature="0"
         id="path4569-7"
         d="m 1549.2456,818.31593 109.3026,4.75229 28.5138,-14.25686 -2.3762,-49.89902 c 0,0 -35.6421,-11.88071 -45.1467,-11.88071 -9.5046,0 -61.7797,-2.37615 -61.7797,-2.37615 l -30.8899,2.37615 -28.5137,11.88071 0,23.76144 2.3761,21.38529 z"
         style="display:inline;fill:#b3b3b3;fill-rule:evenodd;stroke:#000000;stroke-width:1px;stroke-linecap:butt;stroke-linejoin:miter;stroke-opacity:1" />
      <path
         inkscape:connector-curvature="0"
         style="fill:none;stroke:#000000;stroke-width:1"
         d="m 1523.1511,756.91428 0,48.35441 m 12,6 0,-59.35441 m 12,-4.90431 0,70.25873 m 12,1.47791 0,-72.65972 m 12,-0.92308 0,74.10453 m 12,0.52174 0,-74.90018 m 12,0.52175 0,74.90017 m 12,0.52174 0,-74.91876 m 12,0.41379 0,75.02671 m 12,0.52174 0,-75.13465 m 12,0.68419 0,74.9722 m 12,0.52174 0,-72.80028 m 12,3.31251 0,65.33401 m 12,-5.99998 0,-55.58402"
         id="path5015" />
    </g>
    <g
       id="g5017">
      <path
         inkscape:connector-curvature="0"
         id="path4571-9"
         d="m 1675.1812,723.27019 -59.4035,14.25686 -52.2752,-4.75229 -35.6422,-14.25686 -7.1284,-45.14672 49.899,-16.63301 64.1559,-4.75228 54.6513,23.76143 0,30.88987 z"
         style="display:inline;fill:#999999;fill-rule:evenodd;stroke:#000000;stroke-width:1px;stroke-linecap:butt;stroke-linejoin:miter;stroke-opacity:1" />
      <path
         inkscape:connector-curvature="0"
         style="fill:none;stroke:#000000;stroke-width:1"
         d="m 1523.1511,672.56477 0,16.1283 m 12,32.74116 0,-52.86947 m 12,-4 0,61.66946 m 12,4.8 0,-70.46946 m 12,-3.86513 0,76.77046 m 12,1.09091 0,-78.75025 m 12,-0.88889 0,80.73005 m 12,1.09091 0,-82.70985 m 12,-0.88888 0,83.57333 m 12,-2.88 0,-81.58222 m 12,3.36736 0,75.33486 m 12,-2.88001 0,-67.23746 m 12,5.21739 0,59.14007 m 12,-6.5588 0,-47.36388"
         id="path5020" />
    </g>
    <g
       id="g5022">
      <rect
         y="876.52759"
         x="-11.880717"
         height="68.908165"
         width="90.293457"
         id="rect4553"
         style="display:inline;fill:#b3b3b3;fill-opacity:1;stroke:#000000;stroke-width:1;stroke-miterlimit:4;stroke-dasharray:none;stroke-opacity:1" />
      <path
         inkscape:connector-curvature="0"
         style="fill:none;stroke:#000000;stroke-width:1"
         d="m -0.848864,876.52759 0,68.90816 m 12,0 0,-68.90816 m 12,0 0,68.90816 m 12,0 0,-68.90816 m 12,0 0,68.90816 m 12,0 0,-68.90816 m 12,0 0,68.90816"
         id="path5025" />
    </g>
    <g
       id="g5027">
      <ellipse
         ry="32.077938"
         rx="73.660446"
         cy="912.17358"
         cx="1608.6492"
         id="path4573-4"
         style="display:inline;fill:#999999;fill-opacity:1;stroke:#000000;stroke-width:1;stroke-miterlimit:4;stroke-dasharray:none;stroke-opacity:1" />
      <path
         inkscape:connector-curvature="0"
         style="fill:none;stroke:#000000;stroke-width:1"
         d="m 1535.1511,910.04712 0,4.25292 m 12,15.40984 0,-35.07259 m 12,-6.13354 0,47.33966 m 12,3.91579 0,-55.17125 m 12,-2.45059 0,60.07244 m 12,1.43164 0,-62.93572 m 12,-0.5678 0,64.07132 m 12,-0.31078 0,-63.44976 m 12,1.24868 0,60.9524 m 12,-2.19694 0,-56.55852 m 12,3.46052 0,49.63748 m 12,-5.32662 0,-38.98424 m 12,10.34623 0,18.29178"
         id="path5030" />
    </g>
    <g
       id="g5032">
      <path
         inkscape:connector-curvature="0"
         id="path4567"
         d="m 446.71498,874.15142 -54.6513,21.38529 0,28.51372 57.02745,26.13758 57.02744,0 49.89901,-28.51372 4.75229,-26.13758 -49.89901,-19.00915 z"
         style="display:inline;fill:#999999;fill-rule:evenodd;stroke:#000000;stroke-width:1px;stroke-linecap:butt;stroke-linejoin:miter;stroke-opacity:1" />
      <path
         inkscape:connector-curvature="0"
         style="fill:none;stroke:#000000;stroke-width:1"
         d="m 395.15114,894.32857 0,31.13694 m 12,5.5 0,-41.33259 m 12,-4.69565 0,51.52824 m 12,5.5 0,-61.72389 m 12,-4.69565 0,71.91954 m 12,2.7225 0,-75.72414 m 12,0.44444 0,75.2797 m 12,0 0,-74.83525 m 12,0.44444 0,74.39081 m 12,0 0,-73.94637 m 12,1.9165 0,66.8684 m 12,-6.85714 0,-55.43983 m 12,4.57143 0,44.01126 m 12,-6.85715 0,-32.58268"
         id="path5035" />
    </g>
    <g
       id="g5301">
      <rect
         y="850.38995"
         x="2283.4739"
         height="35.642155"
         width="254.24736"
         id="rect4565"
         style="display:inline;fill:#b3b3b3;fill-opacity:1;stroke:#000000;stroke-width:1;stroke-miterlimit:4;stroke-dasharray:none;stroke-opacity:1" />
      <path
         inkscape:connector-curvature="0"
         id="path5304"
         d="m 2537.7213,853.07273 -254.2474,0 m 0,12 254.2474,0 m 0,12 -254.2474,0"
         style="fill:none;stroke:#000000;stroke-width:1" />
    </g>
    <g
       id="g5306">
      <rect
         y="836.13312"
         x="2601.8772"
         height="109.3026"
         width="263.75192"
         id="rect4559"
         style="display:inline;fill:#b3b3b3;fill-opacity:1;stroke:#000000;stroke-width:1;stroke-miterlimit:4;stroke-dasharray:none;stroke-opacity:1" />
      <path
         inkscape:connector-curvature="0"
         id="path5309"
         d="m 2865.6291,841.07273 -263.7519,0 m 0,12 263.7519,0 m 0,12 -263.7519,0 m 0,12 263.7519,0 m 0,12 -263.7519,0 m 0,12 263.7519,0 m 0,12 -263.7519,0 m 0,12 263.7519,0 m 0,12 -263.7519,0"
         style="fill:none;stroke:#000000;stroke-width:1" />
    </g>
    <g
       id="g5311">
      <rect
         y="874.15143"
         x="1218.9617"
         height="76.036591"
         width="247.11893"
         id="rect4557"
         style="display:inline;fill:#b3b3b3;fill-opacity:1;stroke:#000000;stroke-width:1;stroke-miterlimit:4;stroke-dasharray:none;stroke-opacity:1" />
      <path
         inkscape:connector-curvature="0"
         id="path5314"
         d="m 1466.0806,877.07273 -247.1189,0 m 0,12 247.1189,0 m 0,12 -247.1189,0 m 0,12 247.1189,0 m 0,12 -247.1189,0 m 0,12 247.1189,0 m 0,12 -247.1189,0"
         style="fill:none;stroke:#000000;stroke-width:1" />
    </g>
    <g
       id="g5316">
      <g
         id="g12863">
        <path
           id="rect4165"
           transform="translate(0,252.36218)"
           d="m -1.9160156,-4.7578125 0,198.1582025 3205.8613156,0 0,-198.1582025 -3205.8613156,0 z M 1611.0254,8.7441406 l 135.4394,9.5039064 54.6524,2.376953 4.7519,9.503906 0,7.128906 -21.3847,0 2.375,7.128907 19.0097,-2.376953 0,38.019531 -19.0097,0 -2.375,9.503906 30.8886,2.376953 -4.7519,9.503904 -42.7695,-2.376951 -9.5059,16.632811 -306.5215,-4.75195 -2.3769,-11.880861 9.5039,-7.126953 9.5058,-76.037109 142.5684,-7.1289064 z m -8.3164,14.2519534 a 96.238937,35.647278 0 0 0 -96.2383,35.646484 96.238937,35.647278 0 0 0 96.2383,35.648438 96.238937,35.647278 0 0 0 96.2383,-35.648438 96.238937,35.647278 0 0 0 -96.2383,-35.646484 z m 1021.2734,66.285156 81.9024,0 0,82.32813 -81.9024,0 0,-82.32813 z m -437.9355,15.12109 81.9004,0 0,82.33008 -81.9004,0 0,-82.33008 z m -1842.01174,1.67969 71.875,0 0,78.96875 -71.875,0 0,-78.96875 z m 88.58984,0 432.92383,0 0,80.65039 -432.92383,0 0,-80.65039 z m 824.0586,0 51.8184,0 0,80.65039 -51.8184,0 0,-80.65039 z m 96.9453,0 63.5176,0 0,78.96875 -63.5176,0 0,-78.96875 z m 605.0899,0 81.9042,0 0,82.33008 -81.9042,0 0,-82.33008 z m -1024.63872,1.68164 287.50002,0 0,80.64844 -287.50002,0 0,-80.64844 z m 1136.62892,0 81.9062,0 0,82.32813 -81.9062,0 0,-82.32813 z m 230.6719,3.35938 235.6836,0 0,75.60937 -235.6836,0 0,-75.60937 z m 722.0937,3.36133 163.8086,0 0,62.16601 -163.8086,0 0,-62.16601 z m -1189.4375,3.5625 a 64.060918,29.701828 0 0 1 64.0606,29.70117 64.060918,29.701828 0 0 1 -64.0606,29.70312 64.060918,29.701828 0 0 1 -64.0605,-29.70312 64.060918,29.701828 0 0 1 64.0605,-29.70117 z m -1678.8828,6.51757 a 61.846062,26.043006 0 0 1 61.84375,26.04297 61.846062,26.043006 0 0 1 -61.84375,26.04297 61.846062,26.043006 0 0 1 -61.845706,-26.04297 61.846062,26.043006 0 0 1 61.845706,-26.04297 z m 1290.4102,5.04102 53.4882,0 0,58.80664 -53.4882,0 0,-58.80664 z m 75.2167,0 225.6563,0 0,55.44531 -225.6563,0 0,-55.44531 z"
           style="display:inline;fill:#666666;fill-opacity:1;stroke:#000000;stroke-width:0.30399051;stroke-miterlimit:4;stroke-dasharray:none;stroke-opacity:1"
           inkscape:connector-curvature="0" />
        <path
           id="path12866"
           transform="translate(0,252.36218)"
           d="M 3203.945300,0.331450 l -3205.861316,0.000000 M 1662.147856,12.331450 l 1541.797444,-0.000000 M 1539.284106,12.331450 l -1541.200122,0.000000 M 1802.970404,24.331450 l 1400.974896,-0.000000 M 1628.520558,24.331450 l -51.623116,0.000000 M -1.916016,24.331450 l 1469.315586,-0.000000 M 3203.945300,36.331450 l -1398.076200,0.000000 M 1527.714079,36.331450 l 149.989842,0.000000 M 1465.899387,36.331450 l -1467.815403,0.000000 M 1805.869100,48.331450 l 1398.076200,-0.000000 M 1694.820779,48.331450 l -184.223559,0.000000 M -1.916016,48.331450 l 1466.315219,-0.000000 M 3203.945300,60.331450 l -1398.076200,0.000000 M 1506.696292,60.331450 l 192.025415,0.000000 M 1462.899021,60.331450 l -1464.815036,0.000000 M 1805.869100,72.331450 l 1398.076200,-0.000000 M 1691.562611,72.331450 l -177.707222,0.000000 M -1.916016,72.331450 l 1463.314853,-0.000000 M 3203.945300,84.331450 l -1418.160996,0.000000 M 1536.093214,84.331450 l 133.231572,0.000000 M 1459.898654,84.331450 l -1461.814670,0.000000 M 2705.884800,96.331450 l 498.060500,-0.000000 M 2623.982400,96.331450 l -810.820023,0.000000 M -1.916016,96.331450 l 1454.971353,-0.000000 M 3203.945300,108.331450 l -498.060500,0.000000 M 2267.947300,108.331450 l 356.035100,0.000000 M 2186.046900,108.331450 l -33.431700,0.000000 M 2040.623000,108.331450 l 30.086000,0.000000 M 1958.718800,108.331450 l -196.179055,0.000000 M 1417.146500,108.331450 l 34.160238,0.000000 M 1353.628900,108.331450 l -45.126900,0.000000 M 1221.580100,108.331450 l 35.103500,0.000000 M 934.080080,108.331450 l -68.531250,0.000000 M 415.910160,108.331450 l 16.714840,0.000000 M 344.035160,108.331450 l -345.951176,0.000000 M 3187.283200,120.331450 l 16.662100,0.000000 M 3023.474600,120.331450 l -317.589800,0.000000 M 2537.064500,120.331450 l 86.917900,0.000000 M 2301.380900,120.331450 l -33.433600,0.000000 M 2152.615200,120.331450 l 33.431700,0.000000 M 2070.709000,120.331450 l -30.086000,0.000000 M 1858.680225,120.331450 l 100.038575,0.000000 M 1809.394085,120.331450 l -392.247585,0.000000 M 1308.502000,120.331450 l 45.126900,0.000000 M 1256.683600,120.331450 l -35.103500,0.000000 M 865.548830,120.331450 l 68.531250,0.000000 M 432.625000,120.331450 l -16.714840,0.000000 M -1.916016,120.331450 l 345.951176,0.000000 M 3203.945300,132.331450 l -16.662100,0.000000 M 2705.884800,132.331450 l 317.589800,-0.000000 M 2623.982400,132.331450 l -86.917900,0.000000 M 2267.947300,132.331450 l 33.433600,0.000000 M 2186.046900,132.331450 l -33.431700,0.000000 M 2040.623000,132.331450 l 30.086000,0.000000 M 1958.718800,132.331450 l -70.003349,0.000000 M 1746.437500,132.331450 l 32.921349,0.000000 M 1520.781200,132.331450 l -21.728500,0.000000 M 1417.146500,132.331450 l 28.418000,0.000000 M 1353.628900,132.331450 l -45.126900,0.000000 M 1221.580100,132.331450 l 35.103500,0.000000 M 934.080080,132.331450 l -68.531250,0.000000 M 415.910160,132.331450 l 16.714840,0.000000 M 344.035160,132.331450 l -144.850943,0.000000 M -1.916016,132.331450 l 113.038497,0.000000 M 3203.945300,144.331450 l -16.662100,0.000000 M 2705.884800,144.331450 l 317.589800,-0.000000 M 2623.982400,144.331450 l -86.917900,0.000000 M 2267.947300,144.331450 l 33.433600,0.000000 M 2186.046900,144.331450 l -33.431700,0.000000 M 2040.623000,144.331450 l 30.086000,0.000000 M 1958.718800,144.331450 l -61.077013,0.000000 M 1746.437500,144.331450 l 23.995013,0.000000 M 1520.781200,144.331450 l -21.728500,0.000000 M 1417.146500,144.331450 l 28.418000,0.000000 M 1353.628900,144.331450 l -45.126900,0.000000 M 1221.580100,144.331450 l 35.103500,0.000000 M 934.080080,144.331450 l -68.531250,0.000000 M 415.910160,144.331450 l 16.714840,0.000000 M 344.035160,144.331450 l -128.920968,0.000000 M -1.916016,144.331450 l 97.108467,0.000000 M 3203.945300,156.331450 l -16.662100,0.000000 M 2705.884800,156.331450 l 317.589800,-0.000000 M 2623.982400,156.331450 l -86.917900,0.000000 M 2267.947300,156.331450 l 33.433600,0.000000 M 2186.046900,156.331450 l -33.431700,0.000000 M 2040.623000,156.331450 l 30.086000,0.000000 M 1958.718800,156.331450 l -63.359555,0.000000 M 1746.437500,156.331450 l 26.277554,0.000000 M 1520.781200,156.331450 l -21.728500,0.000000 M 1417.146500,156.331450 l 28.418000,0.000000 M 1353.628900,156.331450 l -45.126900,0.000000 M 1221.580100,156.331450 l 35.103500,0.000000 M 934.080080,156.331450 l -68.531250,0.000000 M 415.910160,156.331450 l 16.714840,0.000000 M 344.035160,156.331450 l -128.583953,0.000000 M -1.916016,156.331450 l 96.771444,0.000000 M 3203.945300,168.331450 l -16.662100,0.000000 M 2705.884800,168.331450 l 317.589800,-0.000000 M 2623.982400,168.331450 l -86.917900,0.000000 M 2267.947300,168.331450 l 33.433600,0.000000 M 2186.046900,168.331450 l -33.431700,0.000000 M 2040.623000,168.331450 l 30.086000,0.000000 M 1958.718800,168.331450 l -78.563155,0.000000 M 1746.437500,168.331450 l 41.481153,0.000000 M 1520.781200,168.331450 l -21.728500,0.000000 M 1417.146500,168.331450 l 28.418000,0.000000 M 1353.628900,168.331450 l -45.126900,0.000000 M 1221.580100,168.331450 l 35.103500,0.000000 M 934.080080,168.331450 l -68.531250,0.000000 M 415.910160,168.331450 l 16.714840,0.000000 M 344.035160,168.331450 l -143.659713,0.000000 M -1.916016,168.331450 l 111.847231,0.000000 M 3203.945300,180.331450 l -666.880800,0.000000 M 2267.947300,180.331450 l 33.433600,0.000000 M 2186.046900,180.331450 l -33.431700,0.000000 M 2040.623000,180.331450 l 30.086000,0.000000 M 1958.718800,180.331450 l -212.281300,0.000000 M 1499.052700,180.331450 l 21.728500,0.000000 M 1445.564500,180.331450 l -28.418000,0.000000 M 1308.502000,180.331450 l 45.126900,0.000000 M 1256.683600,180.331450 l -35.103500,0.000000 M 865.548830,180.331450 l 68.531250,0.000000 M 432.625000,180.331450 l -16.714840,0.000000 M -1.916016,180.331450 l 345.951176,0.000000 M 3203.945300,192.331450 l -3205.861316,0.000000"
           style="stroke:#000000;stroke-width:1.000000;fill:none" />
      </g>
    </g>
    <g
       id="g5321">
      <rect
         y="838.50928"
         x="931.44824"
         height="111.67875"
         width="251.87122"
         id="rect4555"
         style="display:inline;fill:#b3b3b3;fill-opacity:1;stroke:#000000;stroke-width:1;stroke-miterlimit:4;stroke-dasharray:none;stroke-opacity:1" />
      <path
         inkscape:connector-curvature="0"
         id="path5324"
         d="m 1183.3195,841.07273 -251.87126,0 m 0,12 251.87126,0 m 0,12 -251.87126,0 m 0,12 251.87126,0 m 0,12 -251.87126,0 m 0,12 251.87126,0 m 0,12 -251.87126,0 m 0,12 251.87126,0 m 0,12 -251.87126,0 m 0,12 251.87126,0"
         style="fill:none;stroke:#000000;stroke-width:1" />
    </g>
    <g
       id="g5326">
      <rect
         transform="translate(0,252.36218)"
         y="709.70612"
         x="-2.3765836"
         height="116.43191"
         width="3210.1707"
         id="rect4460"
         style="display:inline;fill:#b3b3b3;fill-opacity:1;stroke:#000000;stroke-width:0.19911842;stroke-miterlimit:4;stroke-dasharray:none;stroke-opacity:1" />
      <path
         inkscape:connector-curvature="0"
         id="path5329"
         transform="translate(0,252.36218)"
         d="m 3207.7941,720.71055 -3210.170684,0 m 0,12 3210.170684,0 m 0,12 -3210.170684,0 m 0,12 3210.170684,0 m 0,12 -3210.170684,0 m 0,12 3210.170684,0 m 0,12 -3210.170684,0 m 0,12 3210.170684,0 m 0,12 -3210.170684,0"
         style="fill:none;stroke:#000000;stroke-width:1" />
    </g>
    <g
       id="g5623">
      <rect
         y="869.39911"
         x="2917.9043"
         height="80.788879"
         width="180.58691"
         id="rect4561"
         style="display:inline;fill:#b3b3b3;fill-opacity:1;stroke:#000000;stroke-width:1;stroke-miterlimit:4;stroke-dasharray:none;stroke-opacity:1" />
      <path
         inkscape:connector-curvature="0"
         style="fill:none;stroke:#000000;stroke-width:1"
         d="m 3098.4912,873.59492 -180.5869,0 m 0,12 180.5869,0 m 0,12 -180.5869,0 m 0,12 180.5869,0 m 0,12 -180.5869,0 m 0,12 180.5869,0 m 0,12 -180.5869,0"
         id="path5626" />
    </g>
    <g
       id="g5628">
      <rect
         y="874.15143"
         x="3124.6287"
         height="76.036591"
         width="95.045738"
         id="rect4563"
         style="display:inline;fill:#b3b3b3;fill-opacity:1;stroke:#000000;stroke-width:1;stroke-miterlimit:4;stroke-dasharray:none;stroke-opacity:1" />
      <path
         inkscape:connector-curvature="0"
         style="fill:none;stroke:#000000;stroke-width:1"
         d="m 3219.6744,885.59492 -95.0457,0 m 0,12 95.0457,0 m 0,12 -95.0457,0 m 0,12 95.0457,0 m 0,12 -95.0457,0 m 0,12 95.0457,0"
         id="path5631" />
    </g>
    <g
       id="g6282">
      <ellipse
         ry="29.701794"
         rx="64.155876"
         cy="146.56052"
         cx="1834.3827"
         id="path4423-0"
         style="display:inline;fill:#999999;fill-opacity:1;stroke:#000000;stroke-width:0.2;stroke-miterlimit:4;stroke-dasharray:none;stroke-opacity:1"
         transform="translate(0,252.36218)" />
      <path
         inkscape:connector-curvature="0"
         style="fill:none;stroke:#000000;stroke-width:1"
         d="m 1875.5775,123.86276 -82.3896,0 m -18.5655,12 119.5206,0 m 4.2088,12 -127.9382,0 m 6.7558,12 114.4266,0 m -23.7793,12 -66.868,0"
         transform="translate(0,252.36218)"
         id="path6285" />
    </g>
    <g
       id="g6943">
      <ellipse
         ry="29.701794"
         rx="64.155876"
         cy="148.93668"
         cx="154.44936"
         id="path4423-0-8"
         style="display:inline;fill:#999999;fill-opacity:1;stroke:#000000;stroke-width:0.2;stroke-miterlimit:4;stroke-dasharray:none;stroke-opacity:1"
         transform="translate(0,252.36218)" />
      <path
         inkscape:connector-curvature="0"
         style="fill:none;stroke:#000000;stroke-width:1"
         d="m 195.64417,126.23892 -82.38962,0 m -18.565533,12 119.520683,0 m 4.20879,12 -127.93826,0 m 6.755838,12 114.426582,0 m -23.77925,12 -66.86808,0"
         transform="translate(0,252.36218)"
         id="path6946" />
    </g>
  </g>
  <g
     inkscape:label="5 - Blue Stripe"
     id="layer7"
     inkscape:groupmode="layer">
    <rect
       y="446.98438"
       x="-1.6320804"
       height="28.46697"
       width="3202.5093"
       id="rect4163"
       style="display:inline;fill:#008080;fill-opacity:1;stroke:#000000;stroke-width:0.29621342;stroke-miterlimit:4;stroke-dasharray:none;stroke-opacity:1"
       transform="translate(0,-252.36218)" />
  </g>
  <g
     style="display:inline"
     inkscape:label="2 - Blue Squares"
     id="layer2"
     inkscape:groupmode="layer">
    <path
       inkscape:connector-curvature="0"
       id="path4594"
       d="m 1207.0809,469.71605 109.3026,4.75229"
       style="display:inline;fill:none;fill-rule:evenodd;stroke:#000000;stroke-width:1px;stroke-linecap:butt;stroke-linejoin:miter;stroke-opacity:1" />
    <path
       inkscape:connector-curvature="0"
       id="path4596"
       d="m 1204.7048,524.36735 104.5503,-4.75229"
       style="display:inline;fill:none;fill-rule:evenodd;stroke:#000000;stroke-width:1px;stroke-linecap:butt;stroke-linejoin:miter;stroke-opacity:1" />
    <path
       inkscape:connector-curvature="0"
       id="path4598"
       d="m 1207.0809,545.75264 104.5503,-4.75228"
       style="display:inline;fill:none;fill-rule:evenodd;stroke:#000000;stroke-width:1px;stroke-linecap:butt;stroke-linejoin:miter;stroke-opacity:1" />
    <path
       inkscape:connector-curvature="0"
       id="path4600"
       d="m 1209.4571,571.89022 102.1741,-2.37614"
       style="display:inline;fill:none;fill-rule:evenodd;stroke:#000000;stroke-width:1px;stroke-linecap:butt;stroke-linejoin:miter;stroke-opacity:1" />
    <g
       id="g4689">
      <rect
         y="441.20233"
         x="693.83392"
         height="125.93561"
         width="30.889866"
         id="rect4586"
         style="display:inline;fill:#008080;fill-opacity:1;stroke:#000000;stroke-width:1;stroke-miterlimit:4;stroke-dasharray:none;stroke-opacity:1" />
      <path
         id="path4692"
         d="m 701.49806,441.20233 0,125.93561 m 12,0 0,-125.93561"
         style="fill:none;stroke:#000000;stroke-width:1"
         inkscape:connector-curvature="0" />
    </g>
    <g
       id="g4694">
      <rect
         ry="14.256861"
         y="441.20233"
         x="788.87964"
         height="125.93561"
         width="28.513721"
         id="rect4590"
         style="display:inline;fill:#008080;fill-opacity:1;stroke:#000000;stroke-width:1;stroke-miterlimit:4;stroke-dasharray:none;stroke-opacity:1" />
      <path
         id="path4697"
         d="m 797.49806,441.20233 0,125.93561 m 12,0 0,-125.93561"
         style="fill:none;stroke:#000000;stroke-width:1"
         inkscape:connector-curvature="0" />
    </g>
    <g
       id="g4699">
      <rect
         ry="8.3164997"
         y="434.07388"
         x="2497.3269"
         height="130.6879"
         width="26.137579"
         id="rect4610"
         style="display:inline;fill:#008080;fill-opacity:1;stroke:#000000;stroke-width:1;stroke-miterlimit:4;stroke-dasharray:none;stroke-opacity:1" />
      <path
         id="path4702"
         d="m 2501.4981,434.07388 0,130.6879 m 12,0 0,-130.6879"
         style="fill:none;stroke:#000000;stroke-width:1"
         inkscape:connector-curvature="0" />
    </g>
    <g
       id="g4704">
      <rect
         y="438.82617"
         x="643.93488"
         height="128.31175"
         width="28.513721"
         id="rect4584"
         style="display:inline;fill:#008080;fill-opacity:1;stroke:#000000;stroke-width:1;stroke-miterlimit:4;stroke-dasharray:none;stroke-opacity:1" />
      <path
         id="path4707"
         d="m 653.49806,438.82617 0,128.31175 m 12,0 0,-128.31175"
         style="fill:none;stroke:#000000;stroke-width:1"
         inkscape:connector-curvature="0" />
    </g>
    <g
       id="g4709">
      <rect
         ry="8.3164997"
         y="436.45004"
         x="2445.0518"
         height="128.31175"
         width="30.889866"
         id="rect4608"
         style="display:inline;fill:#008080;fill-opacity:1;stroke:#000000;stroke-width:1;stroke-miterlimit:4;stroke-dasharray:none;stroke-opacity:1" />
      <path
         id="path4712"
         d="m 2453.4981,436.45004 0,128.31175 m 12,0 0,-128.31175"
         style="fill:none;stroke:#000000;stroke-width:1"
         inkscape:connector-curvature="0" />
    </g>
    <g
       id="g4714">
      <rect
         ry="8.3164997"
         y="436.45004"
         x="2397.5288"
         height="130.6879"
         width="30.889866"
         id="rect4606"
         style="display:inline;fill:#008080;fill-opacity:1;stroke:#000000;stroke-width:1;stroke-miterlimit:4;stroke-dasharray:none;stroke-opacity:1" />
      <path
         id="path4717"
         d="m 2405.4981,436.45004 0,130.6879 m 12,0 0,-130.6879"
         style="fill:none;stroke:#000000;stroke-width:1"
         inkscape:connector-curvature="0" />
    </g>
    <g
       id="g4719">
      <rect
         ry="8.3165026"
         y="443.57846"
         x="2359.5105"
         height="125.93561"
         width="16.633005"
         id="rect4604"
         style="display:inline;fill:#008080;fill-opacity:1;stroke:#000000;stroke-width:1;stroke-miterlimit:4;stroke-dasharray:none;stroke-opacity:1" />
      <path
         id="path4722"
         d="m 2369.4981,443.57846 0,125.93561"
         style="fill:none;stroke:#000000;stroke-width:1"
         inkscape:connector-curvature="0" />
    </g>
    <g
       id="g4724">
      <rect
         ry="14.2569"
         y="438.82617"
         x="2304.8591"
         height="128.31175"
         width="30.889866"
         id="rect4602"
         style="display:inline;fill:#008080;fill-opacity:1;stroke:#000000;stroke-width:1;stroke-miterlimit:4;stroke-dasharray:none;stroke-opacity:1" />
      <path
         id="path4727"
         d="m 2309.4981,438.82617 0,128.31175 m 12,0 0,-128.31175 m 12,0 0,128.31175"
         style="fill:none;stroke:#000000;stroke-width:1"
         inkscape:connector-curvature="0" />
    </g>
    <g
       id="g4729">
      <rect
         ry="14.256861"
         y="441.20233"
         x="836.40253"
         height="128.31175"
         width="28.513721"
         id="rect4592"
         style="display:inline;fill:#008080;fill-opacity:1;stroke:#000000;stroke-width:1;stroke-miterlimit:4;stroke-dasharray:none;stroke-opacity:1" />
      <path
         id="path4732"
         d="m 845.49806,441.20233 0,128.31175 m 12,0 0,-128.31175"
         style="fill:none;stroke:#000000;stroke-width:1"
         inkscape:connector-curvature="0" />
    </g>
    <g
       id="g4734">
      <rect
         ry="17.821077"
         y="438.82617"
         x="738.98065"
         height="128.31175"
         width="35.642155"
         id="rect4588"
         style="display:inline;fill:#008080;fill-opacity:1;stroke:#000000;stroke-width:1;stroke-miterlimit:4;stroke-dasharray:none;stroke-opacity:1" />
      <path
         id="path4737"
         d="m 749.49806,438.82617 0,128.31175 m 12,0 0,-128.31175 m 12,0 0,128.31175"
         style="fill:none;stroke:#000000;stroke-width:1"
         inkscape:connector-curvature="0" />
    </g>
    <g
       id="g5898">
      <path
         id="path5901"
         d="m 1897.7714,280.86351 -596.4664,0 m 230.1856,12 360.2221,0 m -364.7309,0 -222.7783,0"
         style="fill:none;stroke:#000000;stroke-width:1"
         inkscape:connector-curvature="0" />
      <g
         id="g7275">
        <path
           inkscape:connector-curvature="0"
           id="path5817-3"
           d="m 1897.7714,277.46003 0,15.12168 -72.248,3.36037 -21.8425,8.40094 -272.1903,0 0,-11.76131 -80.649,5.04056 -28.5632,6.72075 -120.9734,-11.76131 0,-16.80187 124.3338,-5.04056 23.5226,5.04056 87.3698,3.36037 1.6802,-6.72075 263.7894,1.68019 26.8829,3.36038 z"
           style="fill:#008080;fill-rule:evenodd;stroke:#000000;stroke-width:1px;stroke-linecap:butt;stroke-linejoin:miter;stroke-opacity:1" />
        <path
           id="path7278"
           d="M 1897.771400,282.191731 l -596.466400,0.000000 M 1531.490600,294.191731 l 331.665323,0.000000 M 1505.730249,294.191731 l -187.865041,0.000000"
           style="stroke:#000000;stroke-width:1.000000;fill:none" />
      </g>
    </g>
    <g
       id="g5903">
      <path
         id="path5906"
         d="m 1898.6115,340.86351 -179.9612,0 m -344.0544,0 288.258,0 m 235.7576,12 -596.4664,0 m 461.3474,12 48.3804,0 m -143.447,0 -280.8441,0"
         style="fill:none;stroke:#000000;stroke-width:1"
         inkscape:connector-curvature="0" />
      <g
         id="g7282">
        <path
           inkscape:connector-curvature="0"
           id="path5817"
           d="m 1302.1451,341.3089 0,15.12168 72.248,3.36037 21.8425,8.40094 272.1903,0 0,-11.76131 80.649,5.04056 28.5632,6.72075 120.9734,-11.76131 0,-16.80187 -124.3338,-5.04056 -23.5226,5.04056 -87.3698,3.36037 -1.6802,-6.72075 -263.7894,1.68019 -26.8829,3.36038 z"
           style="fill:#008080;fill-rule:evenodd;stroke:#000000;stroke-width:1px;stroke-linecap:butt;stroke-linejoin:miter;stroke-opacity:1" />
        <path
           id="path7285"
           d="M 1898.611500,342.191731 l -214.495088,0.000000 M 1302.145100,342.191731 l 361.040861,-0.000000 M 1898.611500,354.191731 l -596.466400,0.000000 M 1769.137421,366.191731 l 29.073728,0.000000 M 1668.425900,366.191731 l -277.390726,0.000000"
           style="stroke:#000000;stroke-width:1.000000;fill:none" />
      </g>
    </g>
    <g
       id="g7287">
      <rect
         y="110.8689"
         x="2300.3506"
         height="75.608421"
         width="236.90639"
         id="rect4274-8"
         style="display:inline;fill:#008080;fill-opacity:1;stroke:#000000;stroke-width:0.2;stroke-miterlimit:4;stroke-dasharray:none;stroke-opacity:1" />
      <path
         id="path7290"
         d="M 2537.256990,114.191731 l -236.906390,0.000000 M 2300.350600,126.191731 l 236.906390,-0.000000 M 2537.256990,138.191731 l -236.906390,0.000000 M 2300.350600,150.191731 l 236.906390,-0.000000 M 2537.256990,162.191731 l -236.906390,0.000000 M 2300.350600,174.191731 l 236.906390,-0.000000 M 2537.256990,186.191731 l -236.906390,0.000000"
         style="stroke:#000000;stroke-width:1.000000;fill:none" />
    </g>
    <g
       id="g7292">
      <rect
         y="89.026497"
         x="2624.6267"
         height="82.32917"
         width="82.32917"
         id="rect4272-4"
         style="display:inline;fill:#008080;fill-opacity:1;stroke:#000000;stroke-width:0.2;stroke-miterlimit:4;stroke-dasharray:none;stroke-opacity:1" />
      <path
         id="path7295"
         d="M 2706.955870,90.191731 l -82.329170,0.000000 M 2624.626700,102.191731 l 82.329170,0.000000 M 2706.955870,114.191731 l -82.329170,0.000000 M 2624.626700,126.191731 l 82.329170,0.000000 M 2706.955870,138.191731 l -82.329170,0.000000 M 2624.626700,150.191731 l 82.329170,0.000000 M 2706.955870,162.191731 l -82.329170,0.000000"
         style="stroke:#000000;stroke-width:1.000000;fill:none" />
    </g>
    <g
       id="g7297">
      <rect
         y="105.82838"
         x="342.85165"
         height="78.968796"
         width="72.248047"
         id="rect4292-7"
         style="display:inline;fill:#008080;fill-opacity:1;stroke:#000000;stroke-width:0.2;stroke-miterlimit:4;stroke-dasharray:none;stroke-opacity:1" />
      <path
         id="path7300"
         d="M 415.099697,114.191731 l -72.248047,0.000000 M 342.851650,126.191731 l 72.248047,0.000000 M 415.099697,138.191731 l -72.248047,0.000000 M 342.851650,150.191731 l 72.248047,0.000000 M 415.099697,162.191731 l -72.248047,0.000000 M 342.851650,174.191731 l 72.248047,0.000000"
         style="stroke:#000000;stroke-width:1.000000;fill:none" />
    </g>
    <g
       id="g7302">
      <rect
         y="105.82838"
         x="429.90158"
         height="80.648987"
         width="435.16849"
         id="rect4294-5"
         style="display:inline;fill:#008080;fill-opacity:1;stroke:#000000;stroke-width:0.2;stroke-miterlimit:4;stroke-dasharray:none;stroke-opacity:1" />
      <path
         id="path7305"
         d="M 865.070070,114.191731 l -435.168490,0.000000 M 429.901580,126.191731 l 435.168490,-0.000000 M 865.070070,138.191731 l -435.168490,0.000000 M 429.901580,150.191731 l 435.168490,-0.000000 M 865.070070,162.191731 l -435.168490,0.000000 M 429.901580,174.191731 l 435.168490,-0.000000 M 865.070070,186.191731 l -435.168490,0.000000"
         style="stroke:#000000;stroke-width:1.000000;fill:none" />
    </g>
    <g
       id="g7307">
      <path
         id="rect4647"
         d="m 1495.7832,391.30273 c -4.6073,0 -8.3184,3.70907 -8.3184,8.31641 l 0,168.70703 c 0,4.60734 3.7111,8.31641 8.3184,8.31641 l 211.4766,0 c 4.6073,0 8.3164,-3.70907 8.3164,-8.31641 l 0,-168.70703 c 0,-4.60734 -3.7091,-8.31641 -8.3164,-8.31641 l -211.4766,0 z m 136.627,7.12891 54.6523,23.76172 0,30.89062 -14.2578,16.63282 -59.4024,14.25586 -52.2753,-4.75196 -35.6426,-14.25781 -7.1289,-45.14648 49.8984,-16.63282 64.1563,-4.75195 z m -57.0274,92.66992 c 0,0 52.2747,2.375 61.7793,2.375 9.5046,0 45.1484,11.88086 45.1484,11.88086 l 2.375,49.90039 -28.5136,14.25586 -109.3028,-4.75195 -28.5136,-14.25586 -2.375,-21.38672 0,-23.76172 28.5136,-11.88086 30.8887,-2.375 z"
         style="display:inline;fill:#008080;fill-opacity:1;stroke:#000000;stroke-width:1;stroke-miterlimit:4;stroke-dasharray:none;stroke-opacity:1"
         inkscape:connector-curvature="0" />
      <path
         id="path7310"
         d="M 1715.576200,402.191731 l -74.517736,0.000000 M 1487.464800,402.191731 l 94.180233,0.000000 M 1715.576200,414.191731 l -46.917562,0.000000 M 1487.464800,414.191731 l 47.764716,0.000000 M 1715.576200,426.191731 l -28.513700,0.000000 M 1487.464800,426.191731 l 31.897401,0.000000 M 1715.576200,438.191731 l -28.513700,0.000000 M 1487.464800,438.191731 l 33.792273,0.000000 M 1715.576200,450.191731 l -28.513700,0.000000 M 1487.464800,450.191731 l 35.687145,0.000000 M 1715.576200,462.191731 l -36.320945,0.000000 M 1487.464800,462.191731 l 37.582017,0.000000 M 1715.576200,474.191731 l -61.417983,0.000000 M 1487.464800,474.191731 l 61.090457,0.000000 M 1715.576200,486.191731 l -228.111400,0.000000 M 1658.778088,498.191731 l 56.798112,0.000000 M 1533.177873,498.191731 l -45.713073,0.000000 M 1682.540588,510.191731 l 33.035612,0.000000 M 1515.980500,510.191731 l -28.515700,0.000000 M 1683.111726,522.191731 l 32.464474,0.000000 M 1515.980500,522.191731 l -28.515700,0.000000 M 1683.682864,534.191731 l 31.893336,0.000000 M 1516.543812,534.191731 l -29.079012,0.000000 M 1684.254002,546.191731 l 31.322198,0.000000 M 1517.876415,546.191731 l -30.411615,0.000000 M 1678.817271,558.191731 l 36.758929,0.000000 M 1533.728256,558.191731 l -46.263456,0.000000 M 1487.690600,570.191731 l 227.659913,0.000000"
         style="stroke:#000000;stroke-width:1.000000;fill:none" />
    </g>
    <g
       id="g7312">
      <path
         id="rect4649"
         d="m 1517.168,619.41406 c -4.6074,0 -8.3164,3.70907 -8.3164,8.31641 l 0,61.7793 c 0,4.60734 3.709,8.3164 8.3164,8.3164 l 168.705,0 c 4.6074,0 8.3165,-3.70906 8.3165,-8.3164 l 0,-61.7793 c 0,-4.60734 -3.7091,-8.31641 -8.3165,-8.31641 l -168.705,0 z m 89.1054,7.12696 a 73.660446,32.077938 0 0 1 73.6602,32.07812 73.660446,32.077938 0 0 1 -73.6602,32.07813 73.660446,32.077938 0 0 1 -73.6601,-32.07813 73.660446,32.077938 0 0 1 73.6601,-32.07812 z"
         style="display:inline;fill:#008080;fill-opacity:1;stroke:#000000;stroke-width:1;stroke-miterlimit:4;stroke-dasharray:none;stroke-opacity:1"
         inkscape:connector-curvature="0" />
      <path
         id="path7315"
         d="M 1694.189500,630.191731 l -53.853672,0.000000 M 1508.851600,630.191731 l 63.359478,0.000000 M 1694.189500,642.191731 l -24.749954,0.000000 M 1508.851600,642.191731 l 34.255753,0.000000 M 1694.189500,654.191731 l -15.046973,0.000000 M 1508.851600,654.191731 l 24.552772,0.000000 M 1694.189500,666.191731 l -16.425950,0.000000 M 1508.851600,666.191731 l 25.931750,0.000000 M 1694.189500,678.191731 l -29.650075,0.000000 M 1508.851600,678.191731 l 39.155874,0.000000 M 1694.121158,690.191731 l -75.203646,0.000000 M 1508.919940,690.191731 l 84.709462,0.000000"
         style="stroke:#000000;stroke-width:1.000000;fill:none" />
    </g>
    <g
       id="g7317">
      <rect
         y="114.22932"
         x="3020.1914"
         height="62.166927"
         width="164.65834"
         id="rect4270-3"
         style="display:inline;fill:#008080;fill-opacity:1;stroke:#000000;stroke-width:0.2;stroke-miterlimit:4;stroke-dasharray:none;stroke-opacity:1" />
      <path
         id="path7320"
         d="M 3184.849740,126.191731 l -164.658340,0.000000 M 3020.191400,138.191731 l 164.658340,0.000000 M 3184.849740,150.191731 l -164.658340,0.000000 M 3020.191400,162.191731 l 164.658340,0.000000 M 3184.849740,174.191731 l -164.658340,0.000000"
         style="stroke:#000000;stroke-width:1.000000;fill:none" />
    </g>
    <g
       id="g7322">
      <path
         inkscape:connector-curvature="0"
         id="path4362-9"
         d="m 1608.283,7.2529259 -142.5684,7.1289001 -9.5058,76.037111 -9.5039,7.126953 2.3769,11.88086 306.5215,4.75195 9.5059,-16.63281 42.7695,2.376951 4.7519,-9.503904 -30.8886,-2.376951 2.375,-9.50391 19.0097,0 0,-38.01953 -19.0097,2.37695 -2.375,-7.1289 21.3847,0 0,-7.12891 -4.7519,-9.50391 -54.6524,-2.37695 -135.4394,-9.5039001 z m -8.3164,14.2519501 a 96.238937,35.647278 0 0 1 96.2383,35.64648 96.238937,35.647278 0 0 1 -96.2383,35.648441 96.238937,35.647278 0 0 1 -96.2383,-35.648441 96.238937,35.647278 0 0 1 96.2383,-35.64648 z"
         style="display:inline;fill:#008080;fill-rule:evenodd;stroke:#000000;stroke-width:1px;stroke-linecap:butt;stroke-linejoin:miter;stroke-opacity:1" />
      <path
         id="path7325"
         d="M 1776.714685,18.191731 l -311.476381,0.000000 M 1662.806953,30.191731 l 140.319747,-0.000000 M 1537.126247,30.191731 l -73.388126,0.000000 M 1789.745372,42.191731 l 13.381328,0.000000 M 1783.882540,42.191731 l -96.651496,0.000000 M 1462.237937,42.191731 l 50.464218,-0.000000 M 1803.126700,54.191731 l -107.325445,0.000000 M 1460.737754,54.191731 l 43.394191,-0.000000 M 1803.126700,66.191731 l -110.180512,0.000000 M 1459.237571,66.191731 l 47.749442,0.000000 M 1803.126700,78.191731 l -125.613556,0.000000 M 1457.737387,78.191731 l 64.682668,0.000000 M 1809.678049,90.191731 l -173.677869,0.000000 M 1456.237204,90.191731 l 107.695816,0.000000 M 1762.454032,102.191731 l -314.819679,0.000000"
         style="stroke:#000000;stroke-width:1.000000;fill:none" />
    </g>
    <g
       id="g7327">
      <rect
         y="107.50855"
         x="931.9577"
         height="80.648987"
         width="288.99219"
         id="rect4290-0"
         style="display:inline;fill:#008080;fill-opacity:1;stroke:#000000;stroke-width:0.2;stroke-miterlimit:4;stroke-dasharray:none;stroke-opacity:1" />
      <path
         id="path7330"
         d="M 1220.949890,114.191731 l -288.992190,0.000000 M 931.957700,126.191731 l 288.992190,-0.000000 M 1220.949890,138.191731 l -288.992190,0.000000 M 931.957700,150.191731 l 288.992190,-0.000000 M 1220.949890,162.191731 l -288.992190,0.000000 M 931.957700,174.191731 l 288.992190,-0.000000 M 1220.949890,186.191731 l -288.992190,0.000000"
         style="stroke:#000000;stroke-width:1.000000;fill:none" />
    </g>
    <g
       id="g7332">
      <rect
         y="104.14814"
         x="2184.4177"
         height="82.32917"
         width="82.32917"
         id="rect4276-6"
         style="display:inline;fill:#008080;fill-opacity:1;stroke:#000000;stroke-width:0.2;stroke-miterlimit:4;stroke-dasharray:none;stroke-opacity:1" />
      <path
         id="path7335"
         d="M 2266.746870,114.191731 l -82.329170,0.000000 M 2184.417700,126.191731 l 82.329170,0.000000 M 2266.746870,138.191731 l -82.329170,0.000000 M 2184.417700,150.191731 l 82.329170,0.000000 M 2266.746870,162.191731 l -82.329170,0.000000 M 2184.417700,174.191731 l 82.329170,0.000000 M 2266.746870,186.191731 l -82.329170,0.000000"
         style="stroke:#000000;stroke-width:1.000000;fill:none" />
    </g>
    <g
       id="g7337">
      <rect
         y="107.50855"
         x="2068.4849"
         height="82.32917"
         width="82.32917"
         id="rect4278-0"
         style="display:inline;fill:#008080;fill-opacity:1;stroke:#000000;stroke-width:0.2;stroke-miterlimit:4;stroke-dasharray:none;stroke-opacity:1" />
      <path
         id="path7340"
         d="M 2150.814070,114.191731 l -82.329170,0.000000 M 2068.484900,126.191731 l 82.329170,-0.000000 M 2150.814070,138.191731 l -82.329170,0.000000 M 2068.484900,150.191731 l 82.329170,0.000000 M 2150.814070,162.191731 l -82.329170,0.000000 M 2068.484900,174.191731 l 82.329170,0.000000 M 2150.814070,186.191731 l -82.329170,0.000000"
         style="stroke:#000000;stroke-width:1.000000;fill:none" />
    </g>
    <g
       id="g7342">
      <rect
         y="105.82838"
         x="1955.9124"
         height="82.32917"
         width="82.32917"
         id="rect4280-9"
         style="display:inline;fill:#008080;fill-opacity:1;stroke:#000000;stroke-width:0.2;stroke-miterlimit:4;stroke-dasharray:none;stroke-opacity:1" />
      <path
         id="path7345"
         d="M 2038.241570,114.191731 l -82.329170,0.000000 M 1955.912400,126.191731 l 82.329170,0.000000 M 2038.241570,138.191731 l -82.329170,0.000000 M 1955.912400,150.191731 l 82.329170,-0.000000 M 2038.241570,162.191731 l -82.329170,0.000000 M 1955.912400,174.191731 l 82.329170,-0.000000 M 2038.241570,186.191731 l -82.329170,0.000000"
         style="stroke:#000000;stroke-width:1.000000;fill:none" />
    </g>
    <g
       id="g7347">
      <rect
         y="129.35097"
         x="1521.7034"
         height="55.446178"
         width="226.82527"
         id="rect4282-7"
         style="display:inline;fill:#008080;fill-opacity:1;stroke:#000000;stroke-width:0.2;stroke-miterlimit:4;stroke-dasharray:none;stroke-opacity:1" />
      <path
         id="path7350"
         d="M 1748.528670,138.191731 l -226.825270,0.000000 M 1521.703400,150.191731 l 226.825270,0.000000 M 1748.528670,162.191731 l -226.825270,0.000000 M 1521.703400,174.191731 l 226.825270,0.000000"
         style="stroke:#000000;stroke-width:1.000000;fill:none" />
    </g>
    <g
       id="g7352">
      <rect
         y="129.35097"
         x="1446.095"
         height="58.806553"
         width="53.765991"
         id="rect4284-4"
         style="display:inline;fill:#008080;fill-opacity:1;stroke:#000000;stroke-width:0.2;stroke-miterlimit:4;stroke-dasharray:none;stroke-opacity:1" />
      <path
         id="path7355"
         d="M 1499.860991,138.191731 l -53.765991,0.000000 M 1446.095000,150.191731 l 53.765991,0.000000 M 1499.860991,162.191731 l -53.765991,0.000000 M 1446.095000,174.191731 l 53.765991,0.000000 M 1499.860991,186.191731 l -53.765991,0.000000"
         style="stroke:#000000;stroke-width:1.000000;fill:none" />
    </g>
    <g
       id="g7357">
      <rect
         y="105.82838"
         x="1353.6846"
         height="78.968796"
         width="63.847115"
         id="rect4286-1"
         style="display:inline;fill:#008080;fill-opacity:1;stroke:#000000;stroke-width:0.2;stroke-miterlimit:4;stroke-dasharray:none;stroke-opacity:1" />
      <path
         id="path7360"
         d="M 1417.531715,114.191731 l -63.847115,0.000000 M 1353.684600,126.191731 l 63.847115,-0.000000 M 1417.531715,138.191731 l -63.847115,0.000000 M 1353.684600,150.191731 l 63.847115,0.000000 M 1417.531715,162.191731 l -63.847115,0.000000 M 1353.684600,174.191731 l 63.847115,0.000000"
         style="stroke:#000000;stroke-width:1.000000;fill:none" />
    </g>
    <g
       id="g7362">
      <rect
         y="105.82838"
         x="1256.2338"
         height="80.648987"
         width="52.085804"
         id="rect4288-3"
         style="display:inline;fill:#008080;fill-opacity:1;stroke:#000000;stroke-width:0.2;stroke-miterlimit:4;stroke-dasharray:none;stroke-opacity:1" />
      <path
         id="path7365"
         d="M 1308.319604,114.191731 l -52.085804,0.000000 M 1256.233800,126.191731 l 52.085804,0.000000 M 1308.319604,138.191731 l -52.085804,0.000000 M 1256.233800,150.191731 l 52.085804,0.000000 M 1308.319604,162.191731 l -52.085804,0.000000 M 1256.233800,174.191731 l 52.085804,0.000000 M 1308.319604,186.191731 l -52.085804,0.000000"
         style="stroke:#000000;stroke-width:1.000000;fill:none" />
    </g>
  </g>
  <g
     style="display:inline"
     inkscape:label="4 - Black"
     id="layer4"
     inkscape:groupmode="layer">
    <g
       style="fill:#4d4d4d"
       id="g6489">
      <ellipse
         ry="35.647278"
         rx="96.238937"
         cy="58.64323"
         cx="1601.5206"
         id="path4364-4"
         style="display:inline;fill:#4d4d4d;fill-opacity:1;stroke:#000000;stroke-width:0.18975535;stroke-miterlimit:4;stroke-dasharray:none;stroke-opacity:1" />
      <path
         inkscape:connector-curvature="0"
         id="path6492"
         d="m 1637.2954,25.572237 -71.5496,0 m -41.7219,12 154.9934,0 m 15.5571,12 -186.1076,0 m -2.8225,12 191.7526,0 m -8.67,12 -174.4126,0 m 24.4535,12 125.5056,0"
         style="fill:#4d4d4d;stroke:#000000;stroke-width:1" />
    </g>
    <g
       id="g6494">
      <rect
         style="display:inline;fill:#000000;fill-opacity:1;stroke:#000000;stroke-width:1;stroke-miterlimit:4;stroke-dasharray:none;stroke-opacity:1"
         id="rect6154"
         width="594.78625"
         height="20.162247"
         x="1307.1857"
         y="240.49767" />
      <path
         inkscape:connector-curvature="0"
         id="path6497"
         d="m 1901.972,241.57224 -594.7863,0 m 0,12 594.7863,0"
         style="fill:none;stroke:#000000;stroke-width:1" />
    </g>
  </g>
  <g
     inkscape:label="3 - Grey Outlines"
     id="layer6"
     inkscape:groupmode="layer"
     style="display:inline">
    <path
       inkscape:connector-curvature="0"
       id="path4463"
       d="m -9.5045741,512.9776 311.2748041,0 2.37614,80.78888 -313.6509441,0"
       style="display:inline;fill:none;fill-rule:evenodd;stroke:#000000;stroke-width:1px;stroke-linecap:butt;stroke-linejoin:miter;stroke-opacity:1"
       transform="translate(0,-252.36218)" />
    <path
       inkscape:connector-curvature="0"
       id="path4469"
       d="m -14.256861,353.28502 102.174171,0 -2.376143,220.98135 -97.421885,-2.37615"
       style="fill:none;fill-rule:evenodd;stroke:#000000;stroke-width:1px;stroke-linecap:butt;stroke-linejoin:miter;stroke-opacity:1" />
    <rect
       y="353.285"
       x="109.3026"
       height="223.3575"
       width="192.46762"
       id="rect4473"
       style="fill:none;fill-opacity:1;stroke:#000000;stroke-width:1;stroke-miterlimit:4;stroke-dasharray:none;stroke-opacity:1" />
    <rect
       y="260.61542"
       x="986.09955"
       height="316.0271"
       width="197.21991"
       id="rect4485"
       style="fill:none;fill-opacity:1;stroke:#000000;stroke-width:1;stroke-miterlimit:4;stroke-dasharray:none;stroke-opacity:1" />
    <rect
       y="583.77094"
       x="1489.842"
       height="26.137579"
       width="228.10977"
       id="rect4495"
       style="fill:none;fill-opacity:1;stroke:#000000;stroke-width:1;stroke-miterlimit:4;stroke-dasharray:none;stroke-opacity:1" />
    <rect
       y="322.39517"
       x="1223.7139"
       height="59.403549"
       width="760.36597"
       id="rect4509"
       style="fill:none;fill-opacity:1;stroke:#000000;stroke-width:1;stroke-miterlimit:4;stroke-dasharray:none;stroke-opacity:1" />
    <rect
       y="234.47784"
       x="1226.0901"
       height="87.917313"
       width="757.98981"
       id="rect4511"
       style="fill:none;fill-opacity:1;stroke:#000000;stroke-width:1;stroke-miterlimit:4;stroke-dasharray:none;stroke-opacity:1" />
    <rect
       y="267.74387"
       x="2043.4834"
       height="306.52252"
       width="178.21077"
       id="rect4515"
       style="fill:none;fill-opacity:1;stroke:#000000;stroke-width:1;stroke-miterlimit:4;stroke-dasharray:none;stroke-opacity:1" />
    <rect
       y="429.32162"
       x="2278.7217"
       height="149.69704"
       width="261.37579"
       id="rect4517"
       style="fill:none;fill-opacity:1;stroke:#000000;stroke-width:1;stroke-miterlimit:4;stroke-dasharray:none;stroke-opacity:1" />
    <rect
       y="258.23929"
       x="2658.9045"
       height="316.0271"
       width="199.59605"
       id="rect4519"
       style="fill:none;fill-opacity:1;stroke:#000000;stroke-width:1;stroke-miterlimit:4;stroke-dasharray:none;stroke-opacity:1" />
    <path
       inkscape:connector-curvature="0"
       id="path4465"
       d="m -7.1284306,577.13348 294.6418006,-2.37615 0,-54.6513 -297.0179441,-4.75229"
       style="display:inline;fill:none;fill-rule:evenodd;stroke:#000000;stroke-width:1px;stroke-linecap:butt;stroke-linejoin:miter;stroke-opacity:1"
       transform="translate(0,-252.36218)" />
    <path
       inkscape:connector-curvature="0"
       id="path4471"
       d="m -11.880718,365.16574 83.165024,0 2.376143,206.72448"
       style="fill:none;fill-rule:evenodd;stroke:#000000;stroke-width:1px;stroke-linecap:butt;stroke-linejoin:miter;stroke-opacity:1" />
    <rect
       y="365.16574"
       x="125.93561"
       height="201.9722"
       width="159.20161"
       id="rect4475"
       style="fill:none;fill-opacity:1;stroke:#000000;stroke-width:1;stroke-miterlimit:4;stroke-dasharray:none;stroke-opacity:1" />
    <rect
       y="262.99158"
       x="377.80682"
       height="308.89865"
       width="201.9722"
       id="rect4477"
       style="fill:none;fill-opacity:1;stroke:#000000;stroke-width:1;stroke-miterlimit:4;stroke-dasharray:none;stroke-opacity:1" />
    <rect
       y="267.74387"
       x="392.06369"
       height="308.89865"
       width="185.33919"
       id="rect4479"
       style="fill:none;fill-opacity:1;stroke:#000000;stroke-width:1;stroke-miterlimit:4;stroke-dasharray:none;stroke-opacity:1" />
    <rect
       y="583.77094"
       x="375.43066"
       height="26.137579"
       width="197.21991"
       id="rect4481"
       style="fill:none;fill-opacity:1;stroke:#000000;stroke-width:1;stroke-miterlimit:4;stroke-dasharray:none;stroke-opacity:1" />
    <rect
       y="429.32162"
       x="632.0542"
       height="144.94475"
       width="254.24736"
       id="rect4483"
       style="fill:none;fill-opacity:1;stroke:#000000;stroke-width:1;stroke-miterlimit:4;stroke-dasharray:none;stroke-opacity:1" />
    <rect
       y="265.36771"
       x="1000.3564"
       height="306.52252"
       width="175.83463"
       id="rect4487"
       style="fill:none;fill-opacity:1;stroke:#000000;stroke-width:1;stroke-miterlimit:4;stroke-dasharray:none;stroke-opacity:1" />
    <rect
       y="393.67944"
       x="1230.8423"
       height="64.155876"
       width="218.60521"
       id="rect4489"
       style="fill:none;fill-opacity:1;stroke:#000000;stroke-width:1;stroke-miterlimit:4;stroke-dasharray:none;stroke-opacity:1" />
    <rect
       y="472.09219"
       x="1361.5303"
       height="97.421883"
       width="97.421883"
       id="rect4491"
       style="fill:none;fill-opacity:1;stroke:#000000;stroke-width:1;stroke-miterlimit:4;stroke-dasharray:none;stroke-opacity:1" />
    <rect
       y="581.39478"
       x="1318.7596"
       height="33.26601"
       width="118.80717"
       id="rect4493"
       style="fill:none;fill-opacity:1;stroke:#000000;stroke-width:1;stroke-miterlimit:4;stroke-dasharray:none;stroke-opacity:1" />
    <rect
       y="621.78925"
       x="1748.8417"
       height="66.532021"
       width="90.293457"
       id="rect4497"
       style="fill:none;fill-opacity:1;stroke:#000000;stroke-width:1;stroke-miterlimit:4;stroke-dasharray:none;stroke-opacity:1" />
    <rect
       y="626.5415"
       x="1865.2727"
       height="64.155876"
       width="42.770584"
       id="rect4499"
       style="fill:none;fill-opacity:1;stroke:#000000;stroke-width:1;stroke-miterlimit:4;stroke-dasharray:none;stroke-opacity:1" />
    <rect
       y="624.16541"
       x="1924.6763"
       height="66.532021"
       width="57.027443"
       id="rect4501"
       style="fill:none;fill-opacity:1;stroke:#000000;stroke-width:1;stroke-miterlimit:4;stroke-dasharray:none;stroke-opacity:1" />
    <rect
       y="583.77094"
       x="1763.0985"
       height="23.761435"
       width="220.98135"
       id="rect4503"
       style="fill:none;fill-opacity:1;stroke:#000000;stroke-width:1;stroke-miterlimit:4;stroke-dasharray:none;stroke-opacity:1" />
    <rect
       y="583.77094"
       x="1487.4658"
       height="23.761435"
       width="228.10977"
       id="rect4505"
       style="fill:none;fill-opacity:1;stroke:#000000;stroke-width:1;stroke-miterlimit:4;stroke-dasharray:none;stroke-opacity:1" />
    <rect
       y="398.43173"
       x="1755.9701"
       height="173.45848"
       width="230.48592"
       id="rect4507"
       style="fill:none;fill-opacity:1;stroke:#000000;stroke-width:1;stroke-miterlimit:4;stroke-dasharray:none;stroke-opacity:1" />
    <rect
       y="260.61542"
       x="2029.2266"
       height="316.0271"
       width="197.21991"
       id="rect4513"
       style="fill:none;fill-opacity:1;stroke:#000000;stroke-width:1;stroke-miterlimit:4;stroke-dasharray:none;stroke-opacity:1" />
    <rect
       y="267.74387"
       x="2680.2898"
       height="301.77023"
       width="182.96306"
       id="rect4521"
       style="fill:none;fill-opacity:1;stroke:#000000;stroke-width:1;stroke-miterlimit:4;stroke-dasharray:none;stroke-opacity:1" />
    <rect
       y="353.285"
       x="2903.6475"
       height="216.22906"
       width="199.59605"
       id="rect4523"
       style="fill:none;fill-opacity:1;stroke:#000000;stroke-width:1;stroke-miterlimit:4;stroke-dasharray:none;stroke-opacity:1" />
    <rect
       y="258.23929"
       x="2901.2712"
       height="85.541168"
       width="311.27481"
       id="rect4525"
       style="fill:none;fill-opacity:1;stroke:#000000;stroke-width:1;stroke-miterlimit:4;stroke-dasharray:none;stroke-opacity:1" />
    <rect
       y="353.285"
       x="3112.748"
       height="220.98135"
       width="109.3026"
       id="rect4527"
       style="fill:none;fill-opacity:1;stroke:#000000;stroke-width:1;stroke-miterlimit:4;stroke-dasharray:none;stroke-opacity:1" />
  </g>
  <g
     inkscape:label="Dark Grey"
     id="layer5"
     inkscape:groupmode="layer"
     style="display:inline" />
  <eggbot
     layer="5"
     node="0"
     lastpath="0"
     lastpathnc="0"
     totaldeltax="0"
     totaldeltay="0" />
</svg>
