<?xml version="1.0" encoding="UTF-8" standalone="no"?>
<svg
   xmlns:dc="http://purl.org/dc/elements/1.1/"
   xmlns:cc="http://creativecommons.org/ns#"
   xmlns:rdf="http://www.w3.org/1999/02/22-rdf-syntax-ns#"
   xmlns:svg="http://www.w3.org/2000/svg"
   xmlns="http://www.w3.org/2000/svg"
   xmlns:xlink="http://www.w3.org/1999/xlink"
   xmlns:sodipodi="http://sodipodi.sourceforge.net/DTD/sodipodi-0.dtd"
   xmlns:inkscape="http://www.inkscape.org/namespaces/inkscape"
   width="3200"
   height="800"
   id="svg2997"
   version="1.1"
   inkscape:version="0.48.0 r9654"
   sodipodi:docname="triangle.svg">
  <title
     id="title3022">Eggbot Op Art I</title>
  <sodipodi:namedview
     pagecolor="#ffffff"
     bordercolor="#666666"
     borderopacity="1"
     objecttolerance="10"
     gridtolerance="10"
     guidetolerance="10"
     inkscape:pageopacity="0"
     inkscape:pageshadow="2"
     inkscape:window-width="1108"
     inkscape:window-height="731"
     id="namedview3001"
     showgrid="false"
     inkscape:showpageshadow="false"
     inkscape:zoom="0.3053125"
     inkscape:cx="1203.6847"
     inkscape:cy="400"
     inkscape:window-x="186"
     inkscape:window-y="43"
     inkscape:window-maximized="0"
     inkscape:current-layer="layer1" />
  <metadata
     id="metadata3005">
    <rdf:RDF>
      <cc:Work
         rdf:about="">
        <dc:format>image/svg+xml</dc:format>
        <dc:type
           rdf:resource="http://purl.org/dc/dcmitype/StillImage" />
        <dc:title>Eggbot Op Art I</dc:title>
        <dc:creator>
          <cc:Agent>
            <dc:title>Dan Newman</dc:title>
          </cc:Agent>
        </dc:creator>
        <dc:description>Op art intended for drawing with an Eggbot.  See http://www.egg-bot.com/ for details.</dc:description>
        <cc:license
           rdf:resource="http://creativecommons.org/licenses/publicdomain/" />
      </cc:Work>
      <cc:License
         rdf:about="http://creativecommons.org/licenses/publicdomain/">
        <cc:permits
           rdf:resource="http://creativecommons.org/ns#Reproduction" />
        <cc:permits
           rdf:resource="http://creativecommons.org/ns#Distribution" />
        <cc:permits
           rdf:resource="http://creativecommons.org/ns#DerivativeWorks" />
      </cc:License>
    </rdf:RDF>
  </metadata>
  <defs
     id="defs3003" />
  <g
     inkscape:groupmode="layer"
     id="layer1"
     inkscape:label="1 - test">
    <path
       id="path4635-8"
       d="m 1600,0 10,0"
       style="fill:none;stroke:#000000;stroke-width:5"
       inkscape:connector-curvature="0" />
    <path
       id="path4637-5"
       d="m 1600,800 10,0"
       style="fill:none;stroke:#000000;stroke-width:5"
       inkscape:connector-curvature="0" />
  </g>
  <g
     inkscape:groupmode="layer"
     id="layer2"
     inkscape:label="2 - drawing">
    <g
       id="g3011"
       inkscape:tile-cx="200"
       inkscape:tile-cy="173.20508"
       inkscape:tile-w="400"
       inkscape:tile-h="346.41016"
       inkscape:tile-x0="0"
       inkscape:tile-y0="0"
       transform="translate(0,53.58984)">
      <path
         id="path2999"
         style="fill:none;stroke:#000000;stroke-width:1"
         d="M 0,0 400,0 200,346.41016 0,0 47.999999,0 376,41.569218 176,304.84094 47.999999,0 87.359998,4.988306 352,73.161825 160.64,268.26003 87.359998,4.988306 119.1168,13.169128 329.0368,96.573609 151.8464,236.66742 119.1168,13.169128 144.3072,23.177666 307.77395,113.38487 147.91885,209.84763 144.3072,23.177666 163.92321,34.002529 288.59134,124.9604 147.48545,187.44723 163.92321,34.002529 l 14.96017,10.914944 92.77525,87.541347 -122.20065,36.57505 29.4254,-124.116397 11.13303,10.504962 66.97815,81.425385 -104.00553,17.29208 37.02738,-98.717465 8.03738,9.771046 46.4601,73.729389 -87.08158,3.37094 40.62148,-77.100329"
         inkscape:connector-curvature="0" />
    </g>
    <use
       x="0"
       y="0"
       inkscape:tiled-clone-of="#g3011"
       xlink:href="#g3011"
       transform="matrix(-1,0,0,-1,400,800)"
       id="use3509"
       width="3200"
       height="800" />
    <use
       x="0"
       y="0"
       inkscape:tiled-clone-of="#g3011"
       xlink:href="#g3011"
       transform="matrix(1,0,0,-1,200,453.58984)"
       id="use3511"
       width="3200"
       height="800" />
    <use
       x="0"
       y="0"
       inkscape:tiled-clone-of="#g3011"
       xlink:href="#g3011"
       transform="matrix(-1,0,0,1,600,346.41016)"
       id="use3513"
       width="3200"
       height="800" />
    <use
       x="0"
       y="0"
       inkscape:tiled-clone-of="#g3011"
       xlink:href="#g3011"
       transform="translate(400,0)"
       id="use3515"
       width="3200"
       height="800" />
    <use
       x="0"
       y="0"
       inkscape:tiled-clone-of="#g3011"
       xlink:href="#g3011"
       transform="matrix(-1,0,0,-1,800,800)"
       id="use3517"
       width="3200"
       height="800" />
    <use
       x="0"
       y="0"
       inkscape:tiled-clone-of="#g3011"
       xlink:href="#g3011"
       transform="matrix(1,0,0,-1,600,453.58984)"
       id="use3519"
       width="3200"
       height="800" />
    <use
       x="0"
       y="0"
       inkscape:tiled-clone-of="#g3011"
       xlink:href="#g3011"
       transform="matrix(-1,0,0,1,1000,346.41016)"
       id="use3521"
       width="3200"
       height="800" />
    <use
       x="0"
       y="0"
       inkscape:tiled-clone-of="#g3011"
       xlink:href="#g3011"
       transform="translate(800,0)"
       id="use3523"
       width="3200"
       height="800" />
    <use
       x="0"
       y="0"
       inkscape:tiled-clone-of="#g3011"
       xlink:href="#g3011"
       transform="matrix(-1,0,0,-1,1200,800)"
       id="use3525"
       width="3200"
       height="800" />
    <use
       x="0"
       y="0"
       inkscape:tiled-clone-of="#g3011"
       xlink:href="#g3011"
       transform="matrix(1,0,0,-1,1000,453.58984)"
       id="use3527"
       width="3200"
       height="800" />
    <use
       x="0"
       y="0"
       inkscape:tiled-clone-of="#g3011"
       xlink:href="#g3011"
       transform="matrix(-1,0,0,1,1400,346.41016)"
       id="use3529"
       width="3200"
       height="800" />
    <use
       x="0"
       y="0"
       inkscape:tiled-clone-of="#g3011"
       xlink:href="#g3011"
       transform="translate(1200,0)"
       id="use3531"
       width="3200"
       height="800" />
    <use
       x="0"
       y="0"
       inkscape:tiled-clone-of="#g3011"
       xlink:href="#g3011"
       transform="matrix(-1,0,0,-1,1600,800)"
       id="use3533"
       width="3200"
       height="800" />
    <use
       x="0"
       y="0"
       inkscape:tiled-clone-of="#g3011"
       xlink:href="#g3011"
       transform="matrix(1,0,0,-1,1400,453.58984)"
       id="use3535"
       width="3200"
       height="800" />
    <use
       x="0"
       y="0"
       inkscape:tiled-clone-of="#g3011"
       xlink:href="#g3011"
       transform="matrix(-1,0,0,1,1800,346.41016)"
       id="use3537"
       width="3200"
       height="800" />
    <use
       x="0"
       y="0"
       inkscape:tiled-clone-of="#g3011"
       xlink:href="#g3011"
       transform="translate(1600,0)"
       id="use3539"
       width="3200"
       height="800" />
    <use
       x="0"
       y="0"
       inkscape:tiled-clone-of="#g3011"
       xlink:href="#g3011"
       transform="matrix(-1,0,0,-1,2000,800)"
       id="use3541"
       width="3200"
       height="800" />
    <use
       x="0"
       y="0"
       inkscape:tiled-clone-of="#g3011"
       xlink:href="#g3011"
       transform="matrix(1,0,0,-1,1800,453.58984)"
       id="use3543"
       width="3200"
       height="800" />
    <use
       x="0"
       y="0"
       inkscape:tiled-clone-of="#g3011"
       xlink:href="#g3011"
       transform="matrix(-1,0,0,1,2200,346.41016)"
       id="use3545"
       width="3200"
       height="800" />
    <use
       x="0"
       y="0"
       inkscape:tiled-clone-of="#g3011"
       xlink:href="#g3011"
       transform="translate(2000,0)"
       id="use3547"
       width="3200"
       height="800" />
    <use
       x="0"
       y="0"
       inkscape:tiled-clone-of="#g3011"
       xlink:href="#g3011"
       transform="matrix(-1,0,0,-1,2400,800)"
       id="use3549"
       width="3200"
       height="800" />
    <use
       x="0"
       y="0"
       inkscape:tiled-clone-of="#g3011"
       xlink:href="#g3011"
       transform="matrix(1,0,0,-1,2200,453.58984)"
       id="use3551"
       width="3200"
       height="800" />
    <use
       x="0"
       y="0"
       inkscape:tiled-clone-of="#g3011"
       xlink:href="#g3011"
       transform="matrix(-1,0,0,1,2600,346.41016)"
       id="use3553"
       width="3200"
       height="800" />
    <use
       x="0"
       y="0"
       inkscape:tiled-clone-of="#g3011"
       xlink:href="#g3011"
       transform="translate(2400,0)"
       id="use3555"
       width="3200"
       height="800" />
    <use
       x="0"
       y="0"
       inkscape:tiled-clone-of="#g3011"
       xlink:href="#g3011"
       transform="matrix(-1,0,0,-1,2800,800)"
       id="use3557"
       width="3200"
       height="800" />
    <use
       x="0"
       y="0"
       inkscape:tiled-clone-of="#g3011"
       xlink:href="#g3011"
       transform="matrix(1,0,0,-1,2600,453.58984)"
       id="use3559"
       width="3200"
       height="800" />
    <use
       x="0"
       y="0"
       inkscape:tiled-clone-of="#g3011"
       xlink:href="#g3011"
       transform="matrix(-1,0,0,1,3000,346.41016)"
       id="use3561"
       width="3200"
       height="800" />
    <use
       x="0"
       y="0"
       inkscape:tiled-clone-of="#g3011"
       xlink:href="#g3011"
       transform="translate(2800,0)"
       id="use3563"
       width="3200"
       height="800" />
    <use
       x="0"
       y="0"
       inkscape:tiled-clone-of="#g3011"
       xlink:href="#g3011"
       transform="matrix(-1,0,0,-1,3200,800)"
       id="use3565"
       width="3200"
       height="800" />
    <use
       x="0"
       y="0"
       inkscape:tiled-clone-of="#g3011"
       xlink:href="#g3011"
       transform="matrix(1,0,0,-1,3000,453.58984)"
       id="use3567"
       width="3200"
       height="800" />
    <use
       x="0"
       y="0"
       inkscape:tiled-clone-of="#g3011"
       xlink:href="#g3011"
       transform="matrix(-1,0,0,1,3400,346.41016)"
       id="use3569"
       width="3200"
       height="800" />
  </g>
</svg>
