<?xml version="1.0" encoding="utf-8"?>
<!-- Generator: Adobe Illustrator 18.1.1, SVG Export Plug-In . SVG Version: 6.00 Build 0)  -->
<svg version="1.1"
	 id="svg2825" xmlns:dc="http://purl.org/dc/elements/1.1/" xmlns:cc="http://creativecommons.org/ns#" xmlns:inkscape="http://www.inkscape.org/namespaces/inkscape" xmlns:sodipodi="http://sodipodi.sourceforge.net/DTD/sodipodi-0.dtd" xmlns:rdf="http://www.w3.org/1999/02/22-rdf-syntax-ns#" xmlns:svg="http://www.w3.org/2000/svg" inkscape:version="0.91 r13725" sodipodi:docname="Plot - Frohe Ostern Bisasam.svg"
	 xmlns="http://www.w3.org/2000/svg" xmlns:xlink="http://www.w3.org/1999/xlink" x="0px" y="0px" viewBox="854 -129.1 4096 1100"
	 enable-background="new 854 -129.1 4096 1100" xml:space="preserve">
<g>
	
		<sodipodi:namedview  showgrid="false" inkscape:cy="692.81471" inkscape:cx="686.96771" inkscape:zoom="0.4171875" borderopacity="1.0" bordercolor="#666666" pagecolor="#ffffff" id="base" inkscape:window-maximized="1" inkscape:current-layer="layer6" inkscape:pageshadow="2" inkscape:pageopacity="0.0" inkscape:window-x="-8" inkscape:document-units="px" inkscape:window-y="-8" inkscape:window-height="987" inkscape:window-width="1680" inkscape:snap-text-baseline="false">
		</sodipodi:namedview>
	<defs>
		
		
			<inkscape:perspective  id="perspective2833" inkscape:vp_x="0 : 526.18109 : 1" inkscape:vp_y="0 : 1000 : 0" sodipodi:type="inkscape:persp3d" inkscape:vp_z="744.09448 : 526.18109 : 1" inkscape:persp3d-origin="372.04724 : 350.78739 : 1">
			</inkscape:perspective>
		
			<inkscape:perspective  id="perspective10" inkscape:vp_x="0 : 526.18109 : 1" inkscape:vp_y="0 : 1000 : 0" sodipodi:type="inkscape:persp3d" inkscape:vp_z="744.09448 : 526.18109 : 1" inkscape:persp3d-origin="372.04724 : 350.78739 : 1">
			</inkscape:perspective>
		
			<inkscape:perspective  id="perspective27353" inkscape:vp_x="0 : 526.18109 : 1" inkscape:vp_y="0 : 1000 : 0" sodipodi:type="inkscape:persp3d" inkscape:vp_z="744.09448 : 526.18109 : 1" inkscape:persp3d-origin="372.04724 : 350.78739 : 1">
			</inkscape:perspective>
		
			<inkscape:perspective  id="perspective6460" inkscape:vp_x="0 : 0.5 : 1" inkscape:vp_y="0 : 1000 : 0" sodipodi:type="inkscape:persp3d" inkscape:vp_z="1 : 0.5 : 1" inkscape:persp3d-origin="0.5 : 0.33333333 : 1">
			</inkscape:perspective>
		
			<inkscape:perspective  id="perspective23322" inkscape:vp_x="0 : 0.5 : 1" inkscape:vp_y="0 : 1000 : 0" sodipodi:type="inkscape:persp3d" inkscape:vp_z="1 : 0.5 : 1" inkscape:persp3d-origin="0.5 : 0.33333333 : 1">
			</inkscape:perspective>
		
			<inkscape:perspective  id="perspective23344" inkscape:vp_x="0 : 0.5 : 1" inkscape:vp_y="0 : 1000 : 0" sodipodi:type="inkscape:persp3d" inkscape:vp_z="1 : 0.5 : 1" inkscape:persp3d-origin="0.5 : 0.33333333 : 1">
			</inkscape:perspective>
		
			<inkscape:perspective  id="perspective23344-6" inkscape:vp_x="0 : 0.5 : 1" inkscape:vp_y="0 : 1000 : 0" sodipodi:type="inkscape:persp3d" inkscape:vp_z="1 : 0.5 : 1" inkscape:persp3d-origin="0.5 : 0.33333333 : 1">
			</inkscape:perspective>
		
			<inkscape:perspective  id="perspective23375" inkscape:vp_x="0 : 0.5 : 1" inkscape:vp_y="0 : 1000 : 0" sodipodi:type="inkscape:persp3d" inkscape:vp_z="1 : 0.5 : 1" inkscape:persp3d-origin="0.5 : 0.33333333 : 1">
			</inkscape:perspective>
		
			<inkscape:perspective  id="perspective23375-0" inkscape:vp_x="0 : 0.5 : 1" inkscape:vp_y="0 : 1000 : 0" sodipodi:type="inkscape:persp3d" inkscape:vp_z="1 : 0.5 : 1" inkscape:persp3d-origin="0.5 : 0.33333333 : 1">
			</inkscape:perspective>
		
			<inkscape:perspective  id="perspective23375-9" inkscape:vp_x="0 : 0.5 : 1" inkscape:vp_y="0 : 1000 : 0" sodipodi:type="inkscape:persp3d" inkscape:vp_z="1 : 0.5 : 1" inkscape:persp3d-origin="0.5 : 0.33333333 : 1">
			</inkscape:perspective>
		
			<inkscape:perspective  id="perspective23375-91" inkscape:vp_x="0 : 0.5 : 1" inkscape:vp_y="0 : 1000 : 0" sodipodi:type="inkscape:persp3d" inkscape:vp_z="1 : 0.5 : 1" inkscape:persp3d-origin="0.5 : 0.33333333 : 1">
			</inkscape:perspective>
		
			<inkscape:perspective  id="perspective23375-3" inkscape:vp_x="0 : 0.5 : 1" inkscape:vp_y="0 : 1000 : 0" sodipodi:type="inkscape:persp3d" inkscape:vp_z="1 : 0.5 : 1" inkscape:persp3d-origin="0.5 : 0.33333333 : 1">
			</inkscape:perspective>
		
			<inkscape:perspective  id="perspective23375-5" inkscape:vp_x="0 : 0.5 : 1" inkscape:vp_y="0 : 1000 : 0" sodipodi:type="inkscape:persp3d" inkscape:vp_z="1 : 0.5 : 1" inkscape:persp3d-origin="0.5 : 0.33333333 : 1">
			</inkscape:perspective>
		
			<inkscape:perspective  id="perspective23375-8" inkscape:vp_x="0 : 0.5 : 1" inkscape:vp_y="0 : 1000 : 0" sodipodi:type="inkscape:persp3d" inkscape:vp_z="1 : 0.5 : 1" inkscape:persp3d-origin="0.5 : 0.33333333 : 1">
			</inkscape:perspective>
		
			<inkscape:perspective  id="perspective23375-4" inkscape:vp_x="0 : 0.5 : 1" inkscape:vp_y="0 : 1000 : 0" sodipodi:type="inkscape:persp3d" inkscape:vp_z="1 : 0.5 : 1" inkscape:persp3d-origin="0.5 : 0.33333333 : 1">
			</inkscape:perspective>
		
			<inkscape:perspective  id="perspective23375-38" inkscape:vp_x="0 : 0.5 : 1" inkscape:vp_y="0 : 1000 : 0" sodipodi:type="inkscape:persp3d" inkscape:vp_z="1 : 0.5 : 1" inkscape:persp3d-origin="0.5 : 0.33333333 : 1">
			</inkscape:perspective>
		
			<inkscape:perspective  id="perspective23375-80" inkscape:vp_x="0 : 0.5 : 1" inkscape:vp_y="0 : 1000 : 0" sodipodi:type="inkscape:persp3d" inkscape:vp_z="1 : 0.5 : 1" inkscape:persp3d-origin="0.5 : 0.33333333 : 1">
			</inkscape:perspective>
		
			<inkscape:perspective  id="perspective23375-03" inkscape:vp_x="0 : 0.5 : 1" inkscape:vp_y="0 : 1000 : 0" sodipodi:type="inkscape:persp3d" inkscape:vp_z="1 : 0.5 : 1" inkscape:persp3d-origin="0.5 : 0.33333333 : 1">
			</inkscape:perspective>
		
			<inkscape:perspective  id="perspective23375-6" inkscape:vp_x="0 : 0.5 : 1" inkscape:vp_y="0 : 1000 : 0" sodipodi:type="inkscape:persp3d" inkscape:vp_z="1 : 0.5 : 1" inkscape:persp3d-origin="0.5 : 0.33333333 : 1">
			</inkscape:perspective>
		
			<inkscape:perspective  id="perspective23375-1" inkscape:vp_x="0 : 0.5 : 1" inkscape:vp_y="0 : 1000 : 0" sodipodi:type="inkscape:persp3d" inkscape:vp_z="1 : 0.5 : 1" inkscape:persp3d-origin="0.5 : 0.33333333 : 1">
			</inkscape:perspective>
		
			<inkscape:perspective  id="perspective23375-88" inkscape:vp_x="0 : 0.5 : 1" inkscape:vp_y="0 : 1000 : 0" sodipodi:type="inkscape:persp3d" inkscape:vp_z="1 : 0.5 : 1" inkscape:persp3d-origin="0.5 : 0.33333333 : 1">
			</inkscape:perspective>
	</defs>
	<g id="layer7" inkscape:label="6 Farbe Gelb" inkscape:groupmode="layer">
	</g>
	<g id="layer4" inkscape:label="7 Farbe Orange" inkscape:groupmode="layer">
	</g>
	<g id="layer5" inkscape:label="4 Farbe Rot" inkscape:groupmode="layer">
		<g id="layer3" transform="translate(31.307815,-204.8165)" inkscape:label="1-Red">
			<g id="g7818" transform="matrix(1,0,0,1.1875335,0,-52.547849)">
				
					<path id="path24415" inkscape:connector-curvature="0" sodipodi:nodetypes="ccccccccccccccccccccccccccccccccccccccccccccccccccccccccccc" fill="none" stroke="#FF1717" stroke-width="11.0118" d="
					M843.9,258.9l70.2-59.9l70.2,59.9l70.2-59.9l70.2,59.9l70.2-59.9l70.2,59.9l70.2-59.9l70.2,59.9L1476,199l70.2,59.9l70.2-59.9
					l70.2,59.9L1757,199l70.2,59.9l70.2-59.9l70.2,59.9l70.2-59.9l70.2,59.9l70.2-59.9l70.2,59.9l70.2-59.9l70.2,59.9l70.2-59.9
					l70.2,59.9l70.2-59.9l70.2,59.9l70.2-59.9l70.2,59.9l70.2-59.9l70.2,59.9l70.2-59.9l70.2,59.9l70.2-59.9l70.2,59.9l70.2-59.9
					l70.2,59.9l70.2-59.9l70.2,59.9L3583,199l70.2,59.9l70.2-59.9l70.2,59.9l70.2-59.9l70.2,59.9l70.2-59.9l70.2,59.9l70.2-59.9
					l70.2,59.9l70.2-59.9l70.2,59.9l70.2-59.9l70.2,59.9l70.2-59.9l70.2,59.9l70.2-59.9l70.2,59.9l70.2-59.9l70.2,59.9"/>
				
					<path id="path23965" inkscape:connector-curvature="0" sodipodi:nodetypes="ccccccccccccccccccccccccccccccccccccccccccccccccccccccccccc" fill="none" stroke="#FF1717" stroke-width="11.0118" d="
					M843.9,199l70.2,59.9l70.2-59.9l70.2,59.9l70.2-59.9l70.2,59.9l70.2-59.9l70.2,59.9l70.2-59.9l70.2,59.9l70.2-59.9l70.2,59.9
					l70.2-59.9l70.2,59.9l70.2-59.9l70.2,59.9l70.2-59.9l70.2,59.9l70.2-59.9l70.2,59.9l70.2-59.9l70.2,59.9l70.2-59.9l70.2,59.9
					l70.2-59.9l70.2,59.9L2670,199l70.2,59.9l70.2-59.9l70.2,59.9l70.2-59.9l70.2,59.9l70.2-59.9l70.2,59.9l70.2-59.9l70.2,59.9
					l70.2-59.9l70.2,59.9l70.2-59.9l70.2,59.9l70.2-59.9l70.2,59.9l70.2-59.9l70.2,59.9l70.2-59.9l70.2,59.9l70.2-59.9l70.2,59.9
					l70.2-59.9l70.2,59.9l70.2-59.9l70.2,59.9L4496,199l70.2,59.9l70.2-59.9l70.2,59.9L4777,199l70.2,59.9l70.2-59.9"/>
			</g>
			<g id="g7843" transform="matrix(1,0,0,1.1875335,0,593.45215)">
				
					<path id="path7845" inkscape:connector-curvature="0" sodipodi:nodetypes="ccccccccccccccccccccccccccccccccccccccccccccccccccccccccccc" fill="none" stroke="#FF1717" stroke-width="11.0118" d="
					M843.9,405.8l70.2-59.9l70.2,59.9l70.2-59.9l70.2,59.9l70.2-59.9l70.2,59.9l70.2-59.9l70.2,59.9l70.2-59.9l70.2,59.9l70.2-59.9
					l70.2,59.9l70.2-59.9l70.2,59.9l70.2-59.9l70.2,59.9l70.2-59.9l70.2,59.9l70.2-59.9l70.2,59.9l70.2-59.9l70.2,59.9l70.2-59.9
					l70.2,59.9l70.2-59.9l70.2,59.9l70.2-59.9l70.2,59.9l70.2-59.9l70.2,59.9l70.2-59.9l70.2,59.9l70.2-59.9l70.2,59.9l70.2-59.9
					l70.2,59.9l70.2-59.9l70.2,59.9l70.2-59.9l70.2,59.9l70.2-59.9l70.2,59.9l70.2-59.9l70.2,59.9l70.2-59.9l70.2,59.9l70.2-59.9
					l70.2,59.9l70.2-59.9l70.2,59.9l70.2-59.9l70.2,59.9l70.2-59.9l70.2,59.9l70.2-59.9l70.2,59.9l70.2-59.9l70.2,59.9"/>
				
					<path id="path7847" inkscape:connector-curvature="0" sodipodi:nodetypes="ccccccccccccccccccccccccccccccccccccccccccccccccccccccccccc" fill="none" stroke="#FF1717" stroke-width="11.0118" d="
					M843.9,345.8l70.2,59.9l70.2-59.9l70.2,59.9l70.2-59.9l70.2,59.9l70.2-59.9l70.2,59.9l70.2-59.9l70.2,59.9l70.2-59.9l70.2,59.9
					l70.2-59.9l70.2,59.9l70.2-59.9l70.2,59.9l70.2-59.9l70.2,59.9l70.2-59.9l70.2,59.9l70.2-59.9l70.2,59.9l70.2-59.9l70.2,59.9
					l70.2-59.9l70.2,59.9l70.2-59.9l70.2,59.9l70.2-59.9l70.2,59.9l70.2-59.9l70.2,59.9l70.2-59.9l70.2,59.9l70.2-59.9l70.2,59.9
					l70.2-59.9l70.2,59.9l70.2-59.9l70.2,59.9l70.2-59.9l70.2,59.9l70.2-59.9l70.2,59.9l70.2-59.9l70.2,59.9l70.2-59.9l70.2,59.9
					l70.2-59.9l70.2,59.9l70.2-59.9l70.2,59.9l70.2-59.9l70.2,59.9l70.2-59.9l70.2,59.9l70.2-59.9l70.2,59.9l70.2-59.9"/>
			</g>
		</g>
		<g id="g3887" transform="matrix(1.8907266,0,0,1,-933.03081,0)">
			<path id="path3540" inkscape:connector-curvature="0" fill="none" stroke="#FF0000" stroke-width="8.727" d="M1340.5,586.7
				c-4.4-0.8-36.4-8.1-38-8.7c-3.9-1.5-6.5-12.8-7.4-32.6c-0.6-11.8,0.7-30.8,2.5-38c1.3-5.1,8.9-17.7,11.3-18.6
				c3.1-1.2,13.6,7.2,19.8,15.9c4.4,6.1,9.8,17,12.5,25.2c6.3,18.8,10.4,48.4,7.8,55.2c-0.7,1.8-1.2,2.1-3.7,2
				C1343.7,587,1341.5,586.8,1340.5,586.7L1340.5,586.7z M1326.5,558.4c2.4-3.5,3.4-9,3.9-19.9c0.6-13.5-1.3-24.4-4.8-27.9
				c-2.3-2.3-7.1-2.5-9-0.4c-3.2,3.5-4.3,8.7-4.3,20.5c0,15.9,1.8,24.8,5.9,29.3C1320.2,562.3,1324.4,561.5,1326.5,558.4
				L1326.5,558.4z"/>
			<path id="path3890" inkscape:connector-curvature="0" fill="none" stroke="#FF0000" stroke-width="8.727" d="M1302.2,497.5v80.3
				 M1312.4,525.3v-35.8 M1312.4,535.4v44.9 M1322.6,509.1v-11.5 M1322.6,561.1v21.5 M1332.8,584.9v-73.6 M1343,535.9v51"/>
		</g>
		<g id="g3892" transform="matrix(1.8907266,0,0,1,-933.03081,0)">
			<path id="path3546" inkscape:connector-curvature="0" fill="none" stroke="#FF0000" stroke-width="8.727" d="M1552.2,743.1
				c-2.2-2.4-2.2-3,1.4-12.8c2.7-7.5,1.2-14.8-4.3-21.3c-1.5-1.8-3.6-3.4-5.5-4.3c-3-1.4-3.5-1.5-12.2-1.7l-9.1-0.2l-9.2-8.8
				c-10.1-9.6-13.7-12.7-21.2-18.2c-6.1-4.5-6.6-5-5.5-6.1c0.4-0.4,3.2-1.7,6.2-2.8c5.4-2,5.4-2,14-2c12.3,0,16.7,0.7,22.7,3.7
				c5.5,2.7,12,6.9,15.6,10c2.9,2.6,8.4,10.4,10.9,15.7c3.8,8,6.3,22.9,5.2,30.5c-0.8,4.9-6.2,19.5-7.3,19.5
				C1553.5,744.3,1552.9,743.7,1552.2,743.1L1552.2,743.1z"/>
			<path id="path3895" inkscape:connector-curvature="0" fill="none" stroke="#FF0000" stroke-width="8.727" d="M1495.7,665.9v12.8
				 M1505.9,687.3V665 M1516.1,665.3v31.4 M1526.3,702.8v-35.4 M1536.5,672.7v30.4 M1546.6,706.5v-25.9 M1556.8,697.2v40.5"/>
		</g>
		<g id="g3897" transform="matrix(1.8907266,0,0,1,-933.03081,0)">
			<path id="path3544" inkscape:connector-curvature="0" fill="none" stroke="#FF0000" stroke-width="8.727" d="M1521,568.6
				c-1.8-3.3-1.6-36.9,0.3-50c2.1-14.6,6.2-23.9,14.7-33.4l2.6-2.9l2.1,1.4c5.5,3.6,9,8.8,11.5,16.9c1.6,5.3,2.4,16.5,2,30.4
				c-0.3,11.6-1.1,17.7-2.7,20.2c-0.9,1.4-7.7,6.2-18.8,13.3C1524.2,570.1,1522.2,570.8,1521,568.6L1521,568.6z M1538.7,545
				c1.6-4.1,2.3-10.7,2.3-22.4c0-15-1.5-22.5-5-25.1c-1.4-1-1.6-1.1-3-0.3c-0.9,0.5-1.9,1.9-2.8,4c-1.3,3.1-1.3,3.5-1.3,16.1
				c0,14.2,1.1,24.5,2.9,28.7c1,2.3,1.1,2.4,3.4,2.2C1537.5,548,1537.6,547.9,1538.7,545L1538.7,545z"/>
			<path id="path3900" inkscape:connector-curvature="0" fill="none" stroke="#FF0000" stroke-width="8.727" d="M1526.3,500.2v68.3
				 M1536.5,497.9v-13 M1536.5,548v14.1 M1546.6,555.2v-66"/>
		</g>
	</g>
	<g id="layer1" transform="translate(0,-252.36218)" inkscape:label="2 Bild Hase" inkscape:groupmode="layer">
	</g>
	<g id="layer8" inkscape:label="3 Farbe Gruen" inkscape:groupmode="layer">
		<g id="g3605" transform="matrix(1.8907266,0,0,1,-933.03081,0)">
			<path id="path3608" inkscape:connector-curvature="0" fill="none" stroke="#008000" stroke-width="8.727" d="M1002.7,506.4v40.5
				 M1010.3,560.4v-63.9 M1017.9,489.1v75 M1025.6,560.9v-71.9 M1033.2,494.4v62.9 M1040.8,553.2v-53.3 M1048.5,505.8v42.1"/>
		</g>
		<g id="g3610" transform="matrix(1.8907266,0,0,1,-933.03081,0)">
			<path id="path3613" inkscape:connector-curvature="0" fill="none" stroke="#008000" stroke-width="8.727" d="M1461,489v15.4
				 M1468.6,510v-28.3 M1476.2,475v39.8 M1483.9,510.5v-40.9"/>
		</g>
		<g id="g3615" transform="matrix(1.8907266,0,0,1,-933.03081,0)">
			<path id="path3618" inkscape:connector-curvature="0" fill="none" stroke="#008000" stroke-width="8.727" d="M1415.1,413.9v17
				 M1422.8,436.7v-30.8 M1430.4,398.4v42.4 M1438,443.4v-51.9 M1445.7,385.4v59.4 M1453.3,442.7v-63 M1461,375v60.2 M1468.6,426
				v-55.2 M1476.2,367v49.1 M1483.9,405.8v-42.6 M1491.5,360.2v34.7 M1499.1,382.7v-24.9 M1506.8,358.6v7.2"/>
		</g>
		<g id="g3620" transform="matrix(1.8907266,0,0,1,-933.03081,0)">
			<path id="path3623" inkscape:connector-curvature="0" fill="none" stroke="#008000" stroke-width="8.727" d="M1376.9,444.5v18.6
				 M1384.6,472.9v-22.5 M1392.2,464.6v4.7"/>
		</g>
		<g id="g3625" transform="matrix(1.8907266,0,0,1,-933.03081,0)">
			<path id="path3628" inkscape:connector-curvature="0" fill="none" stroke="#008000" stroke-width="8.727" d="M1201.3,601.1v18
				 M1208.9,630.7V606 M1216.5,612.6v25.6 M1224.2,639.8v-21.3 M1231.8,623.5v17 M1239.4,641v-13.2 M1247.1,632.4v6.6"/>
		</g>
		<g id="g3630" transform="matrix(1.8907266,0,0,1,-933.03081,0)">
			<path id="path3633" inkscape:connector-curvature="0" fill="none" stroke="#008000" stroke-width="8.727" d="M1025.6,382v13.9
				 M1033.2,410.7v-32.4 M1040.8,375.1v46.4 M1048.5,430.2v-48.9 M1056.1,388.9v46.9 M1063.8,436.6v-40.9 M1071.4,401.4v35.2
				 M1079,436.5v-30.2 M1086.7,410.5v25.8 M1094.3,436v-21.8 M1102,417.4v18.3 M1109.6,435.3v-15.2 M1117.2,422.5v12.3
				 M1124.9,434.2v-9.4 M1132.5,427.1v6"/>
		</g>
		<g id="g3635" transform="matrix(1.8907266,0,0,1,-933.03081,0)">
			<path id="path3638" inkscape:connector-curvature="0" fill="none" stroke="#008000" stroke-width="8.727" d="M1606.1,535.1v31.9
				 M1613.7,572.7v-22.6 M1621.4,567.4v10.9"/>
		</g>
	</g>
	<g id="layer6" inkscape:label="5 Farbe Blau" inkscape:groupmode="layer">
		
			<path id="path7816" inkscape:connector-curvature="0" sodipodi:nodetypes="czzzzzzzzzzzzzzzzzzzzzzzzzzzzzzzzzzzzzzzzzzzzzzzzzzzzzzzzzzzzzzzzzzzzzzzzzzzzzzzzzzzzzzzzzzzzzzzzzzzzzzzzzzzzzzzzzzzc" fill="none" stroke="#00B2F8" stroke-width="12" d="
			M874.8-43.1c13,0,22.1,21.7,35.1,21.7S932-43.1,945-43.1s22.1,21.7,35.1,21.7s22.1-21.7,35.1-21.7c13,0,22.1,21.7,35.1,21.7
			s22.1-21.7,35.1-21.7c13,0,22.1,21.7,35.1,21.7s22.1-21.7,35.1-21.7s22.1,21.7,35.1,21.7s22.1-21.7,35.1-21.7s22.1,21.7,35.1,21.7
			s22.1-21.7,35.1-21.7s22.1,21.7,35.1,21.7s22.1-21.7,35.1-21.7s22.1,21.7,35.1,21.7s22.1-21.7,35.1-21.7s22.1,21.7,35.1,21.7
			s22.1-21.7,35.1-21.7s22.1,21.7,35.1,21.7s22.1-21.7,35.1-21.7c13,0,22.1,21.7,35.1,21.7s22.1-21.7,35.1-21.7
			c13,0,22.1,21.7,35.1,21.7c13,0,22.1-21.7,35.1-21.7s22.1,21.7,35.1,21.7c13,0,22.1-21.7,35.1-21.7s22.1,21.7,35.1,21.7
			s22.1-21.7,35.1-21.7c13,0,22.1,21.7,35.1,21.7c13,0,22.1-21.7,35.1-21.7s22.1,21.7,35.1,21.7c13,0,22.1-21.7,35.1-21.7
			c13,0,22.1,21.7,35.1,21.7c13,0,22.1-21.7,35.1-21.7s22.1,21.7,35.1,21.7s22.1-21.7,35.1-21.7s22.1,21.7,35.1,21.7
			s22.1-21.7,35.1-21.7s22.1,21.7,35.1,21.7c13,0,22.1-21.7,35.1-21.7s22.1,21.7,35.1,21.7s22.1-21.7,35.1-21.7
			c13,0,22.1,21.7,35.1,21.7s22.1-21.7,35.1-21.7c13,0,22.1,21.7,35.1,21.7c13,0,22.1-21.7,35.1-21.7s22.1,21.7,35.1,21.7
			s22.1-21.7,35.1-21.7c13,0,22.1,21.7,35.1,21.7s22.1-21.7,35.1-21.7s22.1,21.7,35.1,21.7c13,0,22.1-21.7,35.1-21.7
			c13,0,22.1,21.7,35.1,21.7s22.1-21.7,35.1-21.7s22.1,21.7,35.1,21.7c13,0,22.1-21.7,35.1-21.7s22.1,21.7,35.1,21.7
			s22.1-21.7,35.1-21.7c13,0,22.1,21.7,35.1,21.7c13,0,22.1-21.7,35.1-21.7c13,0,22.1,21.7,35.1,21.7c13,0,22.1-21.7,35.1-21.7
			s22.1,21.7,35.1,21.7s22.1-21.7,35.1-21.7c13,0,22.1,21.7,35.1,21.7s22.1-21.7,35.1-21.7s22.1,21.7,35.1,21.7
			c13,0,22.1-21.7,35.1-21.7s22.1,21.7,35.1,21.7s22.1-21.7,35.1-21.7s22.1,21.7,35.1,21.7c13,0,22.1-21.7,35.1-21.7
			s22.1,21.7,35.1,21.7s22.1-21.7,35.1-21.7c13,0,22.1,21.7,35.1,21.7c13,0,22.1-21.7,35.1-21.7c13,0,22.1,21.7,35.1,21.7
			c13,0,22.1-21.7,35.1-21.7c13,0,22.1,21.7,35.1,21.7c13,0,22.1-21.7,35.1-21.7c13,0,22.1,21.7,35.1,21.7c13,0,22.1-21.7,35.1-21.7
			c13,0,22.1,21.7,35.1,21.7c13,0,22.1-21.7,35.1-21.7c13,0,22.1,21.7,35.1,21.7c13,0,22.1-21.7,35.1-21.7c13,0,22.1,21.7,35.1,21.7
			c13,0,22.1-21.7,35.1-21.7c13,0,22.1,21.7,35.1,21.7c13,0,22.1-21.7,35.1-21.7c13,0,22.1,21.7,35.1,21.7c13,0,22.1-21.7,35.1-21.7
			c13,0,22.1,21.7,35.1,21.7s22.1-21.7,35.1-21.7s22.1,21.7,35.1,21.7c13,0,22.1-21.7,35.1-21.7s22.1,21.7,35.1,21.7
			s22.1-21.7,35.1-21.7c13,0,22.1,21.7,35.1,21.7s22.1-21.7,35.1-21.7s22.1,21.7,35.1,21.7c13,0,22.1-21.7,35.1-21.7
			s22.1,21.7,35.1,21.7s22.1-21.7,35.1-21.7c13,0,22.1,21.7,35.1,21.7c13,0,22.1-21.7,35.1-21.7c13,0,22.1,21.7,35.1,21.7
			c13,0,22.1-21.7,35.1-21.7s22.1,21.7,35.1,21.7s22.1-21.7,35.1-21.7c13,0,22.1,21.7,35.1,21.7c13,0,22.1-21.7,35.1-21.7
			s22.1,21.7,35.1,21.7c13,0,22.1-21.7,35.1-21.7c13,0,22.1,21.7,35.1,21.7s22.1-21.7,35.1-21.7"/>
		
			<path id="path7839" inkscape:connector-curvature="0" sodipodi:nodetypes="czzzzzzzzzzzzzzzzzzzzzzzzzzzzzzzzzzzzzzzzzzzzzzzzzzzzzzzzzzzzzzzzzzzzzzzzzzzzzzzzzzzzzzzzzzzzzzzzzzzzzzzzzzzzzzzzzzzc" fill="none" stroke="#00B2F8" stroke-width="12" d="
			M874.8,784.9c13,0,22.1,21.7,35.1,21.7s22.1-21.7,35.1-21.7s22.1,21.7,35.1,21.7s22.1-21.7,35.1-21.7c13,0,22.1,21.7,35.1,21.7
			s22.1-21.7,35.1-21.7c13,0,22.1,21.7,35.1,21.7s22.1-21.7,35.1-21.7s22.1,21.7,35.1,21.7s22.1-21.7,35.1-21.7s22.1,21.7,35.1,21.7
			s22.1-21.7,35.1-21.7s22.1,21.7,35.1,21.7s22.1-21.7,35.1-21.7s22.1,21.7,35.1,21.7s22.1-21.7,35.1-21.7s22.1,21.7,35.1,21.7
			s22.1-21.7,35.1-21.7s22.1,21.7,35.1,21.7s22.1-21.7,35.1-21.7c13,0,22.1,21.7,35.1,21.7s22.1-21.7,35.1-21.7
			c13,0,22.1,21.7,35.1,21.7c13,0,22.1-21.7,35.1-21.7s22.1,21.7,35.1,21.7c13,0,22.1-21.7,35.1-21.7s22.1,21.7,35.1,21.7
			s22.1-21.7,35.1-21.7s22.1,21.7,35.1,21.7c13,0,22.1-21.7,35.1-21.7s22.1,21.7,35.1,21.7c13,0,22.1-21.7,35.1-21.7
			c13,0,22.1,21.7,35.1,21.7c13,0,22.1-21.7,35.1-21.7s22.1,21.7,35.1,21.7s22.1-21.7,35.1-21.7s22.1,21.7,35.1,21.7
			s22.1-21.7,35.1-21.7s22.1,21.7,35.1,21.7c13,0,22.1-21.7,35.1-21.7s22.1,21.7,35.1,21.7s22.1-21.7,35.1-21.7
			c13,0,22.1,21.7,35.1,21.7s22.1-21.7,35.1-21.7s22.1,21.7,35.1,21.7c13,0,22.1-21.7,35.1-21.7s22.1,21.7,35.1,21.7
			s22.1-21.7,35.1-21.7c13,0,22.1,21.7,35.1,21.7s22.1-21.7,35.1-21.7s22.1,21.7,35.1,21.7c13,0,22.1-21.7,35.1-21.7
			c13,0,22.1,21.7,35.1,21.7s22.1-21.7,35.1-21.7s22.1,21.7,35.1,21.7c13,0,22.1-21.7,35.1-21.7s22.1,21.7,35.1,21.7
			s22.1-21.7,35.1-21.7c13,0,22.1,21.7,35.1,21.7s22.1-21.7,35.1-21.7s22.1,21.7,35.1,21.7c13,0,22.1-21.7,35.1-21.7
			s22.1,21.7,35.1,21.7s22.1-21.7,35.1-21.7c13,0,22.1,21.7,35.1,21.7s22.1-21.7,35.1-21.7s22.1,21.7,35.1,21.7
			c13,0,22.1-21.7,35.1-21.7s22.1,21.7,35.1,21.7s22.1-21.7,35.1-21.7s22.1,21.7,35.1,21.7c13,0,22.1-21.7,35.1-21.7
			s22.1,21.7,35.1,21.7s22.1-21.7,35.1-21.7c13,0,22.1,21.7,35.1,21.7c13,0,22.1-21.7,35.1-21.7s22.1,21.7,35.1,21.7
			c13,0,22.1-21.7,35.1-21.7c13,0,22.1,21.7,35.1,21.7c13,0,22.1-21.7,35.1-21.7c13,0,22.1,21.7,35.1,21.7c13,0,22.1-21.7,35.1-21.7
			c13,0,22.1,21.7,35.1,21.7c13,0,22.1-21.7,35.1-21.7c13,0,22.1,21.7,35.1,21.7c13,0,22.1-21.7,35.1-21.7c13,0,22.1,21.7,35.1,21.7
			c13,0,22.1-21.7,35.1-21.7c13,0,22.1,21.7,35.1,21.7c13,0,22.1-21.7,35.1-21.7c13,0,22.1,21.7,35.1,21.7s22.1-21.7,35.1-21.7
			c13,0,22.1,21.7,35.1,21.7s22.1-21.7,35.1-21.7s22.1,21.7,35.1,21.7c13,0,22.1-21.7,35.1-21.7s22.1,21.7,35.1,21.7
			s22.1-21.7,35.1-21.7c13,0,22.1,21.7,35.1,21.7s22.1-21.7,35.1-21.7s22.1,21.7,35.1,21.7c13,0,22.1-21.7,35.1-21.7
			s22.1,21.7,35.1,21.7s22.1-21.7,35.1-21.7c13,0,22.1,21.7,35.1,21.7s22.1-21.7,35.1-21.7s22.1,21.7,35.1,21.7
			c13,0,22.1-21.7,35.1-21.7s22.1,21.7,35.1,21.7s22.1-21.7,35.1-21.7c13,0,22.1,21.7,35.1,21.7c13,0,22.1-21.7,35.1-21.7
			s22.1,21.7,35.1,21.7c13,0,22.1-21.7,35.1-21.7c13,0,22.1,21.7,35.1,21.7s22.1-21.7,35.1-21.7"/>
		
			<path id="path7841" inkscape:connector-curvature="0" sodipodi:nodetypes="czzzzzzzzzzzzzzzzzzzzzzzzzzzzzzzzzzzzzzzzzzzzzzzzzzzzzzzzzzzzzzzzzzzzzzzzzzzzzzzzzzzzzzzzzzzzzzzzzzzzzzzzzzzzzzzzzzzc" fill="none" stroke="#00B2F8" stroke-width="12" d="
			M874.8,884.9c13,0,22.1-21.7,35.1-21.7s22.1,21.7,35.1,21.7s22.1-21.7,35.1-21.7s22.1,21.7,35.1,21.7c13,0,22.1-21.7,35.1-21.7
			s22.1,21.7,35.1,21.7c13,0,22.1-21.7,35.1-21.7s22.1,21.7,35.1,21.7s22.1-21.7,35.1-21.7s22.1,21.7,35.1,21.7s22.1-21.7,35.1-21.7
			s22.1,21.7,35.1,21.7s22.1-21.7,35.1-21.7s22.1,21.7,35.1,21.7s22.1-21.7,35.1-21.7s22.1,21.7,35.1,21.7s22.1-21.7,35.1-21.7
			s22.1,21.7,35.1,21.7s22.1-21.7,35.1-21.7s22.1,21.7,35.1,21.7c13,0,22.1-21.7,35.1-21.7s22.1,21.7,35.1,21.7
			c13,0,22.1-21.7,35.1-21.7c13,0,22.1,21.7,35.1,21.7s22.1-21.7,35.1-21.7c13,0,22.1,21.7,35.1,21.7s22.1-21.7,35.1-21.7
			s22.1,21.7,35.1,21.7c13,0,22.1-21.7,35.1-21.7c13,0,22.1,21.7,35.1,21.7s22.1-21.7,35.1-21.7c13,0,22.1,21.7,35.1,21.7
			c13,0,22.1-21.7,35.1-21.7c13,0,22.1,21.7,35.1,21.7s22.1-21.7,35.1-21.7s22.1,21.7,35.1,21.7s22.1-21.7,35.1-21.7
			s22.1,21.7,35.1,21.7s22.1-21.7,35.1-21.7c13,0,22.1,21.7,35.1,21.7s22.1-21.7,35.1-21.7s22.1,21.7,35.1,21.7
			c13,0,22.1-21.7,35.1-21.7s22.1,21.7,35.1,21.7c13,0,22.1-21.7,35.1-21.7c13,0,22.1,21.7,35.1,21.7s22.1-21.7,35.1-21.7
			s22.1,21.7,35.1,21.7c13,0,22.1-21.7,35.1-21.7s22.1,21.7,35.1,21.7s22.1-21.7,35.1-21.7c13,0,22.1,21.7,35.1,21.7
			c13,0,22.1-21.7,35.1-21.7s22.1,21.7,35.1,21.7s22.1-21.7,35.1-21.7c13,0,22.1,21.7,35.1,21.7s22.1-21.7,35.1-21.7
			s22.1,21.7,35.1,21.7c13,0,22.1-21.7,35.1-21.7s22.1,21.7,35.1,21.7c13,0,22.1-21.7,35.1-21.7c13,0,22.1,21.7,35.1,21.7
			s22.1-21.7,35.1-21.7s22.1,21.7,35.1,21.7c13,0,22.1-21.7,35.1-21.7s22.1,21.7,35.1,21.7s22.1-21.7,35.1-21.7
			c13,0,22.1,21.7,35.1,21.7s22.1-21.7,35.1-21.7s22.1,21.7,35.1,21.7s22.1-21.7,35.1-21.7c13,0,22.1,21.7,35.1,21.7
			s22.1-21.7,35.1-21.7s22.1,21.7,35.1,21.7c13,0,22.1-21.7,35.1-21.7c13,0,22.1,21.7,35.1,21.7c13,0,22.1-21.7,35.1-21.7
			c13,0,22.1,21.7,35.1,21.7c13,0,22.1-21.7,35.1-21.7c13,0,22.1,21.7,35.1,21.7c13,0,22.1-21.7,35.1-21.7c13,0,22.1,21.7,35.1,21.7
			c13,0,22.1-21.7,35.1-21.7c13,0,22.1,21.7,35.1,21.7c13,0,22.1-21.7,35.1-21.7c13,0,22.1,21.7,35.1,21.7c13,0,22.1-21.7,35.1-21.7
			c13,0,22.1,21.7,35.1,21.7c13,0,22.1-21.7,35.1-21.7c13,0,22.1,21.7,35.1,21.7c13,0,22.1-21.7,35.1-21.7s22.1,21.7,35.1,21.7
			c13,0,22.1-21.7,35.1-21.7s22.1,21.7,35.1,21.7s22.1-21.7,35.1-21.7c13,0,22.1,21.7,35.1,21.7s22.1-21.7,35.1-21.7
			s22.1,21.7,35.1,21.7c13,0,22.1-21.7,35.1-21.7s22.1,21.7,35.1,21.7s22.1-21.7,35.1-21.7c13,0,22.1,21.7,35.1,21.7
			s22.1-21.7,35.1-21.7s22.1,21.7,35.1,21.7c13,0,22.1-21.7,35.1-21.7s22.1,21.7,35.1,21.7c13,0,22.1-21.7,35.1-21.7
			c13,0,22.1,21.7,35.1,21.7s22.1-21.7,35.1-21.7s22.1,21.7,35.1,21.7c13,0,22.1-21.7,35.1-21.7c13,0,22.1,21.7,35.1,21.7
			s22.1-21.7,35.1-21.7c13,0,22.1,21.7,35.1,21.7c13,0,22.1-21.7,35.1-21.7s22.1,21.7,35.1,21.7"/>
		<g id="text4678" transform="matrix(1.0607773,0,0,0.94270496,769.1161,0)">
			<g id="g6204">
				<path id="path5290" inkscape:connector-curvature="0" fill="#FFFFFF" stroke="#0000FF" stroke-width="12" d="M2432.6,195.4h-94
					v37.9h87.1v39.4h-87.1v87h-52.4V156h146.4L2432.6,195.4L2432.6,195.4z"/>
				<path id="path6207" inkscape:connector-curvature="0" fill="none" stroke="#0000FF" stroke-width="12" d="M2287.2,156v203.8
					 M2294.4,359.7V156 M2301.6,156v203.8 M2308.8,359.7V156 M2316,156v203.8 M2323.2,359.7V156 M2330.4,156v203.8 M2337.6,359.7
					V156 M2344.8,156v39.4 M2344.8,272.7v-39.4 M2352,156v39.4 M2352,272.7v-39.4 M2359.3,156v39.4 M2359.3,272.7v-39.4 M2366.5,156
					v39.4 M2366.5,272.7v-39.4 M2373.7,156v39.4 M2373.7,272.7v-39.4 M2380.9,156v39.4 M2380.9,272.7v-39.4 M2388.1,156v39.4
					 M2388.1,272.7v-39.4 M2395.3,156v39.4 M2395.3,272.7v-39.4 M2402.5,156v39.4 M2402.5,272.7v-39.4 M2409.7,156v39.4
					 M2409.7,272.7v-39.4 M2416.9,156v39.4 M2416.9,272.7v-39.4 M2424.1,156v39.4 M2424.1,272.7v-39.4 M2431.3,156v39.4"/>
			</g>
			<g id="g6209">
				<path id="path5302" inkscape:connector-curvature="0" fill="#FFFFFF" stroke="#0000FF" stroke-width="12" d="M2656,661.4
					c0,15.9-7.1,28.7-21.4,38.5c-14.3,9.7-33.8,14.5-58.6,14.5c-13.7,0-26.2-1.3-37.3-3.8c-11.2-2.6-20.1-5.4-26.9-8.5v-40.5h4.5
					c2.5,1.7,5.3,3.6,8.5,5.7c3.3,2,7.9,4.2,13.9,6.6c5.1,2.1,10.9,3.9,17.4,5.5c6.5,1.5,13.4,2.2,20.9,2.2c9.7,0,16.9-1,21.5-3.1
					c4.7-2.2,7-5.4,7-9.6c0-3.7-1.4-6.4-4.1-8.1c-2.7-1.7-8-3.4-15.6-4.9c-3.7-0.8-8.6-1.7-15-2.6c-6.2-1-11.9-2.2-17-3.6
					c-14-3.6-24.4-9.3-31.1-17c-6.8-7.8-10.2-17.4-10.2-28.9c0-14.8,7-27.1,21-36.8c14.1-9.9,33.3-14.8,57.6-14.8
					c11.5,0,22.5,1.2,33.1,3.6c10.6,2.3,18.9,4.7,24.8,7.4V602h-4.3c-7.3-5-15.7-9.1-25.1-12.2c-9.3-3.2-18.8-4.8-28.4-4.8
					c-8,0-14.7,1.1-20.2,3.3c-5.4,2.2-8.1,5.3-8.1,9.3c0,3.6,1.2,6.4,3.7,8.3c2.5,1.9,8.3,3.8,17.4,5.7c5,1,10.4,2,16.2,3
					c5.9,0.9,11.7,2.1,17.6,3.6c13,3.4,22.6,8.7,28.8,16C2652.9,641.5,2656,650.5,2656,661.4L2656,661.4z"/>
				<path id="path6212" inkscape:connector-curvature="0" fill="none" stroke="#0000FF" stroke-width="12" d="M2517.7,583.7v41.5
					 M2517.7,704.2v-41.8 M2524.9,574.2v60.4 M2524.9,706.8v-39.5 M2532.1,568.1v72.3 M2532.1,708.7v-37.8 M2539.3,563.4v80.9
					 M2539.3,710.6V674 M2546.5,559.9v87.3 M2546.5,712v-35.4 M2553.7,557.3v92.2 M2553.7,713v-34.4 M2560.9,555.3v95.9
					 M2560.9,713.7v-33.6 M2568.1,553.9v35.9 M2568.1,652.6v-45.9 M2568.1,681v33.1 M2575.3,586.9V553 M2575.3,609.4v44.5
					 M2575.3,714.3v-32.9 M2582.5,552.4v33.2 M2582.5,655.2v-43.9 M2582.5,681.3v32.8 M2589.7,585.1v-32.9 M2589.7,612.7v44
					 M2589.7,713.7v-33 M2596.9,552.3v32.9 M2596.9,658.7v-44.7 M2596.9,678.9v34 M2604.1,586v-33.3 M2604.1,615.5v47.8
					 M2604.1,711.8v-38 M2611.3,553.5v33.9 M2611.3,710.1v-93.2 M2618.5,554.6v34.8 M2618.5,707.9v-89.4 M2625.7,556.1V592
					 M2625.7,704.8v-84.1 M2632.9,557.9v37.2 M2632.9,700.9v-77 M2640.1,559.9V599 M2640.1,695.6v-67.3 M2647.3,562.5V602
					 M2647.3,688v-53 M2654.5,649.6v23.8"/>
			</g>
			<g id="g6214">
				<path id="path5292" inkscape:connector-curvature="0" fill="#FFFFFF" stroke="#0000FF" stroke-width="12" d="M2577.8,253h-4.4
					c-2.1-0.7-5.5-1.3-10.2-1.6s-8.6-0.5-11.7-0.5c-7,0-13.3,0.5-18.7,1.4s-11.2,2.5-17.4,4.7v102.9h-49.4V206.1h49.4v22.6
					c10.9-9.3,20.3-15.5,28.4-18.5c8-3.1,15.5-4.7,22.2-4.7c1.7,0,3.7,0,5.9,0.1c2.2,0.1,4.1,0.2,5.8,0.4V253L2577.8,253z"/>
				<path id="path6217" inkscape:connector-curvature="0" fill="none" stroke="#0000FF" stroke-width="12" d="M2467.3,206.1v153.7
					 M2474.5,359.7V206.1 M2481.7,206.1v153.7 M2488.9,359.7V206.1 M2496.1,206.1v153.7 M2503.3,359.7V206.1 M2510.5,206.1v153.7
					 M2517.7,256.2v-29.2 M2524.9,221.2V254 M2532.1,252.4v-36.1 M2539.3,212.3v39.2 M2546.5,251v-41.7 M2553.7,207.1v43.7
					 M2560.9,251.2v-45.4 M2568.1,205.5v46.3 M2575.3,253v-47.1"/>
			</g>
			<g id="g6219">
				<path id="path5308" inkscape:connector-curvature="0" fill="#FFFFFF" stroke="#0000FF" stroke-width="12" d="M3115.1,603.3h-4.4
					c-2.1-0.7-5.5-1.3-10.2-1.6c-4.7-0.4-8.6-0.5-11.7-0.5c-7,0-13.3,0.5-18.7,1.4c-5.4,0.9-11.2,2.5-17.4,4.7v102.9h-49.4V556.4
					h49.4V579c10.9-9.3,20.3-15.5,28.4-18.5c8-3.1,15.5-4.7,22.2-4.7c1.7,0,3.7,0,5.9,0.1c2.2,0.1,4.1,0.2,5.8,0.4V603.3
					L3115.1,603.3z"/>
				<path id="path6222" inkscape:connector-curvature="0" fill="none" stroke="#0000FF" stroke-width="12" d="M3007.3,556.4v153.7
					 M3014.5,710.1V556.4 M3021.7,556.4v153.7 M3028.9,710.1V556.4 M3036.1,556.4v153.7 M3043.3,710.1V556.4 M3050.5,556.4v153.7
					 M3057.7,605.6V575 M3064.9,569.6v34.1 M3072.1,602.3V565 M3079.3,561.3v40.1 M3086.5,601.2v-42.6 M3093.7,556.9v44.5
					 M3100.9,601.7V556 M3108.1,556v46.8"/>
			</g>
			<g id="g6224">
				<path id="path5294" inkscape:connector-curvature="0" fill="#FFFFFF" stroke="#0000FF" stroke-width="12" d="M2763.6,283
					c0,25.3-7.4,45.2-22.2,59.8c-14.7,14.5-35.4,21.8-62.1,21.8s-47.5-7.3-62.3-21.8c-14.7-14.6-22.1-34.5-22.1-59.8
					c0-25.5,7.4-45.4,22.2-59.9c14.9-14.5,35.6-21.8,62.1-21.8c26.9,0,47.6,7.3,62.3,21.9C2756.2,237.8,2763.6,257.7,2763.6,283z
					 M2702.8,320.3c3.2-3.9,5.6-8.6,7.1-14.1c1.6-5.6,2.5-13.2,2.5-23c0-9-0.8-16.6-2.5-22.7c-1.6-6.1-3.9-11-6.9-14.6
					c-2.9-3.7-6.4-6.4-10.6-7.9c-4.1-1.6-8.6-2.3-13.3-2.3c-4.8,0-9,0.6-12.8,1.9c-3.7,1.3-7.2,3.8-10.6,7.7
					c-3,3.6-5.4,8.4-7.3,14.6c-1.7,6.2-2.6,14-2.6,23.4c0,8.4,0.8,15.7,2.3,21.9c1.6,6.1,3.8,11,6.9,14.8c2.9,3.6,6.4,6.2,10.4,7.8
					c4.1,1.6,8.8,2.5,14,2.5c4.5,0,8.7-0.7,12.8-2.2C2696.5,326.4,2700,323.9,2702.8,320.3L2702.8,320.3z"/>
				<path id="path6227" inkscape:connector-curvature="0" fill="none" stroke="#0000FF" stroke-width="12" d="M2596.9,261.9V304
					 M2604.1,325.1v-84.4 M2611.3,229.5v106.8 M2618.5,344.1V221.8 M2625.7,216v133.8 M2632.9,354.3V211.6 M2640.1,208.2v149.4
					 M2647.3,266.2v-60.6 M2647.3,298.9v61.3 M2654.5,247.1v-43.3 M2654.5,318.9V362 M2661.7,240v-37.5 M2661.7,325.6v37.7
					 M2668.9,236.9v-35.3 M2668.9,328.6v35.5 M2676.1,235.8v-34.5 M2676.1,329.9v34.5 M2683.3,236v-34.6 M2683.3,329.9v34.5
					 M2690.5,237.4v-35.6 M2690.5,328.5V364 M2697.7,240.7v-38.1 M2697.7,325.2v38.1 M2704.9,248.4v-44.5 M2704.9,317.5v44.3
					 M2712.1,276.4v-70.5 M2712.1,290.4v69.5 M2719.3,357.2V208.5 M2726.5,212v141.8 M2733.7,349.2V216.6 M2740.9,222.6v120.6
					 M2748.1,335V230.8 M2755.3,242.6v80.6 M2762.5,298.5v-31.2"/>
			</g>
			<g id="g6229">
				<path id="path5296" inkscape:connector-curvature="0" fill="#FFFFFF" stroke="#0000FF" stroke-width="12" d="M2954,359.7h-49.7
					v-76.2c0-6.2-0.3-12.4-1-18.5c-0.6-6.2-1.7-10.8-3.3-13.7c-1.8-3.4-4.5-5.8-8.1-7.4c-3.5-1.6-8.4-2.3-14.7-2.3
					c-4.5,0-9.1,0.7-13.7,2.2c-4.6,1.5-9.6,3.8-15,7v108.9h-49.4V146.8h49.4V223c8.8-6.8,17.2-12.1,25.2-15.7
					c8.1-3.6,17.1-5.5,27-5.5c16.6,0,29.6,4.8,39,14.5c9.4,9.7,14.1,24.1,14.1,43.4V359.7L2954,359.7z"/>
				<path id="path6232" inkscape:connector-curvature="0" fill="none" stroke="#0000FF" stroke-width="12" d="M2805.7,146.8v212.9
					 M2812.9,359.7V146.8 M2820.1,146.8v212.9 M2827.3,359.7V146.8 M2834.5,146.8v212.9 M2841.7,359.7V146.8 M2848.9,222.8v27.8
					 M2856.1,246.8v-29.3 M2863.3,212.9v31 M2870.5,242.2V209 M2877.7,205.8v35.8 M2884.9,242.2v-38.5 M2892.1,202.4V244
					 M2899.3,250.1v-48.3 M2906.5,202v157.7 M2913.7,359.7V202.9 M2920.9,204.7v155 M2928.1,359.7V207.6 M2935.3,212.3v147.5
					 M2942.5,359.7V219.4 M2949.7,232.4v127.3"/>
			</g>
			<g id="g6234">
				<path id="path5298" inkscape:connector-curvature="0" fill="#FFFFFF" stroke="#0000FF" stroke-width="12" d="M3151.3,292h-113
					c0.7,12,5.3,21.3,13.7,27.6c8.5,6.4,21,9.6,37.5,9.6c10.4,0,20.5-1.9,30.3-5.6c9.8-3.7,17.5-7.8,23.2-12h5.5v39.6
					c-11.2,4.5-21.7,7.7-31.6,9.7c-9.9,2-20.8,3-32.8,3c-30.9,0-54.6-6.9-71.1-20.8c-16.5-13.9-24.7-33.6-24.7-59.3
					c0-25.4,7.8-45.4,23.3-60.2c15.6-14.9,37-22.3,64.2-22.3c25.1,0,43.9,6.3,56.5,19c12.6,12.6,18.9,30.7,18.9,54.5L3151.3,292
					L3151.3,292z M3102.2,263.1c-0.3-10.3-2.8-18.1-7.7-23.3s-12.4-7.8-22.6-7.8c-9.5,0-17.3,2.5-23.5,7.4
					c-6.1,4.9-9.6,12.8-10.3,23.7H3102.2z"/>
				<path id="path6237" inkscape:connector-curvature="0" fill="none" stroke="#0000FF" stroke-width="12" d="M2992.9,253.4v59.9
					 M3000.1,328.3v-90.5 M3007.3,228.1v109.5 M3014.5,344.2V221.1 M3021.7,215.7v133.6 M3028.9,353.1V211.4 M3036.1,208.2v148.1
					 M3043.3,245.4v-39.7 M3043.3,263.1V292 M3043.3,358.7v-48.8 M3050.5,203.8V238 M3050.5,292v-28.9 M3050.5,318.4v42.1
					 M3057.7,234.4v-31.8 M3057.7,263.1V292 M3057.7,361.8v-38.7 M3064.9,201.7v30.8 M3064.9,292v-28.9 M3064.9,326v36.8
					 M3072.1,232.1v-30.7 M3072.1,263.1V292 M3072.1,363.5v-35.8 M3079.3,201.4v31.2 M3079.3,292v-28.9 M3079.3,328.7v35
					 M3086.5,234.6v-32.9 M3086.5,263.1V292 M3086.5,363.7v-34.7 M3093.7,202.5v36.7 M3093.7,292v-28.9 M3093.7,329v34.4
					 M3100.9,253.3v-49.4 M3100.9,263.1V292 M3100.9,363.1v-34.8 M3108.1,205.8V292 M3108.1,362.3V327 M3115.3,208.6V292
					 M3115.3,361.1v-36 M3122.5,212.5V292 M3122.5,359.4v-36.9 M3129.7,218v74 M3129.7,357.5v-38.2 M3136.9,225.5V292 M3136.9,355.2
					v-39.7 M3144.1,237.4V292 M3144.1,352.6v-41.1"/>
			</g>
			<g id="g6239">
				<path id="path5304" inkscape:connector-curvature="0" fill="#FFFFFF" stroke="#0000FF" stroke-width="12" d="M2787.5,708.7
					c-5.3,1.4-10.9,2.4-16.9,3.1c-5.9,0.8-13.2,1.2-21.8,1.2c-19.2,0-33.5-3.9-42.9-11.6c-9.3-7.8-14-21-14-39.8v-71.8h-20.3v-33.4
					h20.3v-43.9h49.4v43.9h46.2v33.4h-46.2v54.5c0,5.4,0,10.1,0.1,14.1c0.1,4,0.8,7.6,2.2,10.8c1.3,3.2,3.5,5.7,6.7,7.7
					c3.3,1.8,8,2.7,14.3,2.7c2.6,0,5.9-0.5,10-1.6c4.2-1.1,7.1-2.1,8.8-3h4.1L2787.5,708.7L2787.5,708.7z"/>
				<path id="path6242" inkscape:connector-curvature="0" fill="none" stroke="#0000FF" stroke-width="12" d="M2676.1,556.4v33.4
					 M2683.3,589.8v-33.4 M2690.5,556.4v33.4 M2697.7,691.1V512.5 M2704.9,512.5v188.1 M2712.1,705.6V512.5 M2719.3,512.5v196.3
					 M2726.5,710.8V512.5 M2733.7,512.5v199.7 M2740.9,712.7V512.5 M2748.1,556.4v33.4 M2748.1,713.1v-37.8 M2755.3,556.4v33.4
					 M2755.3,712.9v-34.3 M2762.5,556.4v33.4 M2762.5,712.6v-33.2 M2769.7,556.4v33.4 M2769.7,711.9V679 M2776.9,556.4v33.4
					 M2776.9,710.9v-33.7 M2784.1,556.4v33.4 M2784.1,709.5v-34.5"/>
			</g>
			<g id="g6244">
				<path id="path5306" inkscape:connector-curvature="0" fill="#FFFFFF" stroke="#0000FF" stroke-width="12" d="M2968.5,642.3h-113
					c0.7,12,5.3,21.3,13.7,27.6c8.5,6.4,21,9.6,37.5,9.6c10.4,0,20.5-1.9,30.3-5.6s17.5-7.8,23.2-12h5.5v39.6
					c-11.2,4.5-21.7,7.7-31.6,9.7c-9.9,2-20.8,3-32.8,3c-30.9,0-54.6-6.9-71.1-20.8c-16.5-13.9-24.7-33.6-24.7-59.3
					c0-25.4,7.8-45.4,23.3-60.2c15.6-14.9,37-22.3,64.2-22.3c25.1,0,43.9,6.3,56.5,19c12.6,12.6,18.9,30.7,18.9,54.5L2968.5,642.3
					L2968.5,642.3z M2919.4,613.5c-0.3-10.3-2.8-18.1-7.7-23.3c-4.8-5.2-12.4-7.8-22.6-7.8c-9.5,0-17.3,2.5-23.5,7.4
					c-6.1,4.9-9.6,12.8-10.3,23.7L2919.4,613.5L2919.4,613.5z"/>
				<path id="path6247" inkscape:connector-curvature="0" fill="none" stroke="#0000FF" stroke-width="12" d="M2805.7,631v6.1
					 M2812.9,670.5v-73.8 M2820.1,584.1v98.5 M2827.3,690.6v-115 M2834.5,569.1v127.4 M2841.7,701.2v-137 M2848.9,560.3v144.4
					 M2856.1,608.2v-50.8 M2856.1,613.5v28.9 M2856.1,707.5v-60.1 M2863.3,555.2v37 M2863.3,642.3v-28.9 M2863.3,664.2v45.5
					 M2870.5,586.6v-33 M2870.5,613.5v28.9 M2870.5,711.4v-40.6 M2877.7,552.6v31.3 M2877.7,642.3v-28.9 M2877.7,674.7v37.9
					 M2884.9,582.7v-30.8 M2884.9,613.5v28.9 M2884.9,713.4v-36.2 M2892.1,551.6v31 M2892.1,642.3v-28.9 M2892.1,678.4v35.5
					 M2899.3,583.6v-31.8 M2899.3,613.5v28.9 M2899.3,714.1v-34.9 M2906.5,552.4v33.9 M2906.5,642.3v-28.9 M2906.5,679.6V714
					 M2913.7,592.9v-39.5 M2913.7,613.5v28.9 M2913.7,713.6v-34.4 M2920.9,554.9v87.4 M2920.9,713.2v-34.8 M2928.1,557.2v85.2
					 M2928.1,712.2v-35.5 M2935.3,560.4v82 M2935.3,710.9v-36.4 M2942.5,564.7v77.6 M2942.5,709v-37.3 M2949.7,570.7v71.6
					 M2949.7,707.1v-38.8 M2956.9,579.7v62.6 M2956.9,704.6v-40.4 M2964.1,594.7v47.6 M2964.1,702v-40.1"/>
			</g>
			<g id="g6249">
				<path id="path5300" inkscape:connector-curvature="0" fill="#FFFFFF" stroke="#0000FF" stroke-width="12" d="M2484.8,608.3
					c0,32.5-9.3,58.3-28,77.5c-18.7,19.1-44.4,28.6-77.4,28.6c-32.8,0-58.6-9.5-77.2-28.6c-18.7-19.2-28-45-28-77.5
					c0-32.8,9.3-58.6,28-77.6c18.7-19.1,44.4-28.6,77.2-28.6c32.7,0,58.5,9.5,77.2,28.6C2475.5,549.6,2484.8,575.5,2484.8,608.3
					L2484.8,608.3z M2415,659.9c5.1-6.2,8.9-13.5,11.4-21.9c2.5-8.5,3.7-18.4,3.7-29.8c0-12.2-1.4-22.6-4.3-31.2
					c-2.8-8.6-6.5-15.5-11.1-20.8c-4.7-5.5-10.1-9.4-16.2-11.9c-6-2.5-12.3-3.7-18.9-3.7c-6.7,0-13,1.2-18.9,3.6
					c-5.9,2.4-11.2,6.3-16.2,11.8c-4.6,5.1-8.3,12.2-11.2,21.2c-2.8,8.9-4.3,19.3-4.3,31.2c0,12.1,1.4,22.5,4.1,31.1
					c2.8,8.5,6.5,15.4,11.1,20.8c4.6,5.4,9.9,9.4,16.1,11.9c6.1,2.6,12.6,3.8,19.3,3.8s13.2-1.3,19.3-3.8
					C2405.1,669.4,2410.4,665.3,2415,659.9L2415,659.9z"/>
				<path id="path6252" inkscape:connector-curvature="0" fill="none" stroke="#0000FF" stroke-width="12" d="M2280,568.2v79.8
					 M2287.2,665.1V551.2 M2294.4,539.9v136.6 M2301.6,685V531.3 M2308.8,524.6v167.1 M2316,697.1V519.3 M2323.2,514.9v186.5
					 M2330.4,589.3v-77.9 M2330.4,627.6V705 M2337.6,566.3v-57.7 M2337.6,650.1v57.7 M2344.8,555.5v-49.2 M2344.8,660.8v49.3
					 M2352,549v-44.2 M2352,667.4v44.3 M2359.3,544.8v-41.3 M2359.3,671.5v41.4 M2366.5,542.2v-39.6 M2366.5,674.1v39.7
					 M2373.7,540.9v-38.6 M2373.7,675.5v38.6 M2380.9,540.6v-38.5 M2380.9,675.8v38.5 M2388.1,541.3v-38.9 M2388.1,675.1V714
					 M2395.3,543.1V503 M2395.3,673.4v40.1 M2402.5,546.1v-42.3 M2402.5,670.3v42.3 M2409.7,551.1v-45.8 M2409.7,665.2v45.9
					 M2416.9,558.9v-51.7 M2416.9,657.4v51.9 M2424.1,572.1v-62.6 M2424.1,644.6v62.4 M2431.3,703.8V512.6 M2438.5,516.5V700
					 M2445.7,695.2V521.3 M2452.9,527.2v162.2 M2460.1,682V534.4 M2467.3,543.7v129 M2474.5,660V556.4 M2481.7,578.1v60.1"/>
			</g>
			<g id="g6254">
				<path id="path5310" inkscape:connector-curvature="0" fill="#FFFFFF" stroke="#0000FF" stroke-width="12" d="M3298.1,710.1
					h-49.7v-76.2c0-6.2-0.3-12.4-1-18.5c-0.6-6.2-1.7-10.8-3.3-13.7c-1.8-3.4-4.5-5.8-8.1-7.4c-3.5-1.6-8.4-2.3-14.7-2.3
					c-4.5,0-9.1,0.7-13.7,2.2c-4.6,1.5-9.6,3.8-15,7v108.9h-49.4V556.4h49.4v17c8.8-6.8,17.2-12.1,25.2-15.7
					c8.1-3.6,17.1-5.5,27-5.5c16.6,0,29.6,4.8,39,14.5c9.4,9.7,14.1,24.1,14.1,43.4V710.1L3298.1,710.1z"/>
				<path id="path6257" inkscape:connector-curvature="0" fill="none" stroke="#0000FF" stroke-width="12" d="M3144.1,556.4v153.7
					 M3151.3,710.1V556.4 M3158.5,556.4v153.7 M3165.7,710.1V556.4 M3172.9,556.4v153.7 M3180.1,710.1V556.4 M3187.3,556.4v153.7
					 M3194.5,600.2V572 M3201.7,566.9v29.6 M3208.9,593.9v-31.5 M3216.1,558.5v33.9 M3223.3,592.1v-36.5 M3230.5,553.6v39.1
					 M3237.7,595.2v-42.7 M3244.9,552.2v51.3 M3252.1,710.1V552.5 M3259.3,553.6v156.5 M3266.5,710.1V555.6 M3273.7,558.9v151.2
					 M3280.9,710.1V563.9 M3288.1,571.8v138.2 M3295.3,710.1V587.7"/>
			</g>
		</g>
		
			<path id="path7841-0" inkscape:connector-curvature="0" sodipodi:nodetypes="czzzzzzzzzzzzzzzzzzzzzzzzzzzzzzzzzzzzzzzzzzzzzzzzzzzzzzzzzzzzzzzzzzzzzzzzzzzzzzzzzzzzzzzzzzzzzzzzzzzzzzzzzzzzzzzzzzzc" fill="none" stroke="#00B2F8" stroke-width="12" d="
			M876.9,67c13,0,22.1-21.7,35.1-21.7S934.2,67,947.2,67s22.1-21.7,35.1-21.7s22.1,21.7,35.1,21.7c13,0,22.1-21.7,35.1-21.7
			s22.1,21.7,35.1,21.7s22.1-21.7,35.1-21.7c13,0,22.1,21.7,35.1,21.7s22.1-21.7,35.1-21.7s22.1,21.7,35.1,21.7s22.1-21.7,35.1-21.7
			s22.1,21.7,35.1,21.7s22.1-21.7,35.1-21.7s22.1,21.7,35.1,21.7s22.1-21.7,35.1-21.7s22.1,21.7,35.1,21.7s22.1-21.7,35.1-21.7
			S1496,67,1509,67s22.1-21.7,35.1-21.7s22.1,21.7,35.1,21.7c13,0,22.1-21.7,35.1-21.7c13,0,22.1,21.7,35.1,21.7
			s22.1-21.7,35.1-21.7c13,0,22.1,21.7,35.1,21.7s22.1-21.7,35.1-21.7c13,0,22.1,21.7,35.1,21.7c13,0,22.1-21.7,35.1-21.7
			s22.1,21.7,35.1,21.7c13,0,22.1-21.7,35.1-21.7c13,0,22.1,21.7,35.1,21.7c13,0,22.1-21.7,35.1-21.7s22.1,21.7,35.1,21.7
			c13,0,22.1-21.7,35.1-21.7c13,0,22.1,21.7,35.1,21.7s22.1-21.7,35.1-21.7S2128,67,2141,67c13,0,22.1-21.7,35.1-21.7
			s22.1,21.7,35.1,21.7s22.1-21.7,35.1-21.7s22.1,21.7,35.1,21.7c13,0,22.1-21.7,35.1-21.7s22.1,21.7,35.1,21.7s22.1-21.7,35.1-21.7
			c13,0,22.1,21.7,35.1,21.7c13,0,22.1-21.7,35.1-21.7c13,0,22.1,21.7,35.1,21.7c13,0,22.1-21.7,35.1-21.7s22.1,21.7,35.1,21.7
			s22.1-21.7,35.1-21.7c13,0,22.1,21.7,35.1,21.7s22.1-21.7,35.1-21.7s22.1,21.7,35.1,21.7c13,0,22.1-21.7,35.1-21.7
			S2760,67,2773,67s22.1-21.7,35.1-21.7s22.1,21.7,35.1,21.7c13,0,22.1-21.7,35.1-21.7s22.1,21.7,35.1,21.7s22.1-21.7,35.1-21.7
			c13,0,22.1,21.7,35.1,21.7c13,0,22.1-21.7,35.1-21.7c13,0,22.1,21.7,35.1,21.7s22.1-21.7,35.1-21.7s22.1,21.7,35.1,21.7
			s22.1-21.7,35.1-21.7c13,0,22.1,21.7,35.1,21.7s22.1-21.7,35.1-21.7s22.1,21.7,35.1,21.7c13,0,22.1-21.7,35.1-21.7
			s22.1,21.7,35.1,21.7s22.1-21.7,35.1-21.7s22.1,21.7,35.1,21.7c13,0,22.1-21.7,35.1-21.7s22.1,21.7,35.1,21.7
			c13,0,22.1-21.7,35.1-21.7c13,0,22.1,21.7,35.1,21.7c13,0,22.1-21.7,35.1-21.7c13,0,22.1,21.7,35.1,21.7c13,0,22.1-21.7,35.1-21.7
			c13,0,22.1,21.7,35.1,21.7c13,0,22.1-21.7,35.1-21.7c13,0,22.1,21.7,35.1,21.7c13,0,22.1-21.7,35.1-21.7c13,0,22.1,21.7,35.1,21.7
			c13,0,22.1-21.7,35.1-21.7c13,0,22.1,21.7,35.1,21.7c13,0,22.1-21.7,35.1-21.7c13,0,22.1,21.7,35.1,21.7c13,0,22.1-21.7,35.1-21.7
			c13,0,22.1,21.7,35.1,21.7c13,0,22.1-21.7,35.1-21.7c13,0,22.1,21.7,35.1,21.7c13,0,22.1-21.7,35.1-21.7c13,0,22.1,21.7,35.1,21.7
			s22.1-21.7,35.1-21.7c13,0,22.1,21.7,35.1,21.7c13,0,22.1-21.7,35.1-21.7S4305,67,4318,67c13,0,22.1-21.7,35.1-21.7
			c13,0,22.1,21.7,35.1,21.7s22.1-21.7,35.1-21.7c13,0,22.1,21.7,35.1,21.7c13,0,22.1-21.7,35.1-21.7s22.1,21.7,35.1,21.7
			c13,0,22.1-21.7,35.1-21.7c13,0,22.1,21.7,35.1,21.7c13,0,22.1-21.7,35.1-21.7c13,0,22.1,21.7,35.1,21.7c13,0,22.1-21.7,35.1-21.7
			s22.1,21.7,35.1,21.7c13,0,22.1-21.7,35.1-21.7c13,0,22.1,21.7,35.1,21.7s22.1-21.7,35.1-21.7c13,0,22.1,21.7,35.1,21.7
			c13,0,22.1-21.7,35.1-21.7S4937,67,4950,67"/>
	</g>
	<g id="layer2" inkscape:label="1 Schwarz" inkscape:groupmode="layer">
		<path id="path3495" inkscape:connector-curvature="0" fill="none" stroke="#000000" stroke-width="12" d="M1471.3,62.2
			c-2-0.1-5.1,0.5-9.5,1.3c-14.9,2.7-36.6,12.7-46.5,21.5c-2.1,1.9-4.8,3.4-6,3.4s-5.4-1.7-9.3-3.9c-7.8-4.2-42.7-15-46.3-14.3
			c-1.1,0.2-3.5,3.4-5.2,7.1c-5.7,12.3-15.6,23.2-30,33c-16.6,11.3-24,15.2-40.7,22c-7.5,3-18.4,7.4-24.3,9.8
			c-12.8,5.2-38.6,11.4-65.8,15.7c-23.3,3.7-72.1,13.6-83,16.8c-4.4,1.3-15.8,5.1-25.4,8.3c-9.6,3.3-18.2,6-19.1,6
			c-2.7,0-44.3,22.2-57.8,30.8c-13.3,8.5-13.2,8.4-23,21.2c-18.7,24.3-26.7,60.5-15.9,71.9c1.4,1.5,3.4,4.6,4.5,6.8
			c1.1,2.5,4.4,5.8,8.8,8.8l6.2,4.3c0.1,0.2,0.2,0.3,0.2,0.5c0,0.1-0.2,0.3-0.5,0.6l-11.9,5.9c-12.2,6.1-27.4,15.5-33.9,20.9
			c-5.2,4.4-23.4,18.9-30.9,24.7c-8.2,6.3-23.5,22.1-30.5,31.4c-8.8,11.6-21,50.9-21.5,68.9c-0.4,13.4,12.7,55.9,19.4,63.1
			c1.8,2,3.9,4.5,4.5,5.6c2.4,4.1,16.4,19.8,23.7,26.5c13.3,12.2,19.5,16.1,32.7,20.1c6.5,2,13.2,3.6,14.8,3.6
			c1.7,0,8.5,1.2,15.1,2.7c6.7,1.5,16.2,3.3,21.2,4.1c6.8,1,10.7,2.3,15.6,4.9c7.2,3.9,8,4,16.5,2.4c11.7-2.2,20.4-2.3,39.1-0.5
			c9.8,0.9,19.5,1.5,21.4,1.2c2-0.3,5-1.9,7-3.6c4.2-3.9,9.5-4.6,22.1-3.2c4.7,0.5,12.7,0.8,17.7,0.7c9-0.3,9.1-0.3,9.6-2.8
			c0.3-1.4-0.9-4.2-2.6-6.3s-3.1-4.2-3.1-4.8c0-1.1,18.1-12.3,19.8-12.3c0.5,0,3.8,3.3,7.4,7.4c3.5,4.1,15.4,15.5,26.5,25.4
			c11,9.9,21.8,19.6,24,21.6c2.1,2,10.2,8.1,17.9,13.6c7.7,5.5,17,12.3,20.6,15.2c9,7.1,38.9,21.2,55.7,26.4c3.3,1,8.4,2.7,11.4,3.7
			c2.9,1,10.4,3,16.7,4.4c6.2,1.4,14.8,3.8,18.9,5.2c4.6,1.6,18,4.4,33.9,7.2c25.1,4.4,26.4,4.7,29.9,7.6c3.2,2.7,13,6.9,18.8,8.1
			c1.2,0.3,4.7,0.4,7.6,0.3c4.8-0.1,5.7-0.6,10.1-4.9c5.9-5.9,8.5-7,19-8.4c7.6-1,9-0.9,16.9,0.6c6.3,1.2,12.1,1.7,21.7,1.7
			c14.3,0,18.6-1,18.6-4.5c0-1.8-0.1-1.8-4.4,0.5c-3.9,2.1-5.5,2.3-13.4,2.3c-7.1,0-11-0.5-18.7-2.6c-9.6-2.6-9.7-2.6-10.1-6.3
			c-0.6-4.7,4.7-12.3,9.7-14c4.6-1.6,15.8-0.9,23.2,1.5c6.8,2.2,13.8,8.1,13.8,11.7c0,2.1,0.4,2.5,1.5,1.6c0.8-0.7,1.5-2.5,1.5-4.1
			c0-2.5,1-3.3,6.1-5.4c4.3-1.8,6.9-2.4,9.1-2c2.7,0.5,3,0.3,2.2-1.5c-1.2-2.5,1.4-9,5.6-14.2c3.1-3.8,3.6-4,7.9-3.6l4.7,0.4
			l0.8-5.3c1.7-11.7,0.7-21.9-2.8-28.8c-1.9-3.7-2.8-7-2.2-7.3c0.7-0.3,8.4,0.2,17.1,1.3c8.7,1.1,28.5,3.1,43.9,4.5
			c24.8,2.3,31.3,2.6,56.8,2.6c15.8,0,35.9-0.4,44.7-0.9c13.3-0.8,20.3-0.7,42.4,0.5c19.3,1,36,1.3,61.3,1.1
			c37.8-0.3,47.9-1.1,69.6-5.2c14.9-2.9,18.1-3.8,40.7-12.4c20.8-7.9,20.2-7.8,43.4-2.9l13.5,2.9l4.7,5.3c6,6.7,9.8,8.9,15.4,8.9
			c1.3,0,3.6-0.4,6.1-1l0.3,0l-0.2,0c7.8-1.8,19-5.5,19.9-7c0.7-1.1,2.3-1.8,4.9-2c0.8,0,1.5,0,2.6,0c0.8,0,1.3,0,2,0
			c1.1,0.1,2.3,0.2,3.7,0.4c4.6,0.7,9.4,2.4,17.2,6.4c10,5.1,22,9,22,7.2c0-0.4-0.8-0.8-1.8-0.8c-6.7,0-23.9-10-23.9-13.9
			c0-2.6,10.5-9.5,16.7-10.8c6-1.3,13.5,0.7,21.5,5.7c3.8,2.4,6.8,3.6,7.9,3.2c4.2-1.6,17.1-2.6,23.7-1.8c8.7,1.1,25.8,1.1,31,0
			c3.9-0.8,4.1-1,3.3-5.4c-0.8-4.5-4.6-9.5-10.4-13.7c-2.2-1.6-3-4-3.6-11.6c-1.7-20.7-4.9-27.8-21.1-45.5
			c-17.8-19.6-28.5-28.8-49.7-43.1c-1.4-1-5.4-7.3-8.8-14.1c-3.4-6.8-7.1-13.9-8.3-15.9c-1.2-2-3.6-6.3-5.3-9.6
			c-1.8-3.3-8.6-14.8-15.1-25.6c-6.6-10.8-15.1-25.1-19-32c-8.7-15.3-21.9-29.6-34-37.2c-3.5-2.2-4.2-3.6-5.8-12.5
			c-4.7-25.7-11.6-42.3-23.4-56.7c-9.3-11.4-9.8-11.7-20-16.7c-10.8-5.2-16.3-6.5-24.8-5.9c-8.4,0.6-31.1,7-42.7,12
			c-4.5,1.9-16,6.8-25.6,10.8c-9.6,4-20,8.4-23.1,9.7c-3.1,1.4-6,2.3-6.5,2.1c-0.8-0.4,1.2-3.3,6.8-9.8c7.1-8.3,8-11.8,7.1-28.3
			c-0.5-8.6-1.6-17.1-2.6-18.8c-2.2-3.9-15.5-19-19.3-21.9c-1.6-1.2-3.4-3.1-4.1-4.2c-1.2-2-20.3-14.4-22.1-14.4
			c-0.5,0-10.7-5.6-22.7-12.4c-13.6-7.8-27.1-14.6-36.2-18.2c-15.2-6.1-32.1-11.7-35.6-11.7c-1.1,0-14.7-3.4-30.2-7.6
			c-15.5-4.2-29.4-7.6-30.9-7.6c-3.1,0-24.4-5.9-32.1-8.9c-2.9-1.1-9-3.1-13.5-4.5c-13.2-3.9-34.8-16.4-46.1-26.7
			c-9.8-8.9-12.3-18.6-8.2-30.9c1.5-4.6,2.5-8.8,2.1-9.4c-2.2-3-37.4,0.7-53.4,5.6c-4.6,1.4-5,1.4-5.9,0.2
			c-0.5-0.7-0.5-7.4,0.1-14.9C1475.3,65.6,1475.7,62.3,1471.3,62.2L1471.3,62.2z M1466.5,64.8c2,0.1,2.1,3.1,2.2,25
			c0.1,23.9,0.4,26,4.1,36.1c6.5,17.6,10.1,24.8,12.5,24.8c3.8,0,3.9-2.1,0.6-9.7c-1.7-4.1-4.5-13.3-6.2-20.6
			c-5.3-23.1-4.8-23.9,14.4-28.8c9.1-2.3,32.1-5.1,33.3-4c0.4,0.3,0.1,1.6-0.6,2.9c-5.1,9.3-2.4,26.1,5.5,34.4
			c7.7,8.1,16,14.7,20,15.8c2.1,0.6,6.4,2.7,9.4,4.6c7.4,4.7,33.3,14.4,47.9,17.9c37.8,9.1,97.8,25.5,110.1,30.2
			c17.9,6.8,64,31.7,82.2,44.4c7.9,5.6,14.8,14,21.4,26.7c3,5.7,4.5,19.7,3,28c-2.5,13.7-13.7,32.3-20.3,33.6
			c-1,0.2-9.6-0.3-19.1-1.2c-25.8-2.4-75.2-3.7-97.6-2.6c-10,0.5-24,1.1-31.2,1.4l-13,0.5l-0.9-6.3c-0.5-3.5-3.6-12.2-7-19.5
			c-3.3-7.3-6.8-15.5-7.8-18.4c-1.6-4.8-13.4-20.6-22.3-30c-2.1-2.2-7.7-6.7-12.4-10c-4.7-3.3-9.7-6.9-11-8
			c-5.6-4.5-29.7-17.5-41.9-22.6c-7.2-3-14.8-6.6-16.8-8.1c-2.1-1.5-5.7-4-8-5.5c-2.3-1.6-5.1-4.6-6.1-6.7c-2.1-4.4-4.6-5.1-5.3-1.3
			c-0.9,4.8,12.5,15.1,34.5,26.6c23.1,12,40.2,22.4,49,29.7c13.8,11.5,26,25.5,29.1,33.4c1.4,3.7,4.1,9.5,6,12.8
			c7.5,13.4,14.1,33.1,11.4,34.6c-0.7,0.4-8.1,1.3-16.6,2.1c-8.5,0.8-16.2,1.8-17.2,2.2c-1,0.4-4.3,1-7.4,1.3
			c-14.9,1.4-51.3,7.5-74.4,12.5c-14.1,3-26.9,5.5-28.3,5.5c-1.4,0-6.7-1.4-11.7-3.1c-8.7-3-47.3-12.9-62.8-16.1
			c-3.9-0.8-12.1-2.8-18.2-4.4c-19.9-5.3-29.2-6.8-43.4-6.9c-28.4-0.3-50.3,6.6-56.4,17.7c-1.6,2.8-2,12-2,40c0,20,0.3,39,0.6,42.3
			c0.6,5.5,0.4,6-2.3,6.1c-5.3,0.3-43.3-4.5-65.8-8.2c-30.6-5.1-39.9-7.8-55.8-16.5c-15.4-8.4-14.3-7.4-26.7-22.5
			c-11.5-13.9-21.7-33-26.7-49.7c-2.9-10-3.1-12-1.5-19.3c3.2-14.6,10-24.4,28-40.1c17.4-15.2,34.1-25.5,58.1-36.1
			c7-3.1,10.5-6.4,6.6-6.4c-2.9,0-32,12.9-44.1,19.6c-14.7,8.1-32.9,22.1-43.1,32.9c-22.3,23.9-23.3,58-2.4,85.7
			c4.1,5.4,16.7,24.9,16.7,25.7c0,0.3-1.3,0.6-2.8,0.6c-8.6,0-65.4-19.8-89.6-31.3c-23.4-11.1-46.5-23.2-55.3-29.1
			c-21.5-14.2-28-35.4-18.3-59.4c2.2-5.4,4-10.6,4-11.5c0-2.1,9-13.9,19.7-25.9c8.4-9.4,9.4-10.1,30-21.6
			c11.7-6.5,25.3-13.7,30.3-15.8c25.8-11.2,71.3-22.7,127.1-32.1c21.7-3.7,40-7.2,46.5-9.1c17.6-5.1,42.2-14.4,56.7-21.4
			c7.5-3.6,14.5-6.6,15.6-6.6c3.4,0,30.6-20.6,38-28.8c3.8-4.1,8.7-10.9,11-14.9c4.9-8.8,5.6-8.9,21.5-4.7
			c11.2,3,23.8,9.3,28.9,14.6l3.1,3.3l-3.8,7.1c-5.8,10.7-21.1,26.6-33,34.4c-7.6,5-10,7.2-10,9.1c0,1.6,0.7,2.4,1.9,2.2
			c3.2-0.6,26.4-17.4,34.4-25c8.8-8.4,14.1-15.5,19.1-25.6c3.3-6.8,11.1-15.5,17.2-19.1c1.4-0.9,3.7-2.5,5-3.6
			c2.4-2.1,23.6-9.8,29.2-10.7C1465.9,64.9,1466.2,64.8,1466.5,64.8L1466.5,64.8z M1243.3,217.1c-2.3,0-6.5,0.6-12.3,1.9
			c-8.2,1.9-9.7,2.7-7.5,3.9c1.6,0.9,3.8,0.6,12.5-1.7C1245.3,218.8,1247.1,217.1,1243.3,217.1L1243.3,217.1z M1924,290.4
			c4.2,0,8,0.4,10.6,1c4.4,1,13.1,6.7,19.6,12.7c4.1,3.8,9.2,11.3,14.9,22c3.2,6.1,10.9,38.4,9.4,39.8c-0.4,0.4-2,0-3.6-0.7
			c-1.8-0.9-3.5-1.1-4.3-0.6c-0.9,0.5,3.6,4.8,11.6,11.1c21.9,17.5,34.9,33.1,53.4,64.3c4.8,8.1,13.7,22.9,19.7,32.8
			c21,34.7,28.1,50.4,26.8,59.3c-0.5,3.5-2.8,6.9-9.9,14.7c-13.2,14.5-33.7,30.3-61.7,47.9c-12.2,7.6-79.6,36.3-97.4,41.4
			c-12.5,3.6-36.5,7.5-55.4,9c-26.6,2.1-85,1.9-111.1-0.3c-10.4-0.9-22.7-1.9-27.3-2.2c-4.6-0.3-20.6-1.7-35.6-3.2
			c-23.1-2.2-33-3.7-64.4-9.6c-20.4-3.8-44.9-8.3-54.5-10c-37.2-6.6-109.6-20.8-110.8-21.8c-0.7-0.6-0.8-2.5-0.3-4.4
			c0.8-3.1,0.6-3.4-2.2-3.4c-4.2,0-6.3,2.3-6.3,6.8c0,3.5,0.3,3.8,7.1,6c3.9,1.3,7.9,2.4,8.9,2.4c2.2,0,3.7,1.8,3.7,4.8
			c0,2.6,5.1,9,8.3,10.4c4.5,2,9.6,1.1,19.1-3.2l9.3-4.3l27.5,4.9c15.1,2.7,44.8,8.2,66.1,12.2c46.9,8.9,58.6,10.7,81.7,12.8
			c9.8,0.9,18.3,1.6,18.9,1.6s0.6,0.4,0.1,0.8c-1.6,1.4-33.4,0.9-52.8-0.8c-28.1-2.5-105-10.3-115.3-11.6
			c-13.2-1.8-38.5-5.9-83.9-13.7c-69.9-12-94.1-20.1-118.9-39.8c-14.6-11.6-32.8-29.1-37.5-36.2c-6.3-9.6-7.5-23.1-2.9-34.9
			c3-7.8,2.7-9.9-1.6-9c-1.1,0.2-4.6,3.7-7.7,7.7c-4.7,6-5.9,8.6-6.6,14.7c-0.9,6.9-0.6,8.1,4,15.8c11,18.6,35.1,40.8,56.1,51.5
			c11.6,5.9,11.8,6.4,4.4,8.8c-7.4,2.5-13.1,5.7-14.3,8c-1.2,2.3,9.6,13.5,24.7,25.5c17,13.5,17.2,13.6,52.6,13.6
			c26.9,0,27.4,0,36.8-2.3c12.6-3.1,16.4-5.5,17.7-11.6c0.6-2.7,1.3-4.8,1.5-4.8s8.9,1.2,19.2,2.7c10.3,1.5,30.8,4.4,45.6,6.5
			l27,3.8l3.2,3.3c5.4,5.5,8.7,12.4,10.4,21.9c2.1,11.1,1.2,14.2-4.6,15.7c-4.5,1.2-11.2,8.5-12.9,14.1c-1,3.1-5.3,5.8-11.6,7
			c-3.4,0.7-4.5,0.5-7.4-1.1c-4.6-2.6-17.4-5.9-26.2-6.7c-6.8-0.6-7.6-0.5-11,1.4c-4.8,2.7-10.8,11.3-12,17.1
			c-0.7,3.3-1.7,4.8-3.8,5.4c-5.3,1.5-13.3,1-15.3-1c-3.1-3-17-10.4-21.7-11.4c-7.8-1.7-12-0.3-18.3,6.5c-3.1,3.3-6.1,5.9-6.7,5.9
			c-5,0-55.9-10.7-75.2-15.8c-24.5-6.5-30.1-8.4-52.3-18c-20.5-8.8-27.7-13.8-70.3-48.5c-23.1-18.8-49.3-44.6-51.5-50.6
			c-0.7-2,0.2-4.1,3.9-8.6c8-9.8,12-17.4,12.1-23.1c0-9.5-5.8-28.6-12.2-40c-11.8-20.9-17.7-28.6-28.6-37.6
			c-5.7-4.7-11.7-10.8-13.6-13.8c-3.9-6.4-7-8.1-5.7-3.2c1,4.1,0.2,4.5-4.6,2.5c-2.1-0.9-4.4-1.6-5.1-1.6c-2.3,0-1.4,2.4,1,2.9
			c3,0.6,19.3,12.2,25.7,18.3c9.2,8.7,25.7,36.6,30.5,51.5c2.8,8.6,1.9,28.2-1.5,33.7c-4.5,7.2-13.3,16.9-19.9,21.7
			c-7.9,5.9-10.6,7.2-18,9.1c-3,0.8-10.2,3.7-16,6.4c-13.2,6.2-17.4,7.2-20.6,4.7c-1.3-1-4.4-3.3-6.8-5.1
			c-8.4-6.4-15.4-5.3-27.1,4.1c-6.6,5.3-6.8,5.4-12.8,5.2c-5.9-0.2-6.3-0.4-10.5-5c-4.8-5.3-8.1-7.6-11-7.6c-1.1,0-5.9,1.8-10.7,4.1
			c-8.3,3.8-9.2,4-15.6,3.7c-7.2-0.4-45.6-9.5-57-13.5c-6.9-2.5-9.6-4.6-23.1-18.4c-22.6-23.1-34.1-43-41-71.3
			c-2.9-11.6-3.2-15.7-2.4-27.8c2.1-30.6,10.9-49.5,34.7-74.5c20.9-21.9,56.3-49.4,78.3-60.7l7.7-4l8.7,4.8
			c4.8,2.7,17.9,9.4,29.1,15c19.3,9.6,20.3,10.3,17.5,11.3c-1.6,0.6-3.9,1.1-5.1,1.1s-4.3,0.7-6.9,1.5s-12.1,3.2-21.1,5.3
			c-19.1,4.4-21.5,5.8-20,11.2c2,7,12.8,20.2,24.7,30.2c8.8,7.4,32.1,19.9,42.2,22.6l8.6,2.3l55.4-0.1c45-0.1,57.6-0.3,67.1-1.4
			c6.4-0.7,17.5-1.3,24.7-1.3c11.8,0,13.4-0.2,16.7-2c3.1-1.6,3.7-2.7,3.7-6.5v-4.5l4.9,0.5c17.3,1.6,57,5.4,59.8,5.8
			c3.2,0.4,3.4,0.8,3.4,6.7c0,4.6-1,7.8-3.8,12.1c-4.9,7.7-4.9,8,1.5,8c4.2,0,5.4-0.4,6-1.8c4.4-11,11.3-24.6,16.8-33.5
			c7.4-12,8.3-15.3,4.1-14.9c-1.9,0.2-4.2,2.6-7.8,8.5c-3,4.8-5.6,7.8-6.3,7.2c-1.5-1.5-3.6-36-3.4-57.4
			c0.1-20.7,2.3-28.4,10.2-35.4c5.7-5.1,10.9-6.2,30.4-6.7c27.8-0.8,36.8,0.8,100.7,16.8c25.6,6.4,32.6,8.5,32.6,9.7
			c0,1.1-5.2,3.2-18.6,7.4c-17,5.4-22.5,8.2-16.1,8.2c1.3,0,6.3-1.2,11-2.7c31.7-9.9,74.2-19.4,116.3-26
			c29.5-4.6,85.1-10.1,114.1-11.3c43.3-1.7,87.6-0.7,122.2,2.8c14.9,1.5,14.5,1.5,12.6-0.4c-1.4-1.4-0.4-2.3,7.8-6.8
			c10.8-6,63.8-27.8,74.1-30.5C1909,291,1917,290.4,1924,290.4L1924,290.4z M1912.2,353.8c-2.6,0-5.5,0.3-8.9,0.9
			c-3.9,0.7-7.9,1.1-9,0.9c-1.1-0.2-7.3,0.9-13.9,2.5c-6.6,1.6-15.4,3.4-19.7,3.9c-8.2,1.1-31.7,7-33.2,8.4
			c-0.5,0.4-8.9,3.4-18.7,6.6c-21.5,7.1-54.8,23.1-73.9,35.7c-14,9.2-15.8,11.6-11.7,15.1c3.7,3.1,23.9,12.8,28.1,13.5
			c1.9,0.3,9.2,1.9,16.3,3.6c8.7,2.1,16.6,3.3,24.2,3.8c22.2,1.4,24.2,1.1,35.1-5.6c13-8.1,32.6-21.3,44.9-30.3
			c6.8-5,15.4-11.1,19.2-13.5s7.8-5.5,9.1-6.8c1.3-1.3,5-4.7,8.3-7.6c7.7-6.6,8.6-7.7,13.2-16.3c3.6-6.6,3.7-7.4,1.8-10.4
			C1921.6,355.2,1917.8,353.8,1912.2,353.8z M1910.5,356.3c5.8,0,8.1,1.3,9,4.2c2.3,7.5-22.7,31.9-50.6,49.2
			c-3.8,2.4-11.6,7.9-17.3,12.3c-12,9.2-30.8,20.9-36.7,23c-2.3,0.8-5.5,1.4-7.1,1.3c-27.1-0.9-49.5-6-69.4-15.9
			c-12.7-6.3-12.7-6.5,0.9-15.2c19.6-12.6,25.7-16,39.4-22.3c16.8-7.7,28.4-12.1,43.2-16.3c6-1.7,11-3.4,11-3.7
			c0-0.9,12.3-4.5,21.3-6.2c4.5-0.8,11.6-2.4,15.8-3.5c4.2-1.1,13-3,19.6-4.1C1899.3,357.2,1906,356.3,1910.5,356.3L1910.5,356.3z
			 M1036.2,374.1c3.6-0.1,9.5,3,19.3,10.1c3.4,2.5,9.5,5.9,13.5,7.6c4,1.7,8.6,3.7,10.2,4.5c4.3,2,22.8,8.6,24.2,8.6
			c0.7,0,5.8,1.4,11.2,3c10.9,3.3,45.9,11.2,59.2,13.4c4.6,0.7,16,2.4,25.3,3.6c20.6,2.7,23.2,3.4,23.2,6c0,2.6-5.1,3.6-18,3.5
			c-5.5-0.1-12,0.3-14.3,0.8c-2.4,0.5-20.5,1.2-40.1,1.7c-71.3,1.5-78.5,1.4-90-1.2c-9-2-31.5-14.5-37.7-21
			c-2.9-3-7.7-7.5-10.7-10.1c-6.8-5.8-15.2-17.9-14.1-20.2c0.6-1.3,5.1-2.7,17.9-5.7c9.4-2.2,18.5-4.2,20.2-4.5
			C1035.7,374.1,1036,374.1,1036.2,374.1L1036.2,374.1z M1674.4,436.8c-6,0-12.1,3.4-19,10.6c-3.4,3.6-4.5,5.6-3.9,7.5
			c0.7,2.3,8,8.9,16.4,14.7c1.6,1.1,4.6,3.4,6.7,5c2.1,1.7,5.3,3.4,7.2,3.7c4.4,0.9,5.4,0.9,12,0c8.8-1.3,13.5-5.2,14.4-11.9
			c0.7-5.1,0.4-5.7-3.2-8c-2.2-1.4-7.1-5.8-10.9-9.8C1685.6,439.5,1681,436.8,1674.4,436.8L1674.4,436.8z M1674.2,440.9
			c1.7,0,3.3,0.8,4.7,2.6c1.2,1.5,2.9,2.9,3.8,3.2c0.9,0.3,1.7,1.1,1.7,1.8c0,0.7,1.7,2.3,3.8,3.6c2.1,1.3,6.2,4.7,9.3,7.5
			c6.3,5.9,6.2,8.2-0.3,12.7c-3.1,2.2-5.1,2.8-9,2.8c-4.7,0-5.7-0.5-17.2-9.8c-7.1-5.7-12.2-10.6-12.2-11.8c0-1.8,3.4-5,11.3-11
			C1671.4,441.5,1672.9,440.9,1674.2,440.9L1674.2,440.9z M1875.7,464.8c-1.6,0-3.3,0.1-5.3,0.2c-4.9,0.2-8.8,1-11,2.1
			c-1.9,0.9-4.2,1.7-5.2,1.7s-4.4,1.9-7.6,4.2c-3.2,2.3-11.8,7.1-19.1,10.5c-14.7,7.1-20.5,11.2-20.5,14.8c0,2,1.5,3,7.9,5.5
			c4.4,1.7,9.6,4.1,11.7,5.3c2.1,1.2,6.2,2.9,9.1,3.8s7.4,2.6,9.9,3.8c2.5,1.2,6.2,2.7,8.3,3.4c4.7,1.6,18.1,1.8,21.9,0.3
			c2-0.8,3.5-3.3,5.4-9c1.4-4.3,4.1-12.2,6-17.5c2.6-7.2,3.2-11.4,2.7-16.8C1888.9,467.3,1886.7,464.7,1875.7,464.8L1875.7,464.8z
			 M1875.4,468.1c1.5-0.1,2.5,0.1,3.4,0.6c3,1.3,5.4,5.9,5.4,10.1c0,4.4-10,35.8-12.1,37.9c-3,2.9-9,2-25.1-4.1
			c-8.3-3.1-17.4-6.8-20.4-8.3c-2.9-1.5-6.8-3.1-8.7-3.6c-7.3-2-4.7-4.2,19.5-17.6c20.2-11.1,23.9-12.8,30.9-14.1
			C1871.7,468.5,1873.8,468.2,1875.4,468.1z M2006.6,469.6c-1.2,0-2.4,0-3.5,0.1c-6.5,0.3-9.8,1-17.8,4.1
			c-12.6,4.7-21.9,10.3-31.3,18.4c-9.7,8.5-12.6,13.6-17.7,30.9c-3.2,10.9-2.3,44.7,1.2,49c1.4,1.6,3.6,3,4.9,3
			c2.9,0,78.1-26.3,78.1-27.3c0-0.4-2-0.1-4.5,0.7c-6.5,2-7.5,0.9-6.1-6.7c0.7-3.6,1.3-11.5,1.2-17.6c0-20-7.1-32.8-22.7-41.1
			c-8.7-4.6-8.6-4.9,3.5-8.3c10.9-3.1,24.9-3.3,30.7-0.5c5.3,2.6,11.4,8.2,14.8,13.6c2.5,3.9,2.7,4.1,1.9,1.2
			c-2.4-8.8-12.3-17-22.9-18.8C2014.3,469.9,2010.3,469.7,2006.6,469.6z M1521.3,481.1c-1.8,0-3.6,0-5.3,0.1
			c-12,0.6-24.2,2.4-28.7,4.2c-1.9,0.8-6.2,2.1-9.6,3c-9.2,2.4-21,9.3-27.7,16.2c-5.8,6-9.7,11.9-14.7,22.5c-1.4,2.9-3,6.4-3.8,7.8
			c-0.7,1.4-1.2,8.3-1,15.2c0.2,11.5,0.5,12.8,3.7,15.5c1.9,1.6,5.3,3.3,7.6,3.7c6.9,1.4,20.6,2.7,24.6,2.4c2.8-0.2,0.7-0.8-8.2-2.3
			c-14-2.3-16.9-3.9-20-10.8c-0.5-1.2-0.9-2.3-1.2-3.5c-0.1-2.4-0.1-5.5-0.1-10.2c0-1.3,0-2.1,0-3.2c0.2-1.7,0.5-3.4,0.9-5.4
			c3.8-20.6,20.9-36.8,50.4-47.9c10.2-3.8,25.9-5.8,35.5-4.4c10.1,1.4,10.6,1.9,5.3,5.4c-11.5,7.6-15.5,14.9-18.6,34.2
			c-2.5,16.1-1.8,27.9,2.4,39.4c2,5.5,3.6,10.8,3.6,11.8c0,2.3-2.1,2.3-15.9,0.2c-11.7-1.8-19-2.1-16.5-0.8
			c1.4,0.7,75.8,11,113.4,15.6c16.9,2.1,20.3,2.3,23.3,1.2c2.6-0.9,4.5-6.6,4.6-14.1c0.1-6.8-4.9-28-8.3-34.9
			c-3.4-6.9-12.1-20.3-14.6-22.4c-1.2-1-4.8-4.5-8-7.8C1575.5,492.8,1548.1,481.3,1521.3,481.1L1521.3,481.1z M997.6,481.2
			c-7-0.1-13.9,3.1-31.2,12.8c-7.7,4.3-20,15.4-26.2,23.6c-6.5,8.6-5.4,13.6,4.7,22.8c2.3,2.1,5.1,5.3,6.1,7.1s3.5,4.1,5.4,5.2
			s5.7,4.2,8.3,7.1c2.6,2.9,6.8,6.5,9.4,8.2c5.3,3.4,8.2,3.7,20.2,1.7c7.7-1.2,14.5-3,38.8-9.9c25.3-7.2,27.2-8.2,28.9-14.6
			c5.1-19,5.2-19.9,4.6-32.9c-0.2-3.6-0.7-4.2-8.5-8.1c-4.6-2.3-8.3-4.6-8.3-5.1s-2.6-1.7-5.7-2.8s-11.8-4.4-19.3-7.3
			s-16.4-6-19.8-6.8C1002.3,481.6,1000,481.2,997.6,481.2z M1931.2,482.3c-4.9,0-21.7,23.7-24.1,34c-1.9,8.1-2.2,17.4-0.6,18.3
			c0.6,0.3,2.1,0.4,3.4,0.3c2-0.2,2.3-1.5,1.9-7.9c-0.8-13.4,3.6-24.2,15.8-38.1C1933.3,482.2,1933.2,482.3,1931.2,482.3
			L1931.2,482.3z M1976.7,482.4c3.2,0.3,13.8,5,17.2,7.8c2.1,1.7,5.6,5.7,7.7,9c3.5,5.3,4,7.6,4.8,20.8c0.9,15-0.8,26.7-4.5,30.9
			c-1.6,1.8-16.2,7.3-46.2,17.3c-14.6,4.9-16,3.2-15.9-20.3c0.1-24.5,4.1-39,13.9-49.9c3.6-4,15.9-12.6,20.8-15
			C1975.5,482.6,1976.2,482.4,1976.7,482.4z M997.5,485.8c1.6,0,3.2,0.4,6.4,1.4c3.2,1,7.5,2.6,9.6,3.6s9.2,3.5,15.9,5.7
			c6.7,2.2,16,6,20.8,8.6l8.7,4.7v9.6c0,9.3-3.4,25.8-6,29c-0.7,0.9-7.6,3.2-16.2,5.5c-20,5.2-28.5,7.5-38.4,10.1
			c-15.8,4.2-16.5,4.1-24.5-4.3c-2.6-2.7-5.5-5.4-6.6-6.1c-1.9-1.1-8.1-7.6-14.7-15.2c-1.7-2-4-4.6-5.2-5.7
			c-4.7-4.9-1-14.3,8.7-22.3c2.9-2.4,7.2-5.9,9.4-7.8c5-4.2,24-14.8,29-16.2C995.7,486,996.6,485.8,997.5,485.8L997.5,485.8z
			 M1614.5,487.1c-2.6,0-1.3,1.3,8.6,8.4c5.5,3.9,12.2,9.5,14.9,12.4c8.9,9.3,18.6,24.1,20.4,30.8c1.1,4.3,2.5,6.7,4.2,7.4
			c7.1,2.8,7.6,0.1,2-10c-5.4-9.7-16.9-24.6-22.6-29.4C1634.3,500.2,1615.9,487.1,1614.5,487.1z M1543.9,488.1
			c1.7,0.1,3.6,0.5,6.2,1.2c24.9,7,48.2,26.9,59,50.5c9.1,19.8,13.3,38.9,9.9,44.3c-1.9,3-2.4,3.2-8.1,3.3c-3.3,0.1-14.9-1-25.7-2.3
			c-10.8-1.3-27.5-3.3-37.1-4.4c-9.6-1.1-18.7-2.4-20.2-2.8c-10.6-2.9-16.2-31.3-11.7-59.4c1.8-11.4,4.5-15.8,14.1-23.3
			C1537.3,489.9,1540.1,488,1543.9,488.1L1543.9,488.1z M2040.9,493.1c-0.3-0.1-0.5,0.4-0.5,1.2c0,1.1,0.3,1.5,0.8,1
			c0.4-0.5,0.4-1.4,0-2C2041.1,493.2,2041,493.1,2040.9,493.1z M2042.4,497.9c-0.3-0.1-0.5,0.4-0.5,1.2c0,1.1,0.3,1.5,0.8,1
			s0.4-1.4,0-2C2042.6,498,2042.5,497.9,2042.4,497.9z M2043.8,502.6c-0.2,0-0.4,0.3-0.4,0.9c-0.1,0.8,0.3,1.3,0.8,1
			c0.5-0.3,0.6-1,0.1-1.5C2044.1,502.7,2043.9,502.6,2043.8,502.6z M2045.5,507c-0.2-0.1-0.4,0.6-0.4,1.7c0,1.5,0.3,2.2,0.7,1.4
			c0.4-0.8,0.4-2,0-2.8C2045.7,507.1,2045.6,507,2045.5,507z M2047,512.2c-0.3-0.1-0.2,2.5,0.3,6c2.1,16.2,1.1,18.5-10.1,23
			c-3.7,1.5-7.1,3.1-7.4,3.5c-0.7,1.1,5.1-0.6,13.6-3.9c4.5-1.7,7.3-3.5,7.8-4.9C2052,534,2048.5,514,2047,512.2
			C2047,512.3,2047,512.2,2047,512.2L2047,512.2z M2089.4,521.1l6,4.8c7.7,6.1,25,23.6,32.1,32.4c4.5,5.5,17.1,24.2,17.1,25.3
			c0,1-3.8-0.2-10.8-3.3c-4.4-2-14.3-6-21.9-8.8s-14.7-5.7-15.6-6.3c-2.3-1.5-10.9-24.4-9.6-25.5c0.6-0.5,1.5-4.9,1.9-9.7
			L2089.4,521.1L2089.4,521.1z M2080.5,545.7c0.4,0,0.6,0.3,0.6,1c0,2.7,7.8,19.9,9.5,21c0.9,0.6,7,3,13.6,5.5
			c6.6,2.4,12.9,5.2,14.2,6.2c1.2,1,5.6,2.8,9.7,4c4.1,1.2,7.9,2.5,8.4,2.9c0.5,0.4,3.2,1.3,6.1,1.9c6.2,1.4,7.4,3.2,7.5,12.1
			l0.1,5.9c-0.3,0.4-0.6,0.7-0.9,1.1l-7.5,4.3c-5.9,3.4-9.8,6.6-13,10.7c-4.3,5.7-4.7,5.9-11.5,7l-7,1.2l-7.9-4.1
			c-10.9-5.6-14.6-6.3-22.2-4.3c-5.3,1.4-8,2.8-18.5,9.5l0,0c-1.6,1-3.7,1.7-4.8,1.6c-1.1-0.1-5.6-0.3-10.1-0.4
			c-7.7-0.3-8.2-0.4-10.3-3.2c-8.9-11.8-16.8-13.4-31.9-6.5c-4.9,2.2-10.5,4.2-12.4,4.5c-4.7,0.6-18.8-1.7-23.8-4l-3.9-1.8l5-2.4
			c2.8-1.3,14.2-6.7,25.4-12c11.2-5.3,22.9-11,26-12.8c14.4-8.2,46.9-34.4,54.2-43.5C2077.7,547.5,2079.6,545.7,2080.5,545.7
			L2080.5,545.7z M1247.4,566.7c-1.9,0-3.8,0.1-5.7,0.4c-7.1,1-8.1,2.1-9.1,9.6c-1.1,7.8,0.3,9.2,11.8,11.7c5,1.1,10.9,3,13.2,4.3
			c2.7,1.6,5.6,2.3,8.6,2.3c3.7,0,5.2-0.6,8.4-3.5c2.2-1.9,3.9-4.3,3.9-5.2c0-2.6-10.2-13-15.5-15.9
			C1258.5,568,1253.1,566.7,1247.4,566.7L1247.4,566.7z M1247.8,570.2c6,0,10.3,2.2,17.9,9c5.4,4.9,6.2,6.9,3.6,9.4
			c-2,2-4.2,1.9-10.6-0.3c-2.9-1-7.7-2.3-10.6-2.9c-8.6-1.7-9.1-2.2-9.1-7.9C1239.1,571.4,1240.5,570.2,1247.8,570.2L1247.8,570.2z
			 M1340.9,599.8c1.1,0,6.4,2.4,11.8,5.3c13,7,27.8,13.2,41.7,17.6c6.2,1.9,11.7,3.5,12.1,3.5c1.7,0,23,5.7,26.3,7.1
			c4.5,1.9,3.7,3.1-4.1,6c-6.6,2.4-19.1,3.4-26.1,2.2c-2.1-0.4-9.9-0.7-17.4-0.8s-15.8-0.6-18.5-1.1c-5-1-15.4-6.9-19.7-11.3
			c-1.3-1.3-4.3-3.7-6.7-5.2c-2.4-1.5-4.3-3.4-4.3-4.1s-1.6-2.4-3.6-3.6c-6.7-4.3-8.6-7.6-6.1-11
			C1327.4,602.9,1337.5,599.8,1340.9,599.8z M1120.6,600.8c0.6,0,1,0.1,1.5,0.3c5.8,1.9,10.8,7.7,8.3,9.6c-1.9,1.5-9.8,1.8-18.2,0.7
			c-4.4-0.6-8.5-1.3-9-1.6c-1.6-0.8,1.4-2.9,9.3-6.4C1116.7,601.5,1118.9,600.8,1120.6,600.8z M1067.1,602c4-0.1,7.5,1.4,10.2,4.7
			c4.1,4.9,4.3,8.9,0.5,10.4c-3.5,1.4-3.6,1.4-16.3-0.4c-13.5-1.9-14.7-2.5-10.9-6.2C1056.2,605,1062,602.1,1067.1,602L1067.1,602z
			 M1015,603c3.1,0,11.3,7.5,10,9.2c-0.5,0.6-3.1,1.9-5.8,2.8c-2.7,0.9-5.9,1.6-7,1.6c-2.9,0-10.8-4.7-10.8-6.4
			C1001.4,608.3,1011.5,603,1015,603z M1471.5,607.3c4.1-0.1,22,3.8,22,4.9c0,0.6-2.4,2.2-5.4,3.5c-7.2,3.3-12.4,3.3-15-0.1
			c-2.9-3.8-4-7.7-2.3-8.2C1471,607.3,1471.3,607.3,1471.5,607.3z M2150.1,612.2c2.3,0.1,4.3,1.2,7.2,3.4c7.8,6,10.7,12.2,6.7,14.4
			c-3.7,2-32.1,0.6-34.7-1.6c-2.6-2.2,6.5-11.4,14.4-14.6C2146.4,612.7,2148.3,612.2,2150.1,612.2L2150.1,612.2z M2014.8,622.2
			c5,0,11.3,3.4,15.8,8.4c5.3,6,4.8,8.6-2.1,10.8c-6.5,2-16.6,2.8-20.3,1.6c-3.5-1.2-11.8-9-11.8-11.2
			C1996.3,629.2,2009.8,622.2,2014.8,622.2L2014.8,622.2z M1892,625.4c-1.7,0.1-4.7,2.5-3.8,3.3c0.4,0.4,1.4,0.7,2.1,0.7
			c1.7,0,3.6-3.2,2.3-3.9C1892.4,625.4,1892.2,625.4,1892,625.4z M1833.3,631.3c-0.6,0-1.1,0.2-1.4,0.5c-0.5,0.4-0.1,1.3,0.9,2
			c1,0.6,3.1,1.2,4.7,1.2c2.4,0,2.6-0.3,1.4-1.5C1837.5,632.1,1835,631.2,1833.3,631.3z M2105.3,645.3c-0.1,0-0.7,0.2-1.9,0.7
			c-1.5,0.6-2.7,1.2-2.7,1.4c0,0.7,1.2,0.2,3.2-1.1C2104.9,645.7,2105.4,645.4,2105.3,645.3z M1917.6,661.8c-1.8,0-3.6,0-5.5,0.1
			c-34,0.8-64.4,10.4-77,24.2l-2.5,2.8l4-2.4c2.2-1.3,6.7-4.1,10-6.2c3.3-2.1,6.9-3.8,7.9-3.8c5.5,0,68.2,27.4,74.6,32.5
			c2.4,1.9,2.4,2.2-0.7,5.5c-4.4,4.6-5.4,10.1-3.2,17c1.7,5.2,2.6,6.2,9.4,10.1c6.1,3.5,9.2,4.6,16,5.7c8.1,1.2,19.3,1.2,27.2-0.1
			c2.8-0.5,3.8,0,6.4,2.7c1.7,1.8,3.1,4,3.1,4.9c0,1.9-12.1,7.2-22.6,10c-15.6,4.1-22.3,4.8-44.8,4.8c-19,0-22.3-0.3-32.5-2.2
			c-23.8-4.5-46.1-14.9-55.7-26c-9-10.3-9.6-11.8-9.6-21.7c0-9.4,3.6-20.6,8.5-26.8c3.6-4.5-1.4-1.8-5.9,3.3
			c-10.8,12-9.3,31.2,3.5,46.3c3.7,4.4,7.4,6.9,18.3,12.6c7.5,3.9,16.5,8.1,20,9.3c9.3,3.3,24.2,5.9,39.7,7
			c22.1,1.5,29,1.3,42.4-1.1c17.1-3.1,32-8,46-15.2c12.4-6.3,14.2-7.9,24.1-21c3.5-4.6,3.9-6.3,3.9-14.8c0-19-11.1-32.4-36.4-43.8
			C1964.8,665.7,1944.6,661.7,1917.6,661.8L1917.6,661.8z M1916.3,664.5c12,0.1,25.9,0.7,33.4,1.7c0.1,0,0.3,0,0.4,0.1
			c1.5,0.3,3.1,0.6,4.7,0.9c10.5,2.4,30.2,9.1,35.6,12.2c5.7,3.2,14.1,9.8,18.4,14.4c8.1,8.5,12.8,24.9,9.5,33.1
			c-1.3,3.3-9.8,15.1-11.8,16.5v0c-2.1,1.5-3.7,1.2-6.5-1c-2.8-2.3-2.4-3.7,3-10.4c7.3-9,4.1-17.1-9.6-24.3
			c-6.2-3.3-11.6-4.4-24.8-4.7c-0.4,0-0.8,0-1.2,0c-1.3,0-2.7,0-4.1,0c-1,0-1.8,0-2.9,0h-16.3l-10.6-5.6l-8.4-4.4
			c-11.8-6.3-24.7-12.1-34.4-15.7c-8.5-3.1-15.5-6.1-15.5-6.7c0-1,10.5-3.5,22.1-5.2C1900.9,664.7,1908.1,664.5,1916.3,664.5
			L1916.3,664.5z M1425.2,708.2c1.8,0,3.9,0.2,6.3,0.7c5.9,1.3,17.8,7.9,18.3,10.2c0.7,3.5-5.5,10.2-10.7,11.7c-3.7,1-2.9,1.1-10-1
			c-14.5-4.2-18.4-7.4-15.7-12.8C1416.5,710.9,1419.7,708.3,1425.2,708.2z M1965,709.6c10.2,0,20.5,3.8,23.7,10.7
			c3,6.6-2.7,13.5-13.7,16.5c-6.6,1.8-13.7,1.4-21.4-1.1c-12.5-4.2-15.3-12.7-6.7-20.3C1951.2,711.4,1958,709.6,1965,709.6z"/>
	</g>
	<eggbot  serialport="COM3" layer="0" node="0" lastpath="0" lastpathnc="0" totaldeltax="0" totaldeltay="0"></eggbot>
</g>
</svg>
